<?xml version="1.0" encoding="UTF-8" standalone="no"?>
<!DOCTYPE svg PUBLIC "-//W3C//DTD SVG 1.1//EN"
 "http://www.w3.org/Graphics/SVG/1.1/DTD/svg11.dtd">
<!-- Generated by graphviz version 2.43.0 (0)
 -->
<!-- Title: audio_constants.hpp Pages: 1 -->
<svg width="1219pt" height="252pt"
 viewBox="0.00 0.00 1219.00 252.00" xmlns="http://www.w3.org/2000/svg" xmlns:xlink="http://www.w3.org/1999/xlink">
<g id="graph0" class="graph" transform="scale(1 1) rotate(0) translate(4 248)">
<title>audio_constants.hpp</title>
<!-- Node1 -->
<g id="node1" class="node">
<title>Node1</title>
<g id="a_node1"><a xlink:title=" ">
<polygon fill="#bfbfbf" stroke="black" points="483,-224.5 483,-243.5 600,-243.5 600,-224.5 483,-224.5"/>
<text text-anchor="middle" x="541.5" y="-231.5" font-family="Helvetica,sans-Serif" font-size="10.00">audio_constants.hpp</text>
</a>
</g>
</g>
<!-- Node2 -->
<g id="node2" class="node">
<title>Node2</title>
<g id="a_node2"><a xlink:href="fft_8hpp.html" target="_top" xlink:title=" ">
<polygon fill="none" stroke="black" points="460.5,-168.5 460.5,-187.5 508.5,-187.5 508.5,-168.5 460.5,-168.5"/>
<text text-anchor="middle" x="484.5" y="-175.5" font-family="Helvetica,sans-Serif" font-size="10.00">fft.hpp</text>
</a>
</g>
</g>
<!-- Node1&#45;&gt;Node2 -->
<g id="edge1" class="edge">
<title>Node1&#45;&gt;Node2</title>
<path fill="none" stroke="midnightblue" d="M524.88,-217.25C514.77,-207.67 502.22,-195.79 493.82,-187.83"/>
<polygon fill="midnightblue" stroke="midnightblue" points="522.68,-219.99 532.34,-224.32 527.49,-214.91 522.68,-219.99"/>
</g>
<!-- Node20 -->
<g id="node20" class="node">
<title>Node20</title>
<g id="a_node20"><a xlink:href="pulse__audio_8hpp.html" target="_top" xlink:title=" ">
<polygon fill="none" stroke="black" points="32.5,-168.5 32.5,-187.5 128.5,-187.5 128.5,-168.5 32.5,-168.5"/>
<text text-anchor="middle" x="80.5" y="-175.5" font-family="Helvetica,sans-Serif" font-size="10.00">pulse_audio.hpp</text>
</a>
</g>
</g>
<!-- Node1&#45;&gt;Node20 -->
<g id="edge27" class="edge">
<title>Node1&#45;&gt;Node20</title>
<path fill="none" stroke="midnightblue" d="M472.61,-224.93C378.09,-213.86 210.58,-194.24 128.51,-184.62"/>
<polygon fill="midnightblue" stroke="midnightblue" points="472.31,-228.42 482.65,-226.11 473.12,-221.47 472.31,-228.42"/>
</g>
<!-- Node22 -->
<g id="node22" class="node">
<title>Node22</title>
<g id="a_node22"><a xlink:href="wav__file_8hpp.html" target="_top" xlink:title=" ">
<polygon fill="none" stroke="black" points="757.5,-112.5 757.5,-131.5 835.5,-131.5 835.5,-112.5 757.5,-112.5"/>
<text text-anchor="middle" x="796.5" y="-119.5" font-family="Helvetica,sans-Serif" font-size="10.00">wav_file.hpp</text>
</a>
</g>
</g>
<!-- Node1&#45;&gt;Node22 -->
<g id="edge30" class="edge">
<title>Node1&#45;&gt;Node22</title>
<path fill="none" stroke="midnightblue" d="M583.77,-221.68C611.73,-213.62 648.93,-201.79 680.5,-188 719.21,-171.09 761.85,-145.14 783.03,-131.72"/>
<polygon fill="midnightblue" stroke="midnightblue" points="582.57,-218.38 573.91,-224.48 584.48,-225.11 582.57,-218.38"/>
</g>
<!-- Node24 -->
<g id="node24" class="node">
<title>Node24</title>
<g id="a_node24"><a xlink:href="wave__tools_8hpp.html" target="_top" xlink:title=" ">
<polygon fill="none" stroke="black" points="578,-168.5 578,-187.5 671,-187.5 671,-168.5 578,-168.5"/>
<text text-anchor="middle" x="624.5" y="-175.5" font-family="Helvetica,sans-Serif" font-size="10.00">wave_tools.hpp</text>
</a>
</g>
</g>
<!-- Node1&#45;&gt;Node24 -->
<g id="edge38" class="edge">
<title>Node1&#45;&gt;Node24</title>
<path fill="none" stroke="midnightblue" d="M563.6,-218.62C578.76,-208.76 598.38,-195.99 611.2,-187.65"/>
<polygon fill="midnightblue" stroke="midnightblue" points="561.31,-215.94 554.84,-224.32 565.13,-221.8 561.31,-215.94"/>
</g>
<!-- Node3 -->
<g id="node3" class="node">
<title>Node3</title>
<g id="a_node3"><a xlink:href="fft_8cpp.html" target="_top" xlink:title=" ">
<polygon fill="none" stroke="black" points="157,-112.5 157,-131.5 204,-131.5 204,-112.5 157,-112.5"/>
<text text-anchor="middle" x="180.5" y="-119.5" font-family="Helvetica,sans-Serif" font-size="10.00">fft.cpp</text>
</a>
</g>
</g>
<!-- Node2&#45;&gt;Node3 -->
<g id="edge2" class="edge">
<title>Node2&#45;&gt;Node3</title>
<path fill="none" stroke="midnightblue" d="M450.49,-172.49C398.93,-165.39 298.06,-150.5 213.5,-132 210.48,-131.34 207.33,-130.58 204.22,-129.78"/>
<polygon fill="midnightblue" stroke="midnightblue" points="450.04,-175.96 460.42,-173.84 450.98,-169.02 450.04,-175.96"/>
</g>
<!-- Node4 -->
<g id="node4" class="node">
<title>Node4</title>
<g id="a_node4"><a xlink:href="fft_8test_8cpp.html" target="_top" xlink:title=" ">
<polygon fill="none" stroke="black" points="1025,-56.5 1025,-75.5 1094,-75.5 1094,-56.5 1025,-56.5"/>
<text text-anchor="middle" x="1059.5" y="-63.5" font-family="Helvetica,sans-Serif" font-size="10.00">fft.test.cpp</text>
</a>
</g>
</g>
<!-- Node2&#45;&gt;Node4 -->
<g id="edge3" class="edge">
<title>Node2&#45;&gt;Node4</title>
<path fill="none" stroke="midnightblue" d="M518.56,-173.27C602.25,-164.04 813.38,-140.27 844.5,-132 866.84,-126.07 870.63,-119.47 892.5,-112 937.54,-96.62 990.83,-83.04 1024.88,-74.92"/>
<polygon fill="midnightblue" stroke="midnightblue" points="518.11,-169.8 508.55,-174.38 518.87,-176.76 518.11,-169.8"/>
</g>
<!-- Node5 -->
<g id="node5" class="node">
<title>Node5</title>
<g id="a_node5"><a xlink:href="k1__model_8hpp.html" target="_top" xlink:title=" ">
<polygon fill="none" stroke="black" points="222.5,-112.5 222.5,-131.5 308.5,-131.5 308.5,-112.5 222.5,-112.5"/>
<text text-anchor="middle" x="265.5" y="-119.5" font-family="Helvetica,sans-Serif" font-size="10.00">k1_model.hpp</text>
</a>
</g>
</g>
<!-- Node2&#45;&gt;Node5 -->
<g id="edge4" class="edge">
<title>Node2&#45;&gt;Node5</title>
<path fill="none" stroke="midnightblue" d="M450.46,-168.61C409.62,-158.54 341.51,-141.74 300.32,-131.59"/>
<polygon fill="midnightblue" stroke="midnightblue" points="449.68,-172.02 460.23,-171.01 451.36,-165.22 449.68,-172.02"/>
</g>
<!-- Node14 -->
<g id="node14" class="node">
<title>Node14</title>
<g id="a_node14"><a xlink:href="k2__model_8hpp.html" target="_top" xlink:title=" ">
<polygon fill="none" stroke="black" points="326.5,-112.5 326.5,-131.5 412.5,-131.5 412.5,-112.5 326.5,-112.5"/>
<text text-anchor="middle" x="369.5" y="-119.5" font-family="Helvetica,sans-Serif" font-size="10.00">k2_model.hpp</text>
</a>
</g>
</g>
<!-- Node2&#45;&gt;Node14 -->
<g id="edge14" class="edge">
<title>Node2&#45;&gt;Node14</title>
<path fill="none" stroke="midnightblue" d="M457.02,-164.1C435.53,-154.01 406.28,-140.27 387.64,-131.52"/>
<polygon fill="midnightblue" stroke="midnightblue" points="455.74,-167.36 466.28,-168.44 458.71,-161.02 455.74,-167.36"/>
</g>
<!-- Node16 -->
<g id="node16" class="node">
<title>Node16</title>
<g id="a_node16"><a xlink:href="k3__model_8hpp.html" target="_top" xlink:title=" ">
<polygon fill="none" stroke="black" points="556.5,-112.5 556.5,-131.5 642.5,-131.5 642.5,-112.5 556.5,-112.5"/>
<text text-anchor="middle" x="599.5" y="-119.5" font-family="Helvetica,sans-Serif" font-size="10.00">k3_model.hpp</text>
</a>
</g>
</g>
<!-- Node2&#45;&gt;Node16 -->
<g id="edge19" class="edge">
<title>Node2&#45;&gt;Node16</title>
<path fill="none" stroke="midnightblue" d="M511.98,-164.1C533.47,-154.01 562.72,-140.27 581.36,-131.52"/>
<polygon fill="midnightblue" stroke="midnightblue" points="510.29,-161.02 502.72,-168.44 513.26,-167.36 510.29,-161.02"/>
</g>
<!-- Node18 -->
<g id="node18" class="node">
<title>Node18</title>
<g id="a_node18"><a xlink:href="testing__model_8hpp.html" target="_top" xlink:title=" ">
<polygon fill="none" stroke="black" points="431,-112.5 431,-131.5 538,-131.5 538,-112.5 431,-112.5"/>
<text text-anchor="middle" x="484.5" y="-119.5" font-family="Helvetica,sans-Serif" font-size="10.00">testing_model.hpp</text>
</a>
</g>
</g>
<!-- Node2&#45;&gt;Node18 -->
<g id="edge23" class="edge">
<title>Node2&#45;&gt;Node18</title>
<path fill="none" stroke="midnightblue" d="M484.5,-157.8C484.5,-148.91 484.5,-138.78 484.5,-131.75"/>
<polygon fill="midnightblue" stroke="midnightblue" points="481,-158.08 484.5,-168.08 488,-158.08 481,-158.08"/>
</g>
<!-- Node6 -->
<g id="node6" class="node">
<title>Node6</title>
<g id="a_node6"><a xlink:href="k1__model_8cpp.html" target="_top" xlink:title=" ">
<polygon fill="none" stroke="black" points="0,-56.5 0,-75.5 85,-75.5 85,-56.5 0,-56.5"/>
<text text-anchor="middle" x="42.5" y="-63.5" font-family="Helvetica,sans-Serif" font-size="10.00">k1_model.cpp</text>
</a>
</g>
</g>
<!-- Node5&#45;&gt;Node6 -->
<g id="edge5" class="edge">
<title>Node5&#45;&gt;Node6</title>
<path fill="none" stroke="midnightblue" d="M220.44,-110.09C178.31,-99.89 116.26,-84.86 77.67,-75.52"/>
<polygon fill="midnightblue" stroke="midnightblue" points="219.62,-113.49 230.16,-112.44 221.27,-106.69 219.62,-113.49"/>
</g>
<!-- Node7 -->
<g id="node7" class="node">
<title>Node7</title>
<g id="a_node7"><a xlink:href="k1__model_8test_8cpp.html" target="_top" xlink:title=" ">
<polygon fill="none" stroke="black" points="474,-56.5 474,-75.5 581,-75.5 581,-56.5 474,-56.5"/>
<text text-anchor="middle" x="527.5" y="-63.5" font-family="Helvetica,sans-Serif" font-size="10.00">k1_model.test.cpp</text>
</a>
</g>
</g>
<!-- Node5&#45;&gt;Node7 -->
<g id="edge6" class="edge">
<title>Node5&#45;&gt;Node7</title>
<path fill="none" stroke="midnightblue" d="M316.88,-110.41C366.4,-100.2 440.36,-84.96 486.18,-75.52"/>
<polygon fill="midnightblue" stroke="midnightblue" points="316.1,-107 307.01,-112.44 317.52,-113.85 316.1,-107"/>
</g>
<!-- Node8 -->
<g id="node8" class="node">
<title>Node8</title>
<g id="a_node8"><a xlink:href="tests_2ktl__model__scoring_2main_8cpp.html" target="_top" xlink:title=" ">
<polygon fill="none" stroke="black" points="141.5,-56.5 141.5,-75.5 203.5,-75.5 203.5,-56.5 141.5,-56.5"/>
<text text-anchor="middle" x="172.5" y="-63.5" font-family="Helvetica,sans-Serif" font-size="10.00">main.cpp</text>
</a>
</g>
</g>
<!-- Node5&#45;&gt;Node8 -->
<g id="edge7" class="edge">
<title>Node5&#45;&gt;Node8</title>
<path fill="none" stroke="midnightblue" d="M241.69,-107.18C224.58,-97.24 202.03,-84.15 187.4,-75.65"/>
<polygon fill="midnightblue" stroke="midnightblue" points="240.15,-110.33 250.56,-112.32 243.67,-104.28 240.15,-110.33"/>
</g>
<!-- Node9 -->
<g id="node9" class="node">
<title>Node9</title>
<g id="a_node9"><a xlink:href="translation__layer_8cpp.html" target="_top" xlink:title=" ">
<polygon fill="none" stroke="black" points="359,-0.5 359,-19.5 478,-19.5 478,-0.5 359,-0.5"/>
<text text-anchor="middle" x="418.5" y="-7.5" font-family="Helvetica,sans-Serif" font-size="10.00">translation_layer.cpp</text>
</a>
</g>
</g>
<!-- Node5&#45;&gt;Node9 -->
<g id="edge8" class="edge">
<title>Node5&#45;&gt;Node9</title>
<path fill="none" stroke="midnightblue" d="M213.82,-110.04C180.8,-101.87 142.38,-89.78 132.5,-76 127.32,-68.78 126.72,-62.76 132.5,-56 136.17,-51.7 276.08,-31.2 358.82,-19.41"/>
<polygon fill="midnightblue" stroke="midnightblue" points="213.31,-113.52 223.85,-112.45 214.95,-106.71 213.31,-113.52"/>
</g>
<!-- Node10 -->
<g id="node10" class="node">
<title>Node10</title>
<g id="a_node10"><a xlink:href="translation__layer_8hpp.html" target="_top" xlink:title=" ">
<polygon fill="none" stroke="black" points="222,-56.5 222,-75.5 341,-75.5 341,-56.5 222,-56.5"/>
<text text-anchor="middle" x="281.5" y="-63.5" font-family="Helvetica,sans-Serif" font-size="10.00">translation_layer.hpp</text>
</a>
</g>
</g>
<!-- Node5&#45;&gt;Node10 -->
<g id="edge9" class="edge">
<title>Node5&#45;&gt;Node10</title>
<path fill="none" stroke="midnightblue" d="M271.01,-102.4C273.69,-93.36 276.78,-82.94 278.91,-75.75"/>
<polygon fill="midnightblue" stroke="midnightblue" points="267.63,-101.5 268.14,-112.08 274.34,-103.49 267.63,-101.5"/>
</g>
<!-- Node10&#45;&gt;Node9 -->
<g id="edge12" class="edge">
<title>Node10&#45;&gt;Node9</title>
<path fill="none" stroke="midnightblue" d="M312.52,-52.77C338.26,-42.63 374.19,-28.47 396.89,-19.52"/>
<polygon fill="midnightblue" stroke="midnightblue" points="311.23,-49.52 303.21,-56.44 313.79,-56.03 311.23,-49.52"/>
</g>
<!-- Node11 -->
<g id="node11" class="node">
<title>Node11</title>
<g id="a_node11"><a xlink:href="src_2kazoo__connect__server_2main_8cpp.html" target="_top" xlink:title=" ">
<polygon fill="none" stroke="black" points="40.5,-0.5 40.5,-19.5 102.5,-19.5 102.5,-0.5 40.5,-0.5"/>
<text text-anchor="middle" x="71.5" y="-7.5" font-family="Helvetica,sans-Serif" font-size="10.00">main.cpp</text>
</a>
</g>
</g>
<!-- Node10&#45;&gt;Node11 -->
<g id="edge10" class="edge">
<title>Node10&#45;&gt;Node11</title>
<path fill="none" stroke="midnightblue" d="M238.38,-53.91C197.97,-43.52 138.52,-28.23 102.57,-18.99"/>
<polygon fill="midnightblue" stroke="midnightblue" points="237.67,-57.34 248.22,-56.44 239.41,-50.56 237.67,-57.34"/>
</g>
<!-- Node12 -->
<g id="node12" class="node">
<title>Node12</title>
<g id="a_node12"><a xlink:href="src_2main_8cpp.html" target="_top" xlink:title=" ">
<polygon fill="none" stroke="black" points="120.5,-0.5 120.5,-19.5 182.5,-19.5 182.5,-0.5 120.5,-0.5"/>
<text text-anchor="middle" x="151.5" y="-7.5" font-family="Helvetica,sans-Serif" font-size="10.00">main.cpp</text>
</a>
</g>
</g>
<!-- Node10&#45;&gt;Node12 -->
<g id="edge11" class="edge">
<title>Node10&#45;&gt;Node12</title>
<path fill="none" stroke="midnightblue" d="M251.41,-52.5C227.04,-42.38 193.36,-28.39 172,-19.52"/>
<polygon fill="midnightblue" stroke="midnightblue" points="250.32,-55.84 260.9,-56.44 253.01,-49.38 250.32,-55.84"/>
</g>
<!-- Node13 -->
<g id="node13" class="node">
<title>Node13</title>
<g id="a_node13"><a xlink:href="translation__layer_8test_8cpp.html" target="_top" xlink:title=" ">
<polygon fill="none" stroke="black" points="200.5,-0.5 200.5,-19.5 340.5,-19.5 340.5,-0.5 200.5,-0.5"/>
<text text-anchor="middle" x="270.5" y="-7.5" font-family="Helvetica,sans-Serif" font-size="10.00">translation_layer.test.cpp</text>
</a>
</g>
</g>
<!-- Node10&#45;&gt;Node13 -->
<g id="edge13" class="edge">
<title>Node10&#45;&gt;Node13</title>
<path fill="none" stroke="midnightblue" d="M277.65,-46.1C275.82,-37.14 273.73,-26.86 272.28,-19.75"/>
<polygon fill="midnightblue" stroke="midnightblue" points="274.26,-46.98 279.68,-56.08 281.12,-45.59 274.26,-46.98"/>
</g>
<!-- Node14&#45;&gt;Node8 -->
<g id="edge16" class="edge">
<title>Node14&#45;&gt;Node8</title>
<path fill="none" stroke="midnightblue" d="M328.27,-109.7C291.09,-99.51 237.23,-84.74 203.57,-75.52"/>
<polygon fill="midnightblue" stroke="midnightblue" points="327.72,-113.18 338.28,-112.44 329.57,-106.42 327.72,-113.18"/>
</g>
<!-- Node14&#45;&gt;Node9 -->
<g id="edge17" class="edge">
<title>Node14&#45;&gt;Node9</title>
<path fill="none" stroke="midnightblue" d="M375.43,-102.66C379.9,-89.47 386.44,-71.37 393.5,-56 399.47,-43 407.74,-28.68 413.11,-19.76"/>
<polygon fill="midnightblue" stroke="midnightblue" points="372.02,-101.82 372.2,-112.42 378.67,-104.02 372.02,-101.82"/>
</g>
<!-- Node14&#45;&gt;Node10 -->
<g id="edge18" class="edge">
<title>Node14&#45;&gt;Node10</title>
<path fill="none" stroke="midnightblue" d="M346.52,-106.9C330.39,-97 309.32,-84.07 295.6,-75.65"/>
<polygon fill="midnightblue" stroke="midnightblue" points="345.01,-110.08 355.36,-112.32 348.67,-104.11 345.01,-110.08"/>
</g>
<!-- Node15 -->
<g id="node15" class="node">
<title>Node15</title>
<g id="a_node15"><a xlink:href="k2__peak__model_8test_8cpp.html" target="_top" xlink:title=" ">
<polygon fill="none" stroke="black" points="599.5,-56.5 599.5,-75.5 735.5,-75.5 735.5,-56.5 599.5,-56.5"/>
<text text-anchor="middle" x="667.5" y="-63.5" font-family="Helvetica,sans-Serif" font-size="10.00">k2_peak_model.test.cpp</text>
</a>
</g>
</g>
<!-- Node14&#45;&gt;Node15 -->
<g id="edge15" class="edge">
<title>Node14&#45;&gt;Node15</title>
<path fill="none" stroke="midnightblue" d="M422.63,-111.37C478.88,-101.18 566.79,-85.25 620.57,-75.5"/>
<polygon fill="midnightblue" stroke="midnightblue" points="421.73,-107.98 412.51,-113.21 422.98,-114.87 421.73,-107.98"/>
</g>
<!-- Node16&#45;&gt;Node9 -->
<g id="edge21" class="edge">
<title>Node16&#45;&gt;Node9</title>
<path fill="none" stroke="midnightblue" d="M546.7,-111.27C520.45,-104.54 489.34,-93.54 465.5,-76 444.86,-60.81 429.61,-33.88 422.66,-19.93"/>
<polygon fill="midnightblue" stroke="midnightblue" points="545.95,-114.69 556.49,-113.65 547.6,-107.89 545.95,-114.69"/>
</g>
<!-- Node16&#45;&gt;Node10 -->
<g id="edge22" class="edge">
<title>Node16&#45;&gt;Node10</title>
<path fill="none" stroke="midnightblue" d="M546.29,-111.96C486.51,-101.81 390.22,-85.46 331.7,-75.52"/>
<polygon fill="midnightblue" stroke="midnightblue" points="545.84,-115.44 556.28,-113.66 547.01,-108.54 545.84,-115.44"/>
</g>
<!-- Node17 -->
<g id="node17" class="node">
<title>Node17</title>
<g id="a_node17"><a xlink:href="k3__model_8test_8cpp.html" target="_top" xlink:title=" ">
<polygon fill="none" stroke="black" points="900,-56.5 900,-75.5 1007,-75.5 1007,-56.5 900,-56.5"/>
<text text-anchor="middle" x="953.5" y="-63.5" font-family="Helvetica,sans-Serif" font-size="10.00">k3_model.test.cpp</text>
</a>
</g>
</g>
<!-- Node16&#45;&gt;Node17 -->
<g id="edge20" class="edge">
<title>Node16&#45;&gt;Node17</title>
<path fill="none" stroke="midnightblue" d="M652.84,-112.86C719.5,-102.69 832.94,-85.39 899.78,-75.19"/>
<polygon fill="midnightblue" stroke="midnightblue" points="651.91,-109.46 642.55,-114.43 652.97,-116.38 651.91,-109.46"/>
</g>
<!-- Node18&#45;&gt;Node9 -->
<g id="edge25" class="edge">
<title>Node18&#45;&gt;Node9</title>
<path fill="none" stroke="midnightblue" d="M460.98,-106.41C450.39,-98.65 438.68,-88.19 431.5,-76 420.87,-57.95 418.79,-32.71 418.47,-19.63"/>
<polygon fill="midnightblue" stroke="midnightblue" points="459.27,-109.48 469.49,-112.27 463.24,-103.71 459.27,-109.48"/>
</g>
<!-- Node18&#45;&gt;Node10 -->
<g id="edge26" class="edge">
<title>Node18&#45;&gt;Node10</title>
<path fill="none" stroke="midnightblue" d="M442.51,-109.83C404.18,-99.63 348.35,-84.78 313.52,-75.52"/>
<polygon fill="midnightblue" stroke="midnightblue" points="441.77,-113.26 452.33,-112.44 443.57,-106.49 441.77,-113.26"/>
</g>
<!-- Node19 -->
<g id="node19" class="node">
<title>Node19</title>
<g id="a_node19"><a xlink:href="testing__model_8test_8cpp.html" target="_top" xlink:title=" ">
<polygon fill="none" stroke="black" points="753.5,-56.5 753.5,-75.5 881.5,-75.5 881.5,-56.5 753.5,-56.5"/>
<text text-anchor="middle" x="817.5" y="-63.5" font-family="Helvetica,sans-Serif" font-size="10.00">testing_model.test.cpp</text>
</a>
</g>
</g>
<!-- Node18&#45;&gt;Node19 -->
<g id="edge24" class="edge">
<title>Node18&#45;&gt;Node19</title>
<path fill="none" stroke="midnightblue" d="M547.46,-110.79C610.38,-100.59 706.02,-85.08 764.98,-75.52"/>
<polygon fill="midnightblue" stroke="midnightblue" points="546.58,-107.39 537.26,-112.44 547.7,-114.3 546.58,-107.39"/>
</g>
<!-- Node20&#45;&gt;Node10 -->
<g id="edge29" class="edge">
<title>Node20&#45;&gt;Node10</title>
<path fill="none" stroke="midnightblue" d="M49.97,-163.91C24.91,-151.34 -3.97,-131.45 12.5,-112 19.25,-104.03 144.56,-85.66 221.74,-75.02"/>
<polygon fill="midnightblue" stroke="midnightblue" points="48.75,-167.21 59.29,-168.35 51.77,-160.89 48.75,-167.21"/>
</g>
<!-- Node21 -->
<g id="node21" class="node">
<title>Node21</title>
<g id="a_node21"><a xlink:href="pulse__audio_8test_8cpp.html" target="_top" xlink:title=" ">
<polygon fill="none" stroke="black" points="22,-112.5 22,-131.5 139,-131.5 139,-112.5 22,-112.5"/>
<text text-anchor="middle" x="80.5" y="-119.5" font-family="Helvetica,sans-Serif" font-size="10.00">pulse_audio.test.cpp</text>
</a>
</g>
</g>
<!-- Node20&#45;&gt;Node21 -->
<g id="edge28" class="edge">
<title>Node20&#45;&gt;Node21</title>
<path fill="none" stroke="midnightblue" d="M80.5,-157.8C80.5,-148.91 80.5,-138.78 80.5,-131.75"/>
<polygon fill="midnightblue" stroke="midnightblue" points="77,-158.08 80.5,-168.08 84,-158.08 77,-158.08"/>
</g>
<!-- Node22&#45;&gt;Node4 -->
<g id="edge31" class="edge">
<title>Node22&#45;&gt;Node4</title>
<path fill="none" stroke="midnightblue" d="M845.85,-110.97C890.44,-101.9 957.88,-88.13 1016.5,-76 1019.19,-75.44 1021.97,-74.87 1024.77,-74.28"/>
<polygon fill="midnightblue" stroke="midnightblue" points="844.96,-107.58 835.85,-113.01 846.35,-114.44 844.96,-107.58"/>
</g>
<!-- Node22&#45;&gt;Node7 -->
<g id="edge32" class="edge">
<title>Node22&#45;&gt;Node7</title>
<path fill="none" stroke="midnightblue" d="M747.32,-111.13C696.63,-100.95 618.4,-85.25 570.22,-75.58"/>
<polygon fill="midnightblue" stroke="midnightblue" points="746.89,-114.61 757.39,-113.15 748.27,-107.75 746.89,-114.61"/>
</g>
<!-- Node22&#45;&gt;Node10 -->
<g id="edge36" class="edge">
<title>Node22&#45;&gt;Node10</title>
<path fill="none" stroke="midnightblue" d="M747.16,-115.83C652.05,-105.85 443.67,-84 341.03,-73.24"/>
<polygon fill="midnightblue" stroke="midnightblue" points="747.06,-119.33 757.37,-116.9 747.79,-112.37 747.06,-119.33"/>
</g>
<!-- Node22&#45;&gt;Node15 -->
<g id="edge33" class="edge">
<title>Node22&#45;&gt;Node15</title>
<path fill="none" stroke="midnightblue" d="M766.65,-108.5C742.46,-98.38 709.04,-84.39 687.84,-75.52"/>
<polygon fill="midnightblue" stroke="midnightblue" points="765.48,-111.81 776.06,-112.44 768.19,-105.35 765.48,-111.81"/>
</g>
<!-- Node22&#45;&gt;Node17 -->
<g id="edge34" class="edge">
<title>Node22&#45;&gt;Node17</title>
<path fill="none" stroke="midnightblue" d="M830.89,-109.17C860.45,-99 902.37,-84.59 928.74,-75.52"/>
<polygon fill="midnightblue" stroke="midnightblue" points="829.7,-105.88 821.38,-112.44 831.97,-112.5 829.7,-105.88"/>
</g>
<!-- Node22&#45;&gt;Node19 -->
<g id="edge35" class="edge">
<title>Node22&#45;&gt;Node19</title>
<path fill="none" stroke="midnightblue" d="M803.62,-102.69C807.16,-93.59 811.27,-83.01 814.1,-75.75"/>
<polygon fill="midnightblue" stroke="midnightblue" points="800.33,-101.49 799.97,-112.08 806.85,-104.03 800.33,-101.49"/>
</g>
<!-- Node23 -->
<g id="node23" class="node">
<title>Node23</title>
<g id="a_node23"><a xlink:href="wav__file_8test_8cpp.html" target="_top" xlink:title=" ">
<polygon fill="none" stroke="black" points="1112,-56.5 1112,-75.5 1211,-75.5 1211,-56.5 1112,-56.5"/>
<text text-anchor="middle" x="1161.5" y="-63.5" font-family="Helvetica,sans-Serif" font-size="10.00">wav_file.test.cpp</text>
</a>
</g>
</g>
<!-- Node22&#45;&gt;Node23 -->
<g id="edge37" class="edge">
<title>Node22&#45;&gt;Node23</title>
<path fill="none" stroke="midnightblue" d="M845.83,-113.9C906.5,-105.14 1012.61,-89.71 1103.5,-76 1106.22,-75.59 1109.01,-75.17 1111.83,-74.74"/>
<polygon fill="midnightblue" stroke="midnightblue" points="845.17,-110.46 835.77,-115.35 846.17,-117.39 845.17,-110.46"/>
</g>
<!-- Node24&#45;&gt;Node4 -->
<g id="edge39" class="edge">
<title>Node24&#45;&gt;Node4</title>
<path fill="none" stroke="midnightblue" d="M681.37,-169.74C733.25,-162.45 811.76,-149.76 878.5,-132 938.19,-116.12 1006.13,-89.24 1039.23,-75.56"/>
<polygon fill="midnightblue" stroke="midnightblue" points="680.79,-166.29 671.37,-171.12 681.75,-173.22 680.79,-166.29"/>
</g>
<!-- Node24&#45;&gt;Node5 -->
<g id="edge40" class="edge">
<title>Node24&#45;&gt;Node5</title>
<path fill="none" stroke="midnightblue" d="M567.98,-169.16C506.34,-160.51 404.8,-145.95 317.5,-132 314.6,-131.54 311.62,-131.05 308.62,-130.55"/>
<polygon fill="midnightblue" stroke="midnightblue" points="567.5,-172.63 577.89,-170.55 568.48,-165.7 567.5,-172.63"/>
</g>
<!-- Node24&#45;&gt;Node7 -->
<g id="edge41" class="edge">
<title>Node24&#45;&gt;Node7</title>
<path fill="none" stroke="midnightblue" d="M639.81,-160.71C650.84,-146.94 662.07,-127.08 651.5,-112 641.25,-97.37 597.44,-83.86 564.79,-75.54"/>
<polygon fill="midnightblue" stroke="midnightblue" points="637.05,-158.55 633.16,-168.41 642.35,-163.13 637.05,-158.55"/>
</g>
<!-- Node24&#45;&gt;Node14 -->
<g id="edge42" class="edge">
<title>Node24&#45;&gt;Node14</title>
<path fill="none" stroke="midnightblue" d="M574.19,-166.35C526,-156.14 454.22,-140.94 409.72,-131.52"/>
<polygon fill="midnightblue" stroke="midnightblue" points="573.59,-169.8 584.09,-168.44 575.04,-162.95 573.59,-169.8"/>
</g>
<!-- Node24&#45;&gt;Node15 -->
<g id="edge43" class="edge">
<title>Node24&#45;&gt;Node15</title>
<path fill="none" stroke="midnightblue" d="M652.79,-163.38C664.89,-155.93 677.77,-145.46 684.5,-132 693.89,-113.22 681.67,-88.71 673.59,-75.82"/>
<polygon fill="midnightblue" stroke="midnightblue" points="650.77,-160.5 643.8,-168.48 654.22,-166.59 650.77,-160.5"/>
</g>
<!-- Node24&#45;&gt;Node16 -->
<g id="edge44" class="edge">
<title>Node24&#45;&gt;Node16</title>
<path fill="none" stroke="midnightblue" d="M616.16,-158.98C611.92,-149.82 606.95,-139.09 603.55,-131.75"/>
<polygon fill="midnightblue" stroke="midnightblue" points="612.99,-160.48 620.37,-168.08 619.35,-157.54 612.99,-160.48"/>
</g>
<!-- Node24&#45;&gt;Node17 -->
<g id="edge45" class="edge">
<title>Node24&#45;&gt;Node17</title>
<path fill="none" stroke="midnightblue" d="M681.23,-170.72C726.55,-164.46 791.1,-152.69 844.5,-132 882.71,-117.19 922.94,-89.59 942.08,-75.6"/>
<polygon fill="midnightblue" stroke="midnightblue" points="680.73,-167.26 671.29,-172.05 681.66,-174.2 680.73,-167.26"/>
</g>
<!-- Node24&#45;&gt;Node18 -->
<g id="edge46" class="edge">
<title>Node24&#45;&gt;Node18</title>
<path fill="none" stroke="midnightblue" d="M592.8,-164.77C566.5,-154.63 529.78,-140.47 506.58,-131.52"/>
<polygon fill="midnightblue" stroke="midnightblue" points="591.73,-168.11 602.32,-168.44 594.25,-161.58 591.73,-168.11"/>
</g>
<!-- Node24&#45;&gt;Node23 -->
<g id="edge47" class="edge">
<title>Node24&#45;&gt;Node23</title>
<path fill="none" stroke="midnightblue" d="M681.32,-170.41C741.54,-162.95 839.26,-149.54 922.5,-132 1000.13,-115.64 1090,-89.1 1134.15,-75.55"/>
<polygon fill="midnightblue" stroke="midnightblue" points="680.75,-166.95 671.25,-171.64 681.61,-173.9 680.75,-166.95"/>
</g>
</g>
</svg>
