<?xml version="1.0" encoding="UTF-8" standalone="no"?>
<!DOCTYPE svg PUBLIC "-//W3C//DTD SVG 1.1//EN"
 "http://www.w3.org/Graphics/SVG/1.1/DTD/svg11.dtd">
<!-- Generated by graphviz version 2.43.0 (0)
 -->
<!-- Title: audio_channel.hpp Pages: 1 -->
<svg width="1530pt" height="364pt"
 viewBox="0.00 0.00 1530.00 364.00" xmlns="http://www.w3.org/2000/svg" xmlns:xlink="http://www.w3.org/1999/xlink">
<g id="graph0" class="graph" transform="scale(1 1) rotate(0) translate(4 360)">
<title>audio_channel.hpp</title>
<!-- Node1 -->
<g id="node1" class="node">
<title>Node1</title>
<g id="a_node1"><a xlink:title=" ">
<polygon fill="#bfbfbf" stroke="black" points="509.5,-336.5 509.5,-355.5 617.5,-355.5 617.5,-336.5 509.5,-336.5"/>
<text text-anchor="middle" x="563.5" y="-343.5" font-family="Helvetica,sans-Serif" font-size="10.00">audio_channel.hpp</text>
</a>
</g>
</g>
<!-- Node2 -->
<g id="node2" class="node">
<title>Node2</title>
<g id="a_node2"><a xlink:href="encoder_8hpp.html" target="_top" xlink:title=" ">
<polygon fill="none" stroke="black" points="998.5,-168.5 998.5,-187.5 1074.5,-187.5 1074.5,-168.5 998.5,-168.5"/>
<text text-anchor="middle" x="1036.5" y="-175.5" font-family="Helvetica,sans-Serif" font-size="10.00">encoder.hpp</text>
</a>
</g>
</g>
<!-- Node1&#45;&gt;Node2 -->
<g id="edge1" class="edge">
<title>Node1&#45;&gt;Node2</title>
<path fill="none" stroke="midnightblue" d="M597.45,-333.08C688.04,-301.29 933.92,-215 1012.21,-187.52"/>
<polygon fill="midnightblue" stroke="midnightblue" points="596.21,-329.81 587.93,-336.42 598.53,-336.42 596.21,-329.81"/>
</g>
<!-- Node12 -->
<g id="node12" class="node">
<title>Node12</title>
<g id="a_node12"><a xlink:href="k1__model_8test_8cpp.html" target="_top" xlink:title=" ">
<polygon fill="none" stroke="black" points="329,-56.5 329,-75.5 436,-75.5 436,-56.5 329,-56.5"/>
<text text-anchor="middle" x="382.5" y="-63.5" font-family="Helvetica,sans-Serif" font-size="10.00">k1_model.test.cpp</text>
</a>
</g>
</g>
<!-- Node1&#45;&gt;Node12 -->
<g id="edge43" class="edge">
<title>Node1&#45;&gt;Node12</title>
<path fill="none" stroke="midnightblue" d="M522.3,-333.26C501.01,-325.91 475.41,-314.96 455.5,-300 404.45,-261.64 386.7,-248.24 365.5,-188 358.14,-167.09 374.13,-99.67 380.25,-75.62"/>
<polygon fill="midnightblue" stroke="midnightblue" points="521.45,-336.67 532.04,-336.48 523.65,-330.02 521.45,-336.67"/>
</g>
<!-- Node15 -->
<g id="node15" class="node">
<title>Node15</title>
<g id="a_node15"><a xlink:href="k2__peak__model_8test_8cpp.html" target="_top" xlink:title=" ">
<polygon fill="none" stroke="black" points="454.5,-56.5 454.5,-75.5 590.5,-75.5 590.5,-56.5 454.5,-56.5"/>
<text text-anchor="middle" x="522.5" y="-63.5" font-family="Helvetica,sans-Serif" font-size="10.00">k2_peak_model.test.cpp</text>
</a>
</g>
</g>
<!-- Node1&#45;&gt;Node15 -->
<g id="edge44" class="edge">
<title>Node1&#45;&gt;Node15</title>
<path fill="none" stroke="midnightblue" d="M536.83,-331.22C525.25,-323.7 512.9,-313.2 506.5,-300 467.95,-220.46 506.66,-107.42 519,-75.62"/>
<polygon fill="midnightblue" stroke="midnightblue" points="535.05,-334.23 545.42,-336.39 538.66,-328.23 535.05,-334.23"/>
</g>
<!-- Node17 -->
<g id="node17" class="node">
<title>Node17</title>
<g id="a_node17"><a xlink:href="k3__model_8test_8cpp.html" target="_top" xlink:title=" ">
<polygon fill="none" stroke="black" points="204,-56.5 204,-75.5 311,-75.5 311,-56.5 204,-56.5"/>
<text text-anchor="middle" x="257.5" y="-63.5" font-family="Helvetica,sans-Serif" font-size="10.00">k3_model.test.cpp</text>
</a>
</g>
</g>
<!-- Node1&#45;&gt;Node17 -->
<g id="edge45" class="edge">
<title>Node1&#45;&gt;Node17</title>
<path fill="none" stroke="midnightblue" d="M499.02,-341.82C379.25,-334.13 134.5,-309.34 134.5,-235 134.5,-235 134.5,-235 134.5,-177 134.5,-124.14 198.39,-90.34 234.08,-75.58"/>
<polygon fill="midnightblue" stroke="midnightblue" points="498.97,-345.32 509.17,-342.45 499.4,-338.33 498.97,-345.32"/>
</g>
<!-- Node21 -->
<g id="node21" class="node">
<title>Node21</title>
<g id="a_node21"><a xlink:href="testing__model_8test_8cpp.html" target="_top" xlink:title=" ">
<polygon fill="none" stroke="black" points="1082.5,-56.5 1082.5,-75.5 1210.5,-75.5 1210.5,-56.5 1082.5,-56.5"/>
<text text-anchor="middle" x="1146.5" y="-63.5" font-family="Helvetica,sans-Serif" font-size="10.00">testing_model.test.cpp</text>
</a>
</g>
</g>
<!-- Node1&#45;&gt;Node21 -->
<g id="edge67" class="edge">
<title>Node1&#45;&gt;Node21</title>
<path fill="none" stroke="midnightblue" d="M627.64,-343.62C828.57,-338.44 1432.5,-316.14 1432.5,-235 1432.5,-235 1432.5,-235 1432.5,-177 1432.5,-146.9 1435.99,-132 1413.5,-112 1405.79,-105.15 1283.17,-86.54 1206.81,-75.52"/>
<polygon fill="midnightblue" stroke="midnightblue" points="627.44,-340.12 617.53,-343.87 627.62,-347.12 627.44,-340.12"/>
</g>
<!-- Node22 -->
<g id="node22" class="node">
<title>Node22</title>
<g id="a_node22"><a xlink:href="fft_8hpp.html" target="_top" xlink:title=" ">
<polygon fill="none" stroke="black" points="666.5,-168.5 666.5,-187.5 714.5,-187.5 714.5,-168.5 666.5,-168.5"/>
<text text-anchor="middle" x="690.5" y="-175.5" font-family="Helvetica,sans-Serif" font-size="10.00">fft.hpp</text>
</a>
</g>
</g>
<!-- Node1&#45;&gt;Node22 -->
<g id="edge36" class="edge">
<title>Node1&#45;&gt;Node22</title>
<path fill="none" stroke="midnightblue" d="M590.2,-331.54C604.74,-323.5 622.56,-312.44 636.5,-300 660.12,-278.92 667.9,-273.04 680.5,-244 688.68,-225.15 690.3,-200.67 690.54,-187.8"/>
<polygon fill="midnightblue" stroke="midnightblue" points="588.35,-328.56 581.19,-336.37 591.66,-334.73 588.35,-328.56"/>
</g>
<!-- Node25 -->
<g id="node25" class="node">
<title>Node25</title>
<g id="a_node25"><a xlink:href="pulse__audio_8hpp.html" target="_top" xlink:title=" ">
<polygon fill="none" stroke="black" points="515.5,-280.5 515.5,-299.5 611.5,-299.5 611.5,-280.5 515.5,-280.5"/>
<text text-anchor="middle" x="563.5" y="-287.5" font-family="Helvetica,sans-Serif" font-size="10.00">pulse_audio.hpp</text>
</a>
</g>
</g>
<!-- Node1&#45;&gt;Node25 -->
<g id="edge46" class="edge">
<title>Node1&#45;&gt;Node25</title>
<path fill="none" stroke="midnightblue" d="M563.5,-325.8C563.5,-316.91 563.5,-306.78 563.5,-299.75"/>
<polygon fill="midnightblue" stroke="midnightblue" points="560,-326.08 563.5,-336.08 567,-326.08 560,-326.08"/>
</g>
<!-- Node26 -->
<g id="node26" class="node">
<title>Node26</title>
<g id="a_node26"><a xlink:href="pulse__audio_8test_8cpp.html" target="_top" xlink:title=" ">
<polygon fill="none" stroke="black" points="554,-224.5 554,-243.5 671,-243.5 671,-224.5 554,-224.5"/>
<text text-anchor="middle" x="612.5" y="-231.5" font-family="Helvetica,sans-Serif" font-size="10.00">pulse_audio.test.cpp</text>
</a>
</g>
</g>
<!-- Node1&#45;&gt;Node26 -->
<g id="edge49" class="edge">
<title>Node1&#45;&gt;Node26</title>
<path fill="none" stroke="midnightblue" d="M590.17,-331.22C601.75,-323.7 614.1,-313.2 620.5,-300 629.42,-281.58 621.84,-256.93 616.56,-243.92"/>
<polygon fill="midnightblue" stroke="midnightblue" points="588.34,-328.23 581.58,-336.39 591.95,-334.23 588.34,-328.23"/>
</g>
<!-- Node27 -->
<g id="node27" class="node">
<title>Node27</title>
<g id="a_node27"><a xlink:href="symbol__model_8hpp.html" target="_top" xlink:title=" ">
<polygon fill="none" stroke="black" points="991.5,-280.5 991.5,-299.5 1101.5,-299.5 1101.5,-280.5 991.5,-280.5"/>
<text text-anchor="middle" x="1046.5" y="-287.5" font-family="Helvetica,sans-Serif" font-size="10.00">symbol_model.hpp</text>
</a>
</g>
</g>
<!-- Node1&#45;&gt;Node27 -->
<g id="edge50" class="edge">
<title>Node1&#45;&gt;Node27</title>
<path fill="none" stroke="midnightblue" d="M627.61,-337.83C723.16,-327.15 901.32,-307.23 991.37,-297.16"/>
<polygon fill="midnightblue" stroke="midnightblue" points="627.05,-334.37 617.5,-338.96 627.83,-341.33 627.05,-334.37"/>
</g>
<!-- Node30 -->
<g id="node30" class="node">
<title>Node30</title>
<g id="a_node30"><a xlink:href="wav__file_8hpp.html" target="_top" xlink:title=" ">
<polygon fill="none" stroke="black" points="276.5,-112.5 276.5,-131.5 354.5,-131.5 354.5,-112.5 276.5,-112.5"/>
<text text-anchor="middle" x="315.5" y="-119.5" font-family="Helvetica,sans-Serif" font-size="10.00">wav_file.hpp</text>
</a>
</g>
</g>
<!-- Node1&#45;&gt;Node30 -->
<g id="edge68" class="edge">
<title>Node1&#45;&gt;Node30</title>
<path fill="none" stroke="midnightblue" d="M499.14,-340.92C438.71,-335.66 354.4,-324.13 332.5,-300 288.1,-251.08 306.05,-160.26 313.14,-131.78"/>
<polygon fill="midnightblue" stroke="midnightblue" points="499.11,-344.43 509.37,-341.78 499.69,-337.46 499.11,-344.43"/>
</g>
<!-- Node32 -->
<g id="node32" class="node">
<title>Node32</title>
<g id="a_node32"><a xlink:href="wave__tools_8hpp.html" target="_top" xlink:title=" ">
<polygon fill="none" stroke="black" points="375,-168.5 375,-187.5 468,-187.5 468,-168.5 375,-168.5"/>
<text text-anchor="middle" x="421.5" y="-175.5" font-family="Helvetica,sans-Serif" font-size="10.00">wave_tools.hpp</text>
</a>
</g>
</g>
<!-- Node1&#45;&gt;Node32 -->
<g id="edge76" class="edge">
<title>Node1&#45;&gt;Node32</title>
<path fill="none" stroke="midnightblue" d="M525.25,-332.81C507.63,-325.59 487.56,-314.9 473.5,-300 441.48,-266.08 427.47,-209.38 423.1,-187.75"/>
<polygon fill="midnightblue" stroke="midnightblue" points="524.14,-336.13 534.73,-336.46 526.66,-329.6 524.14,-336.13"/>
</g>
<!-- Node3 -->
<g id="node3" class="node">
<title>Node3</title>
<g id="a_node3"><a xlink:href="binary__model_8hpp.html" target="_top" xlink:title=" ">
<polygon fill="none" stroke="black" points="1300.5,-112.5 1300.5,-131.5 1404.5,-131.5 1404.5,-112.5 1300.5,-112.5"/>
<text text-anchor="middle" x="1352.5" y="-119.5" font-family="Helvetica,sans-Serif" font-size="10.00">binary_model.hpp</text>
</a>
</g>
</g>
<!-- Node2&#45;&gt;Node3 -->
<g id="edge2" class="edge">
<title>Node2&#45;&gt;Node3</title>
<path fill="none" stroke="midnightblue" d="M1084.78,-168.75C1143.71,-158.68 1242.86,-141.74 1302.54,-131.54"/>
<polygon fill="midnightblue" stroke="midnightblue" points="1083.88,-165.35 1074.62,-170.49 1085.06,-172.25 1083.88,-165.35"/>
</g>
<!-- Node10 -->
<g id="node10" class="node">
<title>Node10</title>
<g id="a_node10"><a xlink:href="k1__model_8hpp.html" target="_top" xlink:title=" ">
<polygon fill="none" stroke="black" points="770.5,-112.5 770.5,-131.5 856.5,-131.5 856.5,-112.5 770.5,-112.5"/>
<text text-anchor="middle" x="813.5" y="-119.5" font-family="Helvetica,sans-Serif" font-size="10.00">k1_model.hpp</text>
</a>
</g>
</g>
<!-- Node2&#45;&gt;Node10 -->
<g id="edge10" class="edge">
<title>Node2&#45;&gt;Node10</title>
<path fill="none" stroke="midnightblue" d="M991.44,-166.09C949.31,-155.89 887.26,-140.86 848.67,-131.52"/>
<polygon fill="midnightblue" stroke="midnightblue" points="990.62,-169.49 1001.16,-168.44 992.27,-162.69 990.62,-169.49"/>
</g>
<!-- Node2&#45;&gt;Node12 -->
<g id="edge16" class="edge">
<title>Node2&#45;&gt;Node12</title>
<path fill="none" stroke="midnightblue" d="M988.31,-171.01C921.04,-162.33 802.62,-145.78 761.5,-132 743.4,-125.94 741.7,-117.76 723.5,-112 604.72,-74.39 568.95,-92.81 445.5,-76 442.43,-75.58 439.29,-75.15 436.11,-74.71"/>
<polygon fill="midnightblue" stroke="midnightblue" points="987.88,-174.49 998.24,-172.29 988.77,-167.54 987.88,-174.49"/>
</g>
<!-- Node14 -->
<g id="node14" class="node">
<title>Node14</title>
<g id="a_node14"><a xlink:href="k2__model_8hpp.html" target="_top" xlink:title=" ">
<polygon fill="none" stroke="black" points="912.5,-112.5 912.5,-131.5 998.5,-131.5 998.5,-112.5 912.5,-112.5"/>
<text text-anchor="middle" x="955.5" y="-119.5" font-family="Helvetica,sans-Serif" font-size="10.00">k2_model.hpp</text>
</a>
</g>
</g>
<!-- Node2&#45;&gt;Node14 -->
<g id="edge17" class="edge">
<title>Node2&#45;&gt;Node14</title>
<path fill="none" stroke="midnightblue" d="M1014.93,-162.62C1000.14,-152.76 980.99,-139.99 968.48,-131.65"/>
<polygon fill="midnightblue" stroke="midnightblue" points="1013.22,-165.69 1023.49,-168.32 1017.11,-159.86 1013.22,-165.69"/>
</g>
<!-- Node2&#45;&gt;Node15 -->
<g id="edge22" class="edge">
<title>Node2&#45;&gt;Node15</title>
<path fill="none" stroke="midnightblue" d="M997.15,-165.49C970.35,-157.21 934.29,-145.21 903.5,-132 885.96,-124.47 883.69,-117.78 865.5,-112 852.57,-107.89 686.91,-87.15 590.63,-75.31"/>
<polygon fill="midnightblue" stroke="midnightblue" points="996.36,-168.9 1006.94,-168.47 998.4,-162.21 996.36,-168.9"/>
</g>
<!-- Node16 -->
<g id="node16" class="node">
<title>Node16</title>
<g id="a_node16"><a xlink:href="k3__model_8hpp.html" target="_top" xlink:title=" ">
<polygon fill="none" stroke="black" points="562.5,-112.5 562.5,-131.5 648.5,-131.5 648.5,-112.5 562.5,-112.5"/>
<text text-anchor="middle" x="605.5" y="-119.5" font-family="Helvetica,sans-Serif" font-size="10.00">k3_model.hpp</text>
</a>
</g>
</g>
<!-- Node2&#45;&gt;Node16 -->
<g id="edge23" class="edge">
<title>Node2&#45;&gt;Node16</title>
<path fill="none" stroke="midnightblue" d="M988.21,-172.03C916.24,-164.44 776.64,-149.05 658.5,-132 655.27,-131.53 651.93,-131.03 648.57,-130.5"/>
<polygon fill="midnightblue" stroke="midnightblue" points="988.01,-175.53 998.32,-173.09 988.74,-168.57 988.01,-175.53"/>
</g>
<!-- Node2&#45;&gt;Node17 -->
<g id="edge27" class="edge">
<title>Node2&#45;&gt;Node17</title>
<path fill="none" stroke="midnightblue" d="M988.22,-173.27C965.55,-171.57 938.14,-169.59 913.5,-168 841.76,-163.38 320.74,-180.31 267.5,-132 251.77,-117.73 253.62,-89.88 255.81,-75.72"/>
<polygon fill="midnightblue" stroke="midnightblue" points="988.05,-176.77 998.28,-174.03 988.57,-169.79 988.05,-176.77"/>
</g>
<!-- Node18 -->
<g id="node18" class="node">
<title>Node18</title>
<g id="a_node18"><a xlink:href="model__tester_8hpp.html" target="_top" xlink:title=" ">
<polygon fill="none" stroke="black" points="1181,-112.5 1181,-131.5 1282,-131.5 1282,-112.5 1181,-112.5"/>
<text text-anchor="middle" x="1231.5" y="-119.5" font-family="Helvetica,sans-Serif" font-size="10.00">model_tester.hpp</text>
</a>
</g>
</g>
<!-- Node2&#45;&gt;Node18 -->
<g id="edge28" class="edge">
<title>Node2&#45;&gt;Node18</title>
<path fill="none" stroke="midnightblue" d="M1077.31,-165.7C1114.11,-155.51 1167.43,-140.74 1200.75,-131.52"/>
<polygon fill="midnightblue" stroke="midnightblue" points="1076.1,-162.4 1067.4,-168.44 1077.97,-169.15 1076.1,-162.4"/>
</g>
<!-- Node20 -->
<g id="node20" class="node">
<title>Node20</title>
<g id="a_node20"><a xlink:href="testing__model_8hpp.html" target="_top" xlink:title=" ">
<polygon fill="none" stroke="black" points="1017,-112.5 1017,-131.5 1124,-131.5 1124,-112.5 1017,-112.5"/>
<text text-anchor="middle" x="1070.5" y="-119.5" font-family="Helvetica,sans-Serif" font-size="10.00">testing_model.hpp</text>
</a>
</g>
</g>
<!-- Node2&#45;&gt;Node20 -->
<g id="edge31" class="edge">
<title>Node2&#45;&gt;Node20</title>
<path fill="none" stroke="midnightblue" d="M1047.48,-159.57C1053.33,-150.27 1060.27,-139.25 1064.99,-131.75"/>
<polygon fill="midnightblue" stroke="midnightblue" points="1044.48,-157.76 1042.11,-168.08 1050.4,-161.49 1044.48,-157.76"/>
</g>
<!-- Node2&#45;&gt;Node21 -->
<g id="edge35" class="edge">
<title>Node2&#45;&gt;Node21</title>
<path fill="none" stroke="midnightblue" d="M1084.26,-164.9C1102.2,-158.06 1121.2,-147.63 1133.5,-132 1146.6,-115.36 1147.58,-89.06 1147.1,-75.58"/>
<polygon fill="midnightblue" stroke="midnightblue" points="1082.73,-161.73 1074.46,-168.35 1085.05,-168.34 1082.73,-161.73"/>
</g>
<!-- Node4 -->
<g id="node4" class="node">
<title>Node4</title>
<g id="a_node4"><a xlink:href="binary__model_8test_8cpp.html" target="_top" xlink:title=" ">
<polygon fill="none" stroke="black" points="1397,-56.5 1397,-75.5 1522,-75.5 1522,-56.5 1397,-56.5"/>
<text text-anchor="middle" x="1459.5" y="-63.5" font-family="Helvetica,sans-Serif" font-size="10.00">binary_model.test.cpp</text>
</a>
</g>
</g>
<!-- Node3&#45;&gt;Node4 -->
<g id="edge3" class="edge">
<title>Node3&#45;&gt;Node4</title>
<path fill="none" stroke="midnightblue" d="M1378.8,-107.73C1398.61,-97.73 1425.21,-84.31 1442.35,-75.65"/>
<polygon fill="midnightblue" stroke="midnightblue" points="1377.04,-104.69 1369.69,-112.32 1380.2,-110.94 1377.04,-104.69"/>
</g>
<!-- Node5 -->
<g id="node5" class="node">
<title>Node5</title>
<g id="a_node5"><a xlink:href="translation__layer_8cpp.html" target="_top" xlink:title=" ">
<polygon fill="none" stroke="black" points="858,-0.5 858,-19.5 977,-19.5 977,-0.5 858,-0.5"/>
<text text-anchor="middle" x="917.5" y="-7.5" font-family="Helvetica,sans-Serif" font-size="10.00">translation_layer.cpp</text>
</a>
</g>
</g>
<!-- Node3&#45;&gt;Node5 -->
<g id="edge4" class="edge">
<title>Node3&#45;&gt;Node5</title>
<path fill="none" stroke="midnightblue" d="M1354.23,-102.25C1354.47,-87.47 1352.1,-67.5 1339.5,-56 1313.28,-32.06 1087.31,-18.66 977.25,-13.5"/>
<polygon fill="midnightblue" stroke="midnightblue" points="1350.73,-102.13 1353.66,-112.31 1357.72,-102.53 1350.73,-102.13"/>
</g>
<!-- Node6 -->
<g id="node6" class="node">
<title>Node6</title>
<g id="a_node6"><a xlink:href="translation__layer_8hpp.html" target="_top" xlink:title=" ">
<polygon fill="none" stroke="black" points="609,-56.5 609,-75.5 728,-75.5 728,-56.5 609,-56.5"/>
<text text-anchor="middle" x="668.5" y="-63.5" font-family="Helvetica,sans-Serif" font-size="10.00">translation_layer.hpp</text>
</a>
</g>
</g>
<!-- Node3&#45;&gt;Node6 -->
<g id="edge5" class="edge">
<title>Node3&#45;&gt;Node6</title>
<path fill="none" stroke="midnightblue" d="M1290.33,-111.95C1061.71,-87.41 1002.04,-93.28 776.5,-76 760.84,-74.8 743.9,-73.43 728.19,-72.12"/>
<polygon fill="midnightblue" stroke="midnightblue" points="1289.97,-115.43 1300.29,-113.03 1290.72,-108.47 1289.97,-115.43"/>
</g>
<!-- Node6&#45;&gt;Node5 -->
<g id="edge8" class="edge">
<title>Node6&#45;&gt;Node5</title>
<path fill="none" stroke="midnightblue" d="M717.92,-54.28C764.98,-44.08 834.87,-28.92 878.23,-19.52"/>
<polygon fill="midnightblue" stroke="midnightblue" points="716.99,-50.9 707.95,-56.44 718.47,-57.74 716.99,-50.9"/>
</g>
<!-- Node7 -->
<g id="node7" class="node">
<title>Node7</title>
<g id="a_node7"><a xlink:href="src_2kazoo__connect__server_2main_8cpp.html" target="_top" xlink:title=" ">
<polygon fill="none" stroke="black" points="637.5,-0.5 637.5,-19.5 699.5,-19.5 699.5,-0.5 637.5,-0.5"/>
<text text-anchor="middle" x="668.5" y="-7.5" font-family="Helvetica,sans-Serif" font-size="10.00">main.cpp</text>
</a>
</g>
</g>
<!-- Node6&#45;&gt;Node7 -->
<g id="edge6" class="edge">
<title>Node6&#45;&gt;Node7</title>
<path fill="none" stroke="midnightblue" d="M668.5,-45.8C668.5,-36.91 668.5,-26.78 668.5,-19.75"/>
<polygon fill="midnightblue" stroke="midnightblue" points="665,-46.08 668.5,-56.08 672,-46.08 665,-46.08"/>
</g>
<!-- Node8 -->
<g id="node8" class="node">
<title>Node8</title>
<g id="a_node8"><a xlink:href="src_2main_8cpp.html" target="_top" xlink:title=" ">
<polygon fill="none" stroke="black" points="717.5,-0.5 717.5,-19.5 779.5,-19.5 779.5,-0.5 717.5,-0.5"/>
<text text-anchor="middle" x="748.5" y="-7.5" font-family="Helvetica,sans-Serif" font-size="10.00">main.cpp</text>
</a>
</g>
</g>
<!-- Node6&#45;&gt;Node8 -->
<g id="edge7" class="edge">
<title>Node6&#45;&gt;Node8</title>
<path fill="none" stroke="midnightblue" d="M689.8,-50.62C704.42,-40.76 723.33,-27.99 735.68,-19.65"/>
<polygon fill="midnightblue" stroke="midnightblue" points="687.68,-47.83 681.35,-56.32 691.6,-53.63 687.68,-47.83"/>
</g>
<!-- Node9 -->
<g id="node9" class="node">
<title>Node9</title>
<g id="a_node9"><a xlink:href="translation__layer_8test_8cpp.html" target="_top" xlink:title=" ">
<polygon fill="none" stroke="black" points="479.5,-0.5 479.5,-19.5 619.5,-19.5 619.5,-0.5 479.5,-0.5"/>
<text text-anchor="middle" x="549.5" y="-7.5" font-family="Helvetica,sans-Serif" font-size="10.00">translation_layer.test.cpp</text>
</a>
</g>
</g>
<!-- Node6&#45;&gt;Node9 -->
<g id="edge9" class="edge">
<title>Node6&#45;&gt;Node9</title>
<path fill="none" stroke="midnightblue" d="M640.36,-52.23C618.1,-42.13 587.64,-28.31 568.27,-19.52"/>
<polygon fill="midnightblue" stroke="midnightblue" points="639.09,-55.5 649.64,-56.44 641.98,-49.12 639.09,-55.5"/>
</g>
<!-- Node10&#45;&gt;Node5 -->
<g id="edge14" class="edge">
<title>Node10&#45;&gt;Node5</title>
<path fill="none" stroke="midnightblue" d="M839.23,-107.15C852.35,-99.23 867.93,-88.4 879.5,-76 895.73,-58.6 908.09,-33.09 913.88,-19.79"/>
<polygon fill="midnightblue" stroke="midnightblue" points="837.1,-104.34 830.21,-112.39 840.61,-110.39 837.1,-104.34"/>
</g>
<!-- Node10&#45;&gt;Node6 -->
<g id="edge15" class="edge">
<title>Node10&#45;&gt;Node6</title>
<path fill="none" stroke="midnightblue" d="M781.02,-108.91C753.76,-98.75 715.51,-84.51 691.37,-75.52"/>
<polygon fill="midnightblue" stroke="midnightblue" points="779.93,-112.23 790.52,-112.44 782.37,-105.67 779.93,-112.23"/>
</g>
<!-- Node11 -->
<g id="node11" class="node">
<title>Node11</title>
<g id="a_node11"><a xlink:href="k1__model_8cpp.html" target="_top" xlink:title=" ">
<polygon fill="none" stroke="black" points="785,-56.5 785,-75.5 870,-75.5 870,-56.5 785,-56.5"/>
<text text-anchor="middle" x="827.5" y="-63.5" font-family="Helvetica,sans-Serif" font-size="10.00">k1_model.cpp</text>
</a>
</g>
</g>
<!-- Node10&#45;&gt;Node11 -->
<g id="edge11" class="edge">
<title>Node10&#45;&gt;Node11</title>
<path fill="none" stroke="midnightblue" d="M818.32,-102.4C820.67,-93.36 823.37,-82.94 825.23,-75.75"/>
<polygon fill="midnightblue" stroke="midnightblue" points="814.93,-101.52 815.81,-112.08 821.71,-103.28 814.93,-101.52"/>
</g>
<!-- Node10&#45;&gt;Node12 -->
<g id="edge12" class="edge">
<title>Node10&#45;&gt;Node12</title>
<path fill="none" stroke="midnightblue" d="M760.31,-112.53C759.03,-112.35 757.76,-112.17 756.5,-112 618.64,-93.15 583.5,-93.84 445.5,-76 442.43,-75.6 439.28,-75.19 436.1,-74.76"/>
<polygon fill="midnightblue" stroke="midnightblue" points="759.87,-116 770.27,-113.98 760.88,-109.08 759.87,-116"/>
</g>
<!-- Node13 -->
<g id="node13" class="node">
<title>Node13</title>
<g id="a_node13"><a xlink:href="tests_2ktl__model__scoring_2main_8cpp.html" target="_top" xlink:title=" ">
<polygon fill="none" stroke="black" points="964.5,-56.5 964.5,-75.5 1026.5,-75.5 1026.5,-56.5 964.5,-56.5"/>
<text text-anchor="middle" x="995.5" y="-63.5" font-family="Helvetica,sans-Serif" font-size="10.00">main.cpp</text>
</a>
</g>
</g>
<!-- Node10&#45;&gt;Node13 -->
<g id="edge13" class="edge">
<title>Node10&#45;&gt;Node13</title>
<path fill="none" stroke="midnightblue" d="M852.03,-109.57C886.36,-99.38 935.83,-84.7 966.8,-75.52"/>
<polygon fill="midnightblue" stroke="midnightblue" points="850.93,-106.24 842.34,-112.44 852.92,-112.95 850.93,-106.24"/>
</g>
<!-- Node14&#45;&gt;Node5 -->
<g id="edge20" class="edge">
<title>Node14&#45;&gt;Node5</title>
<path fill="none" stroke="midnightblue" d="M949.17,-102.67C940.86,-78.62 926.62,-37.39 920.47,-19.59"/>
<polygon fill="midnightblue" stroke="midnightblue" points="945.94,-104.06 952.52,-112.37 952.56,-101.77 945.94,-104.06"/>
</g>
<!-- Node14&#45;&gt;Node6 -->
<g id="edge21" class="edge">
<title>Node14&#45;&gt;Node6</title>
<path fill="none" stroke="midnightblue" d="M902.13,-110.96C848.01,-100.78 765.15,-85.18 714.03,-75.57"/>
<polygon fill="midnightblue" stroke="midnightblue" points="901.75,-114.45 912.22,-112.86 903.04,-107.57 901.75,-114.45"/>
</g>
<!-- Node14&#45;&gt;Node13 -->
<g id="edge19" class="edge">
<title>Node14&#45;&gt;Node13</title>
<path fill="none" stroke="midnightblue" d="M968.2,-103.86C975.13,-94.5 983.41,-83.33 989.02,-75.75"/>
<polygon fill="midnightblue" stroke="midnightblue" points="965.25,-101.96 962.11,-112.08 970.87,-106.13 965.25,-101.96"/>
</g>
<!-- Node14&#45;&gt;Node15 -->
<g id="edge18" class="edge">
<title>Node14&#45;&gt;Node15</title>
<path fill="none" stroke="midnightblue" d="M902.31,-112.54C901.03,-112.35 899.76,-112.17 898.5,-112 868.83,-107.88 690.84,-86.82 590.75,-75.03"/>
<polygon fill="midnightblue" stroke="midnightblue" points="901.86,-116.01 912.27,-114 902.88,-109.08 901.86,-116.01"/>
</g>
<!-- Node16&#45;&gt;Node5 -->
<g id="edge25" class="edge">
<title>Node16&#45;&gt;Node5</title>
<path fill="none" stroke="midnightblue" d="M644.24,-109.43C670.85,-101.09 706.77,-89.04 737.5,-76 755.43,-68.39 758.49,-63.43 776.5,-56 813.08,-40.9 856.67,-27.69 885.61,-19.55"/>
<polygon fill="midnightblue" stroke="midnightblue" points="643.05,-106.13 634.53,-112.44 645.12,-112.82 643.05,-106.13"/>
</g>
<!-- Node16&#45;&gt;Node6 -->
<g id="edge26" class="edge">
<title>Node16&#45;&gt;Node6</title>
<path fill="none" stroke="midnightblue" d="M623.54,-105.54C634.77,-95.91 648.82,-83.87 658.19,-75.83"/>
<polygon fill="midnightblue" stroke="midnightblue" points="620.94,-103.16 615.62,-112.32 625.49,-108.47 620.94,-103.16"/>
</g>
<!-- Node16&#45;&gt;Node17 -->
<g id="edge24" class="edge">
<title>Node16&#45;&gt;Node17</title>
<path fill="none" stroke="midnightblue" d="M552.4,-112.76C487.09,-102.63 376.86,-85.52 311.25,-75.34"/>
<polygon fill="midnightblue" stroke="midnightblue" points="552.06,-116.25 562.48,-114.32 553.13,-109.33 552.06,-116.25"/>
</g>
<!-- Node18&#45;&gt;Node13 -->
<g id="edge29" class="edge">
<title>Node18&#45;&gt;Node13</title>
<path fill="none" stroke="midnightblue" d="M1184.19,-110.18C1137.34,-99.46 1066.94,-83.35 1026.69,-74.14"/>
<polygon fill="midnightblue" stroke="midnightblue" points="1183.58,-113.62 1194.11,-112.44 1185.14,-106.8 1183.58,-113.62"/>
</g>
<!-- Node19 -->
<g id="node19" class="node">
<title>Node19</title>
<g id="a_node19"><a xlink:href="model__tester_8cpp.html" target="_top" xlink:title=" ">
<polygon fill="none" stroke="black" points="1229,-56.5 1229,-75.5 1330,-75.5 1330,-56.5 1229,-56.5"/>
<text text-anchor="middle" x="1279.5" y="-63.5" font-family="Helvetica,sans-Serif" font-size="10.00">model_tester.cpp</text>
</a>
</g>
</g>
<!-- Node18&#45;&gt;Node19 -->
<g id="edge30" class="edge">
<title>Node18&#45;&gt;Node19</title>
<path fill="none" stroke="midnightblue" d="M1246.23,-104.43C1254.64,-94.97 1264.85,-83.48 1271.72,-75.75"/>
<polygon fill="midnightblue" stroke="midnightblue" points="1243.45,-102.28 1239.43,-112.08 1248.69,-106.93 1243.45,-102.28"/>
</g>
<!-- Node20&#45;&gt;Node5 -->
<g id="edge33" class="edge">
<title>Node20&#45;&gt;Node5</title>
<path fill="none" stroke="midnightblue" d="M1064.53,-102.33C1059.05,-87.92 1049.62,-68.4 1035.5,-56 1014.33,-37.41 984.68,-26.14 960.4,-19.53"/>
<polygon fill="midnightblue" stroke="midnightblue" points="1061.36,-103.87 1067.96,-112.16 1067.96,-101.57 1061.36,-103.87"/>
</g>
<!-- Node20&#45;&gt;Node6 -->
<g id="edge34" class="edge">
<title>Node20&#45;&gt;Node6</title>
<path fill="none" stroke="midnightblue" d="M1006.82,-111.92C902.66,-97.6 793.85,-83.3 728.23,-74.75"/>
<polygon fill="midnightblue" stroke="midnightblue" points="1006.5,-115.41 1016.89,-113.3 1007.46,-108.47 1006.5,-115.41"/>
</g>
<!-- Node20&#45;&gt;Node21 -->
<g id="edge32" class="edge">
<title>Node20&#45;&gt;Node21</title>
<path fill="none" stroke="midnightblue" d="M1091.08,-106.38C1104.81,-96.62 1122.43,-84.11 1134.07,-75.83"/>
<polygon fill="midnightblue" stroke="midnightblue" points="1088.84,-103.68 1082.71,-112.32 1092.89,-109.38 1088.84,-103.68"/>
</g>
<!-- Node22&#45;&gt;Node10 -->
<g id="edge39" class="edge">
<title>Node22&#45;&gt;Node10</title>
<path fill="none" stroke="midnightblue" d="M719.27,-164.37C742.31,-154.26 773.98,-140.35 794.1,-131.52"/>
<polygon fill="midnightblue" stroke="midnightblue" points="717.74,-161.22 709.99,-168.44 720.55,-167.63 717.74,-161.22"/>
</g>
<!-- Node22&#45;&gt;Node14 -->
<g id="edge40" class="edge">
<title>Node22&#45;&gt;Node14</title>
<path fill="none" stroke="midnightblue" d="M724.93,-169.98C773.28,-160.13 861.22,-142.21 913.4,-131.58"/>
<polygon fill="midnightblue" stroke="midnightblue" points="724.06,-166.59 714.96,-172.02 725.45,-173.45 724.06,-166.59"/>
</g>
<!-- Node22&#45;&gt;Node16 -->
<g id="edge41" class="edge">
<title>Node22&#45;&gt;Node16</title>
<path fill="none" stroke="midnightblue" d="M668.31,-162.9C652.72,-153 632.37,-140.07 619.12,-131.65"/>
<polygon fill="midnightblue" stroke="midnightblue" points="666.53,-165.92 676.84,-168.32 670.28,-160.01 666.53,-165.92"/>
</g>
<!-- Node22&#45;&gt;Node20 -->
<g id="edge42" class="edge">
<title>Node22&#45;&gt;Node20</title>
<path fill="none" stroke="midnightblue" d="M724.87,-172.13C783.05,-163.89 904.66,-146.64 1007.5,-132 1010.56,-131.56 1013.71,-131.12 1016.88,-130.66"/>
<polygon fill="midnightblue" stroke="midnightblue" points="724.17,-168.7 714.76,-173.56 725.15,-175.63 724.17,-168.7"/>
</g>
<!-- Node23 -->
<g id="node23" class="node">
<title>Node23</title>
<g id="a_node23"><a xlink:href="fft_8cpp.html" target="_top" xlink:title=" ">
<polygon fill="none" stroke="black" points="667,-112.5 667,-131.5 714,-131.5 714,-112.5 667,-112.5"/>
<text text-anchor="middle" x="690.5" y="-119.5" font-family="Helvetica,sans-Serif" font-size="10.00">fft.cpp</text>
</a>
</g>
</g>
<!-- Node22&#45;&gt;Node23 -->
<g id="edge37" class="edge">
<title>Node22&#45;&gt;Node23</title>
<path fill="none" stroke="midnightblue" d="M690.5,-157.8C690.5,-148.91 690.5,-138.78 690.5,-131.75"/>
<polygon fill="midnightblue" stroke="midnightblue" points="687,-158.08 690.5,-168.08 694,-158.08 687,-158.08"/>
</g>
<!-- Node24 -->
<g id="node24" class="node">
<title>Node24</title>
<g id="a_node24"><a xlink:href="fft_8test_8cpp.html" target="_top" xlink:title=" ">
<polygon fill="none" stroke="black" points="117,-56.5 117,-75.5 186,-75.5 186,-56.5 117,-56.5"/>
<text text-anchor="middle" x="151.5" y="-63.5" font-family="Helvetica,sans-Serif" font-size="10.00">fft.test.cpp</text>
</a>
</g>
</g>
<!-- Node22&#45;&gt;Node24 -->
<g id="edge38" class="edge">
<title>Node22&#45;&gt;Node24</title>
<path fill="none" stroke="midnightblue" d="M656.22,-176.09C563.78,-173.23 311.21,-162.76 234.5,-132 202.56,-119.19 172.77,-90.14 159.2,-75.61"/>
<polygon fill="midnightblue" stroke="midnightblue" points="656.32,-179.59 666.42,-176.39 656.53,-172.59 656.32,-179.59"/>
</g>
<!-- Node25&#45;&gt;Node6 -->
<g id="edge48" class="edge">
<title>Node25&#45;&gt;Node6</title>
<path fill="none" stroke="midnightblue" d="M554.07,-271.25C550.29,-263.17 546.39,-253.35 544.5,-244 536.31,-203.53 520.19,-156.84 553.5,-112 567.69,-92.9 591.2,-81.9 613.27,-75.57"/>
<polygon fill="midnightblue" stroke="midnightblue" points="551.03,-272.99 558.62,-280.37 557.29,-269.86 551.03,-272.99"/>
</g>
<!-- Node25&#45;&gt;Node26 -->
<g id="edge47" class="edge">
<title>Node25&#45;&gt;Node26</title>
<path fill="none" stroke="midnightblue" d="M578.53,-272.43C587.12,-262.97 597.54,-251.48 604.56,-243.75"/>
<polygon fill="midnightblue" stroke="midnightblue" points="575.72,-270.33 571.59,-280.08 580.9,-275.03 575.72,-270.33"/>
</g>
<!-- Node27&#45;&gt;Node3 -->
<g id="edge51" class="edge">
<title>Node27&#45;&gt;Node3</title>
<path fill="none" stroke="midnightblue" d="M1097.19,-278.01C1126.08,-270.63 1162.41,-259.41 1192.5,-244 1256.05,-211.46 1320.42,-153.44 1343.55,-131.62"/>
<polygon fill="midnightblue" stroke="midnightblue" points="1096.17,-274.66 1087.31,-280.47 1097.86,-281.45 1096.17,-274.66"/>
</g>
<!-- Node27&#45;&gt;Node10 -->
<g id="edge52" class="edge">
<title>Node27&#45;&gt;Node10</title>
<path fill="none" stroke="midnightblue" d="M981.26,-286.46C913.62,-279.92 810.99,-258.19 761.5,-188 746.68,-166.98 777.61,-143.76 797.83,-131.57"/>
<polygon fill="midnightblue" stroke="midnightblue" points="981.12,-289.96 991.39,-287.35 981.73,-282.99 981.12,-289.96"/>
</g>
<!-- Node27&#45;&gt;Node14 -->
<g id="edge53" class="edge">
<title>Node27&#45;&gt;Node14</title>
<path fill="none" stroke="midnightblue" d="M1077.88,-275.83C1091.08,-268.53 1105.08,-258.05 1112.5,-244 1123.04,-224.06 1108.09,-178.18 1098.5,-168 1084.63,-153.27 1034.85,-139.83 997.9,-131.55"/>
<polygon fill="midnightblue" stroke="midnightblue" points="1076.28,-272.72 1068.96,-280.38 1079.46,-278.96 1076.28,-272.72"/>
</g>
<!-- Node27&#45;&gt;Node16 -->
<g id="edge54" class="edge">
<title>Node27&#45;&gt;Node16</title>
<path fill="none" stroke="midnightblue" d="M981.16,-286.93C898.17,-281.22 754.14,-260.65 657.5,-188 636.25,-172.02 618.68,-145.43 610.48,-131.74"/>
<polygon fill="midnightblue" stroke="midnightblue" points="981.02,-290.43 991.22,-287.57 981.46,-283.45 981.02,-290.43"/>
</g>
<!-- Node27&#45;&gt;Node18 -->
<g id="edge55" class="edge">
<title>Node27&#45;&gt;Node18</title>
<path fill="none" stroke="midnightblue" d="M1104.36,-277.74C1127.04,-271 1152,-260.42 1170.5,-244 1206.57,-211.98 1223.99,-153.65 1229.5,-131.68"/>
<polygon fill="midnightblue" stroke="midnightblue" points="1103.17,-274.43 1094.47,-280.48 1105.04,-281.18 1103.17,-274.43"/>
</g>
<!-- Node27&#45;&gt;Node20 -->
<g id="edge66" class="edge">
<title>Node27&#45;&gt;Node20</title>
<path fill="none" stroke="midnightblue" d="M1107.77,-277.21C1125.87,-270.56 1143.71,-260.19 1154.5,-244 1169.1,-222.1 1141.64,-181 1131.5,-168 1119.28,-152.33 1100.25,-139.49 1086.7,-131.59"/>
<polygon fill="midnightblue" stroke="midnightblue" points="1106.42,-273.97 1098.03,-280.44 1108.62,-280.61 1106.42,-273.97"/>
</g>
<!-- Node28 -->
<g id="node28" class="node">
<title>Node28</title>
<g id="a_node28"><a xlink:href="symbol__stream_8hpp.html" target="_top" xlink:title=" ">
<polygon fill="none" stroke="black" points="990,-224.5 990,-243.5 1103,-243.5 1103,-224.5 990,-224.5"/>
<text text-anchor="middle" x="1046.5" y="-231.5" font-family="Helvetica,sans-Serif" font-size="10.00">symbol_stream.hpp</text>
</a>
</g>
</g>
<!-- Node27&#45;&gt;Node28 -->
<g id="edge56" class="edge">
<title>Node27&#45;&gt;Node28</title>
<path fill="none" stroke="midnightblue" d="M1046.5,-269.8C1046.5,-260.91 1046.5,-250.78 1046.5,-243.75"/>
<polygon fill="midnightblue" stroke="midnightblue" points="1043,-270.08 1046.5,-280.08 1050,-270.08 1043,-270.08"/>
</g>
<!-- Node29 -->
<g id="node29" class="node">
<title>Node29</title>
<g id="a_node29"><a xlink:href="symbol__stream_8test_8cpp.html" target="_top" xlink:title=" ">
<polygon fill="none" stroke="black" points="770.5,-168.5 770.5,-187.5 904.5,-187.5 904.5,-168.5 770.5,-168.5"/>
<text text-anchor="middle" x="837.5" y="-175.5" font-family="Helvetica,sans-Serif" font-size="10.00">symbol_stream.test.cpp</text>
</a>
</g>
</g>
<!-- Node27&#45;&gt;Node29 -->
<g id="edge65" class="edge">
<title>Node27&#45;&gt;Node29</title>
<path fill="none" stroke="midnightblue" d="M1021.02,-275.59C977.51,-252.69 890.07,-206.67 853.82,-187.59"/>
<polygon fill="midnightblue" stroke="midnightblue" points="1019.62,-278.81 1030.1,-280.37 1022.88,-272.61 1019.62,-278.81"/>
</g>
<!-- Node28&#45;&gt;Node2 -->
<g id="edge59" class="edge">
<title>Node28&#45;&gt;Node2</title>
<path fill="none" stroke="midnightblue" d="M1043,-214.1C1041.34,-205.14 1039.44,-194.86 1038.12,-187.75"/>
<polygon fill="midnightblue" stroke="midnightblue" points="1039.59,-214.89 1044.85,-224.08 1046.47,-213.61 1039.59,-214.89"/>
</g>
<!-- Node28&#45;&gt;Node3 -->
<g id="edge57" class="edge">
<title>Node28&#45;&gt;Node3</title>
<path fill="none" stroke="midnightblue" d="M1079.98,-220.97C1142.22,-198.59 1274.35,-151.09 1328.55,-131.61"/>
<polygon fill="midnightblue" stroke="midnightblue" points="1078.48,-217.78 1070.26,-224.46 1080.85,-224.37 1078.48,-217.78"/>
</g>
<!-- Node28&#45;&gt;Node4 -->
<g id="edge58" class="edge">
<title>Node28&#45;&gt;Node4</title>
<path fill="none" stroke="midnightblue" d="M1113.34,-228.21C1191.64,-219.73 1322.26,-196.31 1413.5,-132 1434.52,-117.19 1449.28,-89.59 1455.78,-75.6"/>
<polygon fill="midnightblue" stroke="midnightblue" points="1112.7,-224.76 1103.11,-229.27 1113.42,-231.72 1112.7,-224.76"/>
</g>
<!-- Node28&#45;&gt;Node10 -->
<g id="edge60" class="edge">
<title>Node28&#45;&gt;Node10</title>
<path fill="none" stroke="midnightblue" d="M1027.28,-218.41C1007.75,-204.11 976.23,-182.41 946.5,-168 913.6,-152.05 873.59,-139.34 846.1,-131.55"/>
<polygon fill="midnightblue" stroke="midnightblue" points="1025.24,-221.26 1035.35,-224.41 1029.41,-215.64 1025.24,-221.26"/>
</g>
<!-- Node28&#45;&gt;Node14 -->
<g id="edge61" class="edge">
<title>Node28&#45;&gt;Node14</title>
<path fill="none" stroke="midnightblue" d="M1065.31,-217.7C1079.58,-204.19 1094.96,-184.18 1083.5,-168 1072.95,-153.1 1028.25,-139.75 994.62,-131.53"/>
<polygon fill="midnightblue" stroke="midnightblue" points="1062.83,-215.22 1057.66,-224.47 1067.47,-220.46 1062.83,-215.22"/>
</g>
<!-- Node28&#45;&gt;Node16 -->
<g id="edge62" class="edge">
<title>Node28&#45;&gt;Node16</title>
<path fill="none" stroke="midnightblue" d="M1016.19,-220.5C996.12,-211.95 969.38,-200.03 946.5,-188 931.32,-180.02 929.65,-173.76 913.5,-168 805.69,-129.55 771.6,-149.58 658.5,-132 655.27,-131.5 651.94,-130.97 648.58,-130.42"/>
<polygon fill="midnightblue" stroke="midnightblue" points="1014.89,-223.75 1025.46,-224.42 1017.61,-217.3 1014.89,-223.75"/>
</g>
<!-- Node28&#45;&gt;Node20 -->
<g id="edge64" class="edge">
<title>Node28&#45;&gt;Node20</title>
<path fill="none" stroke="midnightblue" d="M1080.32,-219.96C1094.14,-212.76 1108.68,-202.32 1116.5,-188 1128.23,-166.52 1101.75,-143.67 1084.29,-131.61"/>
<polygon fill="midnightblue" stroke="midnightblue" points="1078.48,-216.97 1070.97,-224.44 1081.5,-223.28 1078.48,-216.97"/>
</g>
<!-- Node28&#45;&gt;Node29 -->
<g id="edge63" class="edge">
<title>Node28&#45;&gt;Node29</title>
<path fill="none" stroke="midnightblue" d="M1003.52,-221.89C964.05,-211.7 906.4,-196.8 870.46,-187.52"/>
<polygon fill="midnightblue" stroke="midnightblue" points="1002.83,-225.33 1013.38,-224.44 1004.58,-218.55 1002.83,-225.33"/>
</g>
<!-- Node30&#45;&gt;Node6 -->
<g id="edge74" class="edge">
<title>Node30&#45;&gt;Node6</title>
<path fill="none" stroke="midnightblue" d="M364.64,-113.48C429.76,-103.52 544.36,-85.99 612.68,-75.54"/>
<polygon fill="midnightblue" stroke="midnightblue" points="363.98,-110.04 354.63,-115.01 365.04,-116.96 363.98,-110.04"/>
</g>
<!-- Node30&#45;&gt;Node12 -->
<g id="edge70" class="edge">
<title>Node30&#45;&gt;Node12</title>
<path fill="none" stroke="midnightblue" d="M334.33,-105.82C346.34,-96.15 361.47,-83.95 371.54,-75.83"/>
<polygon fill="midnightblue" stroke="midnightblue" points="331.85,-103.32 326.26,-112.32 336.25,-108.77 331.85,-103.32"/>
</g>
<!-- Node30&#45;&gt;Node15 -->
<g id="edge71" class="edge">
<title>Node30&#45;&gt;Node15</title>
<path fill="none" stroke="midnightblue" d="M358.32,-109.83C397.41,-99.63 454.33,-84.78 489.85,-75.52"/>
<polygon fill="midnightblue" stroke="midnightblue" points="357.09,-106.53 348.3,-112.44 358.86,-113.31 357.09,-106.53"/>
</g>
<!-- Node30&#45;&gt;Node17 -->
<g id="edge72" class="edge">
<title>Node30&#45;&gt;Node17</title>
<path fill="none" stroke="midnightblue" d="M298.59,-105.25C288.3,-95.67 275.53,-83.79 266.99,-75.83"/>
<polygon fill="midnightblue" stroke="midnightblue" points="296.48,-108.07 306.18,-112.32 301.25,-102.95 296.48,-108.07"/>
</g>
<!-- Node30&#45;&gt;Node21 -->
<g id="edge73" class="edge">
<title>Node30&#45;&gt;Node21</title>
<path fill="none" stroke="midnightblue" d="M364.57,-118.25C481.04,-111.64 783.27,-94.11 1035.5,-76 1050.64,-74.91 1066.93,-73.65 1082.24,-72.41"/>
<polygon fill="midnightblue" stroke="midnightblue" points="364.33,-114.75 354.54,-118.81 364.72,-121.74 364.33,-114.75"/>
</g>
<!-- Node30&#45;&gt;Node24 -->
<g id="edge69" class="edge">
<title>Node30&#45;&gt;Node24</title>
<path fill="none" stroke="midnightblue" d="M279.98,-109.3C249.08,-99.13 205.03,-84.62 177.36,-75.52"/>
<polygon fill="midnightblue" stroke="midnightblue" points="278.92,-112.64 289.51,-112.44 281.11,-105.99 278.92,-112.64"/>
</g>
<!-- Node31 -->
<g id="node31" class="node">
<title>Node31</title>
<g id="a_node31"><a xlink:href="wav__file_8test_8cpp.html" target="_top" xlink:title=" ">
<polygon fill="none" stroke="black" points="0,-56.5 0,-75.5 99,-75.5 99,-56.5 0,-56.5"/>
<text text-anchor="middle" x="49.5" y="-63.5" font-family="Helvetica,sans-Serif" font-size="10.00">wav_file.test.cpp</text>
</a>
</g>
</g>
<!-- Node30&#45;&gt;Node31 -->
<g id="edge75" class="edge">
<title>Node30&#45;&gt;Node31</title>
<path fill="none" stroke="midnightblue" d="M266.27,-111.01C216.07,-100.81 138.99,-85.17 91.55,-75.54"/>
<polygon fill="midnightblue" stroke="midnightblue" points="265.75,-114.47 276.25,-113.03 267.15,-107.61 265.75,-114.47"/>
</g>
<!-- Node32&#45;&gt;Node10 -->
<g id="edge78" class="edge">
<title>Node32&#45;&gt;Node10</title>
<path fill="none" stroke="midnightblue" d="M478.28,-169.18C557.44,-158.27 699.24,-138.74 770.35,-128.94"/>
<polygon fill="midnightblue" stroke="midnightblue" points="477.44,-165.76 468.01,-170.59 478.39,-172.7 477.44,-165.76"/>
</g>
<!-- Node32&#45;&gt;Node12 -->
<g id="edge79" class="edge">
<title>Node32&#45;&gt;Node12</title>
<path fill="none" stroke="midnightblue" d="M415,-158.67C406.48,-134.62 391.86,-93.39 385.55,-75.59"/>
<polygon fill="midnightblue" stroke="midnightblue" points="411.8,-160.11 418.44,-168.37 418.4,-157.77 411.8,-160.11"/>
</g>
<!-- Node32&#45;&gt;Node14 -->
<g id="edge80" class="edge">
<title>Node32&#45;&gt;Node14</title>
<path fill="none" stroke="midnightblue" d="M478.43,-171.24C585.87,-160.38 816.35,-137.07 912.25,-127.37"/>
<polygon fill="midnightblue" stroke="midnightblue" points="478.02,-167.77 468.42,-172.26 478.72,-174.73 478.02,-167.77"/>
</g>
<!-- Node32&#45;&gt;Node15 -->
<g id="edge81" class="edge">
<title>Node32&#45;&gt;Node15</title>
<path fill="none" stroke="midnightblue" d="M436.29,-160.9C458,-137.25 497.76,-93.95 514.61,-75.59"/>
<polygon fill="midnightblue" stroke="midnightblue" points="433.61,-158.64 429.43,-168.37 438.77,-163.37 433.61,-158.64"/>
</g>
<!-- Node32&#45;&gt;Node16 -->
<g id="edge82" class="edge">
<title>Node32&#45;&gt;Node16</title>
<path fill="none" stroke="midnightblue" d="M460.45,-165.57C495.16,-155.38 545.18,-140.7 576.48,-131.52"/>
<polygon fill="midnightblue" stroke="midnightblue" points="459.27,-162.27 450.66,-168.44 461.24,-168.99 459.27,-162.27"/>
</g>
<!-- Node32&#45;&gt;Node17 -->
<g id="edge83" class="edge">
<title>Node32&#45;&gt;Node17</title>
<path fill="none" stroke="midnightblue" d="M364.6,-171C315.67,-164.53 250.51,-152.32 234.5,-132 221.02,-114.89 238.33,-89.25 249.47,-75.86"/>
<polygon fill="midnightblue" stroke="midnightblue" points="364.41,-174.51 374.77,-172.3 365.3,-167.56 364.41,-174.51"/>
</g>
<!-- Node32&#45;&gt;Node20 -->
<g id="edge84" class="edge">
<title>Node32&#45;&gt;Node20</title>
<path fill="none" stroke="midnightblue" d="M478.36,-173.87C583.18,-167.83 813.88,-153.24 1007.5,-132 1010.58,-131.66 1013.73,-131.29 1016.91,-130.9"/>
<polygon fill="midnightblue" stroke="midnightblue" points="478.1,-170.38 468.31,-174.45 478.5,-177.37 478.1,-170.38"/>
</g>
<!-- Node32&#45;&gt;Node24 -->
<g id="edge77" class="edge">
<title>Node32&#45;&gt;Node24</title>
<path fill="none" stroke="midnightblue" d="M364.71,-175.06C295.94,-171.44 185.88,-161.14 158.5,-132 144.2,-116.78 146.84,-89.86 149.46,-75.92"/>
<polygon fill="midnightblue" stroke="midnightblue" points="364.8,-178.57 374.96,-175.57 365.14,-171.58 364.8,-178.57"/>
</g>
<!-- Node32&#45;&gt;Node31 -->
<g id="edge85" class="edge">
<title>Node32&#45;&gt;Node31</title>
<path fill="none" stroke="midnightblue" d="M364.67,-174.87C307.49,-171.11 217.7,-160.7 145.5,-132 110.52,-118.09 75.42,-89.82 59.04,-75.59"/>
<polygon fill="midnightblue" stroke="midnightblue" points="364.76,-178.38 374.95,-175.5 365.18,-171.4 364.76,-178.38"/>
</g>
</g>
</svg>
