<?xml version="1.0" encoding="UTF-8" standalone="no"?>
<!DOCTYPE svg PUBLIC "-//W3C//DTD SVG 1.1//EN"
 "http://www.w3.org/Graphics/SVG/1.1/DTD/svg11.dtd">
<!-- Generated by graphviz version 2.43.0 (0)
 -->
<!-- Title: audio_channel.hpp Pages: 1 -->
<svg width="439pt" height="140pt"
 viewBox="0.00 0.00 438.50 140.00" xmlns="http://www.w3.org/2000/svg" xmlns:xlink="http://www.w3.org/1999/xlink">
<g id="graph0" class="graph" transform="scale(1 1) rotate(0) translate(4 136)">
<title>audio_channel.hpp</title>
<!-- Node1 -->
<g id="node1" class="node">
<title>Node1</title>
<g id="a_node1"><a xlink:title=" ">
<polygon fill="#bfbfbf" stroke="black" points="129,-112.5 129,-131.5 237,-131.5 237,-112.5 129,-112.5"/>
<text text-anchor="middle" x="183" y="-119.5" font-family="Helvetica,sans-Serif" font-size="10.00">audio_channel.hpp</text>
</a>
</g>
</g>
<!-- Node2 -->
<g id="node2" class="node">
<title>Node2</title>
<g id="a_node2"><a xlink:title=" ">
<polygon fill="none" stroke="#bfbfbf" points="0,-56.5 0,-75.5 42,-75.5 42,-56.5 0,-56.5"/>
<text text-anchor="middle" x="21" y="-63.5" font-family="Helvetica,sans-Serif" font-size="10.00">array</text>
</a>
</g>
</g>
<!-- Node1&#45;&gt;Node2 -->
<g id="edge1" class="edge">
<title>Node1&#45;&gt;Node2</title>
<path fill="none" stroke="midnightblue" d="M157.33,-112.44C128.79,-102.93 82.71,-87.57 52.14,-77.38"/>
<polygon fill="midnightblue" stroke="midnightblue" points="53,-73.98 42.41,-74.14 50.79,-80.62 53,-73.98"/>
</g>
<!-- Node3 -->
<g id="node3" class="node">
<title>Node3</title>
<g id="a_node3"><a xlink:title=" ">
<polygon fill="none" stroke="#bfbfbf" points="60,-56.5 60,-75.5 110,-75.5 110,-56.5 60,-56.5"/>
<text text-anchor="middle" x="85" y="-63.5" font-family="Helvetica,sans-Serif" font-size="10.00">cstdint</text>
</a>
</g>
</g>
<!-- Node1&#45;&gt;Node3 -->
<g id="edge2" class="edge">
<title>Node1&#45;&gt;Node3</title>
<path fill="none" stroke="midnightblue" d="M167.25,-112.32C151.68,-103.74 127.62,-90.49 109.54,-80.52"/>
<polygon fill="midnightblue" stroke="midnightblue" points="111.15,-77.42 100.71,-75.65 107.78,-83.55 111.15,-77.42"/>
</g>
<!-- Node4 -->
<g id="node4" class="node">
<title>Node4</title>
<g id="a_node4"><a xlink:title=" ">
<polygon fill="none" stroke="#bfbfbf" points="128.5,-56.5 128.5,-75.5 175.5,-75.5 175.5,-56.5 128.5,-56.5"/>
<text text-anchor="middle" x="152" y="-63.5" font-family="Helvetica,sans-Serif" font-size="10.00">deque</text>
</a>
</g>
</g>
<!-- Node1&#45;&gt;Node4 -->
<g id="edge3" class="edge">
<title>Node1&#45;&gt;Node4</title>
<path fill="none" stroke="midnightblue" d="M177.88,-112.08C173.59,-104.61 167.34,-93.72 162.06,-84.52"/>
<polygon fill="midnightblue" stroke="midnightblue" points="165.04,-82.68 157.02,-75.75 158.97,-86.17 165.04,-82.68"/>
</g>
<!-- Node5 -->
<g id="node5" class="node">
<title>Node5</title>
<g id="a_node5"><a xlink:title=" ">
<polygon fill="none" stroke="#bfbfbf" points="194,-56.5 194,-75.5 234,-75.5 234,-56.5 194,-56.5"/>
<text text-anchor="middle" x="214" y="-63.5" font-family="Helvetica,sans-Serif" font-size="10.00">span</text>
</a>
</g>
</g>
<!-- Node1&#45;&gt;Node5 -->
<g id="edge4" class="edge">
<title>Node1&#45;&gt;Node5</title>
<path fill="none" stroke="midnightblue" d="M188.12,-112.08C192.41,-104.61 198.66,-93.72 203.94,-84.52"/>
<polygon fill="midnightblue" stroke="midnightblue" points="207.03,-86.17 208.98,-75.75 200.96,-82.68 207.03,-86.17"/>
</g>
<!-- Node6 -->
<g id="node6" class="node">
<title>Node6</title>
<g id="a_node6"><a xlink:title=" ">
<polygon fill="none" stroke="#bfbfbf" points="252.5,-56.5 252.5,-75.5 299.5,-75.5 299.5,-56.5 252.5,-56.5"/>
<text text-anchor="middle" x="276" y="-63.5" font-family="Helvetica,sans-Serif" font-size="10.00">vector</text>
</a>
</g>
</g>
<!-- Node1&#45;&gt;Node6 -->
<g id="edge5" class="edge">
<title>Node1&#45;&gt;Node6</title>
<path fill="none" stroke="midnightblue" d="M197.94,-112.32C212.59,-103.82 235.13,-90.73 252.24,-80.8"/>
<polygon fill="midnightblue" stroke="midnightblue" points="254.2,-83.7 261.1,-75.65 250.69,-77.65 254.2,-83.7"/>
</g>
<!-- Node7 -->
<g id="node7" class="node">
<title>Node7</title>
<g id="a_node7"><a xlink:href="assert_8hpp.html" target="_top" xlink:title=" ">
<polygon fill="none" stroke="black" points="317.5,-56.5 317.5,-75.5 430.5,-75.5 430.5,-56.5 317.5,-56.5"/>
<text text-anchor="middle" x="374" y="-63.5" font-family="Helvetica,sans-Serif" font-size="10.00">common/assert.hpp</text>
</a>
</g>
</g>
<!-- Node1&#45;&gt;Node7 -->
<g id="edge6" class="edge">
<title>Node1&#45;&gt;Node7</title>
<path fill="none" stroke="midnightblue" d="M213.26,-112.44C245.96,-103.2 298.18,-88.44 334.18,-78.26"/>
<polygon fill="midnightblue" stroke="midnightblue" points="335.21,-81.61 343.88,-75.52 333.3,-74.87 335.21,-81.61"/>
</g>
<!-- Node8 -->
<g id="node8" class="node">
<title>Node8</title>
<g id="a_node8"><a xlink:title=" ">
<polygon fill="none" stroke="#bfbfbf" points="352,-0.5 352,-19.5 396,-19.5 396,-0.5 352,-0.5"/>
<text text-anchor="middle" x="374" y="-7.5" font-family="Helvetica,sans-Serif" font-size="10.00">string</text>
</a>
</g>
</g>
<!-- Node7&#45;&gt;Node8 -->
<g id="edge7" class="edge">
<title>Node7&#45;&gt;Node8</title>
<path fill="none" stroke="midnightblue" d="M374,-56.08C374,-49.01 374,-38.86 374,-29.99"/>
<polygon fill="midnightblue" stroke="midnightblue" points="377.5,-29.75 374,-19.75 370.5,-29.75 377.5,-29.75"/>
</g>
</g>
</svg>
