<?xml version="1.0" encoding="UTF-8" standalone="no"?>
<!DOCTYPE svg PUBLIC "-//W3C//DTD SVG 1.1//EN"
 "http://www.w3.org/Graphics/SVG/1.1/DTD/svg11.dtd">
<!-- Generated by graphviz version 2.43.0 (0)
 -->
<!-- Title: operator&lt;&lt; Pages: 1 -->
<svg width="253pt" height="88pt"
 viewBox="0.00 0.00 253.00 88.00" xmlns="http://www.w3.org/2000/svg" xmlns:xlink="http://www.w3.org/1999/xlink">
<g id="graph0" class="graph" transform="scale(1 1) rotate(0) translate(4 84)">
<title>operator&lt;&lt;</title>
<!-- Node1 -->
<g id="node1" class="node">
<title>Node1</title>
<g id="a_node1"><a xlink:title=" ">
<polygon fill="#bfbfbf" stroke="black" points="0,-30 0,-49 74,-49 74,-30 0,-30"/>
<text text-anchor="middle" x="37" y="-37" font-family="Helvetica,sans-Serif" font-size="10.00">operator&lt;&lt;</text>
</a>
</g>
</g>
<!-- Node2 -->
<g id="node2" class="node">
<title>Node2</title>
<g id="a_node2"><a xlink:href="classkazoo_1_1BinaryStream.html#aada16bde376a41419737c7177612a521" target="_top" xlink:title="If adding bits, this will return the number of bits that can be added to the stream before the stream...">
<polygon fill="none" stroke="black" points="110,-49.5 110,-79.5 245,-79.5 245,-49.5 110,-49.5"/>
<text text-anchor="start" x="118" y="-67.5" font-family="Helvetica,sans-Serif" font-size="10.00">kazoo::BinaryStream</text>
<text text-anchor="middle" x="177.5" y="-56.5" font-family="Helvetica,sans-Serif" font-size="10.00">::getInputBitBufferSpace</text>
</a>
</g>
</g>
<!-- Node1&#45;&gt;Node2 -->
<g id="edge1" class="edge">
<title>Node1&#45;&gt;Node2</title>
<path fill="none" stroke="midnightblue" d="M74.03,-46C82.01,-47.44 90.75,-49.02 99.67,-50.63"/>
<polygon fill="midnightblue" stroke="midnightblue" points="99.32,-54.13 109.78,-52.46 100.56,-47.24 99.32,-54.13"/>
</g>
<!-- Node3 -->
<g id="node3" class="node">
<title>Node3</title>
<g id="a_node3"><a xlink:href="classkazoo_1_1BinaryStream.html#a9cf1c3eb54ace654061894c7278b6d32" target="_top" xlink:title="Get a const reference to the underlying stream data.">
<polygon fill="none" stroke="black" points="115,-0.5 115,-30.5 240,-30.5 240,-0.5 115,-0.5"/>
<text text-anchor="start" x="123" y="-18.5" font-family="Helvetica,sans-Serif" font-size="10.00">kazoo::BinaryStream</text>
<text text-anchor="middle" x="177.5" y="-7.5" font-family="Helvetica,sans-Serif" font-size="10.00">::getStreamDataConst</text>
</a>
</g>
</g>
<!-- Node1&#45;&gt;Node3 -->
<g id="edge2" class="edge">
<title>Node1&#45;&gt;Node3</title>
<path fill="none" stroke="midnightblue" d="M74.03,-33.26C83.6,-31.6 94.28,-29.75 105.04,-27.88"/>
<polygon fill="midnightblue" stroke="midnightblue" points="105.65,-31.33 114.9,-26.17 104.45,-24.43 105.65,-31.33"/>
</g>
</g>
</svg>
