<?xml version="1.0" encoding="UTF-8" standalone="no"?>
<!DOCTYPE svg PUBLIC "-//W3C//DTD SVG 1.1//EN"
 "http://www.w3.org/Graphics/SVG/1.1/DTD/svg11.dtd">
<!-- Generated by graphviz version 2.43.0 (0)
 -->
<!-- Title: binary_stream.hpp Pages: 1 -->
<svg width="849pt" height="140pt"
 viewBox="0.00 0.00 848.50 140.00" xmlns="http://www.w3.org/2000/svg" xmlns:xlink="http://www.w3.org/1999/xlink">
<g id="graph0" class="graph" transform="scale(1 1) rotate(0) translate(4 136)">
<title>binary_stream.hpp</title>
<!-- Node1 -->
<g id="node1" class="node">
<title>Node1</title>
<g id="a_node1"><a xlink:title=" ">
<polygon fill="#bfbfbf" stroke="black" points="331,-112.5 331,-131.5 439,-131.5 439,-112.5 331,-112.5"/>
<text text-anchor="middle" x="385" y="-119.5" font-family="Helvetica,sans-Serif" font-size="10.00">binary_stream.hpp</text>
</a>
</g>
</g>
<!-- Node2 -->
<g id="node2" class="node">
<title>Node2</title>
<g id="a_node2"><a xlink:title=" ">
<polygon fill="none" stroke="#bfbfbf" points="0,-56.5 0,-75.5 42,-75.5 42,-56.5 0,-56.5"/>
<text text-anchor="middle" x="21" y="-63.5" font-family="Helvetica,sans-Serif" font-size="10.00">array</text>
</a>
</g>
</g>
<!-- Node1&#45;&gt;Node2 -->
<g id="edge1" class="edge">
<title>Node1&#45;&gt;Node2</title>
<path fill="none" stroke="midnightblue" d="M330.75,-116.34C266.37,-110.22 155.7,-97.86 52.19,-75.96"/>
<polygon fill="midnightblue" stroke="midnightblue" points="52.71,-72.49 42.2,-73.81 51.24,-79.33 52.71,-72.49"/>
</g>
<!-- Node3 -->
<g id="node3" class="node">
<title>Node3</title>
<g id="a_node3"><a xlink:title=" ">
<polygon fill="none" stroke="#bfbfbf" points="60,-56.5 60,-75.5 104,-75.5 104,-56.5 60,-56.5"/>
<text text-anchor="middle" x="82" y="-63.5" font-family="Helvetica,sans-Serif" font-size="10.00">bitset</text>
</a>
</g>
</g>
<!-- Node1&#45;&gt;Node3 -->
<g id="edge2" class="edge">
<title>Node1&#45;&gt;Node3</title>
<path fill="none" stroke="midnightblue" d="M330.93,-113.8C278.14,-106.38 195.37,-93.67 114.19,-75.81"/>
<polygon fill="midnightblue" stroke="midnightblue" points="114.82,-72.37 104.3,-73.61 113.3,-79.2 114.82,-72.37"/>
</g>
<!-- Node4 -->
<g id="node4" class="node">
<title>Node4</title>
<g id="a_node4"><a xlink:title=" ">
<polygon fill="none" stroke="#bfbfbf" points="122.5,-56.5 122.5,-75.5 169.5,-75.5 169.5,-56.5 122.5,-56.5"/>
<text text-anchor="middle" x="146" y="-63.5" font-family="Helvetica,sans-Serif" font-size="10.00">cmath</text>
</a>
</g>
</g>
<!-- Node1&#45;&gt;Node4 -->
<g id="edge3" class="edge">
<title>Node1&#45;&gt;Node4</title>
<path fill="none" stroke="midnightblue" d="M343.03,-112.49C303.42,-104.31 242.15,-91.28 179.77,-76.09"/>
<polygon fill="midnightblue" stroke="midnightblue" points="180.3,-72.62 169.76,-73.63 178.63,-79.42 180.3,-72.62"/>
</g>
<!-- Node5 -->
<g id="node5" class="node">
<title>Node5</title>
<g id="a_node5"><a xlink:title=" ">
<polygon fill="none" stroke="#bfbfbf" points="188,-56.5 188,-75.5 238,-75.5 238,-56.5 188,-56.5"/>
<text text-anchor="middle" x="213" y="-63.5" font-family="Helvetica,sans-Serif" font-size="10.00">cstdint</text>
</a>
</g>
</g>
<!-- Node1&#45;&gt;Node5 -->
<g id="edge4" class="edge">
<title>Node1&#45;&gt;Node5</title>
<path fill="none" stroke="midnightblue" d="M357.75,-112.44C328.09,-103.13 280.57,-88.21 248.13,-78.03"/>
<polygon fill="midnightblue" stroke="midnightblue" points="248.76,-74.56 238.17,-74.9 246.66,-81.24 248.76,-74.56"/>
</g>
<!-- Node6 -->
<g id="node6" class="node">
<title>Node6</title>
<g id="a_node6"><a xlink:title=" ">
<polygon fill="none" stroke="#bfbfbf" points="256.5,-56.5 256.5,-75.5 303.5,-75.5 303.5,-56.5 256.5,-56.5"/>
<text text-anchor="middle" x="280" y="-63.5" font-family="Helvetica,sans-Serif" font-size="10.00">deque</text>
</a>
</g>
</g>
<!-- Node1&#45;&gt;Node6 -->
<g id="edge5" class="edge">
<title>Node1&#45;&gt;Node6</title>
<path fill="none" stroke="midnightblue" d="M368.13,-112.32C351.29,-103.66 325.19,-90.24 305.76,-80.25"/>
<polygon fill="midnightblue" stroke="midnightblue" points="307.32,-77.12 296.83,-75.65 304.12,-83.34 307.32,-77.12"/>
</g>
<!-- Node7 -->
<g id="node7" class="node">
<title>Node7</title>
<g id="a_node7"><a xlink:title=" ">
<polygon fill="none" stroke="#bfbfbf" points="322,-56.5 322,-75.5 382,-75.5 382,-56.5 322,-56.5"/>
<text text-anchor="middle" x="352" y="-63.5" font-family="Helvetica,sans-Serif" font-size="10.00">iostream</text>
</a>
</g>
</g>
<!-- Node1&#45;&gt;Node7 -->
<g id="edge6" class="edge">
<title>Node1&#45;&gt;Node7</title>
<path fill="none" stroke="midnightblue" d="M379.55,-112.08C374.99,-104.61 368.33,-93.72 362.71,-84.52"/>
<polygon fill="midnightblue" stroke="midnightblue" points="365.55,-82.46 357.35,-75.75 359.58,-86.11 365.55,-82.46"/>
</g>
<!-- Node8 -->
<g id="node8" class="node">
<title>Node8</title>
<g id="a_node8"><a xlink:title=" ">
<polygon fill="none" stroke="#bfbfbf" points="400,-56.5 400,-75.5 438,-75.5 438,-56.5 400,-56.5"/>
<text text-anchor="middle" x="419" y="-63.5" font-family="Helvetica,sans-Serif" font-size="10.00">map</text>
</a>
</g>
</g>
<!-- Node1&#45;&gt;Node8 -->
<g id="edge7" class="edge">
<title>Node1&#45;&gt;Node8</title>
<path fill="none" stroke="midnightblue" d="M390.61,-112.08C395.37,-104.53 402.32,-93.49 408.15,-84.23"/>
<polygon fill="midnightblue" stroke="midnightblue" points="411.12,-86.08 413.49,-75.75 405.2,-82.35 411.12,-86.08"/>
</g>
<!-- Node9 -->
<g id="node9" class="node">
<title>Node9</title>
<g id="a_node9"><a xlink:title=" ">
<polygon fill="none" stroke="#bfbfbf" points="456,-56.5 456,-75.5 512,-75.5 512,-56.5 456,-56.5"/>
<text text-anchor="middle" x="484" y="-63.5" font-family="Helvetica,sans-Serif" font-size="10.00">optional</text>
</a>
</g>
</g>
<!-- Node1&#45;&gt;Node9 -->
<g id="edge8" class="edge">
<title>Node1&#45;&gt;Node9</title>
<path fill="none" stroke="midnightblue" d="M400.91,-112.32C416.64,-103.74 440.94,-90.49 459.21,-80.52"/>
<polygon fill="midnightblue" stroke="midnightblue" points="461.03,-83.52 468.13,-75.65 457.68,-77.37 461.03,-83.52"/>
</g>
<!-- Node10 -->
<g id="node10" class="node">
<title>Node10</title>
<g id="a_node10"><a xlink:title=" ">
<polygon fill="none" stroke="#bfbfbf" points="530,-56.5 530,-75.5 570,-75.5 570,-56.5 530,-56.5"/>
<text text-anchor="middle" x="550" y="-63.5" font-family="Helvetica,sans-Serif" font-size="10.00">span</text>
</a>
</g>
</g>
<!-- Node1&#45;&gt;Node10 -->
<g id="edge9" class="edge">
<title>Node1&#45;&gt;Node10</title>
<path fill="none" stroke="midnightblue" d="M411.14,-112.44C440.7,-102.77 488.74,-87.05 519.85,-76.87"/>
<polygon fill="midnightblue" stroke="midnightblue" points="521.28,-80.08 529.7,-73.64 519.11,-73.43 521.28,-80.08"/>
</g>
<!-- Node11 -->
<g id="node11" class="node">
<title>Node11</title>
<g id="a_node11"><a xlink:title=" ">
<polygon fill="none" stroke="#bfbfbf" points="588,-56.5 588,-75.5 644,-75.5 644,-56.5 588,-56.5"/>
<text text-anchor="middle" x="616" y="-63.5" font-family="Helvetica,sans-Serif" font-size="10.00">sstream</text>
</a>
</g>
</g>
<!-- Node1&#45;&gt;Node11 -->
<g id="edge10" class="edge">
<title>Node1&#45;&gt;Node11</title>
<path fill="none" stroke="midnightblue" d="M422.22,-112.49C459.23,-104 517.91,-90.47 577.73,-76.28"/>
<polygon fill="midnightblue" stroke="midnightblue" points="578.81,-79.63 587.73,-73.91 577.19,-72.82 578.81,-79.63"/>
</g>
<!-- Node12 -->
<g id="node12" class="node">
<title>Node12</title>
<g id="a_node12"><a xlink:title=" ">
<polygon fill="none" stroke="#bfbfbf" points="662.5,-56.5 662.5,-75.5 709.5,-75.5 709.5,-56.5 662.5,-56.5"/>
<text text-anchor="middle" x="686" y="-63.5" font-family="Helvetica,sans-Serif" font-size="10.00">vector</text>
</a>
</g>
</g>
<!-- Node1&#45;&gt;Node12 -->
<g id="edge11" class="edge">
<title>Node1&#45;&gt;Node12</title>
<path fill="none" stroke="midnightblue" d="M439.2,-113.52C491.33,-105.97 572.51,-93.25 652.08,-76.01"/>
<polygon fill="midnightblue" stroke="midnightblue" points="653.26,-79.34 662.28,-73.77 651.76,-72.5 653.26,-79.34"/>
</g>
<!-- Node13 -->
<g id="node13" class="node">
<title>Node13</title>
<g id="a_node13"><a xlink:href="assert_8hpp.html" target="_top" xlink:title=" ">
<polygon fill="none" stroke="black" points="727.5,-56.5 727.5,-75.5 840.5,-75.5 840.5,-56.5 727.5,-56.5"/>
<text text-anchor="middle" x="784" y="-63.5" font-family="Helvetica,sans-Serif" font-size="10.00">common/assert.hpp</text>
</a>
</g>
</g>
<!-- Node1&#45;&gt;Node13 -->
<g id="edge12" class="edge">
<title>Node1&#45;&gt;Node13</title>
<path fill="none" stroke="midnightblue" d="M439.1,-113.77C503.1,-105.21 613.15,-90.44 717.23,-76.24"/>
<polygon fill="midnightblue" stroke="midnightblue" points="717.85,-79.69 727.28,-74.87 716.9,-72.75 717.85,-79.69"/>
</g>
<!-- Node14 -->
<g id="node14" class="node">
<title>Node14</title>
<g id="a_node14"><a xlink:title=" ">
<polygon fill="none" stroke="#bfbfbf" points="762,-0.5 762,-19.5 806,-19.5 806,-0.5 762,-0.5"/>
<text text-anchor="middle" x="784" y="-7.5" font-family="Helvetica,sans-Serif" font-size="10.00">string</text>
</a>
</g>
</g>
<!-- Node13&#45;&gt;Node14 -->
<g id="edge13" class="edge">
<title>Node13&#45;&gt;Node14</title>
<path fill="none" stroke="midnightblue" d="M784,-56.08C784,-49.01 784,-38.86 784,-29.99"/>
<polygon fill="midnightblue" stroke="midnightblue" points="787.5,-29.75 784,-19.75 780.5,-29.75 787.5,-29.75"/>
</g>
</g>
</svg>
