<?xml version="1.0" encoding="UTF-8" standalone="no"?>
<!DOCTYPE svg PUBLIC "-//W3C//DTD SVG 1.1//EN"
 "http://www.w3.org/Graphics/SVG/1.1/DTD/svg11.dtd">
<!-- Generated by graphviz version 2.43.0 (0)
 -->
<!-- Title: binary_model.hpp Pages: 1 -->
<svg width="1598pt" height="364pt"
 viewBox="0.00 0.00 1597.76 364.00" xmlns="http://www.w3.org/2000/svg" xmlns:xlink="http://www.w3.org/1999/xlink">
<g id="graph0" class="graph" transform="scale(1 1) rotate(0) translate(4 360)">
<title>binary_model.hpp</title>
<!-- Node1 -->
<g id="node1" class="node">
<title>Node1</title>
<g id="a_node1"><a xlink:title=" ">
<polygon fill="#bfbfbf" stroke="black" points="773,-336.5 773,-355.5 877,-355.5 877,-336.5 773,-336.5"/>
<text text-anchor="middle" x="825" y="-343.5" font-family="Helvetica,sans-Serif" font-size="10.00">binary_model.hpp</text>
</a>
</g>
</g>
<!-- Node2 -->
<g id="node2" class="node">
<title>Node2</title>
<g id="a_node2"><a xlink:href="encoder_8hpp.html" target="_top" xlink:title=" ">
<polygon fill="none" stroke="black" points="853,-280.5 853,-299.5 945,-299.5 945,-280.5 853,-280.5"/>
<text text-anchor="middle" x="899" y="-287.5" font-family="Helvetica,sans-Serif" font-size="10.00">ktl/encoder.hpp</text>
</a>
</g>
</g>
<!-- Node1&#45;&gt;Node2 -->
<g id="edge1" class="edge">
<title>Node1&#45;&gt;Node2</title>
<path fill="none" stroke="midnightblue" d="M836.89,-336.32C848.15,-328.11 865.29,-315.6 878.71,-305.81"/>
<polygon fill="midnightblue" stroke="midnightblue" points="880.88,-308.56 886.89,-299.83 876.75,-302.9 880.88,-308.56"/>
</g>
<!-- Node14 -->
<g id="node14" class="node">
<title>Node14</title>
<g id="a_node14"><a xlink:href="symbol__stream_8hpp.html" target="_top" xlink:title=" ">
<polygon fill="none" stroke="black" points="834.5,-224.5 834.5,-243.5 963.5,-243.5 963.5,-224.5 834.5,-224.5"/>
<text text-anchor="middle" x="899" y="-231.5" font-family="Helvetica,sans-Serif" font-size="10.00">ktl/symbol_stream.hpp</text>
</a>
</g>
</g>
<!-- Node1&#45;&gt;Node14 -->
<g id="edge54" class="edge">
<title>Node1&#45;&gt;Node14</title>
<path fill="none" stroke="midnightblue" d="M825.88,-336.32C827.57,-323.17 832.19,-297.84 844,-280 852.17,-267.66 864.75,-257.01 875.83,-249.17"/>
<polygon fill="midnightblue" stroke="midnightblue" points="877.91,-251.98 884.27,-243.5 874.01,-246.17 877.91,-251.98"/>
</g>
<!-- Node23 -->
<g id="node23" class="node">
<title>Node23</title>
<g id="a_node23"><a xlink:href="symbol__model_8hpp.html" target="_top" xlink:title=" ">
<polygon fill="none" stroke="black" points="498,-168.5 498,-187.5 662,-187.5 662,-168.5 498,-168.5"/>
<text text-anchor="middle" x="580" y="-175.5" font-family="Helvetica,sans-Serif" font-size="10.00">ktl/models/symbol_model.hpp</text>
</a>
</g>
</g>
<!-- Node1&#45;&gt;Node23 -->
<g id="edge53" class="edge">
<title>Node1&#45;&gt;Node23</title>
<path fill="none" stroke="midnightblue" d="M812.17,-336.31C772.32,-309.3 650.35,-226.67 601.03,-193.25"/>
<polygon fill="midnightblue" stroke="midnightblue" points="602.94,-190.32 592.7,-187.61 599.02,-196.11 602.94,-190.32"/>
</g>
<!-- Node3 -->
<g id="node3" class="node">
<title>Node3</title>
<g id="a_node3"><a xlink:title=" ">
<polygon fill="none" stroke="#bfbfbf" points="1274,-56.5 1274,-75.5 1314,-75.5 1314,-56.5 1274,-56.5"/>
<text text-anchor="middle" x="1294" y="-63.5" font-family="Helvetica,sans-Serif" font-size="10.00">span</text>
</a>
</g>
</g>
<!-- Node2&#45;&gt;Node3 -->
<g id="edge2" class="edge">
<title>Node2&#45;&gt;Node3</title>
<path fill="none" stroke="midnightblue" d="M945.18,-288.98C1045.08,-287.22 1286.62,-273.66 1465,-188 1499.07,-171.64 1513.38,-166.42 1529,-132 1532.67,-123.91 1534.66,-118.85 1529,-112 1503.39,-81.02 1382.2,-71.16 1324.58,-68.2"/>
<polygon fill="midnightblue" stroke="midnightblue" points="1324.43,-64.69 1314.27,-67.71 1324.09,-71.68 1324.43,-64.69"/>
</g>
<!-- Node4 -->
<g id="node4" class="node">
<title>Node4</title>
<g id="a_node4"><a xlink:href="audio__channel_8hpp.html" target="_top" xlink:title=" ">
<polygon fill="none" stroke="black" points="1012,-112.5 1012,-131.5 1166,-131.5 1166,-112.5 1012,-112.5"/>
<text text-anchor="middle" x="1089" y="-119.5" font-family="Helvetica,sans-Serif" font-size="10.00">ktl/audio/audio_channel.hpp</text>
</a>
</g>
</g>
<!-- Node2&#45;&gt;Node4 -->
<g id="edge3" class="edge">
<title>Node2&#45;&gt;Node4</title>
<path fill="none" stroke="midnightblue" d="M931.28,-280.43C972.69,-267.65 1043.38,-239.39 1079,-188 1088.25,-174.66 1090.31,-156.08 1090.31,-142.21"/>
<polygon fill="midnightblue" stroke="midnightblue" points="1093.8,-141.74 1089.94,-131.87 1086.8,-141.99 1093.8,-141.74"/>
</g>
<!-- Node11 -->
<g id="node11" class="node">
<title>Node11</title>
<g id="a_node11"><a xlink:href="kazoo__pcm_8hpp.html" target="_top" xlink:title=" ">
<polygon fill="none" stroke="black" points="190,-112.5 190,-131.5 328,-131.5 328,-112.5 190,-112.5"/>
<text text-anchor="middle" x="259" y="-119.5" font-family="Helvetica,sans-Serif" font-size="10.00">ktl/audio/kazoo_pcm.hpp</text>
</a>
</g>
</g>
<!-- Node2&#45;&gt;Node11 -->
<g id="edge11" class="edge">
<title>Node2&#45;&gt;Node11</title>
<path fill="none" stroke="midnightblue" d="M855.27,-280.46C775.39,-264.55 600.77,-228.29 456,-188 397.71,-171.78 331.09,-148.86 292.18,-135.01"/>
<polygon fill="midnightblue" stroke="midnightblue" points="293.03,-131.6 282.43,-131.53 290.67,-138.19 293.03,-131.6"/>
</g>
<!-- Node12 -->
<g id="node12" class="node">
<title>Node12</title>
<g id="a_node12"><a xlink:href="encoder__context_8hpp.html" target="_top" xlink:title=" ">
<polygon fill="none" stroke="black" points="0,-112.5 0,-131.5 134,-131.5 134,-112.5 0,-112.5"/>
<text text-anchor="middle" x="67" y="-119.5" font-family="Helvetica,sans-Serif" font-size="10.00">ktl/encoder_context.hpp</text>
</a>
</g>
</g>
<!-- Node2&#45;&gt;Node12 -->
<g id="edge14" class="edge">
<title>Node2&#45;&gt;Node12</title>
<path fill="none" stroke="midnightblue" d="M852.96,-283.73C749.93,-271.45 493.32,-238.1 283,-188 218.11,-172.54 143.94,-148.88 101.57,-134.77"/>
<polygon fill="midnightblue" stroke="midnightblue" points="102.61,-131.43 92.01,-131.57 100.38,-138.06 102.61,-131.43"/>
</g>
<!-- Node2&#45;&gt;Node14 -->
<g id="edge16" class="edge">
<title>Node2&#45;&gt;Node14</title>
<path fill="none" stroke="midnightblue" d="M899,-280.08C899,-273.01 899,-262.86 899,-253.99"/>
<polygon fill="midnightblue" stroke="midnightblue" points="902.5,-253.75 899,-243.75 895.5,-253.75 902.5,-253.75"/>
</g>
<!-- Node4&#45;&gt;Node3 -->
<g id="edge7" class="edge">
<title>Node4&#45;&gt;Node3</title>
<path fill="none" stroke="midnightblue" d="M1123.97,-112.44C1159.38,-103.68 1215.65,-89.46 1264,-76 1264.1,-75.97 1264.2,-75.95 1264.3,-75.92"/>
<polygon fill="midnightblue" stroke="midnightblue" points="1265.06,-79.34 1273.7,-73.21 1263.12,-72.61 1265.06,-79.34"/>
</g>
<!-- Node5 -->
<g id="node5" class="node">
<title>Node5</title>
<g id="a_node5"><a xlink:title=" ">
<polygon fill="none" stroke="#bfbfbf" points="858,-56.5 858,-75.5 900,-75.5 900,-56.5 858,-56.5"/>
<text text-anchor="middle" x="879" y="-63.5" font-family="Helvetica,sans-Serif" font-size="10.00">array</text>
</a>
</g>
</g>
<!-- Node4&#45;&gt;Node5 -->
<g id="edge4" class="edge">
<title>Node4&#45;&gt;Node5</title>
<path fill="none" stroke="midnightblue" d="M1055.72,-112.44C1015.7,-102.15 949.04,-85.01 910.04,-74.98"/>
<polygon fill="midnightblue" stroke="midnightblue" points="910.84,-71.57 900.29,-72.47 909.1,-78.35 910.84,-71.57"/>
</g>
<!-- Node6 -->
<g id="node6" class="node">
<title>Node6</title>
<g id="a_node6"><a xlink:title=" ">
<polygon fill="none" stroke="#bfbfbf" points="487,-56.5 487,-75.5 537,-75.5 537,-56.5 487,-56.5"/>
<text text-anchor="middle" x="512" y="-63.5" font-family="Helvetica,sans-Serif" font-size="10.00">cstdint</text>
</a>
</g>
</g>
<!-- Node4&#45;&gt;Node6 -->
<g id="edge5" class="edge">
<title>Node4&#45;&gt;Node6</title>
<path fill="none" stroke="midnightblue" d="M1011.78,-113.77C885.21,-101.93 638.53,-78.84 547.15,-70.29"/>
<polygon fill="midnightblue" stroke="midnightblue" points="547.33,-66.79 537.04,-69.34 546.67,-73.76 547.33,-66.79"/>
</g>
<!-- Node7 -->
<g id="node7" class="node">
<title>Node7</title>
<g id="a_node7"><a xlink:title=" ">
<polygon fill="none" stroke="#bfbfbf" points="1143.5,-56.5 1143.5,-75.5 1190.5,-75.5 1190.5,-56.5 1143.5,-56.5"/>
<text text-anchor="middle" x="1167" y="-63.5" font-family="Helvetica,sans-Serif" font-size="10.00">deque</text>
</a>
</g>
</g>
<!-- Node4&#45;&gt;Node7 -->
<g id="edge6" class="edge">
<title>Node4&#45;&gt;Node7</title>
<path fill="none" stroke="midnightblue" d="M1101.53,-112.32C1113.59,-103.98 1132.03,-91.21 1146.27,-81.35"/>
<polygon fill="midnightblue" stroke="midnightblue" points="1148.27,-84.22 1154.5,-75.65 1144.28,-78.47 1148.27,-84.22"/>
</g>
<!-- Node8 -->
<g id="node8" class="node">
<title>Node8</title>
<g id="a_node8"><a xlink:title=" ">
<polygon fill="none" stroke="#bfbfbf" points="1208.5,-56.5 1208.5,-75.5 1255.5,-75.5 1255.5,-56.5 1208.5,-56.5"/>
<text text-anchor="middle" x="1232" y="-63.5" font-family="Helvetica,sans-Serif" font-size="10.00">vector</text>
</a>
</g>
</g>
<!-- Node4&#45;&gt;Node8 -->
<g id="edge8" class="edge">
<title>Node4&#45;&gt;Node8</title>
<path fill="none" stroke="midnightblue" d="M1111.66,-112.44C1135.4,-103.48 1172.91,-89.31 1199.74,-79.18"/>
<polygon fill="midnightblue" stroke="midnightblue" points="1201.33,-82.32 1209.45,-75.52 1198.86,-75.77 1201.33,-82.32"/>
</g>
<!-- Node9 -->
<g id="node9" class="node">
<title>Node9</title>
<g id="a_node9"><a xlink:href="assert_8hpp.html" target="_top" xlink:title=" ">
<polygon fill="none" stroke="black" points="927.5,-56.5 927.5,-75.5 1040.5,-75.5 1040.5,-56.5 927.5,-56.5"/>
<text text-anchor="middle" x="984" y="-63.5" font-family="Helvetica,sans-Serif" font-size="10.00">common/assert.hpp</text>
</a>
</g>
</g>
<!-- Node4&#45;&gt;Node9 -->
<g id="edge9" class="edge">
<title>Node4&#45;&gt;Node9</title>
<path fill="none" stroke="midnightblue" d="M1072.13,-112.32C1055.29,-103.66 1029.19,-90.24 1009.76,-80.25"/>
<polygon fill="midnightblue" stroke="midnightblue" points="1011.32,-77.12 1000.83,-75.65 1008.12,-83.34 1011.32,-77.12"/>
</g>
<!-- Node10 -->
<g id="node10" class="node">
<title>Node10</title>
<g id="a_node10"><a xlink:title=" ">
<polygon fill="none" stroke="#bfbfbf" points="962,-0.5 962,-19.5 1006,-19.5 1006,-0.5 962,-0.5"/>
<text text-anchor="middle" x="984" y="-7.5" font-family="Helvetica,sans-Serif" font-size="10.00">string</text>
</a>
</g>
</g>
<!-- Node9&#45;&gt;Node10 -->
<g id="edge10" class="edge">
<title>Node9&#45;&gt;Node10</title>
<path fill="none" stroke="midnightblue" d="M984,-56.08C984,-49.01 984,-38.86 984,-29.99"/>
<polygon fill="midnightblue" stroke="midnightblue" points="987.5,-29.75 984,-19.75 980.5,-29.75 987.5,-29.75"/>
</g>
<!-- Node11&#45;&gt;Node5 -->
<g id="edge12" class="edge">
<title>Node11&#45;&gt;Node5</title>
<path fill="none" stroke="midnightblue" d="M328.31,-112.89C331.25,-112.58 334.15,-112.28 337,-112 530.98,-92.76 764.59,-75.29 847.75,-69.24"/>
<polygon fill="midnightblue" stroke="midnightblue" points="848.08,-72.73 857.8,-68.51 847.57,-65.75 848.08,-72.73"/>
</g>
<!-- Node11&#45;&gt;Node6 -->
<g id="edge13" class="edge">
<title>Node11&#45;&gt;Node6</title>
<path fill="none" stroke="midnightblue" d="M299.09,-112.44C348.05,-101.99 430.11,-84.48 476.76,-74.52"/>
<polygon fill="midnightblue" stroke="midnightblue" points="477.66,-77.91 486.71,-72.4 476.19,-71.06 477.66,-77.91"/>
</g>
<!-- Node13 -->
<g id="node13" class="node">
<title>Node13</title>
<g id="a_node13"><a xlink:title=" ">
<polygon fill="none" stroke="#bfbfbf" points="226,-56.5 226,-75.5 282,-75.5 282,-56.5 226,-56.5"/>
<text text-anchor="middle" x="254" y="-63.5" font-family="Helvetica,sans-Serif" font-size="10.00">optional</text>
</a>
</g>
</g>
<!-- Node12&#45;&gt;Node13 -->
<g id="edge15" class="edge">
<title>Node12&#45;&gt;Node13</title>
<path fill="none" stroke="midnightblue" d="M96.63,-112.44C128.88,-103.13 180.53,-88.22 215.8,-78.03"/>
<polygon fill="midnightblue" stroke="midnightblue" points="217.1,-81.3 225.73,-75.16 215.15,-74.57 217.1,-81.3"/>
</g>
<!-- Node14&#45;&gt;Node5 -->
<g id="edge18" class="edge">
<title>Node14&#45;&gt;Node5</title>
<path fill="none" stroke="midnightblue" d="M897.92,-224.08C894.78,-197.95 885.53,-121.21 881.24,-85.58"/>
<polygon fill="midnightblue" stroke="midnightblue" points="884.7,-85.08 880.03,-75.57 877.75,-85.92 884.7,-85.08"/>
</g>
<!-- Node14&#45;&gt;Node6 -->
<g id="edge21" class="edge">
<title>Node14&#45;&gt;Node6</title>
<path fill="none" stroke="midnightblue" d="M834.38,-228.84C665.69,-217.31 222.19,-182.42 181,-132 175.38,-125.12 175.15,-118.7 181,-112 200.26,-89.95 395.09,-74.69 476.52,-69.22"/>
<polygon fill="midnightblue" stroke="midnightblue" points="477.03,-72.7 486.78,-68.55 476.57,-65.71 477.03,-72.7"/>
</g>
<!-- Node14&#45;&gt;Node7 -->
<g id="edge22" class="edge">
<title>Node14&#45;&gt;Node7</title>
<path fill="none" stroke="midnightblue" d="M963.57,-232.29C1103.26,-229.21 1426.21,-213.27 1491,-132 1496.54,-125.05 1496.89,-118.66 1491,-112 1449.55,-65.13 1278.7,-86.8 1200.61,-75.78"/>
<polygon fill="midnightblue" stroke="midnightblue" points="1201.11,-72.32 1190.67,-74.09 1199.94,-79.22 1201.11,-72.32"/>
</g>
<!-- Node14&#45;&gt;Node8 -->
<g id="edge25" class="edge">
<title>Node14&#45;&gt;Node8</title>
<path fill="none" stroke="midnightblue" d="M963.74,-231.52C1084.99,-228.07 1341.6,-217.45 1425,-188 1466.96,-173.18 1487.11,-171.29 1508,-132 1573.32,-9.12 1737.81,-173.33 1265.55,-75.88"/>
<polygon fill="midnightblue" stroke="midnightblue" points="1266.21,-72.44 1255.71,-73.83 1264.79,-79.3 1266.21,-72.44"/>
</g>
<!-- Node15 -->
<g id="node15" class="node">
<title>Node15</title>
<g id="a_node15"><a xlink:title=" ">
<polygon fill="none" stroke="#bfbfbf" points="788,-168.5 788,-187.5 852,-187.5 852,-168.5 788,-168.5"/>
<text text-anchor="middle" x="820" y="-175.5" font-family="Helvetica,sans-Serif" font-size="10.00">algorithm</text>
</a>
</g>
</g>
<!-- Node14&#45;&gt;Node15 -->
<g id="edge17" class="edge">
<title>Node14&#45;&gt;Node15</title>
<path fill="none" stroke="midnightblue" d="M886.31,-224.32C874.1,-215.98 855.42,-203.21 841,-193.35"/>
<polygon fill="midnightblue" stroke="midnightblue" points="842.89,-190.41 832.66,-187.65 838.94,-196.19 842.89,-190.41"/>
</g>
<!-- Node16 -->
<g id="node16" class="node">
<title>Node16</title>
<g id="a_node16"><a xlink:title=" ">
<polygon fill="none" stroke="#bfbfbf" points="1298,-112.5 1298,-131.5 1342,-131.5 1342,-112.5 1298,-112.5"/>
<text text-anchor="middle" x="1320" y="-119.5" font-family="Helvetica,sans-Serif" font-size="10.00">bitset</text>
</a>
</g>
</g>
<!-- Node14&#45;&gt;Node16 -->
<g id="edge19" class="edge">
<title>Node14&#45;&gt;Node16</title>
<path fill="none" stroke="midnightblue" d="M933.89,-224.48C970.19,-215.57 1028.65,-201.08 1079,-188 1154.06,-168.5 1241.96,-144.5 1288.06,-131.82"/>
<polygon fill="midnightblue" stroke="midnightblue" points="1289.06,-135.17 1297.77,-129.14 1287.2,-128.42 1289.06,-135.17"/>
</g>
<!-- Node17 -->
<g id="node17" class="node">
<title>Node17</title>
<g id="a_node17"><a xlink:title=" ">
<polygon fill="none" stroke="#bfbfbf" points="1360.5,-112.5 1360.5,-131.5 1407.5,-131.5 1407.5,-112.5 1360.5,-112.5"/>
<text text-anchor="middle" x="1384" y="-119.5" font-family="Helvetica,sans-Serif" font-size="10.00">cmath</text>
</a>
</g>
</g>
<!-- Node14&#45;&gt;Node17 -->
<g id="edge20" class="edge">
<title>Node14&#45;&gt;Node17</title>
<path fill="none" stroke="midnightblue" d="M946.94,-224.47C993.78,-215.94 1067,-202.11 1130,-188 1225.79,-166.55 1251.43,-158.29 1350.41,-132.13"/>
<polygon fill="midnightblue" stroke="midnightblue" points="1351.44,-135.48 1360.22,-129.54 1349.66,-128.71 1351.44,-135.48"/>
</g>
<!-- Node18 -->
<g id="node18" class="node">
<title>Node18</title>
<g id="a_node18"><a xlink:title=" ">
<polygon fill="none" stroke="#bfbfbf" points="766,-112.5 766,-131.5 804,-131.5 804,-112.5 766,-112.5"/>
<text text-anchor="middle" x="785" y="-119.5" font-family="Helvetica,sans-Serif" font-size="10.00">map</text>
</a>
</g>
</g>
<!-- Node14&#45;&gt;Node18 -->
<g id="edge23" class="edge">
<title>Node14&#45;&gt;Node18</title>
<path fill="none" stroke="midnightblue" d="M895.52,-224.07C889.9,-210.61 877.78,-184.87 861,-168 847.39,-154.31 828.79,-143.21 813.4,-135.45"/>
<polygon fill="midnightblue" stroke="midnightblue" points="814.83,-132.26 804.3,-131.06 811.79,-138.56 814.83,-132.26"/>
</g>
<!-- Node19 -->
<g id="node19" class="node">
<title>Node19</title>
<g id="a_node19"><a xlink:title=" ">
<polygon fill="none" stroke="#bfbfbf" points="1426,-112.5 1426,-131.5 1482,-131.5 1482,-112.5 1426,-112.5"/>
<text text-anchor="middle" x="1454" y="-119.5" font-family="Helvetica,sans-Serif" font-size="10.00">sstream</text>
</a>
</g>
</g>
<!-- Node14&#45;&gt;Node19 -->
<g id="edge24" class="edge">
<title>Node14&#45;&gt;Node19</title>
<path fill="none" stroke="midnightblue" d="M963.61,-224.48C1022.16,-216.39 1110.7,-203.22 1187,-188 1269.24,-171.59 1364.43,-147.07 1416.01,-133.31"/>
<polygon fill="midnightblue" stroke="midnightblue" points="1416.97,-136.68 1425.72,-130.71 1415.16,-129.92 1416.97,-136.68"/>
</g>
<!-- Node20 -->
<g id="node20" class="node">
<title>Node20</title>
<g id="a_node20"><a xlink:href="binary__stream_8hpp.html" target="_top" xlink:title=" ">
<polygon fill="none" stroke="black" points="946,-168.5 946,-187.5 1070,-187.5 1070,-168.5 946,-168.5"/>
<text text-anchor="middle" x="1008" y="-175.5" font-family="Helvetica,sans-Serif" font-size="10.00">ktl/binary_stream.hpp</text>
</a>
</g>
</g>
<!-- Node14&#45;&gt;Node20 -->
<g id="edge26" class="edge">
<title>Node14&#45;&gt;Node20</title>
<path fill="none" stroke="midnightblue" d="M916.51,-224.32C934.07,-215.62 961.33,-202.12 981.53,-192.11"/>
<polygon fill="midnightblue" stroke="midnightblue" points="983.12,-195.23 990.53,-187.65 980.02,-188.96 983.12,-195.23"/>
</g>
<!-- Node22 -->
<g id="node22" class="node">
<title>Node22</title>
<g id="a_node22"><a xlink:href="i__symbol__stream_8hpp.html" target="_top" xlink:title=" ">
<polygon fill="none" stroke="black" points="346.5,-112.5 346.5,-131.5 483.5,-131.5 483.5,-112.5 346.5,-112.5"/>
<text text-anchor="middle" x="415" y="-119.5" font-family="Helvetica,sans-Serif" font-size="10.00">ktl/i_symbol_stream.hpp</text>
</a>
</g>
</g>
<!-- Node14&#45;&gt;Node22 -->
<g id="edge39" class="edge">
<title>Node14&#45;&gt;Node22</title>
<path fill="none" stroke="midnightblue" d="M834.25,-230.63C734.72,-226.19 549.29,-214.56 489,-188 464.18,-177.06 441.71,-154.72 428.2,-139.31"/>
<polygon fill="midnightblue" stroke="midnightblue" points="430.79,-136.96 421.66,-131.58 425.45,-141.47 430.79,-136.96"/>
</g>
<!-- Node14&#45;&gt;Node23 -->
<g id="edge41" class="edge">
<title>Node14&#45;&gt;Node23</title>
<path fill="none" stroke="midnightblue" d="M848.45,-224.44C791.99,-214.89 700.63,-199.42 640.43,-189.23"/>
<polygon fill="midnightblue" stroke="midnightblue" points="640.75,-185.73 630.31,-187.52 639.59,-192.64 640.75,-185.73"/>
</g>
<!-- Node25 -->
<g id="node25" class="node">
<title>Node25</title>
<g id="a_node25"><a xlink:href="symbol_8hpp.html" target="_top" xlink:title=" ">
<polygon fill="none" stroke="black" points="680.5,-168.5 680.5,-187.5 769.5,-187.5 769.5,-168.5 680.5,-168.5"/>
<text text-anchor="middle" x="725" y="-175.5" font-family="Helvetica,sans-Serif" font-size="10.00">ktl/symbol.hpp</text>
</a>
</g>
</g>
<!-- Node14&#45;&gt;Node25 -->
<g id="edge50" class="edge">
<title>Node14&#45;&gt;Node25</title>
<path fill="none" stroke="midnightblue" d="M871.43,-224.44C841.9,-215.28 794.88,-200.69 762.12,-190.52"/>
<polygon fill="midnightblue" stroke="midnightblue" points="763.03,-187.14 752.44,-187.52 760.96,-193.82 763.03,-187.14"/>
</g>
<!-- Node20&#45;&gt;Node3 -->
<g id="edge35" class="edge">
<title>Node20&#45;&gt;Node3</title>
<path fill="none" stroke="midnightblue" d="M1070.05,-171.65C1113.06,-166.06 1170.69,-154.75 1217,-132 1241.64,-119.9 1265.01,-98.2 1279.4,-83.23"/>
<polygon fill="midnightblue" stroke="midnightblue" points="1282.16,-85.4 1286.43,-75.7 1277.05,-80.63 1282.16,-85.4"/>
</g>
<!-- Node20&#45;&gt;Node5 -->
<g id="edge27" class="edge">
<title>Node20&#45;&gt;Node5</title>
<path fill="none" stroke="midnightblue" d="M997.88,-168.37C976.02,-149.73 924.19,-105.53 896.75,-82.13"/>
<polygon fill="midnightblue" stroke="midnightblue" points="898.96,-79.42 889.08,-75.59 894.41,-84.74 898.96,-79.42"/>
</g>
<!-- Node20&#45;&gt;Node6 -->
<g id="edge30" class="edge">
<title>Node20&#45;&gt;Node6</title>
<path fill="none" stroke="midnightblue" d="M990.51,-168.3C961.33,-154.17 900.5,-126.37 846,-112 739.52,-83.93 609.09,-72.81 547.47,-68.89"/>
<polygon fill="midnightblue" stroke="midnightblue" points="547.33,-65.38 537.13,-68.26 546.9,-72.36 547.33,-65.38"/>
</g>
<!-- Node20&#45;&gt;Node7 -->
<g id="edge31" class="edge">
<title>Node20&#45;&gt;Node7</title>
<path fill="none" stroke="midnightblue" d="M1068.82,-168.47C1111.01,-161.17 1161.9,-149.1 1175,-132 1185.24,-118.64 1180.96,-98.99 1175.53,-84.79"/>
<polygon fill="midnightblue" stroke="midnightblue" points="1178.73,-83.39 1171.56,-75.59 1172.31,-86.16 1178.73,-83.39"/>
</g>
<!-- Node20&#45;&gt;Node8 -->
<g id="edge37" class="edge">
<title>Node20&#45;&gt;Node8</title>
<path fill="none" stroke="midnightblue" d="M1070.13,-173.92C1108.68,-169.27 1157.46,-158.16 1193,-132 1208.86,-120.32 1219.51,-100.08 1225.61,-85.28"/>
<polygon fill="midnightblue" stroke="midnightblue" points="1228.99,-86.26 1229.27,-75.67 1222.44,-83.77 1228.99,-86.26"/>
</g>
<!-- Node20&#45;&gt;Node9 -->
<g id="edge38" class="edge">
<title>Node20&#45;&gt;Node9</title>
<path fill="none" stroke="midnightblue" d="M1006.12,-168.37C1002.24,-150.62 993.31,-109.67 988.06,-85.6"/>
<polygon fill="midnightblue" stroke="midnightblue" points="991.43,-84.62 985.87,-75.59 984.59,-86.11 991.43,-84.62"/>
</g>
<!-- Node20&#45;&gt;Node13 -->
<g id="edge34" class="edge">
<title>Node20&#45;&gt;Node13</title>
<path fill="none" stroke="midnightblue" d="M964.96,-168.43C931.66,-161 884.85,-148.79 846,-132 830.26,-125.2 829.32,-117.27 813,-112 763.71,-96.07 410.02,-75.52 292.13,-69.05"/>
<polygon fill="midnightblue" stroke="midnightblue" points="292.29,-65.55 282.11,-68.5 291.91,-72.54 292.29,-65.55"/>
</g>
<!-- Node20&#45;&gt;Node16 -->
<g id="edge28" class="edge">
<title>Node20&#45;&gt;Node16</title>
<path fill="none" stroke="midnightblue" d="M1069.38,-168.49C1125.49,-160.36 1210.65,-147.12 1284,-132 1285.28,-131.74 1286.58,-131.46 1287.89,-131.17"/>
<polygon fill="midnightblue" stroke="midnightblue" points="1289.04,-134.5 1297.98,-128.81 1287.45,-127.68 1289.04,-134.5"/>
</g>
<!-- Node20&#45;&gt;Node17 -->
<g id="edge29" class="edge">
<title>Node20&#45;&gt;Node17</title>
<path fill="none" stroke="midnightblue" d="M1070.07,-171.42C1136.94,-164.83 1246.58,-152.37 1350.28,-131.88"/>
<polygon fill="midnightblue" stroke="midnightblue" points="1351.18,-135.27 1360.3,-129.88 1349.81,-128.41 1351.18,-135.27"/>
</g>
<!-- Node20&#45;&gt;Node18 -->
<g id="edge33" class="edge">
<title>Node20&#45;&gt;Node18</title>
<path fill="none" stroke="midnightblue" d="M970.42,-168.49C932.02,-159.71 870.72,-145.43 818,-132 816.74,-131.68 815.45,-131.35 814.15,-131.01"/>
<polygon fill="midnightblue" stroke="midnightblue" points="814.73,-127.54 804.17,-128.34 812.93,-134.3 814.73,-127.54"/>
</g>
<!-- Node20&#45;&gt;Node19 -->
<g id="edge36" class="edge">
<title>Node20&#45;&gt;Node19</title>
<path fill="none" stroke="midnightblue" d="M1070.2,-172.53C1150.49,-166.21 1294.34,-153.03 1416,-132 1416.1,-131.98 1416.2,-131.97 1416.3,-131.95"/>
<polygon fill="midnightblue" stroke="midnightblue" points="1416.72,-135.43 1425.86,-130.07 1415.37,-128.56 1416.72,-135.43"/>
</g>
<!-- Node21 -->
<g id="node21" class="node">
<title>Node21</title>
<g id="a_node21"><a xlink:title=" ">
<polygon fill="none" stroke="#bfbfbf" points="650,-112.5 650,-131.5 710,-131.5 710,-112.5 650,-112.5"/>
<text text-anchor="middle" x="680" y="-119.5" font-family="Helvetica,sans-Serif" font-size="10.00">iostream</text>
</a>
</g>
</g>
<!-- Node20&#45;&gt;Node21 -->
<g id="edge32" class="edge">
<title>Node20&#45;&gt;Node21</title>
<path fill="none" stroke="midnightblue" d="M956.03,-168.44C890.59,-157.67 779.57,-139.39 720.23,-129.62"/>
<polygon fill="midnightblue" stroke="midnightblue" points="720.56,-126.13 710.12,-127.96 719.42,-133.04 720.56,-126.13"/>
</g>
<!-- Node22&#45;&gt;Node6 -->
<g id="edge40" class="edge">
<title>Node22&#45;&gt;Node6</title>
<path fill="none" stroke="midnightblue" d="M430.58,-112.32C446,-103.74 469.81,-90.49 487.71,-80.52"/>
<polygon fill="midnightblue" stroke="midnightblue" points="489.42,-83.58 496.45,-75.65 486.01,-77.46 489.42,-83.58"/>
</g>
<!-- Node23&#45;&gt;Node4 -->
<g id="edge47" class="edge">
<title>Node23&#45;&gt;Node4</title>
<path fill="none" stroke="midnightblue" d="M660.37,-168.47C753.45,-158.6 906.22,-142.39 1002.01,-132.23"/>
<polygon fill="midnightblue" stroke="midnightblue" points="1002.39,-135.71 1011.97,-131.17 1001.65,-128.75 1002.39,-135.71"/>
</g>
<!-- Node23&#45;&gt;Node6 -->
<g id="edge43" class="edge">
<title>Node23&#45;&gt;Node6</title>
<path fill="none" stroke="midnightblue" d="M567.33,-168.46C556.21,-160.32 540.39,-147.11 531,-132 522.17,-117.8 517.29,-99.32 514.69,-85.7"/>
<polygon fill="midnightblue" stroke="midnightblue" points="518.11,-84.89 513.01,-75.6 511.2,-86.04 518.11,-84.89"/>
</g>
<!-- Node23&#45;&gt;Node9 -->
<g id="edge46" class="edge">
<title>Node23&#45;&gt;Node9</title>
<path fill="none" stroke="midnightblue" d="M585.15,-168.49C594.35,-154.11 615.11,-125.27 641,-112 647.11,-108.87 819.35,-87.27 917.37,-75.17"/>
<polygon fill="midnightblue" stroke="midnightblue" points="918,-78.62 927.49,-73.92 917.14,-71.67 918,-78.62"/>
</g>
<!-- Node23&#45;&gt;Node12 -->
<g id="edge48" class="edge">
<title>Node23&#45;&gt;Node12</title>
<path fill="none" stroke="midnightblue" d="M499,-168.47C401.74,-158.24 239.83,-141.19 144.27,-131.13"/>
<polygon fill="midnightblue" stroke="midnightblue" points="144.4,-127.63 134.09,-130.06 143.67,-134.59 144.4,-127.63"/>
</g>
<!-- Node23&#45;&gt;Node18 -->
<g id="edge45" class="edge">
<title>Node23&#45;&gt;Node18</title>
<path fill="none" stroke="midnightblue" d="M612.48,-168.44C652.01,-158.03 718.14,-140.61 756.01,-130.64"/>
<polygon fill="midnightblue" stroke="midnightblue" points="757.12,-133.96 765.9,-128.03 755.34,-127.19 757.12,-133.96"/>
</g>
<!-- Node23&#45;&gt;Node21 -->
<g id="edge44" class="edge">
<title>Node23&#45;&gt;Node21</title>
<path fill="none" stroke="midnightblue" d="M596.07,-168.32C611.96,-159.74 636.51,-146.49 654.96,-136.52"/>
<polygon fill="midnightblue" stroke="midnightblue" points="656.84,-139.49 663.97,-131.65 653.51,-133.33 656.84,-139.49"/>
</g>
<!-- Node23&#45;&gt;Node22 -->
<g id="edge49" class="edge">
<title>Node23&#45;&gt;Node22</title>
<path fill="none" stroke="midnightblue" d="M553.86,-168.44C525.98,-159.32 481.65,-144.81 450.6,-134.65"/>
<polygon fill="midnightblue" stroke="midnightblue" points="451.62,-131.3 441.02,-131.52 449.44,-137.95 451.62,-131.3"/>
</g>
<!-- Node24 -->
<g id="node24" class="node">
<title>Node24</title>
<g id="a_node24"><a xlink:title=" ">
<polygon fill="none" stroke="#bfbfbf" points="540.5,-112.5 540.5,-131.5 593.5,-131.5 593.5,-112.5 540.5,-112.5"/>
<text text-anchor="middle" x="567" y="-119.5" font-family="Helvetica,sans-Serif" font-size="10.00">cstddef</text>
</a>
</g>
</g>
<!-- Node23&#45;&gt;Node24 -->
<g id="edge42" class="edge">
<title>Node23&#45;&gt;Node24</title>
<path fill="none" stroke="midnightblue" d="M577.85,-168.08C576.13,-160.93 573.65,-150.64 571.5,-141.69"/>
<polygon fill="midnightblue" stroke="midnightblue" points="574.85,-140.65 569.11,-131.75 568.04,-142.29 574.85,-140.65"/>
</g>
<!-- Node25&#45;&gt;Node6 -->
<g id="edge51" class="edge">
<title>Node25&#45;&gt;Node6</title>
<path fill="none" stroke="midnightblue" d="M727.12,-168.17C729.87,-154.36 732.82,-127.62 719,-112 696.67,-86.76 600.21,-74.59 547.21,-69.72"/>
<polygon fill="midnightblue" stroke="midnightblue" points="547.5,-66.23 537.23,-68.84 546.88,-73.2 547.5,-66.23"/>
</g>
<!-- Node25&#45;&gt;Node18 -->
<g id="edge52" class="edge">
<title>Node25&#45;&gt;Node18</title>
<path fill="none" stroke="midnightblue" d="M734.64,-168.32C743.51,-160.34 756.87,-148.31 767.61,-138.65"/>
<polygon fill="midnightblue" stroke="midnightblue" points="770.09,-141.13 775.18,-131.83 765.41,-135.92 770.09,-141.13"/>
</g>
</g>
</svg>
