<?xml version="1.0" encoding="UTF-8" standalone="no"?>
<!DOCTYPE svg PUBLIC "-//W3C//DTD SVG 1.1//EN"
 "http://www.w3.org/Graphics/SVG/1.1/DTD/svg11.dtd">
<!-- Generated by graphviz version 2.43.0 (0)
 -->
<!-- Title: binary_model.hpp Pages: 1 -->
<svg width="530pt" height="140pt"
 viewBox="0.00 0.00 529.50 140.00" xmlns="http://www.w3.org/2000/svg" xmlns:xlink="http://www.w3.org/1999/xlink">
<g id="graph0" class="graph" transform="scale(1 1) rotate(0) translate(4 136)">
<title>binary_model.hpp</title>
<!-- Node1 -->
<g id="node1" class="node">
<title>Node1</title>
<g id="a_node1"><a xlink:title=" ">
<polygon fill="#bfbfbf" stroke="black" points="101.5,-112.5 101.5,-131.5 205.5,-131.5 205.5,-112.5 101.5,-112.5"/>
<text text-anchor="middle" x="153.5" y="-119.5" font-family="Helvetica,sans-Serif" font-size="10.00">binary_model.hpp</text>
</a>
</g>
</g>
<!-- Node2 -->
<g id="node2" class="node">
<title>Node2</title>
<g id="a_node2"><a xlink:href="binary__model_8test_8cpp.html" target="_top" xlink:title=" ">
<polygon fill="none" stroke="black" points="0,-56.5 0,-75.5 125,-75.5 125,-56.5 0,-56.5"/>
<text text-anchor="middle" x="62.5" y="-63.5" font-family="Helvetica,sans-Serif" font-size="10.00">binary_model.test.cpp</text>
</a>
</g>
</g>
<!-- Node1&#45;&gt;Node2 -->
<g id="edge1" class="edge">
<title>Node1&#45;&gt;Node2</title>
<path fill="none" stroke="midnightblue" d="M130.21,-107.18C113.46,-97.24 91.4,-84.15 77.08,-75.65"/>
<polygon fill="midnightblue" stroke="midnightblue" points="128.49,-110.23 138.88,-112.32 132.07,-104.21 128.49,-110.23"/>
</g>
<!-- Node3 -->
<g id="node3" class="node">
<title>Node3</title>
<g id="a_node3"><a xlink:href="translation__layer_8cpp.html" target="_top" xlink:title=" ">
<polygon fill="none" stroke="black" points="84,-0.5 84,-19.5 203,-19.5 203,-0.5 84,-0.5"/>
<text text-anchor="middle" x="143.5" y="-7.5" font-family="Helvetica,sans-Serif" font-size="10.00">translation_layer.cpp</text>
</a>
</g>
</g>
<!-- Node1&#45;&gt;Node3 -->
<g id="edge2" class="edge">
<title>Node1&#45;&gt;Node3</title>
<path fill="none" stroke="midnightblue" d="M151.8,-102.35C149.61,-78.25 145.89,-37.31 144.28,-19.59"/>
<polygon fill="midnightblue" stroke="midnightblue" points="148.32,-102.73 152.72,-112.37 155.3,-102.09 148.32,-102.73"/>
</g>
<!-- Node4 -->
<g id="node4" class="node">
<title>Node4</title>
<g id="a_node4"><a xlink:href="translation__layer_8hpp.html" target="_top" xlink:title=" ">
<polygon fill="none" stroke="black" points="193,-56.5 193,-75.5 312,-75.5 312,-56.5 193,-56.5"/>
<text text-anchor="middle" x="252.5" y="-63.5" font-family="Helvetica,sans-Serif" font-size="10.00">translation_layer.hpp</text>
</a>
</g>
</g>
<!-- Node1&#45;&gt;Node4 -->
<g id="edge3" class="edge">
<title>Node1&#45;&gt;Node4</title>
<path fill="none" stroke="midnightblue" d="M178.34,-107.45C196.61,-97.48 220.92,-84.23 236.63,-75.65"/>
<polygon fill="midnightblue" stroke="midnightblue" points="176.51,-104.46 169.41,-112.32 179.86,-110.61 176.51,-104.46"/>
</g>
<!-- Node4&#45;&gt;Node3 -->
<g id="edge6" class="edge">
<title>Node4&#45;&gt;Node3</title>
<path fill="none" stroke="midnightblue" d="M225.98,-51.86C205.77,-41.85 178.51,-28.35 160.97,-19.65"/>
<polygon fill="midnightblue" stroke="midnightblue" points="224.47,-55.02 234.99,-56.32 227.58,-48.75 224.47,-55.02"/>
</g>
<!-- Node5 -->
<g id="node5" class="node">
<title>Node5</title>
<g id="a_node5"><a xlink:href="src_2kazoo__connect__server_2main_8cpp.html" target="_top" xlink:title=" ">
<polygon fill="none" stroke="black" points="221.5,-0.5 221.5,-19.5 283.5,-19.5 283.5,-0.5 221.5,-0.5"/>
<text text-anchor="middle" x="252.5" y="-7.5" font-family="Helvetica,sans-Serif" font-size="10.00">main.cpp</text>
</a>
</g>
</g>
<!-- Node4&#45;&gt;Node5 -->
<g id="edge4" class="edge">
<title>Node4&#45;&gt;Node5</title>
<path fill="none" stroke="midnightblue" d="M252.5,-45.8C252.5,-36.91 252.5,-26.78 252.5,-19.75"/>
<polygon fill="midnightblue" stroke="midnightblue" points="249,-46.08 252.5,-56.08 256,-46.08 249,-46.08"/>
</g>
<!-- Node6 -->
<g id="node6" class="node">
<title>Node6</title>
<g id="a_node6"><a xlink:href="src_2main_8cpp.html" target="_top" xlink:title=" ">
<polygon fill="none" stroke="black" points="301.5,-0.5 301.5,-19.5 363.5,-19.5 363.5,-0.5 301.5,-0.5"/>
<text text-anchor="middle" x="332.5" y="-7.5" font-family="Helvetica,sans-Serif" font-size="10.00">main.cpp</text>
</a>
</g>
</g>
<!-- Node4&#45;&gt;Node6 -->
<g id="edge5" class="edge">
<title>Node4&#45;&gt;Node6</title>
<path fill="none" stroke="midnightblue" d="M273.8,-50.62C288.42,-40.76 307.33,-27.99 319.68,-19.65"/>
<polygon fill="midnightblue" stroke="midnightblue" points="271.68,-47.83 265.35,-56.32 275.6,-53.63 271.68,-47.83"/>
</g>
<!-- Node7 -->
<g id="node7" class="node">
<title>Node7</title>
<g id="a_node7"><a xlink:href="translation__layer_8test_8cpp.html" target="_top" xlink:title=" ">
<polygon fill="none" stroke="black" points="381.5,-0.5 381.5,-19.5 521.5,-19.5 521.5,-0.5 381.5,-0.5"/>
<text text-anchor="middle" x="451.5" y="-7.5" font-family="Helvetica,sans-Serif" font-size="10.00">translation_layer.test.cpp</text>
</a>
</g>
</g>
<!-- Node4&#45;&gt;Node7 -->
<g id="edge7" class="edge">
<title>Node4&#45;&gt;Node7</title>
<path fill="none" stroke="midnightblue" d="M294.15,-53.7C331.71,-43.51 386.11,-28.74 420.12,-19.52"/>
<polygon fill="midnightblue" stroke="midnightblue" points="292.77,-50.45 284.03,-56.44 294.6,-57.2 292.77,-50.45"/>
</g>
</g>
</svg>
