<?xml version="1.0" encoding="UTF-8" standalone="no"?>
<!DOCTYPE svg PUBLIC "-//W3C//DTD SVG 1.1//EN"
 "http://www.w3.org/Graphics/SVG/1.1/DTD/svg11.dtd">
<!-- Generated by graphviz version 2.43.0 (0)
 -->
<!-- Title: binary_stream.hpp Pages: 1 -->
<svg width="1555pt" height="308pt"
 viewBox="0.00 0.00 1554.64 308.00" xmlns="http://www.w3.org/2000/svg" xmlns:xlink="http://www.w3.org/1999/xlink">
<g id="graph0" class="graph" transform="scale(1 1) rotate(0) translate(4 304)">
<title>binary_stream.hpp</title>
<!-- Node1 -->
<g id="node1" class="node">
<title>Node1</title>
<g id="a_node1"><a xlink:title=" ">
<polygon fill="#bfbfbf" stroke="black" points="367.5,-280.5 367.5,-299.5 475.5,-299.5 475.5,-280.5 367.5,-280.5"/>
<text text-anchor="middle" x="421.5" y="-287.5" font-family="Helvetica,sans-Serif" font-size="10.00">binary_stream.hpp</text>
</a>
</g>
</g>
<!-- Node2 -->
<g id="node2" class="node">
<title>Node2</title>
<g id="a_node2"><a xlink:href="binary__stream_8cpp.html" target="_top" xlink:title=" ">
<polygon fill="none" stroke="black" points="0,-224.5 0,-243.5 107,-243.5 107,-224.5 0,-224.5"/>
<text text-anchor="middle" x="53.5" y="-231.5" font-family="Helvetica,sans-Serif" font-size="10.00">binary_stream.cpp</text>
</a>
</g>
</g>
<!-- Node1&#45;&gt;Node2 -->
<g id="edge1" class="edge">
<title>Node1&#45;&gt;Node2</title>
<path fill="none" stroke="midnightblue" d="M357.05,-279.54C286.13,-269.14 173.41,-252.6 107.12,-242.87"/>
<polygon fill="midnightblue" stroke="midnightblue" points="356.8,-283.04 367.2,-281.03 357.81,-276.12 356.8,-283.04"/>
</g>
<!-- Node3 -->
<g id="node3" class="node">
<title>Node3</title>
<g id="a_node3"><a xlink:href="binary__stream_8test_8cpp.html" target="_top" xlink:title=" ">
<polygon fill="none" stroke="black" points="125,-224.5 125,-243.5 254,-243.5 254,-224.5 125,-224.5"/>
<text text-anchor="middle" x="189.5" y="-231.5" font-family="Helvetica,sans-Serif" font-size="10.00">binary_stream.test.cpp</text>
</a>
</g>
</g>
<!-- Node1&#45;&gt;Node3 -->
<g id="edge2" class="edge">
<title>Node1&#45;&gt;Node3</title>
<path fill="none" stroke="midnightblue" d="M374.9,-278.15C331.06,-267.95 266.32,-252.88 226.09,-243.52"/>
<polygon fill="midnightblue" stroke="midnightblue" points="374.21,-281.59 384.74,-280.44 375.79,-274.77 374.21,-281.59"/>
</g>
<!-- Node4 -->
<g id="node4" class="node">
<title>Node4</title>
<g id="a_node4"><a xlink:href="deframer_8hpp.html" target="_top" xlink:title=" ">
<polygon fill="none" stroke="black" points="380.5,-224.5 380.5,-243.5 462.5,-243.5 462.5,-224.5 380.5,-224.5"/>
<text text-anchor="middle" x="421.5" y="-231.5" font-family="Helvetica,sans-Serif" font-size="10.00">deframer.hpp</text>
</a>
</g>
</g>
<!-- Node1&#45;&gt;Node4 -->
<g id="edge3" class="edge">
<title>Node1&#45;&gt;Node4</title>
<path fill="none" stroke="midnightblue" d="M421.5,-269.8C421.5,-260.91 421.5,-250.78 421.5,-243.75"/>
<polygon fill="midnightblue" stroke="midnightblue" points="418,-270.08 421.5,-280.08 425,-270.08 418,-270.08"/>
</g>
<!-- Node6 -->
<g id="node6" class="node">
<title>Node6</title>
<g id="a_node6"><a xlink:href="translation__layer_8hpp.html" target="_top" xlink:title=" ">
<polygon fill="none" stroke="black" points="353,-56.5 353,-75.5 472,-75.5 472,-56.5 353,-56.5"/>
<text text-anchor="middle" x="412.5" y="-63.5" font-family="Helvetica,sans-Serif" font-size="10.00">translation_layer.hpp</text>
</a>
</g>
</g>
<!-- Node1&#45;&gt;Node6 -->
<g id="edge51" class="edge">
<title>Node1&#45;&gt;Node6</title>
<path fill="none" stroke="midnightblue" d="M394.74,-275.47C365.84,-259.18 321.4,-228.83 302.5,-188 279.13,-137.5 356.02,-93.4 393.35,-75.5"/>
<polygon fill="midnightblue" stroke="midnightblue" points="393.07,-278.55 403.53,-280.26 396.42,-272.4 393.07,-278.55"/>
</g>
<!-- Node9 -->
<g id="node9" class="node">
<title>Node9</title>
<g id="a_node9"><a xlink:href="translation__layer_8cpp.html" target="_top" xlink:title=" ">
<polygon fill="none" stroke="black" points="663,-0.5 663,-19.5 782,-19.5 782,-0.5 663,-0.5"/>
<text text-anchor="middle" x="722.5" y="-7.5" font-family="Helvetica,sans-Serif" font-size="10.00">translation_layer.cpp</text>
</a>
</g>
</g>
<!-- Node1&#45;&gt;Node9 -->
<g id="edge50" class="edge">
<title>Node1&#45;&gt;Node9</title>
<path fill="none" stroke="midnightblue" d="M485.97,-289.5C724.82,-290.52 1545.5,-286.23 1545.5,-179 1545.5,-179 1545.5,-179 1545.5,-121 1545.5,-90.9 1550.07,-74.72 1526.5,-56 1468.65,-10.06 958.2,-9.3 782,-10.44"/>
<polygon fill="midnightblue" stroke="midnightblue" points="485.73,-286 475.71,-289.45 485.7,-293 485.73,-286"/>
</g>
<!-- Node11 -->
<g id="node11" class="node">
<title>Node11</title>
<g id="a_node11"><a xlink:href="symbol__stream_8hpp.html" target="_top" xlink:title=" ">
<polygon fill="none" stroke="black" points="684,-224.5 684,-243.5 797,-243.5 797,-224.5 684,-224.5"/>
<text text-anchor="middle" x="740.5" y="-231.5" font-family="Helvetica,sans-Serif" font-size="10.00">symbol_stream.hpp</text>
</a>
</g>
</g>
<!-- Node1&#45;&gt;Node11 -->
<g id="edge10" class="edge">
<title>Node1&#45;&gt;Node11</title>
<path fill="none" stroke="midnightblue" d="M482.18,-278.73C542.47,-268.52 633.82,-253.06 690.19,-243.52"/>
<polygon fill="midnightblue" stroke="midnightblue" points="481.32,-275.32 472.05,-280.44 482.49,-282.23 481.32,-275.32"/>
</g>
<!-- Node27 -->
<g id="node27" class="node">
<title>Node27</title>
<g id="a_node27"><a xlink:href="symbol__stream_8test_8cpp.html" target="_top" xlink:title=" ">
<polygon fill="none" stroke="black" points="938.5,-168.5 938.5,-187.5 1072.5,-187.5 1072.5,-168.5 938.5,-168.5"/>
<text text-anchor="middle" x="1005.5" y="-175.5" font-family="Helvetica,sans-Serif" font-size="10.00">symbol_stream.test.cpp</text>
</a>
</g>
</g>
<!-- Node1&#45;&gt;Node27 -->
<g id="edge49" class="edge">
<title>Node1&#45;&gt;Node27</title>
<path fill="none" stroke="midnightblue" d="M485.65,-285.42C562.59,-280.24 695.16,-268.44 806.5,-244 872.71,-229.47 948.06,-201.61 984.1,-187.56"/>
<polygon fill="midnightblue" stroke="midnightblue" points="485.37,-281.93 475.62,-286.08 485.83,-288.92 485.37,-281.93"/>
</g>
<!-- Node5 -->
<g id="node5" class="node">
<title>Node5</title>
<g id="a_node5"><a xlink:href="deframer_8test_8cpp.html" target="_top" xlink:title=" ">
<polygon fill="none" stroke="black" points="311,-168.5 311,-187.5 414,-187.5 414,-168.5 311,-168.5"/>
<text text-anchor="middle" x="362.5" y="-175.5" font-family="Helvetica,sans-Serif" font-size="10.00">deframer.test.cpp</text>
</a>
</g>
</g>
<!-- Node4&#45;&gt;Node5 -->
<g id="edge4" class="edge">
<title>Node4&#45;&gt;Node5</title>
<path fill="none" stroke="midnightblue" d="M404.61,-217.54C394.09,-207.91 380.93,-195.87 372.15,-187.83"/>
<polygon fill="midnightblue" stroke="midnightblue" points="402.28,-220.15 412.02,-224.32 407.01,-214.99 402.28,-220.15"/>
</g>
<!-- Node4&#45;&gt;Node6 -->
<g id="edge5" class="edge">
<title>Node4&#45;&gt;Node6</title>
<path fill="none" stroke="midnightblue" d="M422.52,-214.2C422.91,-206.14 423.31,-196.61 423.5,-188 423.7,-179.11 423.98,-176.88 423.5,-168 421.64,-133.66 416.23,-93.03 413.76,-75.62"/>
<polygon fill="midnightblue" stroke="midnightblue" points="419.02,-214.21 422,-224.38 426.01,-214.57 419.02,-214.21"/>
</g>
<!-- Node7 -->
<g id="node7" class="node">
<title>Node7</title>
<g id="a_node7"><a xlink:href="src_2kazoo__connect__server_2main_8cpp.html" target="_top" xlink:title=" ">
<polygon fill="none" stroke="black" points="381.5,-0.5 381.5,-19.5 443.5,-19.5 443.5,-0.5 381.5,-0.5"/>
<text text-anchor="middle" x="412.5" y="-7.5" font-family="Helvetica,sans-Serif" font-size="10.00">main.cpp</text>
</a>
</g>
</g>
<!-- Node6&#45;&gt;Node7 -->
<g id="edge6" class="edge">
<title>Node6&#45;&gt;Node7</title>
<path fill="none" stroke="midnightblue" d="M412.5,-45.8C412.5,-36.91 412.5,-26.78 412.5,-19.75"/>
<polygon fill="midnightblue" stroke="midnightblue" points="409,-46.08 412.5,-56.08 416,-46.08 409,-46.08"/>
</g>
<!-- Node8 -->
<g id="node8" class="node">
<title>Node8</title>
<g id="a_node8"><a xlink:href="src_2main_8cpp.html" target="_top" xlink:title=" ">
<polygon fill="none" stroke="black" points="461.5,-0.5 461.5,-19.5 523.5,-19.5 523.5,-0.5 461.5,-0.5"/>
<text text-anchor="middle" x="492.5" y="-7.5" font-family="Helvetica,sans-Serif" font-size="10.00">main.cpp</text>
</a>
</g>
</g>
<!-- Node6&#45;&gt;Node8 -->
<g id="edge7" class="edge">
<title>Node6&#45;&gt;Node8</title>
<path fill="none" stroke="midnightblue" d="M433.8,-50.62C448.42,-40.76 467.33,-27.99 479.68,-19.65"/>
<polygon fill="midnightblue" stroke="midnightblue" points="431.68,-47.83 425.35,-56.32 435.6,-53.63 431.68,-47.83"/>
</g>
<!-- Node6&#45;&gt;Node9 -->
<g id="edge8" class="edge">
<title>Node6&#45;&gt;Node9</title>
<path fill="none" stroke="midnightblue" d="M471.84,-54.66C530.42,-44.46 618.95,-29.04 673.61,-19.52"/>
<polygon fill="midnightblue" stroke="midnightblue" points="470.87,-51.28 461.62,-56.44 472.07,-58.18 470.87,-51.28"/>
</g>
<!-- Node10 -->
<g id="node10" class="node">
<title>Node10</title>
<g id="a_node10"><a xlink:href="translation__layer_8test_8cpp.html" target="_top" xlink:title=" ">
<polygon fill="none" stroke="black" points="223.5,-0.5 223.5,-19.5 363.5,-19.5 363.5,-0.5 223.5,-0.5"/>
<text text-anchor="middle" x="293.5" y="-7.5" font-family="Helvetica,sans-Serif" font-size="10.00">translation_layer.test.cpp</text>
</a>
</g>
</g>
<!-- Node6&#45;&gt;Node10 -->
<g id="edge9" class="edge">
<title>Node6&#45;&gt;Node10</title>
<path fill="none" stroke="midnightblue" d="M384.36,-52.23C362.1,-42.13 331.64,-28.31 312.27,-19.52"/>
<polygon fill="midnightblue" stroke="midnightblue" points="383.09,-55.5 393.64,-56.44 385.98,-49.12 383.09,-55.5"/>
</g>
<!-- Node12 -->
<g id="node12" class="node">
<title>Node12</title>
<g id="a_node12"><a xlink:href="binary__model_8hpp.html" target="_top" xlink:title=" ">
<polygon fill="none" stroke="black" points="444.5,-112.5 444.5,-131.5 548.5,-131.5 548.5,-112.5 444.5,-112.5"/>
<text text-anchor="middle" x="496.5" y="-119.5" font-family="Helvetica,sans-Serif" font-size="10.00">binary_model.hpp</text>
</a>
</g>
</g>
<!-- Node11&#45;&gt;Node12 -->
<g id="edge11" class="edge">
<title>Node11&#45;&gt;Node12</title>
<path fill="none" stroke="midnightblue" d="M712.03,-220.16C661.68,-197.47 558.23,-150.83 515.56,-131.59"/>
<polygon fill="midnightblue" stroke="midnightblue" points="710.8,-223.45 721.35,-224.37 713.68,-217.07 710.8,-223.45"/>
</g>
<!-- Node13 -->
<g id="node13" class="node">
<title>Node13</title>
<g id="a_node13"><a xlink:href="binary__model_8test_8cpp.html" target="_top" xlink:title=" ">
<polygon fill="none" stroke="black" points="210,-56.5 210,-75.5 335,-75.5 335,-56.5 210,-56.5"/>
<text text-anchor="middle" x="272.5" y="-63.5" font-family="Helvetica,sans-Serif" font-size="10.00">binary_model.test.cpp</text>
</a>
</g>
</g>
<!-- Node11&#45;&gt;Node13 -->
<g id="edge15" class="edge">
<title>Node11&#45;&gt;Node13</title>
<path fill="none" stroke="midnightblue" d="M701.23,-221.61C671.31,-212.8 629.16,-200.1 592.5,-188 522.15,-164.77 504.81,-158.17 435.5,-132 384.05,-112.58 324.12,-88.23 293.25,-75.56"/>
<polygon fill="midnightblue" stroke="midnightblue" points="700.3,-224.99 710.89,-224.45 702.28,-218.27 700.3,-224.99"/>
</g>
<!-- Node14 -->
<g id="node14" class="node">
<title>Node14</title>
<g id="a_node14"><a xlink:href="encoder_8hpp.html" target="_top" xlink:title=" ">
<polygon fill="none" stroke="black" points="768.5,-168.5 768.5,-187.5 844.5,-187.5 844.5,-168.5 768.5,-168.5"/>
<text text-anchor="middle" x="806.5" y="-175.5" font-family="Helvetica,sans-Serif" font-size="10.00">encoder.hpp</text>
</a>
</g>
</g>
<!-- Node11&#45;&gt;Node14 -->
<g id="edge16" class="edge">
<title>Node11&#45;&gt;Node14</title>
<path fill="none" stroke="midnightblue" d="M759.05,-217.82C770.88,-208.15 785.79,-195.95 795.7,-187.83"/>
<polygon fill="midnightblue" stroke="midnightblue" points="756.63,-215.28 751.1,-224.32 761.06,-220.7 756.63,-215.28"/>
</g>
<!-- Node15 -->
<g id="node15" class="node">
<title>Node15</title>
<g id="a_node15"><a xlink:href="k1__model_8hpp.html" target="_top" xlink:title=" ">
<polygon fill="none" stroke="black" points="1149.5,-112.5 1149.5,-131.5 1235.5,-131.5 1235.5,-112.5 1149.5,-112.5"/>
<text text-anchor="middle" x="1192.5" y="-119.5" font-family="Helvetica,sans-Serif" font-size="10.00">k1_model.hpp</text>
</a>
</g>
</g>
<!-- Node11&#45;&gt;Node15 -->
<g id="edge44" class="edge">
<title>Node11&#45;&gt;Node15</title>
<path fill="none" stroke="midnightblue" d="M781.27,-221.62C810.34,-213.18 850.19,-200.94 884.5,-188 904.98,-180.28 908.55,-174.33 929.5,-168 1020.56,-140.47 1046.74,-148.11 1140.5,-132 1143.39,-131.5 1146.37,-130.99 1149.37,-130.47"/>
<polygon fill="midnightblue" stroke="midnightblue" points="780.11,-218.32 771.47,-224.44 782.05,-225.04 780.11,-218.32"/>
</g>
<!-- Node19 -->
<g id="node19" class="node">
<title>Node19</title>
<g id="a_node19"><a xlink:href="k2__model_8hpp.html" target="_top" xlink:title=" ">
<polygon fill="none" stroke="black" points="910.5,-112.5 910.5,-131.5 996.5,-131.5 996.5,-112.5 910.5,-112.5"/>
<text text-anchor="middle" x="953.5" y="-119.5" font-family="Helvetica,sans-Serif" font-size="10.00">k2_model.hpp</text>
</a>
</g>
</g>
<!-- Node11&#45;&gt;Node19 -->
<g id="edge45" class="edge">
<title>Node11&#45;&gt;Node19</title>
<path fill="none" stroke="midnightblue" d="M775.83,-220.97C798.52,-212.75 828.34,-201.02 853.5,-188 887.15,-170.58 923.79,-144.85 941.95,-131.59"/>
<polygon fill="midnightblue" stroke="midnightblue" points="774.51,-217.73 766.27,-224.38 776.86,-224.32 774.51,-217.73"/>
</g>
<!-- Node21 -->
<g id="node21" class="node">
<title>Node21</title>
<g id="a_node21"><a xlink:href="k3__model_8hpp.html" target="_top" xlink:title=" ">
<polygon fill="none" stroke="black" points="730.5,-112.5 730.5,-131.5 816.5,-131.5 816.5,-112.5 730.5,-112.5"/>
<text text-anchor="middle" x="773.5" y="-119.5" font-family="Helvetica,sans-Serif" font-size="10.00">k3_model.hpp</text>
</a>
</g>
</g>
<!-- Node11&#45;&gt;Node21 -->
<g id="edge46" class="edge">
<title>Node11&#45;&gt;Node21</title>
<path fill="none" stroke="midnightblue" d="M745.82,-214.5C749.58,-201.48 754.78,-183.65 759.5,-168 763.33,-155.31 767.92,-140.66 770.77,-131.61"/>
<polygon fill="midnightblue" stroke="midnightblue" points="742.44,-213.58 743.03,-224.15 749.17,-215.51 742.44,-213.58"/>
</g>
<!-- Node25 -->
<g id="node25" class="node">
<title>Node25</title>
<g id="a_node25"><a xlink:href="testing__model_8hpp.html" target="_top" xlink:title=" ">
<polygon fill="none" stroke="black" points="567,-112.5 567,-131.5 674,-131.5 674,-112.5 567,-112.5"/>
<text text-anchor="middle" x="620.5" y="-119.5" font-family="Helvetica,sans-Serif" font-size="10.00">testing_model.hpp</text>
</a>
</g>
</g>
<!-- Node11&#45;&gt;Node25 -->
<g id="edge48" class="edge">
<title>Node11&#45;&gt;Node25</title>
<path fill="none" stroke="midnightblue" d="M723.6,-217.51C697.96,-194.01 650.07,-150.11 629.87,-131.59"/>
<polygon fill="midnightblue" stroke="midnightblue" points="721.35,-220.19 731.08,-224.37 726.08,-215.03 721.35,-220.19"/>
</g>
<!-- Node11&#45;&gt;Node27 -->
<g id="edge47" class="edge">
<title>Node11&#45;&gt;Node27</title>
<path fill="none" stroke="midnightblue" d="M792.47,-222.41C842.55,-212.2 917.36,-196.96 963.71,-187.52"/>
<polygon fill="midnightblue" stroke="midnightblue" points="791.59,-219.02 782.49,-224.44 792.99,-225.88 791.59,-219.02"/>
</g>
<!-- Node12&#45;&gt;Node6 -->
<g id="edge14" class="edge">
<title>Node12&#45;&gt;Node6</title>
<path fill="none" stroke="midnightblue" d="M474.57,-106.9C459.16,-97 439.05,-84.07 425.96,-75.65"/>
<polygon fill="midnightblue" stroke="midnightblue" points="472.7,-109.86 483,-112.32 476.48,-103.97 472.7,-109.86"/>
</g>
<!-- Node12&#45;&gt;Node9 -->
<g id="edge13" class="edge">
<title>Node12&#45;&gt;Node9</title>
<path fill="none" stroke="midnightblue" d="M506.04,-103.61C515.07,-88.77 529.99,-67.98 548.5,-56 582.68,-33.87 627.23,-22.61 662.69,-16.89"/>
<polygon fill="midnightblue" stroke="midnightblue" points="502.96,-101.95 500.98,-112.35 509.02,-105.46 502.96,-101.95"/>
</g>
<!-- Node12&#45;&gt;Node13 -->
<g id="edge12" class="edge">
<title>Node12&#45;&gt;Node13</title>
<path fill="none" stroke="midnightblue" d="M451.24,-110.09C408.92,-99.89 346.59,-84.86 307.83,-75.52"/>
<polygon fill="midnightblue" stroke="midnightblue" points="450.46,-113.5 461.01,-112.44 452.11,-106.7 450.46,-113.5"/>
</g>
<!-- Node14&#45;&gt;Node12 -->
<g id="edge17" class="edge">
<title>Node14&#45;&gt;Node12</title>
<path fill="none" stroke="midnightblue" d="M758.5,-168.64C700.63,-158.56 603.9,-141.71 545.56,-131.55"/>
<polygon fill="midnightblue" stroke="midnightblue" points="758.04,-172.11 768.49,-170.38 759.24,-165.21 758.04,-172.11"/>
</g>
<!-- Node14&#45;&gt;Node15 -->
<g id="edge18" class="edge">
<title>Node14&#45;&gt;Node15</title>
<path fill="none" stroke="midnightblue" d="M854.58,-171.1C919.56,-162.99 1038.95,-147.62 1140.5,-132 1143.4,-131.55 1146.38,-131.08 1149.39,-130.59"/>
<polygon fill="midnightblue" stroke="midnightblue" points="854.13,-167.63 844.64,-172.33 854.99,-174.57 854.13,-167.63"/>
</g>
<!-- Node17 -->
<g id="node17" class="node">
<title>Node17</title>
<g id="a_node17"><a xlink:href="k1__model_8test_8cpp.html" target="_top" xlink:title=" ">
<polygon fill="none" stroke="black" points="1410,-56.5 1410,-75.5 1517,-75.5 1517,-56.5 1410,-56.5"/>
<text text-anchor="middle" x="1463.5" y="-63.5" font-family="Helvetica,sans-Serif" font-size="10.00">k1_model.test.cpp</text>
</a>
</g>
</g>
<!-- Node14&#45;&gt;Node17 -->
<g id="edge24" class="edge">
<title>Node14&#45;&gt;Node17</title>
<path fill="none" stroke="midnightblue" d="M854.77,-173.18C952.54,-165.26 1170.88,-146.57 1244.5,-132 1317.06,-117.64 1400.13,-89.7 1439.88,-75.59"/>
<polygon fill="midnightblue" stroke="midnightblue" points="854.27,-169.71 844.58,-174 854.83,-176.69 854.27,-169.71"/>
</g>
<!-- Node14&#45;&gt;Node19 -->
<g id="edge25" class="edge">
<title>Node14&#45;&gt;Node19</title>
<path fill="none" stroke="midnightblue" d="M839.42,-164.91C867.06,-154.75 905.84,-140.51 930.32,-131.52"/>
<polygon fill="midnightblue" stroke="midnightblue" points="837.97,-161.71 829.79,-168.44 840.39,-168.28 837.97,-161.71"/>
</g>
<!-- Node20 -->
<g id="node20" class="node">
<title>Node20</title>
<g id="a_node20"><a xlink:href="k2__peak__model_8test_8cpp.html" target="_top" xlink:title=" ">
<polygon fill="none" stroke="black" points="876.5,-56.5 876.5,-75.5 1012.5,-75.5 1012.5,-56.5 876.5,-56.5"/>
<text text-anchor="middle" x="944.5" y="-63.5" font-family="Helvetica,sans-Serif" font-size="10.00">k2_peak_model.test.cpp</text>
</a>
</g>
</g>
<!-- Node14&#45;&gt;Node20 -->
<g id="edge30" class="edge">
<title>Node14&#45;&gt;Node20</title>
<path fill="none" stroke="midnightblue" d="M825.17,-162.12C854.46,-138.77 910.29,-94.27 933.72,-75.59"/>
<polygon fill="midnightblue" stroke="midnightblue" points="822.97,-159.4 817.33,-168.37 827.33,-164.87 822.97,-159.4"/>
</g>
<!-- Node14&#45;&gt;Node21 -->
<g id="edge31" class="edge">
<title>Node14&#45;&gt;Node21</title>
<path fill="none" stroke="midnightblue" d="M795.67,-159.27C790.03,-150.05 783.38,-139.17 778.85,-131.75"/>
<polygon fill="midnightblue" stroke="midnightblue" points="792.85,-161.38 801.05,-168.08 798.82,-157.73 792.85,-161.38"/>
</g>
<!-- Node22 -->
<g id="node22" class="node">
<title>Node22</title>
<g id="a_node22"><a xlink:href="k3__model_8test_8cpp.html" target="_top" xlink:title=" ">
<polygon fill="none" stroke="black" points="751,-56.5 751,-75.5 858,-75.5 858,-56.5 751,-56.5"/>
<text text-anchor="middle" x="804.5" y="-63.5" font-family="Helvetica,sans-Serif" font-size="10.00">k3_model.test.cpp</text>
</a>
</g>
</g>
<!-- Node14&#45;&gt;Node22 -->
<g id="edge35" class="edge">
<title>Node14&#45;&gt;Node22</title>
<path fill="none" stroke="midnightblue" d="M816.8,-159.08C823.01,-146.12 829.08,-128.12 825.5,-112 822.51,-98.53 815.06,-84.32 809.88,-75.56"/>
<polygon fill="midnightblue" stroke="midnightblue" points="813.53,-157.78 811.98,-168.26 819.73,-161.04 813.53,-157.78"/>
</g>
<!-- Node23 -->
<g id="node23" class="node">
<title>Node23</title>
<g id="a_node23"><a xlink:href="model__tester_8hpp.html" target="_top" xlink:title=" ">
<polygon fill="none" stroke="black" points="1030,-112.5 1030,-131.5 1131,-131.5 1131,-112.5 1030,-112.5"/>
<text text-anchor="middle" x="1080.5" y="-119.5" font-family="Helvetica,sans-Serif" font-size="10.00">model_tester.hpp</text>
</a>
</g>
</g>
<!-- Node14&#45;&gt;Node23 -->
<g id="edge36" class="edge">
<title>Node14&#45;&gt;Node23</title>
<path fill="none" stroke="midnightblue" d="M854.52,-167.54C906.18,-157.36 987.6,-141.31 1037.31,-131.51"/>
<polygon fill="midnightblue" stroke="midnightblue" points="853.73,-164.12 844.6,-169.49 855.09,-170.99 853.73,-164.12"/>
</g>
<!-- Node14&#45;&gt;Node25 -->
<g id="edge39" class="edge">
<title>Node14&#45;&gt;Node25</title>
<path fill="none" stroke="midnightblue" d="M767.12,-165.57C732.03,-155.38 681.48,-140.7 649.83,-131.52"/>
<polygon fill="midnightblue" stroke="midnightblue" points="766.45,-169.02 777.03,-168.44 768.4,-162.29 766.45,-169.02"/>
</g>
<!-- Node26 -->
<g id="node26" class="node">
<title>Node26</title>
<g id="a_node26"><a xlink:href="testing__model_8test_8cpp.html" target="_top" xlink:title=" ">
<polygon fill="none" stroke="black" points="566.5,-56.5 566.5,-75.5 694.5,-75.5 694.5,-56.5 566.5,-56.5"/>
<text text-anchor="middle" x="630.5" y="-63.5" font-family="Helvetica,sans-Serif" font-size="10.00">testing_model.test.cpp</text>
</a>
</g>
</g>
<!-- Node14&#45;&gt;Node26 -->
<g id="edge43" class="edge">
<title>Node14&#45;&gt;Node26</title>
<path fill="none" stroke="midnightblue" d="M779.22,-163.73C762.29,-155.2 740.26,-143.59 721.5,-132 691.61,-113.53 658.49,-88.68 641.66,-75.71"/>
<polygon fill="midnightblue" stroke="midnightblue" points="778.02,-167.04 788.53,-168.36 781.14,-160.77 778.02,-167.04"/>
</g>
<!-- Node15&#45;&gt;Node6 -->
<g id="edge23" class="edge">
<title>Node15&#45;&gt;Node6</title>
<path fill="none" stroke="midnightblue" d="M1139.36,-112C880.95,-82.07 813.32,-91.84 557.5,-76 529.43,-74.26 498.31,-72.33 472.11,-70.7"/>
<polygon fill="midnightblue" stroke="midnightblue" points="1139.08,-115.49 1149.42,-113.17 1139.9,-108.53 1139.08,-115.49"/>
</g>
<!-- Node15&#45;&gt;Node9 -->
<g id="edge22" class="edge">
<title>Node15&#45;&gt;Node9</title>
<path fill="none" stroke="midnightblue" d="M1245.9,-117.58C1308.67,-111.68 1399.85,-96.07 1362.5,-56 1323.41,-14.06 933.28,-10.48 782,-10.68"/>
<polygon fill="midnightblue" stroke="midnightblue" points="1245.36,-114.11 1235.7,-118.48 1245.97,-121.08 1245.36,-114.11"/>
</g>
<!-- Node16 -->
<g id="node16" class="node">
<title>Node16</title>
<g id="a_node16"><a xlink:href="k1__model_8cpp.html" target="_top" xlink:title=" ">
<polygon fill="none" stroke="black" points="1268,-56.5 1268,-75.5 1353,-75.5 1353,-56.5 1268,-56.5"/>
<text text-anchor="middle" x="1310.5" y="-63.5" font-family="Helvetica,sans-Serif" font-size="10.00">k1_model.cpp</text>
</a>
</g>
</g>
<!-- Node15&#45;&gt;Node16 -->
<g id="edge19" class="edge">
<title>Node15&#45;&gt;Node16</title>
<path fill="none" stroke="midnightblue" d="M1220.4,-108.23C1242.47,-98.13 1272.68,-84.31 1291.89,-75.52"/>
<polygon fill="midnightblue" stroke="midnightblue" points="1218.83,-105.1 1211.2,-112.44 1221.75,-111.46 1218.83,-105.1"/>
</g>
<!-- Node15&#45;&gt;Node17 -->
<g id="edge20" class="edge">
<title>Node15&#45;&gt;Node17</title>
<path fill="none" stroke="midnightblue" d="M1245.33,-110.47C1296.54,-100.27 1373.27,-84.98 1420.76,-75.52"/>
<polygon fill="midnightblue" stroke="midnightblue" points="1244.56,-107.06 1235.44,-112.44 1245.93,-113.92 1244.56,-107.06"/>
</g>
<!-- Node18 -->
<g id="node18" class="node">
<title>Node18</title>
<g id="a_node18"><a xlink:href="tests_2ktl__model__scoring_2main_8cpp.html" target="_top" xlink:title=" ">
<polygon fill="none" stroke="black" points="1068.5,-56.5 1068.5,-75.5 1130.5,-75.5 1130.5,-56.5 1068.5,-56.5"/>
<text text-anchor="middle" x="1099.5" y="-63.5" font-family="Helvetica,sans-Serif" font-size="10.00">main.cpp</text>
</a>
</g>
</g>
<!-- Node15&#45;&gt;Node18 -->
<g id="edge21" class="edge">
<title>Node15&#45;&gt;Node18</title>
<path fill="none" stroke="midnightblue" d="M1168.69,-107.18C1151.58,-97.24 1129.03,-84.15 1114.4,-75.65"/>
<polygon fill="midnightblue" stroke="midnightblue" points="1167.15,-110.33 1177.56,-112.32 1170.67,-104.28 1167.15,-110.33"/>
</g>
<!-- Node19&#45;&gt;Node6 -->
<g id="edge29" class="edge">
<title>Node19&#45;&gt;Node6</title>
<path fill="none" stroke="midnightblue" d="M900.11,-115.67C798.6,-105.54 578.43,-83.56 472.2,-72.96"/>
<polygon fill="midnightblue" stroke="midnightblue" points="899.84,-119.16 910.14,-116.67 900.54,-112.2 899.84,-119.16"/>
</g>
<!-- Node19&#45;&gt;Node9 -->
<g id="edge28" class="edge">
<title>Node19&#45;&gt;Node9</title>
<path fill="none" stroke="midnightblue" d="M984.1,-107.85C1009.21,-95.24 1038.13,-75.32 1021.5,-56 991.24,-20.84 860.23,-12.78 782.02,-11.16"/>
<polygon fill="midnightblue" stroke="midnightblue" points="982.28,-104.84 974.77,-112.31 985.3,-111.15 982.28,-104.84"/>
</g>
<!-- Node19&#45;&gt;Node18 -->
<g id="edge27" class="edge">
<title>Node19&#45;&gt;Node18</title>
<path fill="none" stroke="midnightblue" d="M986.2,-108.91C1013.65,-98.75 1052.17,-84.51 1076.47,-75.52"/>
<polygon fill="midnightblue" stroke="midnightblue" points="984.8,-105.69 976.63,-112.44 987.23,-112.26 984.8,-105.69"/>
</g>
<!-- Node19&#45;&gt;Node20 -->
<g id="edge26" class="edge">
<title>Node19&#45;&gt;Node20</title>
<path fill="none" stroke="midnightblue" d="M950.35,-102.1C948.86,-93.14 947.14,-82.86 945.96,-75.75"/>
<polygon fill="midnightblue" stroke="midnightblue" points="946.92,-102.79 952.01,-112.08 953.82,-101.64 946.92,-102.79"/>
</g>
<!-- Node21&#45;&gt;Node6 -->
<g id="edge34" class="edge">
<title>Node21&#45;&gt;Node6</title>
<path fill="none" stroke="midnightblue" d="M720.37,-113.05C653.25,-103.01 538.23,-85.81 469.39,-75.51"/>
<polygon fill="midnightblue" stroke="midnightblue" points="719.91,-116.52 730.31,-114.54 720.94,-109.6 719.91,-116.52"/>
</g>
<!-- Node21&#45;&gt;Node9 -->
<g id="edge33" class="edge">
<title>Node21&#45;&gt;Node9</title>
<path fill="none" stroke="midnightblue" d="M760.13,-104.24C754.11,-96.08 747.3,-85.91 742.5,-76 733.24,-56.87 727.11,-32.51 724.29,-19.73"/>
<polygon fill="midnightblue" stroke="midnightblue" points="757.37,-106.38 766.22,-112.2 762.93,-102.13 757.37,-106.38"/>
</g>
<!-- Node21&#45;&gt;Node22 -->
<g id="edge32" class="edge">
<title>Node21&#45;&gt;Node22</title>
<path fill="none" stroke="midnightblue" d="M783.68,-103.27C788.97,-94.05 795.22,-83.17 799.48,-75.75"/>
<polygon fill="midnightblue" stroke="midnightblue" points="780.56,-101.67 778.62,-112.08 786.63,-105.15 780.56,-101.67"/>
</g>
<!-- Node23&#45;&gt;Node18 -->
<g id="edge37" class="edge">
<title>Node23&#45;&gt;Node18</title>
<path fill="none" stroke="midnightblue" d="M1087.05,-102.4C1090.22,-93.36 1093.89,-82.94 1096.42,-75.75"/>
<polygon fill="midnightblue" stroke="midnightblue" points="1083.65,-101.49 1083.64,-112.08 1090.26,-103.81 1083.65,-101.49"/>
</g>
<!-- Node24 -->
<g id="node24" class="node">
<title>Node24</title>
<g id="a_node24"><a xlink:href="model__tester_8cpp.html" target="_top" xlink:title=" ">
<polygon fill="none" stroke="black" points="1149,-56.5 1149,-75.5 1250,-75.5 1250,-56.5 1149,-56.5"/>
<text text-anchor="middle" x="1199.5" y="-63.5" font-family="Helvetica,sans-Serif" font-size="10.00">model_tester.cpp</text>
</a>
</g>
</g>
<!-- Node23&#45;&gt;Node24 -->
<g id="edge38" class="edge">
<title>Node23&#45;&gt;Node24</title>
<path fill="none" stroke="midnightblue" d="M1108.64,-108.23C1130.9,-98.13 1161.36,-84.31 1180.73,-75.52"/>
<polygon fill="midnightblue" stroke="midnightblue" points="1107.02,-105.12 1099.36,-112.44 1109.91,-111.5 1107.02,-105.12"/>
</g>
<!-- Node25&#45;&gt;Node6 -->
<g id="edge42" class="edge">
<title>Node25&#45;&gt;Node6</title>
<path fill="none" stroke="midnightblue" d="M577.72,-109.89C538.44,-99.7 481.07,-84.8 445.3,-75.52"/>
<polygon fill="midnightblue" stroke="midnightblue" points="576.98,-113.32 587.54,-112.44 578.74,-106.54 576.98,-113.32"/>
</g>
<!-- Node25&#45;&gt;Node9 -->
<g id="edge41" class="edge">
<title>Node25&#45;&gt;Node9</title>
<path fill="none" stroke="midnightblue" d="M592.08,-107.76C569.06,-95.2 542.68,-75.4 557.5,-56 570.48,-39.01 621.06,-26.9 662.84,-19.55"/>
<polygon fill="midnightblue" stroke="midnightblue" points="590.48,-110.87 600.97,-112.36 593.7,-104.66 590.48,-110.87"/>
</g>
<!-- Node25&#45;&gt;Node26 -->
<g id="edge40" class="edge">
<title>Node25&#45;&gt;Node26</title>
<path fill="none" stroke="midnightblue" d="M624,-102.1C625.66,-93.14 627.56,-82.86 628.88,-75.75"/>
<polygon fill="midnightblue" stroke="midnightblue" points="620.53,-101.61 622.15,-112.08 627.41,-102.89 620.53,-101.61"/>
</g>
</g>
</svg>
