<?xml version="1.0" encoding="UTF-8" standalone="no"?>
<!DOCTYPE svg PUBLIC "-//W3C//DTD SVG 1.1//EN"
 "http://www.w3.org/Graphics/SVG/1.1/DTD/svg11.dtd">
<!-- Generated by graphviz version 2.43.0 (0)
 -->
<!-- Title: kazoo::ISymbolModel::encodeSymbol Pages: 1 -->
<svg width="752pt" height="91pt"
 viewBox="0.00 0.00 752.00 91.00" xmlns="http://www.w3.org/2000/svg" xmlns:xlink="http://www.w3.org/1999/xlink">
<g id="graph0" class="graph" transform="scale(1 1) rotate(0) translate(4 87)">
<title>kazoo::ISymbolModel::encodeSymbol</title>
<!-- Node1 -->
<g id="node1" class="node">
<title>Node1</title>
<g id="a_node1"><a xlink:title=" ">
<polygon fill="#bfbfbf" stroke="black" points="623,-17 623,-47 744,-47 744,-17 623,-17"/>
<text text-anchor="start" x="631" y="-35" font-family="Helvetica,sans-Serif" font-size="10.00">kazoo::ISymbolModel</text>
<text text-anchor="middle" x="683.5" y="-24" font-family="Helvetica,sans-Serif" font-size="10.00">::encodeSymbol</text>
</a>
</g>
</g>
<!-- Node2 -->
<g id="node2" class="node">
<title>Node2</title>
<g id="a_node2"><a xlink:href="classkazoo_1_1Encoder.html#a377a241e22091d991edd5376e0d0be10" target="_top" xlink:title="Pops symbols from the front of the symbol stream and encodes them into the audio buffer.">
<polygon fill="none" stroke="black" points="411,-17 411,-47 587,-47 587,-17 411,-17"/>
<text text-anchor="start" x="419" y="-35" font-family="Helvetica,sans-Serif" font-size="10.00">kazoo::Encoder::encodeAvailable</text>
<text text-anchor="middle" x="499" y="-24" font-family="Helvetica,sans-Serif" font-size="10.00">Symbols</text>
</a>
</g>
</g>
<!-- Node1&#45;&gt;Node2 -->
<g id="edge1" class="edge">
<title>Node1&#45;&gt;Node2</title>
<path fill="none" stroke="midnightblue" d="M612.9,-32C604.51,-32 595.85,-32 587.24,-32"/>
<polygon fill="midnightblue" stroke="midnightblue" points="613,-35.5 623,-32 613,-28.5 613,-35.5"/>
</g>
<!-- Node3 -->
<g id="node3" class="node">
<title>Node3</title>
<g id="a_node3"><a xlink:href="classkazoo_1_1TranslationLayer.html#ae6af635a406681696216d31a11dd64f9" target="_top" xlink:title=" ">
<polygon fill="none" stroke="black" points="244,-17 244,-47 375,-47 375,-17 244,-17"/>
<text text-anchor="start" x="252" y="-35" font-family="Helvetica,sans-Serif" font-size="10.00">kazoo::TranslationLayer</text>
<text text-anchor="middle" x="309.5" y="-24" font-family="Helvetica,sans-Serif" font-size="10.00">::encode</text>
</a>
</g>
</g>
<!-- Node2&#45;&gt;Node3 -->
<g id="edge2" class="edge">
<title>Node2&#45;&gt;Node3</title>
<path fill="none" stroke="midnightblue" d="M400.65,-32C391.98,-32 383.35,-32 375.05,-32"/>
<polygon fill="midnightblue" stroke="midnightblue" points="400.84,-35.5 410.84,-32 400.84,-28.5 400.84,-35.5"/>
</g>
<!-- Node4 -->
<g id="node4" class="node">
<title>Node4</title>
<g id="a_node4"><a xlink:href="classkazoo_1_1TranslationLayer.html#a85b59418d9b63eaf80dd1b3623a96b96" target="_top" xlink:title=" ">
<polygon fill="none" stroke="black" points="77,-39 77,-69 208,-69 208,-39 77,-39"/>
<text text-anchor="start" x="85" y="-57" font-family="Helvetica,sans-Serif" font-size="10.00">kazoo::TranslationLayer</text>
<text text-anchor="middle" x="142.5" y="-46" font-family="Helvetica,sans-Serif" font-size="10.00">::sendFrame</text>
</a>
</g>
</g>
<!-- Node3&#45;&gt;Node4 -->
<g id="edge3" class="edge">
<title>Node3&#45;&gt;Node4</title>
<path fill="none" stroke="midnightblue" d="M233.76,-41.97C225.18,-43.11 216.48,-44.27 208.05,-45.39"/>
<polygon fill="midnightblue" stroke="midnightblue" points="234.31,-45.42 243.76,-40.63 233.39,-38.48 234.31,-45.42"/>
</g>
<!-- Node7 -->
<g id="node7" class="node">
<title>Node7</title>
<g id="a_node7"><a xlink:href="translation__layer_8test_8cpp.html#a5981aa5142cca1c44a01f7506cf94a8e" target="_top" xlink:title=" ">
<polygon fill="none" stroke="black" points="122,-0.5 122,-19.5 163,-19.5 163,-0.5 122,-0.5"/>
<text text-anchor="middle" x="142.5" y="-7.5" font-family="Helvetica,sans-Serif" font-size="10.00">TEST</text>
</a>
</g>
</g>
<!-- Node3&#45;&gt;Node7 -->
<g id="edge6" class="edge">
<title>Node3&#45;&gt;Node7</title>
<path fill="none" stroke="midnightblue" d="M233.85,-22.05C207.79,-18.57 180.67,-14.96 163.03,-12.6"/>
<polygon fill="midnightblue" stroke="midnightblue" points="233.39,-25.52 243.76,-23.37 234.31,-18.58 233.39,-25.52"/>
</g>
<!-- Node5 -->
<g id="node5" class="node">
<title>Node5</title>
<g id="a_node5"><a xlink:href="src_2kazoo__connect__server_2main_8cpp.html#ae66f6b31b5ad750f1fe042a706a4e3d4" target="_top" xlink:title=" ">
<polygon fill="none" stroke="black" points="0,-63.5 0,-82.5 41,-82.5 41,-63.5 0,-63.5"/>
<text text-anchor="middle" x="20.5" y="-70.5" font-family="Helvetica,sans-Serif" font-size="10.00">main</text>
</a>
</g>
</g>
<!-- Node4&#45;&gt;Node5 -->
<g id="edge4" class="edge">
<title>Node4&#45;&gt;Node5</title>
<path fill="none" stroke="midnightblue" d="M66.91,-65.81C57.43,-67.31 48.46,-68.73 41.05,-69.91"/>
<polygon fill="midnightblue" stroke="midnightblue" points="67.6,-69.24 76.93,-64.22 66.51,-62.33 67.6,-69.24"/>
</g>
<!-- Node6 -->
<g id="node6" class="node">
<title>Node6</title>
<g id="a_node6"><a xlink:href="translation__layer_8test_8cpp.html#a557311196b9a309f0d8377ef5af0c62c" target="_top" xlink:title=" ">
<polygon fill="none" stroke="black" points="0,-25.5 0,-44.5 41,-44.5 41,-25.5 0,-25.5"/>
<text text-anchor="middle" x="20.5" y="-32.5" font-family="Helvetica,sans-Serif" font-size="10.00">TEST</text>
</a>
</g>
</g>
<!-- Node4&#45;&gt;Node6 -->
<g id="edge5" class="edge">
<title>Node4&#45;&gt;Node6</title>
<path fill="none" stroke="midnightblue" d="M66.91,-42.19C57.43,-40.69 48.46,-39.27 41.05,-38.09"/>
<polygon fill="midnightblue" stroke="midnightblue" points="66.51,-45.67 76.93,-43.78 67.6,-38.76 66.51,-45.67"/>
</g>
</g>
</svg>
