<?xml version="1.0" encoding="UTF-8" standalone="no"?>
<!DOCTYPE svg PUBLIC "-//W3C//DTD SVG 1.1//EN"
 "http://www.w3.org/Graphics/SVG/1.1/DTD/svg11.dtd">
<!-- Generated by graphviz version 2.43.0 (0)
 -->
<!-- Title: kazoo::BinaryStream::addBytes Pages: 1 -->
<svg width="669pt" height="193pt"
 viewBox="0.00 0.00 669.00 192.50" xmlns="http://www.w3.org/2000/svg" xmlns:xlink="http://www.w3.org/1999/xlink">
<g id="graph0" class="graph" transform="scale(1 1) rotate(0) translate(4 188.5)">
<title>kazoo::BinaryStream::addBytes</title>
<!-- Node1 -->
<g id="node1" class="node">
<title>Node1</title>
<g id="a_node1"><a xlink:title="Add bytes to the stream. If the stream is not byte aligned when this function is called,...">
<polygon fill="#bfbfbf" stroke="black" points="543,-43.5 543,-73.5 661,-73.5 661,-43.5 543,-43.5"/>
<text text-anchor="start" x="551" y="-61.5" font-family="Helvetica,sans-Serif" font-size="10.00">kazoo::BinaryStream</text>
<text text-anchor="middle" x="602" y="-50.5" font-family="Helvetica,sans-Serif" font-size="10.00">::addBytes</text>
</a>
</g>
</g>
<!-- Node2 -->
<g id="node2" class="node">
<title>Node2</title>
<g id="a_node2"><a xlink:href="classkazoo_1_1TranslationLayer.html#a6b80b010d94b9f1373fea308d1c6d435" target="_top" xlink:title="Takes input data and processes it through the symbol stream.">
<polygon fill="none" stroke="black" points="361,-123.5 361,-153.5 492,-153.5 492,-123.5 361,-123.5"/>
<text text-anchor="start" x="369" y="-141.5" font-family="Helvetica,sans-Serif" font-size="10.00">kazoo::TranslationLayer</text>
<text text-anchor="middle" x="426.5" y="-130.5" font-family="Helvetica,sans-Serif" font-size="10.00">::addData</text>
</a>
</g>
</g>
<!-- Node1&#45;&gt;Node2 -->
<g id="edge1" class="edge">
<title>Node1&#45;&gt;Node2</title>
<path fill="none" stroke="midnightblue" d="M569.76,-79.17C551.91,-90.37 528.79,-103.85 507,-113.5 498.8,-117.13 489.91,-120.47 481.14,-123.45"/>
<polygon fill="midnightblue" stroke="midnightblue" points="572.03,-81.88 578.59,-73.56 568.27,-75.97 572.03,-81.88"/>
</g>
<!-- Node7 -->
<g id="node7" class="node">
<title>Node7</title>
<g id="a_node7"><a xlink:href="classkazoo_1_1ModelTester.html#ae3b12528cffc8ff611b85d82c63d84c5" target="_top" xlink:title=" ">
<polygon fill="none" stroke="black" points="346,-63 346,-104 507,-104 507,-63 346,-63"/>
<text text-anchor="start" x="354" y="-92" font-family="Helvetica,sans-Serif" font-size="10.00">kazoo::ModelTester</text>
<text text-anchor="start" x="354" y="-81" font-family="Helvetica,sans-Serif" font-size="10.00">::helper_encodeStringToAudio</text>
<text text-anchor="middle" x="426.5" y="-70" font-family="Helvetica,sans-Serif" font-size="10.00">Channel</text>
</a>
</g>
</g>
<!-- Node1&#45;&gt;Node7 -->
<g id="edge6" class="edge">
<title>Node1&#45;&gt;Node7</title>
<path fill="none" stroke="midnightblue" d="M532.68,-68.34C524.31,-69.55 515.7,-70.79 507.18,-72.02"/>
<polygon fill="midnightblue" stroke="midnightblue" points="533.35,-71.78 542.74,-66.89 532.35,-64.86 533.35,-71.78"/>
</g>
<!-- Node10 -->
<g id="node10" class="node">
<title>Node10</title>
<g id="a_node10"><a xlink:href="binary__stream_8test_8cpp.html#a0ea90f1ff04ac7d2c91a322c493df41b" target="_top" xlink:title=" ">
<polygon fill="none" stroke="black" points="406,-25 406,-44 447,-44 447,-25 406,-25"/>
<text text-anchor="middle" x="426.5" y="-32" font-family="Helvetica,sans-Serif" font-size="10.00">TEST</text>
</a>
</g>
</g>
<!-- Node1&#45;&gt;Node10 -->
<g id="edge9" class="edge">
<title>Node1&#45;&gt;Node10</title>
<path fill="none" stroke="midnightblue" d="M532.5,-49.02C501.85,-44.79 468.03,-40.11 447.27,-37.23"/>
<polygon fill="midnightblue" stroke="midnightblue" points="532.36,-52.54 542.74,-50.44 533.32,-45.6 532.36,-52.54"/>
</g>
<!-- Node11 -->
<g id="node11" class="node">
<title>Node11</title>
<g id="a_node11"><a xlink:href="classkazoo_1_1ModelTester.html#ae04082b16f30df3b2200f4d090b0337b" target="_top" xlink:title=" ">
<polygon fill="none" stroke="black" points="156,-0.5 156,-30.5 300,-30.5 300,-0.5 156,-0.5"/>
<text text-anchor="start" x="164" y="-18.5" font-family="Helvetica,sans-Serif" font-size="10.00">kazoo::ModelTester</text>
<text text-anchor="middle" x="228" y="-7.5" font-family="Helvetica,sans-Serif" font-size="10.00">::test_basicEncodeDecode</text>
</a>
</g>
</g>
<!-- Node1&#45;&gt;Node11 -->
<g id="edge10" class="edge">
<title>Node1&#45;&gt;Node11</title>
<path fill="none" stroke="midnightblue" d="M566.6,-38.44C549.32,-29.52 527.71,-20.01 507,-15.5 437.91,-0.45 356.86,-2.62 300.16,-7.24"/>
<polygon fill="midnightblue" stroke="midnightblue" points="565.24,-41.69 575.71,-43.31 568.54,-35.51 565.24,-41.69"/>
</g>
<!-- Node3 -->
<g id="node3" class="node">
<title>Node3</title>
<g id="a_node3"><a xlink:href="classkazoo_1_1TranslationLayer.html#a85b59418d9b63eaf80dd1b3623a96b96" target="_top" xlink:title=" ">
<polygon fill="none" stroke="black" points="162.5,-140.5 162.5,-170.5 293.5,-170.5 293.5,-140.5 162.5,-140.5"/>
<text text-anchor="start" x="170.5" y="-158.5" font-family="Helvetica,sans-Serif" font-size="10.00">kazoo::TranslationLayer</text>
<text text-anchor="middle" x="228" y="-147.5" font-family="Helvetica,sans-Serif" font-size="10.00">::sendFrame</text>
</a>
</g>
</g>
<!-- Node2&#45;&gt;Node3 -->
<g id="edge2" class="edge">
<title>Node2&#45;&gt;Node3</title>
<path fill="none" stroke="midnightblue" d="M350.87,-144.96C332.03,-146.59 311.95,-148.32 293.65,-149.91"/>
<polygon fill="midnightblue" stroke="midnightblue" points="351.23,-148.44 360.89,-144.09 350.62,-141.47 351.23,-148.44"/>
</g>
<!-- Node6 -->
<g id="node6" class="node">
<title>Node6</title>
<g id="a_node6"><a xlink:href="translation__layer_8test_8cpp.html#a5981aa5142cca1c44a01f7506cf94a8e" target="_top" xlink:title=" ">
<polygon fill="none" stroke="black" points="207.5,-102 207.5,-121 248.5,-121 248.5,-102 207.5,-102"/>
<text text-anchor="middle" x="228" y="-109" font-family="Helvetica,sans-Serif" font-size="10.00">TEST</text>
</a>
</g>
</g>
<!-- Node2&#45;&gt;Node6 -->
<g id="edge5" class="edge">
<title>Node2&#45;&gt;Node6</title>
<path fill="none" stroke="midnightblue" d="M350.69,-128.22C314.05,-123.19 272.78,-117.52 248.94,-114.24"/>
<polygon fill="midnightblue" stroke="midnightblue" points="350.5,-131.73 360.89,-129.62 351.46,-124.79 350.5,-131.73"/>
</g>
<!-- Node4 -->
<g id="node4" class="node">
<title>Node4</title>
<g id="a_node4"><a xlink:href="src_2kazoo__connect__server_2main_8cpp.html#ae66f6b31b5ad750f1fe042a706a4e3d4" target="_top" xlink:title=" ">
<polygon fill="none" stroke="black" points="34.5,-165 34.5,-184 75.5,-184 75.5,-165 34.5,-165"/>
<text text-anchor="middle" x="55" y="-172" font-family="Helvetica,sans-Serif" font-size="10.00">main</text>
</a>
</g>
</g>
<!-- Node3&#45;&gt;Node4 -->
<g id="edge3" class="edge">
<title>Node3&#45;&gt;Node4</title>
<path fill="none" stroke="midnightblue" d="M152.12,-163.82C124.09,-166.93 94.52,-170.22 75.7,-172.31"/>
<polygon fill="midnightblue" stroke="midnightblue" points="152.8,-167.27 162.35,-162.68 152.03,-160.31 152.8,-167.27"/>
</g>
<!-- Node5 -->
<g id="node5" class="node">
<title>Node5</title>
<g id="a_node5"><a xlink:href="translation__layer_8test_8cpp.html#a557311196b9a309f0d8377ef5af0c62c" target="_top" xlink:title=" ">
<polygon fill="none" stroke="black" points="34.5,-127 34.5,-146 75.5,-146 75.5,-127 34.5,-127"/>
<text text-anchor="middle" x="55" y="-134" font-family="Helvetica,sans-Serif" font-size="10.00">TEST</text>
</a>
</g>
</g>
<!-- Node3&#45;&gt;Node5 -->
<g id="edge4" class="edge">
<title>Node3&#45;&gt;Node5</title>
<path fill="none" stroke="midnightblue" d="M152.12,-147.18C124.09,-144.07 94.52,-140.78 75.7,-138.69"/>
<polygon fill="midnightblue" stroke="midnightblue" points="152.03,-150.69 162.35,-148.32 152.8,-143.73 152.03,-150.69"/>
</g>
<!-- Node8 -->
<g id="node8" class="node">
<title>Node8</title>
<g id="a_node8"><a xlink:href="classkazoo_1_1ModelTester.html#a43e738d358a87f9f01cc8ad13c6964fe" target="_top" xlink:title=" ">
<polygon fill="none" stroke="black" points="146,-51.5 146,-81.5 310,-81.5 310,-51.5 146,-51.5"/>
<text text-anchor="start" x="154" y="-69.5" font-family="Helvetica,sans-Serif" font-size="10.00">kazoo::ModelTester</text>
<text text-anchor="middle" x="228" y="-58.5" font-family="Helvetica,sans-Serif" font-size="10.00">::test_gaussianNoiseTolerance</text>
</a>
</g>
</g>
<!-- Node7&#45;&gt;Node8 -->
<g id="edge7" class="edge">
<title>Node7&#45;&gt;Node8</title>
<path fill="none" stroke="midnightblue" d="M335.82,-75.74C327.23,-75 318.54,-74.25 310.03,-73.51"/>
<polygon fill="midnightblue" stroke="midnightblue" points="335.59,-79.23 345.86,-76.61 336.2,-72.26 335.59,-79.23"/>
</g>
<!-- Node9 -->
<g id="node9" class="node">
<title>Node9</title>
<g id="a_node9"><a xlink:href="classkazoo_1_1ModelTester.html#a7e596cfc6087c50c134a30707a33d6dc" target="_top" xlink:title=" ">
<polygon fill="none" stroke="black" points="0,-27.5 0,-57.5 110,-57.5 110,-27.5 0,-27.5"/>
<text text-anchor="start" x="8" y="-45.5" font-family="Helvetica,sans-Serif" font-size="10.00">kazoo::ModelTester</text>
<text text-anchor="middle" x="55" y="-34.5" font-family="Helvetica,sans-Serif" font-size="10.00">::runAllTests</text>
</a>
</g>
</g>
<!-- Node8&#45;&gt;Node9 -->
<g id="edge8" class="edge">
<title>Node8&#45;&gt;Node9</title>
<path fill="none" stroke="midnightblue" d="M135.57,-53.67C126.91,-52.45 118.33,-51.25 110.19,-50.11"/>
<polygon fill="midnightblue" stroke="midnightblue" points="135.37,-57.17 145.76,-55.1 136.34,-50.24 135.37,-57.17"/>
</g>
<!-- Node11&#45;&gt;Node9 -->
<g id="edge11" class="edge">
<title>Node11&#45;&gt;Node9</title>
<path fill="none" stroke="midnightblue" d="M145.84,-28.31C133.73,-30.23 121.5,-32.16 110.12,-33.95"/>
<polygon fill="midnightblue" stroke="midnightblue" points="146.63,-31.73 155.97,-26.72 145.54,-24.82 146.63,-31.73"/>
</g>
</g>
</svg>
