<?xml version="1.0" encoding="UTF-8" standalone="no"?>
<!DOCTYPE svg PUBLIC "-//W3C//DTD SVG 1.1//EN"
 "http://www.w3.org/Graphics/SVG/1.1/DTD/svg11.dtd">
<!-- Generated by graphviz version 2.43.0 (0)
 -->
<!-- Title: kazoo::Deframer::findFrameEnd Pages: 1 -->
<svg width="1057pt" height="174pt"
 viewBox="0.00 0.00 1057.00 173.50" xmlns="http://www.w3.org/2000/svg" xmlns:xlink="http://www.w3.org/1999/xlink">
<g id="graph0" class="graph" transform="scale(1 1) rotate(0) translate(4 169.5)">
<title>kazoo::Deframer::findFrameEnd</title>
<!-- Node1 -->
<g id="node1" class="node">
<title>Node1</title>
<g id="a_node1"><a xlink:title=" ">
<polygon fill="#bfbfbf" stroke="black" points="0,-77 0,-96 170,-96 170,-77 0,-77"/>
<text text-anchor="middle" x="85" y="-84" font-family="Helvetica,sans-Serif" font-size="10.00">kazoo::Deframer::findFrameEnd</text>
</a>
</g>
</g>
<!-- Node2 -->
<g id="node2" class="node">
<title>Node2</title>
<g id="a_node2"><a xlink:href="classkazoo_1_1Deframer.html#ad48e61e42665c2d7f03685452b23c571" target="_top" xlink:title=" ">
<polygon fill="none" stroke="black" points="214,-146 214,-165 378,-165 378,-146 214,-146"/>
<text text-anchor="middle" x="296" y="-153" font-family="Helvetica,sans-Serif" font-size="10.00">kazoo::Deframer::changeState</text>
</a>
</g>
</g>
<!-- Node1&#45;&gt;Node2 -->
<g id="edge1" class="edge">
<title>Node1&#45;&gt;Node2</title>
<path fill="none" stroke="midnightblue" d="M105.96,-96.16C129.44,-107.2 169.81,-125.2 206,-136.5 214.44,-139.13 223.44,-141.52 232.35,-143.65"/>
<polygon fill="midnightblue" stroke="midnightblue" points="231.82,-147.12 242.34,-145.94 233.38,-140.3 231.82,-147.12"/>
</g>
<!-- Node3 -->
<g id="node3" class="node">
<title>Node3</title>
<g id="a_node3"><a xlink:href="classkazoo_1_1BinaryStream.html#af26ef358b4ddbd2f0a7f9d94d1b64357" target="_top" xlink:title="Get the number of bytes in the stream. If the stream has spare bits that do not align to a byte,...">
<polygon fill="none" stroke="black" points="237,-96.5 237,-126.5 355,-126.5 355,-96.5 237,-96.5"/>
<text text-anchor="start" x="245" y="-114.5" font-family="Helvetica,sans-Serif" font-size="10.00">kazoo::BinaryStream</text>
<text text-anchor="middle" x="296" y="-103.5" font-family="Helvetica,sans-Serif" font-size="10.00">::getNumBytes</text>
</a>
</g>
</g>
<!-- Node1&#45;&gt;Node3 -->
<g id="edge2" class="edge">
<title>Node1&#45;&gt;Node3</title>
<path fill="none" stroke="midnightblue" d="M165.61,-96.02C185.75,-98.43 207.2,-101 226.72,-103.33"/>
<polygon fill="midnightblue" stroke="midnightblue" points="226.39,-106.82 236.74,-104.53 227.22,-99.87 226.39,-106.82"/>
</g>
<!-- Node4 -->
<g id="node4" class="node">
<title>Node4</title>
<g id="a_node4"><a xlink:href="classkazoo_1_1BinaryStream.html#ae77e9324dbd09dd4a02d3504a83ae866" target="_top" xlink:title=" ">
<polygon fill="none" stroke="black" points="237,-47.5 237,-77.5 355,-77.5 355,-47.5 237,-47.5"/>
<text text-anchor="start" x="245" y="-65.5" font-family="Helvetica,sans-Serif" font-size="10.00">kazoo::BinaryStream</text>
<text text-anchor="middle" x="296" y="-54.5" font-family="Helvetica,sans-Serif" font-size="10.00">::popByte</text>
</a>
</g>
</g>
<!-- Node1&#45;&gt;Node4 -->
<g id="edge3" class="edge">
<title>Node1&#45;&gt;Node4</title>
<path fill="none" stroke="midnightblue" d="M168.9,-76.98C188.13,-74.77 208.39,-72.45 226.9,-70.32"/>
<polygon fill="midnightblue" stroke="midnightblue" points="227.45,-73.78 236.99,-69.16 226.65,-66.83 227.45,-73.78"/>
</g>
<!-- Node11 -->
<g id="node11" class="node">
<title>Node11</title>
<g id="a_node11"><a xlink:href="classkazoo_1_1Deframer.html#a919b00cfd64865233361bf4779674b6a" target="_top" xlink:title=" ">
<polygon fill="none" stroke="black" points="206,-8 206,-27 386,-27 386,-8 206,-8"/>
<text text-anchor="middle" x="296" y="-15" font-family="Helvetica,sans-Serif" font-size="10.00">kazoo::Deframer::printFrameData</text>
</a>
</g>
</g>
<!-- Node1&#45;&gt;Node11 -->
<g id="edge10" class="edge">
<title>Node1&#45;&gt;Node11</title>
<path fill="none" stroke="midnightblue" d="M106.43,-76.93C130,-66.18 170.15,-48.76 206,-37.5 215.52,-34.51 225.74,-31.78 235.75,-29.36"/>
<polygon fill="midnightblue" stroke="midnightblue" points="236.7,-32.74 245.65,-27.05 235.11,-25.92 236.7,-32.74"/>
</g>
<!-- Node5 -->
<g id="node5" class="node">
<title>Node5</title>
<g id="a_node5"><a xlink:href="classkazoo_1_1BinaryStream.html#a745b2acb522d69e283dd5df14500016b" target="_top" xlink:title="Pop bits off the front, effectively the inverse of addBits.">
<polygon fill="none" stroke="black" points="425.5,-49.5 425.5,-79.5 543.5,-79.5 543.5,-49.5 425.5,-49.5"/>
<text text-anchor="start" x="433.5" y="-67.5" font-family="Helvetica,sans-Serif" font-size="10.00">kazoo::BinaryStream</text>
<text text-anchor="middle" x="484.5" y="-56.5" font-family="Helvetica,sans-Serif" font-size="10.00">::popBits</text>
</a>
</g>
</g>
<!-- Node4&#45;&gt;Node5 -->
<g id="edge4" class="edge">
<title>Node4&#45;&gt;Node5</title>
<path fill="none" stroke="midnightblue" d="M355.24,-63.12C374.26,-63.33 395.56,-63.56 415.25,-63.77"/>
<polygon fill="midnightblue" stroke="midnightblue" points="415.34,-67.27 425.38,-63.88 415.42,-60.27 415.34,-67.27"/>
</g>
<!-- Node6 -->
<g id="node6" class="node">
<title>Node6</title>
<g id="a_node6"><a xlink:href="classkazoo_1_1BinaryStream.html#a3a614f83199d9abd627964db2fef5f7b" target="_top" xlink:title="Get the number of bits in the stream.">
<polygon fill="none" stroke="black" points="583,-74.5 583,-104.5 701,-104.5 701,-74.5 583,-74.5"/>
<text text-anchor="start" x="591" y="-92.5" font-family="Helvetica,sans-Serif" font-size="10.00">kazoo::BinaryStream</text>
<text text-anchor="middle" x="642" y="-81.5" font-family="Helvetica,sans-Serif" font-size="10.00">::getNumBits</text>
</a>
</g>
</g>
<!-- Node5&#45;&gt;Node6 -->
<g id="edge5" class="edge">
<title>Node5&#45;&gt;Node6</title>
<path fill="none" stroke="midnightblue" d="M543.84,-73.88C553.31,-75.4 563.19,-76.99 572.86,-78.55"/>
<polygon fill="midnightblue" stroke="midnightblue" points="572.42,-82.02 582.85,-80.15 573.53,-75.11 572.42,-82.02"/>
</g>
<!-- Node10 -->
<g id="node10" class="node">
<title>Node10</title>
<g id="a_node10"><a xlink:href="classkazoo_1_1BinaryStream.html#a82de69510e248576ea64a328979a9f48" target="_top" xlink:title=" ">
<polygon fill="none" stroke="black" points="583,-25.5 583,-55.5 701,-55.5 701,-25.5 583,-25.5"/>
<text text-anchor="start" x="591" y="-43.5" font-family="Helvetica,sans-Serif" font-size="10.00">kazoo::BinaryStream</text>
<text text-anchor="middle" x="642" y="-32.5" font-family="Helvetica,sans-Serif" font-size="10.00">::popBit</text>
</a>
</g>
</g>
<!-- Node5&#45;&gt;Node10 -->
<g id="edge9" class="edge">
<title>Node5&#45;&gt;Node10</title>
<path fill="none" stroke="midnightblue" d="M543.84,-55.5C553.31,-54.03 563.19,-52.51 572.86,-51.02"/>
<polygon fill="midnightblue" stroke="midnightblue" points="573.5,-54.46 582.85,-49.48 572.43,-47.54 573.5,-54.46"/>
</g>
<!-- Node7 -->
<g id="node7" class="node">
<title>Node7</title>
<g id="a_node7"><a xlink:href="classkazoo_1_1BinaryStream.html#aada16bde376a41419737c7177612a521" target="_top" xlink:title="If adding bits, this will return the number of bits that can be added to the stream before the stream...">
<polygon fill="none" stroke="black" points="748.5,-98.5 748.5,-128.5 883.5,-128.5 883.5,-98.5 748.5,-98.5"/>
<text text-anchor="start" x="756.5" y="-116.5" font-family="Helvetica,sans-Serif" font-size="10.00">kazoo::BinaryStream</text>
<text text-anchor="middle" x="816" y="-105.5" font-family="Helvetica,sans-Serif" font-size="10.00">::getInputBitBufferSpace</text>
</a>
</g>
</g>
<!-- Node6&#45;&gt;Node7 -->
<g id="edge6" class="edge">
<title>Node6&#45;&gt;Node7</title>
<path fill="none" stroke="midnightblue" d="M701.23,-97.63C713.15,-99.29 725.87,-101.06 738.32,-102.8"/>
<polygon fill="midnightblue" stroke="midnightblue" points="737.84,-106.27 748.23,-104.18 738.81,-99.33 737.84,-106.27"/>
</g>
<!-- Node8 -->
<g id="node8" class="node">
<title>Node8</title>
<g id="a_node8"><a xlink:href="classkazoo_1_1BinaryStream.html#a12a1666a4c0b0ddfdc512a50f09f5975" target="_top" xlink:title=" ">
<polygon fill="none" stroke="black" points="737,-49.5 737,-79.5 895,-79.5 895,-49.5 737,-49.5"/>
<text text-anchor="start" x="745" y="-67.5" font-family="Helvetica,sans-Serif" font-size="10.00">kazoo::BinaryStream</text>
<text text-anchor="middle" x="816" y="-56.5" font-family="Helvetica,sans-Serif" font-size="10.00">::getOutputBitBufferUsedBits</text>
</a>
</g>
</g>
<!-- Node6&#45;&gt;Node8 -->
<g id="edge7" class="edge">
<title>Node6&#45;&gt;Node8</title>
<path fill="none" stroke="midnightblue" d="M701.23,-81.04C709.43,-79.84 718,-78.6 726.6,-77.35"/>
<polygon fill="midnightblue" stroke="midnightblue" points="727.31,-80.78 736.7,-75.88 726.3,-73.86 727.31,-80.78"/>
</g>
<!-- Node9 -->
<g id="node9" class="node">
<title>Node9</title>
<g id="a_node9"><a xlink:href="classkazoo_1_1BinaryStream.html#a32b6f202b2627b75ace2e6c9c07726aa" target="_top" xlink:title="Get the byte alignment status of the stream.">
<polygon fill="none" stroke="black" points="931,-49.5 931,-79.5 1049,-79.5 1049,-49.5 931,-49.5"/>
<text text-anchor="start" x="939" y="-67.5" font-family="Helvetica,sans-Serif" font-size="10.00">kazoo::BinaryStream</text>
<text text-anchor="middle" x="990" y="-56.5" font-family="Helvetica,sans-Serif" font-size="10.00">::isByteAligned</text>
</a>
</g>
</g>
<!-- Node8&#45;&gt;Node9 -->
<g id="edge8" class="edge">
<title>Node8&#45;&gt;Node9</title>
<path fill="none" stroke="midnightblue" d="M895.2,-64.5C903.72,-64.5 912.34,-64.5 920.72,-64.5"/>
<polygon fill="midnightblue" stroke="midnightblue" points="920.81,-68 930.81,-64.5 920.81,-61 920.81,-68"/>
</g>
<!-- Node12 -->
<g id="node12" class="node">
<title>Node12</title>
<g id="a_node12"><a xlink:href="classkazoo_1_1BinaryStream.html#a9cf1c3eb54ace654061894c7278b6d32" target="_top" xlink:title="Get a const reference to the underlying stream data.">
<polygon fill="none" stroke="black" points="422,-0.5 422,-30.5 547,-30.5 547,-0.5 422,-0.5"/>
<text text-anchor="start" x="430" y="-18.5" font-family="Helvetica,sans-Serif" font-size="10.00">kazoo::BinaryStream</text>
<text text-anchor="middle" x="484.5" y="-7.5" font-family="Helvetica,sans-Serif" font-size="10.00">::getStreamDataConst</text>
</a>
</g>
</g>
<!-- Node11&#45;&gt;Node12 -->
<g id="edge11" class="edge">
<title>Node11&#45;&gt;Node12</title>
<path fill="none" stroke="midnightblue" d="M386.15,-16.54C394.74,-16.45 403.38,-16.36 411.77,-16.27"/>
<polygon fill="midnightblue" stroke="midnightblue" points="411.9,-19.77 421.86,-16.16 411.82,-12.77 411.9,-19.77"/>
</g>
</g>
</svg>
