<?xml version="1.0" encoding="UTF-8" standalone="no"?>
<!DOCTYPE svg PUBLIC "-//W3C//DTD SVG 1.1//EN"
 "http://www.w3.org/Graphics/SVG/1.1/DTD/svg11.dtd">
<!-- Generated by graphviz version 2.43.0 (0)
 -->
<!-- Title: kazoo::ModelTester::helper_encodeStringToAudioChannel Pages: 1 -->
<svg width="689pt" height="333pt"
 viewBox="0.00 0.00 689.00 333.00" xmlns="http://www.w3.org/2000/svg" xmlns:xlink="http://www.w3.org/1999/xlink">
<g id="graph0" class="graph" transform="scale(1 1) rotate(0) translate(4 329)">
<title>kazoo::ModelTester::helper_encodeStringToAudioChannel</title>
<!-- Node1 -->
<g id="node1" class="node">
<title>Node1</title>
<g id="a_node1"><a xlink:title=" ">
<polygon fill="#bfbfbf" stroke="black" points="0,-142 0,-183 161,-183 161,-142 0,-142"/>
<text text-anchor="start" x="8" y="-171" font-family="Helvetica,sans-Serif" font-size="10.00">kazoo::ModelTester</text>
<text text-anchor="start" x="8" y="-160" font-family="Helvetica,sans-Serif" font-size="10.00">::helper_encodeStringToAudio</text>
<text text-anchor="middle" x="80.5" y="-149" font-family="Helvetica,sans-Serif" font-size="10.00">Channel</text>
</a>
</g>
</g>
<!-- Node2 -->
<g id="node2" class="node">
<title>Node2</title>
<g id="a_node2"><a xlink:href="classkazoo_1_1BinaryStream.html#a5bcef3247636f3ffd53309244c9e6a10" target="_top" xlink:title="Add bytes to the stream. If the stream is not byte aligned when this function is called,...">
<polygon fill="none" stroke="black" points="227.5,-294.5 227.5,-324.5 345.5,-324.5 345.5,-294.5 227.5,-294.5"/>
<text text-anchor="start" x="235.5" y="-312.5" font-family="Helvetica,sans-Serif" font-size="10.00">kazoo::BinaryStream</text>
<text text-anchor="middle" x="286.5" y="-301.5" font-family="Helvetica,sans-Serif" font-size="10.00">::addBytes</text>
</a>
</g>
</g>
<!-- Node1&#45;&gt;Node2 -->
<g id="edge1" class="edge">
<title>Node1&#45;&gt;Node2</title>
<path fill="none" stroke="midnightblue" d="M95.34,-183.25C114.78,-210.77 152.8,-258.96 197,-285.5 203.38,-289.33 210.38,-292.56 217.56,-295.29"/>
<polygon fill="midnightblue" stroke="midnightblue" points="216.84,-298.74 227.43,-298.7 219.12,-292.12 216.84,-298.74"/>
</g>
<!-- Node4 -->
<g id="node4" class="node">
<title>Node4</title>
<g id="a_node4"><a xlink:href="classkazoo_1_1IEncoder.html#abe1a45e3899b69dc6ce63066a4f89cc3" target="_top" xlink:title=" ">
<polygon fill="none" stroke="black" points="197,-245.5 197,-275.5 376,-275.5 376,-245.5 197,-245.5"/>
<text text-anchor="start" x="205" y="-263.5" font-family="Helvetica,sans-Serif" font-size="10.00">kazoo::IEncoder::encodeAvailable</text>
<text text-anchor="middle" x="286.5" y="-252.5" font-family="Helvetica,sans-Serif" font-size="10.00">Symbols</text>
</a>
</g>
</g>
<!-- Node1&#45;&gt;Node4 -->
<g id="edge3" class="edge">
<title>Node1&#45;&gt;Node4</title>
<path fill="none" stroke="midnightblue" d="M109.17,-183.21C131.8,-199.34 165.15,-221.3 197,-235.5 202.32,-237.87 207.93,-240.08 213.63,-242.12"/>
<polygon fill="midnightblue" stroke="midnightblue" points="212.68,-245.49 223.28,-245.39 214.93,-238.86 212.68,-245.49"/>
</g>
<!-- Node5 -->
<g id="node5" class="node">
<title>Node5</title>
<g id="a_node5"><a xlink:href="classkazoo_1_1ModelTester.html#a972ca91e756c8f5975e8d69204260f13" target="_top" xlink:title=" ">
<polygon fill="none" stroke="black" points="231.5,-196.5 231.5,-226.5 341.5,-226.5 341.5,-196.5 231.5,-196.5"/>
<text text-anchor="start" x="239.5" y="-214.5" font-family="Helvetica,sans-Serif" font-size="10.00">kazoo::ModelTester</text>
<text text-anchor="middle" x="286.5" y="-203.5" font-family="Helvetica,sans-Serif" font-size="10.00">::expectTrue</text>
</a>
</g>
</g>
<!-- Node1&#45;&gt;Node5 -->
<g id="edge4" class="edge">
<title>Node1&#45;&gt;Node5</title>
<path fill="none" stroke="midnightblue" d="M161.25,-181.66C181.23,-186.46 202.41,-191.54 221.52,-196.13"/>
<polygon fill="midnightblue" stroke="midnightblue" points="220.76,-199.55 231.3,-198.48 222.4,-192.74 220.76,-199.55"/>
</g>
<!-- Node8 -->
<g id="node8" class="node">
<title>Node8</title>
<g id="a_node8"><a xlink:href="classkazoo_1_1ISymbolStream.html#a9e3b2b62a64109d782aa7746041e7e95" target="_top" xlink:title=" ">
<polygon fill="none" stroke="black" points="223.5,-147.5 223.5,-177.5 349.5,-177.5 349.5,-147.5 223.5,-147.5"/>
<text text-anchor="start" x="231.5" y="-165.5" font-family="Helvetica,sans-Serif" font-size="10.00">kazoo::ISymbolStream</text>
<text text-anchor="middle" x="286.5" y="-154.5" font-family="Helvetica,sans-Serif" font-size="10.00">::getNumBytes</text>
</a>
</g>
</g>
<!-- Node1&#45;&gt;Node8 -->
<g id="edge7" class="edge">
<title>Node1&#45;&gt;Node8</title>
<path fill="none" stroke="midnightblue" d="M161.25,-162.5C178.37,-162.5 196.37,-162.5 213.19,-162.5"/>
<polygon fill="midnightblue" stroke="midnightblue" points="213.49,-166 223.49,-162.5 213.49,-159 213.49,-166"/>
</g>
<!-- Node9 -->
<g id="node9" class="node">
<title>Node9</title>
<g id="a_node9"><a xlink:href="classkazoo_1_1AudioChannel.html#a97d2202c18916b93bb72b4c540ba75ed" target="_top" xlink:title=" ">
<polygon fill="none" stroke="black" points="227,-98.5 227,-128.5 346,-128.5 346,-98.5 227,-98.5"/>
<text text-anchor="start" x="235" y="-116.5" font-family="Helvetica,sans-Serif" font-size="10.00">kazoo::AudioChannel</text>
<text text-anchor="middle" x="286.5" y="-105.5" font-family="Helvetica,sans-Serif" font-size="10.00">::getNumSamples</text>
</a>
</g>
</g>
<!-- Node1&#45;&gt;Node9 -->
<g id="edge8" class="edge">
<title>Node1&#45;&gt;Node9</title>
<path fill="none" stroke="midnightblue" d="M161.25,-143.34C179.73,-138.91 199.23,-134.22 217.17,-129.91"/>
<polygon fill="midnightblue" stroke="midnightblue" points="218.06,-133.3 226.96,-127.56 216.42,-126.49 218.06,-133.3"/>
</g>
<!-- Node10 -->
<g id="node10" class="node">
<title>Node10</title>
<g id="a_node10"><a xlink:href="classkazoo_1_1ISymbolModel.html#a08668909fe1a7f901fe26ad30f9a1e30" target="_top" xlink:title=" ">
<polygon fill="none" stroke="black" points="226,-49.5 226,-79.5 347,-79.5 347,-49.5 226,-49.5"/>
<text text-anchor="start" x="234" y="-67.5" font-family="Helvetica,sans-Serif" font-size="10.00">kazoo::ISymbolModel</text>
<text text-anchor="middle" x="286.5" y="-56.5" font-family="Helvetica,sans-Serif" font-size="10.00">::getSymbolBitWidth</text>
</a>
</g>
</g>
<!-- Node1&#45;&gt;Node10 -->
<g id="edge9" class="edge">
<title>Node1&#45;&gt;Node10</title>
<path fill="none" stroke="midnightblue" d="M108.62,-141.73C131.21,-125.29 164.78,-102.79 197,-88.5 203.06,-85.81 209.5,-83.36 216.02,-81.15"/>
<polygon fill="midnightblue" stroke="midnightblue" points="217.15,-84.46 225.6,-78.07 215.01,-77.79 217.15,-84.46"/>
</g>
<!-- Node11 -->
<g id="node11" class="node">
<title>Node11</title>
<g id="a_node11"><a xlink:href="classkazoo_1_1ISymbolStream.html#a5f31cbfcdd4d258dc14a0eb166a7b944" target="_top" xlink:title=" ">
<polygon fill="none" stroke="black" points="223,-0.5 223,-30.5 350,-30.5 350,-0.5 223,-0.5"/>
<text text-anchor="start" x="231" y="-18.5" font-family="Helvetica,sans-Serif" font-size="10.00">kazoo::ISymbolStream</text>
<text text-anchor="middle" x="286.5" y="-7.5" font-family="Helvetica,sans-Serif" font-size="10.00">::processBinaryStream</text>
</a>
</g>
</g>
<!-- Node1&#45;&gt;Node11 -->
<g id="edge10" class="edge">
<title>Node1&#45;&gt;Node11</title>
<path fill="none" stroke="midnightblue" d="M95.34,-141.75C114.78,-114.23 152.8,-66.04 197,-39.5 202.07,-36.45 207.53,-33.79 213.17,-31.45"/>
<polygon fill="midnightblue" stroke="midnightblue" points="214.65,-34.63 222.78,-27.83 212.18,-28.08 214.65,-34.63"/>
</g>
<!-- Node3 -->
<g id="node3" class="node">
<title>Node3</title>
<g id="a_node3"><a xlink:href="classkazoo_1_1BinaryStream.html#a32b6f202b2627b75ace2e6c9c07726aa" target="_top" xlink:title="Get the byte alignment status of the stream.">
<polygon fill="none" stroke="black" points="417,-294.5 417,-324.5 535,-324.5 535,-294.5 417,-294.5"/>
<text text-anchor="start" x="425" y="-312.5" font-family="Helvetica,sans-Serif" font-size="10.00">kazoo::BinaryStream</text>
<text text-anchor="middle" x="476" y="-301.5" font-family="Helvetica,sans-Serif" font-size="10.00">::isByteAligned</text>
</a>
</g>
</g>
<!-- Node2&#45;&gt;Node3 -->
<g id="edge2" class="edge">
<title>Node2&#45;&gt;Node3</title>
<path fill="none" stroke="midnightblue" d="M345.54,-309.5C364.96,-309.5 386.77,-309.5 406.88,-309.5"/>
<polygon fill="midnightblue" stroke="midnightblue" points="406.91,-313 416.91,-309.5 406.91,-306 406.91,-313"/>
</g>
<!-- Node6 -->
<g id="node6" class="node">
<title>Node6</title>
<g id="a_node6"><a xlink:href="classkazoo_1_1Logger.html#add67bfbca917a0cb6c9b4424c79eefeb" target="_top" xlink:title=" ">
<polygon fill="none" stroke="black" points="412,-202 412,-221 540,-221 540,-202 412,-202"/>
<text text-anchor="middle" x="476" y="-209" font-family="Helvetica,sans-Serif" font-size="10.00">kazoo::Logger::logError</text>
</a>
</g>
</g>
<!-- Node5&#45;&gt;Node6 -->
<g id="edge5" class="edge">
<title>Node5&#45;&gt;Node6</title>
<path fill="none" stroke="midnightblue" d="M341.73,-211.5C360.52,-211.5 381.89,-211.5 401.93,-211.5"/>
<polygon fill="midnightblue" stroke="midnightblue" points="401.96,-215 411.96,-211.5 401.96,-208 401.96,-215"/>
</g>
<!-- Node7 -->
<g id="node7" class="node">
<title>Node7</title>
<g id="a_node7"><a xlink:href="classkazoo_1_1Logger.html#ab69883e34a35febd7597c646022ca0cb" target="_top" xlink:title=" ">
<polygon fill="none" stroke="black" points="576,-202 576,-221 681,-221 681,-202 576,-202"/>
<text text-anchor="middle" x="628.5" y="-209" font-family="Helvetica,sans-Serif" font-size="10.00">kazoo::Logger::log</text>
</a>
</g>
</g>
<!-- Node6&#45;&gt;Node7 -->
<g id="edge6" class="edge">
<title>Node6&#45;&gt;Node7</title>
<path fill="none" stroke="midnightblue" d="M540.39,-211.5C548.73,-211.5 557.27,-211.5 565.58,-211.5"/>
<polygon fill="midnightblue" stroke="midnightblue" points="565.58,-215 575.58,-211.5 565.58,-208 565.58,-215"/>
</g>
</g>
</svg>
