<?xml version="1.0" encoding="UTF-8" standalone="no"?>
<!DOCTYPE svg PUBLIC "-//W3C//DTD SVG 1.1//EN"
 "http://www.w3.org/Graphics/SVG/1.1/DTD/svg11.dtd">
<!-- Generated by graphviz version 2.43.0 (0)
 -->
<!-- Title: kazoo::Deframer::findFrameData Pages: 1 -->
<svg width="758pt" height="97pt"
 viewBox="0.00 0.00 758.00 96.50" xmlns="http://www.w3.org/2000/svg" xmlns:xlink="http://www.w3.org/1999/xlink">
<g id="graph0" class="graph" transform="scale(1 1) rotate(0) translate(4 92.5)">
<title>kazoo::Deframer::findFrameData</title>
<!-- Node1 -->
<g id="node1" class="node">
<title>Node1</title>
<g id="a_node1"><a xlink:title=" ">
<polygon fill="#bfbfbf" stroke="black" points="574,-0.5 574,-19.5 750,-19.5 750,-0.5 574,-0.5"/>
<text text-anchor="middle" x="662" y="-7.5" font-family="Helvetica,sans-Serif" font-size="10.00">kazoo::Deframer::findFrameData</text>
</a>
</g>
</g>
<!-- Node2 -->
<g id="node2" class="node">
<title>Node2</title>
<g id="a_node2"><a xlink:href="classkazoo_1_1Deframer.html#a79d8b406e773fdc32d7c5002b9e37e2b" target="_top" xlink:title=" ">
<polygon fill="none" stroke="black" points="365,-19.5 365,-38.5 538,-38.5 538,-19.5 365,-19.5"/>
<text text-anchor="middle" x="451.5" y="-26.5" font-family="Helvetica,sans-Serif" font-size="10.00">kazoo::Deframer::findFrameSize</text>
</a>
</g>
</g>
<!-- Node1&#45;&gt;Node2 -->
<g id="edge1" class="edge">
<title>Node1&#45;&gt;Node2</title>
<path fill="none" stroke="midnightblue" d="M563.75,-18.86C555.16,-19.64 546.51,-20.43 538.03,-21.21"/>
<polygon fill="midnightblue" stroke="midnightblue" points="564.14,-22.34 573.79,-17.95 563.51,-15.37 564.14,-22.34"/>
</g>
<!-- Node4 -->
<g id="node4" class="node">
<title>Node4</title>
<g id="a_node4"><a xlink:href="classkazoo_1_1Deframer.html#a742de19b3ca490d3faabfcbb64785998" target="_top" xlink:title="Process the input binary stream in a stateful manner to extract frames from sequential stream inputs.">
<polygon fill="none" stroke="black" points="0,-14 0,-44 141,-44 141,-14 0,-14"/>
<text text-anchor="start" x="8" y="-32" font-family="Helvetica,sans-Serif" font-size="10.00">kazoo::Deframer::process</text>
<text text-anchor="middle" x="70.5" y="-21" font-family="Helvetica,sans-Serif" font-size="10.00">Input</text>
</a>
</g>
</g>
<!-- Node1&#45;&gt;Node4 -->
<g id="edge5" class="edge">
<title>Node1&#45;&gt;Node4</title>
<path fill="none" stroke="midnightblue" d="M563.66,-8.42C505.91,-7.87 431.26,-7.86 365,-10 288.32,-12.48 200.55,-18.59 141.12,-23.22"/>
<polygon fill="midnightblue" stroke="midnightblue" points="563.84,-11.92 573.87,-8.52 563.91,-4.92 563.84,-11.92"/>
</g>
<!-- Node3 -->
<g id="node3" class="node">
<title>Node3</title>
<g id="a_node3"><a xlink:href="classkazoo_1_1Deframer.html#a7dc1caffad1ffe4925a3e13d8d125024" target="_top" xlink:title=" ">
<polygon fill="none" stroke="black" points="177,-58 177,-88 329,-88 329,-58 177,-58"/>
<text text-anchor="start" x="185" y="-76" font-family="Helvetica,sans-Serif" font-size="10.00">kazoo::Deframer::findFrame</text>
<text text-anchor="middle" x="253" y="-65" font-family="Helvetica,sans-Serif" font-size="10.00">Start</text>
</a>
</g>
</g>
<!-- Node2&#45;&gt;Node3 -->
<g id="edge2" class="edge">
<title>Node2&#45;&gt;Node3</title>
<path fill="none" stroke="midnightblue" d="M398.06,-40.74C374.49,-46.02 346.38,-52.31 321.28,-57.93"/>
<polygon fill="midnightblue" stroke="midnightblue" points="398.87,-44.15 407.86,-38.55 397.34,-37.32 398.87,-44.15"/>
</g>
<!-- Node2&#45;&gt;Node4 -->
<g id="edge4" class="edge">
<title>Node2&#45;&gt;Node4</title>
<path fill="none" stroke="midnightblue" d="M354.9,-29C288.38,-29 201.2,-29 141.2,-29"/>
<polygon fill="midnightblue" stroke="midnightblue" points="354.97,-32.5 364.97,-29 354.97,-25.5 354.97,-32.5"/>
</g>
<!-- Node3&#45;&gt;Node4 -->
<g id="edge3" class="edge">
<title>Node3&#45;&gt;Node4</title>
<path fill="none" stroke="midnightblue" d="M180.27,-55.51C164.67,-51.71 148.31,-47.72 133.14,-44.03"/>
<polygon fill="midnightblue" stroke="midnightblue" points="179.84,-59.01 190.39,-57.98 181.5,-52.21 179.84,-59.01"/>
</g>
</g>
</svg>
