<?xml version="1.0" encoding="UTF-8" standalone="no"?>
<!DOCTYPE svg PUBLIC "-//W3C//DTD SVG 1.1//EN"
 "http://www.w3.org/Graphics/SVG/1.1/DTD/svg11.dtd">
<!-- Generated by graphviz version 2.43.0 (0)
 -->
<!-- Title: sock::TcpSocketServer::listen Pages: 1 -->
<svg width="508pt" height="57pt"
 viewBox="0.00 0.00 508.00 57.00" xmlns="http://www.w3.org/2000/svg" xmlns:xlink="http://www.w3.org/1999/xlink">
<g id="graph0" class="graph" transform="scale(1 1) rotate(0) translate(4 53)">
<title>sock::TcpSocketServer::listen</title>
<!-- Node1 -->
<g id="node1" class="node">
<title>Node1</title>
<g id="a_node1"><a xlink:title=" ">
<polygon fill="#bfbfbf" stroke="black" points="375,-0.5 375,-30.5 500,-30.5 500,-0.5 375,-0.5"/>
<text text-anchor="start" x="383" y="-18.5" font-family="Helvetica,sans-Serif" font-size="10.00">sock::TcpSocketServer</text>
<text text-anchor="middle" x="437.5" y="-7.5" font-family="Helvetica,sans-Serif" font-size="10.00">::listen</text>
</a>
</g>
</g>
<!-- Node1&#45;&gt;Node1 -->
<g id="edge4" class="edge">
<title>Node1&#45;&gt;Node1</title>
<path fill="none" stroke="midnightblue" d="M465.93,-40.96C462.4,-45.68 452.92,-49 437.5,-49 412.19,-49 402.89,-40.06 409.62,-30.66"/>
<polygon fill="midnightblue" stroke="midnightblue" points="469.41,-40.46 465.38,-30.66 462.42,-40.83 469.41,-40.46"/>
</g>
<!-- Node2 -->
<g id="node2" class="node">
<title>Node2</title>
<g id="a_node2"><a xlink:href="classsock_1_1TcpSocketServer.html#ae131e7d5b2827144d018f1482ab316cc" target="_top" xlink:title=" ">
<polygon fill="none" stroke="black" points="214,-0.5 214,-30.5 339,-30.5 339,-0.5 214,-0.5"/>
<text text-anchor="start" x="222" y="-18.5" font-family="Helvetica,sans-Serif" font-size="10.00">sock::TcpSocketServer</text>
<text text-anchor="middle" x="276.5" y="-7.5" font-family="Helvetica,sans-Serif" font-size="10.00">::init</text>
</a>
</g>
</g>
<!-- Node1&#45;&gt;Node2 -->
<g id="edge1" class="edge">
<title>Node1&#45;&gt;Node2</title>
<path fill="none" stroke="midnightblue" d="M364.41,-15.5C356.01,-15.5 347.5,-15.5 339.26,-15.5"/>
<polygon fill="midnightblue" stroke="midnightblue" points="364.57,-19 374.57,-15.5 364.57,-12 364.57,-19"/>
</g>
<!-- Node3 -->
<g id="node3" class="node">
<title>Node3</title>
<g id="a_node3"><a xlink:href="src_2kazoo__connect__server_2main_8cpp.html#a3569f5249387954388ba619b8e21009b" target="_top" xlink:title="One of the HTTP servers of all time.">
<polygon fill="none" stroke="black" points="77,-6 77,-25 178,-25 178,-6 77,-6"/>
<text text-anchor="middle" x="127.5" y="-13" font-family="Helvetica,sans-Serif" font-size="10.00">httpServerThread</text>
</a>
</g>
</g>
<!-- Node2&#45;&gt;Node3 -->
<g id="edge2" class="edge">
<title>Node2&#45;&gt;Node3</title>
<path fill="none" stroke="midnightblue" d="M203.31,-15.5C194.85,-15.5 186.36,-15.5 178.3,-15.5"/>
<polygon fill="midnightblue" stroke="midnightblue" points="203.58,-19 213.58,-15.5 203.58,-12 203.58,-19"/>
</g>
<!-- Node4 -->
<g id="node4" class="node">
<title>Node4</title>
<g id="a_node4"><a xlink:href="src_2kazoo__connect__server_2main_8cpp.html#ae66f6b31b5ad750f1fe042a706a4e3d4" target="_top" xlink:title=" ">
<polygon fill="none" stroke="black" points="0,-6 0,-25 41,-25 41,-6 0,-6"/>
<text text-anchor="middle" x="20.5" y="-13" font-family="Helvetica,sans-Serif" font-size="10.00">main</text>
</a>
</g>
</g>
<!-- Node3&#45;&gt;Node4 -->
<g id="edge3" class="edge">
<title>Node3&#45;&gt;Node4</title>
<path fill="none" stroke="midnightblue" d="M66.72,-15.5C57.53,-15.5 48.64,-15.5 41.2,-15.5"/>
<polygon fill="midnightblue" stroke="midnightblue" points="66.77,-19 76.77,-15.5 66.77,-12 66.77,-19"/>
</g>
</g>
</svg>
