<?xml version="1.0" encoding="UTF-8" standalone="no"?>
<!DOCTYPE svg PUBLIC "-//W3C//DTD SVG 1.1//EN"
 "http://www.w3.org/Graphics/SVG/1.1/DTD/svg11.dtd">
<!-- Generated by graphviz version 2.43.0 (0)
 -->
<!-- Title: kazoo::TranslationLayer::addData Pages: 1 -->
<svg width="966pt" height="295pt"
 viewBox="0.00 0.00 966.00 294.65" xmlns="http://www.w3.org/2000/svg" xmlns:xlink="http://www.w3.org/1999/xlink">
<g id="graph0" class="graph" transform="scale(1 1) rotate(0) translate(4 290.65)">
<title>kazoo::TranslationLayer::addData</title>
<!-- Node1 -->
<g id="node1" class="node">
<title>Node1</title>
<g id="a_node1"><a xlink:title="Takes input data and processes it through the symbol stream.">
<polygon fill="#bfbfbf" stroke="black" points="0,-198.27 0,-228.27 131,-228.27 131,-198.27 0,-198.27"/>
<text text-anchor="start" x="8" y="-216.27" font-family="Helvetica,sans-Serif" font-size="10.00">kazoo::TranslationLayer</text>
<text text-anchor="middle" x="65.5" y="-205.27" font-family="Helvetica,sans-Serif" font-size="10.00">::addData</text>
</a>
</g>
</g>
<!-- Node2 -->
<g id="node2" class="node">
<title>Node2</title>
<g id="a_node2"><a xlink:href="classkazoo_1_1BinaryStream.html#a5bcef3247636f3ffd53309244c9e6a10" target="_top" xlink:title="Add bytes to the stream. If the stream is not byte aligned when this function is called,...">
<polygon fill="none" stroke="black" points="666,-248.27 666,-278.27 784,-278.27 784,-248.27 666,-248.27"/>
<text text-anchor="start" x="674" y="-266.27" font-family="Helvetica,sans-Serif" font-size="10.00">kazoo::BinaryStream</text>
<text text-anchor="middle" x="725" y="-255.27" font-family="Helvetica,sans-Serif" font-size="10.00">::addBytes</text>
</a>
</g>
</g>
<!-- Node1&#45;&gt;Node2 -->
<g id="edge1" class="edge">
<title>Node1&#45;&gt;Node2</title>
<path fill="none" stroke="midnightblue" d="M99.9,-228.42C119.19,-236.7 144.1,-246.6 167,-253.27 289.76,-289.01 325.24,-289.21 453,-284.27 522.11,-281.59 600.9,-275.1 655.65,-270.03"/>
<polygon fill="midnightblue" stroke="midnightblue" points="656.29,-273.49 665.93,-269.07 655.64,-266.52 656.29,-273.49"/>
</g>
<!-- Node4 -->
<g id="node4" class="node">
<title>Node4</title>
<g id="a_node4"><a xlink:href="classkazoo_1_1BinaryStream.html#a3a614f83199d9abd627964db2fef5f7b" target="_top" xlink:title="Get the number of bits in the stream.">
<polygon fill="none" stroke="black" points="490.5,-46.27 490.5,-76.27 608.5,-76.27 608.5,-46.27 490.5,-46.27"/>
<text text-anchor="start" x="498.5" y="-64.27" font-family="Helvetica,sans-Serif" font-size="10.00">kazoo::BinaryStream</text>
<text text-anchor="middle" x="549.5" y="-53.27" font-family="Helvetica,sans-Serif" font-size="10.00">::getNumBits</text>
</a>
</g>
</g>
<!-- Node1&#45;&gt;Node4 -->
<g id="edge3" class="edge">
<title>Node1&#45;&gt;Node4</title>
<path fill="none" stroke="midnightblue" d="M79.01,-198.13C113.66,-157.59 215.92,-47.2 330,-11.27 382.14,5.16 399.92,1.79 453,-11.27 476.21,-16.97 500.04,-29.43 518.08,-40.49"/>
<polygon fill="midnightblue" stroke="midnightblue" points="516.64,-43.71 526.96,-46.1 520.38,-37.8 516.64,-43.71"/>
</g>
<!-- Node7 -->
<g id="node7" class="node">
<title>Node7</title>
<g id="a_node7"><a xlink:href="classkazoo_1_1SymbolStream.html#a5eb190a46e077143f1abcaf2211a0ad0" target="_top" xlink:title=" ">
<polygon fill="none" stroke="black" points="169,-214.27 169,-244.27 292,-244.27 292,-214.27 169,-214.27"/>
<text text-anchor="start" x="177" y="-232.27" font-family="Helvetica,sans-Serif" font-size="10.00">kazoo::SymbolStream</text>
<text text-anchor="middle" x="230.5" y="-221.27" font-family="Helvetica,sans-Serif" font-size="10.00">::getNumBytes</text>
</a>
</g>
</g>
<!-- Node1&#45;&gt;Node7 -->
<g id="edge7" class="edge">
<title>Node1&#45;&gt;Node7</title>
<path fill="none" stroke="midnightblue" d="M131.39,-219.64C140.36,-220.52 149.6,-221.42 158.67,-222.31"/>
<polygon fill="midnightblue" stroke="midnightblue" points="158.51,-225.81 168.81,-223.31 159.2,-218.85 158.51,-225.81"/>
</g>
<!-- Node10 -->
<g id="node10" class="node">
<title>Node10</title>
<g id="a_node10"><a xlink:href="classkazoo_1_1SymbolStream.html#a483b690f6e07727669434375cbb23586" target="_top" xlink:title="Process a binary stream and convert it to symbols, removing the bits from the binary stream.">
<polygon fill="none" stroke="black" points="167,-135.27 167,-165.27 294,-165.27 294,-135.27 167,-135.27"/>
<text text-anchor="start" x="175" y="-153.27" font-family="Helvetica,sans-Serif" font-size="10.00">kazoo::SymbolStream</text>
<text text-anchor="middle" x="230.5" y="-142.27" font-family="Helvetica,sans-Serif" font-size="10.00">::processBinaryStream</text>
</a>
</g>
</g>
<!-- Node1&#45;&gt;Node10 -->
<g id="edge10" class="edge">
<title>Node1&#45;&gt;Node10</title>
<path fill="none" stroke="midnightblue" d="M105.54,-198.18C128.24,-189.4 157.04,-178.27 181.16,-168.95"/>
<polygon fill="midnightblue" stroke="midnightblue" points="182.43,-172.21 190.49,-165.34 179.9,-165.68 182.43,-172.21"/>
</g>
<!-- Node3 -->
<g id="node3" class="node">
<title>Node3</title>
<g id="a_node3"><a xlink:href="classkazoo_1_1BinaryStream.html#a32b6f202b2627b75ace2e6c9c07726aa" target="_top" xlink:title="Get the byte alignment status of the stream.">
<polygon fill="none" stroke="black" points="840,-163.27 840,-193.27 958,-193.27 958,-163.27 840,-163.27"/>
<text text-anchor="start" x="848" y="-181.27" font-family="Helvetica,sans-Serif" font-size="10.00">kazoo::BinaryStream</text>
<text text-anchor="middle" x="899" y="-170.27" font-family="Helvetica,sans-Serif" font-size="10.00">::isByteAligned</text>
</a>
</g>
</g>
<!-- Node2&#45;&gt;Node3 -->
<g id="edge2" class="edge">
<title>Node2&#45;&gt;Node3</title>
<path fill="none" stroke="midnightblue" d="M756.35,-248.26C784.67,-234.27 827.1,-213.31 858.13,-197.97"/>
<polygon fill="midnightblue" stroke="midnightblue" points="859.96,-200.97 867.37,-193.4 856.85,-194.69 859.96,-200.97"/>
</g>
<!-- Node5 -->
<g id="node5" class="node">
<title>Node5</title>
<g id="a_node5"><a xlink:href="classkazoo_1_1BinaryStream.html#aada16bde376a41419737c7177612a521" target="_top" xlink:title="If adding bits, this will return the number of bits that can be added to the stream before the stream...">
<polygon fill="none" stroke="black" points="657.5,-95.27 657.5,-125.27 792.5,-125.27 792.5,-95.27 657.5,-95.27"/>
<text text-anchor="start" x="665.5" y="-113.27" font-family="Helvetica,sans-Serif" font-size="10.00">kazoo::BinaryStream</text>
<text text-anchor="middle" x="725" y="-102.27" font-family="Helvetica,sans-Serif" font-size="10.00">::getInputBitBufferSpace</text>
</a>
</g>
</g>
<!-- Node4&#45;&gt;Node5 -->
<g id="edge4" class="edge">
<title>Node4&#45;&gt;Node5</title>
<path fill="none" stroke="midnightblue" d="M603.97,-76.37C622.03,-81.47 642.36,-87.21 661.08,-92.5"/>
<polygon fill="midnightblue" stroke="midnightblue" points="660.13,-95.86 670.71,-95.21 662.03,-89.13 660.13,-95.86"/>
</g>
<!-- Node6 -->
<g id="node6" class="node">
<title>Node6</title>
<g id="a_node6"><a xlink:href="classkazoo_1_1BinaryStream.html#a12a1666a4c0b0ddfdc512a50f09f5975" target="_top" xlink:title=" ">
<polygon fill="none" stroke="black" points="646,-46.27 646,-76.27 804,-76.27 804,-46.27 646,-46.27"/>
<text text-anchor="start" x="654" y="-64.27" font-family="Helvetica,sans-Serif" font-size="10.00">kazoo::BinaryStream</text>
<text text-anchor="middle" x="725" y="-53.27" font-family="Helvetica,sans-Serif" font-size="10.00">::getOutputBitBufferUsedBits</text>
</a>
</g>
</g>
<!-- Node4&#45;&gt;Node6 -->
<g id="edge5" class="edge">
<title>Node4&#45;&gt;Node6</title>
<path fill="none" stroke="midnightblue" d="M608.76,-61.27C617.41,-61.27 626.49,-61.27 635.6,-61.27"/>
<polygon fill="midnightblue" stroke="midnightblue" points="635.86,-64.77 645.86,-61.27 635.86,-57.77 635.86,-64.77"/>
</g>
<!-- Node6&#45;&gt;Node3 -->
<g id="edge6" class="edge">
<title>Node6&#45;&gt;Node3</title>
<path fill="none" stroke="midnightblue" d="M785.65,-76.3C792.04,-78.87 798.29,-81.85 804,-85.27 834.78,-103.69 863.01,-134.27 880.33,-155.3"/>
<polygon fill="midnightblue" stroke="midnightblue" points="877.63,-157.53 886.63,-163.12 883.08,-153.14 877.63,-157.53"/>
</g>
<!-- Node8 -->
<g id="node8" class="node">
<title>Node8</title>
<g id="a_node8"><a xlink:href="classkazoo_1_1SymbolStream.html#a1276660b16a23ea24bd024fd8ba72b57" target="_top" xlink:title=" ">
<polygon fill="none" stroke="black" points="330,-245.27 330,-275.27 453,-275.27 453,-245.27 330,-245.27"/>
<text text-anchor="start" x="338" y="-263.27" font-family="Helvetica,sans-Serif" font-size="10.00">kazoo::SymbolStream</text>
<text text-anchor="middle" x="391.5" y="-252.27" font-family="Helvetica,sans-Serif" font-size="10.00">::getNumBits</text>
</a>
</g>
</g>
<!-- Node7&#45;&gt;Node8 -->
<g id="edge8" class="edge">
<title>Node7&#45;&gt;Node8</title>
<path fill="none" stroke="midnightblue" d="M292.06,-241.07C301.15,-242.85 310.59,-244.69 319.86,-246.49"/>
<polygon fill="midnightblue" stroke="midnightblue" points="319.36,-249.96 329.84,-248.44 320.7,-243.09 319.36,-249.96"/>
</g>
<!-- Node9 -->
<g id="node9" class="node">
<title>Node9</title>
<g id="a_node9"><a xlink:href="classkazoo_1_1ISymbolModel.html#a08668909fe1a7f901fe26ad30f9a1e30" target="_top" xlink:title=" ">
<polygon fill="none" stroke="black" points="489,-226.27 489,-256.27 610,-256.27 610,-226.27 489,-226.27"/>
<text text-anchor="start" x="497" y="-244.27" font-family="Helvetica,sans-Serif" font-size="10.00">kazoo::ISymbolModel</text>
<text text-anchor="middle" x="549.5" y="-233.27" font-family="Helvetica,sans-Serif" font-size="10.00">::getSymbolBitWidth</text>
</a>
</g>
</g>
<!-- Node8&#45;&gt;Node9 -->
<g id="edge9" class="edge">
<title>Node8&#45;&gt;Node9</title>
<path fill="none" stroke="midnightblue" d="M453.26,-252.87C461.68,-251.84 470.39,-250.78 478.96,-249.74"/>
<polygon fill="midnightblue" stroke="midnightblue" points="479.43,-253.2 488.93,-248.52 478.58,-246.26 479.43,-253.2"/>
</g>
<!-- Node10&#45;&gt;Node3 -->
<g id="edge14" class="edge">
<title>Node10&#45;&gt;Node3</title>
<path fill="none" stroke="midnightblue" d="M294.26,-155.8C306.13,-156.72 318.44,-157.59 330,-158.27 510.18,-168.75 722.85,-174.46 829.6,-176.87"/>
<polygon fill="midnightblue" stroke="midnightblue" points="829.83,-180.38 839.9,-177.1 829.98,-173.38 829.83,-180.38"/>
</g>
<!-- Node10&#45;&gt;Node9 -->
<g id="edge12" class="edge">
<title>Node10&#45;&gt;Node9</title>
<path fill="none" stroke="midnightblue" d="M262.88,-165.38C281.96,-174.14 307,-184.85 330,-192.27 378.92,-208.03 435.58,-220.58 478.95,-229.03"/>
<polygon fill="midnightblue" stroke="midnightblue" points="478.35,-232.48 488.83,-230.93 479.67,-225.61 478.35,-232.48"/>
</g>
<!-- Node11 -->
<g id="node11" class="node">
<title>Node11</title>
<g id="a_node11"><a xlink:href="classkazoo_1_1BinaryStream.html#af26ef358b4ddbd2f0a7f9d94d1b64357" target="_top" xlink:title="Get the number of bytes in the stream. If the stream has spare bits that do not align to a byte,...">
<polygon fill="none" stroke="black" points="332.5,-119.27 332.5,-149.27 450.5,-149.27 450.5,-119.27 332.5,-119.27"/>
<text text-anchor="start" x="340.5" y="-137.27" font-family="Helvetica,sans-Serif" font-size="10.00">kazoo::BinaryStream</text>
<text text-anchor="middle" x="391.5" y="-126.27" font-family="Helvetica,sans-Serif" font-size="10.00">::getNumBytes</text>
</a>
</g>
</g>
<!-- Node10&#45;&gt;Node11 -->
<g id="edge11" class="edge">
<title>Node10&#45;&gt;Node11</title>
<path fill="none" stroke="midnightblue" d="M294.34,-143.94C303.52,-143.02 313.01,-142.06 322.29,-141.13"/>
<polygon fill="midnightblue" stroke="midnightblue" points="322.65,-144.61 332.25,-140.13 321.95,-137.65 322.65,-144.61"/>
</g>
<!-- Node12 -->
<g id="node12" class="node">
<title>Node12</title>
<g id="a_node12"><a xlink:href="classkazoo_1_1ISymbolModel.html#acc7c190376b422d6a6f8a28a2a7445f0" target="_top" xlink:title=" ">
<polygon fill="none" stroke="black" points="331,-21.27 331,-51.27 452,-51.27 452,-21.27 331,-21.27"/>
<text text-anchor="start" x="339" y="-39.27" font-family="Helvetica,sans-Serif" font-size="10.00">kazoo::ISymbolModel</text>
<text text-anchor="middle" x="391.5" y="-28.27" font-family="Helvetica,sans-Serif" font-size="10.00">::getSymbolId</text>
</a>
</g>
</g>
<!-- Node10&#45;&gt;Node12 -->
<g id="edge13" class="edge">
<title>Node10&#45;&gt;Node12</title>
<path fill="none" stroke="midnightblue" d="M244.83,-135.06C262.6,-115.54 295.83,-81.64 330,-60.27 332.47,-58.72 335.06,-57.24 337.71,-55.84"/>
<polygon fill="midnightblue" stroke="midnightblue" points="339.48,-58.87 346.92,-51.32 336.4,-52.58 339.48,-58.87"/>
</g>
<!-- Node13 -->
<g id="node13" class="node">
<title>Node13</title>
<g id="a_node13"><a xlink:href="classkazoo_1_1BinaryStream.html#a745b2acb522d69e283dd5df14500016b" target="_top" xlink:title="Pop bits off the front, effectively the inverse of addBits.">
<polygon fill="none" stroke="black" points="332.5,-70.27 332.5,-100.27 450.5,-100.27 450.5,-70.27 332.5,-70.27"/>
<text text-anchor="start" x="340.5" y="-88.27" font-family="Helvetica,sans-Serif" font-size="10.00">kazoo::BinaryStream</text>
<text text-anchor="middle" x="391.5" y="-77.27" font-family="Helvetica,sans-Serif" font-size="10.00">::popBits</text>
</a>
</g>
</g>
<!-- Node10&#45;&gt;Node13 -->
<g id="edge15" class="edge">
<title>Node10&#45;&gt;Node13</title>
<path fill="none" stroke="midnightblue" d="M267.46,-135.13C286.1,-127.33 309.24,-117.7 330,-109.27 334.18,-107.57 338.52,-105.82 342.88,-104.07"/>
<polygon fill="midnightblue" stroke="midnightblue" points="344.39,-107.24 352.38,-100.28 341.79,-100.73 344.39,-107.24"/>
</g>
<!-- Node13&#45;&gt;Node4 -->
<g id="edge16" class="edge">
<title>Node13&#45;&gt;Node4</title>
<path fill="none" stroke="midnightblue" d="M450.59,-76.33C460.23,-74.85 470.31,-73.29 480.18,-71.78"/>
<polygon fill="midnightblue" stroke="midnightblue" points="481.01,-75.19 490.36,-70.21 479.95,-68.27 481.01,-75.19"/>
</g>
<!-- Node14 -->
<g id="node14" class="node">
<title>Node14</title>
<g id="a_node14"><a xlink:href="classkazoo_1_1BinaryStream.html#a82de69510e248576ea64a328979a9f48" target="_top" xlink:title=" ">
<polygon fill="none" stroke="black" points="490.5,-95.27 490.5,-125.27 608.5,-125.27 608.5,-95.27 490.5,-95.27"/>
<text text-anchor="start" x="498.5" y="-113.27" font-family="Helvetica,sans-Serif" font-size="10.00">kazoo::BinaryStream</text>
<text text-anchor="middle" x="549.5" y="-102.27" font-family="Helvetica,sans-Serif" font-size="10.00">::popBit</text>
</a>
</g>
</g>
<!-- Node13&#45;&gt;Node14 -->
<g id="edge17" class="edge">
<title>Node13&#45;&gt;Node14</title>
<path fill="none" stroke="midnightblue" d="M450.59,-94.57C460.23,-96.12 470.31,-97.74 480.18,-99.32"/>
<polygon fill="midnightblue" stroke="midnightblue" points="479.93,-102.82 490.36,-100.95 481.04,-95.91 479.93,-102.82"/>
</g>
</g>
</svg>
