<?xml version="1.0" encoding="UTF-8" standalone="no"?>
<!DOCTYPE svg PUBLIC "-//W3C//DTD SVG 1.1//EN"
 "http://www.w3.org/Graphics/SVG/1.1/DTD/svg11.dtd">
<!-- Generated by graphviz version 2.43.0 (0)
 -->
<!-- Title: kazoo::BinaryStream Pages: 1 -->
<svg width="242pt" height="314pt"
 viewBox="0.00 0.00 241.50 314.00" xmlns="http://www.w3.org/2000/svg" xmlns:xlink="http://www.w3.org/1999/xlink">
<g id="graph0" class="graph" transform="scale(1 1) rotate(0) translate(4 310)">
<title>kazoo::BinaryStream</title>
<!-- Node1 -->
<g id="node1" class="node">
<title>Node1</title>
<g id="a_node1"><a xlink:title="A bit/byte stream structure for the project.">
<polygon fill="#bfbfbf" stroke="black" points="14.5,-0.5 14.5,-167.5 184.5,-167.5 184.5,-0.5 14.5,-0.5"/>
<text text-anchor="middle" x="99.5" y="-155.5" font-family="Helvetica,sans-Serif" font-size="10.00">kazoo::BinaryStream</text>
<polyline fill="none" stroke="black" points="14.5,-148.5 184.5,-148.5 "/>
<text text-anchor="middle" x="99.5" y="-136.5" font-family="Helvetica,sans-Serif" font-size="10.00"> </text>
<polyline fill="none" stroke="black" points="14.5,-129.5 184.5,-129.5 "/>
<text text-anchor="start" x="22.5" y="-117.5" font-family="Helvetica,sans-Serif" font-size="10.00">+ BinaryStream()</text>
<text text-anchor="start" x="22.5" y="-106.5" font-family="Helvetica,sans-Serif" font-size="10.00">+ addBit()</text>
<text text-anchor="start" x="22.5" y="-95.5" font-family="Helvetica,sans-Serif" font-size="10.00">+ addBits()</text>
<text text-anchor="start" x="22.5" y="-84.5" font-family="Helvetica,sans-Serif" font-size="10.00">+ addBytes()</text>
<text text-anchor="start" x="22.5" y="-73.5" font-family="Helvetica,sans-Serif" font-size="10.00">+ clear()</text>
<text text-anchor="start" x="22.5" y="-62.5" font-family="Helvetica,sans-Serif" font-size="10.00">+ getBytes()</text>
<text text-anchor="start" x="22.5" y="-51.5" font-family="Helvetica,sans-Serif" font-size="10.00">+ getInputBitBufferSpace()</text>
<text text-anchor="start" x="22.5" y="-40.5" font-family="Helvetica,sans-Serif" font-size="10.00">+ getNumBits()</text>
<text text-anchor="start" x="22.5" y="-29.5" font-family="Helvetica,sans-Serif" font-size="10.00">+ getNumBytes()</text>
<text text-anchor="start" x="22.5" y="-18.5" font-family="Helvetica,sans-Serif" font-size="10.00">+ getOutputBitBufferUsedBits()</text>
<text text-anchor="start" x="22.5" y="-7.5" font-family="Helvetica,sans-Serif" font-size="10.00">and 6 more...</text>
</a>
</g>
</g>
<!-- Node2 -->
<g id="node2" class="node">
<title>Node2</title>
<g id="a_node2"><a xlink:title=" ">
<polygon fill="none" stroke="black" points="0,-248.5 0,-305.5 103,-305.5 103,-248.5 0,-248.5"/>
<text text-anchor="middle" x="51.5" y="-293.5" font-family="Helvetica,sans-Serif" font-size="10.00">deque&lt; uint8_t &gt;</text>
<polyline fill="none" stroke="black" points="0,-286.5 103,-286.5 "/>
<text text-anchor="middle" x="51.5" y="-274.5" font-family="Helvetica,sans-Serif" font-size="10.00"> </text>
<polyline fill="none" stroke="black" points="0,-267.5 103,-267.5 "/>
<text text-anchor="middle" x="51.5" y="-255.5" font-family="Helvetica,sans-Serif" font-size="10.00"> </text>
</a>
</g>
</g>
<!-- Node2&#45;&gt;Node1 -->
<g id="edge1" class="edge">
<title>Node2&#45;&gt;Node1</title>
<path fill="none" stroke="#404040" d="M48.83,-248.47C47.81,-230.47 47.83,-206.57 52.5,-186 53.02,-183.7 53.6,-181.39 54.23,-179.08"/>
<polygon fill="none" stroke="#404040" points="54.26,-178.99 52.18,-172.08 57.76,-167.51 59.84,-174.42 54.26,-178.99"/>
<text text-anchor="middle" x="89.5" y="-205.5" font-family="Helvetica,sans-Serif" font-size="10.00"> &#45;stream_data_</text>
</g>
<!-- Node3 -->
<g id="node3" class="node">
<title>Node3</title>
<g id="a_node3"><a xlink:title=" ">
<polygon fill="none" stroke="black" points="126,-248.5 126,-305.5 171,-305.5 171,-248.5 126,-248.5"/>
<text text-anchor="middle" x="148.5" y="-293.5" font-family="Helvetica,sans-Serif" font-size="10.00">size_t</text>
<polyline fill="none" stroke="black" points="126,-286.5 171,-286.5 "/>
<text text-anchor="middle" x="148.5" y="-274.5" font-family="Helvetica,sans-Serif" font-size="10.00"> </text>
<polyline fill="none" stroke="black" points="126,-267.5 171,-267.5 "/>
<text text-anchor="middle" x="148.5" y="-255.5" font-family="Helvetica,sans-Serif" font-size="10.00"> </text>
</a>
</g>
</g>
<!-- Node3&#45;&gt;Node1 -->
<g id="edge2" class="edge">
<title>Node3&#45;&gt;Node1</title>
<path fill="none" stroke="#404040" d="M141.91,-248.39C137.62,-230.56 131.84,-206.88 126.5,-186 125.95,-183.85 125.39,-181.68 124.83,-179.49"/>
<polygon fill="none" stroke="#404040" points="124.77,-179.25 119.38,-174.45 121.75,-167.64 127.13,-172.44 124.77,-179.25"/>
<text text-anchor="start" x="136.5" y="-222" font-family="Helvetica,sans-Serif" font-size="10.00"> &#45;num_bits_in_input</text>
<text text-anchor="middle" x="185" y="-211" font-family="Helvetica,sans-Serif" font-size="10.00">_buffer_</text>
<text text-anchor="start" x="136.5" y="-200" font-family="Helvetica,sans-Serif" font-size="10.00">&#45;num_bits_used_in</text>
<text text-anchor="middle" x="185" y="-189" font-family="Helvetica,sans-Serif" font-size="10.00">_output_buffer_</text>
</g>
</g>
</svg>
