<?xml version="1.0" encoding="UTF-8" standalone="no"?>
<!DOCTYPE svg PUBLIC "-//W3C//DTD SVG 1.1//EN"
 "http://www.w3.org/Graphics/SVG/1.1/DTD/svg11.dtd">
<!-- Generated by graphviz version 2.43.0 (0)
 -->
<!-- Title: kazoo::BinaryStream::addBits Pages: 1 -->
<svg width="461pt" height="100pt"
 viewBox="0.00 0.00 461.00 99.50" xmlns="http://www.w3.org/2000/svg" xmlns:xlink="http://www.w3.org/1999/xlink">
<g id="graph0" class="graph" transform="scale(1 1) rotate(0) translate(4 95.5)">
<title>kazoo::BinaryStream::addBits</title>
<!-- Node1 -->
<g id="node1" class="node">
<title>Node1</title>
<g id="a_node1"><a xlink:title="Add individual bits to the stream.">
<polygon fill="#bfbfbf" stroke="black" points="335,-17 335,-47 453,-47 453,-17 335,-17"/>
<text text-anchor="start" x="343" y="-35" font-family="Helvetica,sans-Serif" font-size="10.00">kazoo::BinaryStream</text>
<text text-anchor="middle" x="394" y="-24" font-family="Helvetica,sans-Serif" font-size="10.00">::addBits</text>
</a>
</g>
</g>
<!-- Node2 -->
<g id="node2" class="node">
<title>Node2</title>
<g id="a_node2"><a xlink:href="classkazoo_1_1SymbolStream.html#a6d4fe37e7f9c05587d95de99c84be743" target="_top" xlink:title=" ">
<polygon fill="none" stroke="black" points="167,-39 167,-69 299,-69 299,-39 167,-39"/>
<text text-anchor="start" x="175" y="-57" font-family="Helvetica,sans-Serif" font-size="10.00">kazoo::SymbolStream</text>
<text text-anchor="middle" x="233" y="-46" font-family="Helvetica,sans-Serif" font-size="10.00">::populateBinaryStream</text>
</a>
</g>
</g>
<!-- Node1&#45;&gt;Node2 -->
<g id="edge1" class="edge">
<title>Node1&#45;&gt;Node2</title>
<path fill="none" stroke="midnightblue" d="M324.77,-41.44C316.22,-42.62 307.5,-43.83 299.01,-45.01"/>
<polygon fill="midnightblue" stroke="midnightblue" points="325.27,-44.9 334.7,-40.07 324.31,-37.97 325.27,-44.9"/>
</g>
<!-- Node5 -->
<g id="node5" class="node">
<title>Node5</title>
<g id="a_node5"><a xlink:href="binary__stream_8test_8cpp.html#a0ea90f1ff04ac7d2c91a322c493df41b" target="_top" xlink:title=" ">
<polygon fill="none" stroke="black" points="212.5,-0.5 212.5,-19.5 253.5,-19.5 253.5,-0.5 212.5,-0.5"/>
<text text-anchor="middle" x="233" y="-7.5" font-family="Helvetica,sans-Serif" font-size="10.00">TEST</text>
</a>
</g>
</g>
<!-- Node1&#45;&gt;Node5 -->
<g id="edge4" class="edge">
<title>Node1&#45;&gt;Node5</title>
<path fill="none" stroke="midnightblue" d="M324.53,-22.53C298.72,-18.95 271.32,-15.16 253.52,-12.7"/>
<polygon fill="midnightblue" stroke="midnightblue" points="324.31,-26.03 334.7,-23.93 325.27,-19.1 324.31,-26.03"/>
</g>
<!-- Node3 -->
<g id="node3" class="node">
<title>Node3</title>
<g id="a_node3"><a xlink:href="classkazoo_1_1TranslationLayer.html#a76f09d5f7213679a6656aa9473f8f2ab" target="_top" xlink:title=" ">
<polygon fill="none" stroke="black" points="0,-61 0,-91 131,-91 131,-61 0,-61"/>
<text text-anchor="start" x="8" y="-79" font-family="Helvetica,sans-Serif" font-size="10.00">kazoo::TranslationLayer</text>
<text text-anchor="middle" x="65.5" y="-68" font-family="Helvetica,sans-Serif" font-size="10.00">::loadAndDecodeWav</text>
</a>
</g>
</g>
<!-- Node2&#45;&gt;Node3 -->
<g id="edge2" class="edge">
<title>Node2&#45;&gt;Node3</title>
<path fill="none" stroke="midnightblue" d="M156.66,-64.01C148.15,-65.15 139.53,-66.29 131.16,-67.4"/>
<polygon fill="midnightblue" stroke="midnightblue" points="157.14,-67.48 166.59,-62.69 156.22,-60.54 157.14,-67.48"/>
</g>
<!-- Node4 -->
<g id="node4" class="node">
<title>Node4</title>
<g id="a_node4"><a xlink:href="symbol__stream_8test_8cpp.html#a6649846ac517122a5ce6489b52046605" target="_top" xlink:title=" ">
<polygon fill="none" stroke="black" points="45,-22.5 45,-41.5 86,-41.5 86,-22.5 45,-22.5"/>
<text text-anchor="middle" x="65.5" y="-29.5" font-family="Helvetica,sans-Serif" font-size="10.00">TEST</text>
</a>
</g>
</g>
<!-- Node2&#45;&gt;Node4 -->
<g id="edge3" class="edge">
<title>Node2&#45;&gt;Node4</title>
<path fill="none" stroke="midnightblue" d="M156.39,-43.95C130.6,-40.52 103.88,-36.97 86.34,-34.64"/>
<polygon fill="midnightblue" stroke="midnightblue" points="156.22,-47.46 166.59,-45.31 157.14,-40.52 156.22,-47.46"/>
</g>
</g>
</svg>
