<?xml version="1.0" encoding="UTF-8" standalone="no"?>
<!DOCTYPE svg PUBLIC "-//W3C//DTD SVG 1.1//EN"
 "http://www.w3.org/Graphics/SVG/1.1/DTD/svg11.dtd">
<!-- Generated by graphviz version 2.43.0 (0)
 -->
<!-- Title: kazoo::model::K3ReasonableModel::K3Model Pages: 1 -->
<svg width="607pt" height="679pt"
 viewBox="0.00 0.00 606.50 679.00" xmlns="http://www.w3.org/2000/svg" xmlns:xlink="http://www.w3.org/1999/xlink">
<g id="graph0" class="graph" transform="scale(1 1) rotate(0) translate(4 675)">
<title>kazoo::model::K3ReasonableModel::K3Model</title>
<!-- Node1 -->
<g id="node1" class="node">
<title>Node1</title>
<g id="a_node1"><a xlink:title=" ">
<polygon fill="#bfbfbf" stroke="black" points="278.5,-0.5 278.5,-112.5 450.5,-112.5 450.5,-0.5 278.5,-0.5"/>
<text text-anchor="start" x="286.5" y="-100.5" font-family="Helvetica,sans-Serif" font-size="10.00">kazoo::model::K3Reasonable</text>
<text text-anchor="middle" x="364.5" y="-89.5" font-family="Helvetica,sans-Serif" font-size="10.00">Model::K3Model</text>
<polyline fill="none" stroke="black" points="278.5,-82.5 450.5,-82.5 "/>
<text text-anchor="middle" x="364.5" y="-70.5" font-family="Helvetica,sans-Serif" font-size="10.00"> </text>
<polyline fill="none" stroke="black" points="278.5,-63.5 450.5,-63.5 "/>
<text text-anchor="start" x="286.5" y="-51.5" font-family="Helvetica,sans-Serif" font-size="10.00">+ K3Model()</text>
<text text-anchor="start" x="286.5" y="-40.5" font-family="Helvetica,sans-Serif" font-size="10.00">+ decodeAudioToSymbols()</text>
<text text-anchor="start" x="286.5" y="-29.5" font-family="Helvetica,sans-Serif" font-size="10.00">+ encodeSymbol()</text>
<text text-anchor="start" x="286.5" y="-18.5" font-family="Helvetica,sans-Serif" font-size="10.00">+ getNumSamplesPerSymbol()</text>
<text text-anchor="start" x="286.5" y="-7.5" font-family="Helvetica,sans-Serif" font-size="10.00">&#45; detectSymbolFromFftResults()</text>
</a>
</g>
</g>
<!-- Node2 -->
<g id="node2" class="node">
<title>Node2</title>
<g id="a_node2"><a xlink:href="classkazoo_1_1SymbolModel.html" target="_top" xlink:title=" ">
<polygon fill="none" stroke="black" points="280,-150.5 280,-295.5 449,-295.5 449,-150.5 280,-150.5"/>
<text text-anchor="start" x="288" y="-283.5" font-family="Helvetica,sans-Serif" font-size="10.00">kazoo::SymbolModel</text>
<text text-anchor="middle" x="364.5" y="-272.5" font-family="Helvetica,sans-Serif" font-size="10.00">&lt; Token &gt;</text>
<polyline fill="none" stroke="black" points="280,-265.5 449,-265.5 "/>
<text text-anchor="middle" x="364.5" y="-253.5" font-family="Helvetica,sans-Serif" font-size="10.00"> </text>
<polyline fill="none" stroke="black" points="280,-246.5 449,-246.5 "/>
<text text-anchor="start" x="288" y="-234.5" font-family="Helvetica,sans-Serif" font-size="10.00">+ SymbolModel()</text>
<text text-anchor="start" x="288" y="-223.5" font-family="Helvetica,sans-Serif" font-size="10.00">+ decodeAudioToSymbols()</text>
<text text-anchor="start" x="288" y="-212.5" font-family="Helvetica,sans-Serif" font-size="10.00">+ encodeSymbol()</text>
<text text-anchor="start" x="288" y="-201.5" font-family="Helvetica,sans-Serif" font-size="10.00">+ getNumSamplesPerSymbol()</text>
<text text-anchor="start" x="288" y="-190.5" font-family="Helvetica,sans-Serif" font-size="10.00">+ getSymbolBitWidth()</text>
<text text-anchor="start" x="288" y="-179.5" font-family="Helvetica,sans-Serif" font-size="10.00">+ getSymbolId()</text>
<text text-anchor="start" x="288" y="-168.5" font-family="Helvetica,sans-Serif" font-size="10.00">+ getToken()</text>
<text text-anchor="start" x="288" y="-157.5" font-family="Helvetica,sans-Serif" font-size="10.00">+ getValue()</text>
</a>
</g>
</g>
<!-- Node2&#45;&gt;Node1 -->
<g id="edge1" class="edge">
<title>Node2&#45;&gt;Node1</title>
<path fill="none" stroke="midnightblue" d="M364.5,-140.2C364.5,-130.85 364.5,-121.49 364.5,-112.61"/>
<polygon fill="none" stroke="midnightblue" points="361,-140.33 364.5,-150.33 368,-140.33 361,-140.33"/>
</g>
<!-- Node3 -->
<g id="node3" class="node">
<title>Node3</title>
<g id="a_node3"><a xlink:href="classkazoo_1_1ISymbolModel.html" target="_top" xlink:title=" ">
<polygon fill="none" stroke="black" points="0,-536.5 0,-670.5 169,-670.5 169,-536.5 0,-536.5"/>
<text text-anchor="middle" x="84.5" y="-658.5" font-family="Helvetica,sans-Serif" font-size="10.00">kazoo::ISymbolModel</text>
<polyline fill="none" stroke="black" points="0,-651.5 169,-651.5 "/>
<text text-anchor="middle" x="84.5" y="-639.5" font-family="Helvetica,sans-Serif" font-size="10.00"> </text>
<polyline fill="none" stroke="black" points="0,-632.5 169,-632.5 "/>
<text text-anchor="start" x="8" y="-620.5" font-family="Helvetica,sans-Serif" font-size="10.00">+ ~ISymbolModel()</text>
<text text-anchor="start" x="8" y="-609.5" font-family="Helvetica,sans-Serif" font-size="10.00">+ decodeAudioToSymbols()</text>
<text text-anchor="start" x="8" y="-598.5" font-family="Helvetica,sans-Serif" font-size="10.00">+ encodeSymbol()</text>
<text text-anchor="start" x="8" y="-587.5" font-family="Helvetica,sans-Serif" font-size="10.00">+ getNumSamplesPerSymbol()</text>
<text text-anchor="start" x="8" y="-576.5" font-family="Helvetica,sans-Serif" font-size="10.00">+ getSymbolBitMask()</text>
<text text-anchor="start" x="8" y="-565.5" font-family="Helvetica,sans-Serif" font-size="10.00">+ getSymbolBitWidth()</text>
<text text-anchor="start" x="8" y="-554.5" font-family="Helvetica,sans-Serif" font-size="10.00">+ getSymbolId()</text>
<text text-anchor="start" x="8" y="-543.5" font-family="Helvetica,sans-Serif" font-size="10.00">+ getValue()</text>
</a>
</g>
</g>
<!-- Node3&#45;&gt;Node2 -->
<g id="edge2" class="edge">
<title>Node3&#45;&gt;Node2</title>
<path fill="none" stroke="midnightblue" d="M94.26,-526.31C104.63,-470.68 125.62,-396.03 167.5,-343 196.72,-306 240.86,-277.83 279.96,-258.2"/>
<polygon fill="none" stroke="midnightblue" points="90.76,-526.01 92.45,-536.47 97.65,-527.24 90.76,-526.01"/>
</g>
<!-- Node6 -->
<g id="node6" class="node">
<title>Node6</title>
<g id="a_node6"><a xlink:href="classkazoo_1_1SymbolModel.html" target="_top" xlink:title=" ">
<polygon fill="none" stroke="black" points="177,-343.5 177,-488.5 346,-488.5 346,-343.5 177,-343.5"/>
<text text-anchor="start" x="185" y="-476.5" font-family="Helvetica,sans-Serif" font-size="10.00">kazoo::SymbolModel</text>
<text text-anchor="middle" x="261.5" y="-465.5" font-family="Helvetica,sans-Serif" font-size="10.00">&lt; Token_t &gt;</text>
<polyline fill="none" stroke="black" points="177,-458.5 346,-458.5 "/>
<text text-anchor="middle" x="261.5" y="-446.5" font-family="Helvetica,sans-Serif" font-size="10.00"> </text>
<polyline fill="none" stroke="black" points="177,-439.5 346,-439.5 "/>
<text text-anchor="start" x="185" y="-427.5" font-family="Helvetica,sans-Serif" font-size="10.00">+ SymbolModel()</text>
<text text-anchor="start" x="185" y="-416.5" font-family="Helvetica,sans-Serif" font-size="10.00">+ decodeAudioToSymbols()</text>
<text text-anchor="start" x="185" y="-405.5" font-family="Helvetica,sans-Serif" font-size="10.00">+ encodeSymbol()</text>
<text text-anchor="start" x="185" y="-394.5" font-family="Helvetica,sans-Serif" font-size="10.00">+ getNumSamplesPerSymbol()</text>
<text text-anchor="start" x="185" y="-383.5" font-family="Helvetica,sans-Serif" font-size="10.00">+ getSymbolBitWidth()</text>
<text text-anchor="start" x="185" y="-372.5" font-family="Helvetica,sans-Serif" font-size="10.00">+ getSymbolId()</text>
<text text-anchor="start" x="185" y="-361.5" font-family="Helvetica,sans-Serif" font-size="10.00">+ getToken()</text>
<text text-anchor="start" x="185" y="-350.5" font-family="Helvetica,sans-Serif" font-size="10.00">+ getValue()</text>
</a>
</g>
</g>
<!-- Node3&#45;&gt;Node6 -->
<g id="edge6" class="edge">
<title>Node3&#45;&gt;Node6</title>
<path fill="none" stroke="midnightblue" d="M154.65,-528.98C167.37,-515.65 180.61,-501.77 193.27,-488.5"/>
<polygon fill="none" stroke="midnightblue" points="152.02,-526.66 147.65,-536.32 157.09,-531.5 152.02,-526.66"/>
</g>
<!-- Node4 -->
<g id="node4" class="node">
<title>Node4</title>
<g id="a_node4"><a xlink:title=" ">
<polygon fill="none" stroke="black" points="291.5,-575 291.5,-632 413.5,-632 413.5,-575 291.5,-575"/>
<text text-anchor="middle" x="352.5" y="-620" font-family="Helvetica,sans-Serif" font-size="10.00">const TokenValueMap</text>
<polyline fill="none" stroke="black" points="291.5,-613 413.5,-613 "/>
<text text-anchor="middle" x="352.5" y="-601" font-family="Helvetica,sans-Serif" font-size="10.00"> </text>
<polyline fill="none" stroke="black" points="291.5,-594 413.5,-594 "/>
<text text-anchor="middle" x="352.5" y="-582" font-family="Helvetica,sans-Serif" font-size="10.00"> </text>
</a>
</g>
</g>
<!-- Node4&#45;&gt;Node2 -->
<g id="edge3" class="edge">
<title>Node4&#45;&gt;Node2</title>
<path fill="none" stroke="#404040" d="M369.08,-574.64C377.62,-558.66 387.13,-537.88 391.5,-518 406.85,-448.1 397.43,-366.98 385.68,-307.69"/>
<polygon fill="none" stroke="#404040" points="385.65,-307.51 380.52,-302.44 383.23,-295.75 388.36,-300.82 385.65,-307.51"/>
<text text-anchor="middle" x="439" y="-413.5" font-family="Helvetica,sans-Serif" font-size="10.00"> &#45;token_values_</text>
</g>
<!-- Node4&#45;&gt;Node6 -->
<g id="edge7" class="edge">
<title>Node4&#45;&gt;Node6</title>
<path fill="none" stroke="#404040" d="M338.88,-574.73C329.07,-554.74 315.3,-526.66 302.08,-499.73"/>
<polygon fill="none" stroke="#404040" points="301.95,-499.46 295.72,-495.83 296.67,-488.68 302.9,-492.31 301.95,-499.46"/>
<text text-anchor="middle" x="349" y="-510" font-family="Helvetica,sans-Serif" font-size="10.00"> &#45;token_values_</text>
</g>
<!-- Node5 -->
<g id="node5" class="node">
<title>Node5</title>
<g id="a_node5"><a xlink:href="namespace_3globalScope_4.html#classconst_01uint32__t" target="_top" xlink:title=" ">
<polygon fill="none" stroke="black" points="512.5,-387.5 512.5,-444.5 598.5,-444.5 598.5,-387.5 512.5,-387.5"/>
<text text-anchor="middle" x="555.5" y="-432.5" font-family="Helvetica,sans-Serif" font-size="10.00">const uint32_t</text>
<polyline fill="none" stroke="black" points="512.5,-425.5 598.5,-425.5 "/>
<text text-anchor="middle" x="555.5" y="-413.5" font-family="Helvetica,sans-Serif" font-size="10.00"> </text>
<polyline fill="none" stroke="black" points="512.5,-406.5 598.5,-406.5 "/>
<text text-anchor="middle" x="555.5" y="-394.5" font-family="Helvetica,sans-Serif" font-size="10.00"> </text>
</a>
</g>
</g>
<!-- Node5&#45;&gt;Node2 -->
<g id="edge4" class="edge">
<title>Node5&#45;&gt;Node2</title>
<path fill="none" stroke="#404040" d="M535.46,-387.4C524.99,-373.59 511.64,-356.91 498.5,-343 485.97,-329.74 472.14,-316.3 458.28,-303.48"/>
<polygon fill="none" stroke="#404040" points="458.02,-303.25 450.9,-302.14 449.17,-295.14 456.3,-296.24 458.02,-303.25"/>
<text text-anchor="middle" x="527" y="-317" font-family="Helvetica,sans-Serif" font-size="10.00"> &#45;symbol_bit_width_</text>
</g>
<!-- Node6&#45;&gt;Node2 -->
<g id="edge5" class="edge">
<title>Node6&#45;&gt;Node2</title>
<path fill="none" stroke="orange" d="M304.91,-334.5C311.85,-321.63 318.99,-308.39 325.81,-295.75"/>
<polygon fill="orange" stroke="orange" points="301.81,-332.87 300.15,-343.34 307.97,-336.19 301.81,-332.87"/>
<text text-anchor="middle" x="340.5" y="-317" font-family="Helvetica,sans-Serif" font-size="10.00"> &lt; Token &gt;</text>
</g>
<!-- Node7 -->
<g id="node7" class="node">
<title>Node7</title>
<g id="a_node7"><a xlink:title=" ">
<polygon fill="none" stroke="black" points="186.5,-575 186.5,-632 242.5,-632 242.5,-575 186.5,-575"/>
<text text-anchor="middle" x="214.5" y="-620" font-family="Helvetica,sans-Serif" font-size="10.00">uint32_t</text>
<polyline fill="none" stroke="black" points="186.5,-613 242.5,-613 "/>
<text text-anchor="middle" x="214.5" y="-601" font-family="Helvetica,sans-Serif" font-size="10.00"> </text>
<polyline fill="none" stroke="black" points="186.5,-594 242.5,-594 "/>
<text text-anchor="middle" x="214.5" y="-582" font-family="Helvetica,sans-Serif" font-size="10.00"> </text>
</a>
</g>
</g>
<!-- Node7&#45;&gt;Node6 -->
<g id="edge8" class="edge">
<title>Node7&#45;&gt;Node6</title>
<path fill="none" stroke="#404040" d="M206.1,-574.84C201.55,-555.5 198.05,-529.25 204.5,-507 205.2,-504.57 206,-502.15 206.86,-499.73"/>
<polygon fill="none" stroke="#404040" points="206.91,-499.63 205.47,-492.56 211.44,-488.51 212.88,-495.58 206.91,-499.63"/>
<text text-anchor="middle" x="254" y="-510" font-family="Helvetica,sans-Serif" font-size="10.00"> &#45;symbol_bit_width_</text>
</g>
</g>
</svg>
