<?xml version="1.0" encoding="UTF-8" standalone="no"?>
<!DOCTYPE svg PUBLIC "-//W3C//DTD SVG 1.1//EN"
 "http://www.w3.org/Graphics/SVG/1.1/DTD/svg11.dtd">
<!-- Generated by graphviz version 2.43.0 (0)
 -->
<!-- Title: kazoo::BinaryStream::getInputBitBufferSpace Pages: 1 -->
<svg width="1606pt" height="274pt"
 viewBox="0.00 0.00 1606.00 274.00" xmlns="http://www.w3.org/2000/svg" xmlns:xlink="http://www.w3.org/1999/xlink">
<g id="graph0" class="graph" transform="scale(1 1) rotate(0) translate(4 270)">
<title>kazoo::BinaryStream::getInputBitBufferSpace</title>
<!-- Node1 -->
<g id="node1" class="node">
<title>Node1</title>
<g id="a_node1"><a xlink:title="If adding bits, this will return the number of bits that can be added to the stream before the stream...">
<polygon fill="#bfbfbf" stroke="black" points="1463,-68 1463,-98 1598,-98 1598,-68 1463,-68"/>
<text text-anchor="start" x="1471" y="-86" font-family="Helvetica,sans-Serif" font-size="10.00">kazoo::BinaryStream</text>
<text text-anchor="middle" x="1530.5" y="-75" font-family="Helvetica,sans-Serif" font-size="10.00">::getInputBitBufferSpace</text>
</a>
</g>
</g>
<!-- Node2 -->
<g id="node2" class="node">
<title>Node2</title>
<g id="a_node2"><a xlink:href="classkazoo_1_1BinaryStream.html#a3a614f83199d9abd627964db2fef5f7b" target="_top" xlink:title="Get the number of bits in the stream.">
<polygon fill="none" stroke="black" points="1309,-112 1309,-142 1427,-142 1427,-112 1309,-112"/>
<text text-anchor="start" x="1317" y="-130" font-family="Helvetica,sans-Serif" font-size="10.00">kazoo::BinaryStream</text>
<text text-anchor="middle" x="1368" y="-119" font-family="Helvetica,sans-Serif" font-size="10.00">::getNumBits</text>
</a>
</g>
</g>
<!-- Node1&#45;&gt;Node2 -->
<g id="edge1" class="edge">
<title>Node1&#45;&gt;Node2</title>
<path fill="none" stroke="midnightblue" d="M1464.92,-100.7C1451.3,-104.44 1437.04,-108.35 1423.81,-111.97"/>
<polygon fill="midnightblue" stroke="midnightblue" points="1466,-104.04 1474.71,-98.02 1464.14,-97.29 1466,-104.04"/>
</g>
<!-- Node18 -->
<g id="node18" class="node">
<title>Node18</title>
<g id="a_node18"><a xlink:href="binary__stream_8test_8cpp.html#a0ea90f1ff04ac7d2c91a322c493df41b" target="_top" xlink:title=" ">
<polygon fill="none" stroke="black" points="1193.5,-73.5 1193.5,-92.5 1234.5,-92.5 1234.5,-73.5 1193.5,-73.5"/>
<text text-anchor="middle" x="1214" y="-80.5" font-family="Helvetica,sans-Serif" font-size="10.00">TEST</text>
</a>
</g>
</g>
<!-- Node1&#45;&gt;Node18 -->
<g id="edge26" class="edge">
<title>Node1&#45;&gt;Node18</title>
<path fill="none" stroke="midnightblue" d="M1452.39,-83C1380.23,-83 1277.35,-83 1234.7,-83"/>
<polygon fill="midnightblue" stroke="midnightblue" points="1452.8,-86.5 1462.8,-83 1452.8,-79.5 1452.8,-86.5"/>
</g>
<!-- Node19 -->
<g id="node19" class="node">
<title>Node19</title>
<g id="a_node19"><a xlink:href="binary__stream_8cpp.html#afd6109129b1bee507f167db4d707d6de" target="_top" xlink:title=" ">
<polygon fill="none" stroke="black" points="1331,-35.5 1331,-54.5 1405,-54.5 1405,-35.5 1331,-35.5"/>
<text text-anchor="middle" x="1368" y="-42.5" font-family="Helvetica,sans-Serif" font-size="10.00">operator&lt;&lt;</text>
</a>
</g>
</g>
<!-- Node1&#45;&gt;Node19 -->
<g id="edge25" class="edge">
<title>Node1&#45;&gt;Node19</title>
<path fill="none" stroke="midnightblue" d="M1456.28,-65.66C1438.54,-61.46 1420.34,-57.16 1405.18,-53.57"/>
<polygon fill="midnightblue" stroke="midnightblue" points="1455.53,-69.08 1466.07,-67.98 1457.14,-62.27 1455.53,-69.08"/>
</g>
<!-- Node3 -->
<g id="node3" class="node">
<title>Node3</title>
<g id="a_node3"><a xlink:href="classkazoo_1_1TranslationLayer.html#a6b80b010d94b9f1373fea308d1c6d435" target="_top" xlink:title="Takes input data and processes it through the symbol stream.">
<polygon fill="none" stroke="black" points="805.5,-200 805.5,-230 936.5,-230 936.5,-200 805.5,-200"/>
<text text-anchor="start" x="813.5" y="-218" font-family="Helvetica,sans-Serif" font-size="10.00">kazoo::TranslationLayer</text>
<text text-anchor="middle" x="871" y="-207" font-family="Helvetica,sans-Serif" font-size="10.00">::addData</text>
</a>
</g>
</g>
<!-- Node2&#45;&gt;Node3 -->
<g id="edge2" class="edge">
<title>Node2&#45;&gt;Node3</title>
<path fill="none" stroke="midnightblue" d="M1313.21,-145.24C1263.44,-161.33 1187.09,-184.03 1119,-196 1057.69,-206.78 986.74,-211.45 936.66,-213.46"/>
<polygon fill="midnightblue" stroke="midnightblue" points="1314.38,-148.54 1322.8,-142.12 1312.21,-141.89 1314.38,-148.54"/>
</g>
<!-- Node8 -->
<g id="node8" class="node">
<title>Node8</title>
<g id="a_node8"><a xlink:href="classkazoo_1_1BinaryStream.html#a745b2acb522d69e283dd5df14500016b" target="_top" xlink:title="Pop bits off the front, effectively the inverse of addBits.">
<polygon fill="none" stroke="black" points="1155,-112 1155,-142 1273,-142 1273,-112 1155,-112"/>
<text text-anchor="start" x="1163" y="-130" font-family="Helvetica,sans-Serif" font-size="10.00">kazoo::BinaryStream</text>
<text text-anchor="middle" x="1214" y="-119" font-family="Helvetica,sans-Serif" font-size="10.00">::popBits</text>
</a>
</g>
</g>
<!-- Node2&#45;&gt;Node8 -->
<g id="edge7" class="edge">
<title>Node2&#45;&gt;Node8</title>
<path fill="none" stroke="midnightblue" d="M1298.46,-127C1290.01,-127 1281.45,-127 1273.18,-127"/>
<polygon fill="midnightblue" stroke="midnightblue" points="1298.67,-130.5 1308.67,-127 1298.67,-123.5 1298.67,-130.5"/>
</g>
<!-- Node2&#45;&gt;Node18 -->
<g id="edge24" class="edge">
<title>Node2&#45;&gt;Node18</title>
<path fill="none" stroke="midnightblue" d="M1305.21,-109.11C1279.98,-101.81 1252.59,-93.88 1234.69,-88.7"/>
<polygon fill="midnightblue" stroke="midnightblue" points="1304.54,-112.56 1315.12,-111.98 1306.48,-105.84 1304.54,-112.56"/>
</g>
<!-- Node4 -->
<g id="node4" class="node">
<title>Node4</title>
<g id="a_node4"><a xlink:href="classkazoo_1_1TranslationLayer.html#a85b59418d9b63eaf80dd1b3623a96b96" target="_top" xlink:title=" ">
<polygon fill="none" stroke="black" points="596.5,-222 596.5,-252 727.5,-252 727.5,-222 596.5,-222"/>
<text text-anchor="start" x="604.5" y="-240" font-family="Helvetica,sans-Serif" font-size="10.00">kazoo::TranslationLayer</text>
<text text-anchor="middle" x="662" y="-229" font-family="Helvetica,sans-Serif" font-size="10.00">::sendFrame</text>
</a>
</g>
</g>
<!-- Node3&#45;&gt;Node4 -->
<g id="edge3" class="edge">
<title>Node3&#45;&gt;Node4</title>
<path fill="none" stroke="midnightblue" d="M795.31,-222.94C773.11,-225.3 749,-227.86 727.51,-230.14"/>
<polygon fill="midnightblue" stroke="midnightblue" points="795.78,-226.41 805.36,-221.87 795.04,-219.45 795.78,-226.41"/>
</g>
<!-- Node7 -->
<g id="node7" class="node">
<title>Node7</title>
<g id="a_node7"><a xlink:href="translation__layer_8test_8cpp.html#a5981aa5142cca1c44a01f7506cf94a8e" target="_top" xlink:title=" ">
<polygon fill="none" stroke="black" points="641.5,-183.5 641.5,-202.5 682.5,-202.5 682.5,-183.5 641.5,-183.5"/>
<text text-anchor="middle" x="662" y="-190.5" font-family="Helvetica,sans-Serif" font-size="10.00">TEST</text>
</a>
</g>
</g>
<!-- Node3&#45;&gt;Node7 -->
<g id="edge6" class="edge">
<title>Node3&#45;&gt;Node7</title>
<path fill="none" stroke="midnightblue" d="M795.29,-207.06C755.1,-202.79 708.61,-197.85 682.83,-195.11"/>
<polygon fill="midnightblue" stroke="midnightblue" points="795.04,-210.55 805.36,-208.13 795.78,-203.59 795.04,-210.55"/>
</g>
<!-- Node5 -->
<g id="node5" class="node">
<title>Node5</title>
<g id="a_node5"><a xlink:href="src_2kazoo__connect__server_2main_8cpp.html#ae66f6b31b5ad750f1fe042a706a4e3d4" target="_top" xlink:title=" ">
<polygon fill="none" stroke="black" points="431,-246.5 431,-265.5 472,-265.5 472,-246.5 431,-246.5"/>
<text text-anchor="middle" x="451.5" y="-253.5" font-family="Helvetica,sans-Serif" font-size="10.00">main</text>
</a>
</g>
</g>
<!-- Node4&#45;&gt;Node5 -->
<g id="edge4" class="edge">
<title>Node4&#45;&gt;Node5</title>
<path fill="none" stroke="midnightblue" d="M586.25,-243.81C545.46,-247.53 498.12,-251.84 472.12,-254.21"/>
<polygon fill="midnightblue" stroke="midnightblue" points="586.82,-247.27 596.46,-242.88 586.18,-240.3 586.82,-247.27"/>
</g>
<!-- Node6 -->
<g id="node6" class="node">
<title>Node6</title>
<g id="a_node6"><a xlink:href="translation__layer_8test_8cpp.html#a557311196b9a309f0d8377ef5af0c62c" target="_top" xlink:title=" ">
<polygon fill="none" stroke="black" points="431,-208.5 431,-227.5 472,-227.5 472,-208.5 431,-208.5"/>
<text text-anchor="middle" x="451.5" y="-215.5" font-family="Helvetica,sans-Serif" font-size="10.00">TEST</text>
</a>
</g>
</g>
<!-- Node4&#45;&gt;Node6 -->
<g id="edge5" class="edge">
<title>Node4&#45;&gt;Node6</title>
<path fill="none" stroke="midnightblue" d="M586.25,-230.19C545.46,-226.47 498.12,-222.16 472.12,-219.79"/>
<polygon fill="midnightblue" stroke="midnightblue" points="586.18,-233.7 596.46,-231.12 586.82,-226.73 586.18,-233.7"/>
</g>
<!-- Node9 -->
<g id="node9" class="node">
<title>Node9</title>
<g id="a_node9"><a xlink:href="classkazoo_1_1Deframer.html#a7dc1caffad1ffe4925a3e13d8d125024" target="_top" xlink:title=" ">
<polygon fill="none" stroke="black" points="177,-115 177,-145 329,-145 329,-115 177,-115"/>
<text text-anchor="start" x="185" y="-133" font-family="Helvetica,sans-Serif" font-size="10.00">kazoo::Deframer::findFrame</text>
<text text-anchor="middle" x="253" y="-122" font-family="Helvetica,sans-Serif" font-size="10.00">Start</text>
</a>
</g>
</g>
<!-- Node8&#45;&gt;Node9 -->
<g id="edge8" class="edge">
<title>Node8&#45;&gt;Node9</title>
<path fill="none" stroke="midnightblue" d="M1144.5,-127C1075.64,-127 966.46,-127 872,-127 872,-127 872,-127 661,-127 545.11,-127 410.67,-128.23 329.01,-129.12"/>
<polygon fill="midnightblue" stroke="midnightblue" points="1144.77,-130.5 1154.77,-127 1144.77,-123.5 1144.77,-130.5"/>
</g>
<!-- Node11 -->
<g id="node11" class="node">
<title>Node11</title>
<g id="a_node11"><a xlink:href="classkazoo_1_1BinaryStream.html#ae77e9324dbd09dd4a02d3504a83ae866" target="_top" xlink:title=" ">
<polygon fill="none" stroke="black" points="996.5,-68 996.5,-98 1114.5,-98 1114.5,-68 996.5,-68"/>
<text text-anchor="start" x="1004.5" y="-86" font-family="Helvetica,sans-Serif" font-size="10.00">kazoo::BinaryStream</text>
<text text-anchor="middle" x="1055.5" y="-75" font-family="Helvetica,sans-Serif" font-size="10.00">::popByte</text>
</a>
</g>
</g>
<!-- Node8&#45;&gt;Node11 -->
<g id="edge10" class="edge">
<title>Node8&#45;&gt;Node11</title>
<path fill="none" stroke="midnightblue" d="M1149.65,-109.19C1136.47,-105.48 1122.72,-101.62 1109.95,-98.03"/>
<polygon fill="midnightblue" stroke="midnightblue" points="1149.01,-112.64 1159.58,-111.98 1150.9,-105.9 1149.01,-112.64"/>
</g>
<!-- Node15 -->
<g id="node15" class="node">
<title>Node15</title>
<g id="a_node15"><a xlink:href="classkazoo_1_1SymbolStream.html#a483b690f6e07727669434375cbb23586" target="_top" xlink:title="Process a binary stream and convert it to symbols, removing the bits from the binary stream.">
<polygon fill="none" stroke="black" points="992,-156 992,-186 1119,-186 1119,-156 992,-156"/>
<text text-anchor="start" x="1000" y="-174" font-family="Helvetica,sans-Serif" font-size="10.00">kazoo::SymbolStream</text>
<text text-anchor="middle" x="1055.5" y="-163" font-family="Helvetica,sans-Serif" font-size="10.00">::processBinaryStream</text>
</a>
</g>
</g>
<!-- Node8&#45;&gt;Node15 -->
<g id="edge20" class="edge">
<title>Node8&#45;&gt;Node15</title>
<path fill="none" stroke="midnightblue" d="M1149.65,-144.81C1136.47,-148.52 1122.72,-152.38 1109.95,-155.97"/>
<polygon fill="midnightblue" stroke="midnightblue" points="1150.9,-148.1 1159.58,-142.02 1149.01,-141.36 1150.9,-148.1"/>
</g>
<!-- Node17 -->
<g id="node17" class="node">
<title>Node17</title>
<g id="a_node17"><a xlink:href="binary__stream_8test_8cpp.html#a4adfd3c5c4d57fd921cc878fe8b146a5" target="_top" xlink:title=" ">
<polygon fill="none" stroke="black" points="1035,-29.5 1035,-48.5 1076,-48.5 1076,-29.5 1035,-29.5"/>
<text text-anchor="middle" x="1055.5" y="-36.5" font-family="Helvetica,sans-Serif" font-size="10.00">TEST</text>
</a>
</g>
</g>
<!-- Node8&#45;&gt;Node17 -->
<g id="edge23" class="edge">
<title>Node8&#45;&gt;Node17</title>
<path fill="none" stroke="midnightblue" d="M1162.42,-106.97C1159.84,-105.41 1157.35,-103.75 1155,-102 1135.01,-87.11 1139.69,-72.9 1119,-59 1106.05,-50.29 1089.06,-45.18 1076.06,-42.3"/>
<polygon fill="midnightblue" stroke="midnightblue" points="1160.98,-110.18 1171.43,-111.94 1164.36,-104.05 1160.98,-110.18"/>
</g>
<!-- Node10 -->
<g id="node10" class="node">
<title>Node10</title>
<g id="a_node10"><a xlink:href="classkazoo_1_1Deframer.html#a742de19b3ca490d3faabfcbb64785998" target="_top" xlink:title="Process the input binary stream in a stateful manner to extract frames from sequential stream inputs.">
<polygon fill="none" stroke="black" points="0,-52 0,-82 141,-82 141,-52 0,-52"/>
<text text-anchor="start" x="8" y="-70" font-family="Helvetica,sans-Serif" font-size="10.00">kazoo::Deframer::process</text>
<text text-anchor="middle" x="70.5" y="-59" font-family="Helvetica,sans-Serif" font-size="10.00">Input</text>
</a>
</g>
</g>
<!-- Node9&#45;&gt;Node10 -->
<g id="edge9" class="edge">
<title>Node9&#45;&gt;Node10</title>
<path fill="none" stroke="midnightblue" d="M199.13,-111.55C172.27,-102.17 140.05,-90.92 114.69,-82.08"/>
<polygon fill="midnightblue" stroke="midnightblue" points="198.17,-114.92 208.77,-114.91 200.48,-108.31 198.17,-114.92"/>
</g>
<!-- Node12 -->
<g id="node12" class="node">
<title>Node12</title>
<g id="a_node12"><a xlink:href="classkazoo_1_1Deframer.html#ad544e3c1a1301cc5ab77389eab411b03" target="_top" xlink:title=" ">
<polygon fill="none" stroke="black" points="574,-38.5 574,-57.5 750,-57.5 750,-38.5 574,-38.5"/>
<text text-anchor="middle" x="662" y="-45.5" font-family="Helvetica,sans-Serif" font-size="10.00">kazoo::Deframer::findFrameData</text>
</a>
</g>
</g>
<!-- Node11&#45;&gt;Node12 -->
<g id="edge11" class="edge">
<title>Node11&#45;&gt;Node12</title>
<path fill="none" stroke="midnightblue" d="M986.37,-75.13C976.2,-74.03 965.83,-72.95 956,-72 886.91,-65.31 808.54,-58.96 750.24,-54.47"/>
<polygon fill="midnightblue" stroke="midnightblue" points="986.13,-78.62 996.46,-76.23 986.9,-71.66 986.13,-78.62"/>
</g>
<!-- Node13 -->
<g id="node13" class="node">
<title>Node13</title>
<g id="a_node13"><a xlink:href="classkazoo_1_1Deframer.html#a79d8b406e773fdc32d7c5002b9e37e2b" target="_top" xlink:title=" ">
<polygon fill="none" stroke="black" points="365,-76.5 365,-95.5 538,-95.5 538,-76.5 365,-76.5"/>
<text text-anchor="middle" x="451.5" y="-83.5" font-family="Helvetica,sans-Serif" font-size="10.00">kazoo::Deframer::findFrameSize</text>
</a>
</g>
</g>
<!-- Node11&#45;&gt;Node13 -->
<g id="edge19" class="edge">
<title>Node11&#45;&gt;Node13</title>
<path fill="none" stroke="midnightblue" d="M986.22,-83.34C875.9,-83.89 658.7,-84.97 538.17,-85.57"/>
<polygon fill="midnightblue" stroke="midnightblue" points="986.25,-86.84 996.23,-83.29 986.21,-79.84 986.25,-86.84"/>
</g>
<!-- Node14 -->
<g id="node14" class="node">
<title>Node14</title>
<g id="a_node14"><a xlink:href="classkazoo_1_1Deframer.html#ae4c8d8b5f7e2bc50183fc1b758fc21a8" target="_top" xlink:title=" ">
<polygon fill="none" stroke="black" points="786,-0.5 786,-19.5 956,-19.5 956,-0.5 786,-0.5"/>
<text text-anchor="middle" x="871" y="-7.5" font-family="Helvetica,sans-Serif" font-size="10.00">kazoo::Deframer::findFrameEnd</text>
</a>
</g>
</g>
<!-- Node11&#45;&gt;Node14 -->
<g id="edge16" class="edge">
<title>Node11&#45;&gt;Node14</title>
<path fill="none" stroke="midnightblue" d="M1003.8,-63.77C999.76,-61.92 995.78,-59.99 992,-58 974.98,-49.05 973.45,-42.07 956,-34 943.2,-28.08 928.61,-23.29 915.23,-19.6"/>
<polygon fill="midnightblue" stroke="midnightblue" points="1002.7,-67.11 1013.27,-67.92 1005.52,-60.7 1002.7,-67.11"/>
</g>
<!-- Node12&#45;&gt;Node10 -->
<g id="edge15" class="edge">
<title>Node12&#45;&gt;Node10</title>
<path fill="none" stroke="midnightblue" d="M563.5,-51.14C444.43,-54.98 245.99,-61.38 141.22,-64.75"/>
<polygon fill="midnightblue" stroke="midnightblue" points="563.82,-54.63 573.7,-50.81 563.59,-47.64 563.82,-54.63"/>
</g>
<!-- Node12&#45;&gt;Node13 -->
<g id="edge12" class="edge">
<title>Node12&#45;&gt;Node13</title>
<path fill="none" stroke="midnightblue" d="M598.74,-59.35C568.83,-64.8 533.37,-71.26 504.87,-76.46"/>
<polygon fill="midnightblue" stroke="midnightblue" points="599.45,-62.78 608.66,-57.54 598.19,-55.89 599.45,-62.78"/>
</g>
<!-- Node13&#45;&gt;Node9 -->
<g id="edge13" class="edge">
<title>Node13&#45;&gt;Node9</title>
<path fill="none" stroke="midnightblue" d="M398.06,-97.74C374.49,-103.02 346.38,-109.31 321.28,-114.93"/>
<polygon fill="midnightblue" stroke="midnightblue" points="398.87,-101.15 407.86,-95.55 397.34,-94.32 398.87,-101.15"/>
</g>
<!-- Node13&#45;&gt;Node10 -->
<g id="edge14" class="edge">
<title>Node13&#45;&gt;Node10</title>
<path fill="none" stroke="midnightblue" d="M354.9,-81.21C288.38,-77.87 201.2,-73.5 141.2,-70.49"/>
<polygon fill="midnightblue" stroke="midnightblue" points="354.81,-84.71 364.97,-81.71 355.16,-77.72 354.81,-84.71"/>
</g>
<!-- Node14&#45;&gt;Node10 -->
<g id="edge18" class="edge">
<title>Node14&#45;&gt;Node10</title>
<path fill="none" stroke="midnightblue" d="M775.68,-14.22C642.2,-20.59 390.65,-34.07 177,-54 165.42,-55.08 153.16,-56.42 141.24,-57.82"/>
<polygon fill="midnightblue" stroke="midnightblue" points="776.04,-17.7 785.87,-13.73 775.71,-10.71 776.04,-17.7"/>
</g>
<!-- Node14&#45;&gt;Node12 -->
<g id="edge17" class="edge">
<title>Node14&#45;&gt;Node12</title>
<path fill="none" stroke="midnightblue" d="M808.19,-21.35C778.49,-26.8 743.29,-33.26 714.99,-38.46"/>
<polygon fill="midnightblue" stroke="midnightblue" points="808.83,-24.79 818.03,-19.54 807.56,-17.9 808.83,-24.79"/>
</g>
<!-- Node15&#45;&gt;Node3 -->
<g id="edge21" class="edge">
<title>Node15&#45;&gt;Node3</title>
<path fill="none" stroke="midnightblue" d="M982.43,-188.38C966.52,-192.21 949.8,-196.24 934.32,-199.97"/>
<polygon fill="midnightblue" stroke="midnightblue" points="983.3,-191.77 992.2,-186.02 981.66,-184.96 983.3,-191.77"/>
</g>
<!-- Node16 -->
<g id="node16" class="node">
<title>Node16</title>
<g id="a_node16"><a xlink:href="symbol__stream_8test_8cpp.html#ae06de649963b46341ca9f338594aa8cd" target="_top" xlink:title=" ">
<polygon fill="none" stroke="black" points="850.5,-161.5 850.5,-180.5 891.5,-180.5 891.5,-161.5 850.5,-161.5"/>
<text text-anchor="middle" x="871" y="-168.5" font-family="Helvetica,sans-Serif" font-size="10.00">TEST</text>
</a>
</g>
</g>
<!-- Node15&#45;&gt;Node16 -->
<g id="edge22" class="edge">
<title>Node15&#45;&gt;Node16</title>
<path fill="none" stroke="midnightblue" d="M981.94,-171C949.26,-171 913.25,-171 891.64,-171"/>
<polygon fill="midnightblue" stroke="midnightblue" points="981.95,-174.5 991.95,-171 981.95,-167.5 981.95,-174.5"/>
</g>
</g>
</svg>
