<?xml version="1.0" encoding="UTF-8" standalone="no"?>
<!DOCTYPE svg PUBLIC "-//W3C//DTD SVG 1.1//EN"
 "http://www.w3.org/Graphics/SVG/1.1/DTD/svg11.dtd">
<!-- Generated by graphviz version 2.43.0 (0)
 -->
<!-- Title: kazoo::AudioChannel::getNumSamples Pages: 1 -->
<svg width="670pt" height="307pt"
 viewBox="0.00 0.00 670.00 306.50" xmlns="http://www.w3.org/2000/svg" xmlns:xlink="http://www.w3.org/1999/xlink">
<g id="graph0" class="graph" transform="scale(1 1) rotate(0) translate(4 302.5)">
<title>kazoo::AudioChannel::getNumSamples</title>
<!-- Node1 -->
<g id="node1" class="node">
<title>Node1</title>
<g id="a_node1"><a xlink:title=" ">
<polygon fill="#bfbfbf" stroke="black" points="543,-106 543,-136 662,-136 662,-106 543,-106"/>
<text text-anchor="start" x="551" y="-124" font-family="Helvetica,sans-Serif" font-size="10.00">kazoo::AudioChannel</text>
<text text-anchor="middle" x="602.5" y="-113" font-family="Helvetica,sans-Serif" font-size="10.00">::getNumSamples</text>
</a>
</g>
</g>
<!-- Node2 -->
<g id="node2" class="node">
<title>Node2</title>
<g id="a_node2"><a xlink:href="classkazoo_1_1TranslationLayer.html#ae6af635a406681696216d31a11dd64f9" target="_top" xlink:title=" ">
<polygon fill="none" stroke="black" points="361,-175 361,-205 492,-205 492,-175 361,-175"/>
<text text-anchor="start" x="369" y="-193" font-family="Helvetica,sans-Serif" font-size="10.00">kazoo::TranslationLayer</text>
<text text-anchor="middle" x="426.5" y="-182" font-family="Helvetica,sans-Serif" font-size="10.00">::encode</text>
</a>
</g>
</g>
<!-- Node1&#45;&gt;Node2 -->
<g id="edge1" class="edge">
<title>Node1&#45;&gt;Node2</title>
<path fill="none" stroke="midnightblue" d="M556.3,-139.98C540.72,-146.44 523.13,-153.63 507,-160 494.38,-164.99 480.56,-170.26 468.04,-174.98"/>
<polygon fill="midnightblue" stroke="midnightblue" points="557.81,-143.14 565.71,-136.07 555.13,-136.68 557.81,-143.14"/>
</g>
<!-- Node7 -->
<g id="node7" class="node">
<title>Node7</title>
<g id="a_node7"><a xlink:href="classkazoo_1_1ModelTester.html#ae3b12528cffc8ff611b85d82c63d84c5" target="_top" xlink:title=" ">
<polygon fill="none" stroke="black" points="346,-76.5 346,-117.5 507,-117.5 507,-76.5 346,-76.5"/>
<text text-anchor="start" x="354" y="-105.5" font-family="Helvetica,sans-Serif" font-size="10.00">kazoo::ModelTester</text>
<text text-anchor="start" x="354" y="-94.5" font-family="Helvetica,sans-Serif" font-size="10.00">::helper_encodeStringToAudio</text>
<text text-anchor="middle" x="426.5" y="-83.5" font-family="Helvetica,sans-Serif" font-size="10.00">Channel</text>
</a>
</g>
</g>
<!-- Node1&#45;&gt;Node7 -->
<g id="edge6" class="edge">
<title>Node1&#45;&gt;Node7</title>
<path fill="none" stroke="midnightblue" d="M532.51,-111.48C524.14,-110.33 515.53,-109.14 507.02,-107.97"/>
<polygon fill="midnightblue" stroke="midnightblue" points="532.21,-114.98 542.59,-112.87 533.16,-108.04 532.21,-114.98"/>
</g>
<!-- Node10 -->
<g id="node10" class="node">
<title>Node10</title>
<g id="a_node10"><a xlink:href="classkazoo_1_1TranslationLayer.html#aa2783a8a2e4fb8fafa580e3cda27203e" target="_top" xlink:title=" ">
<polygon fill="none" stroke="black" points="361,-246 361,-276 492,-276 492,-246 361,-246"/>
<text text-anchor="start" x="369" y="-264" font-family="Helvetica,sans-Serif" font-size="10.00">kazoo::TranslationLayer</text>
<text text-anchor="middle" x="426.5" y="-253" font-family="Helvetica,sans-Serif" font-size="10.00">::listeningThreadFunc</text>
</a>
</g>
</g>
<!-- Node1&#45;&gt;Node10 -->
<g id="edge9" class="edge">
<title>Node1&#45;&gt;Node10</title>
<path fill="none" stroke="midnightblue" d="M581.78,-143.71C563.6,-163.87 535.22,-193.38 507,-215 491.68,-226.73 473.08,-237.65 457.73,-245.9"/>
<polygon fill="midnightblue" stroke="midnightblue" points="584.42,-146.01 588.46,-136.22 579.2,-141.35 584.42,-146.01"/>
</g>
<!-- Node12 -->
<g id="node12" class="node">
<title>Node12</title>
<g id="a_node12"><a xlink:href="testing__model_8test_8cpp.html#a5f7f706da071e9c79176674931fb0dd9" target="_top" xlink:title=" ">
<polygon fill="none" stroke="black" points="406,-38.5 406,-57.5 447,-57.5 447,-38.5 406,-38.5"/>
<text text-anchor="middle" x="426.5" y="-45.5" font-family="Helvetica,sans-Serif" font-size="10.00">TEST</text>
</a>
</g>
</g>
<!-- Node1&#45;&gt;Node12 -->
<g id="edge13" class="edge">
<title>Node1&#45;&gt;Node12</title>
<path fill="none" stroke="midnightblue" d="M570.28,-100.15C552.39,-88.99 529.14,-75.76 507,-67 487.34,-59.22 463.63,-54.06 447.25,-51.1"/>
<polygon fill="midnightblue" stroke="midnightblue" points="568.8,-103.36 579.12,-105.77 572.56,-97.45 568.8,-103.36"/>
</g>
<!-- Node13 -->
<g id="node13" class="node">
<title>Node13</title>
<g id="a_node13"><a xlink:href="classkazoo_1_1ModelTester.html#ae04082b16f30df3b2200f4d090b0337b" target="_top" xlink:title=" ">
<polygon fill="none" stroke="black" points="156,-131 156,-161 300,-161 300,-131 156,-131"/>
<text text-anchor="start" x="164" y="-149" font-family="Helvetica,sans-Serif" font-size="10.00">kazoo::ModelTester</text>
<text text-anchor="middle" x="228" y="-138" font-family="Helvetica,sans-Serif" font-size="10.00">::test_basicEncodeDecode</text>
</a>
</g>
</g>
<!-- Node1&#45;&gt;Node13 -->
<g id="edge14" class="edge">
<title>Node1&#45;&gt;Node13</title>
<path fill="none" stroke="midnightblue" d="M532.58,-125.63C466.5,-130.06 367.19,-136.73 300.33,-141.21"/>
<polygon fill="midnightblue" stroke="midnightblue" points="533.14,-129.1 542.89,-124.93 532.68,-122.11 533.14,-129.1"/>
</g>
<!-- Node14 -->
<g id="node14" class="node">
<title>Node14</title>
<g id="a_node14"><a xlink:href="k1__model_8test_8cpp.html#a7afde82f3b7a3b8a1d5c2175d4d2b323" target="_top" xlink:title=" ">
<polygon fill="none" stroke="black" points="400.5,-0.5 400.5,-19.5 452.5,-19.5 452.5,-0.5 400.5,-0.5"/>
<text text-anchor="middle" x="426.5" y="-7.5" font-family="Helvetica,sans-Serif" font-size="10.00">TEST_F</text>
</a>
</g>
</g>
<!-- Node1&#45;&gt;Node14 -->
<g id="edge16" class="edge">
<title>Node1&#45;&gt;Node14</title>
<path fill="none" stroke="midnightblue" d="M583.92,-97.84C566.63,-76.72 538.34,-46.26 507,-29 490.22,-19.76 469.03,-14.98 452.75,-12.53"/>
<polygon fill="midnightblue" stroke="midnightblue" points="581.22,-100.08 590.2,-105.71 586.69,-95.71 581.22,-100.08"/>
</g>
<!-- Node3 -->
<g id="node3" class="node">
<title>Node3</title>
<g id="a_node3"><a xlink:href="classkazoo_1_1TranslationLayer.html#a85b59418d9b63eaf80dd1b3623a96b96" target="_top" xlink:title=" ">
<polygon fill="none" stroke="black" points="162.5,-219 162.5,-249 293.5,-249 293.5,-219 162.5,-219"/>
<text text-anchor="start" x="170.5" y="-237" font-family="Helvetica,sans-Serif" font-size="10.00">kazoo::TranslationLayer</text>
<text text-anchor="middle" x="228" y="-226" font-family="Helvetica,sans-Serif" font-size="10.00">::sendFrame</text>
</a>
</g>
</g>
<!-- Node2&#45;&gt;Node3 -->
<g id="edge2" class="edge">
<title>Node2&#45;&gt;Node3</title>
<path fill="none" stroke="midnightblue" d="M351.13,-206.65C332.21,-210.89 312.04,-215.41 293.65,-219.52"/>
<polygon fill="midnightblue" stroke="midnightblue" points="351.89,-210.07 360.89,-204.47 350.36,-203.24 351.89,-210.07"/>
</g>
<!-- Node6 -->
<g id="node6" class="node">
<title>Node6</title>
<g id="a_node6"><a xlink:href="translation__layer_8test_8cpp.html#a5981aa5142cca1c44a01f7506cf94a8e" target="_top" xlink:title=" ">
<polygon fill="none" stroke="black" points="207.5,-180.5 207.5,-199.5 248.5,-199.5 248.5,-180.5 207.5,-180.5"/>
<text text-anchor="middle" x="228" y="-187.5" font-family="Helvetica,sans-Serif" font-size="10.00">TEST</text>
</a>
</g>
</g>
<!-- Node2&#45;&gt;Node6 -->
<g id="edge5" class="edge">
<title>Node2&#45;&gt;Node6</title>
<path fill="none" stroke="midnightblue" d="M350.69,-190C314.05,-190 272.78,-190 248.94,-190"/>
<polygon fill="midnightblue" stroke="midnightblue" points="350.89,-193.5 360.89,-190 350.89,-186.5 350.89,-193.5"/>
</g>
<!-- Node4 -->
<g id="node4" class="node">
<title>Node4</title>
<g id="a_node4"><a xlink:href="src_2kazoo__connect__server_2main_8cpp.html#ae66f6b31b5ad750f1fe042a706a4e3d4" target="_top" xlink:title=" ">
<polygon fill="none" stroke="black" points="34.5,-227.5 34.5,-246.5 75.5,-246.5 75.5,-227.5 34.5,-227.5"/>
<text text-anchor="middle" x="55" y="-234.5" font-family="Helvetica,sans-Serif" font-size="10.00">main</text>
</a>
</g>
</g>
<!-- Node3&#45;&gt;Node4 -->
<g id="edge3" class="edge">
<title>Node3&#45;&gt;Node4</title>
<path fill="none" stroke="midnightblue" d="M152.12,-235.31C124.09,-235.81 94.52,-236.32 75.7,-236.65"/>
<polygon fill="midnightblue" stroke="midnightblue" points="152.42,-238.81 162.35,-235.13 152.29,-231.81 152.42,-238.81"/>
</g>
<!-- Node5 -->
<g id="node5" class="node">
<title>Node5</title>
<g id="a_node5"><a xlink:href="translation__layer_8test_8cpp.html#a557311196b9a309f0d8377ef5af0c62c" target="_top" xlink:title=" ">
<polygon fill="none" stroke="black" points="34.5,-270.5 34.5,-289.5 75.5,-289.5 75.5,-270.5 34.5,-270.5"/>
<text text-anchor="middle" x="55" y="-277.5" font-family="Helvetica,sans-Serif" font-size="10.00">TEST</text>
</a>
</g>
</g>
<!-- Node3&#45;&gt;Node5 -->
<g id="edge4" class="edge">
<title>Node3&#45;&gt;Node5</title>
<path fill="none" stroke="midnightblue" d="M161.25,-251.69C130.76,-259.89 96.72,-269.05 75.82,-274.67"/>
<polygon fill="midnightblue" stroke="midnightblue" points="162.26,-255.04 171.01,-249.06 160.44,-248.28 162.26,-255.04"/>
</g>
<!-- Node8 -->
<g id="node8" class="node">
<title>Node8</title>
<g id="a_node8"><a xlink:href="classkazoo_1_1ModelTester.html#a43e738d358a87f9f01cc8ad13c6964fe" target="_top" xlink:title=" ">
<polygon fill="none" stroke="black" points="146,-82 146,-112 310,-112 310,-82 146,-82"/>
<text text-anchor="start" x="154" y="-100" font-family="Helvetica,sans-Serif" font-size="10.00">kazoo::ModelTester</text>
<text text-anchor="middle" x="228" y="-89" font-family="Helvetica,sans-Serif" font-size="10.00">::test_gaussianNoiseTolerance</text>
</a>
</g>
</g>
<!-- Node7&#45;&gt;Node8 -->
<g id="edge7" class="edge">
<title>Node7&#45;&gt;Node8</title>
<path fill="none" stroke="midnightblue" d="M335.82,-97C327.23,-97 318.54,-97 310.03,-97"/>
<polygon fill="midnightblue" stroke="midnightblue" points="335.86,-100.5 345.86,-97 335.86,-93.5 335.86,-100.5"/>
</g>
<!-- Node9 -->
<g id="node9" class="node">
<title>Node9</title>
<g id="a_node9"><a xlink:href="classkazoo_1_1ModelTester.html#a7e596cfc6087c50c134a30707a33d6dc" target="_top" xlink:title=" ">
<polygon fill="none" stroke="black" points="0,-107 0,-137 110,-137 110,-107 0,-107"/>
<text text-anchor="start" x="8" y="-125" font-family="Helvetica,sans-Serif" font-size="10.00">kazoo::ModelTester</text>
<text text-anchor="middle" x="55" y="-114" font-family="Helvetica,sans-Serif" font-size="10.00">::runAllTests</text>
</a>
</g>
</g>
<!-- Node8&#45;&gt;Node9 -->
<g id="edge8" class="edge">
<title>Node8&#45;&gt;Node9</title>
<path fill="none" stroke="midnightblue" d="M135.85,-110.33C127.1,-111.61 118.42,-112.87 110.19,-114.08"/>
<polygon fill="midnightblue" stroke="midnightblue" points="136.37,-113.79 145.76,-108.88 135.36,-106.86 136.37,-113.79"/>
</g>
<!-- Node11 -->
<g id="node11" class="node">
<title>Node11</title>
<g id="a_node11"><a xlink:href="classkazoo_1_1TranslationLayer.html#add62ed51f54492faf5a8ef388f1f0f58" target="_top" xlink:title="Starts listening for audio input on the default audio device.">
<polygon fill="none" stroke="black" points="162.5,-268 162.5,-298 293.5,-298 293.5,-268 162.5,-268"/>
<text text-anchor="start" x="170.5" y="-286" font-family="Helvetica,sans-Serif" font-size="10.00">kazoo::TranslationLayer</text>
<text text-anchor="middle" x="228" y="-275" font-family="Helvetica,sans-Serif" font-size="10.00">::startListening</text>
</a>
</g>
</g>
<!-- Node10&#45;&gt;Node11 -->
<g id="edge10" class="edge">
<title>Node10&#45;&gt;Node11</title>
<path fill="none" stroke="midnightblue" d="M350.87,-269.36C332.03,-271.47 311.95,-273.71 293.65,-275.76"/>
<polygon fill="midnightblue" stroke="midnightblue" points="351.34,-272.83 360.89,-268.23 350.56,-265.87 351.34,-272.83"/>
</g>
<!-- Node11&#45;&gt;Node4 -->
<g id="edge11" class="edge">
<title>Node11&#45;&gt;Node4</title>
<path fill="none" stroke="midnightblue" d="M161.25,-265.31C130.76,-257.11 96.72,-247.95 75.82,-242.33"/>
<polygon fill="midnightblue" stroke="midnightblue" points="160.44,-268.72 171.01,-267.94 162.26,-261.96 160.44,-268.72"/>
</g>
<!-- Node11&#45;&gt;Node5 -->
<g id="edge12" class="edge">
<title>Node11&#45;&gt;Node5</title>
<path fill="none" stroke="midnightblue" d="M152.12,-281.69C124.09,-281.19 94.52,-280.68 75.7,-280.35"/>
<polygon fill="midnightblue" stroke="midnightblue" points="152.29,-285.19 162.35,-281.87 152.42,-278.19 152.29,-285.19"/>
</g>
<!-- Node13&#45;&gt;Node9 -->
<g id="edge15" class="edge">
<title>Node13&#45;&gt;Node9</title>
<path fill="none" stroke="midnightblue" d="M145.84,-134.61C133.73,-132.91 121.5,-131.19 110.12,-129.6"/>
<polygon fill="midnightblue" stroke="midnightblue" points="145.58,-138.11 155.97,-136.03 146.55,-131.17 145.58,-138.11"/>
</g>
</g>
</svg>
