<?xml version="1.0" encoding="UTF-8" standalone="no"?>
<!DOCTYPE svg PUBLIC "-//W3C//DTD SVG 1.1//EN"
 "http://www.w3.org/Graphics/SVG/1.1/DTD/svg11.dtd">
<!-- Generated by graphviz version 2.43.0 (0)
 -->
<!-- Title: kazoo::KtlFrame::encodeFrame Pages: 1 -->
<svg width="419pt" height="91pt"
 viewBox="0.00 0.00 419.00 91.00" xmlns="http://www.w3.org/2000/svg" xmlns:xlink="http://www.w3.org/1999/xlink">
<g id="graph0" class="graph" transform="scale(1 1) rotate(0) translate(4 87)">
<title>kazoo::KtlFrame::encodeFrame</title>
<!-- Node1 -->
<g id="node1" class="node">
<title>Node1</title>
<g id="a_node1"><a xlink:title=" ">
<polygon fill="#bfbfbf" stroke="black" points="244,-22.5 244,-41.5 411,-41.5 411,-22.5 244,-22.5"/>
<text text-anchor="middle" x="327.5" y="-29.5" font-family="Helvetica,sans-Serif" font-size="10.00">kazoo::KtlFrame::encodeFrame</text>
</a>
</g>
</g>
<!-- Node2 -->
<g id="node2" class="node">
<title>Node2</title>
<g id="a_node2"><a xlink:href="classkazoo_1_1TranslationLayer.html#a85b59418d9b63eaf80dd1b3623a96b96" target="_top" xlink:title=" ">
<polygon fill="none" stroke="black" points="77,-39 77,-69 208,-69 208,-39 77,-39"/>
<text text-anchor="start" x="85" y="-57" font-family="Helvetica,sans-Serif" font-size="10.00">kazoo::TranslationLayer</text>
<text text-anchor="middle" x="142.5" y="-46" font-family="Helvetica,sans-Serif" font-size="10.00">::sendFrame</text>
</a>
</g>
</g>
<!-- Node1&#45;&gt;Node2 -->
<g id="edge1" class="edge">
<title>Node1&#45;&gt;Node2</title>
<path fill="none" stroke="midnightblue" d="M237.16,-42.74C227.41,-43.91 217.62,-45.09 208.24,-46.22"/>
<polygon fill="midnightblue" stroke="midnightblue" points="237.79,-46.19 247.3,-41.52 236.95,-39.24 237.79,-46.19"/>
</g>
<!-- Node5 -->
<g id="node5" class="node">
<title>Node5</title>
<g id="a_node5"><a xlink:href="deframer_8test_8cpp.html#ac064358bf6bb70c7c1e2ffbfebca6eca" target="_top" xlink:title=" ">
<polygon fill="none" stroke="black" points="122,-0.5 122,-19.5 163,-19.5 163,-0.5 122,-0.5"/>
<text text-anchor="middle" x="142.5" y="-7.5" font-family="Helvetica,sans-Serif" font-size="10.00">TEST</text>
</a>
</g>
</g>
<!-- Node1&#45;&gt;Node5 -->
<g id="edge4" class="edge">
<title>Node1&#45;&gt;Node5</title>
<path fill="none" stroke="midnightblue" d="M237.11,-21.25C209.36,-17.92 181.35,-14.55 163.3,-12.38"/>
<polygon fill="midnightblue" stroke="midnightblue" points="236.95,-24.76 247.3,-22.48 237.79,-17.81 236.95,-24.76"/>
</g>
<!-- Node3 -->
<g id="node3" class="node">
<title>Node3</title>
<g id="a_node3"><a xlink:href="src_2kazoo__connect__server_2main_8cpp.html#ae66f6b31b5ad750f1fe042a706a4e3d4" target="_top" xlink:title=" ">
<polygon fill="none" stroke="black" points="0,-63.5 0,-82.5 41,-82.5 41,-63.5 0,-63.5"/>
<text text-anchor="middle" x="20.5" y="-70.5" font-family="Helvetica,sans-Serif" font-size="10.00">main</text>
</a>
</g>
</g>
<!-- Node2&#45;&gt;Node3 -->
<g id="edge2" class="edge">
<title>Node2&#45;&gt;Node3</title>
<path fill="none" stroke="midnightblue" d="M66.91,-65.81C57.43,-67.31 48.46,-68.73 41.05,-69.91"/>
<polygon fill="midnightblue" stroke="midnightblue" points="67.6,-69.24 76.93,-64.22 66.51,-62.33 67.6,-69.24"/>
</g>
<!-- Node4 -->
<g id="node4" class="node">
<title>Node4</title>
<g id="a_node4"><a xlink:href="translation__layer_8test_8cpp.html#a557311196b9a309f0d8377ef5af0c62c" target="_top" xlink:title=" ">
<polygon fill="none" stroke="black" points="0,-25.5 0,-44.5 41,-44.5 41,-25.5 0,-25.5"/>
<text text-anchor="middle" x="20.5" y="-32.5" font-family="Helvetica,sans-Serif" font-size="10.00">TEST</text>
</a>
</g>
</g>
<!-- Node2&#45;&gt;Node4 -->
<g id="edge3" class="edge">
<title>Node2&#45;&gt;Node4</title>
<path fill="none" stroke="midnightblue" d="M66.91,-42.19C57.43,-40.69 48.46,-39.27 41.05,-38.09"/>
<polygon fill="midnightblue" stroke="midnightblue" points="66.51,-45.67 76.93,-43.78 67.6,-38.76 66.51,-45.67"/>
</g>
</g>
</svg>
