<?xml version="1.0" encoding="UTF-8" standalone="no"?>
<!DOCTYPE svg PUBLIC "-//W3C//DTD SVG 1.1//EN"
 "http://www.w3.org/Graphics/SVG/1.1/DTD/svg11.dtd">
<!-- Generated by graphviz version 2.43.0 (0)
 -->
<!-- Title: kazoo::ISymbolModel::getValue Pages: 1 -->
<svg width="464pt" height="78pt"
 viewBox="0.00 0.00 464.00 77.50" xmlns="http://www.w3.org/2000/svg" xmlns:xlink="http://www.w3.org/1999/xlink">
<g id="graph0" class="graph" transform="scale(1 1) rotate(0) translate(4 73.5)">
<title>kazoo::ISymbolModel::getValue</title>
<!-- Node1 -->
<g id="node1" class="node">
<title>Node1</title>
<g id="a_node1"><a xlink:title="Get the value corresponding to the numeric token id.">
<polygon fill="#bfbfbf" stroke="black" points="335,-17 335,-47 456,-47 456,-17 335,-17"/>
<text text-anchor="start" x="343" y="-35" font-family="Helvetica,sans-Serif" font-size="10.00">kazoo::ISymbolModel</text>
<text text-anchor="middle" x="395.5" y="-24" font-family="Helvetica,sans-Serif" font-size="10.00">::getValue</text>
</a>
</g>
</g>
<!-- Node2 -->
<g id="node2" class="node">
<title>Node2</title>
<g id="a_node2"><a xlink:href="classkazoo_1_1SymbolStream.html#a6d4fe37e7f9c05587d95de99c84be743" target="_top" xlink:title=" ">
<polygon fill="none" stroke="black" points="167,-17 167,-47 299,-47 299,-17 167,-17"/>
<text text-anchor="start" x="175" y="-35" font-family="Helvetica,sans-Serif" font-size="10.00">kazoo::SymbolStream</text>
<text text-anchor="middle" x="233" y="-24" font-family="Helvetica,sans-Serif" font-size="10.00">::populateBinaryStream</text>
</a>
</g>
</g>
<!-- Node1&#45;&gt;Node2 -->
<g id="edge1" class="edge">
<title>Node1&#45;&gt;Node2</title>
<path fill="none" stroke="midnightblue" d="M324.56,-32C316.14,-32 307.56,-32 299.2,-32"/>
<polygon fill="midnightblue" stroke="midnightblue" points="324.74,-35.5 334.74,-32 324.74,-28.5 324.74,-35.5"/>
</g>
<!-- Node3 -->
<g id="node3" class="node">
<title>Node3</title>
<g id="a_node3"><a xlink:href="classkazoo_1_1TranslationLayer.html#a76f09d5f7213679a6656aa9473f8f2ab" target="_top" xlink:title=" ">
<polygon fill="none" stroke="black" points="0,-39 0,-69 131,-69 131,-39 0,-39"/>
<text text-anchor="start" x="8" y="-57" font-family="Helvetica,sans-Serif" font-size="10.00">kazoo::TranslationLayer</text>
<text text-anchor="middle" x="65.5" y="-46" font-family="Helvetica,sans-Serif" font-size="10.00">::loadAndDecodeWav</text>
</a>
</g>
</g>
<!-- Node2&#45;&gt;Node3 -->
<g id="edge2" class="edge">
<title>Node2&#45;&gt;Node3</title>
<path fill="none" stroke="midnightblue" d="M156.66,-42.01C148.15,-43.15 139.53,-44.29 131.16,-45.4"/>
<polygon fill="midnightblue" stroke="midnightblue" points="157.14,-45.48 166.59,-40.69 156.22,-38.54 157.14,-45.48"/>
</g>
<!-- Node4 -->
<g id="node4" class="node">
<title>Node4</title>
<g id="a_node4"><a xlink:href="symbol__stream_8test_8cpp.html#a6649846ac517122a5ce6489b52046605" target="_top" xlink:title=" ">
<polygon fill="none" stroke="black" points="45,-0.5 45,-19.5 86,-19.5 86,-0.5 45,-0.5"/>
<text text-anchor="middle" x="65.5" y="-7.5" font-family="Helvetica,sans-Serif" font-size="10.00">TEST</text>
</a>
</g>
</g>
<!-- Node2&#45;&gt;Node4 -->
<g id="edge3" class="edge">
<title>Node2&#45;&gt;Node4</title>
<path fill="none" stroke="midnightblue" d="M156.39,-21.95C130.6,-18.52 103.88,-14.97 86.34,-12.64"/>
<polygon fill="midnightblue" stroke="midnightblue" points="156.22,-25.46 166.59,-23.31 157.14,-18.52 156.22,-25.46"/>
</g>
</g>
</svg>
