<?xml version="1.0" encoding="UTF-8" standalone="no"?>
<!DOCTYPE svg PUBLIC "-//W3C//DTD SVG 1.1//EN"
 "http://www.w3.org/Graphics/SVG/1.1/DTD/svg11.dtd">
<!-- Generated by graphviz version 2.43.0 (0)
 -->
<!-- Title: kazoo::ISymbolStream::addSymbolId Pages: 1 -->
<svg width="475pt" height="186pt"
 viewBox="0.00 0.00 475.00 186.00" xmlns="http://www.w3.org/2000/svg" xmlns:xlink="http://www.w3.org/1999/xlink">
<g id="graph0" class="graph" transform="scale(1 1) rotate(0) translate(4 182)">
<title>kazoo::ISymbolStream::addSymbolId</title>
<!-- Node1 -->
<g id="node1" class="node">
<title>Node1</title>
<g id="a_node1"><a xlink:title=" ">
<polygon fill="#bfbfbf" stroke="black" points="341,-73.5 341,-103.5 467,-103.5 467,-73.5 341,-73.5"/>
<text text-anchor="start" x="349" y="-91.5" font-family="Helvetica,sans-Serif" font-size="10.00">kazoo::ISymbolStream</text>
<text text-anchor="middle" x="404" y="-80.5" font-family="Helvetica,sans-Serif" font-size="10.00">::addSymbolId</text>
</a>
</g>
</g>
<!-- Node2 -->
<g id="node2" class="node">
<title>Node2</title>
<g id="a_node2"><a xlink:href="classkazoo_1_1model_1_1K1Model_1_1Model.html#ae81ef27f4256c94c207bb252bbc72860" target="_top" xlink:title=" ">
<polygon fill="none" stroke="black" points="109.5,-147.5 109.5,-177.5 283.5,-177.5 283.5,-147.5 109.5,-147.5"/>
<text text-anchor="start" x="117.5" y="-165.5" font-family="Helvetica,sans-Serif" font-size="10.00">kazoo::model::K1Model</text>
<text text-anchor="middle" x="196.5" y="-154.5" font-family="Helvetica,sans-Serif" font-size="10.00">::Model::decodeAudioToSymbols</text>
</a>
</g>
</g>
<!-- Node1&#45;&gt;Node2 -->
<g id="edge1" class="edge">
<title>Node1&#45;&gt;Node2</title>
<path fill="none" stroke="midnightblue" d="M368.73,-108.68C350.34,-118.81 326.98,-130.58 305,-138.5 295.64,-141.87 285.65,-144.86 275.67,-147.49"/>
<polygon fill="midnightblue" stroke="midnightblue" points="370.58,-111.66 377.59,-103.72 367.16,-105.55 370.58,-111.66"/>
</g>
<!-- Node4 -->
<g id="node4" class="node">
<title>Node4</title>
<g id="a_node4"><a xlink:href="classkazoo_1_1model_1_1K2PeakModel_1_1Model.html#ab9a88aed9b08fb13ca096dc482729308" target="_top" xlink:title=" ">
<polygon fill="none" stroke="black" points="109.5,-98.5 109.5,-128.5 283.5,-128.5 283.5,-98.5 109.5,-98.5"/>
<text text-anchor="start" x="117.5" y="-116.5" font-family="Helvetica,sans-Serif" font-size="10.00">kazoo::model::K2PeakModel</text>
<text text-anchor="middle" x="196.5" y="-105.5" font-family="Helvetica,sans-Serif" font-size="10.00">::Model::decodeAudioToSymbols</text>
</a>
</g>
</g>
<!-- Node1&#45;&gt;Node4 -->
<g id="edge3" class="edge">
<title>Node1&#45;&gt;Node4</title>
<path fill="none" stroke="midnightblue" d="M330.5,-97.32C315.39,-99.16 299.32,-101.11 283.77,-103.01"/>
<polygon fill="midnightblue" stroke="midnightblue" points="331.28,-100.75 340.79,-96.07 330.44,-93.8 331.28,-100.75"/>
</g>
<!-- Node6 -->
<g id="node6" class="node">
<title>Node6</title>
<g id="a_node6"><a xlink:href="classkazoo_1_1model_1_1K3ReasonableModel_1_1K3Model.html#a7bbd29b57bbe7679a0fe5341dcead576" target="_top" xlink:title=" ">
<polygon fill="none" stroke="black" points="88,-49.5 88,-79.5 305,-79.5 305,-49.5 88,-49.5"/>
<text text-anchor="start" x="96" y="-67.5" font-family="Helvetica,sans-Serif" font-size="10.00">kazoo::model::K3Reasonable</text>
<text text-anchor="middle" x="196.5" y="-56.5" font-family="Helvetica,sans-Serif" font-size="10.00">Model::K3Model::decodeAudioToSymbols</text>
</a>
</g>
</g>
<!-- Node1&#45;&gt;Node6 -->
<g id="edge5" class="edge">
<title>Node1&#45;&gt;Node6</title>
<path fill="none" stroke="midnightblue" d="M330.77,-80.06C322.43,-79.09 313.79,-78.08 305.1,-77.07"/>
<polygon fill="midnightblue" stroke="midnightblue" points="330.45,-83.55 340.79,-81.23 331.26,-76.6 330.45,-83.55"/>
</g>
<!-- Node8 -->
<g id="node8" class="node">
<title>Node8</title>
<g id="a_node8"><a xlink:href="classkazoo_1_1model_1_1Testing_1_1Model.html#a368da153dec9c373f8f63592579c42b5" target="_top" xlink:title=" ">
<polygon fill="none" stroke="black" points="109.5,-0.5 109.5,-30.5 283.5,-30.5 283.5,-0.5 109.5,-0.5"/>
<text text-anchor="start" x="117.5" y="-18.5" font-family="Helvetica,sans-Serif" font-size="10.00">kazoo::model::Testing</text>
<text text-anchor="middle" x="196.5" y="-7.5" font-family="Helvetica,sans-Serif" font-size="10.00">::Model::decodeAudioToSymbols</text>
</a>
</g>
</g>
<!-- Node1&#45;&gt;Node8 -->
<g id="edge7" class="edge">
<title>Node1&#45;&gt;Node8</title>
<path fill="none" stroke="midnightblue" d="M367.19,-68.52C348.99,-59 326.28,-48.07 305,-40.5 294.53,-36.77 283.29,-33.45 272.16,-30.54"/>
<polygon fill="midnightblue" stroke="midnightblue" points="365.79,-71.74 376.26,-73.34 369.07,-65.56 365.79,-71.74"/>
</g>
<!-- Node3 -->
<g id="node3" class="node">
<title>Node3</title>
<g id="a_node3"><a xlink:href="k1__model_8test_8cpp.html#a7afde82f3b7a3b8a1d5c2175d4d2b323" target="_top" xlink:title=" ">
<polygon fill="none" stroke="black" points="0,-153 0,-172 52,-172 52,-153 0,-153"/>
<text text-anchor="middle" x="26" y="-160" font-family="Helvetica,sans-Serif" font-size="10.00">TEST_F</text>
</a>
</g>
</g>
<!-- Node2&#45;&gt;Node3 -->
<g id="edge2" class="edge">
<title>Node2&#45;&gt;Node3</title>
<path fill="none" stroke="midnightblue" d="M99.03,-162.5C81.73,-162.5 65.13,-162.5 52.23,-162.5"/>
<polygon fill="midnightblue" stroke="midnightblue" points="99.28,-166 109.28,-162.5 99.28,-159 99.28,-166"/>
</g>
<!-- Node5 -->
<g id="node5" class="node">
<title>Node5</title>
<g id="a_node5"><a xlink:href="k2__peak__model_8test_8cpp.html#a17f63146f1faeef6df7fadccd45457c5" target="_top" xlink:title=" ">
<polygon fill="none" stroke="black" points="0,-104 0,-123 52,-123 52,-104 0,-104"/>
<text text-anchor="middle" x="26" y="-111" font-family="Helvetica,sans-Serif" font-size="10.00">TEST_F</text>
</a>
</g>
</g>
<!-- Node4&#45;&gt;Node5 -->
<g id="edge4" class="edge">
<title>Node4&#45;&gt;Node5</title>
<path fill="none" stroke="midnightblue" d="M99.03,-113.5C81.73,-113.5 65.13,-113.5 52.23,-113.5"/>
<polygon fill="midnightblue" stroke="midnightblue" points="99.28,-117 109.28,-113.5 99.28,-110 99.28,-117"/>
</g>
<!-- Node7 -->
<g id="node7" class="node">
<title>Node7</title>
<g id="a_node7"><a xlink:href="k3__model_8test_8cpp.html#ac3bedba18c3a5c5cdf36b38d093ae122" target="_top" xlink:title=" ">
<polygon fill="none" stroke="black" points="0,-55 0,-74 52,-74 52,-55 0,-55"/>
<text text-anchor="middle" x="26" y="-62" font-family="Helvetica,sans-Serif" font-size="10.00">TEST_F</text>
</a>
</g>
</g>
<!-- Node6&#45;&gt;Node7 -->
<g id="edge6" class="edge">
<title>Node6&#45;&gt;Node7</title>
<path fill="none" stroke="midnightblue" d="M77.55,-64.5C68.28,-64.5 59.67,-64.5 52.27,-64.5"/>
<polygon fill="midnightblue" stroke="midnightblue" points="77.83,-68 87.83,-64.5 77.83,-61 77.83,-68"/>
</g>
<!-- Node9 -->
<g id="node9" class="node">
<title>Node9</title>
<g id="a_node9"><a xlink:href="testing__model_8test_8cpp.html#a5f7f706da071e9c79176674931fb0dd9" target="_top" xlink:title=" ">
<polygon fill="none" stroke="black" points="5.5,-6 5.5,-25 46.5,-25 46.5,-6 5.5,-6"/>
<text text-anchor="middle" x="26" y="-13" font-family="Helvetica,sans-Serif" font-size="10.00">TEST</text>
</a>
</g>
</g>
<!-- Node8&#45;&gt;Node9 -->
<g id="edge8" class="edge">
<title>Node8&#45;&gt;Node9</title>
<path fill="none" stroke="midnightblue" d="M99.13,-15.5C79.22,-15.5 60.24,-15.5 46.75,-15.5"/>
<polygon fill="midnightblue" stroke="midnightblue" points="99.28,-19 109.28,-15.5 99.28,-12 99.28,-19"/>
</g>
</g>
</svg>
