<?xml version="1.0" encoding="UTF-8" standalone="no"?>
<!DOCTYPE svg PUBLIC "-//W3C//DTD SVG 1.1//EN"
 "http://www.w3.org/Graphics/SVG/1.1/DTD/svg11.dtd">
<!-- Generated by graphviz version 2.43.0 (0)
 -->
<!-- Title: kazoo::model::K1Model::Model::detectSymbolFromFftResults Pages: 1 -->
<svg width="470pt" height="50pt"
 viewBox="0.00 0.00 470.00 50.00" xmlns="http://www.w3.org/2000/svg" xmlns:xlink="http://www.w3.org/1999/xlink">
<g id="graph0" class="graph" transform="scale(1 1) rotate(0) translate(4 46)">
<title>kazoo::model::K1Model::Model::detectSymbolFromFftResults</title>
<!-- Node1 -->
<g id="node1" class="node">
<title>Node1</title>
<g id="a_node1"><a xlink:title=" ">
<polygon fill="#bfbfbf" stroke="black" points="298,-0.5 298,-41.5 462,-41.5 462,-0.5 298,-0.5"/>
<text text-anchor="start" x="306" y="-29.5" font-family="Helvetica,sans-Serif" font-size="10.00">kazoo::model::K1Model</text>
<text text-anchor="start" x="306" y="-18.5" font-family="Helvetica,sans-Serif" font-size="10.00">::Model::detectSymbolFromFft</text>
<text text-anchor="middle" x="380" y="-7.5" font-family="Helvetica,sans-Serif" font-size="10.00">Results</text>
</a>
</g>
</g>
<!-- Node2 -->
<g id="node2" class="node">
<title>Node2</title>
<g id="a_node2"><a xlink:href="classkazoo_1_1model_1_1K1Model_1_1Model.html#ae81ef27f4256c94c207bb252bbc72860" target="_top" xlink:title=" ">
<polygon fill="none" stroke="black" points="88,-6 88,-36 262,-36 262,-6 88,-6"/>
<text text-anchor="start" x="96" y="-24" font-family="Helvetica,sans-Serif" font-size="10.00">kazoo::model::K1Model</text>
<text text-anchor="middle" x="175" y="-13" font-family="Helvetica,sans-Serif" font-size="10.00">::Model::decodeAudioToSymbols</text>
</a>
</g>
</g>
<!-- Node1&#45;&gt;Node2 -->
<g id="edge1" class="edge">
<title>Node1&#45;&gt;Node2</title>
<path fill="none" stroke="midnightblue" d="M287.66,-21C279.23,-21 270.69,-21 262.3,-21"/>
<polygon fill="midnightblue" stroke="midnightblue" points="287.89,-24.5 297.89,-21 287.89,-17.5 287.89,-24.5"/>
</g>
<!-- Node3 -->
<g id="node3" class="node">
<title>Node3</title>
<g id="a_node3"><a xlink:href="k1__model_8test_8cpp.html#a7afde82f3b7a3b8a1d5c2175d4d2b323" target="_top" xlink:title=" ">
<polygon fill="none" stroke="black" points="0,-11.5 0,-30.5 52,-30.5 52,-11.5 0,-11.5"/>
<text text-anchor="middle" x="26" y="-18.5" font-family="Helvetica,sans-Serif" font-size="10.00">TEST_F</text>
</a>
</g>
</g>
<!-- Node2&#45;&gt;Node3 -->
<g id="edge2" class="edge">
<title>Node2&#45;&gt;Node3</title>
<path fill="none" stroke="midnightblue" d="M77.53,-21C68.37,-21 59.74,-21 52.29,-21"/>
<polygon fill="midnightblue" stroke="midnightblue" points="77.64,-24.5 87.64,-21 77.64,-17.5 77.64,-24.5"/>
</g>
</g>
</svg>
