<?xml version="1.0" encoding="UTF-8" standalone="no"?>
<!DOCTYPE svg PUBLIC "-//W3C//DTD SVG 1.1//EN"
 "http://www.w3.org/Graphics/SVG/1.1/DTD/svg11.dtd">
<!-- Generated by graphviz version 2.43.0 (0)
 -->
<!-- Title: kazoo::model::K2PeakModel::Model::decodeAudioToSymbols Pages: 1 -->
<svg width="578pt" height="181pt"
 viewBox="0.00 0.00 578.00 181.00" xmlns="http://www.w3.org/2000/svg" xmlns:xlink="http://www.w3.org/1999/xlink">
<g id="graph0" class="graph" transform="scale(1 1) rotate(0) translate(4 177)">
<title>kazoo::model::K2PeakModel::Model::decodeAudioToSymbols</title>
<!-- Node1 -->
<g id="node1" class="node">
<title>Node1</title>
<g id="a_node1"><a xlink:title=" ">
<polygon fill="#bfbfbf" stroke="black" points="0,-68.5 0,-98.5 174,-98.5 174,-68.5 0,-68.5"/>
<text text-anchor="start" x="8" y="-86.5" font-family="Helvetica,sans-Serif" font-size="10.00">kazoo::model::K2PeakModel</text>
<text text-anchor="middle" x="87" y="-75.5" font-family="Helvetica,sans-Serif" font-size="10.00">::Model::decodeAudioToSymbols</text>
</a>
</g>
</g>
<!-- Node2 -->
<g id="node2" class="node">
<title>Node2</title>
<g id="a_node2"><a xlink:href="classkazoo_1_1ISymbolStream.html#a84d57e49235049ea033140d351aeb2cb" target="_top" xlink:title=" ">
<polygon fill="none" stroke="black" points="247,-142.5 247,-172.5 373,-172.5 373,-142.5 247,-142.5"/>
<text text-anchor="start" x="255" y="-160.5" font-family="Helvetica,sans-Serif" font-size="10.00">kazoo::ISymbolStream</text>
<text text-anchor="middle" x="310" y="-149.5" font-family="Helvetica,sans-Serif" font-size="10.00">::addSymbolId</text>
</a>
</g>
</g>
<!-- Node1&#45;&gt;Node2 -->
<g id="edge1" class="edge">
<title>Node1&#45;&gt;Node2</title>
<path fill="none" stroke="midnightblue" d="M120.89,-98.57C145.16,-109.29 179.19,-123.51 210,-133.5 218.65,-136.3 227.82,-138.95 236.94,-141.39"/>
<polygon fill="midnightblue" stroke="midnightblue" points="236.25,-144.82 246.81,-143.95 238.01,-138.05 236.25,-144.82"/>
</g>
<!-- Node3 -->
<g id="node3" class="node">
<title>Node3</title>
<g id="a_node3"><a xlink:href="classkazoo_1_1model_1_1K2PeakModel_1_1Model.html#a0b8dda6cce60188332fe3a35a1c91f7a" target="_top" xlink:title=" ">
<polygon fill="none" stroke="black" points="210,-93.5 210,-123.5 410,-123.5 410,-93.5 210,-93.5"/>
<text text-anchor="start" x="218" y="-111.5" font-family="Helvetica,sans-Serif" font-size="10.00">kazoo::model::K2PeakModel</text>
<text text-anchor="middle" x="310" y="-100.5" font-family="Helvetica,sans-Serif" font-size="10.00">::Model::detectSymbolFromFftResults</text>
</a>
</g>
</g>
<!-- Node1&#45;&gt;Node3 -->
<g id="edge2" class="edge">
<title>Node1&#45;&gt;Node3</title>
<path fill="none" stroke="midnightblue" d="M174.08,-93.24C182.53,-94.19 191.18,-95.17 199.82,-96.15"/>
<polygon fill="midnightblue" stroke="midnightblue" points="199.61,-99.65 209.94,-97.29 200.4,-92.69 199.61,-99.65"/>
</g>
<!-- Node5 -->
<g id="node5" class="node">
<title>Node5</title>
<g id="a_node5"><a xlink:href="classkazoo_1_1IAudioChannel.html#a4cb9127060966e0e53bd6782b9f3413d" target="_top" xlink:title=" ">
<polygon fill="none" stroke="black" points="249,-44.5 249,-74.5 371,-74.5 371,-44.5 249,-44.5"/>
<text text-anchor="start" x="257" y="-62.5" font-family="Helvetica,sans-Serif" font-size="10.00">kazoo::IAudioChannel</text>
<text text-anchor="middle" x="310" y="-51.5" font-family="Helvetica,sans-Serif" font-size="10.00">::getSamplesRef</text>
</a>
</g>
</g>
<!-- Node1&#45;&gt;Node5 -->
<g id="edge4" class="edge">
<title>Node1&#45;&gt;Node5</title>
<path fill="none" stroke="midnightblue" d="M174.08,-74.15C195.44,-71.83 218.08,-69.37 238.58,-67.15"/>
<polygon fill="midnightblue" stroke="midnightblue" points="239.22,-70.6 248.78,-66.04 238.46,-63.64 239.22,-70.6"/>
</g>
<!-- Node6 -->
<g id="node6" class="node">
<title>Node6</title>
<g id="a_node6"><a xlink:href="classkazoo_1_1Fft.html#a8163205fa6b54e9c6e24022c5180baae" target="_top" xlink:title=" ">
<polygon fill="none" stroke="black" points="224,-6 224,-25 396,-25 396,-6 224,-6"/>
<text text-anchor="middle" x="310" y="-13" font-family="Helvetica,sans-Serif" font-size="10.00">kazoo::Fft::performFftFrequency</text>
</a>
</g>
</g>
<!-- Node1&#45;&gt;Node6 -->
<g id="edge5" class="edge">
<title>Node1&#45;&gt;Node6</title>
<path fill="none" stroke="midnightblue" d="M120.53,-68.44C144.77,-57.71 178.9,-43.64 210,-34.5 219.45,-31.72 229.52,-29.25 239.49,-27.08"/>
<polygon fill="midnightblue" stroke="midnightblue" points="240.33,-30.48 249.4,-25.01 238.89,-23.63 240.33,-30.48"/>
</g>
<!-- Node4 -->
<g id="node4" class="node">
<title>Node4</title>
<g id="a_node4"><a xlink:href="structkazoo_1_1Fft_1_1FftResults.html#a1e06d9b6ae6b3a6f6c717bd7268eb4f3" target="_top" xlink:title=" ">
<polygon fill="none" stroke="black" points="446,-93.5 446,-123.5 570,-123.5 570,-93.5 446,-93.5"/>
<text text-anchor="start" x="454" y="-111.5" font-family="Helvetica,sans-Serif" font-size="10.00">kazoo::Fft::FftResults</text>
<text text-anchor="middle" x="508" y="-100.5" font-family="Helvetica,sans-Serif" font-size="10.00">::getNormalizedPeaks</text>
</a>
</g>
</g>
<!-- Node3&#45;&gt;Node4 -->
<g id="edge3" class="edge">
<title>Node3&#45;&gt;Node4</title>
<path fill="none" stroke="midnightblue" d="M410.15,-108.5C418.79,-108.5 427.42,-108.5 435.77,-108.5"/>
<polygon fill="midnightblue" stroke="midnightblue" points="435.79,-112 445.79,-108.5 435.79,-105 435.79,-112"/>
</g>
<!-- Node7 -->
<g id="node7" class="node">
<title>Node7</title>
<g id="a_node7"><a xlink:href="structkazoo_1_1Fft_1_1FftResults.html#a3af2ef110332f3a5f0b38b8cd4e16019" target="_top" xlink:title=" ">
<polygon fill="none" stroke="black" points="448.5,-0.5 448.5,-30.5 567.5,-30.5 567.5,-0.5 448.5,-0.5"/>
<text text-anchor="start" x="456.5" y="-18.5" font-family="Helvetica,sans-Serif" font-size="10.00">kazoo::Fft::FftResults</text>
<text text-anchor="middle" x="508" y="-7.5" font-family="Helvetica,sans-Serif" font-size="10.00">::reset</text>
</a>
</g>
</g>
<!-- Node6&#45;&gt;Node7 -->
<g id="edge6" class="edge">
<title>Node6&#45;&gt;Node7</title>
<path fill="none" stroke="midnightblue" d="M396.11,-15.5C410.19,-15.5 424.63,-15.5 438.24,-15.5"/>
<polygon fill="midnightblue" stroke="midnightblue" points="438.47,-19 448.47,-15.5 438.47,-12 438.47,-19"/>
</g>
</g>
</svg>
