<?xml version="1.0" encoding="UTF-8" standalone="no"?>
<!DOCTYPE svg PUBLIC "-//W3C//DTD SVG 1.1//EN"
 "http://www.w3.org/Graphics/SVG/1.1/DTD/svg11.dtd">
<!-- Generated by graphviz version 2.43.0 (0)
 -->
<!-- Title: kazoo::SymbolStream::populateBinaryStream Pages: 1 -->
<svg width="615pt" height="176pt"
 viewBox="0.00 0.00 615.00 176.00" xmlns="http://www.w3.org/2000/svg" xmlns:xlink="http://www.w3.org/1999/xlink">
<g id="graph0" class="graph" transform="scale(1 1) rotate(0) translate(4 172)">
<title>kazoo::SymbolStream::populateBinaryStream</title>
<!-- Node1 -->
<g id="node1" class="node">
<title>Node1</title>
<g id="a_node1"><a xlink:title=" ">
<polygon fill="#bfbfbf" stroke="black" points="0,-66.5 0,-96.5 132,-96.5 132,-66.5 0,-66.5"/>
<text text-anchor="start" x="8" y="-84.5" font-family="Helvetica,sans-Serif" font-size="10.00">kazoo::SymbolStream</text>
<text text-anchor="middle" x="66" y="-73.5" font-family="Helvetica,sans-Serif" font-size="10.00">::populateBinaryStream</text>
</a>
</g>
</g>
<!-- Node2 -->
<g id="node2" class="node">
<title>Node2</title>
<g id="a_node2"><a xlink:href="classkazoo_1_1BinaryStream.html#a9fa928af862a740fe6f000c5937a2e9d" target="_top" xlink:title="Add individual bits to the stream.">
<polygon fill="none" stroke="black" points="170.5,-137.5 170.5,-167.5 288.5,-167.5 288.5,-137.5 170.5,-137.5"/>
<text text-anchor="start" x="178.5" y="-155.5" font-family="Helvetica,sans-Serif" font-size="10.00">kazoo::BinaryStream</text>
<text text-anchor="middle" x="229.5" y="-144.5" font-family="Helvetica,sans-Serif" font-size="10.00">::addBits</text>
</a>
</g>
</g>
<!-- Node1&#45;&gt;Node2 -->
<g id="edge1" class="edge">
<title>Node1&#45;&gt;Node2</title>
<path fill="none" stroke="midnightblue" d="M98.18,-96.58C118.04,-106.04 144.37,-118.33 168,-128.5 171.91,-130.18 175.98,-131.89 180.08,-133.58"/>
<polygon fill="midnightblue" stroke="midnightblue" points="179.05,-136.94 189.63,-137.47 181.69,-130.46 179.05,-136.94"/>
</g>
<!-- Node4 -->
<g id="node4" class="node">
<title>Node4</title>
<g id="a_node4"><a xlink:href="classkazoo_1_1SymbolStream.html#a5eb190a46e077143f1abcaf2211a0ad0" target="_top" xlink:title=" ">
<polygon fill="none" stroke="black" points="168,-88.5 168,-118.5 291,-118.5 291,-88.5 168,-88.5"/>
<text text-anchor="start" x="176" y="-106.5" font-family="Helvetica,sans-Serif" font-size="10.00">kazoo::SymbolStream</text>
<text text-anchor="middle" x="229.5" y="-95.5" font-family="Helvetica,sans-Serif" font-size="10.00">::getNumBytes</text>
</a>
</g>
</g>
<!-- Node1&#45;&gt;Node4 -->
<g id="edge3" class="edge">
<title>Node1&#45;&gt;Node4</title>
<path fill="none" stroke="midnightblue" d="M132.22,-90.38C140.72,-91.54 149.45,-92.73 158.03,-93.9"/>
<polygon fill="midnightblue" stroke="midnightblue" points="157.62,-97.38 168,-95.26 158.56,-90.44 157.62,-97.38"/>
</g>
<!-- Node6 -->
<g id="node6" class="node">
<title>Node6</title>
<g id="a_node6"><a xlink:href="classkazoo_1_1ISymbolModel.html#a08668909fe1a7f901fe26ad30f9a1e30" target="_top" xlink:title=" ">
<polygon fill="none" stroke="black" points="486,-66.5 486,-96.5 607,-96.5 607,-66.5 486,-66.5"/>
<text text-anchor="start" x="494" y="-84.5" font-family="Helvetica,sans-Serif" font-size="10.00">kazoo::ISymbolModel</text>
<text text-anchor="middle" x="546.5" y="-73.5" font-family="Helvetica,sans-Serif" font-size="10.00">::getSymbolBitWidth</text>
</a>
</g>
</g>
<!-- Node1&#45;&gt;Node6 -->
<g id="edge6" class="edge">
<title>Node1&#45;&gt;Node6</title>
<path fill="none" stroke="midnightblue" d="M132.19,-79.28C144.1,-78.95 156.42,-78.67 168,-78.5 293.32,-76.64 324.68,-76.53 450,-78.5 458.34,-78.63 467.1,-78.83 475.78,-79.06"/>
<polygon fill="midnightblue" stroke="midnightblue" points="475.81,-82.56 485.9,-79.34 476,-75.56 475.81,-82.56"/>
</g>
<!-- Node7 -->
<g id="node7" class="node">
<title>Node7</title>
<g id="a_node7"><a xlink:href="classkazoo_1_1ISymbolModel.html#a3ca9c5ebd0a01b68487fdc7be93d4583" target="_top" xlink:title="Get the value corresponding to the numeric token id.">
<polygon fill="none" stroke="black" points="169,-0.5 169,-30.5 290,-30.5 290,-0.5 169,-0.5"/>
<text text-anchor="start" x="177" y="-18.5" font-family="Helvetica,sans-Serif" font-size="10.00">kazoo::ISymbolModel</text>
<text text-anchor="middle" x="229.5" y="-7.5" font-family="Helvetica,sans-Serif" font-size="10.00">::getValue</text>
</a>
</g>
</g>
<!-- Node1&#45;&gt;Node7 -->
<g id="edge7" class="edge">
<title>Node1&#45;&gt;Node7</title>
<path fill="none" stroke="midnightblue" d="M104.05,-66.36C127.24,-56.88 157.3,-44.6 182.07,-34.48"/>
<polygon fill="midnightblue" stroke="midnightblue" points="183.69,-37.59 191.62,-30.57 181.04,-31.11 183.69,-37.59"/>
</g>
<!-- Node3 -->
<g id="node3" class="node">
<title>Node3</title>
<g id="a_node3"><a xlink:href="classkazoo_1_1BinaryStream.html#ad6187750dbcd6ae38948b5c267740bf6" target="_top" xlink:title=" ">
<polygon fill="none" stroke="black" points="329.5,-137.5 329.5,-167.5 447.5,-167.5 447.5,-137.5 329.5,-137.5"/>
<text text-anchor="start" x="337.5" y="-155.5" font-family="Helvetica,sans-Serif" font-size="10.00">kazoo::BinaryStream</text>
<text text-anchor="middle" x="388.5" y="-144.5" font-family="Helvetica,sans-Serif" font-size="10.00">::addBit</text>
</a>
</g>
</g>
<!-- Node2&#45;&gt;Node3 -->
<g id="edge2" class="edge">
<title>Node2&#45;&gt;Node3</title>
<path fill="none" stroke="midnightblue" d="M288.51,-152.5C298.54,-152.5 309.04,-152.5 319.3,-152.5"/>
<polygon fill="midnightblue" stroke="midnightblue" points="319.46,-156 329.46,-152.5 319.46,-149 319.46,-156"/>
</g>
<!-- Node5 -->
<g id="node5" class="node">
<title>Node5</title>
<g id="a_node5"><a xlink:href="classkazoo_1_1SymbolStream.html#a1276660b16a23ea24bd024fd8ba72b57" target="_top" xlink:title=" ">
<polygon fill="none" stroke="black" points="327,-88.5 327,-118.5 450,-118.5 450,-88.5 327,-88.5"/>
<text text-anchor="start" x="335" y="-106.5" font-family="Helvetica,sans-Serif" font-size="10.00">kazoo::SymbolStream</text>
<text text-anchor="middle" x="388.5" y="-95.5" font-family="Helvetica,sans-Serif" font-size="10.00">::getNumBits</text>
</a>
</g>
</g>
<!-- Node4&#45;&gt;Node5 -->
<g id="edge4" class="edge">
<title>Node4&#45;&gt;Node5</title>
<path fill="none" stroke="midnightblue" d="M291.2,-103.5C299.64,-103.5 308.36,-103.5 316.95,-103.5"/>
<polygon fill="midnightblue" stroke="midnightblue" points="316.96,-107 326.96,-103.5 316.96,-100 316.96,-107"/>
</g>
<!-- Node5&#45;&gt;Node6 -->
<g id="edge5" class="edge">
<title>Node5&#45;&gt;Node6</title>
<path fill="none" stroke="midnightblue" d="M450.26,-94.93C458.68,-93.74 467.39,-92.52 475.96,-91.31"/>
<polygon fill="midnightblue" stroke="midnightblue" points="476.52,-94.76 485.93,-89.9 475.54,-87.83 476.52,-94.76"/>
</g>
</g>
</svg>
