<?xml version="1.0" encoding="UTF-8" standalone="no"?>
<!DOCTYPE svg PUBLIC "-//W3C//DTD SVG 1.1//EN"
 "http://www.w3.org/Graphics/SVG/1.1/DTD/svg11.dtd">
<!-- Generated by graphviz version 2.43.0 (0)
 -->
<!-- Title: kazoo::KtlFrame Pages: 1 -->
<svg width="417pt" height="303pt"
 viewBox="0.00 0.00 416.50 303.00" xmlns="http://www.w3.org/2000/svg" xmlns:xlink="http://www.w3.org/1999/xlink">
<g id="graph0" class="graph" transform="scale(1 1) rotate(0) translate(4 299)">
<title>kazoo::KtlFrame</title>
<!-- Node1 -->
<g id="node1" class="node">
<title>Node1</title>
<g id="a_node1"><a xlink:title="A data frame for the KTL protocol, Inspired by AX.25.">
<polygon fill="#bfbfbf" stroke="black" points="124,-0.5 124,-145.5 225,-145.5 225,-0.5 124,-0.5"/>
<text text-anchor="middle" x="174.5" y="-133.5" font-family="Helvetica,sans-Serif" font-size="10.00">kazoo::KtlFrame</text>
<polyline fill="none" stroke="black" points="124,-126.5 225,-126.5 "/>
<text text-anchor="middle" x="174.5" y="-114.5" font-family="Helvetica,sans-Serif" font-size="10.00"> </text>
<polyline fill="none" stroke="black" points="124,-107.5 225,-107.5 "/>
<text text-anchor="start" x="132" y="-95.5" font-family="Helvetica,sans-Serif" font-size="10.00">+ KtlFrame()</text>
<text text-anchor="start" x="132" y="-84.5" font-family="Helvetica,sans-Serif" font-size="10.00">+ KtlFrame()</text>
<text text-anchor="start" x="132" y="-73.5" font-family="Helvetica,sans-Serif" font-size="10.00">+ KtlFrame()</text>
<text text-anchor="start" x="132" y="-62.5" font-family="Helvetica,sans-Serif" font-size="10.00">+ ~KtlFrame()</text>
<text text-anchor="start" x="132" y="-51.5" font-family="Helvetica,sans-Serif" font-size="10.00">+ encodeFrame()</text>
<text text-anchor="start" x="132" y="-40.5" font-family="Helvetica,sans-Serif" font-size="10.00">+ getData()</text>
<text text-anchor="start" x="132" y="-29.5" font-family="Helvetica,sans-Serif" font-size="10.00">+ getDataSize()</text>
<text text-anchor="start" x="132" y="-18.5" font-family="Helvetica,sans-Serif" font-size="10.00">+ setData()</text>
<text text-anchor="start" x="132" y="-7.5" font-family="Helvetica,sans-Serif" font-size="10.00">+ setData()</text>
</a>
</g>
</g>
<!-- Node2 -->
<g id="node2" class="node">
<title>Node2</title>
<g id="a_node2"><a xlink:title=" ">
<polygon fill="none" stroke="black" points="0,-237.5 0,-294.5 45,-294.5 45,-237.5 0,-237.5"/>
<text text-anchor="middle" x="22.5" y="-282.5" font-family="Helvetica,sans-Serif" font-size="10.00">size_t</text>
<polyline fill="none" stroke="black" points="0,-275.5 45,-275.5 "/>
<text text-anchor="middle" x="22.5" y="-263.5" font-family="Helvetica,sans-Serif" font-size="10.00"> </text>
<polyline fill="none" stroke="black" points="0,-256.5 45,-256.5 "/>
<text text-anchor="middle" x="22.5" y="-244.5" font-family="Helvetica,sans-Serif" font-size="10.00"> </text>
</a>
</g>
</g>
<!-- Node2&#45;&gt;Node1 -->
<g id="edge1" class="edge">
<title>Node2&#45;&gt;Node1</title>
<path fill="none" stroke="#404040" d="M22.09,-237.14C23.03,-215.57 27.2,-185.78 41.5,-164 58.91,-137.47 87.13,-116.74 113.11,-101.9"/>
<polygon fill="none" stroke="#404040" points="113.16,-101.87 116.5,-95.48 123.68,-96.1 120.35,-102.49 113.16,-101.87"/>
<text text-anchor="middle" x="106" y="-205.5" font-family="Helvetica,sans-Serif" font-size="10.00"> +FRAME_END_SIZE</text>
<text text-anchor="middle" x="106" y="-194.5" font-family="Helvetica,sans-Serif" font-size="10.00">+FRAME_HEADER_SIZE</text>
<text text-anchor="middle" x="106" y="-183.5" font-family="Helvetica,sans-Serif" font-size="10.00">+MAX_FRAME_DATA_SIZE</text>
<text text-anchor="middle" x="106" y="-172.5" font-family="Helvetica,sans-Serif" font-size="10.00">+MAX_FRAME_SIZE</text>
</g>
<!-- Node3 -->
<g id="node3" class="node">
<title>Node3</title>
<g id="a_node3"><a xlink:title=" ">
<polygon fill="none" stroke="black" points="109,-237.5 109,-294.5 240,-294.5 240,-237.5 109,-237.5"/>
<text text-anchor="middle" x="174.5" y="-282.5" font-family="Helvetica,sans-Serif" font-size="10.00">static constexpr uint8_t</text>
<polyline fill="none" stroke="black" points="109,-275.5 240,-275.5 "/>
<text text-anchor="middle" x="174.5" y="-263.5" font-family="Helvetica,sans-Serif" font-size="10.00"> </text>
<polyline fill="none" stroke="black" points="109,-256.5 240,-256.5 "/>
<text text-anchor="middle" x="174.5" y="-244.5" font-family="Helvetica,sans-Serif" font-size="10.00"> </text>
</a>
</g>
</g>
<!-- Node3&#45;&gt;Node1 -->
<g id="edge2" class="edge">
<title>Node3&#45;&gt;Node1</title>
<path fill="none" stroke="#404040" d="M174.5,-237.23C174.5,-216.22 174.5,-186.22 174.5,-157.65"/>
<polygon fill="none" stroke="#404040" points="174.5,-157.52 170.5,-151.52 174.5,-145.52 178.5,-151.52 174.5,-157.52"/>
<text text-anchor="middle" x="234.5" y="-211" font-family="Helvetica,sans-Serif" font-size="10.00"> +FRAME_ALIGN_BYTE</text>
<text text-anchor="middle" x="234.5" y="-200" font-family="Helvetica,sans-Serif" font-size="10.00">+FRAME_END_BYTE_A</text>
<text text-anchor="start" x="174.5" y="-189" font-family="Helvetica,sans-Serif" font-size="10.00">+FRAME_START_BYTE</text>
<text text-anchor="middle" x="234.5" y="-178" font-family="Helvetica,sans-Serif" font-size="10.00">_A</text>
<text text-anchor="middle" x="234.5" y="-167" font-family="Helvetica,sans-Serif" font-size="10.00">+FRAME_START_BYTE_B</text>
</g>
<!-- Node4 -->
<g id="node4" class="node">
<title>Node4</title>
<g id="a_node4"><a xlink:title=" ">
<polygon fill="none" stroke="black" points="265.5,-237.5 265.5,-294.5 369.5,-294.5 369.5,-237.5 265.5,-237.5"/>
<text text-anchor="middle" x="317.5" y="-282.5" font-family="Helvetica,sans-Serif" font-size="10.00">vector&lt; uint8_t &gt;</text>
<polyline fill="none" stroke="black" points="265.5,-275.5 369.5,-275.5 "/>
<text text-anchor="middle" x="317.5" y="-263.5" font-family="Helvetica,sans-Serif" font-size="10.00"> </text>
<polyline fill="none" stroke="black" points="265.5,-256.5 369.5,-256.5 "/>
<text text-anchor="middle" x="317.5" y="-244.5" font-family="Helvetica,sans-Serif" font-size="10.00"> </text>
</a>
</g>
</g>
<!-- Node4&#45;&gt;Node1 -->
<g id="edge3" class="edge">
<title>Node4&#45;&gt;Node1</title>
<path fill="none" stroke="#404040" d="M316.67,-237.28C314.86,-215.77 309.7,-186.02 295.5,-164 280.55,-140.83 257.43,-121.49 235.38,-106.75"/>
<polygon fill="none" stroke="#404040" points="235.12,-106.58 227.91,-106.71 225.02,-100.1 232.23,-99.98 235.12,-106.58"/>
<text text-anchor="middle" x="361" y="-189" font-family="Helvetica,sans-Serif" font-size="10.00"> &#45;frame_data_field_</text>
</g>
</g>
</svg>
