<?xml version="1.0" encoding="UTF-8" standalone="no"?>
<!DOCTYPE svg PUBLIC "-//W3C//DTD SVG 1.1//EN"
 "http://www.w3.org/Graphics/SVG/1.1/DTD/svg11.dtd">
<!-- Generated by graphviz version 2.43.0 (0)
 -->
<!-- Title: kazoo::TranslationLayer::loadAndDecodeWav Pages: 1 -->
<svg width="792pt" height="455pt"
 viewBox="0.00 0.00 792.00 455.00" xmlns="http://www.w3.org/2000/svg" xmlns:xlink="http://www.w3.org/1999/xlink">
<g id="graph0" class="graph" transform="scale(1 1) rotate(0) translate(4 451)">
<title>kazoo::TranslationLayer::loadAndDecodeWav</title>
<!-- Node1 -->
<g id="node1" class="node">
<title>Node1</title>
<g id="a_node1"><a xlink:title=" ">
<polygon fill="#bfbfbf" stroke="black" points="0,-208.5 0,-238.5 131,-238.5 131,-208.5 0,-208.5"/>
<text text-anchor="start" x="8" y="-226.5" font-family="Helvetica,sans-Serif" font-size="10.00">kazoo::TranslationLayer</text>
<text text-anchor="middle" x="65.5" y="-215.5" font-family="Helvetica,sans-Serif" font-size="10.00">::loadAndDecodeWav</text>
</a>
</g>
</g>
<!-- Node2 -->
<g id="node2" class="node">
<title>Node2</title>
<g id="a_node2"><a xlink:href="classkazoo_1_1ISymbolModel.html#a2c41b4fca45a1bb19613435c92fb91d4" target="_top" xlink:title=" ">
<polygon fill="none" stroke="black" points="169,-416.5 169,-446.5 307,-446.5 307,-416.5 169,-416.5"/>
<text text-anchor="start" x="177" y="-434.5" font-family="Helvetica,sans-Serif" font-size="10.00">kazoo::ISymbolModel</text>
<text text-anchor="middle" x="238" y="-423.5" font-family="Helvetica,sans-Serif" font-size="10.00">::decodeAudioToSymbols</text>
</a>
</g>
</g>
<!-- Node1&#45;&gt;Node2 -->
<g id="edge1" class="edge">
<title>Node1&#45;&gt;Node2</title>
<path fill="none" stroke="midnightblue" d="M70.6,-238.54C80.86,-273.37 110.93,-360.22 167,-407.5 168.51,-408.77 170.09,-409.98 171.73,-411.12"/>
<polygon fill="midnightblue" stroke="midnightblue" points="169.97,-414.15 180.33,-416.33 173.59,-408.16 169.97,-414.15"/>
</g>
<!-- Node3 -->
<g id="node3" class="node">
<title>Node3</title>
<g id="a_node3"><a xlink:href="classkazoo_1_1BinaryStream.html#a1967b889fe140b13e9989cb425a4e37d" target="_top" xlink:title="Get the next num_bytes bytes from the stream. Does not remove the bytes from the stream.">
<polygon fill="none" stroke="black" points="179,-367.5 179,-397.5 297,-397.5 297,-367.5 179,-367.5"/>
<text text-anchor="start" x="187" y="-385.5" font-family="Helvetica,sans-Serif" font-size="10.00">kazoo::BinaryStream</text>
<text text-anchor="middle" x="238" y="-374.5" font-family="Helvetica,sans-Serif" font-size="10.00">::getBytes</text>
</a>
</g>
</g>
<!-- Node1&#45;&gt;Node3 -->
<g id="edge2" class="edge">
<title>Node1&#45;&gt;Node3</title>
<path fill="none" stroke="midnightblue" d="M73.93,-238.83C88.17,-266.64 121.92,-325.59 167,-358.5 169.04,-359.99 171.19,-361.4 173.4,-362.72"/>
<polygon fill="midnightblue" stroke="midnightblue" points="171.77,-365.81 182.24,-367.41 175.05,-359.63 171.77,-365.81"/>
</g>
<!-- Node4 -->
<g id="node4" class="node">
<title>Node4</title>
<g id="a_node4"><a xlink:href="classkazoo_1_1BinaryStream.html#af26ef358b4ddbd2f0a7f9d94d1b64357" target="_top" xlink:title="Get the number of bytes in the stream. If the stream has spare bits that do not align to a byte,...">
<polygon fill="none" stroke="black" points="179,-318.5 179,-348.5 297,-348.5 297,-318.5 179,-318.5"/>
<text text-anchor="start" x="187" y="-336.5" font-family="Helvetica,sans-Serif" font-size="10.00">kazoo::BinaryStream</text>
<text text-anchor="middle" x="238" y="-325.5" font-family="Helvetica,sans-Serif" font-size="10.00">::getNumBytes</text>
</a>
</g>
</g>
<!-- Node1&#45;&gt;Node4 -->
<g id="edge3" class="edge">
<title>Node1&#45;&gt;Node4</title>
<path fill="none" stroke="midnightblue" d="M82.56,-238.55C101.61,-255.83 134.84,-284.28 167,-303.5 173.4,-307.32 180.37,-310.92 187.36,-314.2"/>
<polygon fill="midnightblue" stroke="midnightblue" points="186.29,-317.55 196.84,-318.47 189.16,-311.17 186.29,-317.55"/>
</g>
<!-- Node5 -->
<g id="node5" class="node">
<title>Node5</title>
<g id="a_node5"><a xlink:href="classkazoo_1_1SymbolStream.html#a5eb190a46e077143f1abcaf2211a0ad0" target="_top" xlink:title=" ">
<polygon fill="none" stroke="black" points="345,-0.5 345,-30.5 468,-30.5 468,-0.5 345,-0.5"/>
<text text-anchor="start" x="353" y="-18.5" font-family="Helvetica,sans-Serif" font-size="10.00">kazoo::SymbolStream</text>
<text text-anchor="middle" x="406.5" y="-7.5" font-family="Helvetica,sans-Serif" font-size="10.00">::getNumBytes</text>
</a>
</g>
</g>
<!-- Node1&#45;&gt;Node5 -->
<g id="edge4" class="edge">
<title>Node1&#45;&gt;Node5</title>
<path fill="none" stroke="midnightblue" d="M72.84,-208.33C85.91,-178.95 118.74,-114.22 167,-80.5 220.56,-43.08 245.99,-59.75 309,-42.5 319.84,-39.53 331.35,-36.35 342.5,-33.24"/>
<polygon fill="midnightblue" stroke="midnightblue" points="343.5,-36.59 352.19,-30.53 341.61,-29.85 343.5,-36.59"/>
</g>
<!-- Node8 -->
<g id="node8" class="node">
<title>Node8</title>
<g id="a_node8"><a xlink:href="classkazoo_1_1TranslationLayer.html#aac2f32faef9d2ffa8f3a28bf58844ba6" target="_top" xlink:title=" ">
<polygon fill="none" stroke="black" points="171.5,-230.5 171.5,-260.5 304.5,-260.5 304.5,-230.5 171.5,-230.5"/>
<text text-anchor="start" x="179.5" y="-248.5" font-family="Helvetica,sans-Serif" font-size="10.00">kazoo::TranslationLayer</text>
<text text-anchor="middle" x="238" y="-237.5" font-family="Helvetica,sans-Serif" font-size="10.00">::getStaticSymbolModel</text>
</a>
</g>
</g>
<!-- Node1&#45;&gt;Node8 -->
<g id="edge7" class="edge">
<title>Node1&#45;&gt;Node8</title>
<path fill="none" stroke="midnightblue" d="M131.45,-231.88C141.26,-233.15 151.45,-234.46 161.46,-235.75"/>
<polygon fill="midnightblue" stroke="midnightblue" points="161.02,-239.23 171.39,-237.03 161.92,-232.28 161.02,-239.23"/>
</g>
<!-- Node9 -->
<g id="node9" class="node">
<title>Node9</title>
<g id="a_node9"><a xlink:href="classkazoo_1_1BinaryStream.html#a32b6f202b2627b75ace2e6c9c07726aa" target="_top" xlink:title="Get the byte alignment status of the stream.">
<polygon fill="none" stroke="black" points="347.5,-274.5 347.5,-304.5 465.5,-304.5 465.5,-274.5 347.5,-274.5"/>
<text text-anchor="start" x="355.5" y="-292.5" font-family="Helvetica,sans-Serif" font-size="10.00">kazoo::BinaryStream</text>
<text text-anchor="middle" x="406.5" y="-281.5" font-family="Helvetica,sans-Serif" font-size="10.00">::isByteAligned</text>
</a>
</g>
</g>
<!-- Node1&#45;&gt;Node9 -->
<g id="edge8" class="edge">
<title>Node1&#45;&gt;Node9</title>
<path fill="none" stroke="midnightblue" d="M92.86,-238.63C112.6,-249.19 140.64,-262.59 167,-269.5 223.1,-284.21 288.92,-288.83 337.19,-289.98"/>
<polygon fill="midnightblue" stroke="midnightblue" points="337.14,-293.48 347.21,-290.18 337.28,-286.48 337.14,-293.48"/>
</g>
<!-- Node10 -->
<g id="node10" class="node">
<title>Node10</title>
<g id="a_node10"><a xlink:href="classkazoo_1_1BinaryStream.html#a8d303f53784202d1d75b360075093ffb" target="_top" xlink:title="If the last element is being used as a bit buffer, this will fill the remaining bits until the stream...">
<polygon fill="none" stroke="black" points="167,-192 167,-211 309,-211 309,-192 167,-192"/>
<text text-anchor="middle" x="238" y="-199" font-family="Helvetica,sans-Serif" font-size="10.00">kazoo::BinaryStream::pad</text>
</a>
</g>
</g>
<!-- Node1&#45;&gt;Node10 -->
<g id="edge9" class="edge">
<title>Node1&#45;&gt;Node10</title>
<path fill="none" stroke="midnightblue" d="M131.45,-215.12C139.76,-214.05 148.36,-212.94 156.88,-211.84"/>
<polygon fill="midnightblue" stroke="midnightblue" points="157.37,-215.3 166.84,-210.55 156.47,-208.36 157.37,-215.3"/>
</g>
<!-- Node12 -->
<g id="node12" class="node">
<title>Node12</title>
<g id="a_node12"><a xlink:href="classkazoo_1_1WavFile.html#a74fbd1c97919038da5f87bbd830ced41" target="_top" xlink:title=" ">
<polygon fill="none" stroke="black" points="169,-142.5 169,-172.5 307,-172.5 307,-142.5 169,-142.5"/>
<text text-anchor="start" x="177" y="-160.5" font-family="Helvetica,sans-Serif" font-size="10.00">kazoo::WavFile::populate</text>
<text text-anchor="middle" x="238" y="-149.5" font-family="Helvetica,sans-Serif" font-size="10.00">AudioChannel</text>
</a>
</g>
</g>
<!-- Node1&#45;&gt;Node12 -->
<g id="edge12" class="edge">
<title>Node1&#45;&gt;Node12</title>
<path fill="none" stroke="midnightblue" d="M102.63,-208.31C121.7,-200.41 145.53,-190.71 167,-182.5 172.56,-180.37 178.39,-178.2 184.21,-176.07"/>
<polygon fill="midnightblue" stroke="midnightblue" points="185.74,-179.24 193.95,-172.54 183.35,-172.66 185.74,-179.24"/>
</g>
<!-- Node14 -->
<g id="node14" class="node">
<title>Node14</title>
<g id="a_node14"><a xlink:href="classkazoo_1_1SymbolStream.html#a6d4fe37e7f9c05587d95de99c84be743" target="_top" xlink:title=" ">
<polygon fill="none" stroke="black" points="172,-90.5 172,-120.5 304,-120.5 304,-90.5 172,-90.5"/>
<text text-anchor="start" x="180" y="-108.5" font-family="Helvetica,sans-Serif" font-size="10.00">kazoo::SymbolStream</text>
<text text-anchor="middle" x="238" y="-97.5" font-family="Helvetica,sans-Serif" font-size="10.00">::populateBinaryStream</text>
</a>
</g>
</g>
<!-- Node1&#45;&gt;Node14 -->
<g id="edge14" class="edge">
<title>Node1&#45;&gt;Node14</title>
<path fill="none" stroke="midnightblue" d="M79.78,-208.42C97.84,-188.69 131.93,-154.1 167,-132.5 171.58,-129.68 176.49,-127.07 181.53,-124.67"/>
<polygon fill="midnightblue" stroke="midnightblue" points="182.96,-127.87 190.66,-120.59 180.1,-121.48 182.96,-127.87"/>
</g>
<!-- Node17 -->
<g id="node17" class="node">
<title>Node17</title>
<g id="a_node17"><a xlink:href="classkazoo_1_1WavFile.html#a94cafc70d8ec435b1e045431939ff6d3" target="_top" xlink:title="Read a WAV file from disk. Clears the current audio sample buffer.">
<polygon fill="none" stroke="black" points="179.5,-14 179.5,-33 296.5,-33 296.5,-14 179.5,-14"/>
<text text-anchor="middle" x="238" y="-21" font-family="Helvetica,sans-Serif" font-size="10.00">kazoo::WavFile::read</text>
</a>
</g>
</g>
<!-- Node1&#45;&gt;Node17 -->
<g id="edge20" class="edge">
<title>Node1&#45;&gt;Node17</title>
<path fill="none" stroke="midnightblue" d="M71.04,-208.36C81.94,-174.55 112.78,-92.36 167,-47.5 172,-43.36 177.76,-39.92 183.77,-37.07"/>
<polygon fill="midnightblue" stroke="midnightblue" points="185.5,-40.14 193.37,-33.04 182.79,-33.68 185.5,-40.14"/>
</g>
<!-- Node6 -->
<g id="node6" class="node">
<title>Node6</title>
<g id="a_node6"><a xlink:href="classkazoo_1_1SymbolStream.html#a1276660b16a23ea24bd024fd8ba72b57" target="_top" xlink:title=" ">
<polygon fill="none" stroke="black" points="504,-0.5 504,-30.5 627,-30.5 627,-0.5 504,-0.5"/>
<text text-anchor="start" x="512" y="-18.5" font-family="Helvetica,sans-Serif" font-size="10.00">kazoo::SymbolStream</text>
<text text-anchor="middle" x="565.5" y="-7.5" font-family="Helvetica,sans-Serif" font-size="10.00">::getNumBits</text>
</a>
</g>
</g>
<!-- Node5&#45;&gt;Node6 -->
<g id="edge5" class="edge">
<title>Node5&#45;&gt;Node6</title>
<path fill="none" stroke="midnightblue" d="M468.2,-15.5C476.64,-15.5 485.36,-15.5 493.95,-15.5"/>
<polygon fill="midnightblue" stroke="midnightblue" points="493.96,-19 503.96,-15.5 493.96,-12 493.96,-19"/>
</g>
<!-- Node7 -->
<g id="node7" class="node">
<title>Node7</title>
<g id="a_node7"><a xlink:href="classkazoo_1_1ISymbolModel.html#a08668909fe1a7f901fe26ad30f9a1e30" target="_top" xlink:title=" ">
<polygon fill="none" stroke="black" points="663,-22.5 663,-52.5 784,-52.5 784,-22.5 663,-22.5"/>
<text text-anchor="start" x="671" y="-40.5" font-family="Helvetica,sans-Serif" font-size="10.00">kazoo::ISymbolModel</text>
<text text-anchor="middle" x="723.5" y="-29.5" font-family="Helvetica,sans-Serif" font-size="10.00">::getSymbolBitWidth</text>
</a>
</g>
</g>
<!-- Node6&#45;&gt;Node7 -->
<g id="edge6" class="edge">
<title>Node6&#45;&gt;Node7</title>
<path fill="none" stroke="midnightblue" d="M627.26,-24.07C635.68,-25.26 644.39,-26.48 652.96,-27.69"/>
<polygon fill="midnightblue" stroke="midnightblue" points="652.54,-31.17 662.93,-29.1 653.52,-24.24 652.54,-31.17"/>
</g>
<!-- Node10&#45;&gt;Node9 -->
<g id="edge11" class="edge">
<title>Node10&#45;&gt;Node9</title>
<path fill="none" stroke="midnightblue" d="M288.27,-211.09C295.51,-213.56 302.65,-216.65 309,-220.5 329.17,-232.73 326.12,-245.36 345,-259.5 349.81,-263.1 355.12,-266.46 360.53,-269.54"/>
<polygon fill="midnightblue" stroke="midnightblue" points="359.21,-272.8 369.68,-274.43 362.51,-266.63 359.21,-272.8"/>
</g>
<!-- Node11 -->
<g id="node11" class="node">
<title>Node11</title>
<g id="a_node11"><a xlink:href="classkazoo_1_1BinaryStream.html#ad6187750dbcd6ae38948b5c267740bf6" target="_top" xlink:title=" ">
<polygon fill="none" stroke="black" points="506.5,-183.5 506.5,-213.5 624.5,-213.5 624.5,-183.5 506.5,-183.5"/>
<text text-anchor="start" x="514.5" y="-201.5" font-family="Helvetica,sans-Serif" font-size="10.00">kazoo::BinaryStream</text>
<text text-anchor="middle" x="565.5" y="-190.5" font-family="Helvetica,sans-Serif" font-size="10.00">::addBit</text>
</a>
</g>
</g>
<!-- Node10&#45;&gt;Node11 -->
<g id="edge10" class="edge">
<title>Node10&#45;&gt;Node11</title>
<path fill="none" stroke="midnightblue" d="M272.57,-211.11C293.25,-216.53 320.44,-222.75 345,-225.5 399.33,-231.57 413.84,-232.93 468,-225.5 482.01,-223.58 496.85,-220.15 510.58,-216.38"/>
<polygon fill="midnightblue" stroke="midnightblue" points="511.7,-219.7 520.35,-213.58 509.78,-212.97 511.7,-219.7"/>
</g>
<!-- Node13 -->
<g id="node13" class="node">
<title>Node13</title>
<g id="a_node13"><a xlink:href="classkazoo_1_1IAudioChannel.html#a1a8b4d9d92793a83ea4cf27dd968450d" target="_top" xlink:title=" ">
<polygon fill="none" stroke="black" points="345.5,-186.5 345.5,-216.5 467.5,-216.5 467.5,-186.5 345.5,-186.5"/>
<text text-anchor="start" x="353.5" y="-204.5" font-family="Helvetica,sans-Serif" font-size="10.00">kazoo::IAudioChannel</text>
<text text-anchor="middle" x="406.5" y="-193.5" font-family="Helvetica,sans-Serif" font-size="10.00">::addSample</text>
</a>
</g>
</g>
<!-- Node12&#45;&gt;Node13 -->
<g id="edge13" class="edge">
<title>Node12&#45;&gt;Node13</title>
<path fill="none" stroke="midnightblue" d="M295.83,-172.52C309.69,-176.18 324.63,-180.13 338.9,-183.9"/>
<polygon fill="midnightblue" stroke="midnightblue" points="338.08,-187.3 348.64,-186.47 339.87,-180.53 338.08,-187.3"/>
</g>
<!-- Node14&#45;&gt;Node5 -->
<g id="edge17" class="edge">
<title>Node14&#45;&gt;Node5</title>
<path fill="none" stroke="midnightblue" d="M279.61,-90.45C289.51,-86.15 299.87,-81.1 309,-75.5 326.76,-64.62 327.55,-56.87 345,-45.5 350.41,-41.97 356.3,-38.57 362.21,-35.41"/>
<polygon fill="midnightblue" stroke="midnightblue" points="364.16,-38.34 371.44,-30.65 360.95,-32.12 364.16,-38.34"/>
</g>
<!-- Node14&#45;&gt;Node7 -->
<g id="edge18" class="edge">
<title>Node14&#45;&gt;Node7</title>
<path fill="none" stroke="midnightblue" d="M291.79,-90.49C308.68,-86.11 327.53,-81.66 345,-78.5 451.41,-59.27 576.45,-47.85 652.55,-42.13"/>
<polygon fill="midnightblue" stroke="midnightblue" points="653.24,-45.58 662.96,-41.36 652.72,-38.6 653.24,-45.58"/>
</g>
<!-- Node15 -->
<g id="node15" class="node">
<title>Node15</title>
<g id="a_node15"><a xlink:href="classkazoo_1_1BinaryStream.html#a9fa928af862a740fe6f000c5937a2e9d" target="_top" xlink:title="Add individual bits to the stream.">
<polygon fill="none" stroke="black" points="347.5,-137.5 347.5,-167.5 465.5,-167.5 465.5,-137.5 347.5,-137.5"/>
<text text-anchor="start" x="355.5" y="-155.5" font-family="Helvetica,sans-Serif" font-size="10.00">kazoo::BinaryStream</text>
<text text-anchor="middle" x="406.5" y="-144.5" font-family="Helvetica,sans-Serif" font-size="10.00">::addBits</text>
</a>
</g>
</g>
<!-- Node14&#45;&gt;Node15 -->
<g id="edge15" class="edge">
<title>Node14&#45;&gt;Node15</title>
<path fill="none" stroke="midnightblue" d="M292.14,-120.5C308.21,-125.04 326.01,-130.06 342.65,-134.76"/>
<polygon fill="midnightblue" stroke="midnightblue" points="341.72,-138.13 352.29,-137.48 343.62,-131.4 341.72,-138.13"/>
</g>
<!-- Node16 -->
<g id="node16" class="node">
<title>Node16</title>
<g id="a_node16"><a xlink:href="classkazoo_1_1ISymbolModel.html#a3ca9c5ebd0a01b68487fdc7be93d4583" target="_top" xlink:title="Get the value corresponding to the numeric token id.">
<polygon fill="none" stroke="black" points="346,-88.5 346,-118.5 467,-118.5 467,-88.5 346,-88.5"/>
<text text-anchor="start" x="354" y="-106.5" font-family="Helvetica,sans-Serif" font-size="10.00">kazoo::ISymbolModel</text>
<text text-anchor="middle" x="406.5" y="-95.5" font-family="Helvetica,sans-Serif" font-size="10.00">::getValue</text>
</a>
</g>
</g>
<!-- Node14&#45;&gt;Node16 -->
<g id="edge19" class="edge">
<title>Node14&#45;&gt;Node16</title>
<path fill="none" stroke="midnightblue" d="M304.33,-104.72C314.58,-104.59 325.21,-104.46 335.55,-104.34"/>
<polygon fill="midnightblue" stroke="midnightblue" points="335.83,-107.84 345.78,-104.22 335.74,-100.84 335.83,-107.84"/>
</g>
<!-- Node15&#45;&gt;Node11 -->
<g id="edge16" class="edge">
<title>Node15&#45;&gt;Node11</title>
<path fill="none" stroke="midnightblue" d="M458.91,-167.56C473.08,-171.71 488.59,-176.26 503.25,-180.56"/>
<polygon fill="midnightblue" stroke="midnightblue" points="502.66,-184.03 513.25,-183.48 504.63,-177.31 502.66,-184.03"/>
</g>
</g>
</svg>
