<?xml version="1.0" encoding="UTF-8" standalone="no"?>
<!DOCTYPE svg PUBLIC "-//W3C//DTD SVG 1.1//EN"
 "http://www.w3.org/Graphics/SVG/1.1/DTD/svg11.dtd">
<!-- Generated by graphviz version 2.43.0 (0)
 -->
<!-- Title: kazoo::ModelTester::runAllTests Pages: 1 -->
<svg width="1035pt" height="656pt"
 viewBox="0.00 0.00 1035.00 655.50" xmlns="http://www.w3.org/2000/svg" xmlns:xlink="http://www.w3.org/1999/xlink">
<g id="graph0" class="graph" transform="scale(1 1) rotate(0) translate(4 651.5)">
<title>kazoo::ModelTester::runAllTests</title>
<!-- Node1 -->
<g id="node1" class="node">
<title>Node1</title>
<g id="a_node1"><a xlink:title=" ">
<polygon fill="#bfbfbf" stroke="black" points="0,-359 0,-389 110,-389 110,-359 0,-359"/>
<text text-anchor="start" x="8" y="-377" font-family="Helvetica,sans-Serif" font-size="10.00">kazoo::ModelTester</text>
<text text-anchor="middle" x="55" y="-366" font-family="Helvetica,sans-Serif" font-size="10.00">::runAllTests</text>
</a>
</g>
</g>
<!-- Node2 -->
<g id="node2" class="node">
<title>Node2</title>
<g id="a_node2"><a xlink:href="classkazoo_1_1Logger.html#ab6e4c2a261f2b6b8481ab1d606f50177" target="_top" xlink:title=" ">
<polygon fill="none" stroke="black" points="564,-578.5 564,-597.5 701,-597.5 701,-578.5 564,-578.5"/>
<text text-anchor="middle" x="632.5" y="-585.5" font-family="Helvetica,sans-Serif" font-size="10.00">kazoo::Logger::logDebug</text>
</a>
</g>
</g>
<!-- Node1&#45;&gt;Node2 -->
<g id="edge1" class="edge">
<title>Node1&#45;&gt;Node2</title>
<path fill="none" stroke="midnightblue" d="M72,-389.04C113.39,-426.86 228.93,-525.79 346,-566 413.42,-589.16 494.88,-593.27 553.51,-592.42"/>
<polygon fill="midnightblue" stroke="midnightblue" points="553.88,-595.91 563.81,-592.21 553.74,-588.91 553.88,-595.91"/>
</g>
<!-- Node4 -->
<g id="node4" class="node">
<title>Node4</title>
<g id="a_node4"><a xlink:href="classkazoo_1_1ModelTester.html#a702e366157b9a545b104494ae0924054" target="_top" xlink:title=" ">
<polygon fill="none" stroke="black" points="371.5,-61 371.5,-91 481.5,-91 481.5,-61 371.5,-61"/>
<text text-anchor="start" x="379.5" y="-79" font-family="Helvetica,sans-Serif" font-size="10.00">kazoo::ModelTester</text>
<text text-anchor="middle" x="426.5" y="-68" font-family="Helvetica,sans-Serif" font-size="10.00">::resetState</text>
</a>
</g>
</g>
<!-- Node1&#45;&gt;Node4 -->
<g id="edge3" class="edge">
<title>Node1&#45;&gt;Node4</title>
<path fill="none" stroke="midnightblue" d="M71.15,-358.95C112.79,-318.03 233.35,-202.41 346,-122 358.97,-112.74 373.93,-103.7 387.35,-96.12"/>
<polygon fill="midnightblue" stroke="midnightblue" points="389.31,-99.04 396.35,-91.12 385.91,-92.92 389.31,-99.04"/>
</g>
<!-- Node7 -->
<g id="node7" class="node">
<title>Node7</title>
<g id="a_node7"><a xlink:href="classkazoo_1_1ModelTester.html#ae04082b16f30df3b2200f4d090b0337b" target="_top" xlink:title=" ">
<polygon fill="none" stroke="black" points="354.5,-327 354.5,-357 498.5,-357 498.5,-327 354.5,-327"/>
<text text-anchor="start" x="362.5" y="-345" font-family="Helvetica,sans-Serif" font-size="10.00">kazoo::ModelTester</text>
<text text-anchor="middle" x="426.5" y="-334" font-family="Helvetica,sans-Serif" font-size="10.00">::test_basicEncodeDecode</text>
</a>
</g>
</g>
<!-- Node1&#45;&gt;Node7 -->
<g id="edge6" class="edge">
<title>Node1&#45;&gt;Node7</title>
<path fill="none" stroke="midnightblue" d="M110.12,-369.31C171.74,-363.98 273.04,-355.2 344.17,-349.04"/>
<polygon fill="midnightblue" stroke="midnightblue" points="344.78,-352.5 354.44,-348.15 344.18,-345.53 344.78,-352.5"/>
</g>
<!-- Node20 -->
<g id="node20" class="node">
<title>Node20</title>
<g id="a_node20"><a xlink:href="classkazoo_1_1ModelTester.html#a43e738d358a87f9f01cc8ad13c6964fe" target="_top" xlink:title=" ">
<polygon fill="none" stroke="black" points="146,-382 146,-412 310,-412 310,-382 146,-382"/>
<text text-anchor="start" x="154" y="-400" font-family="Helvetica,sans-Serif" font-size="10.00">kazoo::ModelTester</text>
<text text-anchor="middle" x="228" y="-389" font-family="Helvetica,sans-Serif" font-size="10.00">::test_gaussianNoiseTolerance</text>
</a>
</g>
</g>
<!-- Node1&#45;&gt;Node20 -->
<g id="edge22" class="edge">
<title>Node1&#45;&gt;Node20</title>
<path fill="none" stroke="midnightblue" d="M110.11,-381.28C118.35,-382.39 127.05,-383.56 135.83,-384.74"/>
<polygon fill="midnightblue" stroke="midnightblue" points="135.38,-388.21 145.76,-386.07 136.31,-381.27 135.38,-388.21"/>
</g>
<!-- Node3 -->
<g id="node3" class="node">
<title>Node3</title>
<g id="a_node3"><a xlink:href="classkazoo_1_1Logger.html#ab69883e34a35febd7597c646022ca0cb" target="_top" xlink:title=" ">
<polygon fill="none" stroke="black" points="922,-555.5 922,-574.5 1027,-574.5 1027,-555.5 922,-555.5"/>
<text text-anchor="middle" x="974.5" y="-562.5" font-family="Helvetica,sans-Serif" font-size="10.00">kazoo::Logger::log</text>
</a>
</g>
</g>
<!-- Node2&#45;&gt;Node3 -->
<g id="edge2" class="edge">
<title>Node2&#45;&gt;Node3</title>
<path fill="none" stroke="midnightblue" d="M701.08,-583.43C762.5,-579.27 852.36,-573.2 911.85,-569.17"/>
<polygon fill="midnightblue" stroke="midnightblue" points="912.12,-572.66 921.86,-568.49 911.65,-565.68 912.12,-572.66"/>
</g>
<!-- Node5 -->
<g id="node5" class="node">
<title>Node5</title>
<g id="a_node5"><a xlink:href="classkazoo_1_1IEncoder.html#a8f9aac087c06e7fe51aec3903843f644" target="_top" xlink:title=" ">
<polygon fill="none" stroke="black" points="571,-0.5 571,-19.5 694,-19.5 694,-0.5 571,-0.5"/>
<text text-anchor="middle" x="632.5" y="-7.5" font-family="Helvetica,sans-Serif" font-size="10.00">kazoo::IEncoder::clear</text>
</a>
</g>
</g>
<!-- Node4&#45;&gt;Node5 -->
<g id="edge4" class="edge">
<title>Node4&#45;&gt;Node5</title>
<path fill="none" stroke="midnightblue" d="M460.3,-60.86C483.12,-50.77 514.45,-37.8 543,-29 551.6,-26.35 560.79,-23.93 569.86,-21.78"/>
<polygon fill="midnightblue" stroke="midnightblue" points="570.66,-25.19 579.63,-19.55 569.1,-18.36 570.66,-25.19"/>
</g>
<!-- Node6 -->
<g id="node6" class="node">
<title>Node6</title>
<g id="a_node6"><a xlink:href="classkazoo_1_1ISymbolStream.html#af55f1fe1a9b779fdd261ea6beb3420d3" target="_top" xlink:title="Clear/Reset the symbol stream.">
<polygon fill="none" stroke="black" points="569.5,-39 569.5,-69 695.5,-69 695.5,-39 569.5,-39"/>
<text text-anchor="start" x="577.5" y="-57" font-family="Helvetica,sans-Serif" font-size="10.00">kazoo::ISymbolStream</text>
<text text-anchor="middle" x="632.5" y="-46" font-family="Helvetica,sans-Serif" font-size="10.00">::clear</text>
</a>
</g>
</g>
<!-- Node4&#45;&gt;Node6 -->
<g id="edge5" class="edge">
<title>Node4&#45;&gt;Node6</title>
<path fill="none" stroke="midnightblue" d="M481.63,-70.16C505.39,-67.6 533.63,-64.55 559.16,-61.8"/>
<polygon fill="midnightblue" stroke="midnightblue" points="559.6,-65.27 569.16,-60.72 558.85,-58.32 559.6,-65.27"/>
</g>
<!-- Node7&#45;&gt;Node2 -->
<g id="edge19" class="edge">
<title>Node7&#45;&gt;Node2</title>
<path fill="none" stroke="midnightblue" d="M495.47,-357.23C499.74,-359.97 503.65,-363.2 507,-367 566.96,-435.13 480.29,-502.4 543,-568 546.43,-571.58 550.35,-574.59 554.59,-577.1"/>
<polygon fill="midnightblue" stroke="midnightblue" points="553.18,-580.31 563.69,-581.6 556.28,-574.03 553.18,-580.31"/>
</g>
<!-- Node7&#45;&gt;Node6 -->
<g id="edge9" class="edge">
<title>Node7&#45;&gt;Node6</title>
<path fill="none" stroke="midnightblue" d="M435.84,-326.86C451.11,-298.81 484.08,-236.63 507,-182 525.92,-136.89 507.25,-111.38 543,-78 548,-73.33 553.82,-69.55 560.04,-66.49"/>
<polygon fill="midnightblue" stroke="midnightblue" points="561.56,-69.65 569.39,-62.52 558.82,-63.21 561.56,-69.65"/>
</g>
<!-- Node8 -->
<g id="node8" class="node">
<title>Node8</title>
<g id="a_node8"><a xlink:href="classkazoo_1_1BinaryStream.html#a5bcef3247636f3ffd53309244c9e6a10" target="_top" xlink:title="Add bytes to the stream. If the stream is not byte aligned when this function is called,...">
<polygon fill="none" stroke="black" points="573.5,-431 573.5,-461 691.5,-461 691.5,-431 573.5,-431"/>
<text text-anchor="start" x="581.5" y="-449" font-family="Helvetica,sans-Serif" font-size="10.00">kazoo::BinaryStream</text>
<text text-anchor="middle" x="632.5" y="-438" font-family="Helvetica,sans-Serif" font-size="10.00">::addBytes</text>
</a>
</g>
</g>
<!-- Node7&#45;&gt;Node8 -->
<g id="edge7" class="edge">
<title>Node7&#45;&gt;Node8</title>
<path fill="none" stroke="midnightblue" d="M490.29,-357.18C496.22,-359.93 501.91,-363.18 507,-367 530.07,-384.31 519.68,-404.03 543,-421 549.26,-425.56 556.33,-429.29 563.67,-432.33"/>
<polygon fill="midnightblue" stroke="midnightblue" points="562.49,-435.63 573.08,-435.85 564.94,-429.07 562.49,-435.63"/>
</g>
<!-- Node10 -->
<g id="node10" class="node">
<title>Node10</title>
<g id="a_node10"><a xlink:href="classkazoo_1_1ISymbolModel.html#a2c41b4fca45a1bb19613435c92fb91d4" target="_top" xlink:title=" ">
<polygon fill="none" stroke="black" points="563.5,-88 563.5,-118 701.5,-118 701.5,-88 563.5,-88"/>
<text text-anchor="start" x="571.5" y="-106" font-family="Helvetica,sans-Serif" font-size="10.00">kazoo::ISymbolModel</text>
<text text-anchor="middle" x="632.5" y="-95" font-family="Helvetica,sans-Serif" font-size="10.00">::decodeAudioToSymbols</text>
</a>
</g>
</g>
<!-- Node7&#45;&gt;Node10 -->
<g id="edge10" class="edge">
<title>Node7&#45;&gt;Node10</title>
<path fill="none" stroke="midnightblue" d="M434.84,-326.7C457.43,-279.9 525.37,-141 543,-127 546.53,-124.19 550.36,-121.72 554.39,-119.53"/>
<polygon fill="midnightblue" stroke="midnightblue" points="555.96,-122.66 563.47,-115.18 552.94,-116.34 555.96,-122.66"/>
</g>
<!-- Node11 -->
<g id="node11" class="node">
<title>Node11</title>
<g id="a_node11"><a xlink:href="classkazoo_1_1IEncoder.html#abe1a45e3899b69dc6ce63066a4f89cc3" target="_top" xlink:title=" ">
<polygon fill="none" stroke="black" points="543,-382 543,-412 722,-412 722,-382 543,-382"/>
<text text-anchor="start" x="551" y="-400" font-family="Helvetica,sans-Serif" font-size="10.00">kazoo::IEncoder::encodeAvailable</text>
<text text-anchor="middle" x="632.5" y="-389" font-family="Helvetica,sans-Serif" font-size="10.00">Symbols</text>
</a>
</g>
</g>
<!-- Node7&#45;&gt;Node11 -->
<g id="edge11" class="edge">
<title>Node7&#45;&gt;Node11</title>
<path fill="none" stroke="midnightblue" d="M483.24,-357.03C508.77,-363.91 539.19,-372.11 565.82,-379.29"/>
<polygon fill="midnightblue" stroke="midnightblue" points="565.26,-382.77 575.82,-381.99 567.08,-376.01 565.26,-382.77"/>
</g>
<!-- Node12 -->
<g id="node12" class="node">
<title>Node12</title>
<g id="a_node12"><a xlink:href="classkazoo_1_1ModelTester.html#a972ca91e756c8f5975e8d69204260f13" target="_top" xlink:title=" ">
<polygon fill="none" stroke="black" points="577.5,-529 577.5,-559 687.5,-559 687.5,-529 577.5,-529"/>
<text text-anchor="start" x="585.5" y="-547" font-family="Helvetica,sans-Serif" font-size="10.00">kazoo::ModelTester</text>
<text text-anchor="middle" x="632.5" y="-536" font-family="Helvetica,sans-Serif" font-size="10.00">::expectTrue</text>
</a>
</g>
</g>
<!-- Node7&#45;&gt;Node12 -->
<g id="edge12" class="edge">
<title>Node7&#45;&gt;Node12</title>
<path fill="none" stroke="midnightblue" d="M494.87,-357.21C499.33,-359.95 503.45,-363.19 507,-367 554.29,-417.83 494.97,-468.87 543,-519 549.88,-526.18 558.64,-531.34 567.97,-535.05"/>
<polygon fill="midnightblue" stroke="midnightblue" points="566.84,-538.36 577.44,-538.29 569.11,-531.74 566.84,-538.36"/>
</g>
<!-- Node14 -->
<g id="node14" class="node">
<title>Node14</title>
<g id="a_node14"><a xlink:href="classkazoo_1_1ISymbolStream.html#a9e3b2b62a64109d782aa7746041e7e95" target="_top" xlink:title=" ">
<polygon fill="none" stroke="black" points="569.5,-333 569.5,-363 695.5,-363 695.5,-333 569.5,-333"/>
<text text-anchor="start" x="577.5" y="-351" font-family="Helvetica,sans-Serif" font-size="10.00">kazoo::ISymbolStream</text>
<text text-anchor="middle" x="632.5" y="-340" font-family="Helvetica,sans-Serif" font-size="10.00">::getNumBytes</text>
</a>
</g>
</g>
<!-- Node7&#45;&gt;Node14 -->
<g id="edge15" class="edge">
<title>Node7&#45;&gt;Node14</title>
<path fill="none" stroke="midnightblue" d="M498.56,-344.09C518.15,-344.67 539.41,-345.29 559.07,-345.87"/>
<polygon fill="midnightblue" stroke="midnightblue" points="559.09,-349.37 569.19,-346.17 559.3,-342.37 559.09,-349.37"/>
</g>
<!-- Node15 -->
<g id="node15" class="node">
<title>Node15</title>
<g id="a_node15"><a xlink:href="classkazoo_1_1AudioChannel.html#a97d2202c18916b93bb72b4c540ba75ed" target="_top" xlink:title=" ">
<polygon fill="none" stroke="black" points="573,-284 573,-314 692,-314 692,-284 573,-284"/>
<text text-anchor="start" x="581" y="-302" font-family="Helvetica,sans-Serif" font-size="10.00">kazoo::AudioChannel</text>
<text text-anchor="middle" x="632.5" y="-291" font-family="Helvetica,sans-Serif" font-size="10.00">::getNumSamples</text>
</a>
</g>
</g>
<!-- Node7&#45;&gt;Node15 -->
<g id="edge16" class="edge">
<title>Node7&#45;&gt;Node15</title>
<path fill="none" stroke="midnightblue" d="M498.56,-327.02C519.41,-322.63 542.17,-317.83 562.87,-313.47"/>
<polygon fill="midnightblue" stroke="midnightblue" points="563.78,-316.85 572.84,-311.36 562.34,-310 563.78,-316.85"/>
</g>
<!-- Node16 -->
<g id="node16" class="node">
<title>Node16</title>
<g id="a_node16"><a xlink:href="classkazoo_1_1BinaryStream.html#a9cf1c3eb54ace654061894c7278b6d32" target="_top" xlink:title="Get a const reference to the underlying stream data.">
<polygon fill="none" stroke="black" points="570,-186 570,-216 695,-216 695,-186 570,-186"/>
<text text-anchor="start" x="578" y="-204" font-family="Helvetica,sans-Serif" font-size="10.00">kazoo::BinaryStream</text>
<text text-anchor="middle" x="632.5" y="-193" font-family="Helvetica,sans-Serif" font-size="10.00">::getStreamDataConst</text>
</a>
</g>
</g>
<!-- Node7&#45;&gt;Node16 -->
<g id="edge17" class="edge">
<title>Node7&#45;&gt;Node16</title>
<path fill="none" stroke="midnightblue" d="M438.1,-326.95C456.52,-301.93 496.9,-251.91 543,-225 548.41,-221.84 554.26,-219.08 560.27,-216.68"/>
<polygon fill="midnightblue" stroke="midnightblue" points="561.62,-219.91 569.81,-213.2 559.22,-213.34 561.62,-219.91"/>
</g>
<!-- Node17 -->
<g id="node17" class="node">
<title>Node17</title>
<g id="a_node17"><a xlink:href="classkazoo_1_1ISymbolModel.html#a08668909fe1a7f901fe26ad30f9a1e30" target="_top" xlink:title=" ">
<polygon fill="none" stroke="black" points="572,-235 572,-265 693,-265 693,-235 572,-235"/>
<text text-anchor="start" x="580" y="-253" font-family="Helvetica,sans-Serif" font-size="10.00">kazoo::ISymbolModel</text>
<text text-anchor="middle" x="632.5" y="-242" font-family="Helvetica,sans-Serif" font-size="10.00">::getSymbolBitWidth</text>
</a>
</g>
</g>
<!-- Node7&#45;&gt;Node17 -->
<g id="edge18" class="edge">
<title>Node7&#45;&gt;Node17</title>
<path fill="none" stroke="midnightblue" d="M449.15,-326.86C471.69,-311.68 508.47,-288.54 543,-274 549.11,-271.43 555.58,-269.06 562.12,-266.89"/>
<polygon fill="midnightblue" stroke="midnightblue" points="563.25,-270.2 571.73,-263.86 561.14,-263.53 563.25,-270.2"/>
</g>
<!-- Node18 -->
<g id="node18" class="node">
<title>Node18</title>
<g id="a_node18"><a xlink:href="classkazoo_1_1ISymbolStream.html#a6dd43cbf09e35b93f95b1d3ad2bc7f0a" target="_top" xlink:title=" ">
<polygon fill="none" stroke="black" points="566.5,-137 566.5,-167 698.5,-167 698.5,-137 566.5,-137"/>
<text text-anchor="start" x="574.5" y="-155" font-family="Helvetica,sans-Serif" font-size="10.00">kazoo::ISymbolStream</text>
<text text-anchor="middle" x="632.5" y="-144" font-family="Helvetica,sans-Serif" font-size="10.00">::populateBinaryStream</text>
</a>
</g>
</g>
<!-- Node7&#45;&gt;Node18 -->
<g id="edge20" class="edge">
<title>Node7&#45;&gt;Node18</title>
<path fill="none" stroke="midnightblue" d="M433.63,-326.96C447.78,-294.23 485.89,-216.25 543,-176 547.28,-172.98 551.93,-170.34 556.77,-168.04"/>
<polygon fill="midnightblue" stroke="midnightblue" points="558.44,-171.13 566.28,-164 555.71,-164.69 558.44,-171.13"/>
</g>
<!-- Node19 -->
<g id="node19" class="node">
<title>Node19</title>
<g id="a_node19"><a xlink:href="classkazoo_1_1ISymbolStream.html#a5f31cbfcdd4d258dc14a0eb166a7b944" target="_top" xlink:title=" ">
<polygon fill="none" stroke="black" points="569,-480 569,-510 696,-510 696,-480 569,-480"/>
<text text-anchor="start" x="577" y="-498" font-family="Helvetica,sans-Serif" font-size="10.00">kazoo::ISymbolStream</text>
<text text-anchor="middle" x="632.5" y="-487" font-family="Helvetica,sans-Serif" font-size="10.00">::processBinaryStream</text>
</a>
</g>
</g>
<!-- Node7&#45;&gt;Node19 -->
<g id="edge21" class="edge">
<title>Node7&#45;&gt;Node19</title>
<path fill="none" stroke="midnightblue" d="M493.68,-357.19C498.52,-359.93 503.05,-363.17 507,-367 541.83,-400.74 507.68,-436.77 543,-470 547.92,-474.63 553.64,-478.41 559.75,-481.5"/>
<polygon fill="midnightblue" stroke="midnightblue" points="558.37,-484.72 568.93,-485.55 561.19,-478.32 558.37,-484.72"/>
</g>
<!-- Node9 -->
<g id="node9" class="node">
<title>Node9</title>
<g id="a_node9"><a xlink:href="classkazoo_1_1BinaryStream.html#a32b6f202b2627b75ace2e6c9c07726aa" target="_top" xlink:title="Get the byte alignment status of the stream.">
<polygon fill="none" stroke="black" points="763,-431 763,-461 881,-461 881,-431 763,-431"/>
<text text-anchor="start" x="771" y="-449" font-family="Helvetica,sans-Serif" font-size="10.00">kazoo::BinaryStream</text>
<text text-anchor="middle" x="822" y="-438" font-family="Helvetica,sans-Serif" font-size="10.00">::isByteAligned</text>
</a>
</g>
</g>
<!-- Node8&#45;&gt;Node9 -->
<g id="edge8" class="edge">
<title>Node8&#45;&gt;Node9</title>
<path fill="none" stroke="midnightblue" d="M691.54,-446C710.96,-446 732.77,-446 752.88,-446"/>
<polygon fill="midnightblue" stroke="midnightblue" points="752.91,-449.5 762.91,-446 752.91,-442.5 752.91,-449.5"/>
</g>
<!-- Node13 -->
<g id="node13" class="node">
<title>Node13</title>
<g id="a_node13"><a xlink:href="classkazoo_1_1Logger.html#add67bfbca917a0cb6c9b4424c79eefeb" target="_top" xlink:title=" ">
<polygon fill="none" stroke="black" points="758,-535.5 758,-554.5 886,-554.5 886,-535.5 758,-535.5"/>
<text text-anchor="middle" x="822" y="-542.5" font-family="Helvetica,sans-Serif" font-size="10.00">kazoo::Logger::logError</text>
</a>
</g>
</g>
<!-- Node12&#45;&gt;Node13 -->
<g id="edge13" class="edge">
<title>Node12&#45;&gt;Node13</title>
<path fill="none" stroke="midnightblue" d="M687.73,-544.29C706.52,-544.39 727.89,-544.5 747.93,-544.61"/>
<polygon fill="midnightblue" stroke="midnightblue" points="747.94,-548.11 757.96,-544.66 747.98,-541.11 747.94,-548.11"/>
</g>
<!-- Node13&#45;&gt;Node3 -->
<g id="edge14" class="edge">
<title>Node13&#45;&gt;Node3</title>
<path fill="none" stroke="midnightblue" d="M886.39,-553.42C894.73,-554.53 903.27,-555.67 911.58,-556.77"/>
<polygon fill="midnightblue" stroke="midnightblue" points="911.21,-560.25 921.58,-558.1 912.13,-553.31 911.21,-560.25"/>
</g>
<!-- Node20&#45;&gt;Node2 -->
<g id="edge39" class="edge">
<title>Node20&#45;&gt;Node2</title>
<path fill="none" stroke="midnightblue" d="M249.12,-412.26C271.67,-428.73 309.81,-454.79 346,-471 413.92,-501.42 446.31,-473.93 507,-517 529.63,-533.06 519.93,-552.58 543,-568 546.79,-570.53 550.84,-572.74 555.07,-574.68"/>
<polygon fill="midnightblue" stroke="midnightblue" points="553.95,-578 564.53,-578.49 556.56,-571.51 553.95,-578"/>
</g>
<!-- Node20&#45;&gt;Node4 -->
<g id="edge40" class="edge">
<title>Node20&#45;&gt;Node4</title>
<path fill="none" stroke="midnightblue" d="M236.56,-381.55C251.39,-351.01 285.04,-280.62 310,-220 327.67,-177.09 316.14,-157.52 346,-122 354.83,-111.5 366.71,-102.86 378.59,-96.01"/>
<polygon fill="midnightblue" stroke="midnightblue" points="380.49,-98.96 387.62,-91.13 377.16,-92.81 380.49,-98.96"/>
</g>
<!-- Node20&#45;&gt;Node12 -->
<g id="edge23" class="edge">
<title>Node20&#45;&gt;Node12</title>
<path fill="none" stroke="midnightblue" d="M283.46,-412.07C358.77,-433.16 487.67,-470.2 507,-482 526.59,-493.95 523.29,-507.26 543,-519 550.57,-523.51 559,-527.24 567.55,-530.31"/>
<polygon fill="midnightblue" stroke="midnightblue" points="566.64,-533.7 577.23,-533.51 568.83,-527.05 566.64,-533.7"/>
</g>
<!-- Node21 -->
<g id="node21" class="node">
<title>Node21</title>
<g id="a_node21"><a xlink:href="classkazoo_1_1ModelTester.html#a7fb957b1363edf86aef2d5dd839b2749" target="_top" xlink:title=" ">
<polygon fill="none" stroke="black" points="363,-527 363,-557 490,-557 490,-527 363,-527"/>
<text text-anchor="start" x="371" y="-545" font-family="Helvetica,sans-Serif" font-size="10.00">kazoo::ModelTester</text>
<text text-anchor="middle" x="426.5" y="-534" font-family="Helvetica,sans-Serif" font-size="10.00">::getRandomTestString</text>
</a>
</g>
</g>
<!-- Node20&#45;&gt;Node21 -->
<g id="edge24" class="edge">
<title>Node20&#45;&gt;Node21</title>
<path fill="none" stroke="midnightblue" d="M241.21,-412.08C261.04,-435.72 302.4,-481.73 346,-510 353.44,-514.82 361.72,-519.13 370.05,-522.91"/>
<polygon fill="midnightblue" stroke="midnightblue" points="368.86,-526.21 379.43,-526.95 371.63,-519.78 368.86,-526.21"/>
</g>
<!-- Node23 -->
<g id="node23" class="node">
<title>Node23</title>
<g id="a_node23"><a xlink:href="classkazoo_1_1ModelTester.html#a2d86a19402c92c173a6ffa8838835935" target="_top" xlink:title=" ">
<polygon fill="none" stroke="black" points="346,-131.5 346,-172.5 507,-172.5 507,-131.5 346,-131.5"/>
<text text-anchor="start" x="354" y="-160.5" font-family="Helvetica,sans-Serif" font-size="10.00">kazoo::ModelTester</text>
<text text-anchor="start" x="354" y="-149.5" font-family="Helvetica,sans-Serif" font-size="10.00">::helper_decodeAudioChannel</text>
<text text-anchor="middle" x="426.5" y="-138.5" font-family="Helvetica,sans-Serif" font-size="10.00">ToString</text>
</a>
</g>
</g>
<!-- Node20&#45;&gt;Node23 -->
<g id="edge26" class="edge">
<title>Node20&#45;&gt;Node23</title>
<path fill="none" stroke="midnightblue" d="M241.29,-381.67C273.51,-341.5 360.81,-232.66 402.6,-180.55"/>
<polygon fill="midnightblue" stroke="midnightblue" points="405.37,-182.69 408.9,-172.7 399.91,-178.31 405.37,-182.69"/>
</g>
<!-- Node24 -->
<g id="node24" class="node">
<title>Node24</title>
<g id="a_node24"><a xlink:href="classkazoo_1_1ModelTester.html#ae3b12528cffc8ff611b85d82c63d84c5" target="_top" xlink:title=" ">
<polygon fill="none" stroke="black" points="346,-376.5 346,-417.5 507,-417.5 507,-376.5 346,-376.5"/>
<text text-anchor="start" x="354" y="-405.5" font-family="Helvetica,sans-Serif" font-size="10.00">kazoo::ModelTester</text>
<text text-anchor="start" x="354" y="-394.5" font-family="Helvetica,sans-Serif" font-size="10.00">::helper_encodeStringToAudio</text>
<text text-anchor="middle" x="426.5" y="-383.5" font-family="Helvetica,sans-Serif" font-size="10.00">Channel</text>
</a>
</g>
</g>
<!-- Node20&#45;&gt;Node24 -->
<g id="edge31" class="edge">
<title>Node20&#45;&gt;Node24</title>
<path fill="none" stroke="midnightblue" d="M310.06,-397C318.57,-397 327.26,-397 335.86,-397"/>
<polygon fill="midnightblue" stroke="midnightblue" points="335.89,-400.5 345.89,-397 335.89,-393.5 335.89,-400.5"/>
</g>
<!-- Node22 -->
<g id="node22" class="node">
<title>Node22</title>
<g id="a_node22"><a xlink:href="classkazoo_1_1ModelTester.html#a0efeae66058019794185110c784a00fd" target="_top" xlink:title=" ">
<polygon fill="none" stroke="black" points="576,-617 576,-647 689,-647 689,-617 576,-617"/>
<text text-anchor="start" x="584" y="-635" font-family="Helvetica,sans-Serif" font-size="10.00">kazoo::ModelTester</text>
<text text-anchor="middle" x="632.5" y="-624" font-family="Helvetica,sans-Serif" font-size="10.00">::getRandomDouble</text>
</a>
</g>
</g>
<!-- Node21&#45;&gt;Node22 -->
<g id="edge25" class="edge">
<title>Node21&#45;&gt;Node22</title>
<path fill="none" stroke="midnightblue" d="M450.56,-557.15C473.3,-571.56 509.43,-593.05 543,-607 550.34,-610.05 558.17,-612.86 566.02,-615.4"/>
<polygon fill="midnightblue" stroke="midnightblue" points="564.99,-618.75 575.58,-618.38 567.07,-612.07 564.99,-618.75"/>
</g>
<!-- Node23&#45;&gt;Node6 -->
<g id="edge27" class="edge">
<title>Node23&#45;&gt;Node6</title>
<path fill="none" stroke="midnightblue" d="M459.21,-131.35C491.83,-110.16 538.51,-79.99 543,-78 548.31,-75.64 553.91,-73.47 559.61,-71.48"/>
<polygon fill="midnightblue" stroke="midnightblue" points="560.85,-74.75 569.25,-68.29 558.65,-68.11 560.85,-74.75"/>
</g>
<!-- Node23&#45;&gt;Node10 -->
<g id="edge28" class="edge">
<title>Node23&#45;&gt;Node10</title>
<path fill="none" stroke="midnightblue" d="M507.25,-132.84C524.34,-128.74 542.32,-124.42 559.11,-120.39"/>
<polygon fill="midnightblue" stroke="midnightblue" points="559.95,-123.79 568.85,-118.05 558.31,-116.98 559.95,-123.79"/>
</g>
<!-- Node23&#45;&gt;Node16 -->
<g id="edge29" class="edge">
<title>Node23&#45;&gt;Node16</title>
<path fill="none" stroke="midnightblue" d="M507.25,-171.16C524.62,-175.33 542.9,-179.72 559.94,-183.81"/>
<polygon fill="midnightblue" stroke="midnightblue" points="559.27,-187.25 569.81,-186.18 560.9,-180.44 559.27,-187.25"/>
</g>
<!-- Node23&#45;&gt;Node18 -->
<g id="edge30" class="edge">
<title>Node23&#45;&gt;Node18</title>
<path fill="none" stroke="midnightblue" d="M507.25,-152C523.29,-152 540.1,-152 556,-152"/>
<polygon fill="midnightblue" stroke="midnightblue" points="556.29,-155.5 566.29,-152 556.29,-148.5 556.29,-155.5"/>
</g>
<!-- Node24&#45;&gt;Node8 -->
<g id="edge32" class="edge">
<title>Node24&#45;&gt;Node8</title>
<path fill="none" stroke="midnightblue" d="M507.25,-416.16C525.82,-420.62 545.43,-425.33 563.45,-429.65"/>
<polygon fill="midnightblue" stroke="midnightblue" points="562.73,-433.08 573.28,-432.01 564.37,-426.28 562.73,-433.08"/>
</g>
<!-- Node24&#45;&gt;Node11 -->
<g id="edge33" class="edge">
<title>Node24&#45;&gt;Node11</title>
<path fill="none" stroke="midnightblue" d="M507.25,-397C515.51,-397 523.98,-397 532.42,-397"/>
<polygon fill="midnightblue" stroke="midnightblue" points="532.69,-400.5 542.69,-397 532.69,-393.5 532.69,-400.5"/>
</g>
<!-- Node24&#45;&gt;Node12 -->
<g id="edge34" class="edge">
<title>Node24&#45;&gt;Node12</title>
<path fill="none" stroke="midnightblue" d="M477.65,-417.72C488.27,-423.76 498.75,-431.17 507,-440 533.34,-468.2 513.72,-493.87 543,-519 550.19,-525.17 558.81,-529.83 567.8,-533.34"/>
<polygon fill="midnightblue" stroke="midnightblue" points="566.68,-536.65 577.27,-536.59 568.95,-530.03 566.68,-536.65"/>
</g>
<!-- Node24&#45;&gt;Node14 -->
<g id="edge35" class="edge">
<title>Node24&#45;&gt;Node14</title>
<path fill="none" stroke="midnightblue" d="M507.25,-377.84C524.53,-373.69 542.71,-369.33 559.66,-365.25"/>
<polygon fill="midnightblue" stroke="midnightblue" points="560.58,-368.63 569.49,-362.89 558.95,-361.83 560.58,-368.63"/>
</g>
<!-- Node24&#45;&gt;Node15 -->
<g id="edge36" class="edge">
<title>Node24&#45;&gt;Node15</title>
<path fill="none" stroke="midnightblue" d="M489.46,-376.46C495.62,-373.37 501.59,-369.89 507,-366 527.25,-351.46 522.01,-336.44 543,-323 549.18,-319.05 556,-315.74 563.03,-312.97"/>
<polygon fill="midnightblue" stroke="midnightblue" points="564.46,-316.18 572.7,-309.53 562.11,-309.59 564.46,-316.18"/>
</g>
<!-- Node24&#45;&gt;Node17 -->
<g id="edge37" class="edge">
<title>Node24&#45;&gt;Node17</title>
<path fill="none" stroke="midnightblue" d="M493.98,-376.26C498.7,-373.27 503.12,-369.87 507,-366 538.07,-334.97 510.32,-303.32 543,-274 548.62,-268.96 555.2,-264.96 562.18,-261.79"/>
<polygon fill="midnightblue" stroke="midnightblue" points="563.88,-264.88 571.91,-257.97 561.32,-258.37 563.88,-264.88"/>
</g>
<!-- Node24&#45;&gt;Node19 -->
<g id="edge38" class="edge">
<title>Node24&#45;&gt;Node19</title>
<path fill="none" stroke="midnightblue" d="M469.27,-417.58C481.71,-424.25 495.18,-431.99 507,-440 524.24,-451.68 524.57,-460.29 543,-470 548.16,-472.72 553.64,-475.17 559.26,-477.37"/>
<polygon fill="midnightblue" stroke="midnightblue" points="558.21,-480.72 568.8,-480.86 560.61,-474.14 558.21,-480.72"/>
</g>
</g>
</svg>
