<?xml version="1.0" encoding="UTF-8" standalone="no"?>
<!DOCTYPE svg PUBLIC "-//W3C//DTD SVG 1.1//EN"
 "http://www.w3.org/Graphics/SVG/1.1/DTD/svg11.dtd">
<!-- Generated by graphviz version 2.43.0 (0)
 -->
<!-- Title: kazoo::IEncoder Pages: 1 -->
<svg width="261pt" height="398pt"
 viewBox="0.00 0.00 261.00 398.00" xmlns="http://www.w3.org/2000/svg" xmlns:xlink="http://www.w3.org/1999/xlink">
<g id="graph0" class="graph" transform="scale(1 1) rotate(0) translate(4 394)">
<title>kazoo::IEncoder</title>
<!-- Node1 -->
<g id="node1" class="node">
<title>Node1</title>
<g id="a_node1"><a xlink:title=" ">
<polygon fill="#bfbfbf" stroke="black" points="0,-310.5 0,-389.5 158,-389.5 158,-310.5 0,-310.5"/>
<text text-anchor="middle" x="79" y="-377.5" font-family="Helvetica,sans-Serif" font-size="10.00">kazoo::IEncoder</text>
<polyline fill="none" stroke="black" points="0,-370.5 158,-370.5 "/>
<text text-anchor="middle" x="79" y="-358.5" font-family="Helvetica,sans-Serif" font-size="10.00"> </text>
<polyline fill="none" stroke="black" points="0,-351.5 158,-351.5 "/>
<text text-anchor="start" x="8" y="-339.5" font-family="Helvetica,sans-Serif" font-size="10.00">+ ~IEncoder()</text>
<text text-anchor="start" x="8" y="-328.5" font-family="Helvetica,sans-Serif" font-size="10.00">+ clear()</text>
<text text-anchor="start" x="8" y="-317.5" font-family="Helvetica,sans-Serif" font-size="10.00">+ encodeAvailableSymbols()</text>
</a>
</g>
</g>
<!-- Node2 -->
<g id="node2" class="node">
<title>Node2</title>
<g id="a_node2"><a xlink:href="classkazoo_1_1Encoder.html" target="_top" xlink:title=" ">
<polygon fill="none" stroke="black" points="4,-0.5 4,-112.5 162,-112.5 162,-0.5 4,-0.5"/>
<text text-anchor="middle" x="83" y="-100.5" font-family="Helvetica,sans-Serif" font-size="10.00">kazoo::Encoder&lt; Token &gt;</text>
<polyline fill="none" stroke="black" points="4,-93.5 162,-93.5 "/>
<text text-anchor="start" x="12" y="-81.5" font-family="Helvetica,sans-Serif" font-size="10.00">&#45; context_</text>
<text text-anchor="start" x="12" y="-70.5" font-family="Helvetica,sans-Serif" font-size="10.00">&#45; symbol_model_</text>
<polyline fill="none" stroke="black" points="4,-63.5 162,-63.5 "/>
<text text-anchor="start" x="12" y="-51.5" font-family="Helvetica,sans-Serif" font-size="10.00">+ Encoder()</text>
<text text-anchor="start" x="12" y="-40.5" font-family="Helvetica,sans-Serif" font-size="10.00">+ clear()</text>
<text text-anchor="start" x="12" y="-29.5" font-family="Helvetica,sans-Serif" font-size="10.00">+ encodeAvailableSymbols()</text>
<text text-anchor="start" x="12" y="-18.5" font-family="Helvetica,sans-Serif" font-size="10.00">&#45; encodePreamble()</text>
<text text-anchor="start" x="12" y="-7.5" font-family="Helvetica,sans-Serif" font-size="10.00">&#45; encodeTail()</text>
</a>
</g>
</g>
<!-- Node1&#45;&gt;Node2 -->
<g id="edge1" class="edge">
<title>Node1&#45;&gt;Node2</title>
<path fill="none" stroke="midnightblue" d="M79.67,-300.02C80.38,-248.2 81.5,-166.59 82.24,-112.56"/>
<polygon fill="none" stroke="midnightblue" points="76.17,-300.24 79.53,-310.29 83.17,-300.34 76.17,-300.24"/>
</g>
<!-- Node3 -->
<g id="node3" class="node">
<title>Node3</title>
<g id="a_node3"><a xlink:href="classkazoo_1_1Encoder.html" target="_top" xlink:title=" ">
<polygon fill="none" stroke="black" points="95,-160.5 95,-272.5 253,-272.5 253,-160.5 95,-160.5"/>
<text text-anchor="middle" x="174" y="-260.5" font-family="Helvetica,sans-Serif" font-size="10.00">kazoo::Encoder&lt; Token_t &gt;</text>
<polyline fill="none" stroke="black" points="95,-253.5 253,-253.5 "/>
<text text-anchor="start" x="103" y="-241.5" font-family="Helvetica,sans-Serif" font-size="10.00">&#45; context_</text>
<text text-anchor="start" x="103" y="-230.5" font-family="Helvetica,sans-Serif" font-size="10.00">&#45; symbol_model_</text>
<polyline fill="none" stroke="black" points="95,-223.5 253,-223.5 "/>
<text text-anchor="start" x="103" y="-211.5" font-family="Helvetica,sans-Serif" font-size="10.00">+ Encoder()</text>
<text text-anchor="start" x="103" y="-200.5" font-family="Helvetica,sans-Serif" font-size="10.00">+ clear()</text>
<text text-anchor="start" x="103" y="-189.5" font-family="Helvetica,sans-Serif" font-size="10.00">+ encodeAvailableSymbols()</text>
<text text-anchor="start" x="103" y="-178.5" font-family="Helvetica,sans-Serif" font-size="10.00">&#45; encodePreamble()</text>
<text text-anchor="start" x="103" y="-167.5" font-family="Helvetica,sans-Serif" font-size="10.00">&#45; encodeTail()</text>
</a>
</g>
</g>
<!-- Node1&#45;&gt;Node3 -->
<g id="edge2" class="edge">
<title>Node1&#45;&gt;Node3</title>
<path fill="none" stroke="midnightblue" d="M112.93,-302.03C119.84,-292.47 127.16,-282.34 134.24,-272.53"/>
<polygon fill="none" stroke="midnightblue" points="110.01,-300.1 106.99,-310.26 115.68,-304.2 110.01,-300.1"/>
</g>
<!-- Node3&#45;&gt;Node2 -->
<g id="edge3" class="edge">
<title>Node3&#45;&gt;Node2</title>
<path fill="none" stroke="orange" d="M137.11,-151.46C129.72,-138.62 122.01,-125.24 114.81,-112.73"/>
<polygon fill="orange" stroke="orange" points="134.15,-153.32 142.17,-160.24 140.21,-149.83 134.15,-153.32"/>
<text text-anchor="middle" x="159" y="-134" font-family="Helvetica,sans-Serif" font-size="10.00"> &lt; Token &gt;</text>
</g>
</g>
</svg>
