<?xml version="1.0" encoding="UTF-8" standalone="no"?>
<!DOCTYPE svg PUBLIC "-//W3C//DTD SVG 1.1//EN"
 "http://www.w3.org/Graphics/SVG/1.1/DTD/svg11.dtd">
<!-- Generated by graphviz version 2.43.0 (0)
 -->
<!-- Title: kazoo::BinaryStream::isByteAligned Pages: 1 -->
<svg width="1876pt" height="483pt"
 viewBox="0.00 0.00 1876.00 482.62" xmlns="http://www.w3.org/2000/svg" xmlns:xlink="http://www.w3.org/1999/xlink">
<g id="graph0" class="graph" transform="scale(1 1) rotate(0) translate(4 478.62)">
<title>kazoo::BinaryStream::isByteAligned</title>
<!-- Node1 -->
<g id="node1" class="node">
<title>Node1</title>
<g id="a_node1"><a xlink:title="Get the byte alignment status of the stream.">
<polygon fill="#bfbfbf" stroke="black" points="1750,-231.62 1750,-261.62 1868,-261.62 1868,-231.62 1750,-231.62"/>
<text text-anchor="start" x="1758" y="-249.62" font-family="Helvetica,sans-Serif" font-size="10.00">kazoo::BinaryStream</text>
<text text-anchor="middle" x="1809" y="-238.62" font-family="Helvetica,sans-Serif" font-size="10.00">::isByteAligned</text>
</a>
</g>
</g>
<!-- Node2 -->
<g id="node2" class="node">
<title>Node2</title>
<g id="a_node2"><a xlink:href="classkazoo_1_1BinaryStream.html#a5bcef3247636f3ffd53309244c9e6a10" target="_top" xlink:title="Add bytes to the stream. If the stream is not byte aligned when this function is called,...">
<polygon fill="none" stroke="black" points="1395.5,-143.62 1395.5,-173.62 1513.5,-173.62 1513.5,-143.62 1395.5,-143.62"/>
<text text-anchor="start" x="1403.5" y="-161.62" font-family="Helvetica,sans-Serif" font-size="10.00">kazoo::BinaryStream</text>
<text text-anchor="middle" x="1454.5" y="-150.62" font-family="Helvetica,sans-Serif" font-size="10.00">::addBytes</text>
</a>
</g>
</g>
<!-- Node1&#45;&gt;Node2 -->
<g id="edge1" class="edge">
<title>Node1&#45;&gt;Node2</title>
<path fill="none" stroke="midnightblue" d="M1781.69,-225.12C1763.74,-211.69 1738.8,-195.34 1714,-186.62 1647.99,-163.42 1567.15,-158.05 1513.64,-157.42"/>
<polygon fill="midnightblue" stroke="midnightblue" points="1779.85,-228.12 1789.91,-231.43 1784.11,-222.57 1779.85,-228.12"/>
</g>
<!-- Node11 -->
<g id="node11" class="node">
<title>Node11</title>
<g id="a_node11"><a xlink:href="binary__stream_8test_8cpp.html#a0ea90f1ff04ac7d2c91a322c493df41b" target="_top" xlink:title=" ">
<polygon fill="none" stroke="black" points="1252,-231.12 1252,-250.12 1293,-250.12 1293,-231.12 1252,-231.12"/>
<text text-anchor="middle" x="1272.5" y="-238.12" font-family="Helvetica,sans-Serif" font-size="10.00">TEST</text>
</a>
</g>
</g>
<!-- Node1&#45;&gt;Node11 -->
<g id="edge44" class="edge">
<title>Node1&#45;&gt;Node11</title>
<path fill="none" stroke="midnightblue" d="M1739.72,-258.64C1656.55,-271.45 1511.93,-287.83 1389,-271.62 1370.47,-269.18 1320.9,-254.85 1293.1,-246.55"/>
<polygon fill="midnightblue" stroke="midnightblue" points="1740.46,-262.06 1749.8,-257.06 1739.38,-255.15 1740.46,-262.06"/>
</g>
<!-- Node13 -->
<g id="node13" class="node">
<title>Node13</title>
<g id="a_node13"><a xlink:href="classkazoo_1_1BinaryStream.html#a12a1666a4c0b0ddfdc512a50f09f5975" target="_top" xlink:title=" ">
<polygon fill="none" stroke="black" points="1556,-319.62 1556,-349.62 1714,-349.62 1714,-319.62 1556,-319.62"/>
<text text-anchor="start" x="1564" y="-337.62" font-family="Helvetica,sans-Serif" font-size="10.00">kazoo::BinaryStream</text>
<text text-anchor="middle" x="1635" y="-326.62" font-family="Helvetica,sans-Serif" font-size="10.00">::getOutputBitBufferUsedBits</text>
</a>
</g>
</g>
<!-- Node1&#45;&gt;Node13 -->
<g id="edge13" class="edge">
<title>Node1&#45;&gt;Node13</title>
<path fill="none" stroke="midnightblue" d="M1777.88,-267.2C1759.83,-279.02 1736.15,-293.65 1714,-304.62 1703.08,-310.03 1690.93,-315.12 1679.53,-319.52"/>
<polygon fill="midnightblue" stroke="midnightblue" points="1779.85,-270.09 1786.25,-261.65 1775.98,-264.25 1779.85,-270.09"/>
</g>
<!-- Node22 -->
<g id="node22" class="node">
<title>Node22</title>
<g id="a_node22"><a xlink:href="classkazoo_1_1SymbolStream.html#a483b690f6e07727669434375cbb23586" target="_top" xlink:title="Process a binary stream and convert it to symbols, removing the bits from the binary stream.">
<polygon fill="none" stroke="black" points="1010.5,-390.62 1010.5,-420.62 1137.5,-420.62 1137.5,-390.62 1010.5,-390.62"/>
<text text-anchor="start" x="1018.5" y="-408.62" font-family="Helvetica,sans-Serif" font-size="10.00">kazoo::SymbolStream</text>
<text text-anchor="middle" x="1074" y="-397.62" font-family="Helvetica,sans-Serif" font-size="10.00">::processBinaryStream</text>
</a>
</g>
</g>
<!-- Node1&#45;&gt;Node22 -->
<g id="edge43" class="edge">
<title>Node1&#45;&gt;Node22</title>
<path fill="none" stroke="midnightblue" d="M1795.88,-270.47C1780.76,-297.41 1752.18,-340.02 1714,-359.62 1523.29,-457.55 1257.51,-434.09 1137.82,-416.52"/>
<polygon fill="midnightblue" stroke="midnightblue" points="1798.97,-272.12 1800.66,-261.67 1792.81,-268.79 1798.97,-272.12"/>
</g>
<!-- Node25 -->
<g id="node25" class="node">
<title>Node25</title>
<g id="a_node25"><a xlink:href="classkazoo_1_1TranslationLayer.html#aa2783a8a2e4fb8fafa580e3cda27203e" target="_top" xlink:title=" ">
<polygon fill="none" stroke="black" points="1389,-94.62 1389,-124.62 1520,-124.62 1520,-94.62 1389,-94.62"/>
<text text-anchor="start" x="1397" y="-112.62" font-family="Helvetica,sans-Serif" font-size="10.00">kazoo::TranslationLayer</text>
<text text-anchor="middle" x="1454.5" y="-101.62" font-family="Helvetica,sans-Serif" font-size="10.00">::listeningThreadFunc</text>
</a>
</g>
</g>
<!-- Node1&#45;&gt;Node25 -->
<g id="edge34" class="edge">
<title>Node1&#45;&gt;Node25</title>
<path fill="none" stroke="midnightblue" d="M1791.06,-223.38C1774.08,-201.92 1745.94,-170.98 1714,-154.62 1653.09,-123.41 1574.63,-113.33 1520.21,-110.34"/>
<polygon fill="midnightblue" stroke="midnightblue" points="1788.34,-225.58 1797.21,-231.37 1793.88,-221.31 1788.34,-225.58"/>
</g>
<!-- Node27 -->
<g id="node27" class="node">
<title>Node27</title>
<g id="a_node27"><a xlink:href="classkazoo_1_1TranslationLayer.html#a76f09d5f7213679a6656aa9473f8f2ab" target="_top" xlink:title=" ">
<polygon fill="none" stroke="black" points="1389,-231.62 1389,-261.62 1520,-261.62 1520,-231.62 1389,-231.62"/>
<text text-anchor="start" x="1397" y="-249.62" font-family="Helvetica,sans-Serif" font-size="10.00">kazoo::TranslationLayer</text>
<text text-anchor="middle" x="1454.5" y="-238.62" font-family="Helvetica,sans-Serif" font-size="10.00">::loadAndDecodeWav</text>
</a>
</g>
</g>
<!-- Node1&#45;&gt;Node27 -->
<g id="edge38" class="edge">
<title>Node1&#45;&gt;Node27</title>
<path fill="none" stroke="midnightblue" d="M1739.48,-246.62C1676,-246.62 1582.26,-246.62 1520.07,-246.62"/>
<polygon fill="midnightblue" stroke="midnightblue" points="1739.79,-250.12 1749.79,-246.62 1739.79,-243.12 1739.79,-250.12"/>
</g>
<!-- Node28 -->
<g id="node28" class="node">
<title>Node28</title>
<g id="a_node28"><a xlink:href="classkazoo_1_1BinaryStream.html#a8d303f53784202d1d75b360075093ffb" target="_top" xlink:title="If the last element is being used as a bit buffer, this will fill the remaining bits until the stream...">
<polygon fill="none" stroke="black" points="1564,-196.12 1564,-215.12 1706,-215.12 1706,-196.12 1564,-196.12"/>
<text text-anchor="middle" x="1635" y="-203.12" font-family="Helvetica,sans-Serif" font-size="10.00">kazoo::BinaryStream::pad</text>
</a>
</g>
</g>
<!-- Node1&#45;&gt;Node28 -->
<g id="edge39" class="edge">
<title>Node1&#45;&gt;Node28</title>
<path fill="none" stroke="midnightblue" d="M1739.95,-230.4C1718.28,-225.23 1695.02,-219.69 1676.01,-215.16"/>
<polygon fill="midnightblue" stroke="midnightblue" points="1739.23,-233.83 1749.77,-232.74 1740.85,-227.02 1739.23,-233.83"/>
</g>
<!-- Node3 -->
<g id="node3" class="node">
<title>Node3</title>
<g id="a_node3"><a xlink:href="classkazoo_1_1TranslationLayer.html#a6b80b010d94b9f1373fea308d1c6d435" target="_top" xlink:title="Takes input data and processes it through the symbol stream.">
<polygon fill="none" stroke="black" points="805.5,-174.62 805.5,-204.62 936.5,-204.62 936.5,-174.62 805.5,-174.62"/>
<text text-anchor="start" x="813.5" y="-192.62" font-family="Helvetica,sans-Serif" font-size="10.00">kazoo::TranslationLayer</text>
<text text-anchor="middle" x="871" y="-181.62" font-family="Helvetica,sans-Serif" font-size="10.00">::addData</text>
</a>
</g>
</g>
<!-- Node2&#45;&gt;Node3 -->
<g id="edge2" class="edge">
<title>Node2&#45;&gt;Node3</title>
<path fill="none" stroke="midnightblue" d="M1385.08,-162.27C1271.91,-168.3 1047.25,-180.28 936.63,-186.18"/>
<polygon fill="midnightblue" stroke="midnightblue" points="1385.55,-165.75 1395.35,-161.72 1385.18,-158.76 1385.55,-165.75"/>
</g>
<!-- Node8 -->
<g id="node8" class="node">
<title>Node8</title>
<g id="a_node8"><a xlink:href="classkazoo_1_1ModelTester.html#ae3b12528cffc8ff611b85d82c63d84c5" target="_top" xlink:title=" ">
<polygon fill="none" stroke="black" points="1192,-95.12 1192,-136.12 1353,-136.12 1353,-95.12 1192,-95.12"/>
<text text-anchor="start" x="1200" y="-124.12" font-family="Helvetica,sans-Serif" font-size="10.00">kazoo::ModelTester</text>
<text text-anchor="start" x="1200" y="-113.12" font-family="Helvetica,sans-Serif" font-size="10.00">::helper_encodeStringToAudio</text>
<text text-anchor="middle" x="1272.5" y="-102.12" font-family="Helvetica,sans-Serif" font-size="10.00">Channel</text>
</a>
</g>
</g>
<!-- Node2&#45;&gt;Node8 -->
<g id="edge7" class="edge">
<title>Node2&#45;&gt;Node8</title>
<path fill="none" stroke="midnightblue" d="M1385.2,-142.3C1374.76,-139.81 1363.9,-137.22 1353.24,-134.67"/>
<polygon fill="midnightblue" stroke="midnightblue" points="1384.52,-145.74 1395.06,-144.66 1386.15,-138.93 1384.52,-145.74"/>
</g>
<!-- Node2&#45;&gt;Node11 -->
<g id="edge10" class="edge">
<title>Node2&#45;&gt;Node11</title>
<path fill="none" stroke="midnightblue" d="M1411.37,-177.81C1374.14,-194.78 1321.47,-218.77 1293.23,-231.63"/>
<polygon fill="midnightblue" stroke="midnightblue" points="1412.84,-180.99 1420.49,-173.66 1409.93,-174.62 1412.84,-180.99"/>
</g>
<!-- Node12 -->
<g id="node12" class="node">
<title>Node12</title>
<g id="a_node12"><a xlink:href="classkazoo_1_1ModelTester.html#ae04082b16f30df3b2200f4d090b0337b" target="_top" xlink:title=" ">
<polygon fill="none" stroke="black" points="1200.5,-45.62 1200.5,-75.62 1344.5,-75.62 1344.5,-45.62 1200.5,-45.62"/>
<text text-anchor="start" x="1208.5" y="-63.62" font-family="Helvetica,sans-Serif" font-size="10.00">kazoo::ModelTester</text>
<text text-anchor="middle" x="1272.5" y="-52.62" font-family="Helvetica,sans-Serif" font-size="10.00">::test_basicEncodeDecode</text>
</a>
</g>
</g>
<!-- Node2&#45;&gt;Node12 -->
<g id="edge11" class="edge">
<title>Node2&#45;&gt;Node12</title>
<path fill="none" stroke="midnightblue" d="M1394.7,-138.53C1392.73,-137.3 1390.82,-136 1389,-134.62 1367.43,-118.34 1374.98,-101.34 1353,-85.62 1347.59,-81.75 1341.55,-78.46 1335.29,-75.67"/>
<polygon fill="midnightblue" stroke="midnightblue" points="1393.24,-141.73 1403.69,-143.52 1396.64,-135.61 1393.24,-141.73"/>
</g>
<!-- Node4 -->
<g id="node4" class="node">
<title>Node4</title>
<g id="a_node4"><a xlink:href="classkazoo_1_1TranslationLayer.html#a85b59418d9b63eaf80dd1b3623a96b96" target="_top" xlink:title=" ">
<polygon fill="none" stroke="black" points="596.5,-103.62 596.5,-133.62 727.5,-133.62 727.5,-103.62 596.5,-103.62"/>
<text text-anchor="start" x="604.5" y="-121.62" font-family="Helvetica,sans-Serif" font-size="10.00">kazoo::TranslationLayer</text>
<text text-anchor="middle" x="662" y="-110.62" font-family="Helvetica,sans-Serif" font-size="10.00">::sendFrame</text>
</a>
</g>
</g>
<!-- Node3&#45;&gt;Node4 -->
<g id="edge3" class="edge">
<title>Node3&#45;&gt;Node4</title>
<path fill="none" stroke="midnightblue" d="M816.32,-171.21C782.28,-159.53 738.79,-144.62 706.84,-133.66"/>
<polygon fill="midnightblue" stroke="midnightblue" points="815.51,-174.63 826.1,-174.56 817.78,-168.01 815.51,-174.63"/>
</g>
<!-- Node7 -->
<g id="node7" class="node">
<title>Node7</title>
<g id="a_node7"><a xlink:href="translation__layer_8test_8cpp.html#a5981aa5142cca1c44a01f7506cf94a8e" target="_top" xlink:title=" ">
<polygon fill="none" stroke="black" points="641.5,-180.12 641.5,-199.12 682.5,-199.12 682.5,-180.12 641.5,-180.12"/>
<text text-anchor="middle" x="662" y="-187.12" font-family="Helvetica,sans-Serif" font-size="10.00">TEST</text>
</a>
</g>
</g>
<!-- Node3&#45;&gt;Node7 -->
<g id="edge6" class="edge">
<title>Node3&#45;&gt;Node7</title>
<path fill="none" stroke="midnightblue" d="M795.29,-189.62C755.1,-189.62 708.61,-189.62 682.83,-189.62"/>
<polygon fill="midnightblue" stroke="midnightblue" points="795.36,-193.12 805.36,-189.62 795.36,-186.12 795.36,-193.12"/>
</g>
<!-- Node5 -->
<g id="node5" class="node">
<title>Node5</title>
<g id="a_node5"><a xlink:href="src_2kazoo__connect__server_2main_8cpp.html#ae66f6b31b5ad750f1fe042a706a4e3d4" target="_top" xlink:title=" ">
<polygon fill="none" stroke="black" points="431,-63.12 431,-82.12 472,-82.12 472,-63.12 431,-63.12"/>
<text text-anchor="middle" x="451.5" y="-70.12" font-family="Helvetica,sans-Serif" font-size="10.00">main</text>
</a>
</g>
</g>
<!-- Node4&#45;&gt;Node5 -->
<g id="edge4" class="edge">
<title>Node4&#45;&gt;Node5</title>
<path fill="none" stroke="midnightblue" d="M586.51,-102.19C545.66,-93.18 498.17,-82.7 472.12,-76.95"/>
<polygon fill="midnightblue" stroke="midnightblue" points="585.94,-105.65 596.46,-104.38 587.45,-98.81 585.94,-105.65"/>
</g>
<!-- Node6 -->
<g id="node6" class="node">
<title>Node6</title>
<g id="a_node6"><a xlink:href="translation__layer_8test_8cpp.html#a557311196b9a309f0d8377ef5af0c62c" target="_top" xlink:title=" ">
<polygon fill="none" stroke="black" points="431,-104.12 431,-123.12 472,-123.12 472,-104.12 431,-104.12"/>
<text text-anchor="middle" x="451.5" y="-111.12" font-family="Helvetica,sans-Serif" font-size="10.00">TEST</text>
</a>
</g>
</g>
<!-- Node4&#45;&gt;Node6 -->
<g id="edge5" class="edge">
<title>Node4&#45;&gt;Node6</title>
<path fill="none" stroke="midnightblue" d="M586.25,-116.83C545.46,-115.85 498.12,-114.72 472.12,-114.09"/>
<polygon fill="midnightblue" stroke="midnightblue" points="586.38,-120.33 596.46,-117.07 586.54,-113.33 586.38,-120.33"/>
</g>
<!-- Node9 -->
<g id="node9" class="node">
<title>Node9</title>
<g id="a_node9"><a xlink:href="classkazoo_1_1ModelTester.html#a43e738d358a87f9f01cc8ad13c6964fe" target="_top" xlink:title=" ">
<polygon fill="none" stroke="black" points="992,-97.62 992,-127.62 1156,-127.62 1156,-97.62 992,-97.62"/>
<text text-anchor="start" x="1000" y="-115.62" font-family="Helvetica,sans-Serif" font-size="10.00">kazoo::ModelTester</text>
<text text-anchor="middle" x="1074" y="-104.62" font-family="Helvetica,sans-Serif" font-size="10.00">::test_gaussianNoiseTolerance</text>
</a>
</g>
</g>
<!-- Node8&#45;&gt;Node9 -->
<g id="edge8" class="edge">
<title>Node8&#45;&gt;Node9</title>
<path fill="none" stroke="midnightblue" d="M1181.82,-114.25C1173.23,-114.12 1164.54,-113.99 1156.03,-113.86"/>
<polygon fill="midnightblue" stroke="midnightblue" points="1181.81,-117.75 1191.86,-114.41 1181.91,-110.75 1181.81,-117.75"/>
</g>
<!-- Node10 -->
<g id="node10" class="node">
<title>Node10</title>
<g id="a_node10"><a xlink:href="classkazoo_1_1ModelTester.html#a7e596cfc6087c50c134a30707a33d6dc" target="_top" xlink:title=" ">
<polygon fill="none" stroke="black" points="816,-70.62 816,-100.62 926,-100.62 926,-70.62 816,-70.62"/>
<text text-anchor="start" x="824" y="-88.62" font-family="Helvetica,sans-Serif" font-size="10.00">kazoo::ModelTester</text>
<text text-anchor="middle" x="871" y="-77.62" font-family="Helvetica,sans-Serif" font-size="10.00">::runAllTests</text>
</a>
</g>
</g>
<!-- Node9&#45;&gt;Node10 -->
<g id="edge9" class="edge">
<title>Node9&#45;&gt;Node10</title>
<path fill="none" stroke="midnightblue" d="M981.9,-100.38C962.83,-97.82 943.29,-95.2 926.08,-92.89"/>
<polygon fill="midnightblue" stroke="midnightblue" points="981.45,-103.85 991.82,-101.72 982.38,-96.92 981.45,-103.85"/>
</g>
<!-- Node12&#45;&gt;Node10 -->
<g id="edge12" class="edge">
<title>Node12&#45;&gt;Node10</title>
<path fill="none" stroke="midnightblue" d="M1189.71,-65.74C1110.93,-70.67 994.01,-77.99 926.16,-82.23"/>
<polygon fill="midnightblue" stroke="midnightblue" points="1190.32,-69.21 1200.08,-65.09 1189.88,-62.22 1190.32,-69.21"/>
</g>
<!-- Node14 -->
<g id="node14" class="node">
<title>Node14</title>
<g id="a_node14"><a xlink:href="classkazoo_1_1BinaryStream.html#a3a614f83199d9abd627964db2fef5f7b" target="_top" xlink:title="Get the number of bits in the stream.">
<polygon fill="none" stroke="black" points="1395.5,-319.62 1395.5,-349.62 1513.5,-349.62 1513.5,-319.62 1395.5,-319.62"/>
<text text-anchor="start" x="1403.5" y="-337.62" font-family="Helvetica,sans-Serif" font-size="10.00">kazoo::BinaryStream</text>
<text text-anchor="middle" x="1454.5" y="-326.62" font-family="Helvetica,sans-Serif" font-size="10.00">::getNumBits</text>
</a>
</g>
</g>
<!-- Node13&#45;&gt;Node14 -->
<g id="edge14" class="edge">
<title>Node13&#45;&gt;Node14</title>
<path fill="none" stroke="midnightblue" d="M1545.9,-334.62C1534.9,-334.62 1523.88,-334.62 1513.51,-334.62"/>
<polygon fill="midnightblue" stroke="midnightblue" points="1545.97,-338.12 1555.97,-334.62 1545.97,-331.12 1545.97,-338.12"/>
</g>
<!-- Node14&#45;&gt;Node3 -->
<g id="edge15" class="edge">
<title>Node14&#45;&gt;Node3</title>
<path fill="none" stroke="midnightblue" d="M1389.06,-316.89C1328.9,-300.48 1236.56,-275.67 1156,-255.62 1080.97,-236.95 994.36,-217.06 936.71,-204.06"/>
<polygon fill="midnightblue" stroke="midnightblue" points="1388.23,-320.29 1398.8,-319.55 1390.08,-313.54 1388.23,-320.29"/>
</g>
<!-- Node14&#45;&gt;Node11 -->
<g id="edge33" class="edge">
<title>Node14&#45;&gt;Node11</title>
<path fill="none" stroke="midnightblue" d="M1405.47,-314.96C1399.71,-311.83 1394.08,-308.38 1389,-304.62 1369.77,-290.4 1373.19,-277.44 1353,-264.62 1334.5,-252.88 1309.94,-246.62 1293.04,-243.47"/>
<polygon fill="midnightblue" stroke="midnightblue" points="1404.05,-318.16 1414.55,-319.59 1407.23,-311.93 1404.05,-318.16"/>
</g>
<!-- Node15 -->
<g id="node15" class="node">
<title>Node15</title>
<g id="a_node15"><a xlink:href="classkazoo_1_1BinaryStream.html#a745b2acb522d69e283dd5df14500016b" target="_top" xlink:title="Pop bits off the front, effectively the inverse of addBits.">
<polygon fill="none" stroke="black" points="1213.5,-319.62 1213.5,-349.62 1331.5,-349.62 1331.5,-319.62 1213.5,-319.62"/>
<text text-anchor="start" x="1221.5" y="-337.62" font-family="Helvetica,sans-Serif" font-size="10.00">kazoo::BinaryStream</text>
<text text-anchor="middle" x="1272.5" y="-326.62" font-family="Helvetica,sans-Serif" font-size="10.00">::popBits</text>
</a>
</g>
</g>
<!-- Node14&#45;&gt;Node15 -->
<g id="edge16" class="edge">
<title>Node14&#45;&gt;Node15</title>
<path fill="none" stroke="midnightblue" d="M1384.88,-334.62C1367.32,-334.62 1348.62,-334.62 1331.65,-334.62"/>
<polygon fill="midnightblue" stroke="midnightblue" points="1385.06,-338.12 1395.06,-334.62 1385.06,-331.12 1385.06,-338.12"/>
</g>
<!-- Node16 -->
<g id="node16" class="node">
<title>Node16</title>
<g id="a_node16"><a xlink:href="classkazoo_1_1Deframer.html#a7dc1caffad1ffe4925a3e13d8d125024" target="_top" xlink:title=" ">
<polygon fill="none" stroke="black" points="177,-291.62 177,-321.62 329,-321.62 329,-291.62 177,-291.62"/>
<text text-anchor="start" x="185" y="-309.62" font-family="Helvetica,sans-Serif" font-size="10.00">kazoo::Deframer::findFrame</text>
<text text-anchor="middle" x="253" y="-298.62" font-family="Helvetica,sans-Serif" font-size="10.00">Start</text>
</a>
</g>
</g>
<!-- Node15&#45;&gt;Node16 -->
<g id="edge17" class="edge">
<title>Node15&#45;&gt;Node16</title>
<path fill="none" stroke="midnightblue" d="M1202.96,-328.55C1123.44,-322.04 988.34,-312.62 872,-312.62 872,-312.62 872,-312.62 661,-312.62 545.11,-312.62 410.67,-310.16 329.01,-308.39"/>
<polygon fill="midnightblue" stroke="midnightblue" points="1203.08,-332.07 1213.33,-329.41 1203.66,-325.09 1203.08,-332.07"/>
</g>
<!-- Node18 -->
<g id="node18" class="node">
<title>Node18</title>
<g id="a_node18"><a xlink:href="classkazoo_1_1BinaryStream.html#ae77e9324dbd09dd4a02d3504a83ae866" target="_top" xlink:title=" ">
<polygon fill="none" stroke="black" points="1015,-341.62 1015,-371.62 1133,-371.62 1133,-341.62 1015,-341.62"/>
<text text-anchor="start" x="1023" y="-359.62" font-family="Helvetica,sans-Serif" font-size="10.00">kazoo::BinaryStream</text>
<text text-anchor="middle" x="1074" y="-348.62" font-family="Helvetica,sans-Serif" font-size="10.00">::popByte</text>
</a>
</g>
</g>
<!-- Node15&#45;&gt;Node18 -->
<g id="edge19" class="edge">
<title>Node15&#45;&gt;Node18</title>
<path fill="none" stroke="midnightblue" d="M1203.34,-342.25C1180.42,-344.82 1155.08,-347.66 1133.01,-350.13"/>
<polygon fill="midnightblue" stroke="midnightblue" points="1203.79,-345.72 1213.34,-341.13 1203.01,-338.77 1203.79,-345.72"/>
</g>
<!-- Node15&#45;&gt;Node22 -->
<g id="edge29" class="edge">
<title>Node15&#45;&gt;Node22</title>
<path fill="none" stroke="midnightblue" d="M1219.96,-353.38C1210.61,-356.98 1200.97,-360.82 1192,-364.62 1175.71,-371.53 1172.53,-375.31 1156,-381.62 1147.64,-384.81 1138.67,-387.84 1129.85,-390.61"/>
<polygon fill="midnightblue" stroke="midnightblue" points="1221.47,-356.55 1229.58,-349.72 1218.99,-350.01 1221.47,-356.55"/>
</g>
<!-- Node24 -->
<g id="node24" class="node">
<title>Node24</title>
<g id="a_node24"><a xlink:href="binary__stream_8test_8cpp.html#a4adfd3c5c4d57fd921cc878fe8b146a5" target="_top" xlink:title=" ">
<polygon fill="none" stroke="black" points="1053.5,-265.12 1053.5,-284.12 1094.5,-284.12 1094.5,-265.12 1053.5,-265.12"/>
<text text-anchor="middle" x="1074" y="-272.12" font-family="Helvetica,sans-Serif" font-size="10.00">TEST</text>
</a>
</g>
</g>
<!-- Node15&#45;&gt;Node24 -->
<g id="edge32" class="edge">
<title>Node15&#45;&gt;Node24</title>
<path fill="none" stroke="midnightblue" d="M1214.03,-316.53C1195.52,-310.75 1174.91,-304.37 1156,-298.62 1135.09,-292.27 1111.08,-285.18 1094.66,-280.36"/>
<polygon fill="midnightblue" stroke="midnightblue" points="1213.19,-319.94 1223.78,-319.58 1215.28,-313.26 1213.19,-319.94"/>
</g>
<!-- Node17 -->
<g id="node17" class="node">
<title>Node17</title>
<g id="a_node17"><a xlink:href="classkazoo_1_1Deframer.html#a742de19b3ca490d3faabfcbb64785998" target="_top" xlink:title="Process the input binary stream in a stateful manner to extract frames from sequential stream inputs.">
<polygon fill="none" stroke="black" points="0,-354.62 0,-384.62 141,-384.62 141,-354.62 0,-354.62"/>
<text text-anchor="start" x="8" y="-372.62" font-family="Helvetica,sans-Serif" font-size="10.00">kazoo::Deframer::process</text>
<text text-anchor="middle" x="70.5" y="-361.62" font-family="Helvetica,sans-Serif" font-size="10.00">Input</text>
</a>
</g>
</g>
<!-- Node16&#45;&gt;Node17 -->
<g id="edge18" class="edge">
<title>Node16&#45;&gt;Node17</title>
<path fill="none" stroke="midnightblue" d="M199.13,-325.07C172.27,-334.45 140.05,-345.7 114.69,-354.55"/>
<polygon fill="midnightblue" stroke="midnightblue" points="200.48,-328.31 208.77,-321.71 198.17,-321.7 200.48,-328.31"/>
</g>
<!-- Node19 -->
<g id="node19" class="node">
<title>Node19</title>
<g id="a_node19"><a xlink:href="classkazoo_1_1Deframer.html#ad544e3c1a1301cc5ab77389eab411b03" target="_top" xlink:title=" ">
<polygon fill="none" stroke="black" points="574,-379.12 574,-398.12 750,-398.12 750,-379.12 574,-379.12"/>
<text text-anchor="middle" x="662" y="-386.12" font-family="Helvetica,sans-Serif" font-size="10.00">kazoo::Deframer::findFrameData</text>
</a>
</g>
</g>
<!-- Node18&#45;&gt;Node19 -->
<g id="edge20" class="edge">
<title>Node18&#45;&gt;Node19</title>
<path fill="none" stroke="midnightblue" d="M1004.68,-361.95C934.83,-367.41 826.1,-375.89 750.11,-381.82"/>
<polygon fill="midnightblue" stroke="midnightblue" points="1005,-365.44 1014.69,-361.17 1004.45,-358.46 1005,-365.44"/>
</g>
<!-- Node20 -->
<g id="node20" class="node">
<title>Node20</title>
<g id="a_node20"><a xlink:href="classkazoo_1_1Deframer.html#a79d8b406e773fdc32d7c5002b9e37e2b" target="_top" xlink:title=" ">
<polygon fill="none" stroke="black" points="365,-341.12 365,-360.12 538,-360.12 538,-341.12 365,-341.12"/>
<text text-anchor="middle" x="451.5" y="-348.12" font-family="Helvetica,sans-Serif" font-size="10.00">kazoo::Deframer::findFrameSize</text>
</a>
</g>
</g>
<!-- Node18&#45;&gt;Node20 -->
<g id="edge28" class="edge">
<title>Node18&#45;&gt;Node20</title>
<path fill="none" stroke="midnightblue" d="M1004.58,-355.96C890.66,-354.86 662.38,-352.65 538.03,-351.45"/>
<polygon fill="midnightblue" stroke="midnightblue" points="1004.87,-359.46 1014.9,-356.06 1004.94,-352.46 1004.87,-359.46"/>
</g>
<!-- Node21 -->
<g id="node21" class="node">
<title>Node21</title>
<g id="a_node21"><a xlink:href="classkazoo_1_1Deframer.html#ae4c8d8b5f7e2bc50183fc1b758fc21a8" target="_top" xlink:title=" ">
<polygon fill="none" stroke="black" points="786,-417.12 786,-436.12 956,-436.12 956,-417.12 786,-417.12"/>
<text text-anchor="middle" x="871" y="-424.12" font-family="Helvetica,sans-Serif" font-size="10.00">kazoo::Deframer::findFrameEnd</text>
</a>
</g>
</g>
<!-- Node18&#45;&gt;Node21 -->
<g id="edge25" class="edge">
<title>Node18&#45;&gt;Node21</title>
<path fill="none" stroke="midnightblue" d="M1008.43,-375.07C1002.81,-377.12 997.27,-379.31 992,-381.62 975.04,-389.07 973.04,-395.35 956,-402.62 942.47,-408.39 927.13,-413.24 913.3,-417.03"/>
<polygon fill="midnightblue" stroke="midnightblue" points="1009.63,-378.36 1017.91,-371.76 1007.32,-371.75 1009.63,-378.36"/>
</g>
<!-- Node19&#45;&gt;Node17 -->
<g id="edge24" class="edge">
<title>Node19&#45;&gt;Node17</title>
<path fill="none" stroke="midnightblue" d="M563.84,-385.81C466.11,-382.93 311.09,-378.24 177,-373.62 165.37,-373.22 153.02,-372.77 141.02,-372.33"/>
<polygon fill="midnightblue" stroke="midnightblue" points="563.9,-389.31 574,-386.11 564.11,-382.31 563.9,-389.31"/>
</g>
<!-- Node19&#45;&gt;Node20 -->
<g id="edge21" class="edge">
<title>Node19&#45;&gt;Node20</title>
<path fill="none" stroke="midnightblue" d="M598.74,-377.27C568.83,-371.82 533.37,-365.36 504.87,-360.17"/>
<polygon fill="midnightblue" stroke="midnightblue" points="598.19,-380.73 608.66,-379.08 599.45,-373.85 598.19,-380.73"/>
</g>
<!-- Node20&#45;&gt;Node16 -->
<g id="edge22" class="edge">
<title>Node20&#45;&gt;Node16</title>
<path fill="none" stroke="midnightblue" d="M398.06,-338.88C374.49,-333.6 346.38,-327.31 321.28,-321.69"/>
<polygon fill="midnightblue" stroke="midnightblue" points="397.34,-342.3 407.86,-341.07 398.87,-335.47 397.34,-342.3"/>
</g>
<!-- Node20&#45;&gt;Node17 -->
<g id="edge23" class="edge">
<title>Node20&#45;&gt;Node17</title>
<path fill="none" stroke="midnightblue" d="M354.9,-355.41C288.38,-358.75 201.2,-363.12 141.2,-366.13"/>
<polygon fill="midnightblue" stroke="midnightblue" points="355.16,-358.91 364.97,-354.91 354.81,-351.91 355.16,-358.91"/>
</g>
<!-- Node21&#45;&gt;Node17 -->
<g id="edge27" class="edge">
<title>Node21&#45;&gt;Node17</title>
<path fill="none" stroke="midnightblue" d="M775.74,-425.59C642.09,-423.21 390.04,-415.38 177,-389.62 165.34,-388.21 153.03,-386.28 141.1,-384.18"/>
<polygon fill="midnightblue" stroke="midnightblue" points="775.89,-429.09 785.95,-425.76 776.01,-422.09 775.89,-429.09"/>
</g>
<!-- Node21&#45;&gt;Node19 -->
<g id="edge26" class="edge">
<title>Node21&#45;&gt;Node19</title>
<path fill="none" stroke="midnightblue" d="M808.19,-415.27C778.49,-409.82 743.29,-403.36 714.99,-398.17"/>
<polygon fill="midnightblue" stroke="midnightblue" points="807.56,-418.72 818.03,-417.08 808.83,-411.83 807.56,-418.72"/>
</g>
<!-- Node22&#45;&gt;Node3 -->
<g id="edge30" class="edge">
<title>Node22&#45;&gt;Node3</title>
<path fill="none" stroke="midnightblue" d="M1001,-387.52C997.85,-385.73 994.83,-383.77 992,-381.62 928.48,-333.32 890.24,-240.89 877.13,-204.69"/>
<polygon fill="midnightblue" stroke="midnightblue" points="999.65,-390.76 1010.16,-392.09 1002.78,-384.49 999.65,-390.76"/>
</g>
<!-- Node23 -->
<g id="node23" class="node">
<title>Node23</title>
<g id="a_node23"><a xlink:href="symbol__stream_8test_8cpp.html#ae06de649963b46341ca9f338594aa8cd" target="_top" xlink:title=" ">
<polygon fill="none" stroke="black" points="850.5,-455.12 850.5,-474.12 891.5,-474.12 891.5,-455.12 850.5,-455.12"/>
<text text-anchor="middle" x="871" y="-462.12" font-family="Helvetica,sans-Serif" font-size="10.00">TEST</text>
</a>
</g>
</g>
<!-- Node22&#45;&gt;Node23 -->
<g id="edge31" class="edge">
<title>Node22&#45;&gt;Node23</title>
<path fill="none" stroke="midnightblue" d="M1022.97,-424.04C1002.38,-431.28 978.2,-439.34 956,-445.62 934.28,-451.77 908.96,-457.28 891.84,-460.76"/>
<polygon fill="midnightblue" stroke="midnightblue" points="1024.2,-427.32 1032.46,-420.68 1021.86,-420.72 1024.2,-427.32"/>
</g>
<!-- Node26 -->
<g id="node26" class="node">
<title>Node26</title>
<g id="a_node26"><a xlink:href="classkazoo_1_1TranslationLayer.html#add62ed51f54492faf5a8ef388f1f0f58" target="_top" xlink:title="Starts listening for audio input on the default audio device.">
<polygon fill="none" stroke="black" points="596.5,-54.62 596.5,-84.62 727.5,-84.62 727.5,-54.62 596.5,-54.62"/>
<text text-anchor="start" x="604.5" y="-72.62" font-family="Helvetica,sans-Serif" font-size="10.00">kazoo::TranslationLayer</text>
<text text-anchor="middle" x="662" y="-61.62" font-family="Helvetica,sans-Serif" font-size="10.00">::startListening</text>
</a>
</g>
</g>
<!-- Node25&#45;&gt;Node26 -->
<g id="edge35" class="edge">
<title>Node25&#45;&gt;Node26</title>
<path fill="none" stroke="midnightblue" d="M1431.82,-87.15C1412.93,-69.31 1383.8,-45.74 1353,-35.62 1125.39,39.14 832.88,-23.47 715.33,-54.59"/>
<polygon fill="midnightblue" stroke="midnightblue" points="1429.65,-89.93 1439.26,-94.39 1434.53,-84.91 1429.65,-89.93"/>
</g>
<!-- Node26&#45;&gt;Node5 -->
<g id="edge36" class="edge">
<title>Node26&#45;&gt;Node5</title>
<path fill="none" stroke="midnightblue" d="M586.25,-70.7C545.46,-71.28 498.12,-71.97 472.12,-72.34"/>
<polygon fill="midnightblue" stroke="midnightblue" points="586.51,-74.19 596.46,-70.55 586.41,-67.19 586.51,-74.19"/>
</g>
<!-- Node26&#45;&gt;Node6 -->
<g id="edge37" class="edge">
<title>Node26&#45;&gt;Node6</title>
<path fill="none" stroke="midnightblue" d="M586.51,-85.34C545.66,-93.96 498.17,-103.98 472.12,-109.48"/>
<polygon fill="midnightblue" stroke="midnightblue" points="587.4,-88.73 596.46,-83.24 585.95,-81.88 587.4,-88.73"/>
</g>
<!-- Node28&#45;&gt;Node24 -->
<g id="edge42" class="edge">
<title>Node28&#45;&gt;Node24</title>
<path fill="none" stroke="midnightblue" d="M1553.91,-199.32C1464.41,-194.39 1315.8,-192.54 1192,-221.62 1153.79,-230.6 1112.82,-252.28 1090.94,-264.96"/>
<polygon fill="midnightblue" stroke="midnightblue" points="1553.81,-202.82 1563.99,-199.9 1554.21,-195.83 1553.81,-202.82"/>
</g>
<!-- Node28&#45;&gt;Node25 -->
<g id="edge40" class="edge">
<title>Node28&#45;&gt;Node25</title>
<path fill="none" stroke="midnightblue" d="M1611.99,-190.18C1589.54,-174.85 1553.36,-151.29 1520,-134.62 1512.91,-131.08 1505.19,-127.7 1497.63,-124.64"/>
<polygon fill="midnightblue" stroke="midnightblue" points="1610.23,-193.21 1620.45,-196.01 1614.2,-187.45 1610.23,-193.21"/>
</g>
<!-- Node28&#45;&gt;Node27 -->
<g id="edge41" class="edge">
<title>Node28&#45;&gt;Node27</title>
<path fill="none" stroke="midnightblue" d="M1582.69,-217.41C1563.18,-221.89 1540.69,-227.05 1520.1,-231.78"/>
<polygon fill="midnightblue" stroke="midnightblue" points="1583.64,-220.78 1592.6,-215.13 1582.07,-213.96 1583.64,-220.78"/>
</g>
</g>
</svg>
