<?xml version="1.0" encoding="UTF-8" standalone="no"?>
<!DOCTYPE svg PUBLIC "-//W3C//DTD SVG 1.1//EN"
 "http://www.w3.org/Graphics/SVG/1.1/DTD/svg11.dtd">
<!-- Generated by graphviz version 2.43.0 (0)
 -->
<!-- Title: kazoo::Fft::performFftFrequency Pages: 1 -->
<svg width="521pt" height="225pt"
 viewBox="0.00 0.00 521.00 224.50" xmlns="http://www.w3.org/2000/svg" xmlns:xlink="http://www.w3.org/1999/xlink">
<g id="graph0" class="graph" transform="scale(1 1) rotate(0) translate(4 220.5)">
<title>kazoo::Fft::performFftFrequency</title>
<!-- Node1 -->
<g id="node1" class="node">
<title>Node1</title>
<g id="a_node1"><a xlink:title=" ">
<polygon fill="#bfbfbf" stroke="black" points="341,-93.5 341,-112.5 513,-112.5 513,-93.5 341,-93.5"/>
<text text-anchor="middle" x="427" y="-100.5" font-family="Helvetica,sans-Serif" font-size="10.00">kazoo::Fft::performFftFrequency</text>
</a>
</g>
</g>
<!-- Node2 -->
<g id="node2" class="node">
<title>Node2</title>
<g id="a_node2"><a xlink:href="classkazoo_1_1model_1_1K1Model_1_1Model.html#ae81ef27f4256c94c207bb252bbc72860" target="_top" xlink:title=" ">
<polygon fill="none" stroke="black" points="109.5,-186 109.5,-216 283.5,-216 283.5,-186 109.5,-186"/>
<text text-anchor="start" x="117.5" y="-204" font-family="Helvetica,sans-Serif" font-size="10.00">kazoo::model::K1Model</text>
<text text-anchor="middle" x="196.5" y="-193" font-family="Helvetica,sans-Serif" font-size="10.00">::Model::decodeAudioToSymbols</text>
</a>
</g>
</g>
<!-- Node1&#45;&gt;Node2 -->
<g id="edge1" class="edge">
<title>Node1&#45;&gt;Node2</title>
<path fill="none" stroke="midnightblue" d="M405.25,-118.65C382.01,-135.45 342.65,-161.78 305,-177 296.58,-180.41 287.58,-183.37 278.51,-185.95"/>
<polygon fill="midnightblue" stroke="midnightblue" points="407.34,-121.46 413.33,-112.72 403.2,-115.82 407.34,-121.46"/>
</g>
<!-- Node4 -->
<g id="node4" class="node">
<title>Node4</title>
<g id="a_node4"><a xlink:href="classkazoo_1_1model_1_1K2PeakModel_1_1Model.html#ab9a88aed9b08fb13ca096dc482729308" target="_top" xlink:title=" ">
<polygon fill="none" stroke="black" points="109.5,-137 109.5,-167 283.5,-167 283.5,-137 109.5,-137"/>
<text text-anchor="start" x="117.5" y="-155" font-family="Helvetica,sans-Serif" font-size="10.00">kazoo::model::K2PeakModel</text>
<text text-anchor="middle" x="196.5" y="-144" font-family="Helvetica,sans-Serif" font-size="10.00">::Model::decodeAudioToSymbols</text>
</a>
</g>
</g>
<!-- Node1&#45;&gt;Node4 -->
<g id="edge3" class="edge">
<title>Node1&#45;&gt;Node4</title>
<path fill="none" stroke="midnightblue" d="M371.88,-114.61C340.75,-121.28 301.29,-129.74 267.78,-136.93"/>
<polygon fill="midnightblue" stroke="midnightblue" points="372.63,-118.02 381.67,-112.51 371.16,-111.18 372.63,-118.02"/>
</g>
<!-- Node6 -->
<g id="node6" class="node">
<title>Node6</title>
<g id="a_node6"><a xlink:href="classkazoo_1_1model_1_1K3ReasonableModel_1_1K3Model.html#a7bbd29b57bbe7679a0fe5341dcead576" target="_top" xlink:title=" ">
<polygon fill="none" stroke="black" points="88,-88 88,-118 305,-118 305,-88 88,-88"/>
<text text-anchor="start" x="96" y="-106" font-family="Helvetica,sans-Serif" font-size="10.00">kazoo::model::K3Reasonable</text>
<text text-anchor="middle" x="196.5" y="-95" font-family="Helvetica,sans-Serif" font-size="10.00">Model::K3Model::decodeAudioToSymbols</text>
</a>
</g>
</g>
<!-- Node1&#45;&gt;Node6 -->
<g id="edge5" class="edge">
<title>Node1&#45;&gt;Node6</title>
<path fill="none" stroke="midnightblue" d="M330.7,-103C322.25,-103 313.66,-103 305.12,-103"/>
<polygon fill="midnightblue" stroke="midnightblue" points="330.92,-106.5 340.92,-103 330.91,-99.5 330.92,-106.5"/>
</g>
<!-- Node8 -->
<g id="node8" class="node">
<title>Node8</title>
<g id="a_node8"><a xlink:href="classkazoo_1_1model_1_1Testing_1_1Model.html#a368da153dec9c373f8f63592579c42b5" target="_top" xlink:title=" ">
<polygon fill="none" stroke="black" points="109.5,-39 109.5,-69 283.5,-69 283.5,-39 109.5,-39"/>
<text text-anchor="start" x="117.5" y="-57" font-family="Helvetica,sans-Serif" font-size="10.00">kazoo::model::Testing</text>
<text text-anchor="middle" x="196.5" y="-46" font-family="Helvetica,sans-Serif" font-size="10.00">::Model::decodeAudioToSymbols</text>
</a>
</g>
</g>
<!-- Node1&#45;&gt;Node8 -->
<g id="edge7" class="edge">
<title>Node1&#45;&gt;Node8</title>
<path fill="none" stroke="midnightblue" d="M371.88,-91.39C340.75,-84.72 301.29,-76.26 267.78,-69.07"/>
<polygon fill="midnightblue" stroke="midnightblue" points="371.16,-94.82 381.67,-93.49 372.63,-87.98 371.16,-94.82"/>
</g>
<!-- Node10 -->
<g id="node10" class="node">
<title>Node10</title>
<g id="a_node10"><a xlink:href="fft_8test_8cpp.html#a1e216dd3d226a8a6f3ff9f29876b37d3" target="_top" xlink:title=" ">
<polygon fill="none" stroke="black" points="176,-0.5 176,-19.5 217,-19.5 217,-0.5 176,-0.5"/>
<text text-anchor="middle" x="196.5" y="-7.5" font-family="Helvetica,sans-Serif" font-size="10.00">TEST</text>
</a>
</g>
</g>
<!-- Node1&#45;&gt;Node10 -->
<g id="edge9" class="edge">
<title>Node1&#45;&gt;Node10</title>
<path fill="none" stroke="midnightblue" d="M405.75,-87.3C382.67,-70.23 343.19,-43.46 305,-29 275.58,-17.86 239.11,-13.18 217.11,-11.26"/>
<polygon fill="midnightblue" stroke="midnightblue" points="403.66,-90.11 413.75,-93.32 407.87,-84.52 403.66,-90.11"/>
</g>
<!-- Node3 -->
<g id="node3" class="node">
<title>Node3</title>
<g id="a_node3"><a xlink:href="k1__model_8test_8cpp.html#a7afde82f3b7a3b8a1d5c2175d4d2b323" target="_top" xlink:title=" ">
<polygon fill="none" stroke="black" points="0,-191.5 0,-210.5 52,-210.5 52,-191.5 0,-191.5"/>
<text text-anchor="middle" x="26" y="-198.5" font-family="Helvetica,sans-Serif" font-size="10.00">TEST_F</text>
</a>
</g>
</g>
<!-- Node2&#45;&gt;Node3 -->
<g id="edge2" class="edge">
<title>Node2&#45;&gt;Node3</title>
<path fill="none" stroke="midnightblue" d="M99.03,-201C81.73,-201 65.13,-201 52.23,-201"/>
<polygon fill="midnightblue" stroke="midnightblue" points="99.28,-204.5 109.28,-201 99.28,-197.5 99.28,-204.5"/>
</g>
<!-- Node5 -->
<g id="node5" class="node">
<title>Node5</title>
<g id="a_node5"><a xlink:href="k2__peak__model_8test_8cpp.html#a17f63146f1faeef6df7fadccd45457c5" target="_top" xlink:title=" ">
<polygon fill="none" stroke="black" points="0,-142.5 0,-161.5 52,-161.5 52,-142.5 0,-142.5"/>
<text text-anchor="middle" x="26" y="-149.5" font-family="Helvetica,sans-Serif" font-size="10.00">TEST_F</text>
</a>
</g>
</g>
<!-- Node4&#45;&gt;Node5 -->
<g id="edge4" class="edge">
<title>Node4&#45;&gt;Node5</title>
<path fill="none" stroke="midnightblue" d="M99.03,-152C81.73,-152 65.13,-152 52.23,-152"/>
<polygon fill="midnightblue" stroke="midnightblue" points="99.28,-155.5 109.28,-152 99.28,-148.5 99.28,-155.5"/>
</g>
<!-- Node7 -->
<g id="node7" class="node">
<title>Node7</title>
<g id="a_node7"><a xlink:href="k3__model_8test_8cpp.html#ac3bedba18c3a5c5cdf36b38d093ae122" target="_top" xlink:title=" ">
<polygon fill="none" stroke="black" points="0,-93.5 0,-112.5 52,-112.5 52,-93.5 0,-93.5"/>
<text text-anchor="middle" x="26" y="-100.5" font-family="Helvetica,sans-Serif" font-size="10.00">TEST_F</text>
</a>
</g>
</g>
<!-- Node6&#45;&gt;Node7 -->
<g id="edge6" class="edge">
<title>Node6&#45;&gt;Node7</title>
<path fill="none" stroke="midnightblue" d="M77.55,-103C68.28,-103 59.67,-103 52.27,-103"/>
<polygon fill="midnightblue" stroke="midnightblue" points="77.83,-106.5 87.83,-103 77.83,-99.5 77.83,-106.5"/>
</g>
<!-- Node9 -->
<g id="node9" class="node">
<title>Node9</title>
<g id="a_node9"><a xlink:href="testing__model_8test_8cpp.html#a5f7f706da071e9c79176674931fb0dd9" target="_top" xlink:title=" ">
<polygon fill="none" stroke="black" points="5.5,-44.5 5.5,-63.5 46.5,-63.5 46.5,-44.5 5.5,-44.5"/>
<text text-anchor="middle" x="26" y="-51.5" font-family="Helvetica,sans-Serif" font-size="10.00">TEST</text>
</a>
</g>
</g>
<!-- Node8&#45;&gt;Node9 -->
<g id="edge8" class="edge">
<title>Node8&#45;&gt;Node9</title>
<path fill="none" stroke="midnightblue" d="M99.13,-54C79.22,-54 60.24,-54 46.75,-54"/>
<polygon fill="midnightblue" stroke="midnightblue" points="99.28,-57.5 109.28,-54 99.28,-50.5 99.28,-57.5"/>
</g>
</g>
</svg>
