<?xml version="1.0" encoding="UTF-8" standalone="no"?>
<!DOCTYPE svg PUBLIC "-//W3C//DTD SVG 1.1//EN"
 "http://www.w3.org/Graphics/SVG/1.1/DTD/svg11.dtd">
<!-- Generated by graphviz version 2.43.0 (0)
 -->
<!-- Title: kazoo::BinaryStream::addBit Pages: 1 -->
<svg width="716pt" height="204pt"
 viewBox="0.00 0.00 716.00 203.50" xmlns="http://www.w3.org/2000/svg" xmlns:xlink="http://www.w3.org/1999/xlink">
<g id="graph0" class="graph" transform="scale(1 1) rotate(0) translate(4 199.5)">
<title>kazoo::BinaryStream::addBit</title>
<!-- Node1 -->
<g id="node1" class="node">
<title>Node1</title>
<g id="a_node1"><a xlink:title=" ">
<polygon fill="#bfbfbf" stroke="black" points="590,-80 590,-110 708,-110 708,-80 590,-80"/>
<text text-anchor="start" x="598" y="-98" font-family="Helvetica,sans-Serif" font-size="10.00">kazoo::BinaryStream</text>
<text text-anchor="middle" x="649" y="-87" font-family="Helvetica,sans-Serif" font-size="10.00">::addBit</text>
</a>
</g>
</g>
<!-- Node2 -->
<g id="node2" class="node">
<title>Node2</title>
<g id="a_node2"><a xlink:href="classkazoo_1_1BinaryStream.html#a9fa928af862a740fe6f000c5937a2e9d" target="_top" xlink:title="Add individual bits to the stream.">
<polygon fill="none" stroke="black" points="424,-121 424,-151 542,-151 542,-121 424,-121"/>
<text text-anchor="start" x="432" y="-139" font-family="Helvetica,sans-Serif" font-size="10.00">kazoo::BinaryStream</text>
<text text-anchor="middle" x="483" y="-128" font-family="Helvetica,sans-Serif" font-size="10.00">::addBits</text>
</a>
</g>
</g>
<!-- Node1&#45;&gt;Node2 -->
<g id="edge1" class="edge">
<title>Node1&#45;&gt;Node2</title>
<path fill="none" stroke="midnightblue" d="M579.79,-112.05C567.26,-115.18 554.29,-118.43 542.09,-121.48"/>
<polygon fill="midnightblue" stroke="midnightblue" points="580.87,-115.39 589.72,-109.57 579.17,-108.6 580.87,-115.39"/>
</g>
<!-- Node7 -->
<g id="node7" class="node">
<title>Node7</title>
<g id="a_node7"><a xlink:href="classkazoo_1_1BinaryStream.html#a8d303f53784202d1d75b360075093ffb" target="_top" xlink:title="If the last element is being used as a bit buffer, this will fill the remaining bits until the stream...">
<polygon fill="none" stroke="black" points="412,-63.5 412,-82.5 554,-82.5 554,-63.5 412,-63.5"/>
<text text-anchor="middle" x="483" y="-70.5" font-family="Helvetica,sans-Serif" font-size="10.00">kazoo::BinaryStream::pad</text>
</a>
</g>
</g>
<!-- Node1&#45;&gt;Node7 -->
<g id="edge6" class="edge">
<title>Node1&#45;&gt;Node7</title>
<path fill="none" stroke="midnightblue" d="M579.59,-85.82C571.19,-84.7 562.59,-83.54 554.17,-82.41"/>
<polygon fill="midnightblue" stroke="midnightblue" points="579.34,-89.32 589.72,-87.18 580.27,-82.38 579.34,-89.32"/>
</g>
<!-- Node3 -->
<g id="node3" class="node">
<title>Node3</title>
<g id="a_node3"><a xlink:href="classkazoo_1_1SymbolStream.html#a6d4fe37e7f9c05587d95de99c84be743" target="_top" xlink:title=" ">
<polygon fill="none" stroke="black" points="244,-165 244,-195 376,-195 376,-165 244,-165"/>
<text text-anchor="start" x="252" y="-183" font-family="Helvetica,sans-Serif" font-size="10.00">kazoo::SymbolStream</text>
<text text-anchor="middle" x="310" y="-172" font-family="Helvetica,sans-Serif" font-size="10.00">::populateBinaryStream</text>
</a>
</g>
</g>
<!-- Node2&#45;&gt;Node3 -->
<g id="edge2" class="edge">
<title>Node2&#45;&gt;Node3</title>
<path fill="none" stroke="midnightblue" d="M413.62,-153.59C398.97,-157.36 383.63,-161.31 369.4,-164.97"/>
<polygon fill="midnightblue" stroke="midnightblue" points="414.82,-156.9 423.63,-151.02 413.07,-150.12 414.82,-156.9"/>
</g>
<!-- Node6 -->
<g id="node6" class="node">
<title>Node6</title>
<g id="a_node6"><a xlink:href="binary__stream_8test_8cpp.html#a0ea90f1ff04ac7d2c91a322c493df41b" target="_top" xlink:title=" ">
<polygon fill="none" stroke="black" points="289.5,-126.5 289.5,-145.5 330.5,-145.5 330.5,-126.5 289.5,-126.5"/>
<text text-anchor="middle" x="310" y="-133.5" font-family="Helvetica,sans-Serif" font-size="10.00">TEST</text>
</a>
</g>
</g>
<!-- Node2&#45;&gt;Node6 -->
<g id="edge5" class="edge">
<title>Node2&#45;&gt;Node6</title>
<path fill="none" stroke="midnightblue" d="M413.63,-136C383.74,-136 350.94,-136 330.66,-136"/>
<polygon fill="midnightblue" stroke="midnightblue" points="413.63,-139.5 423.63,-136 413.63,-132.5 413.63,-139.5"/>
</g>
<!-- Node4 -->
<g id="node4" class="node">
<title>Node4</title>
<g id="a_node4"><a xlink:href="classkazoo_1_1TranslationLayer.html#a76f09d5f7213679a6656aa9473f8f2ab" target="_top" xlink:title=" ">
<polygon fill="none" stroke="black" points="77,-105 77,-135 208,-135 208,-105 77,-105"/>
<text text-anchor="start" x="85" y="-123" font-family="Helvetica,sans-Serif" font-size="10.00">kazoo::TranslationLayer</text>
<text text-anchor="middle" x="142.5" y="-112" font-family="Helvetica,sans-Serif" font-size="10.00">::loadAndDecodeWav</text>
</a>
</g>
</g>
<!-- Node3&#45;&gt;Node4 -->
<g id="edge3" class="edge">
<title>Node3&#45;&gt;Node4</title>
<path fill="none" stroke="midnightblue" d="M257.81,-161.44C234.41,-152.96 207.05,-143.04 184.96,-135.03"/>
<polygon fill="midnightblue" stroke="midnightblue" points="256.64,-164.74 267.24,-164.86 259.03,-158.16 256.64,-164.74"/>
</g>
<!-- Node5 -->
<g id="node5" class="node">
<title>Node5</title>
<g id="a_node5"><a xlink:href="symbol__stream_8test_8cpp.html#a6649846ac517122a5ce6489b52046605" target="_top" xlink:title=" ">
<polygon fill="none" stroke="black" points="122,-170.5 122,-189.5 163,-189.5 163,-170.5 122,-170.5"/>
<text text-anchor="middle" x="142.5" y="-177.5" font-family="Helvetica,sans-Serif" font-size="10.00">TEST</text>
</a>
</g>
</g>
<!-- Node3&#45;&gt;Node5 -->
<g id="edge4" class="edge">
<title>Node3&#45;&gt;Node5</title>
<path fill="none" stroke="midnightblue" d="M233.39,-180C207.6,-180 180.88,-180 163.34,-180"/>
<polygon fill="midnightblue" stroke="midnightblue" points="233.59,-183.5 243.59,-180 233.59,-176.5 233.59,-183.5"/>
</g>
<!-- Node7&#45;&gt;Node4 -->
<g id="edge11" class="edge">
<title>Node7&#45;&gt;Node4</title>
<path fill="none" stroke="midnightblue" d="M403.43,-83.91C344.13,-92.14 263.77,-103.3 208.17,-111.02"/>
<polygon fill="midnightblue" stroke="midnightblue" points="404.08,-87.35 413.5,-82.51 403.11,-80.42 404.08,-87.35"/>
</g>
<!-- Node8 -->
<g id="node8" class="node">
<title>Node8</title>
<g id="a_node8"><a xlink:href="classkazoo_1_1TranslationLayer.html#aa2783a8a2e4fb8fafa580e3cda27203e" target="_top" xlink:title=" ">
<polygon fill="none" stroke="black" points="244.5,-39 244.5,-69 375.5,-69 375.5,-39 244.5,-39"/>
<text text-anchor="start" x="252.5" y="-57" font-family="Helvetica,sans-Serif" font-size="10.00">kazoo::TranslationLayer</text>
<text text-anchor="middle" x="310" y="-46" font-family="Helvetica,sans-Serif" font-size="10.00">::listeningThreadFunc</text>
</a>
</g>
</g>
<!-- Node7&#45;&gt;Node8 -->
<g id="edge7" class="edge">
<title>Node7&#45;&gt;Node8</title>
<path fill="none" stroke="midnightblue" d="M401.76,-64.08C393.03,-63.11 384.22,-62.14 375.71,-61.19"/>
<polygon fill="midnightblue" stroke="midnightblue" points="401.63,-67.59 411.95,-65.22 402.4,-60.63 401.63,-67.59"/>
</g>
<!-- Node12 -->
<g id="node12" class="node">
<title>Node12</title>
<g id="a_node12"><a xlink:href="binary__stream_8test_8cpp.html#a4adfd3c5c4d57fd921cc878fe8b146a5" target="_top" xlink:title=" ">
<polygon fill="none" stroke="black" points="289.5,-0.5 289.5,-19.5 330.5,-19.5 330.5,-0.5 289.5,-0.5"/>
<text text-anchor="middle" x="310" y="-7.5" font-family="Helvetica,sans-Serif" font-size="10.00">TEST</text>
</a>
</g>
</g>
<!-- Node7&#45;&gt;Node12 -->
<g id="edge12" class="edge">
<title>Node7&#45;&gt;Node12</title>
<path fill="none" stroke="midnightblue" d="M450.52,-59.39C429.58,-50.55 401.36,-39.03 376,-30 360.98,-24.66 343.73,-19.39 330.77,-15.6"/>
<polygon fill="midnightblue" stroke="midnightblue" points="449.31,-62.68 459.88,-63.37 452.05,-56.24 449.31,-62.68"/>
</g>
<!-- Node9 -->
<g id="node9" class="node">
<title>Node9</title>
<g id="a_node9"><a xlink:href="classkazoo_1_1TranslationLayer.html#add62ed51f54492faf5a8ef388f1f0f58" target="_top" xlink:title="Starts listening for audio input on the default audio device.">
<polygon fill="none" stroke="black" points="77,-39 77,-69 208,-69 208,-39 77,-39"/>
<text text-anchor="start" x="85" y="-57" font-family="Helvetica,sans-Serif" font-size="10.00">kazoo::TranslationLayer</text>
<text text-anchor="middle" x="142.5" y="-46" font-family="Helvetica,sans-Serif" font-size="10.00">::startListening</text>
</a>
</g>
</g>
<!-- Node8&#45;&gt;Node9 -->
<g id="edge8" class="edge">
<title>Node8&#45;&gt;Node9</title>
<path fill="none" stroke="midnightblue" d="M234.03,-54C225.43,-54 216.71,-54 208.25,-54"/>
<polygon fill="midnightblue" stroke="midnightblue" points="234.07,-57.5 244.07,-54 234.06,-50.5 234.07,-57.5"/>
</g>
<!-- Node10 -->
<g id="node10" class="node">
<title>Node10</title>
<g id="a_node10"><a xlink:href="src_2kazoo__connect__server_2main_8cpp.html#ae66f6b31b5ad750f1fe042a706a4e3d4" target="_top" xlink:title=" ">
<polygon fill="none" stroke="black" points="0,-63.5 0,-82.5 41,-82.5 41,-63.5 0,-63.5"/>
<text text-anchor="middle" x="20.5" y="-70.5" font-family="Helvetica,sans-Serif" font-size="10.00">main</text>
</a>
</g>
</g>
<!-- Node9&#45;&gt;Node10 -->
<g id="edge9" class="edge">
<title>Node9&#45;&gt;Node10</title>
<path fill="none" stroke="midnightblue" d="M66.91,-65.81C57.43,-67.31 48.46,-68.73 41.05,-69.91"/>
<polygon fill="midnightblue" stroke="midnightblue" points="67.6,-69.24 76.93,-64.22 66.51,-62.33 67.6,-69.24"/>
</g>
<!-- Node11 -->
<g id="node11" class="node">
<title>Node11</title>
<g id="a_node11"><a xlink:href="translation__layer_8test_8cpp.html#a557311196b9a309f0d8377ef5af0c62c" target="_top" xlink:title=" ">
<polygon fill="none" stroke="black" points="0,-25.5 0,-44.5 41,-44.5 41,-25.5 0,-25.5"/>
<text text-anchor="middle" x="20.5" y="-32.5" font-family="Helvetica,sans-Serif" font-size="10.00">TEST</text>
</a>
</g>
</g>
<!-- Node9&#45;&gt;Node11 -->
<g id="edge10" class="edge">
<title>Node9&#45;&gt;Node11</title>
<path fill="none" stroke="midnightblue" d="M66.91,-42.19C57.43,-40.69 48.46,-39.27 41.05,-38.09"/>
<polygon fill="midnightblue" stroke="midnightblue" points="66.51,-45.67 76.93,-43.78 67.6,-38.76 66.51,-45.67"/>
</g>
</g>
</svg>
