<?xml version="1.0" encoding="UTF-8" standalone="no"?>
<!DOCTYPE svg PUBLIC "-//W3C//DTD SVG 1.1//EN"
 "http://www.w3.org/Graphics/SVG/1.1/DTD/svg11.dtd">
<!-- Generated by graphviz version 2.43.0 (0)
 -->
<!-- Title: kazoo::SymbolStream&lt; Token_t &gt; Pages: 1 -->
<svg width="464pt" height="369pt"
 viewBox="0.00 0.00 463.50 369.00" xmlns="http://www.w3.org/2000/svg" xmlns:xlink="http://www.w3.org/1999/xlink">
<g id="graph0" class="graph" transform="scale(1 1) rotate(0) translate(4 365)">
<title>kazoo::SymbolStream&lt; Token_t &gt;</title>
<!-- Node1 -->
<g id="node1" class="node">
<title>Node1</title>
<g id="a_node1"><a xlink:title="A simple Symbol Stream structure. Interfaces with the transcoder and binary stream.">
<polygon fill="#bfbfbf" stroke="black" points="175,-0.5 175,-178.5 320,-178.5 320,-0.5 175,-0.5"/>
<text text-anchor="start" x="183" y="-166.5" font-family="Helvetica,sans-Serif" font-size="10.00">kazoo::SymbolStream</text>
<text text-anchor="middle" x="247.5" y="-155.5" font-family="Helvetica,sans-Serif" font-size="10.00">&lt; Token_t &gt;</text>
<polyline fill="none" stroke="black" points="175,-148.5 320,-148.5 "/>
<text text-anchor="middle" x="247.5" y="-136.5" font-family="Helvetica,sans-Serif" font-size="10.00"> </text>
<polyline fill="none" stroke="black" points="175,-129.5 320,-129.5 "/>
<text text-anchor="start" x="183" y="-117.5" font-family="Helvetica,sans-Serif" font-size="10.00">+ SymbolStream()</text>
<text text-anchor="start" x="183" y="-106.5" font-family="Helvetica,sans-Serif" font-size="10.00">+ addSymbol()</text>
<text text-anchor="start" x="183" y="-95.5" font-family="Helvetica,sans-Serif" font-size="10.00">+ addSymbolId()</text>
<text text-anchor="start" x="183" y="-84.5" font-family="Helvetica,sans-Serif" font-size="10.00">+ clear()</text>
<text text-anchor="start" x="183" y="-73.5" font-family="Helvetica,sans-Serif" font-size="10.00">+ getNumBits()</text>
<text text-anchor="start" x="183" y="-62.5" font-family="Helvetica,sans-Serif" font-size="10.00">+ getNumBytes()</text>
<text text-anchor="start" x="183" y="-51.5" font-family="Helvetica,sans-Serif" font-size="10.00">+ getNumSymbols()</text>
<text text-anchor="start" x="183" y="-40.5" font-family="Helvetica,sans-Serif" font-size="10.00">+ popSymbol()</text>
<text text-anchor="start" x="183" y="-29.5" font-family="Helvetica,sans-Serif" font-size="10.00">+ popSymbolTokenId()</text>
<text text-anchor="start" x="183" y="-18.5" font-family="Helvetica,sans-Serif" font-size="10.00">+ populateBinaryStream()</text>
<text text-anchor="start" x="183" y="-7.5" font-family="Helvetica,sans-Serif" font-size="10.00">+ processBinaryStream()</text>
</a>
</g>
</g>
<!-- Node2 -->
<g id="node2" class="node">
<title>Node2</title>
<g id="a_node2"><a xlink:href="classkazoo_1_1ISymbolStream.html" target="_top" xlink:title="An interface for a symbol stream.">
<polygon fill="none" stroke="black" points="0,-232 0,-355 145,-355 145,-232 0,-232"/>
<text text-anchor="middle" x="72.5" y="-343" font-family="Helvetica,sans-Serif" font-size="10.00">kazoo::ISymbolStream</text>
<polyline fill="none" stroke="black" points="0,-336 145,-336 "/>
<text text-anchor="middle" x="72.5" y="-324" font-family="Helvetica,sans-Serif" font-size="10.00"> </text>
<polyline fill="none" stroke="black" points="0,-317 145,-317 "/>
<text text-anchor="start" x="8" y="-305" font-family="Helvetica,sans-Serif" font-size="10.00">+ ~ISymbolStream()</text>
<text text-anchor="start" x="8" y="-294" font-family="Helvetica,sans-Serif" font-size="10.00">+ addSymbolId()</text>
<text text-anchor="start" x="8" y="-283" font-family="Helvetica,sans-Serif" font-size="10.00">+ clear()</text>
<text text-anchor="start" x="8" y="-272" font-family="Helvetica,sans-Serif" font-size="10.00">+ getNumBytes()</text>
<text text-anchor="start" x="8" y="-261" font-family="Helvetica,sans-Serif" font-size="10.00">+ popSymbolTokenId()</text>
<text text-anchor="start" x="8" y="-250" font-family="Helvetica,sans-Serif" font-size="10.00">+ populateBinaryStream()</text>
<text text-anchor="start" x="8" y="-239" font-family="Helvetica,sans-Serif" font-size="10.00">+ processBinaryStream()</text>
</a>
</g>
</g>
<!-- Node2&#45;&gt;Node1 -->
<g id="edge1" class="edge">
<title>Node2&#45;&gt;Node1</title>
<path fill="none" stroke="midnightblue" d="M131.73,-224.13C145.62,-208.1 160.57,-190.84 174.97,-174.22"/>
<polygon fill="none" stroke="midnightblue" points="128.91,-222.04 125.01,-231.89 134.2,-226.63 128.91,-222.04"/>
</g>
<!-- Node3 -->
<g id="node3" class="node">
<title>Node3</title>
<g id="a_node3"><a xlink:href="classkazoo_1_1ISymbolModel.html" target="_top" xlink:title=" ">
<polygon fill="none" stroke="black" points="163,-226.5 163,-360.5 332,-360.5 332,-226.5 163,-226.5"/>
<text text-anchor="middle" x="247.5" y="-348.5" font-family="Helvetica,sans-Serif" font-size="10.00">kazoo::ISymbolModel</text>
<polyline fill="none" stroke="black" points="163,-341.5 332,-341.5 "/>
<text text-anchor="middle" x="247.5" y="-329.5" font-family="Helvetica,sans-Serif" font-size="10.00"> </text>
<polyline fill="none" stroke="black" points="163,-322.5 332,-322.5 "/>
<text text-anchor="start" x="171" y="-310.5" font-family="Helvetica,sans-Serif" font-size="10.00">+ ~ISymbolModel()</text>
<text text-anchor="start" x="171" y="-299.5" font-family="Helvetica,sans-Serif" font-size="10.00">+ decodeAudioToSymbols()</text>
<text text-anchor="start" x="171" y="-288.5" font-family="Helvetica,sans-Serif" font-size="10.00">+ encodeSymbol()</text>
<text text-anchor="start" x="171" y="-277.5" font-family="Helvetica,sans-Serif" font-size="10.00">+ getNumSamplesPerSymbol()</text>
<text text-anchor="start" x="171" y="-266.5" font-family="Helvetica,sans-Serif" font-size="10.00">+ getSymbolBitMask()</text>
<text text-anchor="start" x="171" y="-255.5" font-family="Helvetica,sans-Serif" font-size="10.00">+ getSymbolBitWidth()</text>
<text text-anchor="start" x="171" y="-244.5" font-family="Helvetica,sans-Serif" font-size="10.00">+ getSymbolId()</text>
<text text-anchor="start" x="171" y="-233.5" font-family="Helvetica,sans-Serif" font-size="10.00">+ getValue()</text>
</a>
</g>
</g>
<!-- Node3&#45;&gt;Node1 -->
<g id="edge2" class="edge">
<title>Node3&#45;&gt;Node1</title>
<path fill="none" stroke="#404040" d="M247.5,-226.36C247.5,-214.97 247.5,-202.9 247.5,-190.85"/>
<polygon fill="none" stroke="#404040" points="247.5,-190.82 243.5,-184.82 247.5,-178.82 251.5,-184.82 247.5,-190.82"/>
<text text-anchor="middle" x="290" y="-200" font-family="Helvetica,sans-Serif" font-size="10.00"> &#45;symbol_model_</text>
</g>
<!-- Node4 -->
<g id="node4" class="node">
<title>Node4</title>
<g id="a_node4"><a xlink:title=" ">
<polygon fill="none" stroke="black" points="349.5,-265 349.5,-322 455.5,-322 455.5,-265 349.5,-265"/>
<text text-anchor="middle" x="402.5" y="-310" font-family="Helvetica,sans-Serif" font-size="10.00">deque&lt; Token_t &gt;</text>
<polyline fill="none" stroke="black" points="349.5,-303 455.5,-303 "/>
<text text-anchor="middle" x="402.5" y="-291" font-family="Helvetica,sans-Serif" font-size="10.00"> </text>
<polyline fill="none" stroke="black" points="349.5,-284 455.5,-284 "/>
<text text-anchor="middle" x="402.5" y="-272" font-family="Helvetica,sans-Serif" font-size="10.00"> </text>
</a>
</g>
</g>
<!-- Node4&#45;&gt;Node1 -->
<g id="edge3" class="edge">
<title>Node4&#45;&gt;Node1</title>
<path fill="none" stroke="#404040" d="M384.37,-264.86C371.46,-245.53 353.46,-219.29 336.5,-197 333.63,-193.22 330.67,-189.4 327.66,-185.56"/>
<polygon fill="none" stroke="#404040" points="327.53,-185.39 320.67,-183.17 320.08,-175.98 326.94,-178.2 327.53,-185.39"/>
<text text-anchor="middle" x="370.5" y="-200" font-family="Helvetica,sans-Serif" font-size="10.00"> &#45;symbols_</text>
</g>
</g>
</svg>
