<?xml version="1.0" encoding="UTF-8" standalone="no"?>
<!DOCTYPE svg PUBLIC "-//W3C//DTD SVG 1.1//EN"
 "http://www.w3.org/Graphics/SVG/1.1/DTD/svg11.dtd">
<!-- Generated by graphviz version 2.43.0 (0)
 -->
<!-- Title: kazoo::model::K3ReasonableModel::K3Model::detectSymbolFromFftResults Pages: 1 -->
<svg width="543pt" height="50pt"
 viewBox="0.00 0.00 543.00 50.00" xmlns="http://www.w3.org/2000/svg" xmlns:xlink="http://www.w3.org/1999/xlink">
<g id="graph0" class="graph" transform="scale(1 1) rotate(0) translate(4 46)">
<title>kazoo::model::K3ReasonableModel::K3Model::detectSymbolFromFftResults</title>
<!-- Node1 -->
<g id="node1" class="node">
<title>Node1</title>
<g id="a_node1"><a xlink:title=" ">
<polygon fill="#bfbfbf" stroke="black" points="341,-0.5 341,-41.5 535,-41.5 535,-0.5 341,-0.5"/>
<text text-anchor="start" x="349" y="-29.5" font-family="Helvetica,sans-Serif" font-size="10.00">kazoo::model::K3Reasonable</text>
<text text-anchor="start" x="349" y="-18.5" font-family="Helvetica,sans-Serif" font-size="10.00">Model::K3Model::detectSymbolFrom</text>
<text text-anchor="middle" x="438" y="-7.5" font-family="Helvetica,sans-Serif" font-size="10.00">FftResults</text>
</a>
</g>
</g>
<!-- Node2 -->
<g id="node2" class="node">
<title>Node2</title>
<g id="a_node2"><a xlink:href="classkazoo_1_1model_1_1K3ReasonableModel_1_1K3Model.html#a7bbd29b57bbe7679a0fe5341dcead576" target="_top" xlink:title=" ">
<polygon fill="none" stroke="black" points="88,-6 88,-36 305,-36 305,-6 88,-6"/>
<text text-anchor="start" x="96" y="-24" font-family="Helvetica,sans-Serif" font-size="10.00">kazoo::model::K3Reasonable</text>
<text text-anchor="middle" x="196.5" y="-13" font-family="Helvetica,sans-Serif" font-size="10.00">Model::K3Model::decodeAudioToSymbols</text>
</a>
</g>
</g>
<!-- Node1&#45;&gt;Node2 -->
<g id="edge1" class="edge">
<title>Node1&#45;&gt;Node2</title>
<path fill="none" stroke="midnightblue" d="M330.74,-21C322.31,-21 313.79,-21 305.36,-21"/>
<polygon fill="midnightblue" stroke="midnightblue" points="330.97,-24.5 340.97,-21 330.97,-17.5 330.97,-24.5"/>
</g>
<!-- Node3 -->
<g id="node3" class="node">
<title>Node3</title>
<g id="a_node3"><a xlink:href="k3__model_8test_8cpp.html#ac3bedba18c3a5c5cdf36b38d093ae122" target="_top" xlink:title=" ">
<polygon fill="none" stroke="black" points="0,-11.5 0,-30.5 52,-30.5 52,-11.5 0,-11.5"/>
<text text-anchor="middle" x="26" y="-18.5" font-family="Helvetica,sans-Serif" font-size="10.00">TEST_F</text>
</a>
</g>
</g>
<!-- Node2&#45;&gt;Node3 -->
<g id="edge2" class="edge">
<title>Node2&#45;&gt;Node3</title>
<path fill="none" stroke="midnightblue" d="M77.55,-21C68.28,-21 59.67,-21 52.27,-21"/>
<polygon fill="midnightblue" stroke="midnightblue" points="77.83,-24.5 87.83,-21 77.83,-17.5 77.83,-24.5"/>
</g>
</g>
</svg>
