<?xml version="1.0" encoding="UTF-8" standalone="no"?>
<!DOCTYPE svg PUBLIC "-//W3C//DTD SVG 1.1//EN"
 "http://www.w3.org/Graphics/SVG/1.1/DTD/svg11.dtd">
<!-- Generated by graphviz version 2.43.0 (0)
 -->
<!-- Title: kazoo::model::K2PeakModel Pages: 1 -->
<svg width="459pt" height="259pt"
 viewBox="0.00 0.00 458.50 259.00" xmlns="http://www.w3.org/2000/svg" xmlns:xlink="http://www.w3.org/1999/xlink">
<g id="graph0" class="graph" transform="scale(1 1) rotate(0) translate(4 255)">
<title>kazoo::model::K2PeakModel</title>
<!-- Node1 -->
<g id="node1" class="node">
<title>Node1</title>
<g id="a_node1"><a xlink:title=" ">
<polygon fill="#bfbfbf" stroke="black" points="122,-0.5 122,-57.5 277,-57.5 277,-0.5 122,-0.5"/>
<text text-anchor="middle" x="199.5" y="-45.5" font-family="Helvetica,sans-Serif" font-size="10.00">kazoo::model::K2PeakModel</text>
<polyline fill="none" stroke="black" points="122,-38.5 277,-38.5 "/>
<text text-anchor="middle" x="199.5" y="-26.5" font-family="Helvetica,sans-Serif" font-size="10.00"> </text>
<polyline fill="none" stroke="black" points="122,-19.5 277,-19.5 "/>
<text text-anchor="middle" x="199.5" y="-7.5" font-family="Helvetica,sans-Serif" font-size="10.00"> </text>
</a>
</g>
</g>
<!-- Node2 -->
<g id="node2" class="node">
<title>Node2</title>
<g id="a_node2"><a xlink:title=" ">
<polygon fill="none" stroke="black" points="0,-188 0,-245 45,-245 45,-188 0,-188"/>
<text text-anchor="middle" x="22.5" y="-233" font-family="Helvetica,sans-Serif" font-size="10.00">size_t</text>
<polyline fill="none" stroke="black" points="0,-226 45,-226 "/>
<text text-anchor="middle" x="22.5" y="-214" font-family="Helvetica,sans-Serif" font-size="10.00"> </text>
<polyline fill="none" stroke="black" points="0,-207 45,-207 "/>
<text text-anchor="middle" x="22.5" y="-195" font-family="Helvetica,sans-Serif" font-size="10.00"> </text>
</a>
</g>
</g>
<!-- Node2&#45;&gt;Node1 -->
<g id="edge1" class="edge">
<title>Node2&#45;&gt;Node1</title>
<path fill="none" stroke="#404040" d="M18.13,-187.85C14.88,-156.86 14.85,-106.92 41.5,-76 58.89,-55.83 84.57,-44.25 110.19,-37.68"/>
<polygon fill="none" stroke="#404040" points="110.23,-37.67 115.19,-32.43 121.93,-35 116.97,-40.23 110.23,-37.67"/>
<text text-anchor="middle" x="118.5" y="-134" font-family="Helvetica,sans-Serif" font-size="10.00"> +SAMPLES_PER_SYMBOL</text>
<text text-anchor="middle" x="118.5" y="-123" font-family="Helvetica,sans-Serif" font-size="10.00">+SYMBOL_BIT_WIDTH</text>
<text text-anchor="middle" x="118.5" y="-112" font-family="Helvetica,sans-Serif" font-size="10.00">&#45;NUM_PEAKS_OF_INTEREST</text>
<text text-anchor="middle" x="118.5" y="-101" font-family="Helvetica,sans-Serif" font-size="10.00">&#45;NUM_PEAK_FREQS_TO_CHECK</text>
</g>
<!-- Node3 -->
<g id="node3" class="node">
<title>Node3</title>
<g id="a_node3"><a xlink:title=" ">
<polygon fill="none" stroke="black" points="174.5,-188 174.5,-245 224.5,-245 224.5,-188 174.5,-188"/>
<text text-anchor="middle" x="199.5" y="-233" font-family="Helvetica,sans-Serif" font-size="10.00">double</text>
<polyline fill="none" stroke="black" points="174.5,-226 224.5,-226 "/>
<text text-anchor="middle" x="199.5" y="-214" font-family="Helvetica,sans-Serif" font-size="10.00"> </text>
<polyline fill="none" stroke="black" points="174.5,-207 224.5,-207 "/>
<text text-anchor="middle" x="199.5" y="-195" font-family="Helvetica,sans-Serif" font-size="10.00"> </text>
</a>
</g>
</g>
<!-- Node3&#45;&gt;Node1 -->
<g id="edge2" class="edge">
<title>Node3&#45;&gt;Node1</title>
<path fill="none" stroke="#404040" d="M199.5,-187.73C199.5,-156.49 199.5,-105.5 199.5,-69.98"/>
<polygon fill="none" stroke="#404040" points="199.5,-69.66 195.5,-63.66 199.5,-57.66 203.5,-63.66 199.5,-69.66"/>
<text text-anchor="middle" x="255.5" y="-145" font-family="Helvetica,sans-Serif" font-size="10.00"> &#45;MAX_FREQ_CUT_OFF</text>
<text text-anchor="start" x="199.5" y="-134" font-family="Helvetica,sans-Serif" font-size="10.00">&#45;MIN_AMPLITUDE_CUT</text>
<text text-anchor="middle" x="255.5" y="-123" font-family="Helvetica,sans-Serif" font-size="10.00">_OFF_PARAMETER</text>
<text text-anchor="middle" x="255.5" y="-112" font-family="Helvetica,sans-Serif" font-size="10.00">&#45;MIN_FREQ_CUT_OFF</text>
<text text-anchor="start" x="199.5" y="-101" font-family="Helvetica,sans-Serif" font-size="10.00">&#45;PEAK_OF_INTEREST</text>
<text text-anchor="middle" x="255.5" y="-90" font-family="Helvetica,sans-Serif" font-size="10.00">_ENVELOPE_HZ</text>
</g>
<!-- Node4 -->
<g id="node4" class="node">
<title>Node4</title>
<g id="a_node4"><a xlink:title=" ">
<polygon fill="none" stroke="black" points="266.5,-182.5 266.5,-250.5 402.5,-250.5 402.5,-182.5 266.5,-182.5"/>
<text text-anchor="start" x="274.5" y="-238.5" font-family="Helvetica,sans-Serif" font-size="10.00">array&lt; double, NUM</text>
<text text-anchor="middle" x="334.5" y="-227.5" font-family="Helvetica,sans-Serif" font-size="10.00">_PEAKS_OF_INTEREST &gt;</text>
<polyline fill="none" stroke="black" points="266.5,-220.5 402.5,-220.5 "/>
<text text-anchor="middle" x="334.5" y="-208.5" font-family="Helvetica,sans-Serif" font-size="10.00"> </text>
<polyline fill="none" stroke="black" points="266.5,-201.5 402.5,-201.5 "/>
<text text-anchor="middle" x="334.5" y="-189.5" font-family="Helvetica,sans-Serif" font-size="10.00"> </text>
</a>
</g>
</g>
<!-- Node4&#45;&gt;Node1 -->
<g id="edge3" class="edge">
<title>Node4&#45;&gt;Node1</title>
<path fill="none" stroke="#404040" d="M337.92,-182.29C339.25,-151.51 336.34,-106.07 312.5,-76 305.81,-67.56 297.31,-60.66 288,-55.01"/>
<polygon fill="none" stroke="#404040" points="287.74,-54.87 280.56,-55.54 277.19,-49.16 284.37,-48.5 287.74,-54.87"/>
<text text-anchor="start" x="337.5" y="-156" font-family="Helvetica,sans-Serif" font-size="10.00"> &#45;SYM_A_00_PEAKS_OF</text>
<text text-anchor="middle" x="394" y="-145" font-family="Helvetica,sans-Serif" font-size="10.00">_INTEREST</text>
<text text-anchor="start" x="337.5" y="-134" font-family="Helvetica,sans-Serif" font-size="10.00">&#45;SYM_D_01_PEAKS_OF</text>
<text text-anchor="middle" x="394" y="-123" font-family="Helvetica,sans-Serif" font-size="10.00">_INTEREST</text>
<text text-anchor="start" x="337.5" y="-112" font-family="Helvetica,sans-Serif" font-size="10.00">&#45;SYM_E_10_PEAKS_OF</text>
<text text-anchor="middle" x="394" y="-101" font-family="Helvetica,sans-Serif" font-size="10.00">_INTEREST</text>
<text text-anchor="start" x="337.5" y="-90" font-family="Helvetica,sans-Serif" font-size="10.00">&#45;SYM_G_11_PEAKS_OF</text>
<text text-anchor="middle" x="394" y="-79" font-family="Helvetica,sans-Serif" font-size="10.00">_INTEREST</text>
</g>
</g>
</svg>
