<?xml version="1.0" encoding="UTF-8" standalone="no"?>
<!DOCTYPE svg PUBLIC "-//W3C//DTD SVG 1.1//EN"
 "http://www.w3.org/Graphics/SVG/1.1/DTD/svg11.dtd">
<!-- Generated by graphviz version 2.43.0 (0)
 -->
<!-- Title: kazoo::Deframer::processInput Pages: 1 -->
<svg width="1843pt" height="457pt"
 viewBox="0.00 0.00 1843.00 457.00" xmlns="http://www.w3.org/2000/svg" xmlns:xlink="http://www.w3.org/1999/xlink">
<g id="graph0" class="graph" transform="scale(1 1) rotate(0) translate(4 453)">
<title>kazoo::Deframer::processInput</title>
<!-- Node1 -->
<g id="node1" class="node">
<title>Node1</title>
<g id="a_node1"><a xlink:title="Process the input binary stream in a stateful manner to extract frames from sequential stream inputs.">
<polygon fill="#bfbfbf" stroke="black" points="0,-323.5 0,-353.5 141,-353.5 141,-323.5 0,-323.5"/>
<text text-anchor="start" x="8" y="-341.5" font-family="Helvetica,sans-Serif" font-size="10.00">kazoo::Deframer::process</text>
<text text-anchor="middle" x="70.5" y="-330.5" font-family="Helvetica,sans-Serif" font-size="10.00">Input</text>
</a>
</g>
</g>
<!-- Node2 -->
<g id="node2" class="node">
<title>Node2</title>
<g id="a_node2"><a xlink:href="classkazoo_1_1Deframer.html#ad544e3c1a1301cc5ab77389eab411b03" target="_top" xlink:title=" ">
<polygon fill="none" stroke="black" points="574,-272 574,-291 750,-291 750,-272 574,-272"/>
<text text-anchor="middle" x="662" y="-279" font-family="Helvetica,sans-Serif" font-size="10.00">kazoo::Deframer::findFrameData</text>
</a>
</g>
</g>
<!-- Node1&#45;&gt;Node2 -->
<g id="edge1" class="edge">
<title>Node1&#45;&gt;Node2</title>
<path fill="none" stroke="midnightblue" d="M141.26,-336.27C193.11,-334.3 265.55,-330.89 329,-325.5 422.22,-317.58 445.31,-313.2 538,-300.5 555.45,-298.11 574.25,-295.32 591.78,-292.62"/>
<polygon fill="midnightblue" stroke="midnightblue" points="592.59,-296.03 601.94,-291.04 591.52,-289.12 592.59,-296.03"/>
</g>
<!-- Node4 -->
<g id="node4" class="node">
<title>Node4</title>
<g id="a_node4"><a xlink:href="classkazoo_1_1Deframer.html#ae4c8d8b5f7e2bc50183fc1b758fc21a8" target="_top" xlink:title=" ">
<polygon fill="none" stroke="black" points="786,-272 786,-291 956,-291 956,-272 786,-272"/>
<text text-anchor="middle" x="871" y="-279" font-family="Helvetica,sans-Serif" font-size="10.00">kazoo::Deframer::findFrameEnd</text>
</a>
</g>
</g>
<!-- Node1&#45;&gt;Node4 -->
<g id="edge18" class="edge">
<title>Node1&#45;&gt;Node4</title>
<path fill="none" stroke="midnightblue" d="M141.28,-343.03C153.19,-343.64 165.45,-344.17 177,-344.5 432.31,-351.75 496.98,-335.43 750,-300.5 767.12,-298.14 785.57,-295.34 802.75,-292.63"/>
<polygon fill="midnightblue" stroke="midnightblue" points="803.37,-296.08 812.69,-291.05 802.27,-289.16 803.37,-296.08"/>
</g>
<!-- Node15 -->
<g id="node15" class="node">
<title>Node15</title>
<g id="a_node15"><a xlink:href="classkazoo_1_1Deframer.html#a79d8b406e773fdc32d7c5002b9e37e2b" target="_top" xlink:title=" ">
<polygon fill="none" stroke="black" points="365,-272 365,-291 538,-291 538,-272 365,-272"/>
<text text-anchor="middle" x="451.5" y="-279" font-family="Helvetica,sans-Serif" font-size="10.00">kazoo::Deframer::findFrameSize</text>
</a>
</g>
</g>
<!-- Node1&#45;&gt;Node15 -->
<g id="edge19" class="edge">
<title>Node1&#45;&gt;Node15</title>
<path fill="none" stroke="midnightblue" d="M141.01,-328.05C207.89,-317.99 308.63,-302.84 376.86,-292.58"/>
<polygon fill="midnightblue" stroke="midnightblue" points="377.73,-295.98 387.1,-291.04 376.69,-289.06 377.73,-295.98"/>
</g>
<!-- Node16 -->
<g id="node16" class="node">
<title>Node16</title>
<g id="a_node16"><a xlink:href="classkazoo_1_1Deframer.html#a7dc1caffad1ffe4925a3e13d8d125024" target="_top" xlink:title=" ">
<polygon fill="none" stroke="black" points="177,-260.5 177,-290.5 329,-290.5 329,-260.5 177,-260.5"/>
<text text-anchor="start" x="185" y="-278.5" font-family="Helvetica,sans-Serif" font-size="10.00">kazoo::Deframer::findFrame</text>
<text text-anchor="middle" x="253" y="-267.5" font-family="Helvetica,sans-Serif" font-size="10.00">Start</text>
</a>
</g>
</g>
<!-- Node1&#45;&gt;Node16 -->
<g id="edge25" class="edge">
<title>Node1&#45;&gt;Node16</title>
<path fill="none" stroke="midnightblue" d="M114.73,-323.41C140.09,-314.56 172.32,-303.31 199.18,-293.94"/>
<polygon fill="midnightblue" stroke="midnightblue" points="200.52,-297.18 208.81,-290.58 198.21,-290.57 200.52,-297.18"/>
</g>
<!-- Node3 -->
<g id="node3" class="node">
<title>Node3</title>
<g id="a_node3"><a xlink:href="classkazoo_1_1Deframer.html#ad48e61e42665c2d7f03685452b23c571" target="_top" xlink:title=" ">
<polygon fill="none" stroke="black" points="1000,-137 1000,-156 1164,-156 1164,-137 1000,-137"/>
<text text-anchor="middle" x="1082" y="-144" font-family="Helvetica,sans-Serif" font-size="10.00">kazoo::Deframer::changeState</text>
</a>
</g>
</g>
<!-- Node2&#45;&gt;Node3 -->
<g id="edge2" class="edge">
<title>Node2&#45;&gt;Node3</title>
<path fill="none" stroke="midnightblue" d="M683.12,-271.82C707.21,-260.48 748.94,-241.57 786,-228.5 870.12,-198.84 970.7,-172.83 1030.03,-158.43"/>
<polygon fill="midnightblue" stroke="midnightblue" points="1031,-161.8 1039.9,-156.05 1029.36,-154.99 1031,-161.8"/>
</g>
<!-- Node2&#45;&gt;Node4 -->
<g id="edge3" class="edge">
<title>Node2&#45;&gt;Node4</title>
<path fill="none" stroke="midnightblue" d="M750.19,-281.5C758.59,-281.5 767.14,-281.5 775.61,-281.5"/>
<polygon fill="midnightblue" stroke="midnightblue" points="775.89,-285 785.89,-281.5 775.89,-278 775.89,-285"/>
</g>
<!-- Node5 -->
<g id="node5" class="node">
<title>Node5</title>
<g id="a_node5"><a xlink:href="classkazoo_1_1BinaryStream.html#af26ef358b4ddbd2f0a7f9d94d1b64357" target="_top" xlink:title="Get the number of bytes in the stream. If the stream has spare bits that do not align to a byte,...">
<polygon fill="none" stroke="black" points="1023,-418.5 1023,-448.5 1141,-448.5 1141,-418.5 1023,-418.5"/>
<text text-anchor="start" x="1031" y="-436.5" font-family="Helvetica,sans-Serif" font-size="10.00">kazoo::BinaryStream</text>
<text text-anchor="middle" x="1082" y="-425.5" font-family="Helvetica,sans-Serif" font-size="10.00">::getNumBytes</text>
</a>
</g>
</g>
<!-- Node2&#45;&gt;Node5 -->
<g id="edge15" class="edge">
<title>Node2&#45;&gt;Node5</title>
<path fill="none" stroke="midnightblue" d="M688.91,-291C713.79,-300.12 752.46,-314.28 786,-326.5 871.58,-357.68 971.21,-393.77 1030.03,-415.06"/>
<polygon fill="midnightblue" stroke="midnightblue" points="1028.87,-418.36 1039.46,-418.47 1031.25,-411.78 1028.87,-418.36"/>
</g>
<!-- Node6 -->
<g id="node6" class="node">
<title>Node6</title>
<g id="a_node6"><a xlink:href="classkazoo_1_1BinaryStream.html#ae77e9324dbd09dd4a02d3504a83ae866" target="_top" xlink:title=" ">
<polygon fill="none" stroke="black" points="1023,-193.5 1023,-223.5 1141,-223.5 1141,-193.5 1023,-193.5"/>
<text text-anchor="start" x="1031" y="-211.5" font-family="Helvetica,sans-Serif" font-size="10.00">kazoo::BinaryStream</text>
<text text-anchor="middle" x="1082" y="-200.5" font-family="Helvetica,sans-Serif" font-size="10.00">::popByte</text>
</a>
</g>
</g>
<!-- Node2&#45;&gt;Node6 -->
<g id="edge16" class="edge">
<title>Node2&#45;&gt;Node6</title>
<path fill="none" stroke="midnightblue" d="M717.65,-271.96C793.49,-258.71 930.59,-234.77 1012.97,-220.38"/>
<polygon fill="midnightblue" stroke="midnightblue" points="1013.73,-223.8 1022.98,-218.63 1012.53,-216.9 1013.73,-223.8"/>
</g>
<!-- Node13 -->
<g id="node13" class="node">
<title>Node13</title>
<g id="a_node13"><a xlink:href="classkazoo_1_1Deframer.html#a919b00cfd64865233361bf4779674b6a" target="_top" xlink:title=" ">
<polygon fill="none" stroke="black" points="992,-329 992,-348 1172,-348 1172,-329 992,-329"/>
<text text-anchor="middle" x="1082" y="-336" font-family="Helvetica,sans-Serif" font-size="10.00">kazoo::Deframer::printFrameData</text>
</a>
</g>
</g>
<!-- Node2&#45;&gt;Node13 -->
<g id="edge17" class="edge">
<title>Node2&#45;&gt;Node13</title>
<path fill="none" stroke="midnightblue" d="M722.7,-291.03C742.8,-294.16 765.35,-297.58 786,-300.5 855.48,-310.34 934.32,-320.44 993,-327.75"/>
<polygon fill="midnightblue" stroke="midnightblue" points="992.62,-331.23 1002.98,-328.99 993.49,-324.29 992.62,-331.23"/>
</g>
<!-- Node4&#45;&gt;Node3 -->
<g id="edge4" class="edge">
<title>Node4&#45;&gt;Node3</title>
<path fill="none" stroke="midnightblue" d="M886.47,-271.81C903.61,-260.1 932.78,-239.48 956,-219.5 973.15,-204.74 973.19,-196.08 992,-183.5 1006.74,-173.64 1024.53,-165.6 1040.32,-159.56"/>
<polygon fill="midnightblue" stroke="midnightblue" points="1041.67,-162.8 1049.85,-156.07 1039.26,-156.23 1041.67,-162.8"/>
</g>
<!-- Node4&#45;&gt;Node5 -->
<g id="edge5" class="edge">
<title>Node4&#45;&gt;Node5</title>
<path fill="none" stroke="midnightblue" d="M885.07,-291.01C918.15,-315.07 1005.8,-378.81 1051.83,-412.29"/>
<polygon fill="midnightblue" stroke="midnightblue" points="1050.04,-415.31 1060.19,-418.36 1054.16,-409.65 1050.04,-415.31"/>
</g>
<!-- Node4&#45;&gt;Node6 -->
<g id="edge6" class="edge">
<title>Node4&#45;&gt;Node6</title>
<path fill="none" stroke="midnightblue" d="M908.2,-271.97C923.11,-267.84 940.48,-262.75 956,-257.5 982.78,-248.45 1012.25,-236.97 1035.84,-227.4"/>
<polygon fill="midnightblue" stroke="midnightblue" points="1037.3,-230.59 1045.23,-223.57 1034.65,-224.11 1037.3,-230.59"/>
</g>
<!-- Node4&#45;&gt;Node13 -->
<g id="edge13" class="edge">
<title>Node4&#45;&gt;Node13</title>
<path fill="none" stroke="midnightblue" d="M906.98,-291.04C942.4,-300.7 997.31,-315.68 1035.96,-326.22"/>
<polygon fill="midnightblue" stroke="midnightblue" points="1035.34,-329.67 1045.9,-328.93 1037.18,-322.92 1035.34,-329.67"/>
</g>
<!-- Node7 -->
<g id="node7" class="node">
<title>Node7</title>
<g id="a_node7"><a xlink:href="classkazoo_1_1BinaryStream.html#a745b2acb522d69e283dd5df14500016b" target="_top" xlink:title="Pop bits off the front, effectively the inverse of addBits.">
<polygon fill="none" stroke="black" points="1211.5,-47.5 1211.5,-77.5 1329.5,-77.5 1329.5,-47.5 1211.5,-47.5"/>
<text text-anchor="start" x="1219.5" y="-65.5" font-family="Helvetica,sans-Serif" font-size="10.00">kazoo::BinaryStream</text>
<text text-anchor="middle" x="1270.5" y="-54.5" font-family="Helvetica,sans-Serif" font-size="10.00">::popBits</text>
</a>
</g>
</g>
<!-- Node6&#45;&gt;Node7 -->
<g id="edge7" class="edge">
<title>Node6&#45;&gt;Node7</title>
<path fill="none" stroke="midnightblue" d="M1121.96,-193.37C1138.19,-186.15 1156.76,-176.64 1172,-165.5 1203.55,-142.43 1233.45,-108.37 1251.63,-85.82"/>
<polygon fill="midnightblue" stroke="midnightblue" points="1254.53,-87.8 1258,-77.79 1249.04,-83.45 1254.53,-87.8"/>
</g>
<!-- Node8 -->
<g id="node8" class="node">
<title>Node8</title>
<g id="a_node8"><a xlink:href="classkazoo_1_1BinaryStream.html#a3a614f83199d9abd627964db2fef5f7b" target="_top" xlink:title="Get the number of bits in the stream.">
<polygon fill="none" stroke="black" points="1369,-49.5 1369,-79.5 1487,-79.5 1487,-49.5 1369,-49.5"/>
<text text-anchor="start" x="1377" y="-67.5" font-family="Helvetica,sans-Serif" font-size="10.00">kazoo::BinaryStream</text>
<text text-anchor="middle" x="1428" y="-56.5" font-family="Helvetica,sans-Serif" font-size="10.00">::getNumBits</text>
</a>
</g>
</g>
<!-- Node7&#45;&gt;Node8 -->
<g id="edge8" class="edge">
<title>Node7&#45;&gt;Node8</title>
<path fill="none" stroke="midnightblue" d="M1329.84,-63.25C1339.21,-63.37 1348.98,-63.5 1358.56,-63.62"/>
<polygon fill="midnightblue" stroke="midnightblue" points="1358.8,-67.12 1368.85,-63.75 1358.89,-60.12 1358.8,-67.12"/>
</g>
<!-- Node12 -->
<g id="node12" class="node">
<title>Node12</title>
<g id="a_node12"><a xlink:href="classkazoo_1_1BinaryStream.html#a82de69510e248576ea64a328979a9f48" target="_top" xlink:title=" ">
<polygon fill="none" stroke="black" points="1369,-0.5 1369,-30.5 1487,-30.5 1487,-0.5 1369,-0.5"/>
<text text-anchor="start" x="1377" y="-18.5" font-family="Helvetica,sans-Serif" font-size="10.00">kazoo::BinaryStream</text>
<text text-anchor="middle" x="1428" y="-7.5" font-family="Helvetica,sans-Serif" font-size="10.00">::popBit</text>
</a>
</g>
</g>
<!-- Node7&#45;&gt;Node12 -->
<g id="edge12" class="edge">
<title>Node7&#45;&gt;Node12</title>
<path fill="none" stroke="midnightblue" d="M1321.13,-47.5C1335.86,-43.05 1352.14,-38.13 1367.43,-33.5"/>
<polygon fill="midnightblue" stroke="midnightblue" points="1368.75,-36.76 1377.31,-30.52 1366.72,-30.06 1368.75,-36.76"/>
</g>
<!-- Node9 -->
<g id="node9" class="node">
<title>Node9</title>
<g id="a_node9"><a xlink:href="classkazoo_1_1BinaryStream.html#aada16bde376a41419737c7177612a521" target="_top" xlink:title="If adding bits, this will return the number of bits that can be added to the stream before the stream...">
<polygon fill="none" stroke="black" points="1534.5,-73.5 1534.5,-103.5 1669.5,-103.5 1669.5,-73.5 1534.5,-73.5"/>
<text text-anchor="start" x="1542.5" y="-91.5" font-family="Helvetica,sans-Serif" font-size="10.00">kazoo::BinaryStream</text>
<text text-anchor="middle" x="1602" y="-80.5" font-family="Helvetica,sans-Serif" font-size="10.00">::getInputBitBufferSpace</text>
</a>
</g>
</g>
<!-- Node8&#45;&gt;Node9 -->
<g id="edge9" class="edge">
<title>Node8&#45;&gt;Node9</title>
<path fill="none" stroke="midnightblue" d="M1487.23,-72.63C1499.15,-74.29 1511.87,-76.06 1524.32,-77.8"/>
<polygon fill="midnightblue" stroke="midnightblue" points="1523.84,-81.27 1534.23,-79.18 1524.81,-74.33 1523.84,-81.27"/>
</g>
<!-- Node10 -->
<g id="node10" class="node">
<title>Node10</title>
<g id="a_node10"><a xlink:href="classkazoo_1_1BinaryStream.html#a12a1666a4c0b0ddfdc512a50f09f5975" target="_top" xlink:title=" ">
<polygon fill="none" stroke="black" points="1523,-24.5 1523,-54.5 1681,-54.5 1681,-24.5 1523,-24.5"/>
<text text-anchor="start" x="1531" y="-42.5" font-family="Helvetica,sans-Serif" font-size="10.00">kazoo::BinaryStream</text>
<text text-anchor="middle" x="1602" y="-31.5" font-family="Helvetica,sans-Serif" font-size="10.00">::getOutputBitBufferUsedBits</text>
</a>
</g>
</g>
<!-- Node8&#45;&gt;Node10 -->
<g id="edge10" class="edge">
<title>Node8&#45;&gt;Node10</title>
<path fill="none" stroke="midnightblue" d="M1487.23,-56.04C1495.43,-54.84 1504,-53.6 1512.6,-52.35"/>
<polygon fill="midnightblue" stroke="midnightblue" points="1513.31,-55.78 1522.7,-50.88 1512.3,-48.86 1513.31,-55.78"/>
</g>
<!-- Node11 -->
<g id="node11" class="node">
<title>Node11</title>
<g id="a_node11"><a xlink:href="classkazoo_1_1BinaryStream.html#a32b6f202b2627b75ace2e6c9c07726aa" target="_top" xlink:title="Get the byte alignment status of the stream.">
<polygon fill="none" stroke="black" points="1717,-24.5 1717,-54.5 1835,-54.5 1835,-24.5 1717,-24.5"/>
<text text-anchor="start" x="1725" y="-42.5" font-family="Helvetica,sans-Serif" font-size="10.00">kazoo::BinaryStream</text>
<text text-anchor="middle" x="1776" y="-31.5" font-family="Helvetica,sans-Serif" font-size="10.00">::isByteAligned</text>
</a>
</g>
</g>
<!-- Node10&#45;&gt;Node11 -->
<g id="edge11" class="edge">
<title>Node10&#45;&gt;Node11</title>
<path fill="none" stroke="midnightblue" d="M1681.2,-39.5C1689.72,-39.5 1698.34,-39.5 1706.72,-39.5"/>
<polygon fill="midnightblue" stroke="midnightblue" points="1706.81,-43 1716.81,-39.5 1706.81,-36 1706.81,-43"/>
</g>
<!-- Node14 -->
<g id="node14" class="node">
<title>Node14</title>
<g id="a_node14"><a xlink:href="classkazoo_1_1BinaryStream.html#a9cf1c3eb54ace654061894c7278b6d32" target="_top" xlink:title="Get a const reference to the underlying stream data.">
<polygon fill="none" stroke="black" points="1208,-323.5 1208,-353.5 1333,-353.5 1333,-323.5 1208,-323.5"/>
<text text-anchor="start" x="1216" y="-341.5" font-family="Helvetica,sans-Serif" font-size="10.00">kazoo::BinaryStream</text>
<text text-anchor="middle" x="1270.5" y="-330.5" font-family="Helvetica,sans-Serif" font-size="10.00">::getStreamDataConst</text>
</a>
</g>
</g>
<!-- Node13&#45;&gt;Node14 -->
<g id="edge14" class="edge">
<title>Node13&#45;&gt;Node14</title>
<path fill="none" stroke="midnightblue" d="M1172.15,-338.5C1180.74,-338.5 1189.38,-338.5 1197.77,-338.5"/>
<polygon fill="midnightblue" stroke="midnightblue" points="1197.86,-342 1207.86,-338.5 1197.86,-335 1197.86,-342"/>
</g>
<!-- Node15&#45;&gt;Node2 -->
<g id="edge21" class="edge">
<title>Node15&#45;&gt;Node2</title>
<path fill="none" stroke="midnightblue" d="M538.21,-281.5C546.68,-281.5 555.33,-281.5 563.91,-281.5"/>
<polygon fill="midnightblue" stroke="midnightblue" points="563.94,-285 573.94,-281.5 563.94,-278 563.94,-285"/>
</g>
<!-- Node15&#45;&gt;Node3 -->
<g id="edge20" class="edge">
<title>Node15&#45;&gt;Node3</title>
<path fill="none" stroke="midnightblue" d="M470.92,-271.94C494.29,-260.21 536.11,-240.53 574,-229.5 716.13,-188.12 887.08,-165.51 989.73,-154.72"/>
<polygon fill="midnightblue" stroke="midnightblue" points="990.17,-158.19 999.75,-153.68 989.45,-151.23 990.17,-158.19"/>
</g>
<!-- Node15&#45;&gt;Node5 -->
<g id="edge22" class="edge">
<title>Node15&#45;&gt;Node5</title>
<path fill="none" stroke="midnightblue" d="M475.46,-291.15C499.64,-301.03 539,-316.36 574,-326.5 728.6,-371.28 914.75,-405.73 1012.83,-422.42"/>
<polygon fill="midnightblue" stroke="midnightblue" points="1012.47,-425.91 1022.91,-424.12 1013.63,-419 1012.47,-425.91"/>
</g>
<!-- Node15&#45;&gt;Node6 -->
<g id="edge23" class="edge">
<title>Node15&#45;&gt;Node6</title>
<path fill="none" stroke="midnightblue" d="M503.16,-271.99C568.35,-260.1 685.22,-239.9 786,-228.5 863.51,-219.73 952.94,-214.33 1012.84,-211.38"/>
<polygon fill="midnightblue" stroke="midnightblue" points="1013.11,-214.87 1022.93,-210.89 1012.77,-207.88 1013.11,-214.87"/>
</g>
<!-- Node15&#45;&gt;Node13 -->
<g id="edge24" class="edge">
<title>Node15&#45;&gt;Node13</title>
<path fill="none" stroke="midnightblue" d="M510.84,-291.02C530.85,-294.18 553.38,-297.62 574,-300.5 668.02,-313.61 691.39,-318.79 786,-326.5 851.06,-331.8 924.4,-334.8 981.67,-336.47"/>
<polygon fill="midnightblue" stroke="midnightblue" points="981.72,-339.98 991.81,-336.76 981.91,-332.98 981.72,-339.98"/>
</g>
<!-- Node16&#45;&gt;Node3 -->
<g id="edge26" class="edge">
<title>Node16&#45;&gt;Node3</title>
<path fill="none" stroke="midnightblue" d="M301.81,-260.44C363.99,-241.29 476.21,-208.25 574,-187.5 667.21,-167.72 691.1,-164.08 786,-155.5 854,-149.35 931.13,-147.17 989.47,-146.48"/>
<polygon fill="midnightblue" stroke="midnightblue" points="989.81,-149.98 999.77,-146.38 989.73,-142.98 989.81,-149.98"/>
</g>
<!-- Node16&#45;&gt;Node5 -->
<g id="edge28" class="edge">
<title>Node16&#45;&gt;Node5</title>
<path fill="none" stroke="midnightblue" d="M280.57,-290.55C302.58,-302.42 334.99,-318.59 365,-328.5 594.4,-404.25 883.16,-425.44 1012.67,-431.3"/>
<polygon fill="midnightblue" stroke="midnightblue" points="1012.69,-434.81 1022.83,-431.74 1012.99,-427.81 1012.69,-434.81"/>
</g>
<!-- Node16&#45;&gt;Node7 -->
<g id="edge30" class="edge">
<title>Node16&#45;&gt;Node7</title>
<path fill="none" stroke="midnightblue" d="M268.66,-260.24C318.5,-210.08 487.95,-53.5 661,-53.5 661,-53.5 661,-53.5 872,-53.5 987.44,-53.5 1121.7,-57.34 1200.92,-60"/>
<polygon fill="midnightblue" stroke="midnightblue" points="1201.13,-63.51 1211.25,-60.36 1201.37,-56.52 1201.13,-63.51"/>
</g>
<!-- Node16&#45;&gt;Node12 -->
<g id="edge29" class="edge">
<title>Node16&#45;&gt;Node12</title>
<path fill="none" stroke="midnightblue" d="M257.78,-260.47C268.03,-223.03 300.03,-125.18 365,-77.5 473.36,2.03 526.59,-15.5 661,-15.5 661,-15.5 661,-15.5 1083,-15.5 1178.58,-15.5 1289.09,-15.5 1358.51,-15.5"/>
<polygon fill="midnightblue" stroke="midnightblue" points="1358.87,-19 1368.87,-15.5 1358.87,-12 1358.87,-19"/>
</g>
<!-- Node16&#45;&gt;Node13 -->
<g id="edge31" class="edge">
<title>Node16&#45;&gt;Node13</title>
<path fill="none" stroke="midnightblue" d="M315.72,-290.53C331.71,-294.11 348.95,-297.7 365,-300.5 624.51,-345.75 692.68,-352.87 956,-345.5 964.35,-345.27 973.02,-344.94 981.71,-344.57"/>
<polygon fill="midnightblue" stroke="midnightblue" points="982.09,-348.05 991.92,-344.1 981.77,-341.06 982.09,-348.05"/>
</g>
<!-- Node16&#45;&gt;Node15 -->
<g id="edge27" class="edge">
<title>Node16&#45;&gt;Node15</title>
<path fill="none" stroke="midnightblue" d="M329.13,-277.79C337.54,-278.05 346.19,-278.31 354.81,-278.58"/>
<polygon fill="midnightblue" stroke="midnightblue" points="354.81,-282.08 364.91,-278.89 355.02,-275.08 354.81,-282.08"/>
</g>
</g>
</svg>
