<?xml version="1.0" encoding="UTF-8" standalone="no"?>
<!DOCTYPE svg PUBLIC "-//W3C//DTD SVG 1.1//EN"
 "http://www.w3.org/Graphics/SVG/1.1/DTD/svg11.dtd">
<!-- Generated by graphviz version 2.43.0 (0)
 -->
<!-- Title: kazoo::Deframer::findFrameSize Pages: 1 -->
<svg width="1478pt" height="200pt"
 viewBox="0.00 0.00 1478.00 200.00" xmlns="http://www.w3.org/2000/svg" xmlns:xlink="http://www.w3.org/1999/xlink">
<g id="graph0" class="graph" transform="scale(1 1) rotate(0) translate(4 196)">
<title>kazoo::Deframer::findFrameSize</title>
<!-- Node1 -->
<g id="node1" class="node">
<title>Node1</title>
<g id="a_node1"><a xlink:title=" ">
<polygon fill="#bfbfbf" stroke="black" points="0,-88 0,-107 173,-107 173,-88 0,-88"/>
<text text-anchor="middle" x="86.5" y="-95" font-family="Helvetica,sans-Serif" font-size="10.00">kazoo::Deframer::findFrameSize</text>
</a>
</g>
</g>
<!-- Node2 -->
<g id="node2" class="node">
<title>Node2</title>
<g id="a_node2"><a xlink:href="classkazoo_1_1Deframer.html#ad48e61e42665c2d7f03685452b23c571" target="_top" xlink:title=" ">
<polygon fill="none" stroke="black" points="635,-123 635,-142 799,-142 799,-123 635,-123"/>
<text text-anchor="middle" x="717" y="-130" font-family="Helvetica,sans-Serif" font-size="10.00">kazoo::Deframer::changeState</text>
</a>
</g>
</g>
<!-- Node1&#45;&gt;Node2 -->
<g id="edge1" class="edge">
<title>Node1&#45;&gt;Node2</title>
<path fill="none" stroke="midnightblue" d="M143.34,-107.02C163.94,-110.32 187.49,-113.86 209,-116.5 302.89,-128.04 326.49,-131.27 421,-135.5 496.48,-138.88 515.45,-136.41 591,-135.5 602,-135.37 613.54,-135.17 624.97,-134.94"/>
<polygon fill="midnightblue" stroke="midnightblue" points="625.06,-138.44 634.98,-134.73 624.91,-131.44 625.06,-138.44"/>
</g>
<!-- Node3 -->
<g id="node3" class="node">
<title>Node3</title>
<g id="a_node3"><a xlink:href="classkazoo_1_1Deframer.html#ad544e3c1a1301cc5ab77389eab411b03" target="_top" xlink:title=" ">
<polygon fill="none" stroke="black" points="209,-88 209,-107 385,-107 385,-88 209,-88"/>
<text text-anchor="middle" x="297" y="-95" font-family="Helvetica,sans-Serif" font-size="10.00">kazoo::Deframer::findFrameData</text>
</a>
</g>
</g>
<!-- Node1&#45;&gt;Node3 -->
<g id="edge2" class="edge">
<title>Node1&#45;&gt;Node3</title>
<path fill="none" stroke="midnightblue" d="M173.21,-97.5C181.68,-97.5 190.33,-97.5 198.91,-97.5"/>
<polygon fill="midnightblue" stroke="midnightblue" points="198.94,-101 208.94,-97.5 198.94,-94 198.94,-101"/>
</g>
<!-- Node5 -->
<g id="node5" class="node">
<title>Node5</title>
<g id="a_node5"><a xlink:href="classkazoo_1_1BinaryStream.html#af26ef358b4ddbd2f0a7f9d94d1b64357" target="_top" xlink:title="Get the number of bytes in the stream. If the stream has spare bits that do not align to a byte,...">
<polygon fill="none" stroke="black" points="658,-161.5 658,-191.5 776,-191.5 776,-161.5 658,-161.5"/>
<text text-anchor="start" x="666" y="-179.5" font-family="Helvetica,sans-Serif" font-size="10.00">kazoo::BinaryStream</text>
<text text-anchor="middle" x="717" y="-168.5" font-family="Helvetica,sans-Serif" font-size="10.00">::getNumBytes</text>
</a>
</g>
</g>
<!-- Node1&#45;&gt;Node5 -->
<g id="edge19" class="edge">
<title>Node1&#45;&gt;Node5</title>
<path fill="none" stroke="midnightblue" d="M110.32,-107.12C134.39,-116.82 173.65,-131.33 209,-138.5 363.77,-169.9 549.85,-175.97 647.88,-176.78"/>
<polygon fill="midnightblue" stroke="midnightblue" points="647.93,-180.28 657.95,-176.85 647.98,-173.28 647.93,-180.28"/>
</g>
<!-- Node6 -->
<g id="node6" class="node">
<title>Node6</title>
<g id="a_node6"><a xlink:href="classkazoo_1_1BinaryStream.html#ae77e9324dbd09dd4a02d3504a83ae866" target="_top" xlink:title=" ">
<polygon fill="none" stroke="black" points="658,-47.5 658,-77.5 776,-77.5 776,-47.5 658,-47.5"/>
<text text-anchor="start" x="666" y="-65.5" font-family="Helvetica,sans-Serif" font-size="10.00">kazoo::BinaryStream</text>
<text text-anchor="middle" x="717" y="-54.5" font-family="Helvetica,sans-Serif" font-size="10.00">::popByte</text>
</a>
</g>
</g>
<!-- Node1&#45;&gt;Node6 -->
<g id="edge20" class="edge">
<title>Node1&#45;&gt;Node6</title>
<path fill="none" stroke="midnightblue" d="M142.41,-87.96C163.22,-84.6 187.16,-81.03 209,-78.5 302.86,-67.64 326.58,-66.06 421,-62.5 498.65,-59.57 587.88,-60.12 647.69,-61.04"/>
<polygon fill="midnightblue" stroke="midnightblue" points="647.71,-64.54 657.76,-61.21 647.82,-57.55 647.71,-64.54"/>
</g>
<!-- Node13 -->
<g id="node13" class="node">
<title>Node13</title>
<g id="a_node13"><a xlink:href="classkazoo_1_1Deframer.html#a919b00cfd64865233361bf4779674b6a" target="_top" xlink:title=" ">
<polygon fill="none" stroke="black" points="627,-8 627,-27 807,-27 807,-8 627,-8"/>
<text text-anchor="middle" x="717" y="-15" font-family="Helvetica,sans-Serif" font-size="10.00">kazoo::Deframer::printFrameData</text>
</a>
</g>
</g>
<!-- Node1&#45;&gt;Node13 -->
<g id="edge21" class="edge">
<title>Node1&#45;&gt;Node13</title>
<path fill="none" stroke="midnightblue" d="M112.68,-87.83C136.96,-78.94 174.94,-66.15 209,-59.5 348.89,-32.18 513.88,-22.61 616.74,-19.27"/>
<polygon fill="midnightblue" stroke="midnightblue" points="616.92,-22.77 626.8,-18.96 616.7,-15.77 616.92,-22.77"/>
</g>
<!-- Node3&#45;&gt;Node2 -->
<g id="edge3" class="edge">
<title>Node3&#45;&gt;Node2</title>
<path fill="none" stroke="midnightblue" d="M352.04,-107.03C373.45,-110.5 398.33,-114.14 421,-116.5 488.98,-123.58 566.11,-127.62 624.46,-129.87"/>
<polygon fill="midnightblue" stroke="midnightblue" points="624.63,-133.38 634.76,-130.26 624.89,-126.39 624.63,-133.38"/>
</g>
<!-- Node4 -->
<g id="node4" class="node">
<title>Node4</title>
<g id="a_node4"><a xlink:href="classkazoo_1_1Deframer.html#ae4c8d8b5f7e2bc50183fc1b758fc21a8" target="_top" xlink:title=" ">
<polygon fill="none" stroke="black" points="421,-88 421,-107 591,-107 591,-88 421,-88"/>
<text text-anchor="middle" x="506" y="-95" font-family="Helvetica,sans-Serif" font-size="10.00">kazoo::Deframer::findFrameEnd</text>
</a>
</g>
</g>
<!-- Node3&#45;&gt;Node4 -->
<g id="edge4" class="edge">
<title>Node3&#45;&gt;Node4</title>
<path fill="none" stroke="midnightblue" d="M385.19,-97.5C393.59,-97.5 402.14,-97.5 410.61,-97.5"/>
<polygon fill="midnightblue" stroke="midnightblue" points="410.89,-101 420.89,-97.5 410.89,-94 410.89,-101"/>
</g>
<!-- Node3&#45;&gt;Node5 -->
<g id="edge16" class="edge">
<title>Node3&#45;&gt;Node5</title>
<path fill="none" stroke="midnightblue" d="M324.54,-107.07C349.23,-115.63 387.18,-127.98 421,-135.5 497.82,-152.59 587.56,-163.85 647.72,-170.17"/>
<polygon fill="midnightblue" stroke="midnightblue" points="647.54,-173.67 657.85,-171.22 648.26,-166.71 647.54,-173.67"/>
</g>
<!-- Node3&#45;&gt;Node6 -->
<g id="edge17" class="edge">
<title>Node3&#45;&gt;Node6</title>
<path fill="none" stroke="midnightblue" d="M352.04,-87.97C373.45,-84.5 398.33,-80.86 421,-78.5 498.52,-70.43 587.95,-66.3 647.84,-64.28"/>
<polygon fill="midnightblue" stroke="midnightblue" points="648.05,-67.78 657.93,-63.95 647.82,-60.78 648.05,-67.78"/>
</g>
<!-- Node3&#45;&gt;Node13 -->
<g id="edge18" class="edge">
<title>Node3&#45;&gt;Node13</title>
<path fill="none" stroke="midnightblue" d="M327.56,-87.96C352.31,-80.24 388.68,-69.54 421,-62.5 488.95,-47.71 566.75,-36.06 625.39,-28.32"/>
<polygon fill="midnightblue" stroke="midnightblue" points="625.9,-31.78 635.37,-27.02 625,-24.84 625.9,-31.78"/>
</g>
<!-- Node4&#45;&gt;Node2 -->
<g id="edge5" class="edge">
<title>Node4&#45;&gt;Node2</title>
<path fill="none" stroke="midnightblue" d="M563.83,-107.02C590.21,-111.43 621.74,-116.72 649.24,-121.32"/>
<polygon fill="midnightblue" stroke="midnightblue" points="648.74,-124.78 659.18,-122.98 649.89,-117.88 648.74,-124.78"/>
</g>
<!-- Node4&#45;&gt;Node5 -->
<g id="edge6" class="edge">
<title>Node4&#45;&gt;Node5</title>
<path fill="none" stroke="midnightblue" d="M526.17,-107.2C549.56,-118.78 590.5,-138.24 627,-151.5 633.74,-153.95 640.84,-156.3 647.97,-158.52"/>
<polygon fill="midnightblue" stroke="midnightblue" points="647.09,-161.91 657.67,-161.46 649.12,-155.21 647.09,-161.91"/>
</g>
<!-- Node4&#45;&gt;Node6 -->
<g id="edge7" class="edge">
<title>Node4&#45;&gt;Node6</title>
<path fill="none" stroke="midnightblue" d="M563.83,-87.98C589.67,-83.66 620.44,-78.5 647.54,-73.97"/>
<polygon fill="midnightblue" stroke="midnightblue" points="648.44,-77.36 657.72,-72.26 647.28,-70.46 648.44,-77.36"/>
</g>
<!-- Node4&#45;&gt;Node13 -->
<g id="edge14" class="edge">
<title>Node4&#45;&gt;Node13</title>
<path fill="none" stroke="midnightblue" d="M523.14,-87.84C545.67,-74.72 588.16,-51.34 627,-37.5 635.55,-34.45 644.72,-31.77 653.82,-29.44"/>
<polygon fill="midnightblue" stroke="midnightblue" points="654.74,-32.82 663.63,-27.05 653.08,-26.02 654.74,-32.82"/>
</g>
<!-- Node7 -->
<g id="node7" class="node">
<title>Node7</title>
<g id="a_node7"><a xlink:href="classkazoo_1_1BinaryStream.html#a745b2acb522d69e283dd5df14500016b" target="_top" xlink:title="Pop bits off the front, effectively the inverse of addBits.">
<polygon fill="none" stroke="black" points="846.5,-49.5 846.5,-79.5 964.5,-79.5 964.5,-49.5 846.5,-49.5"/>
<text text-anchor="start" x="854.5" y="-67.5" font-family="Helvetica,sans-Serif" font-size="10.00">kazoo::BinaryStream</text>
<text text-anchor="middle" x="905.5" y="-56.5" font-family="Helvetica,sans-Serif" font-size="10.00">::popBits</text>
</a>
</g>
</g>
<!-- Node6&#45;&gt;Node7 -->
<g id="edge8" class="edge">
<title>Node6&#45;&gt;Node7</title>
<path fill="none" stroke="midnightblue" d="M776.24,-63.12C795.26,-63.33 816.56,-63.56 836.25,-63.77"/>
<polygon fill="midnightblue" stroke="midnightblue" points="836.34,-67.27 846.38,-63.88 836.42,-60.27 836.34,-67.27"/>
</g>
<!-- Node8 -->
<g id="node8" class="node">
<title>Node8</title>
<g id="a_node8"><a xlink:href="classkazoo_1_1BinaryStream.html#a3a614f83199d9abd627964db2fef5f7b" target="_top" xlink:title="Get the number of bits in the stream.">
<polygon fill="none" stroke="black" points="1004,-74.5 1004,-104.5 1122,-104.5 1122,-74.5 1004,-74.5"/>
<text text-anchor="start" x="1012" y="-92.5" font-family="Helvetica,sans-Serif" font-size="10.00">kazoo::BinaryStream</text>
<text text-anchor="middle" x="1063" y="-81.5" font-family="Helvetica,sans-Serif" font-size="10.00">::getNumBits</text>
</a>
</g>
</g>
<!-- Node7&#45;&gt;Node8 -->
<g id="edge9" class="edge">
<title>Node7&#45;&gt;Node8</title>
<path fill="none" stroke="midnightblue" d="M964.84,-73.88C974.31,-75.4 984.19,-76.99 993.86,-78.55"/>
<polygon fill="midnightblue" stroke="midnightblue" points="993.42,-82.02 1003.85,-80.15 994.53,-75.11 993.42,-82.02"/>
</g>
<!-- Node12 -->
<g id="node12" class="node">
<title>Node12</title>
<g id="a_node12"><a xlink:href="classkazoo_1_1BinaryStream.html#a82de69510e248576ea64a328979a9f48" target="_top" xlink:title=" ">
<polygon fill="none" stroke="black" points="1004,-25.5 1004,-55.5 1122,-55.5 1122,-25.5 1004,-25.5"/>
<text text-anchor="start" x="1012" y="-43.5" font-family="Helvetica,sans-Serif" font-size="10.00">kazoo::BinaryStream</text>
<text text-anchor="middle" x="1063" y="-32.5" font-family="Helvetica,sans-Serif" font-size="10.00">::popBit</text>
</a>
</g>
</g>
<!-- Node7&#45;&gt;Node12 -->
<g id="edge13" class="edge">
<title>Node7&#45;&gt;Node12</title>
<path fill="none" stroke="midnightblue" d="M964.84,-55.5C974.31,-54.03 984.19,-52.51 993.86,-51.02"/>
<polygon fill="midnightblue" stroke="midnightblue" points="994.5,-54.46 1003.85,-49.48 993.43,-47.54 994.5,-54.46"/>
</g>
<!-- Node9 -->
<g id="node9" class="node">
<title>Node9</title>
<g id="a_node9"><a xlink:href="classkazoo_1_1BinaryStream.html#aada16bde376a41419737c7177612a521" target="_top" xlink:title="If adding bits, this will return the number of bits that can be added to the stream before the stream...">
<polygon fill="none" stroke="black" points="1169.5,-98.5 1169.5,-128.5 1304.5,-128.5 1304.5,-98.5 1169.5,-98.5"/>
<text text-anchor="start" x="1177.5" y="-116.5" font-family="Helvetica,sans-Serif" font-size="10.00">kazoo::BinaryStream</text>
<text text-anchor="middle" x="1237" y="-105.5" font-family="Helvetica,sans-Serif" font-size="10.00">::getInputBitBufferSpace</text>
</a>
</g>
</g>
<!-- Node8&#45;&gt;Node9 -->
<g id="edge10" class="edge">
<title>Node8&#45;&gt;Node9</title>
<path fill="none" stroke="midnightblue" d="M1122.23,-97.63C1134.15,-99.29 1146.87,-101.06 1159.32,-102.8"/>
<polygon fill="midnightblue" stroke="midnightblue" points="1158.84,-106.27 1169.23,-104.18 1159.81,-99.33 1158.84,-106.27"/>
</g>
<!-- Node10 -->
<g id="node10" class="node">
<title>Node10</title>
<g id="a_node10"><a xlink:href="classkazoo_1_1BinaryStream.html#a12a1666a4c0b0ddfdc512a50f09f5975" target="_top" xlink:title=" ">
<polygon fill="none" stroke="black" points="1158,-49.5 1158,-79.5 1316,-79.5 1316,-49.5 1158,-49.5"/>
<text text-anchor="start" x="1166" y="-67.5" font-family="Helvetica,sans-Serif" font-size="10.00">kazoo::BinaryStream</text>
<text text-anchor="middle" x="1237" y="-56.5" font-family="Helvetica,sans-Serif" font-size="10.00">::getOutputBitBufferUsedBits</text>
</a>
</g>
</g>
<!-- Node8&#45;&gt;Node10 -->
<g id="edge11" class="edge">
<title>Node8&#45;&gt;Node10</title>
<path fill="none" stroke="midnightblue" d="M1122.23,-81.04C1130.43,-79.84 1139,-78.6 1147.6,-77.35"/>
<polygon fill="midnightblue" stroke="midnightblue" points="1148.31,-80.78 1157.7,-75.88 1147.3,-73.86 1148.31,-80.78"/>
</g>
<!-- Node11 -->
<g id="node11" class="node">
<title>Node11</title>
<g id="a_node11"><a xlink:href="classkazoo_1_1BinaryStream.html#a32b6f202b2627b75ace2e6c9c07726aa" target="_top" xlink:title="Get the byte alignment status of the stream.">
<polygon fill="none" stroke="black" points="1352,-49.5 1352,-79.5 1470,-79.5 1470,-49.5 1352,-49.5"/>
<text text-anchor="start" x="1360" y="-67.5" font-family="Helvetica,sans-Serif" font-size="10.00">kazoo::BinaryStream</text>
<text text-anchor="middle" x="1411" y="-56.5" font-family="Helvetica,sans-Serif" font-size="10.00">::isByteAligned</text>
</a>
</g>
</g>
<!-- Node10&#45;&gt;Node11 -->
<g id="edge12" class="edge">
<title>Node10&#45;&gt;Node11</title>
<path fill="none" stroke="midnightblue" d="M1316.2,-64.5C1324.72,-64.5 1333.34,-64.5 1341.72,-64.5"/>
<polygon fill="midnightblue" stroke="midnightblue" points="1341.81,-68 1351.81,-64.5 1341.81,-61 1341.81,-68"/>
</g>
<!-- Node14 -->
<g id="node14" class="node">
<title>Node14</title>
<g id="a_node14"><a xlink:href="classkazoo_1_1BinaryStream.html#a9cf1c3eb54ace654061894c7278b6d32" target="_top" xlink:title="Get a const reference to the underlying stream data.">
<polygon fill="none" stroke="black" points="843,-0.5 843,-30.5 968,-30.5 968,-0.5 843,-0.5"/>
<text text-anchor="start" x="851" y="-18.5" font-family="Helvetica,sans-Serif" font-size="10.00">kazoo::BinaryStream</text>
<text text-anchor="middle" x="905.5" y="-7.5" font-family="Helvetica,sans-Serif" font-size="10.00">::getStreamDataConst</text>
</a>
</g>
</g>
<!-- Node13&#45;&gt;Node14 -->
<g id="edge15" class="edge">
<title>Node13&#45;&gt;Node14</title>
<path fill="none" stroke="midnightblue" d="M807.15,-16.54C815.74,-16.45 824.38,-16.36 832.77,-16.27"/>
<polygon fill="midnightblue" stroke="midnightblue" points="832.9,-19.77 842.86,-16.16 832.82,-12.77 832.9,-19.77"/>
</g>
</g>
</svg>
