<?xml version="1.0" encoding="UTF-8" standalone="no"?>
<!DOCTYPE svg PUBLIC "-//W3C//DTD SVG 1.1//EN"
 "http://www.w3.org/Graphics/SVG/1.1/DTD/svg11.dtd">
<!-- Generated by graphviz version 2.43.0 (0)
 -->
<!-- Title: kazoo::model::Binary::Model Pages: 1 -->
<svg width="277pt" height="647pt"
 viewBox="0.00 0.00 277.00 647.00" xmlns="http://www.w3.org/2000/svg" xmlns:xlink="http://www.w3.org/1999/xlink">
<g id="graph0" class="graph" transform="scale(1 1) rotate(0) translate(4 643)">
<title>kazoo::model::Binary::Model</title>
<!-- Node1 -->
<g id="node1" class="node">
<title>Node1</title>
<g id="a_node1"><a xlink:title=" ">
<polygon fill="#bfbfbf" stroke="black" points="29,-0.5 29,-68.5 148,-68.5 148,-0.5 29,-0.5"/>
<text text-anchor="start" x="37" y="-56.5" font-family="Helvetica,sans-Serif" font-size="10.00">kazoo::model::Binary</text>
<text text-anchor="middle" x="88.5" y="-45.5" font-family="Helvetica,sans-Serif" font-size="10.00">::Model</text>
<polyline fill="none" stroke="black" points="29,-38.5 148,-38.5 "/>
<text text-anchor="middle" x="88.5" y="-26.5" font-family="Helvetica,sans-Serif" font-size="10.00"> </text>
<polyline fill="none" stroke="black" points="29,-19.5 148,-19.5 "/>
<text text-anchor="start" x="37" y="-7.5" font-family="Helvetica,sans-Serif" font-size="10.00">+ Model()</text>
</a>
</g>
</g>
<!-- Node2 -->
<g id="node2" class="node">
<title>Node2</title>
<g id="a_node2"><a xlink:href="classkazoo_1_1SymbolModel.html" target="_top" xlink:title=" ">
<polygon fill="none" stroke="black" points="4,-106.5 4,-262.5 173,-262.5 173,-106.5 4,-106.5"/>
<text text-anchor="start" x="12" y="-250.5" font-family="Helvetica,sans-Serif" font-size="10.00">kazoo::SymbolModel</text>
<text text-anchor="middle" x="88.5" y="-239.5" font-family="Helvetica,sans-Serif" font-size="10.00">&lt; Token &gt;</text>
<polyline fill="none" stroke="black" points="4,-232.5 173,-232.5 "/>
<text text-anchor="start" x="12" y="-220.5" font-family="Helvetica,sans-Serif" font-size="10.00">&#45; symbol_bit_width_</text>
<text text-anchor="start" x="12" y="-209.5" font-family="Helvetica,sans-Serif" font-size="10.00">&#45; token_values_</text>
<polyline fill="none" stroke="black" points="4,-202.5 173,-202.5 "/>
<text text-anchor="start" x="12" y="-190.5" font-family="Helvetica,sans-Serif" font-size="10.00">+ SymbolModel()</text>
<text text-anchor="start" x="12" y="-179.5" font-family="Helvetica,sans-Serif" font-size="10.00">+ decodeAudioToSymbols()</text>
<text text-anchor="start" x="12" y="-168.5" font-family="Helvetica,sans-Serif" font-size="10.00">+ encodeSymbol()</text>
<text text-anchor="start" x="12" y="-157.5" font-family="Helvetica,sans-Serif" font-size="10.00">+ getNumSamplesPerSymbol()</text>
<text text-anchor="start" x="12" y="-146.5" font-family="Helvetica,sans-Serif" font-size="10.00">+ getSymbolBitWidth()</text>
<text text-anchor="start" x="12" y="-135.5" font-family="Helvetica,sans-Serif" font-size="10.00">+ getSymbolId()</text>
<text text-anchor="start" x="12" y="-124.5" font-family="Helvetica,sans-Serif" font-size="10.00">+ getToken()</text>
<text text-anchor="start" x="12" y="-113.5" font-family="Helvetica,sans-Serif" font-size="10.00">+ getValue()</text>
</a>
</g>
</g>
<!-- Node2&#45;&gt;Node1 -->
<g id="edge1" class="edge">
<title>Node2&#45;&gt;Node1</title>
<path fill="none" stroke="midnightblue" d="M88.5,-96.2C88.5,-86.43 88.5,-76.98 88.5,-68.57"/>
<polygon fill="none" stroke="midnightblue" points="85,-96.47 88.5,-106.47 92,-96.47 85,-96.47"/>
</g>
<!-- Node3 -->
<g id="node3" class="node">
<title>Node3</title>
<g id="a_node3"><a xlink:href="classkazoo_1_1ISymbolModel.html" target="_top" xlink:title=" ">
<polygon fill="none" stroke="black" points="0,-504.5 0,-638.5 169,-638.5 169,-504.5 0,-504.5"/>
<text text-anchor="middle" x="84.5" y="-626.5" font-family="Helvetica,sans-Serif" font-size="10.00">kazoo::ISymbolModel</text>
<polyline fill="none" stroke="black" points="0,-619.5 169,-619.5 "/>
<text text-anchor="middle" x="84.5" y="-607.5" font-family="Helvetica,sans-Serif" font-size="10.00"> </text>
<polyline fill="none" stroke="black" points="0,-600.5 169,-600.5 "/>
<text text-anchor="start" x="8" y="-588.5" font-family="Helvetica,sans-Serif" font-size="10.00">+ ~ISymbolModel()</text>
<text text-anchor="start" x="8" y="-577.5" font-family="Helvetica,sans-Serif" font-size="10.00">+ decodeAudioToSymbols()</text>
<text text-anchor="start" x="8" y="-566.5" font-family="Helvetica,sans-Serif" font-size="10.00">+ encodeSymbol()</text>
<text text-anchor="start" x="8" y="-555.5" font-family="Helvetica,sans-Serif" font-size="10.00">+ getNumSamplesPerSymbol()</text>
<text text-anchor="start" x="8" y="-544.5" font-family="Helvetica,sans-Serif" font-size="10.00">+ getSymbolBitMask()</text>
<text text-anchor="start" x="8" y="-533.5" font-family="Helvetica,sans-Serif" font-size="10.00">+ getSymbolBitWidth()</text>
<text text-anchor="start" x="8" y="-522.5" font-family="Helvetica,sans-Serif" font-size="10.00">+ getSymbolId()</text>
<text text-anchor="start" x="8" y="-511.5" font-family="Helvetica,sans-Serif" font-size="10.00">+ getValue()</text>
</a>
</g>
</g>
<!-- Node3&#45;&gt;Node2 -->
<g id="edge2" class="edge">
<title>Node3&#45;&gt;Node2</title>
<path fill="none" stroke="midnightblue" d="M85.29,-494.24C85.99,-427.19 87,-330.07 87.7,-262.73"/>
<polygon fill="none" stroke="midnightblue" points="81.79,-494.28 85.19,-504.32 88.79,-494.35 81.79,-494.28"/>
</g>
<!-- Node4 -->
<g id="node4" class="node">
<title>Node4</title>
<g id="a_node4"><a xlink:href="classkazoo_1_1SymbolModel.html" target="_top" xlink:title=" ">
<polygon fill="none" stroke="black" points="100,-310.5 100,-466.5 269,-466.5 269,-310.5 100,-310.5"/>
<text text-anchor="start" x="108" y="-454.5" font-family="Helvetica,sans-Serif" font-size="10.00">kazoo::SymbolModel</text>
<text text-anchor="middle" x="184.5" y="-443.5" font-family="Helvetica,sans-Serif" font-size="10.00">&lt; Token_t &gt;</text>
<polyline fill="none" stroke="black" points="100,-436.5 269,-436.5 "/>
<text text-anchor="start" x="108" y="-424.5" font-family="Helvetica,sans-Serif" font-size="10.00">&#45; symbol_bit_width_</text>
<text text-anchor="start" x="108" y="-413.5" font-family="Helvetica,sans-Serif" font-size="10.00">&#45; token_values_</text>
<polyline fill="none" stroke="black" points="100,-406.5 269,-406.5 "/>
<text text-anchor="start" x="108" y="-394.5" font-family="Helvetica,sans-Serif" font-size="10.00">+ SymbolModel()</text>
<text text-anchor="start" x="108" y="-383.5" font-family="Helvetica,sans-Serif" font-size="10.00">+ decodeAudioToSymbols()</text>
<text text-anchor="start" x="108" y="-372.5" font-family="Helvetica,sans-Serif" font-size="10.00">+ encodeSymbol()</text>
<text text-anchor="start" x="108" y="-361.5" font-family="Helvetica,sans-Serif" font-size="10.00">+ getNumSamplesPerSymbol()</text>
<text text-anchor="start" x="108" y="-350.5" font-family="Helvetica,sans-Serif" font-size="10.00">+ getSymbolBitWidth()</text>
<text text-anchor="start" x="108" y="-339.5" font-family="Helvetica,sans-Serif" font-size="10.00">+ getSymbolId()</text>
<text text-anchor="start" x="108" y="-328.5" font-family="Helvetica,sans-Serif" font-size="10.00">+ getToken()</text>
<text text-anchor="start" x="108" y="-317.5" font-family="Helvetica,sans-Serif" font-size="10.00">+ getValue()</text>
</a>
</g>
</g>
<!-- Node3&#45;&gt;Node4 -->
<g id="edge4" class="edge">
<title>Node3&#45;&gt;Node4</title>
<path fill="none" stroke="midnightblue" d="M125.99,-495.41C131.21,-485.96 136.56,-476.28 141.8,-466.79"/>
<polygon fill="none" stroke="midnightblue" points="122.8,-493.94 121.03,-504.39 128.93,-497.33 122.8,-493.94"/>
</g>
<!-- Node4&#45;&gt;Node2 -->
<g id="edge3" class="edge">
<title>Node4&#45;&gt;Node2</title>
<path fill="none" stroke="orange" d="M143.42,-301.05C137.36,-288.3 131.15,-275.24 125.18,-262.69"/>
<polygon fill="orange" stroke="orange" points="140.34,-302.74 147.8,-310.27 146.66,-299.73 140.34,-302.74"/>
<text text-anchor="middle" x="163.5" y="-284" font-family="Helvetica,sans-Serif" font-size="10.00"> &lt; Token &gt;</text>
</g>
</g>
</svg>
