<?xml version="1.0" encoding="UTF-8" standalone="no"?>
<!DOCTYPE svg PUBLIC "-//W3C//DTD SVG 1.1//EN"
 "http://www.w3.org/Graphics/SVG/1.1/DTD/svg11.dtd">
<!-- Generated by graphviz version 2.43.0 (0)
 -->
<!-- Title: kazoo::SymbolStream::getNumBits Pages: 1 -->
<svg width="702pt" height="225pt"
 viewBox="0.00 0.00 702.00 225.00" xmlns="http://www.w3.org/2000/svg" xmlns:xlink="http://www.w3.org/1999/xlink">
<g id="graph0" class="graph" transform="scale(1 1) rotate(0) translate(4 221)">
<title>kazoo::SymbolStream::getNumBits</title>
<!-- Node1 -->
<g id="node1" class="node">
<title>Node1</title>
<g id="a_node1"><a xlink:title=" ">
<polygon fill="#bfbfbf" stroke="black" points="571,-36 571,-66 694,-66 694,-36 571,-36"/>
<text text-anchor="start" x="579" y="-54" font-family="Helvetica,sans-Serif" font-size="10.00">kazoo::SymbolStream</text>
<text text-anchor="middle" x="632.5" y="-43" font-family="Helvetica,sans-Serif" font-size="10.00">::getNumBits</text>
</a>
</g>
</g>
<!-- Node2 -->
<g id="node2" class="node">
<title>Node2</title>
<g id="a_node2"><a xlink:href="classkazoo_1_1SymbolStream.html#a5eb190a46e077143f1abcaf2211a0ad0" target="_top" xlink:title=" ">
<polygon fill="none" stroke="black" points="412,-67 412,-97 535,-97 535,-67 412,-67"/>
<text text-anchor="start" x="420" y="-85" font-family="Helvetica,sans-Serif" font-size="10.00">kazoo::SymbolStream</text>
<text text-anchor="middle" x="473.5" y="-74" font-family="Helvetica,sans-Serif" font-size="10.00">::getNumBytes</text>
</a>
</g>
</g>
<!-- Node1&#45;&gt;Node2 -->
<g id="edge1" class="edge">
<title>Node1&#45;&gt;Node2</title>
<path fill="none" stroke="midnightblue" d="M560.79,-64.96C552.19,-66.66 543.47,-68.38 535.04,-70.05"/>
<polygon fill="midnightblue" stroke="midnightblue" points="561.67,-68.36 570.8,-62.99 560.31,-61.49 561.67,-68.36"/>
</g>
<!-- Node12 -->
<g id="node12" class="node">
<title>Node12</title>
<g id="a_node12"><a xlink:href="binary__model_8test_8cpp.html#a2ab2088bc8f63bfedc115d9edb0cac65" target="_top" xlink:title=" ">
<polygon fill="none" stroke="black" points="289.5,-0.5 289.5,-19.5 330.5,-19.5 330.5,-0.5 289.5,-0.5"/>
<text text-anchor="middle" x="310" y="-7.5" font-family="Helvetica,sans-Serif" font-size="10.00">TEST</text>
</a>
</g>
</g>
<!-- Node1&#45;&gt;Node12 -->
<g id="edge15" class="edge">
<title>Node1&#45;&gt;Node12</title>
<path fill="none" stroke="midnightblue" d="M560.67,-41.94C486.72,-32.48 375.43,-18.24 330.67,-12.52"/>
<polygon fill="midnightblue" stroke="midnightblue" points="560.48,-45.44 570.84,-43.24 561.36,-38.5 560.48,-45.44"/>
</g>
<!-- Node3 -->
<g id="node3" class="node">
<title>Node3</title>
<g id="a_node3"><a xlink:href="classkazoo_1_1TranslationLayer.html#a6b80b010d94b9f1373fea308d1c6d435" target="_top" xlink:title="Takes input data and processes it through the symbol stream.">
<polygon fill="none" stroke="black" points="244.5,-126 244.5,-156 375.5,-156 375.5,-126 244.5,-126"/>
<text text-anchor="start" x="252.5" y="-144" font-family="Helvetica,sans-Serif" font-size="10.00">kazoo::TranslationLayer</text>
<text text-anchor="middle" x="310" y="-133" font-family="Helvetica,sans-Serif" font-size="10.00">::addData</text>
</a>
</g>
</g>
<!-- Node2&#45;&gt;Node3 -->
<g id="edge2" class="edge">
<title>Node2&#45;&gt;Node3</title>
<path fill="none" stroke="midnightblue" d="M421.64,-100.58C399.23,-108.77 373.25,-118.26 352.1,-125.99"/>
<polygon fill="midnightblue" stroke="midnightblue" points="423.14,-103.76 431.33,-97.04 420.74,-97.18 423.14,-103.76"/>
</g>
<!-- Node8 -->
<g id="node8" class="node">
<title>Node8</title>
<g id="a_node8"><a xlink:href="classkazoo_1_1TranslationLayer.html#ae6af635a406681696216d31a11dd64f9" target="_top" xlink:title=" ">
<polygon fill="none" stroke="black" points="244.5,-175 244.5,-205 375.5,-205 375.5,-175 244.5,-175"/>
<text text-anchor="start" x="252.5" y="-193" font-family="Helvetica,sans-Serif" font-size="10.00">kazoo::TranslationLayer</text>
<text text-anchor="middle" x="310" y="-182" font-family="Helvetica,sans-Serif" font-size="10.00">::encode</text>
</a>
</g>
</g>
<!-- Node2&#45;&gt;Node8 -->
<g id="edge7" class="edge">
<title>Node2&#45;&gt;Node8</title>
<path fill="none" stroke="midnightblue" d="M451.17,-104.68C432.73,-123.22 404.59,-149.06 376,-166 370.41,-169.31 364.29,-172.29 358.11,-174.94"/>
<polygon fill="midnightblue" stroke="midnightblue" points="453.97,-106.83 458.46,-97.23 448.96,-101.93 453.97,-106.83"/>
</g>
<!-- Node9 -->
<g id="node9" class="node">
<title>Node9</title>
<g id="a_node9"><a xlink:href="classkazoo_1_1TranslationLayer.html#a76f09d5f7213679a6656aa9473f8f2ab" target="_top" xlink:title=" ">
<polygon fill="none" stroke="black" points="77,-33 77,-63 208,-63 208,-33 77,-33"/>
<text text-anchor="start" x="85" y="-51" font-family="Helvetica,sans-Serif" font-size="10.00">kazoo::TranslationLayer</text>
<text text-anchor="middle" x="142.5" y="-40" font-family="Helvetica,sans-Serif" font-size="10.00">::loadAndDecodeWav</text>
</a>
</g>
</g>
<!-- Node2&#45;&gt;Node9 -->
<g id="edge10" class="edge">
<title>Node2&#45;&gt;Node9</title>
<path fill="none" stroke="midnightblue" d="M401.75,-70.4C393.09,-69.16 384.35,-67.99 376,-67 319.49,-60.31 254.98,-55.24 208.27,-52.03"/>
<polygon fill="midnightblue" stroke="midnightblue" points="401.45,-73.89 411.85,-71.88 402.46,-66.97 401.45,-73.89"/>
</g>
<!-- Node10 -->
<g id="node10" class="node">
<title>Node10</title>
<g id="a_node10"><a xlink:href="classkazoo_1_1SymbolStream.html#a6d4fe37e7f9c05587d95de99c84be743" target="_top" xlink:title=" ">
<polygon fill="none" stroke="black" points="244,-77 244,-107 376,-107 376,-77 244,-77"/>
<text text-anchor="start" x="252" y="-95" font-family="Helvetica,sans-Serif" font-size="10.00">kazoo::SymbolStream</text>
<text text-anchor="middle" x="310" y="-84" font-family="Helvetica,sans-Serif" font-size="10.00">::populateBinaryStream</text>
</a>
</g>
</g>
<!-- Node2&#45;&gt;Node10 -->
<g id="edge11" class="edge">
<title>Node2&#45;&gt;Node10</title>
<path fill="none" stroke="midnightblue" d="M401.69,-86.38C393.23,-86.91 384.63,-87.44 376.26,-87.96"/>
<polygon fill="midnightblue" stroke="midnightblue" points="402.14,-89.86 411.9,-85.75 401.71,-82.88 402.14,-89.86"/>
</g>
<!-- Node2&#45;&gt;Node12 -->
<g id="edge14" class="edge">
<title>Node2&#45;&gt;Node12</title>
<path fill="none" stroke="midnightblue" d="M435.28,-62.31C417.54,-53.23 395.89,-42.59 376,-34 360.98,-27.51 343.57,-21.15 330.56,-16.6"/>
<polygon fill="midnightblue" stroke="midnightblue" points="433.68,-65.42 444.17,-66.9 436.88,-59.2 433.68,-65.42"/>
</g>
<!-- Node4 -->
<g id="node4" class="node">
<title>Node4</title>
<g id="a_node4"><a xlink:href="classkazoo_1_1TranslationLayer.html#a85b59418d9b63eaf80dd1b3623a96b96" target="_top" xlink:title=" ">
<polygon fill="none" stroke="black" points="77,-173 77,-203 208,-203 208,-173 77,-173"/>
<text text-anchor="start" x="85" y="-191" font-family="Helvetica,sans-Serif" font-size="10.00">kazoo::TranslationLayer</text>
<text text-anchor="middle" x="142.5" y="-180" font-family="Helvetica,sans-Serif" font-size="10.00">::sendFrame</text>
</a>
</g>
</g>
<!-- Node3&#45;&gt;Node4 -->
<g id="edge3" class="edge">
<title>Node3&#45;&gt;Node4</title>
<path fill="none" stroke="midnightblue" d="M246.13,-158.85C229.73,-163.51 212.22,-168.49 196.39,-172.98"/>
<polygon fill="midnightblue" stroke="midnightblue" points="247.52,-162.1 256.18,-156 245.6,-155.37 247.52,-162.1"/>
</g>
<!-- Node7 -->
<g id="node7" class="node">
<title>Node7</title>
<g id="a_node7"><a xlink:href="translation__layer_8test_8cpp.html#a5981aa5142cca1c44a01f7506cf94a8e" target="_top" xlink:title=" ">
<polygon fill="none" stroke="black" points="122,-132.5 122,-151.5 163,-151.5 163,-132.5 122,-132.5"/>
<text text-anchor="middle" x="142.5" y="-139.5" font-family="Helvetica,sans-Serif" font-size="10.00">TEST</text>
</a>
</g>
</g>
<!-- Node3&#45;&gt;Node7 -->
<g id="edge6" class="edge">
<title>Node3&#45;&gt;Node7</title>
<path fill="none" stroke="midnightblue" d="M233.78,-141.45C207.74,-141.61 180.71,-141.78 163.09,-141.88"/>
<polygon fill="midnightblue" stroke="midnightblue" points="234.09,-144.95 244.07,-141.39 234.04,-137.95 234.09,-144.95"/>
</g>
<!-- Node5 -->
<g id="node5" class="node">
<title>Node5</title>
<g id="a_node5"><a xlink:href="src_2kazoo__connect__server_2main_8cpp.html#ae66f6b31b5ad750f1fe042a706a4e3d4" target="_top" xlink:title=" ">
<polygon fill="none" stroke="black" points="0,-197.5 0,-216.5 41,-216.5 41,-197.5 0,-197.5"/>
<text text-anchor="middle" x="20.5" y="-204.5" font-family="Helvetica,sans-Serif" font-size="10.00">main</text>
</a>
</g>
</g>
<!-- Node4&#45;&gt;Node5 -->
<g id="edge4" class="edge">
<title>Node4&#45;&gt;Node5</title>
<path fill="none" stroke="midnightblue" d="M66.91,-199.81C57.43,-201.31 48.46,-202.73 41.05,-203.91"/>
<polygon fill="midnightblue" stroke="midnightblue" points="67.6,-203.24 76.93,-198.22 66.51,-196.33 67.6,-203.24"/>
</g>
<!-- Node6 -->
<g id="node6" class="node">
<title>Node6</title>
<g id="a_node6"><a xlink:href="translation__layer_8test_8cpp.html#a557311196b9a309f0d8377ef5af0c62c" target="_top" xlink:title=" ">
<polygon fill="none" stroke="black" points="0,-159.5 0,-178.5 41,-178.5 41,-159.5 0,-159.5"/>
<text text-anchor="middle" x="20.5" y="-166.5" font-family="Helvetica,sans-Serif" font-size="10.00">TEST</text>
</a>
</g>
</g>
<!-- Node4&#45;&gt;Node6 -->
<g id="edge5" class="edge">
<title>Node4&#45;&gt;Node6</title>
<path fill="none" stroke="midnightblue" d="M66.91,-176.19C57.43,-174.69 48.46,-173.27 41.05,-172.09"/>
<polygon fill="midnightblue" stroke="midnightblue" points="66.51,-179.67 76.93,-177.78 67.6,-172.76 66.51,-179.67"/>
</g>
<!-- Node8&#45;&gt;Node4 -->
<g id="edge8" class="edge">
<title>Node8&#45;&gt;Node4</title>
<path fill="none" stroke="midnightblue" d="M234.03,-189.09C225.43,-188.99 216.71,-188.88 208.25,-188.78"/>
<polygon fill="midnightblue" stroke="midnightblue" points="234.02,-192.59 244.07,-189.22 234.11,-185.59 234.02,-192.59"/>
</g>
<!-- Node8&#45;&gt;Node7 -->
<g id="edge9" class="edge">
<title>Node8&#45;&gt;Node7</title>
<path fill="none" stroke="midnightblue" d="M247.19,-172.07C217.49,-163.46 183.93,-153.73 163.25,-147.73"/>
<polygon fill="midnightblue" stroke="midnightblue" points="246.51,-175.52 257.09,-174.94 248.46,-168.8 246.51,-175.52"/>
</g>
<!-- Node10&#45;&gt;Node9 -->
<g id="edge12" class="edge">
<title>Node10&#45;&gt;Node9</title>
<path fill="none" stroke="midnightblue" d="M242.82,-74.41C228.65,-70.64 213.79,-66.69 200.02,-63.03"/>
<polygon fill="midnightblue" stroke="midnightblue" points="241.94,-77.79 252.51,-76.98 243.74,-71.03 241.94,-77.79"/>
</g>
<!-- Node11 -->
<g id="node11" class="node">
<title>Node11</title>
<g id="a_node11"><a xlink:href="symbol__stream_8test_8cpp.html#a6649846ac517122a5ce6489b52046605" target="_top" xlink:title=" ">
<polygon fill="none" stroke="black" points="122,-82.5 122,-101.5 163,-101.5 163,-82.5 122,-82.5"/>
<text text-anchor="middle" x="142.5" y="-89.5" font-family="Helvetica,sans-Serif" font-size="10.00">TEST</text>
</a>
</g>
</g>
<!-- Node10&#45;&gt;Node11 -->
<g id="edge13" class="edge">
<title>Node10&#45;&gt;Node11</title>
<path fill="none" stroke="midnightblue" d="M233.39,-92C207.6,-92 180.88,-92 163.34,-92"/>
<polygon fill="midnightblue" stroke="midnightblue" points="233.59,-95.5 243.59,-92 233.59,-88.5 233.59,-95.5"/>
</g>
</g>
</svg>
