<?xml version="1.0" encoding="UTF-8" standalone="no"?>
<!DOCTYPE svg PUBLIC "-//W3C//DTD SVG 1.1//EN"
 "http://www.w3.org/Graphics/SVG/1.1/DTD/svg11.dtd">
<!-- Generated by graphviz version 2.43.0 (0)
 -->
<!-- Title: kazoo::Encoder&lt; Token_t &gt; Pages: 1 -->
<svg width="166pt" height="398pt"
 viewBox="0.00 0.00 166.00 398.00" xmlns="http://www.w3.org/2000/svg" xmlns:xlink="http://www.w3.org/1999/xlink">
<g id="graph0" class="graph" transform="scale(1 1) rotate(0) translate(4 394)">
<title>kazoo::Encoder&lt; Token_t &gt;</title>
<!-- Node1 -->
<g id="node1" class="node">
<title>Node1</title>
<g id="a_node1"><a xlink:title=" ">
<polygon fill="#bfbfbf" stroke="black" points="0,-160.5 0,-272.5 158,-272.5 158,-160.5 0,-160.5"/>
<text text-anchor="middle" x="79" y="-260.5" font-family="Helvetica,sans-Serif" font-size="10.00">kazoo::Encoder&lt; Token_t &gt;</text>
<polyline fill="none" stroke="black" points="0,-253.5 158,-253.5 "/>
<text text-anchor="start" x="8" y="-241.5" font-family="Helvetica,sans-Serif" font-size="10.00">&#45; context_</text>
<text text-anchor="start" x="8" y="-230.5" font-family="Helvetica,sans-Serif" font-size="10.00">&#45; symbol_model_</text>
<polyline fill="none" stroke="black" points="0,-223.5 158,-223.5 "/>
<text text-anchor="start" x="8" y="-211.5" font-family="Helvetica,sans-Serif" font-size="10.00">+ Encoder()</text>
<text text-anchor="start" x="8" y="-200.5" font-family="Helvetica,sans-Serif" font-size="10.00">+ clear()</text>
<text text-anchor="start" x="8" y="-189.5" font-family="Helvetica,sans-Serif" font-size="10.00">+ encodeAvailableSymbols()</text>
<text text-anchor="start" x="8" y="-178.5" font-family="Helvetica,sans-Serif" font-size="10.00">&#45; encodePreamble()</text>
<text text-anchor="start" x="8" y="-167.5" font-family="Helvetica,sans-Serif" font-size="10.00">&#45; encodeTail()</text>
</a>
</g>
</g>
<!-- Node3 -->
<g id="node3" class="node">
<title>Node3</title>
<g id="a_node3"><a xlink:href="classkazoo_1_1Encoder.html" target="_top" xlink:title=" ">
<polygon fill="none" stroke="black" points="0,-0.5 0,-112.5 158,-112.5 158,-0.5 0,-0.5"/>
<text text-anchor="middle" x="79" y="-100.5" font-family="Helvetica,sans-Serif" font-size="10.00">kazoo::Encoder&lt; Token &gt;</text>
<polyline fill="none" stroke="black" points="0,-93.5 158,-93.5 "/>
<text text-anchor="start" x="8" y="-81.5" font-family="Helvetica,sans-Serif" font-size="10.00">&#45; context_</text>
<text text-anchor="start" x="8" y="-70.5" font-family="Helvetica,sans-Serif" font-size="10.00">&#45; symbol_model_</text>
<polyline fill="none" stroke="black" points="0,-63.5 158,-63.5 "/>
<text text-anchor="start" x="8" y="-51.5" font-family="Helvetica,sans-Serif" font-size="10.00">+ Encoder()</text>
<text text-anchor="start" x="8" y="-40.5" font-family="Helvetica,sans-Serif" font-size="10.00">+ clear()</text>
<text text-anchor="start" x="8" y="-29.5" font-family="Helvetica,sans-Serif" font-size="10.00">+ encodeAvailableSymbols()</text>
<text text-anchor="start" x="8" y="-18.5" font-family="Helvetica,sans-Serif" font-size="10.00">&#45; encodePreamble()</text>
<text text-anchor="start" x="8" y="-7.5" font-family="Helvetica,sans-Serif" font-size="10.00">&#45; encodeTail()</text>
</a>
</g>
</g>
<!-- Node1&#45;&gt;Node3 -->
<g id="edge2" class="edge">
<title>Node1&#45;&gt;Node3</title>
<path fill="none" stroke="orange" d="M79,-149.97C79,-137.59 79,-124.76 79,-112.73"/>
<polygon fill="orange" stroke="orange" points="75.5,-150.24 79,-160.24 82.5,-150.24 75.5,-150.24"/>
<text text-anchor="middle" x="106" y="-134" font-family="Helvetica,sans-Serif" font-size="10.00"> &lt; Token &gt;</text>
</g>
<!-- Node2 -->
<g id="node2" class="node">
<title>Node2</title>
<g id="a_node2"><a xlink:href="classkazoo_1_1IEncoder.html" target="_top" xlink:title=" ">
<polygon fill="none" stroke="black" points="0,-310.5 0,-389.5 158,-389.5 158,-310.5 0,-310.5"/>
<text text-anchor="middle" x="79" y="-377.5" font-family="Helvetica,sans-Serif" font-size="10.00">kazoo::IEncoder</text>
<polyline fill="none" stroke="black" points="0,-370.5 158,-370.5 "/>
<text text-anchor="middle" x="79" y="-358.5" font-family="Helvetica,sans-Serif" font-size="10.00"> </text>
<polyline fill="none" stroke="black" points="0,-351.5 158,-351.5 "/>
<text text-anchor="start" x="8" y="-339.5" font-family="Helvetica,sans-Serif" font-size="10.00">+ ~IEncoder()</text>
<text text-anchor="start" x="8" y="-328.5" font-family="Helvetica,sans-Serif" font-size="10.00">+ clear()</text>
<text text-anchor="start" x="8" y="-317.5" font-family="Helvetica,sans-Serif" font-size="10.00">+ encodeAvailableSymbols()</text>
</a>
</g>
</g>
<!-- Node2&#45;&gt;Node1 -->
<g id="edge1" class="edge">
<title>Node2&#45;&gt;Node1</title>
<path fill="none" stroke="midnightblue" d="M79,-299.99C79,-291.04 79,-281.64 79,-272.53"/>
<polygon fill="none" stroke="midnightblue" points="75.5,-300.26 79,-310.26 82.5,-300.26 75.5,-300.26"/>
</g>
</g>
</svg>
