<?xml version="1.0" encoding="UTF-8" standalone="no"?>
<!DOCTYPE svg PUBLIC "-//W3C//DTD SVG 1.1//EN"
 "http://www.w3.org/Graphics/SVG/1.1/DTD/svg11.dtd">
<!-- Generated by graphviz version 2.43.0 (0)
 -->
<!-- Title: kazoo::TranslationLayer::sendFrame Pages: 1 -->
<svg width="1273pt" height="591pt"
 viewBox="0.00 0.00 1273.00 591.00" xmlns="http://www.w3.org/2000/svg" xmlns:xlink="http://www.w3.org/1999/xlink">
<g id="graph0" class="graph" transform="scale(1 1) rotate(0) translate(4 587)">
<title>kazoo::TranslationLayer::sendFrame</title>
<!-- Node1 -->
<g id="node1" class="node">
<title>Node1</title>
<g id="a_node1"><a xlink:title=" ">
<polygon fill="#bfbfbf" stroke="black" points="0,-93.5 0,-123.5 131,-123.5 131,-93.5 0,-93.5"/>
<text text-anchor="start" x="8" y="-111.5" font-family="Helvetica,sans-Serif" font-size="10.00">kazoo::TranslationLayer</text>
<text text-anchor="middle" x="65.5" y="-100.5" font-family="Helvetica,sans-Serif" font-size="10.00">::sendFrame</text>
</a>
</g>
</g>
<!-- Node2 -->
<g id="node2" class="node">
<title>Node2</title>
<g id="a_node2"><a xlink:href="classkazoo_1_1TranslationLayer.html#a6b80b010d94b9f1373fea308d1c6d435" target="_top" xlink:title="Takes input data and processes it through the symbol stream.">
<polygon fill="none" stroke="black" points="185,-372.5 185,-402.5 316,-402.5 316,-372.5 185,-372.5"/>
<text text-anchor="start" x="193" y="-390.5" font-family="Helvetica,sans-Serif" font-size="10.00">kazoo::TranslationLayer</text>
<text text-anchor="middle" x="250.5" y="-379.5" font-family="Helvetica,sans-Serif" font-size="10.00">::addData</text>
</a>
</g>
</g>
<!-- Node1&#45;&gt;Node2 -->
<g id="edge1" class="edge">
<title>Node1&#45;&gt;Node2</title>
<path fill="none" stroke="midnightblue" d="M76.34,-123.5C106.44,-169.39 197.45,-308.14 234.03,-363.91"/>
<polygon fill="midnightblue" stroke="midnightblue" points="231.2,-365.98 239.61,-372.43 237.05,-362.14 231.2,-365.98"/>
</g>
<!-- Node16 -->
<g id="node16" class="node">
<title>Node16</title>
<g id="a_node16"><a xlink:href="classkazoo_1_1AudioChannel.html#a400078d8b30365e3f755e23a02e392e2" target="_top" xlink:title=" ">
<polygon fill="none" stroke="black" points="398.5,-49.5 398.5,-79.5 517.5,-79.5 517.5,-49.5 398.5,-49.5"/>
<text text-anchor="start" x="406.5" y="-67.5" font-family="Helvetica,sans-Serif" font-size="10.00">kazoo::AudioChannel</text>
<text text-anchor="middle" x="458" y="-56.5" font-family="Helvetica,sans-Serif" font-size="10.00">::clear</text>
</a>
</g>
</g>
<!-- Node1&#45;&gt;Node16 -->
<g id="edge19" class="edge">
<title>Node1&#45;&gt;Node16</title>
<path fill="none" stroke="midnightblue" d="M131.06,-106.26C185.39,-103.82 265.04,-98.92 334,-89.5 351.69,-87.08 370.65,-83.66 388.26,-80.11"/>
<polygon fill="midnightblue" stroke="midnightblue" points="389.36,-83.45 398.45,-78.01 387.95,-76.6 389.36,-83.45"/>
</g>
<!-- Node17 -->
<g id="node17" class="node">
<title>Node17</title>
<g id="a_node17"><a xlink:href="classkazoo_1_1TranslationLayer.html#ae6af635a406681696216d31a11dd64f9" target="_top" xlink:title=" ">
<polygon fill="none" stroke="black" points="185,-142.5 185,-172.5 316,-172.5 316,-142.5 185,-142.5"/>
<text text-anchor="start" x="193" y="-160.5" font-family="Helvetica,sans-Serif" font-size="10.00">kazoo::TranslationLayer</text>
<text text-anchor="middle" x="250.5" y="-149.5" font-family="Helvetica,sans-Serif" font-size="10.00">::encode</text>
</a>
</g>
</g>
<!-- Node1&#45;&gt;Node17 -->
<g id="edge20" class="edge">
<title>Node1&#45;&gt;Node17</title>
<path fill="none" stroke="midnightblue" d="M122.9,-123.6C142.04,-128.73 163.59,-134.5 183.41,-139.8"/>
<polygon fill="midnightblue" stroke="midnightblue" points="182.72,-143.24 193.29,-142.45 184.53,-136.48 182.72,-143.24"/>
</g>
<!-- Node24 -->
<g id="node24" class="node">
<title>Node24</title>
<g id="a_node24"><a xlink:href="classkazoo_1_1KtlFrame.html#a533f67512a5f1087ca7195eff19fa9c8" target="_top" xlink:title=" ">
<polygon fill="none" stroke="black" points="167,-11 167,-30 334,-30 334,-11 167,-11"/>
<text text-anchor="middle" x="250.5" y="-18" font-family="Helvetica,sans-Serif" font-size="10.00">kazoo::KtlFrame::encodeFrame</text>
</a>
</g>
</g>
<!-- Node1&#45;&gt;Node24 -->
<g id="edge28" class="edge">
<title>Node1&#45;&gt;Node24</title>
<path fill="none" stroke="midnightblue" d="M84.57,-93.31C103.83,-77.87 135.79,-54.3 167,-40.5 173.58,-37.59 180.65,-35.06 187.78,-32.88"/>
<polygon fill="midnightblue" stroke="midnightblue" points="188.85,-36.21 197.51,-30.11 186.93,-29.48 188.85,-36.21"/>
</g>
<!-- Node25 -->
<g id="node25" class="node">
<title>Node25</title>
<g id="a_node25"><a xlink:href="classkazoo_1_1TranslationLayer.html#aedda920ecfd94bff66feb03ee0bc93b6" target="_top" xlink:title=" ">
<polygon fill="none" stroke="black" points="185,-49.5 185,-79.5 316,-79.5 316,-49.5 185,-49.5"/>
<text text-anchor="start" x="193" y="-67.5" font-family="Helvetica,sans-Serif" font-size="10.00">kazoo::TranslationLayer</text>
<text text-anchor="middle" x="250.5" y="-56.5" font-family="Helvetica,sans-Serif" font-size="10.00">::playAudioBlocking</text>
</a>
</g>
</g>
<!-- Node1&#45;&gt;Node25 -->
<g id="edge29" class="edge">
<title>Node1&#45;&gt;Node25</title>
<path fill="none" stroke="midnightblue" d="M128.97,-93.48C144.49,-89.75 161.25,-85.72 177.2,-81.88"/>
<polygon fill="midnightblue" stroke="midnightblue" points="178.1,-85.27 187,-79.53 176.46,-78.46 178.1,-85.27"/>
</g>
<!-- Node3 -->
<g id="node3" class="node">
<title>Node3</title>
<g id="a_node3"><a xlink:href="classkazoo_1_1BinaryStream.html#a5bcef3247636f3ffd53309244c9e6a10" target="_top" xlink:title="Add bytes to the stream. If the stream is not byte aligned when this function is called,...">
<polygon fill="none" stroke="black" points="973,-552.5 973,-582.5 1091,-582.5 1091,-552.5 973,-552.5"/>
<text text-anchor="start" x="981" y="-570.5" font-family="Helvetica,sans-Serif" font-size="10.00">kazoo::BinaryStream</text>
<text text-anchor="middle" x="1032" y="-559.5" font-family="Helvetica,sans-Serif" font-size="10.00">::addBytes</text>
</a>
</g>
</g>
<!-- Node2&#45;&gt;Node3 -->
<g id="edge2" class="edge">
<title>Node2&#45;&gt;Node3</title>
<path fill="none" stroke="midnightblue" d="M267.75,-402.79C289.37,-422.26 329.59,-455.53 370,-473.5 571.65,-563.18 838.98,-571.46 962.75,-569.81"/>
<polygon fill="midnightblue" stroke="midnightblue" points="962.9,-573.31 972.84,-569.65 962.79,-566.31 962.9,-573.31"/>
</g>
<!-- Node5 -->
<g id="node5" class="node">
<title>Node5</title>
<g id="a_node5"><a xlink:href="classkazoo_1_1BinaryStream.html#a3a614f83199d9abd627964db2fef5f7b" target="_top" xlink:title="Get the number of bits in the stream.">
<polygon fill="none" stroke="black" points="797.5,-503.5 797.5,-533.5 915.5,-533.5 915.5,-503.5 797.5,-503.5"/>
<text text-anchor="start" x="805.5" y="-521.5" font-family="Helvetica,sans-Serif" font-size="10.00">kazoo::BinaryStream</text>
<text text-anchor="middle" x="856.5" y="-510.5" font-family="Helvetica,sans-Serif" font-size="10.00">::getNumBits</text>
</a>
</g>
</g>
<!-- Node2&#45;&gt;Node5 -->
<g id="edge4" class="edge">
<title>Node2&#45;&gt;Node5</title>
<path fill="none" stroke="midnightblue" d="M288.43,-402.5C348.75,-426.31 472.66,-472.3 582,-494.5 651.04,-508.52 731.53,-514.35 787.23,-516.77"/>
<polygon fill="midnightblue" stroke="midnightblue" points="787.2,-520.28 797.33,-517.19 787.48,-513.28 787.2,-520.28"/>
</g>
<!-- Node8 -->
<g id="node8" class="node">
<title>Node8</title>
<g id="a_node8"><a xlink:href="classkazoo_1_1SymbolStream.html#a5eb190a46e077143f1abcaf2211a0ad0" target="_top" xlink:title=" ">
<polygon fill="none" stroke="black" points="396.5,-230.5 396.5,-260.5 519.5,-260.5 519.5,-230.5 396.5,-230.5"/>
<text text-anchor="start" x="404.5" y="-248.5" font-family="Helvetica,sans-Serif" font-size="10.00">kazoo::SymbolStream</text>
<text text-anchor="middle" x="458" y="-237.5" font-family="Helvetica,sans-Serif" font-size="10.00">::getNumBytes</text>
</a>
</g>
</g>
<!-- Node2&#45;&gt;Node8 -->
<g id="edge8" class="edge">
<title>Node2&#45;&gt;Node8</title>
<path fill="none" stroke="midnightblue" d="M273.49,-372.3C310.42,-346.79 384.94,-295.3 426.76,-266.39"/>
<polygon fill="midnightblue" stroke="midnightblue" points="428.93,-269.15 435.17,-260.59 424.95,-263.39 428.93,-269.15"/>
</g>
<!-- Node11 -->
<g id="node11" class="node">
<title>Node11</title>
<g id="a_node11"><a xlink:href="classkazoo_1_1SymbolStream.html#a483b690f6e07727669434375cbb23586" target="_top" xlink:title="Process a binary stream and convert it to symbols, removing the bits from the binary stream.">
<polygon fill="none" stroke="black" points="394.5,-372.5 394.5,-402.5 521.5,-402.5 521.5,-372.5 394.5,-372.5"/>
<text text-anchor="start" x="402.5" y="-390.5" font-family="Helvetica,sans-Serif" font-size="10.00">kazoo::SymbolStream</text>
<text text-anchor="middle" x="458" y="-379.5" font-family="Helvetica,sans-Serif" font-size="10.00">::processBinaryStream</text>
</a>
</g>
</g>
<!-- Node2&#45;&gt;Node11 -->
<g id="edge11" class="edge">
<title>Node2&#45;&gt;Node11</title>
<path fill="none" stroke="midnightblue" d="M316.24,-387.5C337.87,-387.5 362.11,-387.5 384.31,-387.5"/>
<polygon fill="midnightblue" stroke="midnightblue" points="384.34,-391 394.34,-387.5 384.34,-384 384.34,-391"/>
</g>
<!-- Node4 -->
<g id="node4" class="node">
<title>Node4</title>
<g id="a_node4"><a xlink:href="classkazoo_1_1BinaryStream.html#a32b6f202b2627b75ace2e6c9c07726aa" target="_top" xlink:title="Get the byte alignment status of the stream.">
<polygon fill="none" stroke="black" points="1147,-503.5 1147,-533.5 1265,-533.5 1265,-503.5 1147,-503.5"/>
<text text-anchor="start" x="1155" y="-521.5" font-family="Helvetica,sans-Serif" font-size="10.00">kazoo::BinaryStream</text>
<text text-anchor="middle" x="1206" y="-510.5" font-family="Helvetica,sans-Serif" font-size="10.00">::isByteAligned</text>
</a>
</g>
</g>
<!-- Node3&#45;&gt;Node4 -->
<g id="edge3" class="edge">
<title>Node3&#45;&gt;Node4</title>
<path fill="none" stroke="midnightblue" d="M1086.01,-552.4C1103.83,-547.32 1123.88,-541.61 1142.37,-536.34"/>
<polygon fill="midnightblue" stroke="midnightblue" points="1143.51,-539.66 1152.17,-533.55 1141.59,-532.93 1143.51,-539.66"/>
</g>
<!-- Node6 -->
<g id="node6" class="node">
<title>Node6</title>
<g id="a_node6"><a xlink:href="classkazoo_1_1BinaryStream.html#aada16bde376a41419737c7177612a521" target="_top" xlink:title="If adding bits, this will return the number of bits that can be added to the stream before the stream...">
<polygon fill="none" stroke="black" points="964.5,-454.5 964.5,-484.5 1099.5,-484.5 1099.5,-454.5 964.5,-454.5"/>
<text text-anchor="start" x="972.5" y="-472.5" font-family="Helvetica,sans-Serif" font-size="10.00">kazoo::BinaryStream</text>
<text text-anchor="middle" x="1032" y="-461.5" font-family="Helvetica,sans-Serif" font-size="10.00">::getInputBitBufferSpace</text>
</a>
</g>
</g>
<!-- Node5&#45;&gt;Node6 -->
<g id="edge5" class="edge">
<title>Node5&#45;&gt;Node6</title>
<path fill="none" stroke="midnightblue" d="M910.97,-503.4C929.03,-498.3 949.36,-492.56 968.08,-487.27"/>
<polygon fill="midnightblue" stroke="midnightblue" points="969.03,-490.64 977.71,-484.55 967.13,-483.9 969.03,-490.64"/>
</g>
<!-- Node7 -->
<g id="node7" class="node">
<title>Node7</title>
<g id="a_node7"><a xlink:href="classkazoo_1_1BinaryStream.html#a12a1666a4c0b0ddfdc512a50f09f5975" target="_top" xlink:title=" ">
<polygon fill="none" stroke="black" points="953,-503.5 953,-533.5 1111,-533.5 1111,-503.5 953,-503.5"/>
<text text-anchor="start" x="961" y="-521.5" font-family="Helvetica,sans-Serif" font-size="10.00">kazoo::BinaryStream</text>
<text text-anchor="middle" x="1032" y="-510.5" font-family="Helvetica,sans-Serif" font-size="10.00">::getOutputBitBufferUsedBits</text>
</a>
</g>
</g>
<!-- Node5&#45;&gt;Node7 -->
<g id="edge6" class="edge">
<title>Node5&#45;&gt;Node7</title>
<path fill="none" stroke="midnightblue" d="M915.76,-518.5C924.41,-518.5 933.49,-518.5 942.6,-518.5"/>
<polygon fill="midnightblue" stroke="midnightblue" points="942.86,-522 952.86,-518.5 942.86,-515 942.86,-522"/>
</g>
<!-- Node7&#45;&gt;Node4 -->
<g id="edge7" class="edge">
<title>Node7&#45;&gt;Node4</title>
<path fill="none" stroke="midnightblue" d="M1111.2,-518.5C1119.72,-518.5 1128.34,-518.5 1136.72,-518.5"/>
<polygon fill="midnightblue" stroke="midnightblue" points="1136.81,-522 1146.81,-518.5 1136.81,-515 1136.81,-522"/>
</g>
<!-- Node9 -->
<g id="node9" class="node">
<title>Node9</title>
<g id="a_node9"><a xlink:href="classkazoo_1_1SymbolStream.html#a1276660b16a23ea24bd024fd8ba72b57" target="_top" xlink:title=" ">
<polygon fill="none" stroke="black" points="609.5,-230.5 609.5,-260.5 732.5,-260.5 732.5,-230.5 609.5,-230.5"/>
<text text-anchor="start" x="617.5" y="-248.5" font-family="Helvetica,sans-Serif" font-size="10.00">kazoo::SymbolStream</text>
<text text-anchor="middle" x="671" y="-237.5" font-family="Helvetica,sans-Serif" font-size="10.00">::getNumBits</text>
</a>
</g>
</g>
<!-- Node8&#45;&gt;Node9 -->
<g id="edge9" class="edge">
<title>Node8&#45;&gt;Node9</title>
<path fill="none" stroke="midnightblue" d="M519.75,-245.5C544.57,-245.5 573.46,-245.5 599.23,-245.5"/>
<polygon fill="midnightblue" stroke="midnightblue" points="599.32,-249 609.32,-245.5 599.32,-242 599.32,-249"/>
</g>
<!-- Node10 -->
<g id="node10" class="node">
<title>Node10</title>
<g id="a_node10"><a xlink:href="classkazoo_1_1ISymbolModel.html#a08668909fe1a7f901fe26ad30f9a1e30" target="_top" xlink:title=" ">
<polygon fill="none" stroke="black" points="796,-298.5 796,-328.5 917,-328.5 917,-298.5 796,-298.5"/>
<text text-anchor="start" x="804" y="-316.5" font-family="Helvetica,sans-Serif" font-size="10.00">kazoo::ISymbolModel</text>
<text text-anchor="middle" x="856.5" y="-305.5" font-family="Helvetica,sans-Serif" font-size="10.00">::getSymbolBitWidth</text>
</a>
</g>
</g>
<!-- Node9&#45;&gt;Node10 -->
<g id="edge10" class="edge">
<title>Node9&#45;&gt;Node10</title>
<path fill="none" stroke="midnightblue" d="M729.67,-260.57C739.86,-263.61 750.3,-266.96 760,-270.5 778.74,-277.34 798.95,-286.21 815.93,-294.12"/>
<polygon fill="midnightblue" stroke="midnightblue" points="814.47,-297.3 825.01,-298.39 817.45,-290.96 814.47,-297.3"/>
</g>
<!-- Node11&#45;&gt;Node4 -->
<g id="edge15" class="edge">
<title>Node11&#45;&gt;Node4</title>
<path fill="none" stroke="midnightblue" d="M521.54,-391.05C674.12,-400 1056.99,-424.27 1111,-445.5 1139.18,-456.58 1165.9,-478.9 1183.6,-495.96"/>
<polygon fill="midnightblue" stroke="midnightblue" points="1181.51,-498.81 1191.07,-503.36 1186.44,-493.84 1181.51,-498.81"/>
</g>
<!-- Node11&#45;&gt;Node10 -->
<g id="edge13" class="edge">
<title>Node11&#45;&gt;Node10</title>
<path fill="none" stroke="midnightblue" d="M521.56,-391.73C583.48,-394.04 680.29,-392.53 760,-368.5 784.24,-361.19 808.94,-346.74 827.15,-334.49"/>
<polygon fill="midnightblue" stroke="midnightblue" points="829.3,-337.25 835.53,-328.69 825.32,-331.5 829.3,-337.25"/>
</g>
<!-- Node12 -->
<g id="node12" class="node">
<title>Node12</title>
<g id="a_node12"><a xlink:href="classkazoo_1_1BinaryStream.html#af26ef358b4ddbd2f0a7f9d94d1b64357" target="_top" xlink:title="Get the number of bytes in the stream. If the stream has spare bits that do not align to a byte,...">
<polygon fill="none" stroke="black" points="612,-328.5 612,-358.5 730,-358.5 730,-328.5 612,-328.5"/>
<text text-anchor="start" x="620" y="-346.5" font-family="Helvetica,sans-Serif" font-size="10.00">kazoo::BinaryStream</text>
<text text-anchor="middle" x="671" y="-335.5" font-family="Helvetica,sans-Serif" font-size="10.00">::getNumBytes</text>
</a>
</g>
</g>
<!-- Node11&#45;&gt;Node12 -->
<g id="edge12" class="edge">
<title>Node11&#45;&gt;Node12</title>
<path fill="none" stroke="midnightblue" d="M521.74,-374.42C546.94,-369.16 576.06,-363.09 601.79,-357.72"/>
<polygon fill="midnightblue" stroke="midnightblue" points="602.76,-361.1 611.83,-355.63 601.33,-354.24 602.76,-361.1"/>
</g>
<!-- Node13 -->
<g id="node13" class="node">
<title>Node13</title>
<g id="a_node13"><a xlink:href="classkazoo_1_1ISymbolModel.html#acc7c190376b422d6a6f8a28a2a7445f0" target="_top" xlink:title=" ">
<polygon fill="none" stroke="black" points="610.5,-279.5 610.5,-309.5 731.5,-309.5 731.5,-279.5 610.5,-279.5"/>
<text text-anchor="start" x="618.5" y="-297.5" font-family="Helvetica,sans-Serif" font-size="10.00">kazoo::ISymbolModel</text>
<text text-anchor="middle" x="671" y="-286.5" font-family="Helvetica,sans-Serif" font-size="10.00">::getSymbolId</text>
</a>
</g>
</g>
<!-- Node11&#45;&gt;Node13 -->
<g id="edge14" class="edge">
<title>Node11&#45;&gt;Node13</title>
<path fill="none" stroke="midnightblue" d="M482.69,-372.26C506.88,-357.22 545.9,-334.38 582,-319.5 587.88,-317.08 594.07,-314.8 600.33,-312.68"/>
<polygon fill="midnightblue" stroke="midnightblue" points="601.76,-315.9 610.2,-309.49 599.61,-309.24 601.76,-315.9"/>
</g>
<!-- Node14 -->
<g id="node14" class="node">
<title>Node14</title>
<g id="a_node14"><a xlink:href="classkazoo_1_1BinaryStream.html#a745b2acb522d69e283dd5df14500016b" target="_top" xlink:title="Pop bits off the front, effectively the inverse of addBits.">
<polygon fill="none" stroke="black" points="612,-454.5 612,-484.5 730,-484.5 730,-454.5 612,-454.5"/>
<text text-anchor="start" x="620" y="-472.5" font-family="Helvetica,sans-Serif" font-size="10.00">kazoo::BinaryStream</text>
<text text-anchor="middle" x="671" y="-461.5" font-family="Helvetica,sans-Serif" font-size="10.00">::popBits</text>
</a>
</g>
</g>
<!-- Node11&#45;&gt;Node14 -->
<g id="edge16" class="edge">
<title>Node11&#45;&gt;Node14</title>
<path fill="none" stroke="midnightblue" d="M492.67,-402.5C517.24,-413.26 551.46,-427.85 582,-439.5 592.28,-443.42 603.32,-447.38 613.99,-451.08"/>
<polygon fill="midnightblue" stroke="midnightblue" points="613.05,-454.46 623.65,-454.39 615.33,-447.83 613.05,-454.46"/>
</g>
<!-- Node14&#45;&gt;Node5 -->
<g id="edge17" class="edge">
<title>Node14&#45;&gt;Node5</title>
<path fill="none" stroke="midnightblue" d="M728.3,-484.53C747.68,-489.71 769.55,-495.55 789.61,-500.91"/>
<polygon fill="midnightblue" stroke="midnightblue" points="788.74,-504.3 799.3,-503.49 790.54,-497.53 788.74,-504.3"/>
</g>
<!-- Node15 -->
<g id="node15" class="node">
<title>Node15</title>
<g id="a_node15"><a xlink:href="classkazoo_1_1BinaryStream.html#a82de69510e248576ea64a328979a9f48" target="_top" xlink:title=" ">
<polygon fill="none" stroke="black" points="797.5,-454.5 797.5,-484.5 915.5,-484.5 915.5,-454.5 797.5,-454.5"/>
<text text-anchor="start" x="805.5" y="-472.5" font-family="Helvetica,sans-Serif" font-size="10.00">kazoo::BinaryStream</text>
<text text-anchor="middle" x="856.5" y="-461.5" font-family="Helvetica,sans-Serif" font-size="10.00">::popBit</text>
</a>
</g>
</g>
<!-- Node14&#45;&gt;Node15 -->
<g id="edge18" class="edge">
<title>Node14&#45;&gt;Node15</title>
<path fill="none" stroke="midnightblue" d="M730.06,-469.5C748.13,-469.5 768.23,-469.5 786.95,-469.5"/>
<polygon fill="midnightblue" stroke="midnightblue" points="787.19,-473 797.19,-469.5 787.19,-466 787.19,-473"/>
</g>
<!-- Node17&#45;&gt;Node8 -->
<g id="edge26" class="edge">
<title>Node17&#45;&gt;Node8</title>
<path fill="none" stroke="midnightblue" d="M286.83,-172.63C321.63,-187.53 374.92,-210.35 412.57,-226.48"/>
<polygon fill="midnightblue" stroke="midnightblue" points="411.22,-229.7 421.79,-230.42 413.98,-223.27 411.22,-229.7"/>
</g>
<!-- Node18 -->
<g id="node18" class="node">
<title>Node18</title>
<g id="a_node18"><a xlink:href="classkazoo_1_1Encoder.html#a377a241e22091d991edd5376e0d0be10" target="_top" xlink:title="Pops symbols from the front of the symbol stream and encodes them into the audio buffer.">
<polygon fill="none" stroke="black" points="370,-147.5 370,-177.5 546,-177.5 546,-147.5 370,-147.5"/>
<text text-anchor="start" x="378" y="-165.5" font-family="Helvetica,sans-Serif" font-size="10.00">kazoo::Encoder::encodeAvailable</text>
<text text-anchor="middle" x="458" y="-154.5" font-family="Helvetica,sans-Serif" font-size="10.00">Symbols</text>
</a>
</g>
</g>
<!-- Node17&#45;&gt;Node18 -->
<g id="edge21" class="edge">
<title>Node17&#45;&gt;Node18</title>
<path fill="none" stroke="midnightblue" d="M316.24,-159.08C330,-159.41 344.83,-159.77 359.51,-160.13"/>
<polygon fill="midnightblue" stroke="midnightblue" points="359.55,-163.63 369.64,-160.37 359.72,-156.63 359.55,-163.63"/>
</g>
<!-- Node23 -->
<g id="node23" class="node">
<title>Node23</title>
<g id="a_node23"><a xlink:href="classkazoo_1_1AudioChannel.html#a97d2202c18916b93bb72b4c540ba75ed" target="_top" xlink:title=" ">
<polygon fill="none" stroke="black" points="398.5,-98.5 398.5,-128.5 517.5,-128.5 517.5,-98.5 398.5,-98.5"/>
<text text-anchor="start" x="406.5" y="-116.5" font-family="Helvetica,sans-Serif" font-size="10.00">kazoo::AudioChannel</text>
<text text-anchor="middle" x="458" y="-105.5" font-family="Helvetica,sans-Serif" font-size="10.00">::getNumSamples</text>
</a>
</g>
</g>
<!-- Node17&#45;&gt;Node23 -->
<g id="edge27" class="edge">
<title>Node17&#45;&gt;Node23</title>
<path fill="none" stroke="midnightblue" d="M316.24,-143.64C339.2,-138.72 365.1,-133.18 388.37,-128.19"/>
<polygon fill="midnightblue" stroke="midnightblue" points="389.12,-131.61 398.16,-126.1 387.65,-124.77 389.12,-131.61"/>
</g>
<!-- Node19 -->
<g id="node19" class="node">
<title>Node19</title>
<g id="a_node19"><a xlink:href="classkazoo_1_1Encoder.html#ab775a959f5c94f1ca28e38cebacaf4c5" target="_top" xlink:title="Adds a preamble to the audio channel to help with synchronization.">
<polygon fill="none" stroke="black" points="582,-192 582,-211 760,-211 760,-192 582,-192"/>
<text text-anchor="middle" x="671" y="-199" font-family="Helvetica,sans-Serif" font-size="10.00">kazoo::Encoder::encodePreamble</text>
</a>
</g>
</g>
<!-- Node18&#45;&gt;Node19 -->
<g id="edge22" class="edge">
<title>Node18&#45;&gt;Node19</title>
<path fill="none" stroke="midnightblue" d="M540.28,-177.52C562.93,-181.71 587.15,-186.19 608.46,-190.13"/>
<polygon fill="midnightblue" stroke="midnightblue" points="607.88,-193.58 618.35,-191.95 609.15,-186.69 607.88,-193.58"/>
</g>
<!-- Node20 -->
<g id="node20" class="node">
<title>Node20</title>
<g id="a_node20"><a xlink:href="classkazoo_1_1ISymbolModel.html#a093bf25697e9c33e5f0fb1373e602594" target="_top" xlink:title=" ">
<polygon fill="none" stroke="black" points="610.5,-142.5 610.5,-172.5 731.5,-172.5 731.5,-142.5 610.5,-142.5"/>
<text text-anchor="start" x="618.5" y="-160.5" font-family="Helvetica,sans-Serif" font-size="10.00">kazoo::ISymbolModel</text>
<text text-anchor="middle" x="671" y="-149.5" font-family="Helvetica,sans-Serif" font-size="10.00">::encodeSymbol</text>
</a>
</g>
</g>
<!-- Node18&#45;&gt;Node20 -->
<g id="edge23" class="edge">
<title>Node18&#45;&gt;Node20</title>
<path fill="none" stroke="midnightblue" d="M546.04,-160.44C564.17,-160.01 583.04,-159.56 600.44,-159.15"/>
<polygon fill="midnightblue" stroke="midnightblue" points="600.58,-162.65 610.49,-158.91 600.41,-155.65 600.58,-162.65"/>
</g>
<!-- Node21 -->
<g id="node21" class="node">
<title>Node21</title>
<g id="a_node21"><a xlink:href="classkazoo_1_1Encoder.html#a365c15beddddcda0de58e96087997e1f" target="_top" xlink:title=" ">
<polygon fill="none" stroke="black" points="597,-104 597,-123 745,-123 745,-104 597,-104"/>
<text text-anchor="middle" x="671" y="-111" font-family="Helvetica,sans-Serif" font-size="10.00">kazoo::Encoder::encodeTail</text>
</a>
</g>
</g>
<!-- Node18&#45;&gt;Node21 -->
<g id="edge24" class="edge">
<title>Node18&#45;&gt;Node21</title>
<path fill="none" stroke="midnightblue" d="M522.5,-147.43C541.62,-142.91 562.66,-137.98 582,-133.5 593.45,-130.85 605.75,-128.03 617.41,-125.38"/>
<polygon fill="midnightblue" stroke="midnightblue" points="618.49,-128.72 627.46,-123.09 616.94,-121.9 618.49,-128.72"/>
</g>
<!-- Node22 -->
<g id="node22" class="node">
<title>Node22</title>
<g id="a_node22"><a xlink:href="classkazoo_1_1ISymbolStream.html#a88dbb4b56018e8238e3fe8b1c599c8a4" target="_top" xlink:title=" ">
<polygon fill="none" stroke="black" points="608,-54.5 608,-84.5 734,-84.5 734,-54.5 608,-54.5"/>
<text text-anchor="start" x="616" y="-72.5" font-family="Helvetica,sans-Serif" font-size="10.00">kazoo::ISymbolStream</text>
<text text-anchor="middle" x="671" y="-61.5" font-family="Helvetica,sans-Serif" font-size="10.00">::popSymbolTokenId</text>
</a>
</g>
</g>
<!-- Node18&#45;&gt;Node22 -->
<g id="edge25" class="edge">
<title>Node18&#45;&gt;Node22</title>
<path fill="none" stroke="midnightblue" d="M529.07,-147.38C535.01,-144.86 540.75,-141.92 546,-138.5 567.17,-124.71 560.88,-108.37 582,-94.5 587.02,-91.21 592.47,-88.34 598.13,-85.85"/>
<polygon fill="midnightblue" stroke="midnightblue" points="599.79,-88.95 607.78,-81.99 597.2,-82.45 599.79,-88.95"/>
</g>
<!-- Node25&#45;&gt;Node16 -->
<g id="edge30" class="edge">
<title>Node25&#45;&gt;Node16</title>
<path fill="none" stroke="midnightblue" d="M316.24,-64.5C339.09,-64.5 364.87,-64.5 388.06,-64.5"/>
<polygon fill="midnightblue" stroke="midnightblue" points="388.16,-68 398.16,-64.5 388.16,-61 388.16,-68"/>
</g>
<!-- Node26 -->
<g id="node26" class="node">
<title>Node26</title>
<g id="a_node26"><a xlink:href="classkazoo_1_1PulseAudio_1_1Player.html#abc17fbc9d400e16618a0ae1bab833e4b" target="_top" xlink:title=" ">
<polygon fill="none" stroke="black" points="402.5,-0.5 402.5,-30.5 513.5,-30.5 513.5,-0.5 402.5,-0.5"/>
<text text-anchor="start" x="410.5" y="-18.5" font-family="Helvetica,sans-Serif" font-size="10.00">kazoo::PulseAudio::</text>
<text text-anchor="middle" x="458" y="-7.5" font-family="Helvetica,sans-Serif" font-size="10.00">Player::play</text>
</a>
</g>
</g>
<!-- Node25&#45;&gt;Node26 -->
<g id="edge31" class="edge">
<title>Node25&#45;&gt;Node26</title>
<path fill="none" stroke="midnightblue" d="M314.55,-49.47C339.23,-43.58 367.52,-36.84 392.35,-30.91"/>
<polygon fill="midnightblue" stroke="midnightblue" points="393.49,-34.24 402.4,-28.52 391.86,-27.43 393.49,-34.24"/>
</g>
<!-- Node27 -->
<g id="node27" class="node">
<title>Node27</title>
<g id="a_node27"><a xlink:href="classkazoo_1_1IAudioChannel.html#a4cb9127060966e0e53bd6782b9f3413d" target="_top" xlink:title=" ">
<polygon fill="none" stroke="black" points="610,-0.5 610,-30.5 732,-30.5 732,-0.5 610,-0.5"/>
<text text-anchor="start" x="618" y="-18.5" font-family="Helvetica,sans-Serif" font-size="10.00">kazoo::IAudioChannel</text>
<text text-anchor="middle" x="671" y="-7.5" font-family="Helvetica,sans-Serif" font-size="10.00">::getSamplesRef</text>
</a>
</g>
</g>
<!-- Node26&#45;&gt;Node27 -->
<g id="edge32" class="edge">
<title>Node26&#45;&gt;Node27</title>
<path fill="none" stroke="midnightblue" d="M513.61,-15.5C539.82,-15.5 571.54,-15.5 599.54,-15.5"/>
<polygon fill="midnightblue" stroke="midnightblue" points="599.67,-19 609.67,-15.5 599.67,-12 599.67,-19"/>
</g>
</g>
</svg>
