<?xml version="1.0" encoding="UTF-8" standalone="no"?>
<!DOCTYPE svg PUBLIC "-//W3C//DTD SVG 1.1//EN"
 "http://www.w3.org/Graphics/SVG/1.1/DTD/svg11.dtd">
<!-- Generated by graphviz version 2.43.0 (0)
 -->
<!-- Title: kazoo::Deframer::printFrameData Pages: 1 -->
<svg width="1180pt" height="168pt"
 viewBox="0.00 0.00 1180.00 168.45" xmlns="http://www.w3.org/2000/svg" xmlns:xlink="http://www.w3.org/1999/xlink">
<g id="graph0" class="graph" transform="scale(1 1) rotate(0) translate(4 164.45)">
<title>kazoo::Deframer::printFrameData</title>
<!-- Node1 -->
<g id="node1" class="node">
<title>Node1</title>
<g id="a_node1"><a xlink:title=" ">
<polygon fill="#bfbfbf" stroke="black" points="992,-57.5 992,-76.5 1172,-76.5 1172,-57.5 992,-57.5"/>
<text text-anchor="middle" x="1082" y="-64.5" font-family="Helvetica,sans-Serif" font-size="10.00">kazoo::Deframer::printFrameData</text>
</a>
</g>
</g>
<!-- Node2 -->
<g id="node2" class="node">
<title>Node2</title>
<g id="a_node2"><a xlink:href="classkazoo_1_1Deframer.html#ad544e3c1a1301cc5ab77389eab411b03" target="_top" xlink:title=" ">
<polygon fill="none" stroke="black" points="574,-76.5 574,-95.5 750,-95.5 750,-76.5 574,-76.5"/>
<text text-anchor="middle" x="662" y="-83.5" font-family="Helvetica,sans-Serif" font-size="10.00">kazoo::Deframer::findFrameData</text>
</a>
</g>
</g>
<!-- Node1&#45;&gt;Node2 -->
<g id="edge1" class="edge">
<title>Node1&#45;&gt;Node2</title>
<path fill="none" stroke="midnightblue" d="M981.63,-71.52C911.25,-74.72 817.73,-78.97 750.23,-82.03"/>
<polygon fill="midnightblue" stroke="midnightblue" points="982.01,-75 991.84,-71.05 981.69,-68.01 982.01,-75"/>
</g>
<!-- Node3 -->
<g id="node3" class="node">
<title>Node3</title>
<g id="a_node3"><a xlink:href="classkazoo_1_1Deframer.html#a79d8b406e773fdc32d7c5002b9e37e2b" target="_top" xlink:title=" ">
<polygon fill="none" stroke="black" points="365,-117.5 365,-136.5 538,-136.5 538,-117.5 365,-117.5"/>
<text text-anchor="middle" x="451.5" y="-124.5" font-family="Helvetica,sans-Serif" font-size="10.00">kazoo::Deframer::findFrameSize</text>
</a>
</g>
</g>
<!-- Node1&#45;&gt;Node3 -->
<g id="edge10" class="edge">
<title>Node1&#45;&gt;Node3</title>
<path fill="none" stroke="midnightblue" d="M1028.21,-78.57C1006.01,-83.06 979.84,-87.87 956,-91 810.02,-110.16 638.8,-119.68 538.34,-123.96"/>
<polygon fill="midnightblue" stroke="midnightblue" points="1029.01,-81.98 1038.11,-76.54 1027.61,-75.12 1029.01,-81.98"/>
</g>
<!-- Node4 -->
<g id="node4" class="node">
<title>Node4</title>
<g id="a_node4"><a xlink:href="classkazoo_1_1Deframer.html#a7dc1caffad1ffe4925a3e13d8d125024" target="_top" xlink:title=" ">
<polygon fill="none" stroke="black" points="177,-113 177,-143 329,-143 329,-113 177,-113"/>
<text text-anchor="start" x="185" y="-131" font-family="Helvetica,sans-Serif" font-size="10.00">kazoo::Deframer::findFrame</text>
<text text-anchor="middle" x="253" y="-120" font-family="Helvetica,sans-Serif" font-size="10.00">Start</text>
</a>
</g>
</g>
<!-- Node1&#45;&gt;Node4 -->
<g id="edge11" class="edge">
<title>Node1&#45;&gt;Node4</title>
<path fill="none" stroke="midnightblue" d="M981.9,-61.51C879.52,-57.11 715.2,-53.66 574,-67 482.5,-75.64 378.23,-97.89 314.26,-112.99"/>
<polygon fill="midnightblue" stroke="midnightblue" points="981.78,-65 991.92,-61.95 982.09,-58.01 981.78,-65"/>
</g>
<!-- Node6 -->
<g id="node6" class="node">
<title>Node6</title>
<g id="a_node6"><a xlink:href="classkazoo_1_1Deframer.html#ae4c8d8b5f7e2bc50183fc1b758fc21a8" target="_top" xlink:title=" ">
<polygon fill="none" stroke="black" points="786,-0.5 786,-19.5 956,-19.5 956,-0.5 786,-0.5"/>
<text text-anchor="middle" x="871" y="-7.5" font-family="Helvetica,sans-Serif" font-size="10.00">kazoo::Deframer::findFrameEnd</text>
</a>
</g>
</g>
<!-- Node1&#45;&gt;Node6 -->
<g id="edge7" class="edge">
<title>Node1&#45;&gt;Node6</title>
<path fill="none" stroke="midnightblue" d="M1036.08,-54.75C997.47,-44.22 942.55,-29.24 907.1,-19.57"/>
<polygon fill="midnightblue" stroke="midnightblue" points="1035.45,-58.2 1046.02,-57.46 1037.29,-51.45 1035.45,-58.2"/>
</g>
<!-- Node2&#45;&gt;Node3 -->
<g id="edge2" class="edge">
<title>Node2&#45;&gt;Node3</title>
<path fill="none" stroke="midnightblue" d="M602.52,-97.5C570.48,-103.8 531.26,-111.51 500.96,-117.47"/>
<polygon fill="midnightblue" stroke="midnightblue" points="603.51,-100.87 612.64,-95.51 602.15,-94 603.51,-100.87"/>
</g>
<!-- Node5 -->
<g id="node5" class="node">
<title>Node5</title>
<g id="a_node5"><a xlink:href="classkazoo_1_1Deframer.html#a742de19b3ca490d3faabfcbb64785998" target="_top" xlink:title="Process the input binary stream in a stateful manner to extract frames from sequential stream inputs.">
<polygon fill="none" stroke="black" points="0,-91 0,-121 141,-121 141,-91 0,-91"/>
<text text-anchor="start" x="8" y="-109" font-family="Helvetica,sans-Serif" font-size="10.00">kazoo::Deframer::process</text>
<text text-anchor="middle" x="70.5" y="-98" font-family="Helvetica,sans-Serif" font-size="10.00">Input</text>
</a>
</g>
</g>
<!-- Node2&#45;&gt;Node5 -->
<g id="edge6" class="edge">
<title>Node2&#45;&gt;Node5</title>
<path fill="none" stroke="midnightblue" d="M563.5,-89.31C444.43,-93.35 245.99,-100.08 141.22,-103.63"/>
<polygon fill="midnightblue" stroke="midnightblue" points="563.82,-92.8 573.7,-88.96 563.59,-85.8 563.82,-92.8"/>
</g>
<!-- Node3&#45;&gt;Node4 -->
<g id="edge3" class="edge">
<title>Node3&#45;&gt;Node4</title>
<path fill="none" stroke="midnightblue" d="M354.8,-127.49C346.2,-127.53 337.56,-127.57 329.16,-127.62"/>
<polygon fill="midnightblue" stroke="midnightblue" points="354.9,-130.99 364.88,-127.44 354.87,-123.99 354.9,-130.99"/>
</g>
<!-- Node3&#45;&gt;Node5 -->
<g id="edge5" class="edge">
<title>Node3&#45;&gt;Node5</title>
<path fill="none" stroke="midnightblue" d="M407.33,-139.09C353.03,-152.48 257.21,-170.06 177,-153 148.37,-146.91 118.08,-132.48 97.34,-121.2"/>
<polygon fill="midnightblue" stroke="midnightblue" points="408.46,-142.42 417.29,-136.57 406.74,-135.63 408.46,-142.42"/>
</g>
<!-- Node4&#45;&gt;Node5 -->
<g id="edge4" class="edge">
<title>Node4&#45;&gt;Node5</title>
<path fill="none" stroke="midnightblue" d="M166.74,-117.61C158.16,-116.56 149.52,-115.51 141.14,-114.49"/>
<polygon fill="midnightblue" stroke="midnightblue" points="166.41,-121.09 176.76,-118.83 167.26,-114.15 166.41,-121.09"/>
</g>
<!-- Node6&#45;&gt;Node2 -->
<g id="edge8" class="edge">
<title>Node6&#45;&gt;Node2</title>
<path fill="none" stroke="midnightblue" d="M834.36,-23.08C792.99,-38.27 725.75,-62.96 689,-76.45"/>
<polygon fill="midnightblue" stroke="midnightblue" points="835.6,-26.36 843.78,-19.63 833.19,-19.79 835.6,-26.36"/>
</g>
<!-- Node6&#45;&gt;Node5 -->
<g id="edge9" class="edge">
<title>Node6&#45;&gt;Node5</title>
<path fill="none" stroke="midnightblue" d="M775.74,-20.42C674.27,-31.72 508.13,-50.52 365,-68 288.37,-77.36 200.59,-88.82 141.14,-96.7"/>
<polygon fill="midnightblue" stroke="midnightblue" points="776.41,-23.86 785.96,-19.28 775.64,-16.91 776.41,-23.86"/>
</g>
</g>
</svg>
