<?xml version="1.0" encoding="UTF-8" standalone="no"?>
<!DOCTYPE svg PUBLIC "-//W3C//DTD SVG 1.1//EN"
 "http://www.w3.org/Graphics/SVG/1.1/DTD/svg11.dtd">
<!-- Generated by graphviz version 2.43.0 (0)
 -->
<!-- Title: kazoo::ISymbolStream::clear Pages: 1 -->
<svg width="677pt" height="144pt"
 viewBox="0.00 0.00 677.00 143.50" xmlns="http://www.w3.org/2000/svg" xmlns:xlink="http://www.w3.org/1999/xlink">
<g id="graph0" class="graph" transform="scale(1 1) rotate(0) translate(4 139.5)">
<title>kazoo::ISymbolStream::clear</title>
<!-- Node1 -->
<g id="node1" class="node">
<title>Node1</title>
<g id="a_node1"><a xlink:title="Clear/Reset the symbol stream.">
<polygon fill="#bfbfbf" stroke="black" points="543,-44.5 543,-74.5 669,-74.5 669,-44.5 543,-44.5"/>
<text text-anchor="start" x="551" y="-62.5" font-family="Helvetica,sans-Serif" font-size="10.00">kazoo::ISymbolStream</text>
<text text-anchor="middle" x="606" y="-51.5" font-family="Helvetica,sans-Serif" font-size="10.00">::clear</text>
</a>
</g>
</g>
<!-- Node2 -->
<g id="node2" class="node">
<title>Node2</title>
<g id="a_node2"><a xlink:href="classkazoo_1_1ModelTester.html#a2d86a19402c92c173a6ffa8838835935" target="_top" xlink:title=" ">
<polygon fill="none" stroke="black" points="346,-94 346,-135 507,-135 507,-94 346,-94"/>
<text text-anchor="start" x="354" y="-123" font-family="Helvetica,sans-Serif" font-size="10.00">kazoo::ModelTester</text>
<text text-anchor="start" x="354" y="-112" font-family="Helvetica,sans-Serif" font-size="10.00">::helper_decodeAudioChannel</text>
<text text-anchor="middle" x="426.5" y="-101" font-family="Helvetica,sans-Serif" font-size="10.00">ToString</text>
</a>
</g>
</g>
<!-- Node1&#45;&gt;Node2 -->
<g id="edge1" class="edge">
<title>Node1&#45;&gt;Node2</title>
<path fill="none" stroke="midnightblue" d="M546.76,-77.55C529.86,-82.78 511.27,-88.54 493.91,-93.92"/>
<polygon fill="midnightblue" stroke="midnightblue" points="547.98,-80.83 556.5,-74.53 545.91,-74.15 547.98,-80.83"/>
</g>
<!-- Node5 -->
<g id="node5" class="node">
<title>Node5</title>
<g id="a_node5"><a xlink:href="classkazoo_1_1ModelTester.html#a702e366157b9a545b104494ae0924054" target="_top" xlink:title=" ">
<polygon fill="none" stroke="black" points="371.5,-44.5 371.5,-74.5 481.5,-74.5 481.5,-44.5 371.5,-44.5"/>
<text text-anchor="start" x="379.5" y="-62.5" font-family="Helvetica,sans-Serif" font-size="10.00">kazoo::ModelTester</text>
<text text-anchor="middle" x="426.5" y="-51.5" font-family="Helvetica,sans-Serif" font-size="10.00">::resetState</text>
</a>
</g>
</g>
<!-- Node1&#45;&gt;Node5 -->
<g id="edge4" class="edge">
<title>Node1&#45;&gt;Node5</title>
<path fill="none" stroke="midnightblue" d="M532.46,-59.5C515.44,-59.5 497.61,-59.5 481.57,-59.5"/>
<polygon fill="midnightblue" stroke="midnightblue" points="532.92,-63 542.92,-59.5 532.92,-56 532.92,-63"/>
</g>
<!-- Node6 -->
<g id="node6" class="node">
<title>Node6</title>
<g id="a_node6"><a xlink:href="classkazoo_1_1ModelTester.html#ae04082b16f30df3b2200f4d090b0337b" target="_top" xlink:title=" ">
<polygon fill="none" stroke="black" points="156,-0.5 156,-30.5 300,-30.5 300,-0.5 156,-0.5"/>
<text text-anchor="start" x="164" y="-18.5" font-family="Helvetica,sans-Serif" font-size="10.00">kazoo::ModelTester</text>
<text text-anchor="middle" x="228" y="-7.5" font-family="Helvetica,sans-Serif" font-size="10.00">::test_basicEncodeDecode</text>
</a>
</g>
</g>
<!-- Node1&#45;&gt;Node6 -->
<g id="edge7" class="edge">
<title>Node1&#45;&gt;Node6</title>
<path fill="none" stroke="midnightblue" d="M543.54,-42.01C531.5,-39.1 518.92,-36.41 507,-34.5 437.26,-23.32 356.65,-18.71 300.25,-16.81"/>
<polygon fill="midnightblue" stroke="midnightblue" points="542.94,-45.47 553.49,-44.49 544.64,-38.67 542.94,-45.47"/>
</g>
<!-- Node3 -->
<g id="node3" class="node">
<title>Node3</title>
<g id="a_node3"><a xlink:href="classkazoo_1_1ModelTester.html#a43e738d358a87f9f01cc8ad13c6964fe" target="_top" xlink:title=" ">
<polygon fill="none" stroke="black" points="146,-88.5 146,-118.5 310,-118.5 310,-88.5 146,-88.5"/>
<text text-anchor="start" x="154" y="-106.5" font-family="Helvetica,sans-Serif" font-size="10.00">kazoo::ModelTester</text>
<text text-anchor="middle" x="228" y="-95.5" font-family="Helvetica,sans-Serif" font-size="10.00">::test_gaussianNoiseTolerance</text>
</a>
</g>
</g>
<!-- Node2&#45;&gt;Node3 -->
<g id="edge2" class="edge">
<title>Node2&#45;&gt;Node3</title>
<path fill="none" stroke="midnightblue" d="M335.82,-109.48C327.23,-109 318.54,-108.51 310.03,-108.04"/>
<polygon fill="midnightblue" stroke="midnightblue" points="335.68,-112.98 345.86,-110.04 336.07,-105.99 335.68,-112.98"/>
</g>
<!-- Node4 -->
<g id="node4" class="node">
<title>Node4</title>
<g id="a_node4"><a xlink:href="classkazoo_1_1ModelTester.html#a7e596cfc6087c50c134a30707a33d6dc" target="_top" xlink:title=" ">
<polygon fill="none" stroke="black" points="0,-44.5 0,-74.5 110,-74.5 110,-44.5 0,-44.5"/>
<text text-anchor="start" x="8" y="-62.5" font-family="Helvetica,sans-Serif" font-size="10.00">kazoo::ModelTester</text>
<text text-anchor="middle" x="55" y="-51.5" font-family="Helvetica,sans-Serif" font-size="10.00">::runAllTests</text>
</a>
</g>
</g>
<!-- Node3&#45;&gt;Node4 -->
<g id="edge3" class="edge">
<title>Node3&#45;&gt;Node4</title>
<path fill="none" stroke="midnightblue" d="M158.7,-85.93C142.53,-81.77 125.51,-77.39 110.08,-73.42"/>
<polygon fill="midnightblue" stroke="midnightblue" points="158.07,-89.38 168.63,-88.48 159.82,-82.6 158.07,-89.38"/>
</g>
<!-- Node5&#45;&gt;Node3 -->
<g id="edge6" class="edge">
<title>Node5&#45;&gt;Node3</title>
<path fill="none" stroke="midnightblue" d="M361.52,-73.83C340.55,-78.52 317.19,-83.75 296,-88.5"/>
<polygon fill="midnightblue" stroke="midnightblue" points="362.29,-77.24 371.29,-71.64 360.76,-70.41 362.29,-77.24"/>
</g>
<!-- Node5&#45;&gt;Node4 -->
<g id="edge5" class="edge">
<title>Node5&#45;&gt;Node4</title>
<path fill="none" stroke="midnightblue" d="M361.21,-59.5C290.17,-59.5 177.02,-59.5 110.27,-59.5"/>
<polygon fill="midnightblue" stroke="midnightblue" points="361.38,-63 371.38,-59.5 361.38,-56 361.38,-63"/>
</g>
<!-- Node6&#45;&gt;Node4 -->
<g id="edge8" class="edge">
<title>Node6&#45;&gt;Node4</title>
<path fill="none" stroke="midnightblue" d="M158.7,-33.07C142.53,-37.23 125.51,-41.61 110.08,-45.58"/>
<polygon fill="midnightblue" stroke="midnightblue" points="159.82,-36.4 168.63,-30.52 158.07,-29.62 159.82,-36.4"/>
</g>
</g>
</svg>
