<?xml version="1.0" encoding="UTF-8" standalone="no"?>
<!DOCTYPE svg PUBLIC "-//W3C//DTD SVG 1.1//EN"
 "http://www.w3.org/Graphics/SVG/1.1/DTD/svg11.dtd">
<!-- Generated by graphviz version 2.43.0 (0)
 -->
<!-- Title: kazoo::SymbolStream::getNumBytes Pages: 1 -->
<svg width="543pt" height="226pt"
 viewBox="0.00 0.00 543.00 226.00" xmlns="http://www.w3.org/2000/svg" xmlns:xlink="http://www.w3.org/1999/xlink">
<g id="graph0" class="graph" transform="scale(1 1) rotate(0) translate(4 222)">
<title>kazoo::SymbolStream::getNumBytes</title>
<!-- Node1 -->
<g id="node1" class="node">
<title>Node1</title>
<g id="a_node1"><a xlink:title=" ">
<polygon fill="#bfbfbf" stroke="black" points="412,-83 412,-113 535,-113 535,-83 412,-83"/>
<text text-anchor="start" x="420" y="-101" font-family="Helvetica,sans-Serif" font-size="10.00">kazoo::SymbolStream</text>
<text text-anchor="middle" x="473.5" y="-90" font-family="Helvetica,sans-Serif" font-size="10.00">::getNumBytes</text>
</a>
</g>
</g>
<!-- Node2 -->
<g id="node2" class="node">
<title>Node2</title>
<g id="a_node2"><a xlink:href="classkazoo_1_1TranslationLayer.html#a6b80b010d94b9f1373fea308d1c6d435" target="_top" xlink:title="Takes input data and processes it through the symbol stream.">
<polygon fill="none" stroke="black" points="244.5,-127 244.5,-157 375.5,-157 375.5,-127 244.5,-127"/>
<text text-anchor="start" x="252.5" y="-145" font-family="Helvetica,sans-Serif" font-size="10.00">kazoo::TranslationLayer</text>
<text text-anchor="middle" x="310" y="-134" font-family="Helvetica,sans-Serif" font-size="10.00">::addData</text>
</a>
</g>
</g>
<!-- Node1&#45;&gt;Node2 -->
<g id="edge1" class="edge">
<title>Node1&#45;&gt;Node2</title>
<path fill="none" stroke="midnightblue" d="M407.52,-115.7C393.81,-119.44 379.46,-123.35 366.15,-126.97"/>
<polygon fill="midnightblue" stroke="midnightblue" points="408.64,-119.02 417.37,-113.02 406.8,-112.27 408.64,-119.02"/>
</g>
<!-- Node7 -->
<g id="node7" class="node">
<title>Node7</title>
<g id="a_node7"><a xlink:href="classkazoo_1_1TranslationLayer.html#ae6af635a406681696216d31a11dd64f9" target="_top" xlink:title=" ">
<polygon fill="none" stroke="black" points="244.5,-176 244.5,-206 375.5,-206 375.5,-176 244.5,-176"/>
<text text-anchor="start" x="252.5" y="-194" font-family="Helvetica,sans-Serif" font-size="10.00">kazoo::TranslationLayer</text>
<text text-anchor="middle" x="310" y="-183" font-family="Helvetica,sans-Serif" font-size="10.00">::encode</text>
</a>
</g>
</g>
<!-- Node1&#45;&gt;Node7 -->
<g id="edge6" class="edge">
<title>Node1&#45;&gt;Node7</title>
<path fill="none" stroke="midnightblue" d="M446.56,-119.47C427.81,-134.24 401.41,-153.54 376,-167 369.83,-170.27 363.13,-173.28 356.44,-176"/>
<polygon fill="midnightblue" stroke="midnightblue" points="448.97,-122.02 454.6,-113.04 444.6,-116.55 448.97,-122.02"/>
</g>
<!-- Node8 -->
<g id="node8" class="node">
<title>Node8</title>
<g id="a_node8"><a xlink:href="classkazoo_1_1TranslationLayer.html#a76f09d5f7213679a6656aa9473f8f2ab" target="_top" xlink:title=" ">
<polygon fill="none" stroke="black" points="77,-83 77,-113 208,-113 208,-83 77,-83"/>
<text text-anchor="start" x="85" y="-101" font-family="Helvetica,sans-Serif" font-size="10.00">kazoo::TranslationLayer</text>
<text text-anchor="middle" x="142.5" y="-90" font-family="Helvetica,sans-Serif" font-size="10.00">::loadAndDecodeWav</text>
</a>
</g>
</g>
<!-- Node1&#45;&gt;Node8 -->
<g id="edge9" class="edge">
<title>Node1&#45;&gt;Node8</title>
<path fill="none" stroke="midnightblue" d="M401.68,-98C344.2,-98 263.83,-98 208.09,-98"/>
<polygon fill="midnightblue" stroke="midnightblue" points="401.77,-101.5 411.77,-98 401.77,-94.5 401.77,-101.5"/>
</g>
<!-- Node9 -->
<g id="node9" class="node">
<title>Node9</title>
<g id="a_node9"><a xlink:href="classkazoo_1_1SymbolStream.html#a6d4fe37e7f9c05587d95de99c84be743" target="_top" xlink:title=" ">
<polygon fill="none" stroke="black" points="244,-39 244,-69 376,-69 376,-39 244,-39"/>
<text text-anchor="start" x="252" y="-57" font-family="Helvetica,sans-Serif" font-size="10.00">kazoo::SymbolStream</text>
<text text-anchor="middle" x="310" y="-46" font-family="Helvetica,sans-Serif" font-size="10.00">::populateBinaryStream</text>
</a>
</g>
</g>
<!-- Node1&#45;&gt;Node9 -->
<g id="edge10" class="edge">
<title>Node1&#45;&gt;Node9</title>
<path fill="none" stroke="midnightblue" d="M407.52,-80.3C393.81,-76.56 379.46,-72.65 366.15,-69.03"/>
<polygon fill="midnightblue" stroke="midnightblue" points="406.8,-83.73 417.37,-82.98 408.64,-76.98 406.8,-83.73"/>
</g>
<!-- Node11 -->
<g id="node11" class="node">
<title>Node11</title>
<g id="a_node11"><a xlink:href="binary__model_8test_8cpp.html#a2ab2088bc8f63bfedc115d9edb0cac65" target="_top" xlink:title=" ">
<polygon fill="none" stroke="black" points="289.5,-0.5 289.5,-19.5 330.5,-19.5 330.5,-0.5 289.5,-0.5"/>
<text text-anchor="middle" x="310" y="-7.5" font-family="Helvetica,sans-Serif" font-size="10.00">TEST</text>
</a>
</g>
</g>
<!-- Node1&#45;&gt;Node11 -->
<g id="edge13" class="edge">
<title>Node1&#45;&gt;Node11</title>
<path fill="none" stroke="midnightblue" d="M447.43,-76.46C428.78,-61.37 402.14,-41.71 376,-29 361.51,-21.96 343.92,-17.01 330.69,-13.93"/>
<polygon fill="midnightblue" stroke="midnightblue" points="445.21,-79.17 455.16,-82.82 449.66,-73.77 445.21,-79.17"/>
</g>
<!-- Node3 -->
<g id="node3" class="node">
<title>Node3</title>
<g id="a_node3"><a xlink:href="classkazoo_1_1TranslationLayer.html#a85b59418d9b63eaf80dd1b3623a96b96" target="_top" xlink:title=" ">
<polygon fill="none" stroke="black" points="77,-174 77,-204 208,-204 208,-174 77,-174"/>
<text text-anchor="start" x="85" y="-192" font-family="Helvetica,sans-Serif" font-size="10.00">kazoo::TranslationLayer</text>
<text text-anchor="middle" x="142.5" y="-181" font-family="Helvetica,sans-Serif" font-size="10.00">::sendFrame</text>
</a>
</g>
</g>
<!-- Node2&#45;&gt;Node3 -->
<g id="edge2" class="edge">
<title>Node2&#45;&gt;Node3</title>
<path fill="none" stroke="midnightblue" d="M246.13,-159.85C229.73,-164.51 212.22,-169.49 196.39,-173.98"/>
<polygon fill="midnightblue" stroke="midnightblue" points="247.52,-163.1 256.18,-157 245.6,-156.37 247.52,-163.1"/>
</g>
<!-- Node6 -->
<g id="node6" class="node">
<title>Node6</title>
<g id="a_node6"><a xlink:href="translation__layer_8test_8cpp.html#a5981aa5142cca1c44a01f7506cf94a8e" target="_top" xlink:title=" ">
<polygon fill="none" stroke="black" points="122,-133.5 122,-152.5 163,-152.5 163,-133.5 122,-133.5"/>
<text text-anchor="middle" x="142.5" y="-140.5" font-family="Helvetica,sans-Serif" font-size="10.00">TEST</text>
</a>
</g>
</g>
<!-- Node2&#45;&gt;Node6 -->
<g id="edge5" class="edge">
<title>Node2&#45;&gt;Node6</title>
<path fill="none" stroke="midnightblue" d="M233.78,-142.45C207.74,-142.61 180.71,-142.78 163.09,-142.88"/>
<polygon fill="midnightblue" stroke="midnightblue" points="234.09,-145.95 244.07,-142.39 234.04,-138.95 234.09,-145.95"/>
</g>
<!-- Node4 -->
<g id="node4" class="node">
<title>Node4</title>
<g id="a_node4"><a xlink:href="src_2kazoo__connect__server_2main_8cpp.html#ae66f6b31b5ad750f1fe042a706a4e3d4" target="_top" xlink:title=" ">
<polygon fill="none" stroke="black" points="0,-198.5 0,-217.5 41,-217.5 41,-198.5 0,-198.5"/>
<text text-anchor="middle" x="20.5" y="-205.5" font-family="Helvetica,sans-Serif" font-size="10.00">main</text>
</a>
</g>
</g>
<!-- Node3&#45;&gt;Node4 -->
<g id="edge3" class="edge">
<title>Node3&#45;&gt;Node4</title>
<path fill="none" stroke="midnightblue" d="M66.91,-200.81C57.43,-202.31 48.46,-203.73 41.05,-204.91"/>
<polygon fill="midnightblue" stroke="midnightblue" points="67.6,-204.24 76.93,-199.22 66.51,-197.33 67.6,-204.24"/>
</g>
<!-- Node5 -->
<g id="node5" class="node">
<title>Node5</title>
<g id="a_node5"><a xlink:href="translation__layer_8test_8cpp.html#a557311196b9a309f0d8377ef5af0c62c" target="_top" xlink:title=" ">
<polygon fill="none" stroke="black" points="0,-160.5 0,-179.5 41,-179.5 41,-160.5 0,-160.5"/>
<text text-anchor="middle" x="20.5" y="-167.5" font-family="Helvetica,sans-Serif" font-size="10.00">TEST</text>
</a>
</g>
</g>
<!-- Node3&#45;&gt;Node5 -->
<g id="edge4" class="edge">
<title>Node3&#45;&gt;Node5</title>
<path fill="none" stroke="midnightblue" d="M66.91,-177.19C57.43,-175.69 48.46,-174.27 41.05,-173.09"/>
<polygon fill="midnightblue" stroke="midnightblue" points="66.51,-180.67 76.93,-178.78 67.6,-173.76 66.51,-180.67"/>
</g>
<!-- Node7&#45;&gt;Node3 -->
<g id="edge7" class="edge">
<title>Node7&#45;&gt;Node3</title>
<path fill="none" stroke="midnightblue" d="M234.03,-190.09C225.43,-189.99 216.71,-189.88 208.25,-189.78"/>
<polygon fill="midnightblue" stroke="midnightblue" points="234.02,-193.59 244.07,-190.22 234.11,-186.59 234.02,-193.59"/>
</g>
<!-- Node7&#45;&gt;Node6 -->
<g id="edge8" class="edge">
<title>Node7&#45;&gt;Node6</title>
<path fill="none" stroke="midnightblue" d="M247.19,-173.07C217.49,-164.46 183.93,-154.73 163.25,-148.73"/>
<polygon fill="midnightblue" stroke="midnightblue" points="246.51,-176.52 257.09,-175.94 248.46,-169.8 246.51,-176.52"/>
</g>
<!-- Node9&#45;&gt;Node8 -->
<g id="edge11" class="edge">
<title>Node9&#45;&gt;Node8</title>
<path fill="none" stroke="midnightblue" d="M242.82,-71.59C228.65,-75.36 213.79,-79.31 200.02,-82.97"/>
<polygon fill="midnightblue" stroke="midnightblue" points="243.74,-74.97 252.51,-69.02 241.94,-68.21 243.74,-74.97"/>
</g>
<!-- Node10 -->
<g id="node10" class="node">
<title>Node10</title>
<g id="a_node10"><a xlink:href="symbol__stream_8test_8cpp.html#a6649846ac517122a5ce6489b52046605" target="_top" xlink:title=" ">
<polygon fill="none" stroke="black" points="122,-44.5 122,-63.5 163,-63.5 163,-44.5 122,-44.5"/>
<text text-anchor="middle" x="142.5" y="-51.5" font-family="Helvetica,sans-Serif" font-size="10.00">TEST</text>
</a>
</g>
</g>
<!-- Node9&#45;&gt;Node10 -->
<g id="edge12" class="edge">
<title>Node9&#45;&gt;Node10</title>
<path fill="none" stroke="midnightblue" d="M233.39,-54C207.6,-54 180.88,-54 163.34,-54"/>
<polygon fill="midnightblue" stroke="midnightblue" points="233.59,-57.5 243.59,-54 233.59,-50.5 233.59,-57.5"/>
</g>
</g>
</svg>
