<?xml version="1.0" encoding="UTF-8" standalone="no"?>
<!DOCTYPE svg PUBLIC "-//W3C//DTD SVG 1.1//EN"
 "http://www.w3.org/Graphics/SVG/1.1/DTD/svg11.dtd">
<!-- Generated by graphviz version 2.43.0 (0)
 -->
<!-- Title: kazoo::Deframer::findFrameStart Pages: 1 -->
<svg width="1666pt" height="452pt"
 viewBox="0.00 0.00 1666.00 451.50" xmlns="http://www.w3.org/2000/svg" xmlns:xlink="http://www.w3.org/1999/xlink">
<g id="graph0" class="graph" transform="scale(1 1) rotate(0) translate(4 447.5)">
<title>kazoo::Deframer::findFrameStart</title>
<!-- Node1 -->
<g id="node1" class="node">
<title>Node1</title>
<g id="a_node1"><a xlink:title=" ">
<polygon fill="#bfbfbf" stroke="black" points="0,-133.5 0,-163.5 152,-163.5 152,-133.5 0,-133.5"/>
<text text-anchor="start" x="8" y="-151.5" font-family="Helvetica,sans-Serif" font-size="10.00">kazoo::Deframer::findFrame</text>
<text text-anchor="middle" x="76" y="-140.5" font-family="Helvetica,sans-Serif" font-size="10.00">Start</text>
</a>
</g>
</g>
<!-- Node2 -->
<g id="node2" class="node">
<title>Node2</title>
<g id="a_node2"><a xlink:href="classkazoo_1_1Deframer.html#ad48e61e42665c2d7f03685452b23c571" target="_top" xlink:title=" ">
<polygon fill="none" stroke="black" points="823,-424 823,-443 987,-443 987,-424 823,-424"/>
<text text-anchor="middle" x="905" y="-431" font-family="Helvetica,sans-Serif" font-size="10.00">kazoo::Deframer::changeState</text>
</a>
</g>
</g>
<!-- Node1&#45;&gt;Node2 -->
<g id="edge1" class="edge">
<title>Node1&#45;&gt;Node2</title>
<path fill="none" stroke="midnightblue" d="M83.73,-163.73C98.17,-194.61 135.17,-264.8 188,-301.5 379.61,-434.6 667.11,-444.39 812.63,-439.49"/>
<polygon fill="midnightblue" stroke="midnightblue" points="812.99,-442.98 822.86,-439.11 812.74,-435.98 812.99,-442.98"/>
</g>
<!-- Node3 -->
<g id="node3" class="node">
<title>Node3</title>
<g id="a_node3"><a xlink:href="classkazoo_1_1Deframer.html#a79d8b406e773fdc32d7c5002b9e37e2b" target="_top" xlink:title=" ">
<polygon fill="none" stroke="black" points="188,-224 188,-243 361,-243 361,-224 188,-224"/>
<text text-anchor="middle" x="274.5" y="-231" font-family="Helvetica,sans-Serif" font-size="10.00">kazoo::Deframer::findFrameSize</text>
</a>
</g>
</g>
<!-- Node1&#45;&gt;Node3 -->
<g id="edge2" class="edge">
<title>Node1&#45;&gt;Node3</title>
<path fill="none" stroke="midnightblue" d="M111.68,-163.5C148.54,-179.45 206.32,-204.44 241.94,-219.85"/>
<polygon fill="midnightblue" stroke="midnightblue" points="240.8,-223.17 251.37,-223.93 243.58,-216.74 240.8,-223.17"/>
</g>
<!-- Node6 -->
<g id="node6" class="node">
<title>Node6</title>
<g id="a_node6"><a xlink:href="classkazoo_1_1BinaryStream.html#af26ef358b4ddbd2f0a7f9d94d1b64357" target="_top" xlink:title="Get the number of bytes in the stream. If the stream has spare bits that do not align to a byte,...">
<polygon fill="none" stroke="black" points="846,-127.5 846,-157.5 964,-157.5 964,-127.5 846,-127.5"/>
<text text-anchor="start" x="854" y="-145.5" font-family="Helvetica,sans-Serif" font-size="10.00">kazoo::BinaryStream</text>
<text text-anchor="middle" x="905" y="-134.5" font-family="Helvetica,sans-Serif" font-size="10.00">::getNumBytes</text>
</a>
</g>
</g>
<!-- Node1&#45;&gt;Node6 -->
<g id="edge24" class="edge">
<title>Node1&#45;&gt;Node6</title>
<path fill="none" stroke="midnightblue" d="M152.22,-147.95C311.8,-146.8 682.21,-144.11 835.59,-143"/>
<polygon fill="midnightblue" stroke="midnightblue" points="835.84,-146.49 845.81,-142.92 835.79,-139.49 835.84,-146.49"/>
</g>
<!-- Node8 -->
<g id="node8" class="node">
<title>Node8</title>
<g id="a_node8"><a xlink:href="classkazoo_1_1BinaryStream.html#a745b2acb522d69e283dd5df14500016b" target="_top" xlink:title="Pop bits off the front, effectively the inverse of addBits.">
<polygon fill="none" stroke="black" points="1034.5,-47.5 1034.5,-77.5 1152.5,-77.5 1152.5,-47.5 1034.5,-47.5"/>
<text text-anchor="start" x="1042.5" y="-65.5" font-family="Helvetica,sans-Serif" font-size="10.00">kazoo::BinaryStream</text>
<text text-anchor="middle" x="1093.5" y="-54.5" font-family="Helvetica,sans-Serif" font-size="10.00">::popBits</text>
</a>
</g>
</g>
<!-- Node1&#45;&gt;Node8 -->
<g id="edge26" class="edge">
<title>Node1&#45;&gt;Node8</title>
<path fill="none" stroke="midnightblue" d="M115.03,-133.45C186.24,-106.66 345.05,-53.5 484,-53.5 484,-53.5 484,-53.5 695,-53.5 810.44,-53.5 944.7,-57.34 1023.92,-60"/>
<polygon fill="midnightblue" stroke="midnightblue" points="1024.13,-63.51 1034.25,-60.36 1024.37,-56.52 1024.13,-63.51"/>
</g>
<!-- Node13 -->
<g id="node13" class="node">
<title>Node13</title>
<g id="a_node13"><a xlink:href="classkazoo_1_1BinaryStream.html#a82de69510e248576ea64a328979a9f48" target="_top" xlink:title=" ">
<polygon fill="none" stroke="black" points="1192,-0.5 1192,-30.5 1310,-30.5 1310,-0.5 1192,-0.5"/>
<text text-anchor="start" x="1200" y="-18.5" font-family="Helvetica,sans-Serif" font-size="10.00">kazoo::BinaryStream</text>
<text text-anchor="middle" x="1251" y="-7.5" font-family="Helvetica,sans-Serif" font-size="10.00">::popBit</text>
</a>
</g>
</g>
<!-- Node1&#45;&gt;Node13 -->
<g id="edge25" class="edge">
<title>Node1&#45;&gt;Node13</title>
<path fill="none" stroke="midnightblue" d="M91.16,-133.35C110.83,-113.34 148.47,-78.66 188,-61.5 310.13,-8.5 350.87,-15.5 484,-15.5 484,-15.5 484,-15.5 906,-15.5 1001.58,-15.5 1112.09,-15.5 1181.51,-15.5"/>
<polygon fill="midnightblue" stroke="midnightblue" points="1181.87,-19 1191.87,-15.5 1181.87,-12 1181.87,-19"/>
</g>
<!-- Node14 -->
<g id="node14" class="node">
<title>Node14</title>
<g id="a_node14"><a xlink:href="classkazoo_1_1Deframer.html#a919b00cfd64865233361bf4779674b6a" target="_top" xlink:title=" ">
<polygon fill="none" stroke="black" points="815,-329 815,-348 995,-348 995,-329 815,-329"/>
<text text-anchor="middle" x="905" y="-336" font-family="Helvetica,sans-Serif" font-size="10.00">kazoo::Deframer::printFrameData</text>
</a>
</g>
</g>
<!-- Node1&#45;&gt;Node14 -->
<g id="edge27" class="edge">
<title>Node1&#45;&gt;Node14</title>
<path fill="none" stroke="midnightblue" d="M89.36,-163.86C108.31,-186.42 146.69,-228.45 188,-252.5 389.35,-369.72 676.32,-361.96 818.03,-348.99"/>
<polygon fill="midnightblue" stroke="midnightblue" points="818.77,-352.43 828.39,-348 818.11,-345.46 818.77,-352.43"/>
</g>
<!-- Node3&#45;&gt;Node2 -->
<g id="edge3" class="edge">
<title>Node3&#45;&gt;Node2</title>
<path fill="none" stroke="midnightblue" d="M286.43,-243.01C306.8,-260.29 352.56,-296.91 397,-317.5 533.98,-380.95 708.27,-411 812.73,-424.21"/>
<polygon fill="midnightblue" stroke="midnightblue" points="812.57,-427.72 822.93,-425.48 813.43,-420.77 812.57,-427.72"/>
</g>
<!-- Node4 -->
<g id="node4" class="node">
<title>Node4</title>
<g id="a_node4"><a xlink:href="classkazoo_1_1Deframer.html#ad544e3c1a1301cc5ab77389eab411b03" target="_top" xlink:title=" ">
<polygon fill="none" stroke="black" points="397,-253 397,-272 573,-272 573,-253 397,-253"/>
<text text-anchor="middle" x="485" y="-260" font-family="Helvetica,sans-Serif" font-size="10.00">kazoo::Deframer::findFrameData</text>
</a>
</g>
</g>
<!-- Node3&#45;&gt;Node4 -->
<g id="edge4" class="edge">
<title>Node3&#45;&gt;Node4</title>
<path fill="none" stroke="midnightblue" d="M344.06,-243.04C363.66,-245.76 385.17,-248.75 405.32,-251.56"/>
<polygon fill="midnightblue" stroke="midnightblue" points="405.01,-255.05 415.4,-252.96 405.98,-248.11 405.01,-255.05"/>
</g>
<!-- Node3&#45;&gt;Node6 -->
<g id="edge21" class="edge">
<title>Node3&#45;&gt;Node6</title>
<path fill="none" stroke="midnightblue" d="M327.37,-223.99C392.85,-212.17 509.04,-191.81 609,-177.5 686.58,-166.39 776,-156.14 835.87,-149.64"/>
<polygon fill="midnightblue" stroke="midnightblue" points="836.39,-153.1 845.96,-148.55 835.64,-146.14 836.39,-153.1"/>
</g>
<!-- Node7 -->
<g id="node7" class="node">
<title>Node7</title>
<g id="a_node7"><a xlink:href="classkazoo_1_1BinaryStream.html#ae77e9324dbd09dd4a02d3504a83ae866" target="_top" xlink:title=" ">
<polygon fill="none" stroke="black" points="846,-209.5 846,-239.5 964,-239.5 964,-209.5 846,-209.5"/>
<text text-anchor="start" x="854" y="-227.5" font-family="Helvetica,sans-Serif" font-size="10.00">kazoo::BinaryStream</text>
<text text-anchor="middle" x="905" y="-216.5" font-family="Helvetica,sans-Serif" font-size="10.00">::popByte</text>
</a>
</g>
</g>
<!-- Node3&#45;&gt;Node7 -->
<g id="edge22" class="edge">
<title>Node3&#45;&gt;Node7</title>
<path fill="none" stroke="midnightblue" d="M361.24,-232.27C487.43,-230.47 720.63,-227.13 835.88,-225.48"/>
<polygon fill="midnightblue" stroke="midnightblue" points="836.04,-228.97 845.99,-225.33 835.94,-221.97 836.04,-228.97"/>
</g>
<!-- Node3&#45;&gt;Node14 -->
<g id="edge23" class="edge">
<title>Node3&#45;&gt;Node14</title>
<path fill="none" stroke="midnightblue" d="M296.64,-243.04C320.6,-253.57 361,-270.47 397,-281.5 489.28,-309.76 513.26,-316.37 609,-328.5 673.86,-336.72 747.35,-339.23 804.75,-339.68"/>
<polygon fill="midnightblue" stroke="midnightblue" points="804.89,-343.18 814.91,-339.74 804.93,-336.18 804.89,-343.18"/>
</g>
<!-- Node4&#45;&gt;Node2 -->
<g id="edge5" class="edge">
<title>Node4&#45;&gt;Node2</title>
<path fill="none" stroke="midnightblue" d="M501.93,-272.05C525.01,-285.66 569.34,-310.92 609,-328.5 697.14,-367.57 804.74,-402.9 862.54,-420.92"/>
<polygon fill="midnightblue" stroke="midnightblue" points="861.8,-424.36 872.39,-423.98 863.88,-417.67 861.8,-424.36"/>
</g>
<!-- Node5 -->
<g id="node5" class="node">
<title>Node5</title>
<g id="a_node5"><a xlink:href="classkazoo_1_1Deframer.html#ae4c8d8b5f7e2bc50183fc1b758fc21a8" target="_top" xlink:title=" ">
<polygon fill="none" stroke="black" points="609,-272 609,-291 779,-291 779,-272 609,-272"/>
<text text-anchor="middle" x="694" y="-279" font-family="Helvetica,sans-Serif" font-size="10.00">kazoo::Deframer::findFrameEnd</text>
</a>
</g>
</g>
<!-- Node4&#45;&gt;Node5 -->
<g id="edge6" class="edge">
<title>Node4&#45;&gt;Node5</title>
<path fill="none" stroke="midnightblue" d="M573.19,-270.5C581.68,-271.28 590.33,-272.08 598.89,-272.86"/>
<polygon fill="midnightblue" stroke="midnightblue" points="598.61,-276.35 608.89,-273.78 599.25,-269.38 598.61,-276.35"/>
</g>
<!-- Node4&#45;&gt;Node6 -->
<g id="edge18" class="edge">
<title>Node4&#45;&gt;Node6</title>
<path fill="none" stroke="midnightblue" d="M519.15,-252.98C588.94,-232.95 751.99,-186.14 841.85,-160.34"/>
<polygon fill="midnightblue" stroke="midnightblue" points="842.99,-163.66 851.64,-157.53 841.06,-156.93 842.99,-163.66"/>
</g>
<!-- Node4&#45;&gt;Node7 -->
<g id="edge19" class="edge">
<title>Node4&#45;&gt;Node7</title>
<path fill="none" stroke="midnightblue" d="M573.12,-254.58C651.11,-247.49 763.91,-237.24 835.59,-230.72"/>
<polygon fill="midnightblue" stroke="midnightblue" points="836.21,-234.18 845.85,-229.79 835.58,-227.21 836.21,-234.18"/>
</g>
<!-- Node4&#45;&gt;Node14 -->
<g id="edge20" class="edge">
<title>Node4&#45;&gt;Node14</title>
<path fill="none" stroke="midnightblue" d="M512.52,-272.14C537.2,-280.77 575.15,-293.15 609,-300.5 673.5,-314.51 747.14,-324 804.71,-330"/>
<polygon fill="midnightblue" stroke="midnightblue" points="804.59,-333.5 814.9,-331.04 805.31,-326.54 804.59,-333.5"/>
</g>
<!-- Node5&#45;&gt;Node2 -->
<g id="edge7" class="edge">
<title>Node5&#45;&gt;Node2</title>
<path fill="none" stroke="midnightblue" d="M708.07,-291.01C743.19,-316.55 839.8,-386.81 882.84,-418.11"/>
<polygon fill="midnightblue" stroke="midnightblue" points="880.79,-420.94 890.93,-424 884.9,-415.28 880.79,-420.94"/>
</g>
<!-- Node5&#45;&gt;Node6 -->
<g id="edge8" class="edge">
<title>Node5&#45;&gt;Node6</title>
<path fill="none" stroke="midnightblue" d="M708.95,-271.77C731.23,-256.27 776.28,-225.12 815,-199.5 833.63,-187.17 854.68,-173.67 871.62,-162.91"/>
<polygon fill="midnightblue" stroke="midnightblue" points="873.51,-165.86 880.08,-157.55 869.76,-159.95 873.51,-165.86"/>
</g>
<!-- Node5&#45;&gt;Node7 -->
<g id="edge9" class="edge">
<title>Node5&#45;&gt;Node7</title>
<path fill="none" stroke="midnightblue" d="M729.98,-271.96C759.62,-263.88 802.9,-252.07 838.89,-242.26"/>
<polygon fill="midnightblue" stroke="midnightblue" points="840.1,-245.55 848.83,-239.55 838.26,-238.8 840.1,-245.55"/>
</g>
<!-- Node5&#45;&gt;Node14 -->
<g id="edge16" class="edge">
<title>Node5&#45;&gt;Node14</title>
<path fill="none" stroke="midnightblue" d="M729.98,-291.04C765.4,-300.7 820.31,-315.68 858.96,-326.22"/>
<polygon fill="midnightblue" stroke="midnightblue" points="858.34,-329.67 868.9,-328.93 860.18,-322.92 858.34,-329.67"/>
</g>
<!-- Node7&#45;&gt;Node8 -->
<g id="edge10" class="edge">
<title>Node7&#45;&gt;Node8</title>
<path fill="none" stroke="midnightblue" d="M932.86,-209.31C951.16,-198.43 975.49,-182.85 995,-166.5 1024.94,-141.41 1055.02,-107.72 1073.69,-85.58"/>
<polygon fill="midnightblue" stroke="midnightblue" points="1076.55,-87.62 1080.26,-77.7 1071.17,-83.14 1076.55,-87.62"/>
</g>
<!-- Node9 -->
<g id="node9" class="node">
<title>Node9</title>
<g id="a_node9"><a xlink:href="classkazoo_1_1BinaryStream.html#a3a614f83199d9abd627964db2fef5f7b" target="_top" xlink:title="Get the number of bits in the stream.">
<polygon fill="none" stroke="black" points="1192,-49.5 1192,-79.5 1310,-79.5 1310,-49.5 1192,-49.5"/>
<text text-anchor="start" x="1200" y="-67.5" font-family="Helvetica,sans-Serif" font-size="10.00">kazoo::BinaryStream</text>
<text text-anchor="middle" x="1251" y="-56.5" font-family="Helvetica,sans-Serif" font-size="10.00">::getNumBits</text>
</a>
</g>
</g>
<!-- Node8&#45;&gt;Node9 -->
<g id="edge11" class="edge">
<title>Node8&#45;&gt;Node9</title>
<path fill="none" stroke="midnightblue" d="M1152.84,-63.25C1162.21,-63.37 1171.98,-63.5 1181.56,-63.62"/>
<polygon fill="midnightblue" stroke="midnightblue" points="1181.8,-67.12 1191.85,-63.75 1181.89,-60.12 1181.8,-67.12"/>
</g>
<!-- Node8&#45;&gt;Node13 -->
<g id="edge15" class="edge">
<title>Node8&#45;&gt;Node13</title>
<path fill="none" stroke="midnightblue" d="M1144.13,-47.5C1158.86,-43.05 1175.14,-38.13 1190.43,-33.5"/>
<polygon fill="midnightblue" stroke="midnightblue" points="1191.75,-36.76 1200.31,-30.52 1189.72,-30.06 1191.75,-36.76"/>
</g>
<!-- Node10 -->
<g id="node10" class="node">
<title>Node10</title>
<g id="a_node10"><a xlink:href="classkazoo_1_1BinaryStream.html#aada16bde376a41419737c7177612a521" target="_top" xlink:title="If adding bits, this will return the number of bits that can be added to the stream before the stream...">
<polygon fill="none" stroke="black" points="1357.5,-73.5 1357.5,-103.5 1492.5,-103.5 1492.5,-73.5 1357.5,-73.5"/>
<text text-anchor="start" x="1365.5" y="-91.5" font-family="Helvetica,sans-Serif" font-size="10.00">kazoo::BinaryStream</text>
<text text-anchor="middle" x="1425" y="-80.5" font-family="Helvetica,sans-Serif" font-size="10.00">::getInputBitBufferSpace</text>
</a>
</g>
</g>
<!-- Node9&#45;&gt;Node10 -->
<g id="edge12" class="edge">
<title>Node9&#45;&gt;Node10</title>
<path fill="none" stroke="midnightblue" d="M1310.23,-72.63C1322.15,-74.29 1334.87,-76.06 1347.32,-77.8"/>
<polygon fill="midnightblue" stroke="midnightblue" points="1346.84,-81.27 1357.23,-79.18 1347.81,-74.33 1346.84,-81.27"/>
</g>
<!-- Node11 -->
<g id="node11" class="node">
<title>Node11</title>
<g id="a_node11"><a xlink:href="classkazoo_1_1BinaryStream.html#a12a1666a4c0b0ddfdc512a50f09f5975" target="_top" xlink:title=" ">
<polygon fill="none" stroke="black" points="1346,-24.5 1346,-54.5 1504,-54.5 1504,-24.5 1346,-24.5"/>
<text text-anchor="start" x="1354" y="-42.5" font-family="Helvetica,sans-Serif" font-size="10.00">kazoo::BinaryStream</text>
<text text-anchor="middle" x="1425" y="-31.5" font-family="Helvetica,sans-Serif" font-size="10.00">::getOutputBitBufferUsedBits</text>
</a>
</g>
</g>
<!-- Node9&#45;&gt;Node11 -->
<g id="edge13" class="edge">
<title>Node9&#45;&gt;Node11</title>
<path fill="none" stroke="midnightblue" d="M1310.23,-56.04C1318.43,-54.84 1327,-53.6 1335.6,-52.35"/>
<polygon fill="midnightblue" stroke="midnightblue" points="1336.31,-55.78 1345.7,-50.88 1335.3,-48.86 1336.31,-55.78"/>
</g>
<!-- Node12 -->
<g id="node12" class="node">
<title>Node12</title>
<g id="a_node12"><a xlink:href="classkazoo_1_1BinaryStream.html#a32b6f202b2627b75ace2e6c9c07726aa" target="_top" xlink:title="Get the byte alignment status of the stream.">
<polygon fill="none" stroke="black" points="1540,-24.5 1540,-54.5 1658,-54.5 1658,-24.5 1540,-24.5"/>
<text text-anchor="start" x="1548" y="-42.5" font-family="Helvetica,sans-Serif" font-size="10.00">kazoo::BinaryStream</text>
<text text-anchor="middle" x="1599" y="-31.5" font-family="Helvetica,sans-Serif" font-size="10.00">::isByteAligned</text>
</a>
</g>
</g>
<!-- Node11&#45;&gt;Node12 -->
<g id="edge14" class="edge">
<title>Node11&#45;&gt;Node12</title>
<path fill="none" stroke="midnightblue" d="M1504.2,-39.5C1512.72,-39.5 1521.34,-39.5 1529.72,-39.5"/>
<polygon fill="midnightblue" stroke="midnightblue" points="1529.81,-43 1539.81,-39.5 1529.81,-36 1529.81,-43"/>
</g>
<!-- Node15 -->
<g id="node15" class="node">
<title>Node15</title>
<g id="a_node15"><a xlink:href="classkazoo_1_1BinaryStream.html#a9cf1c3eb54ace654061894c7278b6d32" target="_top" xlink:title="Get a const reference to the underlying stream data.">
<polygon fill="none" stroke="black" points="1031,-323.5 1031,-353.5 1156,-353.5 1156,-323.5 1031,-323.5"/>
<text text-anchor="start" x="1039" y="-341.5" font-family="Helvetica,sans-Serif" font-size="10.00">kazoo::BinaryStream</text>
<text text-anchor="middle" x="1093.5" y="-330.5" font-family="Helvetica,sans-Serif" font-size="10.00">::getStreamDataConst</text>
</a>
</g>
</g>
<!-- Node14&#45;&gt;Node15 -->
<g id="edge17" class="edge">
<title>Node14&#45;&gt;Node15</title>
<path fill="none" stroke="midnightblue" d="M995.15,-338.5C1003.74,-338.5 1012.38,-338.5 1020.77,-338.5"/>
<polygon fill="midnightblue" stroke="midnightblue" points="1020.86,-342 1030.86,-338.5 1020.86,-335 1020.86,-342"/>
</g>
</g>
</svg>
