<?xml version="1.0" encoding="UTF-8" standalone="no"?>
<!DOCTYPE svg PUBLIC "-//W3C//DTD SVG 1.1//EN"
 "http://www.w3.org/Graphics/SVG/1.1/DTD/svg11.dtd">
<!-- Generated by graphviz version 2.43.0 (0)
 -->
<!-- Title: sock::TcpSocketServer::init Pages: 1 -->
<svg width="455pt" height="173pt"
 viewBox="0.00 0.00 455.00 173.00" xmlns="http://www.w3.org/2000/svg" xmlns:xlink="http://www.w3.org/1999/xlink">
<g id="graph0" class="graph" transform="scale(1 1) rotate(0) translate(4 169)">
<title>sock::TcpSocketServer::init</title>
<!-- Node1 -->
<g id="node1" class="node">
<title>Node1</title>
<g id="a_node1"><a xlink:title=" ">
<polygon fill="#bfbfbf" stroke="black" points="0,-67.5 0,-97.5 125,-97.5 125,-67.5 0,-67.5"/>
<text text-anchor="start" x="8" y="-85.5" font-family="Helvetica,sans-Serif" font-size="10.00">sock::TcpSocketServer</text>
<text text-anchor="middle" x="62.5" y="-74.5" font-family="Helvetica,sans-Serif" font-size="10.00">::init</text>
</a>
</g>
</g>
<!-- Node2 -->
<g id="node2" class="node">
<title>Node2</title>
<g id="a_node2"><a xlink:href="classsock_1_1TcpSocketServer.html#a1837852a28a16b70332eca99ecc4dec6" target="_top" xlink:title=" ">
<polygon fill="none" stroke="black" points="161,-116.5 161,-146.5 286,-146.5 286,-116.5 161,-116.5"/>
<text text-anchor="start" x="169" y="-134.5" font-family="Helvetica,sans-Serif" font-size="10.00">sock::TcpSocketServer</text>
<text text-anchor="middle" x="223.5" y="-123.5" font-family="Helvetica,sans-Serif" font-size="10.00">::bind</text>
</a>
</g>
</g>
<!-- Node1&#45;&gt;Node2 -->
<g id="edge1" class="edge">
<title>Node1&#45;&gt;Node2</title>
<path fill="none" stroke="midnightblue" d="M112.5,-97.6C128.75,-102.61 147,-108.23 163.89,-113.44"/>
<polygon fill="midnightblue" stroke="midnightblue" points="163.07,-116.85 173.66,-116.45 165.13,-110.16 163.07,-116.85"/>
</g>
<!-- Node4 -->
<g id="node4" class="node">
<title>Node4</title>
<g id="a_node4"><a xlink:href="classsock_1_1TcpSocketServer.html#a5addbd19e4629d878f07eb6fad51ed6d" target="_top" xlink:title=" ">
<polygon fill="none" stroke="black" points="161,-67.5 161,-97.5 286,-97.5 286,-67.5 161,-67.5"/>
<text text-anchor="start" x="169" y="-85.5" font-family="Helvetica,sans-Serif" font-size="10.00">sock::TcpSocketServer</text>
<text text-anchor="middle" x="223.5" y="-74.5" font-family="Helvetica,sans-Serif" font-size="10.00">::create</text>
</a>
</g>
</g>
<!-- Node1&#45;&gt;Node4 -->
<g id="edge4" class="edge">
<title>Node1&#45;&gt;Node4</title>
<path fill="none" stroke="midnightblue" d="M125.43,-82.5C133.67,-82.5 142.18,-82.5 150.58,-82.5"/>
<polygon fill="midnightblue" stroke="midnightblue" points="150.74,-86 160.74,-82.5 150.74,-79 150.74,-86"/>
</g>
<!-- Node5 -->
<g id="node5" class="node">
<title>Node5</title>
<g id="a_node5"><a xlink:href="classsock_1_1TcpSocketServer.html#aeedccb9e66f6b88db487d21d88b39800" target="_top" xlink:title=" ">
<polygon fill="none" stroke="black" points="161,-0.5 161,-30.5 286,-30.5 286,-0.5 161,-0.5"/>
<text text-anchor="start" x="169" y="-18.5" font-family="Helvetica,sans-Serif" font-size="10.00">sock::TcpSocketServer</text>
<text text-anchor="middle" x="223.5" y="-7.5" font-family="Helvetica,sans-Serif" font-size="10.00">::listen</text>
</a>
</g>
</g>
<!-- Node1&#45;&gt;Node5 -->
<g id="edge6" class="edge">
<title>Node1&#45;&gt;Node5</title>
<path fill="none" stroke="midnightblue" d="M99.18,-67.46C122.22,-57.76 152.39,-45.04 177.13,-34.62"/>
<polygon fill="midnightblue" stroke="midnightblue" points="178.81,-37.71 186.66,-30.6 176.09,-31.26 178.81,-37.71"/>
</g>
<!-- Node2&#45;&gt;Node2 -->
<g id="edge2" class="edge">
<title>Node2&#45;&gt;Node2</title>
<path fill="none" stroke="midnightblue" d="M195.62,-146.66C188.89,-156.06 198.19,-165 223.5,-165 238.92,-165 248.4,-161.68 251.93,-156.96"/>
<polygon fill="midnightblue" stroke="midnightblue" points="255.41,-156.46 251.38,-146.66 248.42,-156.83 255.41,-156.46"/>
</g>
<!-- Node3 -->
<g id="node3" class="node">
<title>Node3</title>
<g id="a_node3"><a xlink:href="classsock_1_1TcpSocketServer.html#a67fd24b7ac134d195a0c0bb112834602" target="_top" xlink:title=" ">
<polygon fill="none" stroke="black" points="322,-67.5 322,-97.5 447,-97.5 447,-67.5 322,-67.5"/>
<text text-anchor="start" x="330" y="-85.5" font-family="Helvetica,sans-Serif" font-size="10.00">sock::TcpSocketServer</text>
<text text-anchor="middle" x="384.5" y="-74.5" font-family="Helvetica,sans-Serif" font-size="10.00">::isValid</text>
</a>
</g>
</g>
<!-- Node2&#45;&gt;Node3 -->
<g id="edge3" class="edge">
<title>Node2&#45;&gt;Node3</title>
<path fill="none" stroke="midnightblue" d="M273.5,-116.4C289.75,-111.39 308,-105.77 324.89,-100.56"/>
<polygon fill="midnightblue" stroke="midnightblue" points="326.13,-103.84 334.66,-97.55 324.07,-97.15 326.13,-103.84"/>
</g>
<!-- Node4&#45;&gt;Node3 -->
<g id="edge5" class="edge">
<title>Node4&#45;&gt;Node3</title>
<path fill="none" stroke="midnightblue" d="M286.43,-82.5C294.67,-82.5 303.18,-82.5 311.58,-82.5"/>
<polygon fill="midnightblue" stroke="midnightblue" points="311.74,-86 321.74,-82.5 311.74,-79 311.74,-86"/>
</g>
<!-- Node5&#45;&gt;Node3 -->
<g id="edge7" class="edge">
<title>Node5&#45;&gt;Node3</title>
<path fill="none" stroke="midnightblue" d="M260.18,-30.54C283.22,-40.24 313.39,-52.96 338.13,-63.38"/>
<polygon fill="midnightblue" stroke="midnightblue" points="337.09,-66.74 347.66,-67.4 339.81,-60.29 337.09,-66.74"/>
</g>
<!-- Node5&#45;&gt;Node5 -->
<g id="edge8" class="edge">
<title>Node5&#45;&gt;Node5</title>
<path fill="none" stroke="midnightblue" d="M195.62,-30.66C188.89,-40.06 198.19,-49 223.5,-49 238.92,-49 248.4,-45.68 251.93,-40.96"/>
<polygon fill="midnightblue" stroke="midnightblue" points="255.41,-40.46 251.38,-30.66 248.42,-40.83 255.41,-40.46"/>
</g>
</g>
</svg>
