<?xml version="1.0" encoding="UTF-8" standalone="no"?>
<!DOCTYPE svg PUBLIC "-//W3C//DTD SVG 1.1//EN"
 "http://www.w3.org/Graphics/SVG/1.1/DTD/svg11.dtd">
<!-- Generated by graphviz version 2.43.0 (0)
 -->
<!-- Title: kazoo::WaveTools::addGaussianNoise Pages: 1 -->
<svg width="268pt" height="66pt"
 viewBox="0.00 0.00 268.00 66.00" xmlns="http://www.w3.org/2000/svg" xmlns:xlink="http://www.w3.org/1999/xlink">
<g id="graph0" class="graph" transform="scale(1 1) rotate(0) translate(4 62)">
<title>kazoo::WaveTools::addGaussianNoise</title>
<!-- Node1 -->
<g id="node1" class="node">
<title>Node1</title>
<g id="a_node1"><a xlink:title=" ">
<polygon fill="#bfbfbf" stroke="black" points="88,-14 88,-44 260,-44 260,-14 88,-14"/>
<text text-anchor="start" x="96" y="-32" font-family="Helvetica,sans-Serif" font-size="10.00">kazoo::WaveTools::addGaussian</text>
<text text-anchor="middle" x="174" y="-21" font-family="Helvetica,sans-Serif" font-size="10.00">Noise</text>
</a>
</g>
</g>
<!-- Node2 -->
<g id="node2" class="node">
<title>Node2</title>
<g id="a_node2"><a xlink:href="fft_8test_8cpp.html#a392676b8963e072b9d50a9110aa93a8f" target="_top" xlink:title=" ">
<polygon fill="none" stroke="black" points="5.5,-38.5 5.5,-57.5 46.5,-57.5 46.5,-38.5 5.5,-38.5"/>
<text text-anchor="middle" x="26" y="-45.5" font-family="Helvetica,sans-Serif" font-size="10.00">TEST</text>
</a>
</g>
</g>
<!-- Node1&#45;&gt;Node2 -->
<g id="edge1" class="edge">
<title>Node1&#45;&gt;Node2</title>
<path fill="none" stroke="midnightblue" d="M77.71,-41.4C66.08,-42.91 55.29,-44.32 46.67,-45.44"/>
<polygon fill="midnightblue" stroke="midnightblue" points="78.18,-44.87 87.65,-40.11 77.28,-37.93 78.18,-44.87"/>
</g>
<!-- Node3 -->
<g id="node3" class="node">
<title>Node3</title>
<g id="a_node3"><a xlink:href="k1__model_8test_8cpp.html#aa4c14d585265c7963b351d63fd8aad14" target="_top" xlink:title=" ">
<polygon fill="none" stroke="black" points="0,-0.5 0,-19.5 52,-19.5 52,-0.5 0,-0.5"/>
<text text-anchor="middle" x="26" y="-7.5" font-family="Helvetica,sans-Serif" font-size="10.00">TEST_F</text>
</a>
</g>
</g>
<!-- Node1&#45;&gt;Node3 -->
<g id="edge2" class="edge">
<title>Node1&#45;&gt;Node3</title>
<path fill="none" stroke="midnightblue" d="M77.45,-16.57C68.22,-15.36 59.52,-14.23 52.03,-13.26"/>
<polygon fill="midnightblue" stroke="midnightblue" points="77.28,-20.07 87.65,-17.89 78.18,-13.13 77.28,-20.07"/>
</g>
</g>
</svg>
