<?xml version="1.0" encoding="UTF-8" standalone="no"?>
<!DOCTYPE svg PUBLIC "-//W3C//DTD SVG 1.1//EN"
 "http://www.w3.org/Graphics/SVG/1.1/DTD/svg11.dtd">
<!-- Generated by graphviz version 2.43.0 (0)
 -->
<!-- Title: kazoo::IAudioChannel::addSample Pages: 1 -->
<svg width="506pt" height="298pt"
 viewBox="0.00 0.00 506.00 297.50" xmlns="http://www.w3.org/2000/svg" xmlns:xlink="http://www.w3.org/1999/xlink">
<g id="graph0" class="graph" transform="scale(1 1) rotate(0) translate(4 293.5)">
<title>kazoo::IAudioChannel::addSample</title>
<!-- Node1 -->
<g id="node1" class="node">
<title>Node1</title>
<g id="a_node1"><a xlink:title=" ">
<polygon fill="#bfbfbf" stroke="black" points="376,-122.5 376,-152.5 498,-152.5 498,-122.5 376,-122.5"/>
<text text-anchor="start" x="384" y="-140.5" font-family="Helvetica,sans-Serif" font-size="10.00">kazoo::IAudioChannel</text>
<text text-anchor="middle" x="437" y="-129.5" font-family="Helvetica,sans-Serif" font-size="10.00">::addSample</text>
</a>
</g>
</g>
<!-- Node2 -->
<g id="node2" class="node">
<title>Node2</title>
<g id="a_node2"><a xlink:href="classkazoo_1_1WaveTools.html#a65418462caffb3dea70277e332a8a388" target="_top" xlink:title=" ">
<polygon fill="none" stroke="black" points="167.5,-245.5 167.5,-275.5 339.5,-275.5 339.5,-245.5 167.5,-245.5"/>
<text text-anchor="start" x="175.5" y="-263.5" font-family="Helvetica,sans-Serif" font-size="10.00">kazoo::WaveTools::addGaussian</text>
<text text-anchor="middle" x="253.5" y="-252.5" font-family="Helvetica,sans-Serif" font-size="10.00">Noise</text>
</a>
</g>
</g>
<!-- Node1&#45;&gt;Node2 -->
<g id="edge1" class="edge">
<title>Node1&#45;&gt;Node2</title>
<path fill="none" stroke="midnightblue" d="M419.38,-160.72C402.04,-183.29 372.83,-216.94 340,-236.5 334.3,-239.89 328.11,-242.82 321.74,-245.35"/>
<polygon fill="midnightblue" stroke="midnightblue" points="422.22,-162.76 425.43,-152.66 416.63,-158.56 422.22,-162.76"/>
</g>
<!-- Node5 -->
<g id="node5" class="node">
<title>Node5</title>
<g id="a_node5"><a xlink:href="classkazoo_1_1model_1_1K1Model_1_1Model.html#a48bbea64f88ce7c897761b5f45af1496" target="_top" xlink:title=" ">
<polygon fill="none" stroke="black" points="188,-196.5 188,-226.5 319,-226.5 319,-196.5 188,-196.5"/>
<text text-anchor="start" x="196" y="-214.5" font-family="Helvetica,sans-Serif" font-size="10.00">kazoo::model::K1Model</text>
<text text-anchor="middle" x="253.5" y="-203.5" font-family="Helvetica,sans-Serif" font-size="10.00">::Model::encodeSymbol</text>
</a>
</g>
</g>
<!-- Node1&#45;&gt;Node5 -->
<g id="edge4" class="edge">
<title>Node1&#45;&gt;Node5</title>
<path fill="none" stroke="midnightblue" d="M401.67,-157.59C383.72,-167.52 361.13,-179.14 340,-187.5 331.83,-190.73 323.06,-193.72 314.36,-196.4"/>
<polygon fill="midnightblue" stroke="midnightblue" points="403.6,-160.52 410.6,-152.57 400.17,-154.41 403.6,-160.52"/>
</g>
<!-- Node6 -->
<g id="node6" class="node">
<title>Node6</title>
<g id="a_node6"><a xlink:href="classkazoo_1_1model_1_1K2PeakModel_1_1Model.html#acd47e2405db17423328f2a8efce1c131" target="_top" xlink:title=" ">
<polygon fill="none" stroke="black" points="176,-147.5 176,-177.5 331,-177.5 331,-147.5 176,-147.5"/>
<text text-anchor="start" x="184" y="-165.5" font-family="Helvetica,sans-Serif" font-size="10.00">kazoo::model::K2PeakModel</text>
<text text-anchor="middle" x="253.5" y="-154.5" font-family="Helvetica,sans-Serif" font-size="10.00">::Model::encodeSymbol</text>
</a>
</g>
</g>
<!-- Node1&#45;&gt;Node6 -->
<g id="edge5" class="edge">
<title>Node1&#45;&gt;Node6</title>
<path fill="none" stroke="midnightblue" d="M365.91,-147.15C354.48,-148.73 342.58,-150.37 331.01,-151.96"/>
<polygon fill="midnightblue" stroke="midnightblue" points="366.39,-150.62 375.82,-145.79 365.43,-143.69 366.39,-150.62"/>
</g>
<!-- Node7 -->
<g id="node7" class="node">
<title>Node7</title>
<g id="a_node7"><a xlink:href="classkazoo_1_1model_1_1K3ReasonableModel_1_1K3Model.html#a9daa359b10d51c7759629b07c9b56133" target="_top" xlink:title=" ">
<polygon fill="none" stroke="black" points="167,-98.5 167,-128.5 340,-128.5 340,-98.5 167,-98.5"/>
<text text-anchor="start" x="175" y="-116.5" font-family="Helvetica,sans-Serif" font-size="10.00">kazoo::model::K3Reasonable</text>
<text text-anchor="middle" x="253.5" y="-105.5" font-family="Helvetica,sans-Serif" font-size="10.00">Model::K3Model::encodeSymbol</text>
</a>
</g>
</g>
<!-- Node1&#45;&gt;Node7 -->
<g id="edge6" class="edge">
<title>Node1&#45;&gt;Node7</title>
<path fill="none" stroke="midnightblue" d="M365.72,-128.21C357.32,-127.1 348.68,-125.95 340.1,-124.82"/>
<polygon fill="midnightblue" stroke="midnightblue" points="365.44,-131.7 375.82,-129.54 366.36,-124.76 365.44,-131.7"/>
</g>
<!-- Node8 -->
<g id="node8" class="node">
<title>Node8</title>
<g id="a_node8"><a xlink:href="classkazoo_1_1WaveTools.html#a3d2c465dabac546fb5858133e3c79bd1" target="_top" xlink:title="Add a sine wave to the audio channel.">
<polygon fill="none" stroke="black" points="177.5,-49.5 177.5,-79.5 329.5,-79.5 329.5,-49.5 177.5,-49.5"/>
<text text-anchor="start" x="185.5" y="-67.5" font-family="Helvetica,sans-Serif" font-size="10.00">kazoo::WaveTools::generate</text>
<text text-anchor="middle" x="253.5" y="-56.5" font-family="Helvetica,sans-Serif" font-size="10.00">SinWaveSamples</text>
</a>
</g>
</g>
<!-- Node1&#45;&gt;Node8 -->
<g id="edge7" class="edge">
<title>Node1&#45;&gt;Node8</title>
<path fill="none" stroke="midnightblue" d="M400.01,-117.58C382.28,-108.27 360.38,-97.5 340,-89.5 330.93,-85.94 321.15,-82.62 311.55,-79.63"/>
<polygon fill="midnightblue" stroke="midnightblue" points="398.4,-120.69 408.87,-122.3 401.69,-114.51 398.4,-120.69"/>
</g>
<!-- Node11 -->
<g id="node11" class="node">
<title>Node11</title>
<g id="a_node11"><a xlink:href="classkazoo_1_1WavFile.html#a74fbd1c97919038da5f87bbd830ced41" target="_top" xlink:title=" ">
<polygon fill="none" stroke="black" points="184.5,-0.5 184.5,-30.5 322.5,-30.5 322.5,-0.5 184.5,-0.5"/>
<text text-anchor="start" x="192.5" y="-18.5" font-family="Helvetica,sans-Serif" font-size="10.00">kazoo::WavFile::populate</text>
<text text-anchor="middle" x="253.5" y="-7.5" font-family="Helvetica,sans-Serif" font-size="10.00">AudioChannel</text>
</a>
</g>
</g>
<!-- Node1&#45;&gt;Node11 -->
<g id="edge10" class="edge">
<title>Node1&#45;&gt;Node11</title>
<path fill="none" stroke="midnightblue" d="M419.33,-114.52C401.95,-92.18 372.71,-58.87 340,-39.5 334.16,-36.04 327.81,-33.07 321.28,-30.5"/>
<polygon fill="midnightblue" stroke="midnightblue" points="416.55,-116.65 425.39,-122.49 422.13,-112.41 416.55,-116.65"/>
</g>
<!-- Node3 -->
<g id="node3" class="node">
<title>Node3</title>
<g id="a_node3"><a xlink:href="fft_8test_8cpp.html#a392676b8963e072b9d50a9110aa93a8f" target="_top" xlink:title=" ">
<polygon fill="none" stroke="black" points="45,-270 45,-289 86,-289 86,-270 45,-270"/>
<text text-anchor="middle" x="65.5" y="-277" font-family="Helvetica,sans-Serif" font-size="10.00">TEST</text>
</a>
</g>
</g>
<!-- Node2&#45;&gt;Node3 -->
<g id="edge2" class="edge">
<title>Node2&#45;&gt;Node3</title>
<path fill="none" stroke="midnightblue" d="M157.1,-270.25C130.21,-272.99 103.6,-275.71 86.25,-277.48"/>
<polygon fill="midnightblue" stroke="midnightblue" points="157.8,-273.69 167.39,-269.19 157.09,-266.73 157.8,-273.69"/>
</g>
<!-- Node4 -->
<g id="node4" class="node">
<title>Node4</title>
<g id="a_node4"><a xlink:href="k1__model_8test_8cpp.html#aa4c14d585265c7963b351d63fd8aad14" target="_top" xlink:title=" ">
<polygon fill="none" stroke="black" points="39.5,-232 39.5,-251 91.5,-251 91.5,-232 39.5,-232"/>
<text text-anchor="middle" x="65.5" y="-239" font-family="Helvetica,sans-Serif" font-size="10.00">TEST_F</text>
</a>
</g>
</g>
<!-- Node2&#45;&gt;Node4 -->
<g id="edge3" class="edge">
<title>Node2&#45;&gt;Node4</title>
<path fill="none" stroke="midnightblue" d="M157.36,-250.78C133.08,-248.3 108.99,-245.84 91.72,-244.08"/>
<polygon fill="midnightblue" stroke="midnightblue" points="157.09,-254.27 167.39,-251.81 157.8,-247.31 157.09,-254.27"/>
</g>
<!-- Node9 -->
<g id="node9" class="node">
<title>Node9</title>
<g id="a_node9"><a xlink:href="classkazoo_1_1model_1_1Testing_1_1Model.html#af0a74648149323c1ef118057e4a5ac83" target="_top" xlink:title=" ">
<polygon fill="none" stroke="black" points="0,-91.5 0,-121.5 131,-121.5 131,-91.5 0,-91.5"/>
<text text-anchor="start" x="8" y="-109.5" font-family="Helvetica,sans-Serif" font-size="10.00">kazoo::model::Testing</text>
<text text-anchor="middle" x="65.5" y="-98.5" font-family="Helvetica,sans-Serif" font-size="10.00">::Model::encodeSymbol</text>
</a>
</g>
</g>
<!-- Node8&#45;&gt;Node9 -->
<g id="edge8" class="edge">
<title>Node8&#45;&gt;Node9</title>
<path fill="none" stroke="midnightblue" d="M175.72,-81.84C160.89,-85.19 145.49,-88.66 131.1,-91.91"/>
<polygon fill="midnightblue" stroke="midnightblue" points="176.89,-85.16 185.88,-79.54 175.35,-78.33 176.89,-85.16"/>
</g>
<!-- Node10 -->
<g id="node10" class="node">
<title>Node10</title>
<g id="a_node10"><a xlink:href="fft_8test_8cpp.html#a1e216dd3d226a8a6f3ff9f29876b37d3" target="_top" xlink:title=" ">
<polygon fill="none" stroke="black" points="45,-53 45,-72 86,-72 86,-53 45,-53"/>
<text text-anchor="middle" x="65.5" y="-60" font-family="Helvetica,sans-Serif" font-size="10.00">TEST</text>
</a>
</g>
</g>
<!-- Node8&#45;&gt;Node10 -->
<g id="edge9" class="edge">
<title>Node8&#45;&gt;Node10</title>
<path fill="none" stroke="midnightblue" d="M167.23,-63.58C137.11,-63.26 105.9,-62.92 86.36,-62.71"/>
<polygon fill="midnightblue" stroke="midnightblue" points="167.35,-67.08 177.38,-63.69 167.42,-60.08 167.35,-67.08"/>
</g>
<!-- Node12 -->
<g id="node12" class="node">
<title>Node12</title>
<g id="a_node12"><a xlink:href="classkazoo_1_1TranslationLayer.html#a76f09d5f7213679a6656aa9473f8f2ab" target="_top" xlink:title=" ">
<polygon fill="none" stroke="black" points="0,-0.5 0,-30.5 131,-30.5 131,-0.5 0,-0.5"/>
<text text-anchor="start" x="8" y="-18.5" font-family="Helvetica,sans-Serif" font-size="10.00">kazoo::TranslationLayer</text>
<text text-anchor="middle" x="65.5" y="-7.5" font-family="Helvetica,sans-Serif" font-size="10.00">::loadAndDecodeWav</text>
</a>
</g>
</g>
<!-- Node11&#45;&gt;Node12 -->
<g id="edge11" class="edge">
<title>Node11&#45;&gt;Node12</title>
<path fill="none" stroke="midnightblue" d="M174.03,-15.5C159.79,-15.5 145.08,-15.5 131.29,-15.5"/>
<polygon fill="midnightblue" stroke="midnightblue" points="174.3,-19 184.3,-15.5 174.3,-12 174.3,-19"/>
</g>
</g>
</svg>
