<?xml version="1.0" encoding="UTF-8" standalone="no"?>
<!DOCTYPE svg PUBLIC "-//W3C//DTD SVG 1.1//EN"
 "http://www.w3.org/Graphics/SVG/1.1/DTD/svg11.dtd">
<!-- Generated by graphviz version 2.43.0 (0)
 -->
<!-- Title: kazoo::WaveTools::generateSinWaveSamples Pages: 1 -->
<svg width="327pt" height="78pt"
 viewBox="0.00 0.00 327.00 77.50" xmlns="http://www.w3.org/2000/svg" xmlns:xlink="http://www.w3.org/1999/xlink">
<g id="graph0" class="graph" transform="scale(1 1) rotate(0) translate(4 73.5)">
<title>kazoo::WaveTools::generateSinWaveSamples</title>
<!-- Node1 -->
<g id="node1" class="node">
<title>Node1</title>
<g id="a_node1"><a xlink:title="Add a sine wave to the audio channel.">
<polygon fill="#bfbfbf" stroke="black" points="167,-17 167,-47 319,-47 319,-17 167,-17"/>
<text text-anchor="start" x="175" y="-35" font-family="Helvetica,sans-Serif" font-size="10.00">kazoo::WaveTools::generate</text>
<text text-anchor="middle" x="243" y="-24" font-family="Helvetica,sans-Serif" font-size="10.00">SinWaveSamples</text>
</a>
</g>
</g>
<!-- Node2 -->
<g id="node2" class="node">
<title>Node2</title>
<g id="a_node2"><a xlink:href="classkazoo_1_1model_1_1Testing_1_1Model.html#af0a74648149323c1ef118057e4a5ac83" target="_top" xlink:title=" ">
<polygon fill="none" stroke="black" points="0,-39 0,-69 131,-69 131,-39 0,-39"/>
<text text-anchor="start" x="8" y="-57" font-family="Helvetica,sans-Serif" font-size="10.00">kazoo::model::Testing</text>
<text text-anchor="middle" x="65.5" y="-46" font-family="Helvetica,sans-Serif" font-size="10.00">::Model::encodeSymbol</text>
</a>
</g>
</g>
<!-- Node1&#45;&gt;Node2 -->
<g id="edge1" class="edge">
<title>Node1&#45;&gt;Node2</title>
<path fill="none" stroke="midnightblue" d="M156.71,-42.69C148.07,-43.77 139.4,-44.86 131.04,-45.91"/>
<polygon fill="midnightblue" stroke="midnightblue" points="157.32,-46.14 166.81,-41.43 156.45,-39.2 157.32,-46.14"/>
</g>
<!-- Node3 -->
<g id="node3" class="node">
<title>Node3</title>
<g id="a_node3"><a xlink:href="fft_8test_8cpp.html#a1e216dd3d226a8a6f3ff9f29876b37d3" target="_top" xlink:title=" ">
<polygon fill="none" stroke="black" points="45,-0.5 45,-19.5 86,-19.5 86,-0.5 45,-0.5"/>
<text text-anchor="middle" x="65.5" y="-7.5" font-family="Helvetica,sans-Serif" font-size="10.00">TEST</text>
</a>
</g>
</g>
<!-- Node1&#45;&gt;Node3 -->
<g id="edge2" class="edge">
<title>Node1&#45;&gt;Node3</title>
<path fill="none" stroke="midnightblue" d="M156.7,-21.31C130.23,-17.99 103.47,-14.63 86.05,-12.45"/>
<polygon fill="midnightblue" stroke="midnightblue" points="156.45,-24.8 166.81,-22.57 157.32,-17.86 156.45,-24.8"/>
</g>
</g>
</svg>
