<?xml version="1.0" encoding="UTF-8" standalone="no"?>
<!DOCTYPE svg PUBLIC "-//W3C//DTD SVG 1.1//EN"
 "http://www.w3.org/Graphics/SVG/1.1/DTD/svg11.dtd">
<!-- Generated by graphviz version 2.43.0 (0)
 -->
<!-- Title: kazoo::Deframer Pages: 1 -->
<svg width="343pt" height="281pt"
 viewBox="0.00 0.00 343.00 281.00" xmlns="http://www.w3.org/2000/svg" xmlns:xlink="http://www.w3.org/1999/xlink">
<g id="graph0" class="graph" transform="scale(1 1) rotate(0) translate(4 277)">
<title>kazoo::Deframer</title>
<!-- Node1 -->
<g id="node1" class="node">
<title>Node1</title>
<g id="a_node1"><a xlink:title=" ">
<polygon fill="#bfbfbf" stroke="black" points="83.5,-0.5 83.5,-167.5 190.5,-167.5 190.5,-0.5 83.5,-0.5"/>
<text text-anchor="middle" x="137" y="-155.5" font-family="Helvetica,sans-Serif" font-size="10.00">kazoo::Deframer</text>
<polyline fill="none" stroke="black" points="83.5,-148.5 190.5,-148.5 "/>
<text text-anchor="middle" x="137" y="-136.5" font-family="Helvetica,sans-Serif" font-size="10.00"> </text>
<polyline fill="none" stroke="black" points="83.5,-129.5 190.5,-129.5 "/>
<text text-anchor="start" x="91.5" y="-117.5" font-family="Helvetica,sans-Serif" font-size="10.00">+ Deframer()</text>
<text text-anchor="start" x="91.5" y="-106.5" font-family="Helvetica,sans-Serif" font-size="10.00">+ ~Deframer()</text>
<text text-anchor="start" x="91.5" y="-95.5" font-family="Helvetica,sans-Serif" font-size="10.00">+ getFrame()</text>
<text text-anchor="start" x="91.5" y="-84.5" font-family="Helvetica,sans-Serif" font-size="10.00">+ processInput()</text>
<text text-anchor="start" x="91.5" y="-73.5" font-family="Helvetica,sans-Serif" font-size="10.00">+ reset()</text>
<text text-anchor="start" x="91.5" y="-62.5" font-family="Helvetica,sans-Serif" font-size="10.00">&#45; changeState()</text>
<text text-anchor="start" x="91.5" y="-51.5" font-family="Helvetica,sans-Serif" font-size="10.00">&#45; findFrameData()</text>
<text text-anchor="start" x="91.5" y="-40.5" font-family="Helvetica,sans-Serif" font-size="10.00">&#45; findFrameEnd()</text>
<text text-anchor="start" x="91.5" y="-29.5" font-family="Helvetica,sans-Serif" font-size="10.00">&#45; findFrameSize()</text>
<text text-anchor="start" x="91.5" y="-18.5" font-family="Helvetica,sans-Serif" font-size="10.00">&#45; findFrameStart()</text>
<text text-anchor="start" x="91.5" y="-7.5" font-family="Helvetica,sans-Serif" font-size="10.00">&#45; printFrameData()</text>
</a>
</g>
</g>
<!-- Node2 -->
<g id="node2" class="node">
<title>Node2</title>
<g id="a_node2"><a xlink:title=" ">
<polygon fill="none" stroke="black" points="0,-215.5 0,-272.5 42,-272.5 42,-215.5 0,-215.5"/>
<text text-anchor="middle" x="21" y="-260.5" font-family="Helvetica,sans-Serif" font-size="10.00">State</text>
<polyline fill="none" stroke="black" points="0,-253.5 42,-253.5 "/>
<text text-anchor="middle" x="21" y="-241.5" font-family="Helvetica,sans-Serif" font-size="10.00"> </text>
<polyline fill="none" stroke="black" points="0,-234.5 42,-234.5 "/>
<text text-anchor="middle" x="21" y="-222.5" font-family="Helvetica,sans-Serif" font-size="10.00"> </text>
</a>
</g>
</g>
<!-- Node2&#45;&gt;Node1 -->
<g id="edge1" class="edge">
<title>Node2&#45;&gt;Node1</title>
<path fill="none" stroke="#404040" d="M35.16,-215.42C40.4,-205.88 46.63,-195.26 53,-186 60,-175.82 67.81,-165.42 75.76,-155.36"/>
<polygon fill="none" stroke="#404040" points="75.89,-155.19 76.53,-148.01 83.4,-145.83 82.77,-153.01 75.89,-155.19"/>
<text text-anchor="middle" x="71.5" y="-189" font-family="Helvetica,sans-Serif" font-size="10.00"> &#45;state_</text>
</g>
<!-- Node3 -->
<g id="node3" class="node">
<title>Node3</title>
<g id="a_node3"><a xlink:title=" ">
<polygon fill="none" stroke="black" points="60,-215.5 60,-272.5 116,-272.5 116,-215.5 60,-215.5"/>
<text text-anchor="middle" x="88" y="-260.5" font-family="Helvetica,sans-Serif" font-size="10.00">uint16_t</text>
<polyline fill="none" stroke="black" points="60,-253.5 116,-253.5 "/>
<text text-anchor="middle" x="88" y="-241.5" font-family="Helvetica,sans-Serif" font-size="10.00"> </text>
<polyline fill="none" stroke="black" points="60,-234.5 116,-234.5 "/>
<text text-anchor="middle" x="88" y="-222.5" font-family="Helvetica,sans-Serif" font-size="10.00"> </text>
</a>
</g>
</g>
<!-- Node3&#45;&gt;Node1 -->
<g id="edge2" class="edge">
<title>Node3&#45;&gt;Node1</title>
<path fill="none" stroke="#404040" d="M91.09,-215.49C92.49,-206.04 94.41,-195.47 97,-186 97.62,-183.75 98.26,-181.48 98.94,-179.2"/>
<polygon fill="none" stroke="#404040" points="98.95,-179.18 96.94,-172.25 102.56,-167.73 104.57,-174.66 98.95,-179.18"/>
<text text-anchor="middle" x="130.5" y="-189" font-family="Helvetica,sans-Serif" font-size="10.00"> &#45;frame_size_</text>
</g>
<!-- Node4 -->
<g id="node4" class="node">
<title>Node4</title>
<g id="a_node4"><a xlink:title=" ">
<polygon fill="none" stroke="black" points="134,-215.5 134,-272.5 238,-272.5 238,-215.5 134,-215.5"/>
<text text-anchor="middle" x="186" y="-260.5" font-family="Helvetica,sans-Serif" font-size="10.00">vector&lt; uint8_t &gt;</text>
<polyline fill="none" stroke="black" points="134,-253.5 238,-253.5 "/>
<text text-anchor="middle" x="186" y="-241.5" font-family="Helvetica,sans-Serif" font-size="10.00"> </text>
<polyline fill="none" stroke="black" points="134,-234.5 238,-234.5 "/>
<text text-anchor="middle" x="186" y="-222.5" font-family="Helvetica,sans-Serif" font-size="10.00"> </text>
</a>
</g>
</g>
<!-- Node4&#45;&gt;Node1 -->
<g id="edge3" class="edge">
<title>Node4&#45;&gt;Node1</title>
<path fill="none" stroke="#404040" d="M177.46,-215.48C174.22,-205.02 170.31,-192.42 166.22,-179.23"/>
<polygon fill="none" stroke="#404040" points="166.15,-179 160.55,-174.45 162.6,-167.54 168.19,-172.08 166.15,-179"/>
<text text-anchor="middle" x="205.5" y="-189" font-family="Helvetica,sans-Serif" font-size="10.00"> &#45;frame_data_</text>
</g>
<!-- Node5 -->
<g id="node5" class="node">
<title>Node5</title>
<g id="a_node5"><a xlink:title=" ">
<polygon fill="none" stroke="black" points="256.5,-215.5 256.5,-272.5 301.5,-272.5 301.5,-215.5 256.5,-215.5"/>
<text text-anchor="middle" x="279" y="-260.5" font-family="Helvetica,sans-Serif" font-size="10.00">size_t</text>
<polyline fill="none" stroke="black" points="256.5,-253.5 301.5,-253.5 "/>
<text text-anchor="middle" x="279" y="-241.5" font-family="Helvetica,sans-Serif" font-size="10.00"> </text>
<polyline fill="none" stroke="black" points="256.5,-234.5 301.5,-234.5 "/>
<text text-anchor="middle" x="279" y="-222.5" font-family="Helvetica,sans-Serif" font-size="10.00"> </text>
</a>
</g>
</g>
<!-- Node5&#45;&gt;Node1 -->
<g id="edge4" class="edge">
<title>Node5&#45;&gt;Node1</title>
<path fill="none" stroke="#404040" d="M264.01,-215.34C258.27,-205.68 251.32,-195.01 244,-186 230.73,-169.68 214.93,-153.41 199.6,-138.84"/>
<polygon fill="none" stroke="#404040" points="199.41,-138.67 192.3,-137.5 190.65,-130.48 197.76,-131.65 199.41,-138.67"/>
<text text-anchor="middle" x="293" y="-189" font-family="Helvetica,sans-Serif" font-size="10.00"> &#45;preamble_size_</text>
</g>
</g>
</svg>
