<?xml version="1.0" encoding="UTF-8" standalone="no"?>
<!DOCTYPE svg PUBLIC "-//W3C//DTD SVG 1.1//EN"
 "http://www.w3.org/Graphics/SVG/1.1/DTD/svg11.dtd">
<!-- Generated by graphviz version 2.43.0 (0)
 -->
<!-- Title: kazoo::model::Binary::Model Pages: 1 -->
<svg width="607pt" height="635pt"
 viewBox="0.00 0.00 606.50 635.00" xmlns="http://www.w3.org/2000/svg" xmlns:xlink="http://www.w3.org/1999/xlink">
<g id="graph0" class="graph" transform="scale(1 1) rotate(0) translate(4 631)">
<title>kazoo::model::Binary::Model</title>
<!-- Node1 -->
<g id="node1" class="node">
<title>Node1</title>
<g id="a_node1"><a xlink:title=" ">
<polygon fill="#bfbfbf" stroke="black" points="305,-0.5 305,-68.5 424,-68.5 424,-0.5 305,-0.5"/>
<text text-anchor="start" x="313" y="-56.5" font-family="Helvetica,sans-Serif" font-size="10.00">kazoo::model::Binary</text>
<text text-anchor="middle" x="364.5" y="-45.5" font-family="Helvetica,sans-Serif" font-size="10.00">::Model</text>
<polyline fill="none" stroke="black" points="305,-38.5 424,-38.5 "/>
<text text-anchor="middle" x="364.5" y="-26.5" font-family="Helvetica,sans-Serif" font-size="10.00"> </text>
<polyline fill="none" stroke="black" points="305,-19.5 424,-19.5 "/>
<text text-anchor="start" x="313" y="-7.5" font-family="Helvetica,sans-Serif" font-size="10.00">+ Model()</text>
</a>
</g>
</g>
<!-- Node2 -->
<g id="node2" class="node">
<title>Node2</title>
<g id="a_node2"><a xlink:href="classkazoo_1_1SymbolModel.html" target="_top" xlink:title=" ">
<polygon fill="none" stroke="black" points="280,-106.5 280,-251.5 449,-251.5 449,-106.5 280,-106.5"/>
<text text-anchor="start" x="288" y="-239.5" font-family="Helvetica,sans-Serif" font-size="10.00">kazoo::SymbolModel</text>
<text text-anchor="middle" x="364.5" y="-228.5" font-family="Helvetica,sans-Serif" font-size="10.00">&lt; Token &gt;</text>
<polyline fill="none" stroke="black" points="280,-221.5 449,-221.5 "/>
<text text-anchor="middle" x="364.5" y="-209.5" font-family="Helvetica,sans-Serif" font-size="10.00"> </text>
<polyline fill="none" stroke="black" points="280,-202.5 449,-202.5 "/>
<text text-anchor="start" x="288" y="-190.5" font-family="Helvetica,sans-Serif" font-size="10.00">+ SymbolModel()</text>
<text text-anchor="start" x="288" y="-179.5" font-family="Helvetica,sans-Serif" font-size="10.00">+ decodeAudioToSymbols()</text>
<text text-anchor="start" x="288" y="-168.5" font-family="Helvetica,sans-Serif" font-size="10.00">+ encodeSymbol()</text>
<text text-anchor="start" x="288" y="-157.5" font-family="Helvetica,sans-Serif" font-size="10.00">+ getNumSamplesPerSymbol()</text>
<text text-anchor="start" x="288" y="-146.5" font-family="Helvetica,sans-Serif" font-size="10.00">+ getSymbolBitWidth()</text>
<text text-anchor="start" x="288" y="-135.5" font-family="Helvetica,sans-Serif" font-size="10.00">+ getSymbolId()</text>
<text text-anchor="start" x="288" y="-124.5" font-family="Helvetica,sans-Serif" font-size="10.00">+ getToken()</text>
<text text-anchor="start" x="288" y="-113.5" font-family="Helvetica,sans-Serif" font-size="10.00">+ getValue()</text>
</a>
</g>
</g>
<!-- Node2&#45;&gt;Node1 -->
<g id="edge1" class="edge">
<title>Node2&#45;&gt;Node1</title>
<path fill="none" stroke="midnightblue" d="M364.5,-96.18C364.5,-86.5 364.5,-77.09 364.5,-68.68"/>
<polygon fill="none" stroke="midnightblue" points="361,-96.33 364.5,-106.33 368,-96.33 361,-96.33"/>
</g>
<!-- Node3 -->
<g id="node3" class="node">
<title>Node3</title>
<g id="a_node3"><a xlink:href="classkazoo_1_1ISymbolModel.html" target="_top" xlink:title=" ">
<polygon fill="none" stroke="black" points="0,-492.5 0,-626.5 169,-626.5 169,-492.5 0,-492.5"/>
<text text-anchor="middle" x="84.5" y="-614.5" font-family="Helvetica,sans-Serif" font-size="10.00">kazoo::ISymbolModel</text>
<polyline fill="none" stroke="black" points="0,-607.5 169,-607.5 "/>
<text text-anchor="middle" x="84.5" y="-595.5" font-family="Helvetica,sans-Serif" font-size="10.00"> </text>
<polyline fill="none" stroke="black" points="0,-588.5 169,-588.5 "/>
<text text-anchor="start" x="8" y="-576.5" font-family="Helvetica,sans-Serif" font-size="10.00">+ ~ISymbolModel()</text>
<text text-anchor="start" x="8" y="-565.5" font-family="Helvetica,sans-Serif" font-size="10.00">+ decodeAudioToSymbols()</text>
<text text-anchor="start" x="8" y="-554.5" font-family="Helvetica,sans-Serif" font-size="10.00">+ encodeSymbol()</text>
<text text-anchor="start" x="8" y="-543.5" font-family="Helvetica,sans-Serif" font-size="10.00">+ getNumSamplesPerSymbol()</text>
<text text-anchor="start" x="8" y="-532.5" font-family="Helvetica,sans-Serif" font-size="10.00">+ getSymbolBitMask()</text>
<text text-anchor="start" x="8" y="-521.5" font-family="Helvetica,sans-Serif" font-size="10.00">+ getSymbolBitWidth()</text>
<text text-anchor="start" x="8" y="-510.5" font-family="Helvetica,sans-Serif" font-size="10.00">+ getSymbolId()</text>
<text text-anchor="start" x="8" y="-499.5" font-family="Helvetica,sans-Serif" font-size="10.00">+ getValue()</text>
</a>
</g>
</g>
<!-- Node3&#45;&gt;Node2 -->
<g id="edge2" class="edge">
<title>Node3&#45;&gt;Node2</title>
<path fill="none" stroke="midnightblue" d="M94.26,-482.31C104.63,-426.68 125.62,-352.03 167.5,-299 196.72,-262 240.86,-233.83 279.96,-214.2"/>
<polygon fill="none" stroke="midnightblue" points="90.76,-482.01 92.45,-492.47 97.65,-483.24 90.76,-482.01"/>
</g>
<!-- Node6 -->
<g id="node6" class="node">
<title>Node6</title>
<g id="a_node6"><a xlink:href="classkazoo_1_1SymbolModel.html" target="_top" xlink:title=" ">
<polygon fill="none" stroke="black" points="177,-299.5 177,-444.5 346,-444.5 346,-299.5 177,-299.5"/>
<text text-anchor="start" x="185" y="-432.5" font-family="Helvetica,sans-Serif" font-size="10.00">kazoo::SymbolModel</text>
<text text-anchor="middle" x="261.5" y="-421.5" font-family="Helvetica,sans-Serif" font-size="10.00">&lt; Token_t &gt;</text>
<polyline fill="none" stroke="black" points="177,-414.5 346,-414.5 "/>
<text text-anchor="middle" x="261.5" y="-402.5" font-family="Helvetica,sans-Serif" font-size="10.00"> </text>
<polyline fill="none" stroke="black" points="177,-395.5 346,-395.5 "/>
<text text-anchor="start" x="185" y="-383.5" font-family="Helvetica,sans-Serif" font-size="10.00">+ SymbolModel()</text>
<text text-anchor="start" x="185" y="-372.5" font-family="Helvetica,sans-Serif" font-size="10.00">+ decodeAudioToSymbols()</text>
<text text-anchor="start" x="185" y="-361.5" font-family="Helvetica,sans-Serif" font-size="10.00">+ encodeSymbol()</text>
<text text-anchor="start" x="185" y="-350.5" font-family="Helvetica,sans-Serif" font-size="10.00">+ getNumSamplesPerSymbol()</text>
<text text-anchor="start" x="185" y="-339.5" font-family="Helvetica,sans-Serif" font-size="10.00">+ getSymbolBitWidth()</text>
<text text-anchor="start" x="185" y="-328.5" font-family="Helvetica,sans-Serif" font-size="10.00">+ getSymbolId()</text>
<text text-anchor="start" x="185" y="-317.5" font-family="Helvetica,sans-Serif" font-size="10.00">+ getToken()</text>
<text text-anchor="start" x="185" y="-306.5" font-family="Helvetica,sans-Serif" font-size="10.00">+ getValue()</text>
</a>
</g>
</g>
<!-- Node3&#45;&gt;Node6 -->
<g id="edge6" class="edge">
<title>Node3&#45;&gt;Node6</title>
<path fill="none" stroke="midnightblue" d="M154.65,-484.98C167.37,-471.65 180.61,-457.77 193.27,-444.5"/>
<polygon fill="none" stroke="midnightblue" points="152.02,-482.66 147.65,-492.32 157.09,-487.5 152.02,-482.66"/>
</g>
<!-- Node4 -->
<g id="node4" class="node">
<title>Node4</title>
<g id="a_node4"><a xlink:title=" ">
<polygon fill="none" stroke="black" points="291.5,-531 291.5,-588 413.5,-588 413.5,-531 291.5,-531"/>
<text text-anchor="middle" x="352.5" y="-576" font-family="Helvetica,sans-Serif" font-size="10.00">const TokenValueMap</text>
<polyline fill="none" stroke="black" points="291.5,-569 413.5,-569 "/>
<text text-anchor="middle" x="352.5" y="-557" font-family="Helvetica,sans-Serif" font-size="10.00"> </text>
<polyline fill="none" stroke="black" points="291.5,-550 413.5,-550 "/>
<text text-anchor="middle" x="352.5" y="-538" font-family="Helvetica,sans-Serif" font-size="10.00"> </text>
</a>
</g>
</g>
<!-- Node4&#45;&gt;Node2 -->
<g id="edge3" class="edge">
<title>Node4&#45;&gt;Node2</title>
<path fill="none" stroke="#404040" d="M369.08,-530.64C377.62,-514.66 387.13,-493.88 391.5,-474 406.85,-404.1 397.43,-322.98 385.68,-263.69"/>
<polygon fill="none" stroke="#404040" points="385.65,-263.51 380.52,-258.44 383.23,-251.75 388.36,-256.82 385.65,-263.51"/>
<text text-anchor="middle" x="439" y="-369.5" font-family="Helvetica,sans-Serif" font-size="10.00"> &#45;token_values_</text>
</g>
<!-- Node4&#45;&gt;Node6 -->
<g id="edge7" class="edge">
<title>Node4&#45;&gt;Node6</title>
<path fill="none" stroke="#404040" d="M338.88,-530.73C329.07,-510.74 315.3,-482.66 302.08,-455.73"/>
<polygon fill="none" stroke="#404040" points="301.95,-455.46 295.72,-451.83 296.67,-444.68 302.9,-448.31 301.95,-455.46"/>
<text text-anchor="middle" x="349" y="-466" font-family="Helvetica,sans-Serif" font-size="10.00"> &#45;token_values_</text>
</g>
<!-- Node5 -->
<g id="node5" class="node">
<title>Node5</title>
<g id="a_node5"><a xlink:href="namespace_3globalScope_4.html#classconst_01uint32__t" target="_top" xlink:title=" ">
<polygon fill="none" stroke="black" points="512.5,-343.5 512.5,-400.5 598.5,-400.5 598.5,-343.5 512.5,-343.5"/>
<text text-anchor="middle" x="555.5" y="-388.5" font-family="Helvetica,sans-Serif" font-size="10.00">const uint32_t</text>
<polyline fill="none" stroke="black" points="512.5,-381.5 598.5,-381.5 "/>
<text text-anchor="middle" x="555.5" y="-369.5" font-family="Helvetica,sans-Serif" font-size="10.00"> </text>
<polyline fill="none" stroke="black" points="512.5,-362.5 598.5,-362.5 "/>
<text text-anchor="middle" x="555.5" y="-350.5" font-family="Helvetica,sans-Serif" font-size="10.00"> </text>
</a>
</g>
</g>
<!-- Node5&#45;&gt;Node2 -->
<g id="edge4" class="edge">
<title>Node5&#45;&gt;Node2</title>
<path fill="none" stroke="#404040" d="M535.46,-343.4C524.99,-329.59 511.64,-312.91 498.5,-299 485.97,-285.74 472.14,-272.3 458.28,-259.48"/>
<polygon fill="none" stroke="#404040" points="458.02,-259.25 450.9,-258.14 449.17,-251.14 456.3,-252.24 458.02,-259.25"/>
<text text-anchor="middle" x="527" y="-273" font-family="Helvetica,sans-Serif" font-size="10.00"> &#45;symbol_bit_width_</text>
</g>
<!-- Node6&#45;&gt;Node2 -->
<g id="edge5" class="edge">
<title>Node6&#45;&gt;Node2</title>
<path fill="none" stroke="orange" d="M304.91,-290.5C311.85,-277.63 318.99,-264.39 325.81,-251.75"/>
<polygon fill="orange" stroke="orange" points="301.81,-288.87 300.15,-299.34 307.97,-292.19 301.81,-288.87"/>
<text text-anchor="middle" x="340.5" y="-273" font-family="Helvetica,sans-Serif" font-size="10.00"> &lt; Token &gt;</text>
</g>
<!-- Node7 -->
<g id="node7" class="node">
<title>Node7</title>
<g id="a_node7"><a xlink:title=" ">
<polygon fill="none" stroke="black" points="186.5,-531 186.5,-588 242.5,-588 242.5,-531 186.5,-531"/>
<text text-anchor="middle" x="214.5" y="-576" font-family="Helvetica,sans-Serif" font-size="10.00">uint32_t</text>
<polyline fill="none" stroke="black" points="186.5,-569 242.5,-569 "/>
<text text-anchor="middle" x="214.5" y="-557" font-family="Helvetica,sans-Serif" font-size="10.00"> </text>
<polyline fill="none" stroke="black" points="186.5,-550 242.5,-550 "/>
<text text-anchor="middle" x="214.5" y="-538" font-family="Helvetica,sans-Serif" font-size="10.00"> </text>
</a>
</g>
</g>
<!-- Node7&#45;&gt;Node6 -->
<g id="edge8" class="edge">
<title>Node7&#45;&gt;Node6</title>
<path fill="none" stroke="#404040" d="M206.1,-530.84C201.55,-511.5 198.05,-485.25 204.5,-463 205.2,-460.57 206,-458.15 206.86,-455.73"/>
<polygon fill="none" stroke="#404040" points="206.91,-455.63 205.47,-448.56 211.44,-444.51 212.88,-451.58 206.91,-455.63"/>
<text text-anchor="middle" x="254" y="-466" font-family="Helvetica,sans-Serif" font-size="10.00"> &#45;symbol_bit_width_</text>
</g>
</g>
</svg>
