<?xml version="1.0" encoding="UTF-8" standalone="no"?>
<!DOCTYPE svg PUBLIC "-//W3C//DTD SVG 1.1//EN"
 "http://www.w3.org/Graphics/SVG/1.1/DTD/svg11.dtd">
<!-- Generated by graphviz version 2.43.0 (0)
 -->
<!-- Title: kazoo::TranslationLayer::listeningThreadFunc Pages: 1 -->
<svg width="471pt" height="459pt"
 viewBox="0.00 0.00 471.00 459.00" xmlns="http://www.w3.org/2000/svg" xmlns:xlink="http://www.w3.org/1999/xlink">
<g id="graph0" class="graph" transform="scale(1 1) rotate(0) translate(4 455)">
<title>kazoo::TranslationLayer::listeningThreadFunc</title>
<!-- Node1 -->
<g id="node1" class="node">
<title>Node1</title>
<g id="a_node1"><a xlink:title=" ">
<polygon fill="#bfbfbf" stroke="black" points="0,-199.5 0,-229.5 131,-229.5 131,-199.5 0,-199.5"/>
<text text-anchor="start" x="8" y="-217.5" font-family="Helvetica,sans-Serif" font-size="10.00">kazoo::TranslationLayer</text>
<text text-anchor="middle" x="65.5" y="-206.5" font-family="Helvetica,sans-Serif" font-size="10.00">::listeningThreadFunc</text>
</a>
</g>
</g>
<!-- Node2 -->
<g id="node2" class="node">
<title>Node2</title>
<g id="a_node2"><a xlink:href="classkazoo_1_1AudioChannel.html#aa2791ad2274b523a480f2010df2e71d2" target="_top" xlink:title=" ">
<polygon fill="none" stroke="black" points="178.5,-420.5 178.5,-450.5 297.5,-450.5 297.5,-420.5 178.5,-420.5"/>
<text text-anchor="start" x="186.5" y="-438.5" font-family="Helvetica,sans-Serif" font-size="10.00">kazoo::AudioChannel</text>
<text text-anchor="middle" x="238" y="-427.5" font-family="Helvetica,sans-Serif" font-size="10.00">::addSamples</text>
</a>
</g>
</g>
<!-- Node1&#45;&gt;Node2 -->
<g id="edge1" class="edge">
<title>Node1&#45;&gt;Node2</title>
<path fill="none" stroke="midnightblue" d="M70.07,-229.77C79.43,-266.48 108.13,-360.42 167,-411.5 168.49,-412.79 170.06,-414.02 171.68,-415.18"/>
<polygon fill="midnightblue" stroke="midnightblue" points="169.88,-418.18 180.23,-420.45 173.56,-412.22 169.88,-418.18"/>
</g>
<!-- Node3 -->
<g id="node3" class="node">
<title>Node3</title>
<g id="a_node3"><a xlink:href="classkazoo_1_1AudioChannel.html#a400078d8b30365e3f755e23a02e392e2" target="_top" xlink:title=" ">
<polygon fill="none" stroke="black" points="178.5,-371.5 178.5,-401.5 297.5,-401.5 297.5,-371.5 178.5,-371.5"/>
<text text-anchor="start" x="186.5" y="-389.5" font-family="Helvetica,sans-Serif" font-size="10.00">kazoo::AudioChannel</text>
<text text-anchor="middle" x="238" y="-378.5" font-family="Helvetica,sans-Serif" font-size="10.00">::clear</text>
</a>
</g>
</g>
<!-- Node1&#45;&gt;Node3 -->
<g id="edge2" class="edge">
<title>Node1&#45;&gt;Node3</title>
<path fill="none" stroke="midnightblue" d="M72.9,-229.9C86.09,-259.79 119.12,-325.93 167,-362.5 168.82,-363.89 170.74,-365.21 172.71,-366.45"/>
<polygon fill="midnightblue" stroke="midnightblue" points="171.29,-369.67 181.74,-371.44 174.68,-363.54 171.29,-369.67"/>
</g>
<!-- Node4 -->
<g id="node4" class="node">
<title>Node4</title>
<g id="a_node4"><a xlink:href="classkazoo_1_1ISymbolModel.html#a2c41b4fca45a1bb19613435c92fb91d4" target="_top" xlink:title=" ">
<polygon fill="none" stroke="black" points="169,-322.5 169,-352.5 307,-352.5 307,-322.5 169,-322.5"/>
<text text-anchor="start" x="177" y="-340.5" font-family="Helvetica,sans-Serif" font-size="10.00">kazoo::ISymbolModel</text>
<text text-anchor="middle" x="238" y="-329.5" font-family="Helvetica,sans-Serif" font-size="10.00">::decodeAudioToSymbols</text>
</a>
</g>
</g>
<!-- Node1&#45;&gt;Node4 -->
<g id="edge3" class="edge">
<title>Node1&#45;&gt;Node4</title>
<path fill="none" stroke="midnightblue" d="M78.19,-229.72C95.44,-251.22 129.72,-290.43 167,-313.5 169.65,-315.14 172.42,-316.68 175.27,-318.13"/>
<polygon fill="midnightblue" stroke="midnightblue" points="174.04,-321.42 184.58,-322.45 176.98,-315.07 174.04,-321.42"/>
</g>
<!-- Node5 -->
<g id="node5" class="node">
<title>Node5</title>
<g id="a_node5"><a xlink:href="classkazoo_1_1BinaryStream.html#af26ef358b4ddbd2f0a7f9d94d1b64357" target="_top" xlink:title="Get the number of bytes in the stream. If the stream has spare bits that do not align to a byte,...">
<polygon fill="none" stroke="black" points="179,-273.5 179,-303.5 297,-303.5 297,-273.5 179,-273.5"/>
<text text-anchor="start" x="187" y="-291.5" font-family="Helvetica,sans-Serif" font-size="10.00">kazoo::BinaryStream</text>
<text text-anchor="middle" x="238" y="-280.5" font-family="Helvetica,sans-Serif" font-size="10.00">::getNumBytes</text>
</a>
</g>
</g>
<!-- Node1&#45;&gt;Node5 -->
<g id="edge4" class="edge">
<title>Node1&#45;&gt;Node5</title>
<path fill="none" stroke="midnightblue" d="M94.2,-229.51C114.13,-240.01 141.83,-253.98 167,-264.5 171.43,-266.35 176.07,-268.18 180.75,-269.94"/>
<polygon fill="midnightblue" stroke="midnightblue" points="179.77,-273.31 190.36,-273.47 182.18,-266.74 179.77,-273.31"/>
</g>
<!-- Node6 -->
<g id="node6" class="node">
<title>Node6</title>
<g id="a_node6"><a xlink:href="classkazoo_1_1ISymbolStream.html#a9e3b2b62a64109d782aa7746041e7e95" target="_top" xlink:title=" ">
<polygon fill="none" stroke="black" points="175,-224.5 175,-254.5 301,-254.5 301,-224.5 175,-224.5"/>
<text text-anchor="start" x="183" y="-242.5" font-family="Helvetica,sans-Serif" font-size="10.00">kazoo::ISymbolStream</text>
<text text-anchor="middle" x="238" y="-231.5" font-family="Helvetica,sans-Serif" font-size="10.00">::getNumBytes</text>
</a>
</g>
</g>
<!-- Node1&#45;&gt;Node6 -->
<g id="edge5" class="edge">
<title>Node1&#45;&gt;Node6</title>
<path fill="none" stroke="midnightblue" d="M131.45,-224.02C142.32,-225.62 153.67,-227.28 164.72,-228.9"/>
<polygon fill="midnightblue" stroke="midnightblue" points="164.36,-232.39 174.77,-230.37 165.38,-225.46 164.36,-232.39"/>
</g>
<!-- Node7 -->
<g id="node7" class="node">
<title>Node7</title>
<g id="a_node7"><a xlink:href="classkazoo_1_1AudioChannel.html#a97d2202c18916b93bb72b4c540ba75ed" target="_top" xlink:title=" ">
<polygon fill="none" stroke="black" points="178.5,-175.5 178.5,-205.5 297.5,-205.5 297.5,-175.5 178.5,-175.5"/>
<text text-anchor="start" x="186.5" y="-193.5" font-family="Helvetica,sans-Serif" font-size="10.00">kazoo::AudioChannel</text>
<text text-anchor="middle" x="238" y="-182.5" font-family="Helvetica,sans-Serif" font-size="10.00">::getNumSamples</text>
</a>
</g>
</g>
<!-- Node1&#45;&gt;Node7 -->
<g id="edge6" class="edge">
<title>Node1&#45;&gt;Node7</title>
<path fill="none" stroke="midnightblue" d="M131.45,-205.36C143.5,-203.66 156.14,-201.88 168.3,-200.17"/>
<polygon fill="midnightblue" stroke="midnightblue" points="168.97,-203.61 178.39,-198.75 168,-196.68 168.97,-203.61"/>
</g>
<!-- Node8 -->
<g id="node8" class="node">
<title>Node8</title>
<g id="a_node8"><a xlink:href="classkazoo_1_1TranslationLayer.html#aac2f32faef9d2ffa8f3a28bf58844ba6" target="_top" xlink:title=" ">
<polygon fill="none" stroke="black" points="171.5,-126.5 171.5,-156.5 304.5,-156.5 304.5,-126.5 171.5,-126.5"/>
<text text-anchor="start" x="179.5" y="-144.5" font-family="Helvetica,sans-Serif" font-size="10.00">kazoo::TranslationLayer</text>
<text text-anchor="middle" x="238" y="-133.5" font-family="Helvetica,sans-Serif" font-size="10.00">::getStaticSymbolModel</text>
</a>
</g>
</g>
<!-- Node1&#45;&gt;Node8 -->
<g id="edge7" class="edge">
<title>Node1&#45;&gt;Node8</title>
<path fill="none" stroke="midnightblue" d="M96.04,-199.41C115.87,-189.52 142.72,-176.6 167,-166.5 172.14,-164.36 177.53,-162.24 182.95,-160.18"/>
<polygon fill="midnightblue" stroke="midnightblue" points="184.52,-163.32 192.67,-156.55 182.08,-156.76 184.52,-163.32"/>
</g>
<!-- Node9 -->
<g id="node9" class="node">
<title>Node9</title>
<g id="a_node9"><a xlink:href="classkazoo_1_1BinaryStream.html#a32b6f202b2627b75ace2e6c9c07726aa" target="_top" xlink:title="Get the byte alignment status of the stream.">
<polygon fill="none" stroke="black" points="345,-82.5 345,-112.5 463,-112.5 463,-82.5 345,-82.5"/>
<text text-anchor="start" x="353" y="-100.5" font-family="Helvetica,sans-Serif" font-size="10.00">kazoo::BinaryStream</text>
<text text-anchor="middle" x="404" y="-89.5" font-family="Helvetica,sans-Serif" font-size="10.00">::isByteAligned</text>
</a>
</g>
</g>
<!-- Node1&#45;&gt;Node9 -->
<g id="edge8" class="edge">
<title>Node1&#45;&gt;Node9</title>
<path fill="none" stroke="midnightblue" d="M76.76,-199.44C92.97,-177.07 126.81,-135.74 167,-117.5 219.78,-93.54 286,-89.9 334.85,-91.47"/>
<polygon fill="midnightblue" stroke="midnightblue" points="334.86,-94.98 345,-91.88 335.14,-87.98 334.86,-94.98"/>
</g>
<!-- Node10 -->
<g id="node10" class="node">
<title>Node10</title>
<g id="a_node10"><a xlink:href="classkazoo_1_1BinaryStream.html#a8d303f53784202d1d75b360075093ffb" target="_top" xlink:title="If the last element is being used as a bit buffer, this will fill the remaining bits until the stream...">
<polygon fill="none" stroke="black" points="167,-50 167,-69 309,-69 309,-50 167,-50"/>
<text text-anchor="middle" x="238" y="-57" font-family="Helvetica,sans-Serif" font-size="10.00">kazoo::BinaryStream::pad</text>
</a>
</g>
</g>
<!-- Node1&#45;&gt;Node10 -->
<g id="edge9" class="edge">
<title>Node1&#45;&gt;Node10</title>
<path fill="none" stroke="midnightblue" d="M74.28,-199.21C88.84,-172.05 122.78,-115.29 167,-83.5 172.95,-79.22 179.73,-75.66 186.67,-72.7"/>
<polygon fill="midnightblue" stroke="midnightblue" points="188.09,-75.9 196.16,-69.04 185.58,-69.37 188.09,-75.9"/>
</g>
<!-- Node12 -->
<g id="node12" class="node">
<title>Node12</title>
<g id="a_node12"><a xlink:href="classkazoo_1_1ISymbolStream.html#a6dd43cbf09e35b93f95b1d3ad2bc7f0a" target="_top" xlink:title=" ">
<polygon fill="none" stroke="black" points="172,-0.5 172,-30.5 304,-30.5 304,-0.5 172,-0.5"/>
<text text-anchor="start" x="180" y="-18.5" font-family="Helvetica,sans-Serif" font-size="10.00">kazoo::ISymbolStream</text>
<text text-anchor="middle" x="238" y="-7.5" font-family="Helvetica,sans-Serif" font-size="10.00">::populateBinaryStream</text>
</a>
</g>
</g>
<!-- Node1&#45;&gt;Node12 -->
<g id="edge12" class="edge">
<title>Node1&#45;&gt;Node12</title>
<path fill="none" stroke="midnightblue" d="M71.21,-199.33C82.37,-165.84 113.55,-85.07 167,-40.5 169.04,-38.8 171.2,-37.21 173.45,-35.73"/>
<polygon fill="midnightblue" stroke="midnightblue" points="175.6,-38.53 182.53,-30.51 172.11,-32.46 175.6,-38.53"/>
</g>
<!-- Node10&#45;&gt;Node9 -->
<g id="edge11" class="edge">
<title>Node10&#45;&gt;Node9</title>
<path fill="none" stroke="midnightblue" d="M280.38,-69.09C296.95,-72.93 316.48,-77.45 335.03,-81.75"/>
<polygon fill="midnightblue" stroke="midnightblue" points="334.37,-85.19 344.91,-84.04 335.95,-78.37 334.37,-85.19"/>
</g>
<!-- Node11 -->
<g id="node11" class="node">
<title>Node11</title>
<g id="a_node11"><a xlink:href="classkazoo_1_1BinaryStream.html#ad6187750dbcd6ae38948b5c267740bf6" target="_top" xlink:title=" ">
<polygon fill="none" stroke="black" points="345,-33.5 345,-63.5 463,-63.5 463,-33.5 345,-33.5"/>
<text text-anchor="start" x="353" y="-51.5" font-family="Helvetica,sans-Serif" font-size="10.00">kazoo::BinaryStream</text>
<text text-anchor="middle" x="404" y="-40.5" font-family="Helvetica,sans-Serif" font-size="10.00">::addBit</text>
</a>
</g>
</g>
<!-- Node10&#45;&gt;Node11 -->
<g id="edge10" class="edge">
<title>Node10&#45;&gt;Node11</title>
<path fill="none" stroke="midnightblue" d="M309.03,-54.8C317.51,-54.23 326.16,-53.65 334.62,-53.09"/>
<polygon fill="midnightblue" stroke="midnightblue" points="335.06,-56.56 344.81,-52.4 334.59,-49.58 335.06,-56.56"/>
</g>
</g>
</svg>
