<?xml version="1.0" encoding="UTF-8" standalone="no"?>
<!DOCTYPE svg PUBLIC "-//W3C//DTD SVG 1.1//EN"
 "http://www.w3.org/Graphics/SVG/1.1/DTD/svg11.dtd">
<!-- Generated by graphviz version 2.43.0 (0)
 -->
<!-- Title: kazoo::SymbolStream::processBinaryStream Pages: 1 -->
<svg width="794pt" height="274pt"
 viewBox="0.00 0.00 794.00 274.00" xmlns="http://www.w3.org/2000/svg" xmlns:xlink="http://www.w3.org/1999/xlink">
<g id="graph0" class="graph" transform="scale(1 1) rotate(0) translate(4 270)">
<title>kazoo::SymbolStream::processBinaryStream</title>
<!-- Node1 -->
<g id="node1" class="node">
<title>Node1</title>
<g id="a_node1"><a xlink:title="Process a binary stream and convert it to symbols, removing the bits from the binary stream.">
<polygon fill="#bfbfbf" stroke="black" points="0,-137.5 0,-167.5 127,-167.5 127,-137.5 0,-137.5"/>
<text text-anchor="start" x="8" y="-155.5" font-family="Helvetica,sans-Serif" font-size="10.00">kazoo::SymbolStream</text>
<text text-anchor="middle" x="63.5" y="-144.5" font-family="Helvetica,sans-Serif" font-size="10.00">::processBinaryStream</text>
</a>
</g>
</g>
<!-- Node2 -->
<g id="node2" class="node">
<title>Node2</title>
<g id="a_node2"><a xlink:href="classkazoo_1_1BinaryStream.html#af26ef358b4ddbd2f0a7f9d94d1b64357" target="_top" xlink:title="Get the number of bytes in the stream. If the stream has spare bits that do not align to a byte,...">
<polygon fill="none" stroke="black" points="164.5,-235.5 164.5,-265.5 282.5,-265.5 282.5,-235.5 164.5,-235.5"/>
<text text-anchor="start" x="172.5" y="-253.5" font-family="Helvetica,sans-Serif" font-size="10.00">kazoo::BinaryStream</text>
<text text-anchor="middle" x="223.5" y="-242.5" font-family="Helvetica,sans-Serif" font-size="10.00">::getNumBytes</text>
</a>
</g>
</g>
<!-- Node1&#45;&gt;Node2 -->
<g id="edge1" class="edge">
<title>Node1&#45;&gt;Node2</title>
<path fill="none" stroke="midnightblue" d="M81.68,-167.62C100.62,-183.74 132.45,-209.26 163,-226.5 165.86,-228.12 168.85,-229.68 171.91,-231.18"/>
<polygon fill="midnightblue" stroke="midnightblue" points="170.65,-234.45 181.19,-235.48 173.59,-228.1 170.65,-234.45"/>
</g>
<!-- Node3 -->
<g id="node3" class="node">
<title>Node3</title>
<g id="a_node3"><a xlink:href="classkazoo_1_1ISymbolModel.html#a08668909fe1a7f901fe26ad30f9a1e30" target="_top" xlink:title=" ">
<polygon fill="none" stroke="black" points="163,-186.5 163,-216.5 284,-216.5 284,-186.5 163,-186.5"/>
<text text-anchor="start" x="171" y="-204.5" font-family="Helvetica,sans-Serif" font-size="10.00">kazoo::ISymbolModel</text>
<text text-anchor="middle" x="223.5" y="-193.5" font-family="Helvetica,sans-Serif" font-size="10.00">::getSymbolBitWidth</text>
</a>
</g>
</g>
<!-- Node1&#45;&gt;Node3 -->
<g id="edge2" class="edge">
<title>Node1&#45;&gt;Node3</title>
<path fill="none" stroke="midnightblue" d="M113.19,-167.6C129.34,-172.61 147.47,-178.23 164.26,-183.44"/>
<polygon fill="midnightblue" stroke="midnightblue" points="163.38,-186.83 173.97,-186.45 165.45,-180.14 163.38,-186.83"/>
</g>
<!-- Node4 -->
<g id="node4" class="node">
<title>Node4</title>
<g id="a_node4"><a xlink:href="classkazoo_1_1ISymbolModel.html#acc7c190376b422d6a6f8a28a2a7445f0" target="_top" xlink:title=" ">
<polygon fill="none" stroke="black" points="163,-137.5 163,-167.5 284,-167.5 284,-137.5 163,-137.5"/>
<text text-anchor="start" x="171" y="-155.5" font-family="Helvetica,sans-Serif" font-size="10.00">kazoo::ISymbolModel</text>
<text text-anchor="middle" x="223.5" y="-144.5" font-family="Helvetica,sans-Serif" font-size="10.00">::getSymbolId</text>
</a>
</g>
</g>
<!-- Node1&#45;&gt;Node4 -->
<g id="edge3" class="edge">
<title>Node1&#45;&gt;Node4</title>
<path fill="none" stroke="midnightblue" d="M127.4,-152.5C135.72,-152.5 144.29,-152.5 152.72,-152.5"/>
<polygon fill="midnightblue" stroke="midnightblue" points="152.9,-156 162.9,-152.5 152.9,-149 152.9,-156"/>
</g>
<!-- Node5 -->
<g id="node5" class="node">
<title>Node5</title>
<g id="a_node5"><a xlink:href="classkazoo_1_1BinaryStream.html#a32b6f202b2627b75ace2e6c9c07726aa" target="_top" xlink:title="Get the byte alignment status of the stream.">
<polygon fill="none" stroke="black" points="668,-46.5 668,-76.5 786,-76.5 786,-46.5 668,-46.5"/>
<text text-anchor="start" x="676" y="-64.5" font-family="Helvetica,sans-Serif" font-size="10.00">kazoo::BinaryStream</text>
<text text-anchor="middle" x="727" y="-53.5" font-family="Helvetica,sans-Serif" font-size="10.00">::isByteAligned</text>
</a>
</g>
</g>
<!-- Node1&#45;&gt;Node5 -->
<g id="edge4" class="edge">
<title>Node1&#45;&gt;Node5</title>
<path fill="none" stroke="midnightblue" d="M119.67,-137.45C133.71,-134.07 148.84,-130.8 163,-128.5 369.46,-94.97 426.45,-128.23 632,-89.5 645.33,-86.99 659.48,-83.33 672.63,-79.47"/>
<polygon fill="midnightblue" stroke="midnightblue" points="673.9,-82.75 682.47,-76.51 671.88,-76.04 673.9,-82.75"/>
</g>
<!-- Node6 -->
<g id="node6" class="node">
<title>Node6</title>
<g id="a_node6"><a xlink:href="classkazoo_1_1BinaryStream.html#a745b2acb522d69e283dd5df14500016b" target="_top" xlink:title="Pop bits off the front, effectively the inverse of addBits.">
<polygon fill="none" stroke="black" points="164.5,-49.5 164.5,-79.5 282.5,-79.5 282.5,-49.5 164.5,-49.5"/>
<text text-anchor="start" x="172.5" y="-67.5" font-family="Helvetica,sans-Serif" font-size="10.00">kazoo::BinaryStream</text>
<text text-anchor="middle" x="223.5" y="-56.5" font-family="Helvetica,sans-Serif" font-size="10.00">::popBits</text>
</a>
</g>
</g>
<!-- Node1&#45;&gt;Node6 -->
<g id="edge5" class="edge">
<title>Node1&#45;&gt;Node6</title>
<path fill="none" stroke="midnightblue" d="M89.34,-137.27C109.11,-125.29 137.57,-108.38 163,-94.5 169.35,-91.03 176.15,-87.47 182.81,-84.06"/>
<polygon fill="midnightblue" stroke="midnightblue" points="184.39,-87.18 191.73,-79.54 181.22,-80.94 184.39,-87.18"/>
</g>
<!-- Node7 -->
<g id="node7" class="node">
<title>Node7</title>
<g id="a_node7"><a xlink:href="classkazoo_1_1BinaryStream.html#a3a614f83199d9abd627964db2fef5f7b" target="_top" xlink:title="Get the number of bits in the stream.">
<polygon fill="none" stroke="black" points="320,-49.5 320,-79.5 438,-79.5 438,-49.5 320,-49.5"/>
<text text-anchor="start" x="328" y="-67.5" font-family="Helvetica,sans-Serif" font-size="10.00">kazoo::BinaryStream</text>
<text text-anchor="middle" x="379" y="-56.5" font-family="Helvetica,sans-Serif" font-size="10.00">::getNumBits</text>
</a>
</g>
</g>
<!-- Node6&#45;&gt;Node7 -->
<g id="edge6" class="edge">
<title>Node6&#45;&gt;Node7</title>
<path fill="none" stroke="midnightblue" d="M282.53,-64.5C291.41,-64.5 300.65,-64.5 309.73,-64.5"/>
<polygon fill="midnightblue" stroke="midnightblue" points="309.89,-68 319.89,-64.5 309.89,-61 309.89,-68"/>
</g>
<!-- Node10 -->
<g id="node10" class="node">
<title>Node10</title>
<g id="a_node10"><a xlink:href="classkazoo_1_1BinaryStream.html#a82de69510e248576ea64a328979a9f48" target="_top" xlink:title=" ">
<polygon fill="none" stroke="black" points="320,-0.5 320,-30.5 438,-30.5 438,-0.5 320,-0.5"/>
<text text-anchor="start" x="328" y="-18.5" font-family="Helvetica,sans-Serif" font-size="10.00">kazoo::BinaryStream</text>
<text text-anchor="middle" x="379" y="-7.5" font-family="Helvetica,sans-Serif" font-size="10.00">::popBit</text>
</a>
</g>
</g>
<!-- Node6&#45;&gt;Node10 -->
<g id="edge10" class="edge">
<title>Node6&#45;&gt;Node10</title>
<path fill="none" stroke="midnightblue" d="M271.81,-49.4C287.35,-44.44 304.78,-38.87 320.96,-33.71"/>
<polygon fill="midnightblue" stroke="midnightblue" points="322.39,-36.93 330.85,-30.55 320.26,-30.26 322.39,-36.93"/>
</g>
<!-- Node8 -->
<g id="node8" class="node">
<title>Node8</title>
<g id="a_node8"><a xlink:href="classkazoo_1_1BinaryStream.html#aada16bde376a41419737c7177612a521" target="_top" xlink:title="If adding bits, this will return the number of bits that can be added to the stream before the stream...">
<polygon fill="none" stroke="black" points="485.5,-49.5 485.5,-79.5 620.5,-79.5 620.5,-49.5 485.5,-49.5"/>
<text text-anchor="start" x="493.5" y="-67.5" font-family="Helvetica,sans-Serif" font-size="10.00">kazoo::BinaryStream</text>
<text text-anchor="middle" x="553" y="-56.5" font-family="Helvetica,sans-Serif" font-size="10.00">::getInputBitBufferSpace</text>
</a>
</g>
</g>
<!-- Node7&#45;&gt;Node8 -->
<g id="edge7" class="edge">
<title>Node7&#45;&gt;Node8</title>
<path fill="none" stroke="midnightblue" d="M438.23,-64.5C450.03,-64.5 462.62,-64.5 474.95,-64.5"/>
<polygon fill="midnightblue" stroke="midnightblue" points="475.23,-68 485.23,-64.5 475.23,-61 475.23,-68"/>
</g>
<!-- Node9 -->
<g id="node9" class="node">
<title>Node9</title>
<g id="a_node9"><a xlink:href="classkazoo_1_1BinaryStream.html#a12a1666a4c0b0ddfdc512a50f09f5975" target="_top" xlink:title=" ">
<polygon fill="none" stroke="black" points="474,-0.5 474,-30.5 632,-30.5 632,-0.5 474,-0.5"/>
<text text-anchor="start" x="482" y="-18.5" font-family="Helvetica,sans-Serif" font-size="10.00">kazoo::BinaryStream</text>
<text text-anchor="middle" x="553" y="-7.5" font-family="Helvetica,sans-Serif" font-size="10.00">::getOutputBitBufferUsedBits</text>
</a>
</g>
</g>
<!-- Node7&#45;&gt;Node9 -->
<g id="edge8" class="edge">
<title>Node7&#45;&gt;Node9</title>
<path fill="none" stroke="midnightblue" d="M433.01,-49.4C450.83,-44.32 470.88,-38.61 489.37,-33.34"/>
<polygon fill="midnightblue" stroke="midnightblue" points="490.51,-36.66 499.17,-30.55 488.59,-29.93 490.51,-36.66"/>
</g>
<!-- Node9&#45;&gt;Node5 -->
<g id="edge9" class="edge">
<title>Node9&#45;&gt;Node5</title>
<path fill="none" stroke="midnightblue" d="M610.32,-30.56C626.14,-34.79 643.49,-39.43 659.83,-43.8"/>
<polygon fill="midnightblue" stroke="midnightblue" points="659.28,-47.28 669.85,-46.48 661.09,-40.52 659.28,-47.28"/>
</g>
</g>
</svg>
