<?xml version="1.0" encoding="UTF-8" standalone="no"?>
<!DOCTYPE svg PUBLIC "-//W3C//DTD SVG 1.1//EN"
 "http://www.w3.org/Graphics/SVG/1.1/DTD/svg11.dtd">
<!-- Generated by graphviz version 2.43.0 (0)
 -->
<!-- Title: kazoo::PulseAudio::Player::play Pages: 1 -->
<svg width="530pt" height="91pt"
 viewBox="0.00 0.00 530.00 91.00" xmlns="http://www.w3.org/2000/svg" xmlns:xlink="http://www.w3.org/1999/xlink">
<g id="graph0" class="graph" transform="scale(1 1) rotate(0) translate(4 87)">
<title>kazoo::PulseAudio::Player::play</title>
<!-- Node1 -->
<g id="node1" class="node">
<title>Node1</title>
<g id="a_node1"><a xlink:title=" ">
<polygon fill="#bfbfbf" stroke="black" points="411,-17 411,-47 522,-47 522,-17 411,-17"/>
<text text-anchor="start" x="419" y="-35" font-family="Helvetica,sans-Serif" font-size="10.00">kazoo::PulseAudio::</text>
<text text-anchor="middle" x="466.5" y="-24" font-family="Helvetica,sans-Serif" font-size="10.00">Player::play</text>
</a>
</g>
</g>
<!-- Node2 -->
<g id="node2" class="node">
<title>Node2</title>
<g id="a_node2"><a xlink:href="classkazoo_1_1TranslationLayer.html#aedda920ecfd94bff66feb03ee0bc93b6" target="_top" xlink:title=" ">
<polygon fill="none" stroke="black" points="244,-39 244,-69 375,-69 375,-39 244,-39"/>
<text text-anchor="start" x="252" y="-57" font-family="Helvetica,sans-Serif" font-size="10.00">kazoo::TranslationLayer</text>
<text text-anchor="middle" x="309.5" y="-46" font-family="Helvetica,sans-Serif" font-size="10.00">::playAudioBlocking</text>
</a>
</g>
</g>
<!-- Node1&#45;&gt;Node2 -->
<g id="edge1" class="edge">
<title>Node1&#45;&gt;Node2</title>
<path fill="none" stroke="midnightblue" d="M400.92,-41.17C392.35,-42.38 383.57,-43.63 375,-44.85"/>
<polygon fill="midnightblue" stroke="midnightblue" points="401.44,-44.63 410.85,-39.76 400.46,-37.7 401.44,-44.63"/>
</g>
<!-- Node6 -->
<g id="node6" class="node">
<title>Node6</title>
<g id="a_node6"><a xlink:href="pulse__audio_8test_8cpp.html#a774876eeb7e4a30be6831492ec36572b" target="_top" xlink:title=" ">
<polygon fill="none" stroke="black" points="289,-0.5 289,-19.5 330,-19.5 330,-0.5 289,-0.5"/>
<text text-anchor="middle" x="309.5" y="-7.5" font-family="Helvetica,sans-Serif" font-size="10.00">TEST</text>
</a>
</g>
</g>
<!-- Node1&#45;&gt;Node6 -->
<g id="edge5" class="edge">
<title>Node1&#45;&gt;Node6</title>
<path fill="none" stroke="midnightblue" d="M400.83,-22.82C375.35,-19.2 347.96,-15.32 330.11,-12.78"/>
<polygon fill="midnightblue" stroke="midnightblue" points="400.46,-26.3 410.85,-24.24 401.44,-19.37 400.46,-26.3"/>
</g>
<!-- Node3 -->
<g id="node3" class="node">
<title>Node3</title>
<g id="a_node3"><a xlink:href="classkazoo_1_1TranslationLayer.html#a85b59418d9b63eaf80dd1b3623a96b96" target="_top" xlink:title=" ">
<polygon fill="none" stroke="black" points="77,-39 77,-69 208,-69 208,-39 77,-39"/>
<text text-anchor="start" x="85" y="-57" font-family="Helvetica,sans-Serif" font-size="10.00">kazoo::TranslationLayer</text>
<text text-anchor="middle" x="142.5" y="-46" font-family="Helvetica,sans-Serif" font-size="10.00">::sendFrame</text>
</a>
</g>
</g>
<!-- Node2&#45;&gt;Node3 -->
<g id="edge2" class="edge">
<title>Node2&#45;&gt;Node3</title>
<path fill="none" stroke="midnightblue" d="M233.76,-54C225.18,-54 216.48,-54 208.05,-54"/>
<polygon fill="midnightblue" stroke="midnightblue" points="233.76,-57.5 243.76,-54 233.76,-50.5 233.76,-57.5"/>
</g>
<!-- Node4 -->
<g id="node4" class="node">
<title>Node4</title>
<g id="a_node4"><a xlink:href="src_2kazoo__connect__server_2main_8cpp.html#ae66f6b31b5ad750f1fe042a706a4e3d4" target="_top" xlink:title=" ">
<polygon fill="none" stroke="black" points="0,-63.5 0,-82.5 41,-82.5 41,-63.5 0,-63.5"/>
<text text-anchor="middle" x="20.5" y="-70.5" font-family="Helvetica,sans-Serif" font-size="10.00">main</text>
</a>
</g>
</g>
<!-- Node3&#45;&gt;Node4 -->
<g id="edge3" class="edge">
<title>Node3&#45;&gt;Node4</title>
<path fill="none" stroke="midnightblue" d="M66.91,-65.81C57.43,-67.31 48.46,-68.73 41.05,-69.91"/>
<polygon fill="midnightblue" stroke="midnightblue" points="67.6,-69.24 76.93,-64.22 66.51,-62.33 67.6,-69.24"/>
</g>
<!-- Node5 -->
<g id="node5" class="node">
<title>Node5</title>
<g id="a_node5"><a xlink:href="translation__layer_8test_8cpp.html#a557311196b9a309f0d8377ef5af0c62c" target="_top" xlink:title=" ">
<polygon fill="none" stroke="black" points="0,-25.5 0,-44.5 41,-44.5 41,-25.5 0,-25.5"/>
<text text-anchor="middle" x="20.5" y="-32.5" font-family="Helvetica,sans-Serif" font-size="10.00">TEST</text>
</a>
</g>
</g>
<!-- Node3&#45;&gt;Node5 -->
<g id="edge4" class="edge">
<title>Node3&#45;&gt;Node5</title>
<path fill="none" stroke="midnightblue" d="M66.91,-42.19C57.43,-40.69 48.46,-39.27 41.05,-38.09"/>
<polygon fill="midnightblue" stroke="midnightblue" points="66.51,-45.67 76.93,-43.78 67.6,-38.76 66.51,-45.67"/>
</g>
</g>
</svg>
