<?xml version="1.0" encoding="UTF-8" standalone="no"?>
<!DOCTYPE svg PUBLIC "-//W3C//DTD SVG 1.1//EN"
 "http://www.w3.org/Graphics/SVG/1.1/DTD/svg11.dtd">
<!-- Generated by graphviz version 2.43.0 (0)
 -->
<!-- Title: kazoo::AudioChannel::clear Pages: 1 -->
<svg width="538pt" height="103pt"
 viewBox="0.00 0.00 538.00 103.02" xmlns="http://www.w3.org/2000/svg" xmlns:xlink="http://www.w3.org/1999/xlink">
<g id="graph0" class="graph" transform="scale(1 1) rotate(0) translate(4 99.02)">
<title>kazoo::AudioChannel::clear</title>
<!-- Node1 -->
<g id="node1" class="node">
<title>Node1</title>
<g id="a_node1"><a xlink:title=" ">
<polygon fill="#bfbfbf" stroke="black" points="411,-15.52 411,-45.52 530,-45.52 530,-15.52 411,-15.52"/>
<text text-anchor="start" x="419" y="-33.52" font-family="Helvetica,sans-Serif" font-size="10.00">kazoo::AudioChannel</text>
<text text-anchor="middle" x="470.5" y="-22.52" font-family="Helvetica,sans-Serif" font-size="10.00">::clear</text>
</a>
</g>
</g>
<!-- Node2 -->
<g id="node2" class="node">
<title>Node2</title>
<g id="a_node2"><a xlink:href="classkazoo_1_1TranslationLayer.html#aa2783a8a2e4fb8fafa580e3cda27203e" target="_top" xlink:title=" ">
<polygon fill="none" stroke="black" points="244,-64.52 244,-94.52 375,-94.52 375,-64.52 244,-64.52"/>
<text text-anchor="start" x="252" y="-82.52" font-family="Helvetica,sans-Serif" font-size="10.00">kazoo::TranslationLayer</text>
<text text-anchor="middle" x="309.5" y="-71.52" font-family="Helvetica,sans-Serif" font-size="10.00">::listeningThreadFunc</text>
</a>
</g>
</g>
<!-- Node1&#45;&gt;Node2 -->
<g id="edge1" class="edge">
<title>Node1&#45;&gt;Node2</title>
<path fill="none" stroke="midnightblue" d="M410.73,-48.64C393.82,-53.85 375.57,-59.47 359.34,-64.47"/>
<polygon fill="midnightblue" stroke="midnightblue" points="411.97,-51.92 420.5,-45.63 409.91,-45.23 411.97,-51.92"/>
</g>
<!-- Node6 -->
<g id="node6" class="node">
<title>Node6</title>
<g id="a_node6"><a xlink:href="classkazoo_1_1TranslationLayer.html#aedda920ecfd94bff66feb03ee0bc93b6" target="_top" xlink:title=" ">
<polygon fill="none" stroke="black" points="244,-15.52 244,-45.52 375,-45.52 375,-15.52 244,-15.52"/>
<text text-anchor="start" x="252" y="-33.52" font-family="Helvetica,sans-Serif" font-size="10.00">kazoo::TranslationLayer</text>
<text text-anchor="middle" x="309.5" y="-22.52" font-family="Helvetica,sans-Serif" font-size="10.00">::playAudioBlocking</text>
</a>
</g>
</g>
<!-- Node1&#45;&gt;Node6 -->
<g id="edge5" class="edge">
<title>Node1&#45;&gt;Node6</title>
<path fill="none" stroke="midnightblue" d="M400.56,-30.52C392.13,-30.52 383.53,-30.52 375.17,-30.52"/>
<polygon fill="midnightblue" stroke="midnightblue" points="400.75,-34.02 410.75,-30.52 400.75,-27.02 400.75,-34.02"/>
</g>
<!-- Node7 -->
<g id="node7" class="node">
<title>Node7</title>
<g id="a_node7"><a xlink:href="classkazoo_1_1TranslationLayer.html#a85b59418d9b63eaf80dd1b3623a96b96" target="_top" xlink:title=" ">
<polygon fill="none" stroke="black" points="77,-15.52 77,-45.52 208,-45.52 208,-15.52 77,-15.52"/>
<text text-anchor="start" x="85" y="-33.52" font-family="Helvetica,sans-Serif" font-size="10.00">kazoo::TranslationLayer</text>
<text text-anchor="middle" x="142.5" y="-22.52" font-family="Helvetica,sans-Serif" font-size="10.00">::sendFrame</text>
</a>
</g>
</g>
<!-- Node1&#45;&gt;Node7 -->
<g id="edge9" class="edge">
<title>Node1&#45;&gt;Node7</title>
<path fill="none" stroke="midnightblue" d="M412.7,-12.96C400.38,-9.87 387.35,-7.13 375,-5.52 317.26,1.98 301.79,1.56 244,-5.52 227.4,-7.56 209.6,-11.41 193.66,-15.5"/>
<polygon fill="midnightblue" stroke="midnightblue" points="411.83,-16.35 422.39,-15.5 413.6,-9.58 411.83,-16.35"/>
</g>
<!-- Node3 -->
<g id="node3" class="node">
<title>Node3</title>
<g id="a_node3"><a xlink:href="classkazoo_1_1TranslationLayer.html#add62ed51f54492faf5a8ef388f1f0f58" target="_top" xlink:title="Starts listening for audio input on the default audio device.">
<polygon fill="none" stroke="black" points="77,-64.52 77,-94.52 208,-94.52 208,-64.52 77,-64.52"/>
<text text-anchor="start" x="85" y="-82.52" font-family="Helvetica,sans-Serif" font-size="10.00">kazoo::TranslationLayer</text>
<text text-anchor="middle" x="142.5" y="-71.52" font-family="Helvetica,sans-Serif" font-size="10.00">::startListening</text>
</a>
</g>
</g>
<!-- Node2&#45;&gt;Node3 -->
<g id="edge2" class="edge">
<title>Node2&#45;&gt;Node3</title>
<path fill="none" stroke="midnightblue" d="M233.76,-79.52C225.18,-79.52 216.48,-79.52 208.05,-79.52"/>
<polygon fill="midnightblue" stroke="midnightblue" points="233.76,-83.02 243.76,-79.52 233.76,-76.02 233.76,-83.02"/>
</g>
<!-- Node4 -->
<g id="node4" class="node">
<title>Node4</title>
<g id="a_node4"><a xlink:href="src_2kazoo__connect__server_2main_8cpp.html#ae66f6b31b5ad750f1fe042a706a4e3d4" target="_top" xlink:title=" ">
<polygon fill="none" stroke="black" points="0,-67.02 0,-86.02 41,-86.02 41,-67.02 0,-67.02"/>
<text text-anchor="middle" x="20.5" y="-74.02" font-family="Helvetica,sans-Serif" font-size="10.00">main</text>
</a>
</g>
</g>
<!-- Node3&#45;&gt;Node4 -->
<g id="edge3" class="edge">
<title>Node3&#45;&gt;Node4</title>
<path fill="none" stroke="midnightblue" d="M66.91,-77.66C57.43,-77.42 48.46,-77.2 41.05,-77.01"/>
<polygon fill="midnightblue" stroke="midnightblue" points="66.85,-81.16 76.93,-77.91 67.02,-74.16 66.85,-81.16"/>
</g>
<!-- Node5 -->
<g id="node5" class="node">
<title>Node5</title>
<g id="a_node5"><a xlink:href="translation__layer_8test_8cpp.html#a557311196b9a309f0d8377ef5af0c62c" target="_top" xlink:title=" ">
<polygon fill="none" stroke="black" points="0,-26.02 0,-45.02 41,-45.02 41,-26.02 0,-26.02"/>
<text text-anchor="middle" x="20.5" y="-33.02" font-family="Helvetica,sans-Serif" font-size="10.00">TEST</text>
</a>
</g>
</g>
<!-- Node3&#45;&gt;Node5 -->
<g id="edge4" class="edge">
<title>Node3&#45;&gt;Node5</title>
<path fill="none" stroke="midnightblue" d="M90.92,-60.98C73.34,-54.53 54.65,-47.68 41.1,-42.71"/>
<polygon fill="midnightblue" stroke="midnightblue" points="89.94,-64.35 100.54,-64.5 92.35,-57.78 89.94,-64.35"/>
</g>
<!-- Node6&#45;&gt;Node7 -->
<g id="edge6" class="edge">
<title>Node6&#45;&gt;Node7</title>
<path fill="none" stroke="midnightblue" d="M233.76,-30.52C225.18,-30.52 216.48,-30.52 208.05,-30.52"/>
<polygon fill="midnightblue" stroke="midnightblue" points="233.76,-34.02 243.76,-30.52 233.76,-27.02 233.76,-34.02"/>
</g>
<!-- Node7&#45;&gt;Node4 -->
<g id="edge7" class="edge">
<title>Node7&#45;&gt;Node4</title>
<path fill="none" stroke="midnightblue" d="M92.87,-49.17C74.69,-56.13 55.07,-63.66 41.01,-69.05"/>
<polygon fill="midnightblue" stroke="midnightblue" points="94.12,-52.43 102.21,-45.59 91.62,-45.9 94.12,-52.43"/>
</g>
<!-- Node7&#45;&gt;Node5 -->
<g id="edge8" class="edge">
<title>Node7&#45;&gt;Node5</title>
<path fill="none" stroke="midnightblue" d="M66.91,-33.63C57.43,-34.03 48.46,-34.4 41.05,-34.71"/>
<polygon fill="midnightblue" stroke="midnightblue" points="67.09,-37.13 76.93,-33.21 66.8,-30.13 67.09,-37.13"/>
</g>
</g>
</svg>
