<?xml version="1.0" encoding="UTF-8" standalone="no"?>
<!DOCTYPE svg PUBLIC "-//W3C//DTD SVG 1.1//EN"
 "http://www.w3.org/Graphics/SVG/1.1/DTD/svg11.dtd">
<!-- Generated by graphviz version 2.43.0 (0)
 -->
<!-- Title: kazoo::ISymbolModel::getSymbolId Pages: 1 -->
<svg width="703pt" height="113pt"
 viewBox="0.00 0.00 703.00 113.00" xmlns="http://www.w3.org/2000/svg" xmlns:xlink="http://www.w3.org/1999/xlink">
<g id="graph0" class="graph" transform="scale(1 1) rotate(0) translate(4 109)">
<title>kazoo::ISymbolModel::getSymbolId</title>
<!-- Node1 -->
<g id="node1" class="node">
<title>Node1</title>
<g id="a_node1"><a xlink:title=" ">
<polygon fill="#bfbfbf" stroke="black" points="574,-17 574,-47 695,-47 695,-17 574,-17"/>
<text text-anchor="start" x="582" y="-35" font-family="Helvetica,sans-Serif" font-size="10.00">kazoo::ISymbolModel</text>
<text text-anchor="middle" x="634.5" y="-24" font-family="Helvetica,sans-Serif" font-size="10.00">::getSymbolId</text>
</a>
</g>
</g>
<!-- Node2 -->
<g id="node2" class="node">
<title>Node2</title>
<g id="a_node2"><a xlink:href="classkazoo_1_1SymbolStream.html#a483b690f6e07727669434375cbb23586" target="_top" xlink:title="Process a binary stream and convert it to symbols, removing the bits from the binary stream.">
<polygon fill="none" stroke="black" points="411,-17 411,-47 538,-47 538,-17 411,-17"/>
<text text-anchor="start" x="419" y="-35" font-family="Helvetica,sans-Serif" font-size="10.00">kazoo::SymbolStream</text>
<text text-anchor="middle" x="474.5" y="-24" font-family="Helvetica,sans-Serif" font-size="10.00">::processBinaryStream</text>
</a>
</g>
</g>
<!-- Node1&#45;&gt;Node2 -->
<g id="edge1" class="edge">
<title>Node1&#45;&gt;Node2</title>
<path fill="none" stroke="midnightblue" d="M563.57,-32C555.12,-32 546.54,-32 538.21,-32"/>
<polygon fill="midnightblue" stroke="midnightblue" points="563.77,-35.5 573.77,-32 563.77,-28.5 563.77,-35.5"/>
</g>
<!-- Node3 -->
<g id="node3" class="node">
<title>Node3</title>
<g id="a_node3"><a xlink:href="classkazoo_1_1TranslationLayer.html#a6b80b010d94b9f1373fea308d1c6d435" target="_top" xlink:title="Takes input data and processes it through the symbol stream.">
<polygon fill="none" stroke="black" points="244,-39 244,-69 375,-69 375,-39 244,-39"/>
<text text-anchor="start" x="252" y="-57" font-family="Helvetica,sans-Serif" font-size="10.00">kazoo::TranslationLayer</text>
<text text-anchor="middle" x="309.5" y="-46" font-family="Helvetica,sans-Serif" font-size="10.00">::addData</text>
</a>
</g>
</g>
<!-- Node2&#45;&gt;Node3 -->
<g id="edge2" class="edge">
<title>Node2&#45;&gt;Node3</title>
<path fill="none" stroke="midnightblue" d="M400.91,-41.8C392.3,-42.96 383.54,-44.14 375.05,-45.29"/>
<polygon fill="midnightblue" stroke="midnightblue" points="401.5,-45.25 410.95,-40.44 400.57,-38.31 401.5,-45.25"/>
</g>
<!-- Node8 -->
<g id="node8" class="node">
<title>Node8</title>
<g id="a_node8"><a xlink:href="symbol__stream_8test_8cpp.html#ae06de649963b46341ca9f338594aa8cd" target="_top" xlink:title=" ">
<polygon fill="none" stroke="black" points="289,-0.5 289,-19.5 330,-19.5 330,-0.5 289,-0.5"/>
<text text-anchor="middle" x="309.5" y="-7.5" font-family="Helvetica,sans-Serif" font-size="10.00">TEST</text>
</a>
</g>
</g>
<!-- Node2&#45;&gt;Node8 -->
<g id="edge7" class="edge">
<title>Node2&#45;&gt;Node8</title>
<path fill="none" stroke="midnightblue" d="M400.73,-22.18C374.87,-18.69 347.82,-15.04 330.16,-12.65"/>
<polygon fill="midnightblue" stroke="midnightblue" points="400.57,-25.69 410.95,-23.56 401.5,-18.75 400.57,-25.69"/>
</g>
<!-- Node4 -->
<g id="node4" class="node">
<title>Node4</title>
<g id="a_node4"><a xlink:href="classkazoo_1_1TranslationLayer.html#a85b59418d9b63eaf80dd1b3623a96b96" target="_top" xlink:title=" ">
<polygon fill="none" stroke="black" points="77,-61 77,-91 208,-91 208,-61 77,-61"/>
<text text-anchor="start" x="85" y="-79" font-family="Helvetica,sans-Serif" font-size="10.00">kazoo::TranslationLayer</text>
<text text-anchor="middle" x="142.5" y="-68" font-family="Helvetica,sans-Serif" font-size="10.00">::sendFrame</text>
</a>
</g>
</g>
<!-- Node3&#45;&gt;Node4 -->
<g id="edge3" class="edge">
<title>Node3&#45;&gt;Node4</title>
<path fill="none" stroke="midnightblue" d="M233.76,-63.97C225.18,-65.11 216.48,-66.27 208.05,-67.39"/>
<polygon fill="midnightblue" stroke="midnightblue" points="234.31,-67.42 243.76,-62.63 233.39,-60.48 234.31,-67.42"/>
</g>
<!-- Node7 -->
<g id="node7" class="node">
<title>Node7</title>
<g id="a_node7"><a xlink:href="translation__layer_8test_8cpp.html#a5981aa5142cca1c44a01f7506cf94a8e" target="_top" xlink:title=" ">
<polygon fill="none" stroke="black" points="122,-22.5 122,-41.5 163,-41.5 163,-22.5 122,-22.5"/>
<text text-anchor="middle" x="142.5" y="-29.5" font-family="Helvetica,sans-Serif" font-size="10.00">TEST</text>
</a>
</g>
</g>
<!-- Node3&#45;&gt;Node7 -->
<g id="edge6" class="edge">
<title>Node3&#45;&gt;Node7</title>
<path fill="none" stroke="midnightblue" d="M233.85,-44.05C207.79,-40.57 180.67,-36.96 163.03,-34.6"/>
<polygon fill="midnightblue" stroke="midnightblue" points="233.39,-47.52 243.76,-45.37 234.31,-40.58 233.39,-47.52"/>
</g>
<!-- Node5 -->
<g id="node5" class="node">
<title>Node5</title>
<g id="a_node5"><a xlink:href="src_2kazoo__connect__server_2main_8cpp.html#ae66f6b31b5ad750f1fe042a706a4e3d4" target="_top" xlink:title=" ">
<polygon fill="none" stroke="black" points="0,-85.5 0,-104.5 41,-104.5 41,-85.5 0,-85.5"/>
<text text-anchor="middle" x="20.5" y="-92.5" font-family="Helvetica,sans-Serif" font-size="10.00">main</text>
</a>
</g>
</g>
<!-- Node4&#45;&gt;Node5 -->
<g id="edge4" class="edge">
<title>Node4&#45;&gt;Node5</title>
<path fill="none" stroke="midnightblue" d="M66.91,-87.81C57.43,-89.31 48.46,-90.73 41.05,-91.91"/>
<polygon fill="midnightblue" stroke="midnightblue" points="67.6,-91.24 76.93,-86.22 66.51,-84.33 67.6,-91.24"/>
</g>
<!-- Node6 -->
<g id="node6" class="node">
<title>Node6</title>
<g id="a_node6"><a xlink:href="translation__layer_8test_8cpp.html#a557311196b9a309f0d8377ef5af0c62c" target="_top" xlink:title=" ">
<polygon fill="none" stroke="black" points="0,-47.5 0,-66.5 41,-66.5 41,-47.5 0,-47.5"/>
<text text-anchor="middle" x="20.5" y="-54.5" font-family="Helvetica,sans-Serif" font-size="10.00">TEST</text>
</a>
</g>
</g>
<!-- Node4&#45;&gt;Node6 -->
<g id="edge5" class="edge">
<title>Node4&#45;&gt;Node6</title>
<path fill="none" stroke="midnightblue" d="M66.91,-64.19C57.43,-62.69 48.46,-61.27 41.05,-60.09"/>
<polygon fill="midnightblue" stroke="midnightblue" points="66.51,-67.67 76.93,-65.78 67.6,-60.76 66.51,-67.67"/>
</g>
</g>
</svg>
