<?xml version="1.0" encoding="UTF-8" standalone="no"?>
<!DOCTYPE svg PUBLIC "-//W3C//DTD SVG 1.1//EN"
 "http://www.w3.org/Graphics/SVG/1.1/DTD/svg11.dtd">
<!-- Generated by graphviz version 2.43.0 (0)
 -->
<!-- Title: kazoo::IAudioChannel::getSamplesRef Pages: 1 -->
<svg width="794pt" height="336pt"
 viewBox="0.00 0.00 794.00 335.50" xmlns="http://www.w3.org/2000/svg" xmlns:xlink="http://www.w3.org/1999/xlink">
<g id="graph0" class="graph" transform="scale(1 1) rotate(0) translate(4 331.5)">
<title>kazoo::IAudioChannel::getSamplesRef</title>
<!-- Node1 -->
<g id="node1" class="node">
<title>Node1</title>
<g id="a_node1"><a xlink:title=" ">
<polygon fill="#bfbfbf" stroke="black" points="664,-174 664,-204 786,-204 786,-174 664,-174"/>
<text text-anchor="start" x="672" y="-192" font-family="Helvetica,sans-Serif" font-size="10.00">kazoo::IAudioChannel</text>
<text text-anchor="middle" x="725" y="-181" font-family="Helvetica,sans-Serif" font-size="10.00">::getSamplesRef</text>
</a>
</g>
</g>
<!-- Node2 -->
<g id="node2" class="node">
<title>Node2</title>
<g id="a_node2"><a xlink:href="classkazoo_1_1model_1_1K1Model_1_1Model.html#ae81ef27f4256c94c207bb252bbc72860" target="_top" xlink:title=" ">
<polygon fill="none" stroke="black" points="432.5,-199 432.5,-229 606.5,-229 606.5,-199 432.5,-199"/>
<text text-anchor="start" x="440.5" y="-217" font-family="Helvetica,sans-Serif" font-size="10.00">kazoo::model::K1Model</text>
<text text-anchor="middle" x="519.5" y="-206" font-family="Helvetica,sans-Serif" font-size="10.00">::Model::decodeAudioToSymbols</text>
</a>
</g>
</g>
<!-- Node1&#45;&gt;Node2 -->
<g id="edge1" class="edge">
<title>Node1&#45;&gt;Node2</title>
<path fill="none" stroke="midnightblue" d="M653.48,-197.66C638.36,-199.52 622.22,-201.5 606.59,-203.42"/>
<polygon fill="midnightblue" stroke="midnightblue" points="654.27,-201.09 663.77,-196.4 653.42,-194.14 654.27,-201.09"/>
</g>
<!-- Node4 -->
<g id="node4" class="node">
<title>Node4</title>
<g id="a_node4"><a xlink:href="classkazoo_1_1model_1_1K2PeakModel_1_1Model.html#ab9a88aed9b08fb13ca096dc482729308" target="_top" xlink:title=" ">
<polygon fill="none" stroke="black" points="432.5,-297 432.5,-327 606.5,-327 606.5,-297 432.5,-297"/>
<text text-anchor="start" x="440.5" y="-315" font-family="Helvetica,sans-Serif" font-size="10.00">kazoo::model::K2PeakModel</text>
<text text-anchor="middle" x="519.5" y="-304" font-family="Helvetica,sans-Serif" font-size="10.00">::Model::decodeAudioToSymbols</text>
</a>
</g>
</g>
<!-- Node1&#45;&gt;Node4 -->
<g id="edge3" class="edge">
<title>Node1&#45;&gt;Node4</title>
<path fill="none" stroke="midnightblue" d="M707.89,-212.22C690.75,-235.09 661.53,-269.23 628,-288 621.33,-291.74 614.11,-294.89 606.69,-297.55"/>
<polygon fill="midnightblue" stroke="midnightblue" points="710.77,-214.2 713.85,-204.06 705.12,-210.07 710.77,-214.2"/>
</g>
<!-- Node6 -->
<g id="node6" class="node">
<title>Node6</title>
<g id="a_node6"><a xlink:href="classkazoo_1_1model_1_1K3ReasonableModel_1_1K3Model.html#a7bbd29b57bbe7679a0fe5341dcead576" target="_top" xlink:title=" ">
<polygon fill="none" stroke="black" points="411,-248 411,-278 628,-278 628,-248 411,-248"/>
<text text-anchor="start" x="419" y="-266" font-family="Helvetica,sans-Serif" font-size="10.00">kazoo::model::K3Reasonable</text>
<text text-anchor="middle" x="519.5" y="-255" font-family="Helvetica,sans-Serif" font-size="10.00">Model::K3Model::decodeAudioToSymbols</text>
</a>
</g>
</g>
<!-- Node1&#45;&gt;Node6 -->
<g id="edge5" class="edge">
<title>Node1&#45;&gt;Node6</title>
<path fill="none" stroke="midnightblue" d="M690.61,-209.14C672.58,-219.3 649.65,-231.1 628,-239 618.75,-242.38 608.87,-245.37 598.99,-247.99"/>
<polygon fill="midnightblue" stroke="midnightblue" points="692.62,-212.02 699.55,-204.01 689.13,-205.95 692.62,-212.02"/>
</g>
<!-- Node8 -->
<g id="node8" class="node">
<title>Node8</title>
<g id="a_node8"><a xlink:href="classkazoo_1_1model_1_1Testing_1_1Model.html#a368da153dec9c373f8f63592579c42b5" target="_top" xlink:title=" ">
<polygon fill="none" stroke="black" points="432.5,-101 432.5,-131 606.5,-131 606.5,-101 432.5,-101"/>
<text text-anchor="start" x="440.5" y="-119" font-family="Helvetica,sans-Serif" font-size="10.00">kazoo::model::Testing</text>
<text text-anchor="middle" x="519.5" y="-108" font-family="Helvetica,sans-Serif" font-size="10.00">::Model::decodeAudioToSymbols</text>
</a>
</g>
</g>
<!-- Node1&#45;&gt;Node8 -->
<g id="edge7" class="edge">
<title>Node1&#45;&gt;Node8</title>
<path fill="none" stroke="midnightblue" d="M689.8,-168.88C671.88,-159.03 649.29,-147.67 628,-140 618.64,-136.63 608.65,-133.64 598.67,-131.01"/>
<polygon fill="midnightblue" stroke="midnightblue" points="688.28,-172.03 698.72,-173.86 691.7,-165.92 688.28,-172.03"/>
</g>
<!-- Node10 -->
<g id="node10" class="node">
<title>Node10</title>
<g id="a_node10"><a xlink:href="classkazoo_1_1WavFile.html#a01f04370c47e9cc867e69cea710ea642" target="_top" xlink:title=" ">
<polygon fill="none" stroke="black" points="449,-150 449,-180 590,-180 590,-150 449,-150"/>
<text text-anchor="start" x="457" y="-168" font-family="Helvetica,sans-Serif" font-size="10.00">kazoo::WavFile::loadFrom</text>
<text text-anchor="middle" x="519.5" y="-157" font-family="Helvetica,sans-Serif" font-size="10.00">AudioChannel</text>
</a>
</g>
</g>
<!-- Node1&#45;&gt;Node10 -->
<g id="edge9" class="edge">
<title>Node1&#45;&gt;Node10</title>
<path fill="none" stroke="midnightblue" d="M653.56,-180.69C633.07,-178.28 610.69,-175.64 590.24,-173.23"/>
<polygon fill="midnightblue" stroke="midnightblue" points="653.43,-184.2 663.77,-181.9 654.25,-177.25 653.43,-184.2"/>
</g>
<!-- Node13 -->
<g id="node13" class="node">
<title>Node13</title>
<g id="a_node13"><a xlink:href="classkazoo_1_1PulseAudio_1_1Player.html#abc17fbc9d400e16618a0ae1bab833e4b" target="_top" xlink:title=" ">
<polygon fill="none" stroke="black" points="464,-52 464,-82 575,-82 575,-52 464,-52"/>
<text text-anchor="start" x="472" y="-70" font-family="Helvetica,sans-Serif" font-size="10.00">kazoo::PulseAudio::</text>
<text text-anchor="middle" x="519.5" y="-59" font-family="Helvetica,sans-Serif" font-size="10.00">Player::play</text>
</a>
</g>
</g>
<!-- Node1&#45;&gt;Node13 -->
<g id="edge14" class="edge">
<title>Node1&#45;&gt;Node13</title>
<path fill="none" stroke="midnightblue" d="M707.55,-165.64C690.33,-143.01 661.22,-109.48 628,-91 611.96,-82.08 592.83,-76.47 575.19,-72.95"/>
<polygon fill="midnightblue" stroke="midnightblue" points="704.78,-167.78 713.55,-173.73 710.4,-163.61 704.78,-167.78"/>
</g>
<!-- Node3 -->
<g id="node3" class="node">
<title>Node3</title>
<g id="a_node3"><a xlink:href="k1__model_8test_8cpp.html#a7afde82f3b7a3b8a1d5c2175d4d2b323" target="_top" xlink:title=" ">
<polygon fill="none" stroke="black" points="283.5,-202.5 283.5,-221.5 335.5,-221.5 335.5,-202.5 283.5,-202.5"/>
<text text-anchor="middle" x="309.5" y="-209.5" font-family="Helvetica,sans-Serif" font-size="10.00">TEST_F</text>
</a>
</g>
</g>
<!-- Node2&#45;&gt;Node3 -->
<g id="edge2" class="edge">
<title>Node2&#45;&gt;Node3</title>
<path fill="none" stroke="midnightblue" d="M422.12,-213.07C390.31,-212.77 357.54,-212.45 335.81,-212.24"/>
<polygon fill="midnightblue" stroke="midnightblue" points="422.36,-216.58 432.4,-213.17 422.43,-209.58 422.36,-216.58"/>
</g>
<!-- Node5 -->
<g id="node5" class="node">
<title>Node5</title>
<g id="a_node5"><a xlink:href="k2__peak__model_8test_8cpp.html#a17f63146f1faeef6df7fadccd45457c5" target="_top" xlink:title=" ">
<polygon fill="none" stroke="black" points="283.5,-302.5 283.5,-321.5 335.5,-321.5 335.5,-302.5 283.5,-302.5"/>
<text text-anchor="middle" x="309.5" y="-309.5" font-family="Helvetica,sans-Serif" font-size="10.00">TEST_F</text>
</a>
</g>
</g>
<!-- Node4&#45;&gt;Node5 -->
<g id="edge4" class="edge">
<title>Node4&#45;&gt;Node5</title>
<path fill="none" stroke="midnightblue" d="M422.12,-312C390.31,-312 357.54,-312 335.81,-312"/>
<polygon fill="midnightblue" stroke="midnightblue" points="422.4,-315.5 432.4,-312 422.4,-308.5 422.4,-315.5"/>
</g>
<!-- Node7 -->
<g id="node7" class="node">
<title>Node7</title>
<g id="a_node7"><a xlink:href="k3__model_8test_8cpp.html#ac3bedba18c3a5c5cdf36b38d093ae122" target="_top" xlink:title=" ">
<polygon fill="none" stroke="black" points="283.5,-253.5 283.5,-272.5 335.5,-272.5 335.5,-253.5 283.5,-253.5"/>
<text text-anchor="middle" x="309.5" y="-260.5" font-family="Helvetica,sans-Serif" font-size="10.00">TEST_F</text>
</a>
</g>
</g>
<!-- Node6&#45;&gt;Node7 -->
<g id="edge6" class="edge">
<title>Node6&#45;&gt;Node7</title>
<path fill="none" stroke="midnightblue" d="M400.65,-263C376.09,-263 352.58,-263 335.73,-263"/>
<polygon fill="midnightblue" stroke="midnightblue" points="400.84,-266.5 410.84,-263 400.84,-259.5 400.84,-266.5"/>
</g>
<!-- Node9 -->
<g id="node9" class="node">
<title>Node9</title>
<g id="a_node9"><a xlink:href="testing__model_8test_8cpp.html#a5f7f706da071e9c79176674931fb0dd9" target="_top" xlink:title=" ">
<polygon fill="none" stroke="black" points="289,-109.5 289,-128.5 330,-128.5 330,-109.5 289,-109.5"/>
<text text-anchor="middle" x="309.5" y="-116.5" font-family="Helvetica,sans-Serif" font-size="10.00">TEST</text>
</a>
</g>
</g>
<!-- Node8&#45;&gt;Node9 -->
<g id="edge8" class="edge">
<title>Node8&#45;&gt;Node9</title>
<path fill="none" stroke="midnightblue" d="M422.15,-117.39C387.39,-117.89 351.48,-118.41 330.08,-118.72"/>
<polygon fill="midnightblue" stroke="midnightblue" points="422.45,-120.89 432.4,-117.24 422.35,-113.89 422.45,-120.89"/>
</g>
<!-- Node10&#45;&gt;Node3 -->
<g id="edge13" class="edge">
<title>Node10&#45;&gt;Node3</title>
<path fill="none" stroke="midnightblue" d="M442.19,-182.24C404.63,-190.73 361.89,-200.39 335.55,-206.34"/>
<polygon fill="midnightblue" stroke="midnightblue" points="443.13,-185.62 452.12,-180 441.59,-178.79 443.13,-185.62"/>
</g>
<!-- Node10&#45;&gt;Node9 -->
<g id="edge12" class="edge">
<title>Node10&#45;&gt;Node9</title>
<path fill="none" stroke="midnightblue" d="M440.42,-147.73C400.65,-138.94 355.49,-128.95 330.26,-123.37"/>
<polygon fill="midnightblue" stroke="midnightblue" points="439.87,-151.2 450.39,-149.94 441.38,-144.36 439.87,-151.2"/>
</g>
<!-- Node11 -->
<g id="node11" class="node">
<title>Node11</title>
<g id="a_node11"><a xlink:href="classkazoo_1_1TranslationLayer.html#a47d2aac58d5e7c5903944dde5caf1cf3" target="_top" xlink:title=" ">
<polygon fill="none" stroke="black" points="244,-150 244,-180 375,-180 375,-150 244,-150"/>
<text text-anchor="start" x="252" y="-168" font-family="Helvetica,sans-Serif" font-size="10.00">kazoo::TranslationLayer</text>
<text text-anchor="middle" x="309.5" y="-157" font-family="Helvetica,sans-Serif" font-size="10.00">::saveWav</text>
</a>
</g>
</g>
<!-- Node10&#45;&gt;Node11 -->
<g id="edge10" class="edge">
<title>Node10&#45;&gt;Node11</title>
<path fill="none" stroke="midnightblue" d="M438.74,-165C417.68,-165 395.21,-165 375.07,-165"/>
<polygon fill="midnightblue" stroke="midnightblue" points="438.95,-168.5 448.95,-165 438.95,-161.5 438.95,-168.5"/>
</g>
<!-- Node12 -->
<g id="node12" class="node">
<title>Node12</title>
<g id="a_node12"><a xlink:href="translation__layer_8test_8cpp.html#a5981aa5142cca1c44a01f7506cf94a8e" target="_top" xlink:title=" ">
<polygon fill="none" stroke="black" points="122,-155.5 122,-174.5 163,-174.5 163,-155.5 122,-155.5"/>
<text text-anchor="middle" x="142.5" y="-162.5" font-family="Helvetica,sans-Serif" font-size="10.00">TEST</text>
</a>
</g>
</g>
<!-- Node11&#45;&gt;Node12 -->
<g id="edge11" class="edge">
<title>Node11&#45;&gt;Node12</title>
<path fill="none" stroke="midnightblue" d="M233.5,-165C207.55,-165 180.6,-165 163.03,-165"/>
<polygon fill="midnightblue" stroke="midnightblue" points="233.76,-168.5 243.76,-165 233.76,-161.5 233.76,-168.5"/>
</g>
<!-- Node14 -->
<g id="node14" class="node">
<title>Node14</title>
<g id="a_node14"><a xlink:href="classkazoo_1_1TranslationLayer.html#aedda920ecfd94bff66feb03ee0bc93b6" target="_top" xlink:title=" ">
<polygon fill="none" stroke="black" points="244,-14 244,-44 375,-44 375,-14 244,-14"/>
<text text-anchor="start" x="252" y="-32" font-family="Helvetica,sans-Serif" font-size="10.00">kazoo::TranslationLayer</text>
<text text-anchor="middle" x="309.5" y="-21" font-family="Helvetica,sans-Serif" font-size="10.00">::playAudioBlocking</text>
</a>
</g>
</g>
<!-- Node13&#45;&gt;Node14 -->
<g id="edge15" class="edge">
<title>Node13&#45;&gt;Node14</title>
<path fill="none" stroke="midnightblue" d="M453.73,-55.17C428.71,-50.6 400.14,-45.38 375.13,-40.81"/>
<polygon fill="midnightblue" stroke="midnightblue" points="453.38,-58.66 463.85,-57.02 454.64,-51.78 453.38,-58.66"/>
</g>
<!-- Node18 -->
<g id="node18" class="node">
<title>Node18</title>
<g id="a_node18"><a xlink:href="pulse__audio_8test_8cpp.html#a774876eeb7e4a30be6831492ec36572b" target="_top" xlink:title=" ">
<polygon fill="none" stroke="black" points="289,-63.5 289,-82.5 330,-82.5 330,-63.5 289,-63.5"/>
<text text-anchor="middle" x="309.5" y="-70.5" font-family="Helvetica,sans-Serif" font-size="10.00">TEST</text>
</a>
</g>
</g>
<!-- Node13&#45;&gt;Node18 -->
<g id="edge19" class="edge">
<title>Node13&#45;&gt;Node18</title>
<path fill="none" stroke="midnightblue" d="M453.81,-68.87C411.14,-70.1 358.11,-71.63 330.05,-72.44"/>
<polygon fill="midnightblue" stroke="midnightblue" points="453.96,-72.36 463.85,-68.58 453.75,-65.37 453.96,-72.36"/>
</g>
<!-- Node15 -->
<g id="node15" class="node">
<title>Node15</title>
<g id="a_node15"><a xlink:href="classkazoo_1_1TranslationLayer.html#a85b59418d9b63eaf80dd1b3623a96b96" target="_top" xlink:title=" ">
<polygon fill="none" stroke="black" points="77,-14 77,-44 208,-44 208,-14 77,-14"/>
<text text-anchor="start" x="85" y="-32" font-family="Helvetica,sans-Serif" font-size="10.00">kazoo::TranslationLayer</text>
<text text-anchor="middle" x="142.5" y="-21" font-family="Helvetica,sans-Serif" font-size="10.00">::sendFrame</text>
</a>
</g>
</g>
<!-- Node14&#45;&gt;Node15 -->
<g id="edge16" class="edge">
<title>Node14&#45;&gt;Node15</title>
<path fill="none" stroke="midnightblue" d="M233.76,-29C225.18,-29 216.48,-29 208.05,-29"/>
<polygon fill="midnightblue" stroke="midnightblue" points="233.76,-32.5 243.76,-29 233.76,-25.5 233.76,-32.5"/>
</g>
<!-- Node16 -->
<g id="node16" class="node">
<title>Node16</title>
<g id="a_node16"><a xlink:href="src_2kazoo__connect__server_2main_8cpp.html#ae66f6b31b5ad750f1fe042a706a4e3d4" target="_top" xlink:title=" ">
<polygon fill="none" stroke="black" points="0,-38.5 0,-57.5 41,-57.5 41,-38.5 0,-38.5"/>
<text text-anchor="middle" x="20.5" y="-45.5" font-family="Helvetica,sans-Serif" font-size="10.00">main</text>
</a>
</g>
</g>
<!-- Node15&#45;&gt;Node16 -->
<g id="edge17" class="edge">
<title>Node15&#45;&gt;Node16</title>
<path fill="none" stroke="midnightblue" d="M66.91,-40.81C57.43,-42.31 48.46,-43.73 41.05,-44.91"/>
<polygon fill="midnightblue" stroke="midnightblue" points="67.6,-44.24 76.93,-39.22 66.51,-37.33 67.6,-44.24"/>
</g>
<!-- Node17 -->
<g id="node17" class="node">
<title>Node17</title>
<g id="a_node17"><a xlink:href="translation__layer_8test_8cpp.html#a557311196b9a309f0d8377ef5af0c62c" target="_top" xlink:title=" ">
<polygon fill="none" stroke="black" points="0,-0.5 0,-19.5 41,-19.5 41,-0.5 0,-0.5"/>
<text text-anchor="middle" x="20.5" y="-7.5" font-family="Helvetica,sans-Serif" font-size="10.00">TEST</text>
</a>
</g>
</g>
<!-- Node15&#45;&gt;Node17 -->
<g id="edge18" class="edge">
<title>Node15&#45;&gt;Node17</title>
<path fill="none" stroke="midnightblue" d="M66.91,-17.19C57.43,-15.69 48.46,-14.27 41.05,-13.09"/>
<polygon fill="midnightblue" stroke="midnightblue" points="66.51,-20.67 76.93,-18.78 67.6,-13.76 66.51,-20.67"/>
</g>
</g>
</svg>
