<?xml version="1.0" encoding="UTF-8" standalone="no"?>
<!DOCTYPE svg PUBLIC "-//W3C//DTD SVG 1.1//EN"
 "http://www.w3.org/Graphics/SVG/1.1/DTD/svg11.dtd">
<!-- Generated by graphviz version 2.43.0 (0)
 -->
<!-- Title: kazoo::WavFile::write Pages: 1 -->
<svg width="372pt" height="116pt"
 viewBox="0.00 0.00 372.00 115.50" xmlns="http://www.w3.org/2000/svg" xmlns:xlink="http://www.w3.org/1999/xlink">
<g id="graph0" class="graph" transform="scale(1 1) rotate(0) translate(4 111.5)">
<title>kazoo::WavFile::write</title>
<!-- Node1 -->
<g id="node1" class="node">
<title>Node1</title>
<g id="a_node1"><a xlink:title=" ">
<polygon fill="#bfbfbf" stroke="black" points="244,-38.5 244,-57.5 364,-57.5 364,-38.5 244,-38.5"/>
<text text-anchor="middle" x="304" y="-45.5" font-family="Helvetica,sans-Serif" font-size="10.00">kazoo::WavFile::write</text>
</a>
</g>
</g>
<!-- Node2 -->
<g id="node2" class="node">
<title>Node2</title>
<g id="a_node2"><a xlink:href="classkazoo_1_1TranslationLayer.html#a47d2aac58d5e7c5903944dde5caf1cf3" target="_top" xlink:title=" ">
<polygon fill="none" stroke="black" points="77,-77 77,-107 208,-107 208,-77 77,-77"/>
<text text-anchor="start" x="85" y="-95" font-family="Helvetica,sans-Serif" font-size="10.00">kazoo::TranslationLayer</text>
<text text-anchor="middle" x="142.5" y="-84" font-family="Helvetica,sans-Serif" font-size="10.00">::saveWav</text>
</a>
</g>
</g>
<!-- Node1&#45;&gt;Node2 -->
<g id="edge1" class="edge">
<title>Node1&#45;&gt;Node2</title>
<path fill="none" stroke="midnightblue" d="M258.63,-60.24C239.88,-65.41 217.85,-71.49 198.11,-76.93"/>
<polygon fill="midnightblue" stroke="midnightblue" points="259.68,-63.58 268.39,-57.55 257.82,-56.83 259.68,-63.58"/>
</g>
<!-- Node4 -->
<g id="node4" class="node">
<title>Node4</title>
<g id="a_node4"><a xlink:href="wav__file_8test_8cpp.html#aedc064d62c61178ca03e853f2d6b04c6" target="_top" xlink:title=" ">
<polygon fill="none" stroke="black" points="122,-38.5 122,-57.5 163,-57.5 163,-38.5 122,-38.5"/>
<text text-anchor="middle" x="142.5" y="-45.5" font-family="Helvetica,sans-Serif" font-size="10.00">TEST</text>
</a>
</g>
</g>
<!-- Node1&#45;&gt;Node4 -->
<g id="edge3" class="edge">
<title>Node1&#45;&gt;Node4</title>
<path fill="none" stroke="midnightblue" d="M233.52,-48C207.93,-48 180.9,-48 163.22,-48"/>
<polygon fill="midnightblue" stroke="midnightblue" points="233.61,-51.5 243.61,-48 233.61,-44.5 233.61,-51.5"/>
</g>
<!-- Node5 -->
<g id="node5" class="node">
<title>Node5</title>
<g id="a_node5"><a xlink:href="k1__model_8test_8cpp.html#a7afde82f3b7a3b8a1d5c2175d4d2b323" target="_top" xlink:title=" ">
<polygon fill="none" stroke="black" points="116.5,-0.5 116.5,-19.5 168.5,-19.5 168.5,-0.5 116.5,-0.5"/>
<text text-anchor="middle" x="142.5" y="-7.5" font-family="Helvetica,sans-Serif" font-size="10.00">TEST_F</text>
</a>
</g>
</g>
<!-- Node1&#45;&gt;Node5 -->
<g id="edge4" class="edge">
<title>Node1&#45;&gt;Node5</title>
<path fill="none" stroke="midnightblue" d="M252.75,-36.03C224.81,-29.37 191.26,-21.38 168.77,-16.02"/>
<polygon fill="midnightblue" stroke="midnightblue" points="252.21,-39.5 262.75,-38.41 253.83,-32.69 252.21,-39.5"/>
</g>
<!-- Node3 -->
<g id="node3" class="node">
<title>Node3</title>
<g id="a_node3"><a xlink:href="translation__layer_8test_8cpp.html#a5981aa5142cca1c44a01f7506cf94a8e" target="_top" xlink:title=" ">
<polygon fill="none" stroke="black" points="0,-82.5 0,-101.5 41,-101.5 41,-82.5 0,-82.5"/>
<text text-anchor="middle" x="20.5" y="-89.5" font-family="Helvetica,sans-Serif" font-size="10.00">TEST</text>
</a>
</g>
</g>
<!-- Node2&#45;&gt;Node3 -->
<g id="edge2" class="edge">
<title>Node2&#45;&gt;Node3</title>
<path fill="none" stroke="midnightblue" d="M66.91,-92C57.43,-92 48.46,-92 41.05,-92"/>
<polygon fill="midnightblue" stroke="midnightblue" points="66.93,-95.5 76.93,-92 66.93,-88.5 66.93,-95.5"/>
</g>
</g>
</svg>
