<?xml version="1.0" encoding="UTF-8" standalone="no"?>
<!DOCTYPE svg PUBLIC "-//W3C//DTD SVG 1.1//EN"
 "http://www.w3.org/Graphics/SVG/1.1/DTD/svg11.dtd">
<!-- Generated by graphviz version 2.43.0 (0)
 -->
<!-- Title: kazoo::Encoder::encodeAvailableSymbols Pages: 1 -->
<svg width="398pt" height="166pt"
 viewBox="0.00 0.00 398.00 165.50" xmlns="http://www.w3.org/2000/svg" xmlns:xlink="http://www.w3.org/1999/xlink">
<g id="graph0" class="graph" transform="scale(1 1) rotate(0) translate(4 161.5)">
<title>kazoo::Encoder::encodeAvailableSymbols</title>
<!-- Node1 -->
<g id="node1" class="node">
<title>Node1</title>
<g id="a_node1"><a xlink:title="Pops symbols from the front of the symbol stream and encodes them into the audio buffer.">
<polygon fill="#bfbfbf" stroke="black" points="0,-66.5 0,-96.5 176,-96.5 176,-66.5 0,-66.5"/>
<text text-anchor="start" x="8" y="-84.5" font-family="Helvetica,sans-Serif" font-size="10.00">kazoo::Encoder::encodeAvailable</text>
<text text-anchor="middle" x="88" y="-73.5" font-family="Helvetica,sans-Serif" font-size="10.00">Symbols</text>
</a>
</g>
</g>
<!-- Node2 -->
<g id="node2" class="node">
<title>Node2</title>
<g id="a_node2"><a xlink:href="classkazoo_1_1Encoder.html#ab775a959f5c94f1ca28e38cebacaf4c5" target="_top" xlink:title="Adds a preamble to the audio channel to help with synchronization.">
<polygon fill="none" stroke="black" points="212,-138 212,-157 390,-157 390,-138 212,-138"/>
<text text-anchor="middle" x="301" y="-145" font-family="Helvetica,sans-Serif" font-size="10.00">kazoo::Encoder::encodePreamble</text>
</a>
</g>
</g>
<!-- Node1&#45;&gt;Node2 -->
<g id="edge1" class="edge">
<title>Node1&#45;&gt;Node2</title>
<path fill="none" stroke="midnightblue" d="M124.03,-96.52C148.38,-106.56 181.76,-119.51 212,-128.5 220.8,-131.12 230.2,-133.53 239.45,-135.7"/>
<polygon fill="midnightblue" stroke="midnightblue" points="238.88,-139.16 249.41,-137.96 240.43,-132.33 238.88,-139.16"/>
</g>
<!-- Node3 -->
<g id="node3" class="node">
<title>Node3</title>
<g id="a_node3"><a xlink:href="classkazoo_1_1ISymbolModel.html#a093bf25697e9c33e5f0fb1373e602594" target="_top" xlink:title=" ">
<polygon fill="none" stroke="black" points="240.5,-88.5 240.5,-118.5 361.5,-118.5 361.5,-88.5 240.5,-88.5"/>
<text text-anchor="start" x="248.5" y="-106.5" font-family="Helvetica,sans-Serif" font-size="10.00">kazoo::ISymbolModel</text>
<text text-anchor="middle" x="301" y="-95.5" font-family="Helvetica,sans-Serif" font-size="10.00">::encodeSymbol</text>
</a>
</g>
</g>
<!-- Node1&#45;&gt;Node3 -->
<g id="edge2" class="edge">
<title>Node1&#45;&gt;Node3</title>
<path fill="none" stroke="midnightblue" d="M176.04,-90.58C194.17,-92.47 213.04,-94.43 230.44,-96.25"/>
<polygon fill="midnightblue" stroke="midnightblue" points="230.18,-99.74 240.49,-97.3 230.91,-92.78 230.18,-99.74"/>
</g>
<!-- Node4 -->
<g id="node4" class="node">
<title>Node4</title>
<g id="a_node4"><a xlink:href="classkazoo_1_1Encoder.html#a365c15beddddcda0de58e96087997e1f" target="_top" xlink:title=" ">
<polygon fill="none" stroke="black" points="227,-50 227,-69 375,-69 375,-50 227,-50"/>
<text text-anchor="middle" x="301" y="-57" font-family="Helvetica,sans-Serif" font-size="10.00">kazoo::Encoder::encodeTail</text>
</a>
</g>
</g>
<!-- Node1&#45;&gt;Node4 -->
<g id="edge3" class="edge">
<title>Node1&#45;&gt;Node4</title>
<path fill="none" stroke="midnightblue" d="M176.04,-72.42C189.52,-71.02 203.41,-69.57 216.8,-68.17"/>
<polygon fill="midnightblue" stroke="midnightblue" points="217.35,-71.64 226.93,-67.12 216.62,-64.67 217.35,-71.64"/>
</g>
<!-- Node5 -->
<g id="node5" class="node">
<title>Node5</title>
<g id="a_node5"><a xlink:href="classkazoo_1_1ISymbolStream.html#a88dbb4b56018e8238e3fe8b1c599c8a4" target="_top" xlink:title=" ">
<polygon fill="none" stroke="black" points="238,-0.5 238,-30.5 364,-30.5 364,-0.5 238,-0.5"/>
<text text-anchor="start" x="246" y="-18.5" font-family="Helvetica,sans-Serif" font-size="10.00">kazoo::ISymbolStream</text>
<text text-anchor="middle" x="301" y="-7.5" font-family="Helvetica,sans-Serif" font-size="10.00">::popSymbolTokenId</text>
</a>
</g>
</g>
<!-- Node1&#45;&gt;Node5 -->
<g id="edge4" class="edge">
<title>Node1&#45;&gt;Node5</title>
<path fill="none" stroke="midnightblue" d="M132.68,-66.41C156.12,-58.45 185.54,-48.66 212,-40.5 219.66,-38.14 227.72,-35.73 235.73,-33.4"/>
<polygon fill="midnightblue" stroke="midnightblue" points="236.8,-36.73 245.43,-30.59 234.85,-30.01 236.8,-36.73"/>
</g>
</g>
</svg>
