<?xml version="1.0" encoding="UTF-8" standalone="no"?>
<!DOCTYPE svg PUBLIC "-//W3C//DTD SVG 1.1//EN"
 "http://www.w3.org/Graphics/SVG/1.1/DTD/svg11.dtd">
<!-- Generated by graphviz version 2.43.0 (0)
 -->
<!-- Title: sock::TcpSocketServer::isValid Pages: 1 -->
<svg width="669pt" height="265pt"
 viewBox="0.00 0.00 669.00 265.22" xmlns="http://www.w3.org/2000/svg" xmlns:xlink="http://www.w3.org/1999/xlink">
<g id="graph0" class="graph" transform="scale(1 1) rotate(0) translate(4 261.22)">
<title>sock::TcpSocketServer::isValid</title>
<!-- Node1 -->
<g id="node1" class="node">
<title>Node1</title>
<g id="a_node1"><a xlink:title=" ">
<polygon fill="#bfbfbf" stroke="black" points="536,-116.5 536,-146.5 661,-146.5 661,-116.5 536,-116.5"/>
<text text-anchor="start" x="544" y="-134.5" font-family="Helvetica,sans-Serif" font-size="10.00">sock::TcpSocketServer</text>
<text text-anchor="middle" x="598.5" y="-123.5" font-family="Helvetica,sans-Serif" font-size="10.00">::isValid</text>
</a>
</g>
</g>
<!-- Node2 -->
<g id="node2" class="node">
<title>Node2</title>
<g id="a_node2"><a xlink:href="classsock_1_1TcpSocketServer.html#a5ad82b10ad9dee0ce7056f1e8299f6be" target="_top" xlink:title=" ">
<polygon fill="none" stroke="black" points="214,-214.5 214,-244.5 339,-244.5 339,-214.5 214,-214.5"/>
<text text-anchor="start" x="222" y="-232.5" font-family="Helvetica,sans-Serif" font-size="10.00">sock::TcpSocketServer</text>
<text text-anchor="middle" x="276.5" y="-221.5" font-family="Helvetica,sans-Serif" font-size="10.00">::~TcpSocketServer</text>
</a>
</g>
</g>
<!-- Node1&#45;&gt;Node2 -->
<g id="edge1" class="edge">
<title>Node1&#45;&gt;Node2</title>
<path fill="none" stroke="midnightblue" d="M584.51,-155.67C568.61,-182.39 538.93,-223.99 500,-241.5 444.44,-266.5 373.02,-256.2 326.29,-244.57"/>
<polygon fill="midnightblue" stroke="midnightblue" points="587.6,-157.31 589.55,-146.9 581.54,-153.82 587.6,-157.31"/>
</g>
<!-- Node3 -->
<g id="node3" class="node">
<title>Node3</title>
<g id="a_node3"><a xlink:href="classsock_1_1TcpSocketServer.html#a1837852a28a16b70332eca99ecc4dec6" target="_top" xlink:title=" ">
<polygon fill="none" stroke="black" points="375,-116.5 375,-146.5 500,-146.5 500,-116.5 375,-116.5"/>
<text text-anchor="start" x="383" y="-134.5" font-family="Helvetica,sans-Serif" font-size="10.00">sock::TcpSocketServer</text>
<text text-anchor="middle" x="437.5" y="-123.5" font-family="Helvetica,sans-Serif" font-size="10.00">::bind</text>
</a>
</g>
</g>
<!-- Node1&#45;&gt;Node3 -->
<g id="edge2" class="edge">
<title>Node1&#45;&gt;Node3</title>
<path fill="none" stroke="midnightblue" d="M525.41,-131.5C517.01,-131.5 508.5,-131.5 500.26,-131.5"/>
<polygon fill="midnightblue" stroke="midnightblue" points="525.57,-135 535.57,-131.5 525.57,-128 525.57,-135"/>
</g>
<!-- Node7 -->
<g id="node7" class="node">
<title>Node7</title>
<g id="a_node7"><a xlink:href="classsock_1_1TcpSocketServer.html#ada37dff8b6cad8a7108f02c11544ceb8" target="_top" xlink:title=" ">
<polygon fill="none" stroke="black" points="375,-183.5 375,-213.5 500,-213.5 500,-183.5 375,-183.5"/>
<text text-anchor="start" x="383" y="-201.5" font-family="Helvetica,sans-Serif" font-size="10.00">sock::TcpSocketServer</text>
<text text-anchor="middle" x="437.5" y="-190.5" font-family="Helvetica,sans-Serif" font-size="10.00">::close</text>
</a>
</g>
</g>
<!-- Node1&#45;&gt;Node7 -->
<g id="edge7" class="edge">
<title>Node1&#45;&gt;Node7</title>
<path fill="none" stroke="midnightblue" d="M555.11,-150.67C538.06,-158.26 518.16,-166.95 500,-174.5 492.91,-177.45 485.32,-180.49 477.97,-183.39"/>
<polygon fill="midnightblue" stroke="midnightblue" points="556.56,-153.86 564.26,-146.59 553.7,-147.47 556.56,-153.86"/>
</g>
<!-- Node8 -->
<g id="node8" class="node">
<title>Node8</title>
<g id="a_node8"><a xlink:href="classsock_1_1TcpSocketServer.html#a5addbd19e4629d878f07eb6fad51ed6d" target="_top" xlink:title=" ">
<polygon fill="none" stroke="black" points="375,-67.5 375,-97.5 500,-97.5 500,-67.5 375,-67.5"/>
<text text-anchor="start" x="383" y="-85.5" font-family="Helvetica,sans-Serif" font-size="10.00">sock::TcpSocketServer</text>
<text text-anchor="middle" x="437.5" y="-74.5" font-family="Helvetica,sans-Serif" font-size="10.00">::create</text>
</a>
</g>
</g>
<!-- Node1&#45;&gt;Node8 -->
<g id="edge10" class="edge">
<title>Node1&#45;&gt;Node8</title>
<path fill="none" stroke="midnightblue" d="M538.73,-113.39C521.82,-108.18 503.57,-102.55 487.34,-97.55"/>
<polygon fill="midnightblue" stroke="midnightblue" points="537.91,-116.8 548.5,-116.4 539.97,-110.11 537.91,-116.8"/>
</g>
<!-- Node9 -->
<g id="node9" class="node">
<title>Node9</title>
<g id="a_node9"><a xlink:href="classsock_1_1TcpSocketServer.html#aeedccb9e66f6b88db487d21d88b39800" target="_top" xlink:title=" ">
<polygon fill="none" stroke="black" points="375,-0.5 375,-30.5 500,-30.5 500,-0.5 375,-0.5"/>
<text text-anchor="start" x="383" y="-18.5" font-family="Helvetica,sans-Serif" font-size="10.00">sock::TcpSocketServer</text>
<text text-anchor="middle" x="437.5" y="-7.5" font-family="Helvetica,sans-Serif" font-size="10.00">::listen</text>
</a>
</g>
</g>
<!-- Node1&#45;&gt;Node9 -->
<g id="edge12" class="edge">
<title>Node1&#45;&gt;Node9</title>
<path fill="none" stroke="midnightblue" d="M569.73,-110.33C550.32,-95.63 523.73,-75.67 500,-58.5 487.02,-49.11 472.31,-38.81 460.54,-30.65"/>
<polygon fill="midnightblue" stroke="midnightblue" points="567.76,-113.23 577.85,-116.49 571.99,-107.66 567.76,-113.23"/>
</g>
<!-- Node3&#45;&gt;Node3 -->
<g id="edge3" class="edge">
<title>Node3&#45;&gt;Node3</title>
<path fill="none" stroke="midnightblue" d="M465.93,-156.96C462.4,-161.68 452.92,-165 437.5,-165 412.19,-165 402.89,-156.06 409.62,-146.66"/>
<polygon fill="midnightblue" stroke="midnightblue" points="469.41,-156.46 465.38,-146.66 462.42,-156.83 469.41,-156.46"/>
</g>
<!-- Node4 -->
<g id="node4" class="node">
<title>Node4</title>
<g id="a_node4"><a xlink:href="classsock_1_1TcpSocketServer.html#ae131e7d5b2827144d018f1482ab316cc" target="_top" xlink:title=" ">
<polygon fill="none" stroke="black" points="214,-67.5 214,-97.5 339,-97.5 339,-67.5 214,-67.5"/>
<text text-anchor="start" x="222" y="-85.5" font-family="Helvetica,sans-Serif" font-size="10.00">sock::TcpSocketServer</text>
<text text-anchor="middle" x="276.5" y="-74.5" font-family="Helvetica,sans-Serif" font-size="10.00">::init</text>
</a>
</g>
</g>
<!-- Node3&#45;&gt;Node4 -->
<g id="edge4" class="edge">
<title>Node3&#45;&gt;Node4</title>
<path fill="none" stroke="midnightblue" d="M377.73,-113.39C360.82,-108.18 342.57,-102.55 326.34,-97.55"/>
<polygon fill="midnightblue" stroke="midnightblue" points="376.91,-116.8 387.5,-116.4 378.97,-110.11 376.91,-116.8"/>
</g>
<!-- Node5 -->
<g id="node5" class="node">
<title>Node5</title>
<g id="a_node5"><a xlink:href="src_2kazoo__connect__server_2main_8cpp.html#a3569f5249387954388ba619b8e21009b" target="_top" xlink:title="One of the HTTP servers of all time.">
<polygon fill="none" stroke="black" points="77,-73 77,-92 178,-92 178,-73 77,-73"/>
<text text-anchor="middle" x="127.5" y="-80" font-family="Helvetica,sans-Serif" font-size="10.00">httpServerThread</text>
</a>
</g>
</g>
<!-- Node4&#45;&gt;Node5 -->
<g id="edge5" class="edge">
<title>Node4&#45;&gt;Node5</title>
<path fill="none" stroke="midnightblue" d="M203.31,-82.5C194.85,-82.5 186.36,-82.5 178.3,-82.5"/>
<polygon fill="midnightblue" stroke="midnightblue" points="203.58,-86 213.58,-82.5 203.58,-79 203.58,-86"/>
</g>
<!-- Node6 -->
<g id="node6" class="node">
<title>Node6</title>
<g id="a_node6"><a xlink:href="src_2kazoo__connect__server_2main_8cpp.html#ae66f6b31b5ad750f1fe042a706a4e3d4" target="_top" xlink:title=" ">
<polygon fill="none" stroke="black" points="0,-73 0,-92 41,-92 41,-73 0,-73"/>
<text text-anchor="middle" x="20.5" y="-80" font-family="Helvetica,sans-Serif" font-size="10.00">main</text>
</a>
</g>
</g>
<!-- Node5&#45;&gt;Node6 -->
<g id="edge6" class="edge">
<title>Node5&#45;&gt;Node6</title>
<path fill="none" stroke="midnightblue" d="M66.72,-82.5C57.53,-82.5 48.64,-82.5 41.2,-82.5"/>
<polygon fill="midnightblue" stroke="midnightblue" points="66.77,-86 76.77,-82.5 66.77,-79 66.77,-86"/>
</g>
<!-- Node7&#45;&gt;Node2 -->
<g id="edge8" class="edge">
<title>Node7&#45;&gt;Node2</title>
<path fill="none" stroke="midnightblue" d="M364.68,-212.5C356.2,-214.16 347.59,-215.83 339.26,-217.46"/>
<polygon fill="midnightblue" stroke="midnightblue" points="365.43,-215.92 374.57,-210.57 364.09,-209.05 365.43,-215.92"/>
</g>
<!-- Node7&#45;&gt;Node7 -->
<g id="edge9" class="edge">
<title>Node7&#45;&gt;Node7</title>
<path fill="none" stroke="midnightblue" d="M465.93,-223.96C462.4,-228.68 452.92,-232 437.5,-232 412.19,-232 402.89,-223.06 409.62,-213.66"/>
<polygon fill="midnightblue" stroke="midnightblue" points="469.41,-223.46 465.38,-213.66 462.42,-223.83 469.41,-223.46"/>
</g>
<!-- Node8&#45;&gt;Node4 -->
<g id="edge11" class="edge">
<title>Node8&#45;&gt;Node4</title>
<path fill="none" stroke="midnightblue" d="M364.41,-82.5C356.01,-82.5 347.5,-82.5 339.26,-82.5"/>
<polygon fill="midnightblue" stroke="midnightblue" points="364.57,-86 374.57,-82.5 364.57,-79 364.57,-86"/>
</g>
<!-- Node9&#45;&gt;Node4 -->
<g id="edge13" class="edge">
<title>Node9&#45;&gt;Node4</title>
<path fill="none" stroke="midnightblue" d="M391.3,-34.55C366.59,-44.96 336.41,-57.68 313.34,-67.4"/>
<polygon fill="midnightblue" stroke="midnightblue" points="392.96,-37.64 400.82,-30.54 390.24,-31.19 392.96,-37.64"/>
</g>
<!-- Node9&#45;&gt;Node9 -->
<g id="edge14" class="edge">
<title>Node9&#45;&gt;Node9</title>
<path fill="none" stroke="midnightblue" d="M465.93,-40.96C462.4,-45.68 452.92,-49 437.5,-49 412.19,-49 402.89,-40.06 409.62,-30.66"/>
<polygon fill="midnightblue" stroke="midnightblue" points="469.41,-40.46 465.38,-30.66 462.42,-40.83 469.41,-40.46"/>
</g>
</g>
</svg>
