<?xml version="1.0" encoding="UTF-8" standalone="no"?>
<!DOCTYPE svg PUBLIC "-//W3C//DTD SVG 1.1//EN"
 "http://www.w3.org/Graphics/SVG/1.1/DTD/svg11.dtd">
<!-- Generated by graphviz version 2.43.0 (0)
 -->
<!-- Title: kazoo::SymbolModel&lt; Token_t &gt; Pages: 1 -->
<svg width="441pt" height="336pt"
 viewBox="0.00 0.00 440.50 336.00" xmlns="http://www.w3.org/2000/svg" xmlns:xlink="http://www.w3.org/1999/xlink">
<g id="graph0" class="graph" transform="scale(1 1) rotate(0) translate(4 332)">
<title>kazoo::SymbolModel&lt; Token_t &gt;</title>
<!-- Node1 -->
<g id="node1" class="node">
<title>Node1</title>
<g id="a_node1"><a xlink:title=" ">
<polygon fill="#bfbfbf" stroke="black" points="164,-0.5 164,-145.5 333,-145.5 333,-0.5 164,-0.5"/>
<text text-anchor="start" x="172" y="-133.5" font-family="Helvetica,sans-Serif" font-size="10.00">kazoo::SymbolModel</text>
<text text-anchor="middle" x="248.5" y="-122.5" font-family="Helvetica,sans-Serif" font-size="10.00">&lt; Token_t &gt;</text>
<polyline fill="none" stroke="black" points="164,-115.5 333,-115.5 "/>
<text text-anchor="middle" x="248.5" y="-103.5" font-family="Helvetica,sans-Serif" font-size="10.00"> </text>
<polyline fill="none" stroke="black" points="164,-96.5 333,-96.5 "/>
<text text-anchor="start" x="172" y="-84.5" font-family="Helvetica,sans-Serif" font-size="10.00">+ SymbolModel()</text>
<text text-anchor="start" x="172" y="-73.5" font-family="Helvetica,sans-Serif" font-size="10.00">+ decodeAudioToSymbols()</text>
<text text-anchor="start" x="172" y="-62.5" font-family="Helvetica,sans-Serif" font-size="10.00">+ encodeSymbol()</text>
<text text-anchor="start" x="172" y="-51.5" font-family="Helvetica,sans-Serif" font-size="10.00">+ getNumSamplesPerSymbol()</text>
<text text-anchor="start" x="172" y="-40.5" font-family="Helvetica,sans-Serif" font-size="10.00">+ getSymbolBitWidth()</text>
<text text-anchor="start" x="172" y="-29.5" font-family="Helvetica,sans-Serif" font-size="10.00">+ getSymbolId()</text>
<text text-anchor="start" x="172" y="-18.5" font-family="Helvetica,sans-Serif" font-size="10.00">+ getToken()</text>
<text text-anchor="start" x="172" y="-7.5" font-family="Helvetica,sans-Serif" font-size="10.00">+ getValue()</text>
</a>
</g>
</g>
<!-- Node2 -->
<g id="node2" class="node">
<title>Node2</title>
<g id="a_node2"><a xlink:href="classkazoo_1_1ISymbolModel.html" target="_top" xlink:title=" ">
<polygon fill="none" stroke="black" points="0,-193.5 0,-327.5 169,-327.5 169,-193.5 0,-193.5"/>
<text text-anchor="middle" x="84.5" y="-315.5" font-family="Helvetica,sans-Serif" font-size="10.00">kazoo::ISymbolModel</text>
<polyline fill="none" stroke="black" points="0,-308.5 169,-308.5 "/>
<text text-anchor="middle" x="84.5" y="-296.5" font-family="Helvetica,sans-Serif" font-size="10.00"> </text>
<polyline fill="none" stroke="black" points="0,-289.5 169,-289.5 "/>
<text text-anchor="start" x="8" y="-277.5" font-family="Helvetica,sans-Serif" font-size="10.00">+ ~ISymbolModel()</text>
<text text-anchor="start" x="8" y="-266.5" font-family="Helvetica,sans-Serif" font-size="10.00">+ decodeAudioToSymbols()</text>
<text text-anchor="start" x="8" y="-255.5" font-family="Helvetica,sans-Serif" font-size="10.00">+ encodeSymbol()</text>
<text text-anchor="start" x="8" y="-244.5" font-family="Helvetica,sans-Serif" font-size="10.00">+ getNumSamplesPerSymbol()</text>
<text text-anchor="start" x="8" y="-233.5" font-family="Helvetica,sans-Serif" font-size="10.00">+ getSymbolBitMask()</text>
<text text-anchor="start" x="8" y="-222.5" font-family="Helvetica,sans-Serif" font-size="10.00">+ getSymbolBitWidth()</text>
<text text-anchor="start" x="8" y="-211.5" font-family="Helvetica,sans-Serif" font-size="10.00">+ getSymbolId()</text>
<text text-anchor="start" x="8" y="-200.5" font-family="Helvetica,sans-Serif" font-size="10.00">+ getValue()</text>
</a>
</g>
</g>
<!-- Node2&#45;&gt;Node1 -->
<g id="edge1" class="edge">
<title>Node2&#45;&gt;Node1</title>
<path fill="none" stroke="midnightblue" d="M149.83,-185.61C161.51,-172.39 173.66,-158.65 185.28,-145.5"/>
<polygon fill="none" stroke="midnightblue" points="147.01,-183.51 143.01,-193.32 152.26,-188.14 147.01,-183.51"/>
</g>
<!-- Node3 -->
<g id="node3" class="node">
<title>Node3</title>
<g id="a_node3"><a xlink:title=" ">
<polygon fill="none" stroke="black" points="187.5,-232 187.5,-289 309.5,-289 309.5,-232 187.5,-232"/>
<text text-anchor="middle" x="248.5" y="-277" font-family="Helvetica,sans-Serif" font-size="10.00">const TokenValueMap</text>
<polyline fill="none" stroke="black" points="187.5,-270 309.5,-270 "/>
<text text-anchor="middle" x="248.5" y="-258" font-family="Helvetica,sans-Serif" font-size="10.00"> </text>
<polyline fill="none" stroke="black" points="187.5,-251 309.5,-251 "/>
<text text-anchor="middle" x="248.5" y="-239" font-family="Helvetica,sans-Serif" font-size="10.00"> </text>
</a>
</g>
</g>
<!-- Node3&#45;&gt;Node1 -->
<g id="edge2" class="edge">
<title>Node3&#45;&gt;Node1</title>
<path fill="none" stroke="#404040" d="M248.5,-231.73C248.5,-212.01 248.5,-184.41 248.5,-157.81"/>
<polygon fill="none" stroke="#404040" points="248.5,-157.68 244.5,-151.68 248.5,-145.68 252.5,-151.68 248.5,-157.68"/>
<text text-anchor="middle" x="287" y="-167" font-family="Helvetica,sans-Serif" font-size="10.00"> &#45;token_values_</text>
</g>
<!-- Node4 -->
<g id="node4" class="node">
<title>Node4</title>
<g id="a_node4"><a xlink:title=" ">
<polygon fill="none" stroke="black" points="327.5,-232 327.5,-289 383.5,-289 383.5,-232 327.5,-232"/>
<text text-anchor="middle" x="355.5" y="-277" font-family="Helvetica,sans-Serif" font-size="10.00">uint32_t</text>
<polyline fill="none" stroke="black" points="327.5,-270 383.5,-270 "/>
<text text-anchor="middle" x="355.5" y="-258" font-family="Helvetica,sans-Serif" font-size="10.00"> </text>
<polyline fill="none" stroke="black" points="327.5,-251 383.5,-251 "/>
<text text-anchor="middle" x="355.5" y="-239" font-family="Helvetica,sans-Serif" font-size="10.00"> </text>
</a>
</g>
</g>
<!-- Node4&#45;&gt;Node1 -->
<g id="edge3" class="edge">
<title>Node4&#45;&gt;Node1</title>
<path fill="none" stroke="#404040" d="M351.5,-231.88C347.81,-212.08 341.1,-185.27 329.5,-164 327.95,-161.16 326.29,-158.33 324.55,-155.53"/>
<polygon fill="none" stroke="#404040" points="324.52,-155.49 317.87,-152.71 317.87,-145.5 324.53,-148.28 324.52,-155.49"/>
<text text-anchor="middle" x="383" y="-167" font-family="Helvetica,sans-Serif" font-size="10.00"> &#45;symbol_bit_width_</text>
</g>
</g>
</svg>
