<?xml version="1.0" encoding="UTF-8" standalone="no"?>
<!DOCTYPE svg PUBLIC "-//W3C//DTD SVG 1.1//EN"
 "http://www.w3.org/Graphics/SVG/1.1/DTD/svg11.dtd">
<!-- Generated by graphviz version 2.43.0 (0)
 -->
<!-- Title: kazoo::WavFile Pages: 1 -->
<svg width="777pt" height="568pt"
 viewBox="0.00 0.00 777.00 568.00" xmlns="http://www.w3.org/2000/svg" xmlns:xlink="http://www.w3.org/1999/xlink">
<g id="graph0" class="graph" transform="scale(1 1) rotate(0) translate(4 564)">
<title>kazoo::WavFile</title>
<!-- Node1 -->
<g id="node1" class="node">
<title>Node1</title>
<g id="a_node1"><a xlink:title="A class for reading and writing WAV files. .">
<polygon fill="#bfbfbf" stroke="black" points="317,-0.5 317,-178.5 471,-178.5 471,-0.5 317,-0.5"/>
<text text-anchor="middle" x="394" y="-166.5" font-family="Helvetica,sans-Serif" font-size="10.00">kazoo::WavFile</text>
<polyline fill="none" stroke="black" points="317,-159.5 471,-159.5 "/>
<text text-anchor="middle" x="394" y="-147.5" font-family="Helvetica,sans-Serif" font-size="10.00"> </text>
<polyline fill="none" stroke="black" points="317,-140.5 471,-140.5 "/>
<text text-anchor="start" x="325" y="-128.5" font-family="Helvetica,sans-Serif" font-size="10.00">+ WavFile()</text>
<text text-anchor="start" x="325" y="-117.5" font-family="Helvetica,sans-Serif" font-size="10.00">+ addSample()</text>
<text text-anchor="start" x="325" y="-106.5" font-family="Helvetica,sans-Serif" font-size="10.00">+ clear()</text>
<text text-anchor="start" x="325" y="-95.5" font-family="Helvetica,sans-Serif" font-size="10.00">+ getDurationMilliseconds()</text>
<text text-anchor="start" x="325" y="-84.5" font-family="Helvetica,sans-Serif" font-size="10.00">+ getDurationSeconds()</text>
<text text-anchor="start" x="325" y="-73.5" font-family="Helvetica,sans-Serif" font-size="10.00">+ getHeader()</text>
<text text-anchor="start" x="325" y="-62.5" font-family="Helvetica,sans-Serif" font-size="10.00">+ getNumSamples()</text>
<text text-anchor="start" x="325" y="-51.5" font-family="Helvetica,sans-Serif" font-size="10.00">+ getSamplesRef()</text>
<text text-anchor="start" x="325" y="-40.5" font-family="Helvetica,sans-Serif" font-size="10.00">+ loadFromAudioChannel()</text>
<text text-anchor="start" x="325" y="-29.5" font-family="Helvetica,sans-Serif" font-size="10.00">+ populateAudioChannel()</text>
<text text-anchor="start" x="325" y="-18.5" font-family="Helvetica,sans-Serif" font-size="10.00">+ read()</text>
<text text-anchor="start" x="325" y="-7.5" font-family="Helvetica,sans-Serif" font-size="10.00">+ write()</text>
</a>
</g>
</g>
<!-- Node2 -->
<g id="node2" class="node">
<title>Node2</title>
<g id="a_node2"><a xlink:href="classkazoo_1_1IAudioChannel.html" target="_top" xlink:title=" ">
<polygon fill="none" stroke="black" points="0,-226.5 0,-316.5 122,-316.5 122,-226.5 0,-226.5"/>
<text text-anchor="middle" x="61" y="-304.5" font-family="Helvetica,sans-Serif" font-size="10.00">kazoo::IAudioChannel</text>
<polyline fill="none" stroke="black" points="0,-297.5 122,-297.5 "/>
<text text-anchor="middle" x="61" y="-285.5" font-family="Helvetica,sans-Serif" font-size="10.00"> </text>
<polyline fill="none" stroke="black" points="0,-278.5 122,-278.5 "/>
<text text-anchor="start" x="8" y="-266.5" font-family="Helvetica,sans-Serif" font-size="10.00">+ ~IAudioChannel()</text>
<text text-anchor="start" x="8" y="-255.5" font-family="Helvetica,sans-Serif" font-size="10.00">+ addSample()</text>
<text text-anchor="start" x="8" y="-244.5" font-family="Helvetica,sans-Serif" font-size="10.00">+ clear()</text>
<text text-anchor="start" x="8" y="-233.5" font-family="Helvetica,sans-Serif" font-size="10.00">+ getSamplesRef()</text>
</a>
</g>
</g>
<!-- Node2&#45;&gt;Node1 -->
<g id="edge1" class="edge">
<title>Node2&#45;&gt;Node1</title>
<path fill="none" stroke="midnightblue" d="M113.14,-219.86C122.97,-211.64 133.47,-203.65 144,-197 198.33,-162.65 265.65,-134.7 316.73,-116.06"/>
<polygon fill="none" stroke="midnightblue" points="110.73,-217.31 105.42,-226.48 115.29,-222.63 110.73,-217.31"/>
</g>
<!-- Node3 -->
<g id="node3" class="node">
<title>Node3</title>
<g id="a_node3"><a xlink:href="structkazoo_1_1WavFile_1_1FormatChunk.html" target="_top" xlink:title=" ">
<polygon fill="none" stroke="black" points="99.5,-364.5 99.5,-421.5 260.5,-421.5 260.5,-364.5 99.5,-364.5"/>
<text text-anchor="middle" x="180" y="-409.5" font-family="Helvetica,sans-Serif" font-size="10.00">kazoo::WavFile::FormatChunk</text>
<polyline fill="none" stroke="black" points="99.5,-402.5 260.5,-402.5 "/>
<text text-anchor="middle" x="180" y="-390.5" font-family="Helvetica,sans-Serif" font-size="10.00"> </text>
<polyline fill="none" stroke="black" points="99.5,-383.5 260.5,-383.5 "/>
<text text-anchor="middle" x="180" y="-371.5" font-family="Helvetica,sans-Serif" font-size="10.00"> </text>
</a>
</g>
</g>
<!-- Node3&#45;&gt;Node1 -->
<g id="edge2" class="edge">
<title>Node3&#45;&gt;Node1</title>
<path fill="none" stroke="#404040" d="M168.9,-364.38C156.84,-329.66 142.38,-269.37 167,-226 196.65,-173.77 255.3,-139.53 305.55,-118.54"/>
<polygon fill="none" stroke="#404040" points="305.67,-118.49 309.73,-112.54 316.79,-114 312.73,-119.96 305.67,-118.49"/>
<text text-anchor="middle" x="238" y="-269" font-family="Helvetica,sans-Serif" font-size="10.00"> +DEFAULT_FORMAT_CHUNK</text>
</g>
<!-- Node7 -->
<g id="node7" class="node">
<title>Node7</title>
<g id="a_node7"><a xlink:href="structkazoo_1_1WavFile_1_1WavHeader.html" target="_top" xlink:title=" ">
<polygon fill="none" stroke="black" points="318,-237.5 318,-305.5 470,-305.5 470,-237.5 318,-237.5"/>
<text text-anchor="middle" x="394" y="-293.5" font-family="Helvetica,sans-Serif" font-size="10.00">kazoo::WavFile::WavHeader</text>
<polyline fill="none" stroke="black" points="318,-286.5 470,-286.5 "/>
<text text-anchor="middle" x="394" y="-274.5" font-family="Helvetica,sans-Serif" font-size="10.00"> </text>
<polyline fill="none" stroke="black" points="318,-267.5 470,-267.5 "/>
<text text-anchor="start" x="326" y="-255.5" font-family="Helvetica,sans-Serif" font-size="10.00">+ print()</text>
<text text-anchor="start" x="326" y="-244.5" font-family="Helvetica,sans-Serif" font-size="10.00">+ resterToDefault()</text>
</a>
</g>
</g>
<!-- Node3&#45;&gt;Node7 -->
<g id="edge10" class="edge">
<title>Node3&#45;&gt;Node7</title>
<path fill="none" stroke="#404040" d="M190.12,-364.37C195.37,-353.66 202.86,-342.25 213,-335 246.54,-311.02 264.96,-330.25 304,-317 309.73,-315.05 315.57,-312.82 321.37,-310.4"/>
<polygon fill="none" stroke="#404040" points="321.45,-310.37 325.36,-304.3 332.45,-305.57 328.55,-311.64 321.45,-310.37"/>
<text text-anchor="middle" x="252.5" y="-338" font-family="Helvetica,sans-Serif" font-size="10.00"> +format_chunk</text>
</g>
<!-- Node4 -->
<g id="node4" class="node">
<title>Node4</title>
<g id="a_node4"><a xlink:title=" ">
<polygon fill="none" stroke="black" points="313,-502.5 313,-559.5 411,-559.5 411,-502.5 313,-502.5"/>
<text text-anchor="middle" x="362" y="-547.5" font-family="Helvetica,sans-Serif" font-size="10.00">array&lt; char, 4 &gt;</text>
<polyline fill="none" stroke="black" points="313,-540.5 411,-540.5 "/>
<text text-anchor="middle" x="362" y="-528.5" font-family="Helvetica,sans-Serif" font-size="10.00"> </text>
<polyline fill="none" stroke="black" points="313,-521.5 411,-521.5 "/>
<text text-anchor="middle" x="362" y="-509.5" font-family="Helvetica,sans-Serif" font-size="10.00"> </text>
</a>
</g>
</g>
<!-- Node4&#45;&gt;Node3 -->
<g id="edge3" class="edge">
<title>Node4&#45;&gt;Node3</title>
<path fill="none" stroke="#404040" d="M332.85,-502.1C326.86,-496.2 320.67,-489.95 315,-484 296.98,-465.07 296.86,-455.74 276,-440 270.09,-435.55 263.69,-431.36 257.08,-427.47"/>
<polygon fill="none" stroke="#404040" points="257.05,-427.45 249.86,-428.01 246.58,-421.59 253.77,-421.03 257.05,-427.45"/>
<text text-anchor="middle" x="331.5" y="-459.5" font-family="Helvetica,sans-Serif" font-size="10.00"> +FMT</text>
</g>
<!-- Node4&#45;&gt;Node7 -->
<g id="edge8" class="edge">
<title>Node4&#45;&gt;Node7</title>
<path fill="none" stroke="#404040" d="M365.42,-502.44C370.92,-458.24 381.75,-371.05 388.39,-317.66"/>
<polygon fill="none" stroke="#404040" points="388.42,-317.41 385.19,-310.97 389.9,-305.51 393.13,-311.95 388.42,-317.41"/>
<text text-anchor="middle" x="401.5" y="-401.5" font-family="Helvetica,sans-Serif" font-size="10.00"> +DATA</text>
<text text-anchor="middle" x="401.5" y="-390.5" font-family="Helvetica,sans-Serif" font-size="10.00">+RIFF</text>
<text text-anchor="middle" x="401.5" y="-379.5" font-family="Helvetica,sans-Serif" font-size="10.00">+WAVE</text>
</g>
<!-- Node9 -->
<g id="node9" class="node">
<title>Node9</title>
<g id="a_node9"><a xlink:href="structkazoo_1_1WavFile_1_1DataChunk.html" target="_top" xlink:title=" ">
<polygon fill="none" stroke="black" points="459.5,-364.5 459.5,-421.5 608.5,-421.5 608.5,-364.5 459.5,-364.5"/>
<text text-anchor="middle" x="534" y="-409.5" font-family="Helvetica,sans-Serif" font-size="10.00">kazoo::WavFile::DataChunk</text>
<polyline fill="none" stroke="black" points="459.5,-402.5 608.5,-402.5 "/>
<text text-anchor="middle" x="534" y="-390.5" font-family="Helvetica,sans-Serif" font-size="10.00"> </text>
<polyline fill="none" stroke="black" points="459.5,-383.5 608.5,-383.5 "/>
<text text-anchor="middle" x="534" y="-371.5" font-family="Helvetica,sans-Serif" font-size="10.00"> </text>
</a>
</g>
</g>
<!-- Node4&#45;&gt;Node9 -->
<g id="edge12" class="edge">
<title>Node4&#45;&gt;Node9</title>
<path fill="none" stroke="#404040" d="M369.61,-502.32C376.44,-479.27 386.79,-448.86 396,-440 404.45,-431.88 424.91,-423.6 447.57,-416.34"/>
<polygon fill="none" stroke="#404040" points="447.72,-416.3 452.28,-410.7 459.19,-412.76 454.64,-418.35 447.72,-416.3"/>
<text text-anchor="middle" x="414.5" y="-459.5" font-family="Helvetica,sans-Serif" font-size="10.00"> +DATA</text>
</g>
<!-- Node5 -->
<g id="node5" class="node">
<title>Node5</title>
<g id="a_node5"><a xlink:title=" ">
<polygon fill="none" stroke="black" points="152,-502.5 152,-559.5 208,-559.5 208,-502.5 152,-502.5"/>
<text text-anchor="middle" x="180" y="-547.5" font-family="Helvetica,sans-Serif" font-size="10.00">uint16_t</text>
<polyline fill="none" stroke="black" points="152,-540.5 208,-540.5 "/>
<text text-anchor="middle" x="180" y="-528.5" font-family="Helvetica,sans-Serif" font-size="10.00"> </text>
<polyline fill="none" stroke="black" points="152,-521.5 208,-521.5 "/>
<text text-anchor="middle" x="180" y="-509.5" font-family="Helvetica,sans-Serif" font-size="10.00"> </text>
</a>
</g>
</g>
<!-- Node5&#45;&gt;Node3 -->
<g id="edge4" class="edge">
<title>Node5&#45;&gt;Node3</title>
<path fill="none" stroke="#404040" d="M180,-502.48C180,-482.79 180,-455.99 180,-433.95"/>
<polygon fill="none" stroke="#404040" points="180,-433.95 176,-427.95 180,-421.95 184,-427.95 180,-433.95"/>
<text text-anchor="middle" x="226" y="-476" font-family="Helvetica,sans-Serif" font-size="10.00"> +bits_per_sample</text>
<text text-anchor="middle" x="226" y="-465" font-family="Helvetica,sans-Serif" font-size="10.00">+block_align</text>
<text text-anchor="middle" x="226" y="-454" font-family="Helvetica,sans-Serif" font-size="10.00">+format_code</text>
<text text-anchor="middle" x="226" y="-443" font-family="Helvetica,sans-Serif" font-size="10.00">+num_channels</text>
</g>
<!-- Node6 -->
<g id="node6" class="node">
<title>Node6</title>
<g id="a_node6"><a xlink:title=" ">
<polygon fill="none" stroke="black" points="551,-502.5 551,-559.5 607,-559.5 607,-502.5 551,-502.5"/>
<text text-anchor="middle" x="579" y="-547.5" font-family="Helvetica,sans-Serif" font-size="10.00">uint32_t</text>
<polyline fill="none" stroke="black" points="551,-540.5 607,-540.5 "/>
<text text-anchor="middle" x="579" y="-528.5" font-family="Helvetica,sans-Serif" font-size="10.00"> </text>
<polyline fill="none" stroke="black" points="551,-521.5 607,-521.5 "/>
<text text-anchor="middle" x="579" y="-509.5" font-family="Helvetica,sans-Serif" font-size="10.00"> </text>
</a>
</g>
</g>
<!-- Node6&#45;&gt;Node3 -->
<g id="edge5" class="edge">
<title>Node6&#45;&gt;Node3</title>
<path fill="none" stroke="#404040" d="M550.87,-526.39C522.63,-521.4 479.49,-509.88 452,-484 436.49,-469.4 450.13,-452.66 433,-440 405.93,-420 320.6,-427.9 272.7,-422.08"/>
<polygon fill="none" stroke="#404040" points="272.67,-422.08 266.11,-425.07 260.83,-420.17 267.39,-417.17 272.67,-422.08"/>
<text text-anchor="middle" x="502.5" y="-470.5" font-family="Helvetica,sans-Serif" font-size="10.00"> +byte_rate</text>
<text text-anchor="middle" x="502.5" y="-459.5" font-family="Helvetica,sans-Serif" font-size="10.00">+format_chunk_size</text>
<text text-anchor="middle" x="502.5" y="-448.5" font-family="Helvetica,sans-Serif" font-size="10.00">+sample_rate</text>
</g>
<!-- Node6&#45;&gt;Node7 -->
<g id="edge9" class="edge">
<title>Node6&#45;&gt;Node7</title>
<path fill="none" stroke="#404040" d="M607.06,-512.48C616.49,-504.98 625.9,-495.32 631,-484 653.06,-435.04 650.55,-405.92 617,-364 576.51,-313.41 539.48,-340.25 479,-317 474.06,-315.1 469.03,-312.98 464.02,-310.74"/>
<polygon fill="none" stroke="#404040" points="463.97,-310.72 456.84,-311.8 453.1,-305.64 460.23,-304.56 463.97,-310.72"/>
<text text-anchor="middle" x="670" y="-390.5" font-family="Helvetica,sans-Serif" font-size="10.00"> +file_size</text>
</g>
<!-- Node6&#45;&gt;Node9 -->
<g id="edge13" class="edge">
<title>Node6&#45;&gt;Node9</title>
<path fill="none" stroke="#404040" d="M573.91,-502.35C570.19,-484.3 564.48,-460.39 557,-440 556.13,-437.64 555.18,-435.25 554.17,-432.85"/>
<polygon fill="none" stroke="#404040" points="554.1,-432.7 547.98,-428.9 549.13,-421.78 555.26,-425.58 554.1,-432.7"/>
<text text-anchor="middle" x="598" y="-459.5" font-family="Helvetica,sans-Serif" font-size="10.00"> +data_size</text>
</g>
<!-- Node7&#45;&gt;Node1 -->
<g id="edge6" class="edge">
<title>Node7&#45;&gt;Node1</title>
<path fill="none" stroke="#404040" d="M394,-237.49C394,-224.09 394,-207.84 394,-191.09"/>
<polygon fill="none" stroke="#404040" points="394,-190.84 390,-184.84 394,-178.84 398,-184.84 394,-190.84"/>
<text text-anchor="middle" x="430" y="-200" font-family="Helvetica,sans-Serif" font-size="10.00"> &#45;wav_header_</text>
</g>
<!-- Node8 -->
<g id="node8" class="node">
<title>Node8</title>
<g id="a_node8"><a xlink:title=" ">
<polygon fill="none" stroke="black" points="278.5,-364.5 278.5,-421.5 323.5,-421.5 323.5,-364.5 278.5,-364.5"/>
<text text-anchor="middle" x="301" y="-409.5" font-family="Helvetica,sans-Serif" font-size="10.00">size_t</text>
<polyline fill="none" stroke="black" points="278.5,-402.5 323.5,-402.5 "/>
<text text-anchor="middle" x="301" y="-390.5" font-family="Helvetica,sans-Serif" font-size="10.00"> </text>
<polyline fill="none" stroke="black" points="278.5,-383.5 323.5,-383.5 "/>
<text text-anchor="middle" x="301" y="-371.5" font-family="Helvetica,sans-Serif" font-size="10.00"> </text>
</a>
</g>
</g>
<!-- Node8&#45;&gt;Node7 -->
<g id="edge7" class="edge">
<title>Node8&#45;&gt;Node7</title>
<path fill="none" stroke="#404040" d="M294.47,-364.3C293.56,-354.53 294.25,-343.8 299,-335 303.25,-327.11 308.98,-320.06 315.53,-313.79"/>
<polygon fill="none" stroke="#404040" points="315.81,-313.55 317.75,-306.61 324.91,-305.73 322.97,-312.67 315.81,-313.55"/>
<text text-anchor="middle" x="338.5" y="-338" font-family="Helvetica,sans-Serif" font-size="10.00"> +HEADER_SIZE</text>
</g>
<!-- Node9&#45;&gt;Node7 -->
<g id="edge11" class="edge">
<title>Node9&#45;&gt;Node7</title>
<path fill="none" stroke="#404040" d="M501.53,-364.28C483.9,-349.23 461.76,-330.33 442.15,-313.6"/>
<polygon fill="none" stroke="#404040" points="441.89,-313.38 434.73,-312.53 432.77,-305.59 439.93,-306.44 441.89,-313.38"/>
<text text-anchor="middle" x="511" y="-338" font-family="Helvetica,sans-Serif" font-size="10.00"> +data_chunk</text>
</g>
<!-- Node10 -->
<g id="node10" class="node">
<title>Node10</title>
<g id="a_node10"><a xlink:title=" ">
<polygon fill="none" stroke="black" points="651,-502.5 651,-559.5 719,-559.5 719,-502.5 651,-502.5"/>
<text text-anchor="middle" x="685" y="-547.5" font-family="Helvetica,sans-Serif" font-size="10.00">streampos</text>
<polyline fill="none" stroke="black" points="651,-540.5 719,-540.5 "/>
<text text-anchor="middle" x="685" y="-528.5" font-family="Helvetica,sans-Serif" font-size="10.00"> </text>
<polyline fill="none" stroke="black" points="651,-521.5 719,-521.5 "/>
<text text-anchor="middle" x="685" y="-509.5" font-family="Helvetica,sans-Serif" font-size="10.00"> </text>
</a>
</g>
</g>
<!-- Node10&#45;&gt;Node9 -->
<g id="edge14" class="edge">
<title>Node10&#45;&gt;Node9</title>
<path fill="none" stroke="#404040" d="M673.62,-502.28C664.48,-482.81 650.03,-457.26 631,-440 626.17,-435.62 620.84,-431.57 615.25,-427.86"/>
<polygon fill="none" stroke="#404040" points="615.17,-427.81 607.96,-428.07 604.95,-421.52 612.16,-421.26 615.17,-427.81"/>
<text text-anchor="middle" x="716" y="-459.5" font-family="Helvetica,sans-Serif" font-size="10.00"> +data_start_position</text>
</g>
<!-- Node11 -->
<g id="node11" class="node">
<title>Node11</title>
<g id="a_node11"><a xlink:title=" ">
<polygon fill="none" stroke="black" points="488,-243 488,-300 592,-300 592,-243 488,-243"/>
<text text-anchor="middle" x="540" y="-288" font-family="Helvetica,sans-Serif" font-size="10.00">vector&lt; int16_t &gt;</text>
<polyline fill="none" stroke="black" points="488,-281 592,-281 "/>
<text text-anchor="middle" x="540" y="-269" font-family="Helvetica,sans-Serif" font-size="10.00"> </text>
<polyline fill="none" stroke="black" points="488,-262 592,-262 "/>
<text text-anchor="middle" x="540" y="-250" font-family="Helvetica,sans-Serif" font-size="10.00"> </text>
</a>
</g>
</g>
<!-- Node11&#45;&gt;Node1 -->
<g id="edge15" class="edge">
<title>Node11&#45;&gt;Node1</title>
<path fill="none" stroke="#404040" d="M517.51,-242.77C505.35,-227.79 489.54,-208.29 473.3,-188.27"/>
<polygon fill="none" stroke="#404040" points="473.13,-188.06 466.24,-185.92 465.57,-178.74 472.46,-180.88 473.13,-188.06"/>
<text text-anchor="middle" x="516" y="-200" font-family="Helvetica,sans-Serif" font-size="10.00"> &#45;samples_</text>
</g>
<!-- Node12 -->
<g id="node12" class="node">
<title>Node12</title>
<g id="a_node12"><a xlink:title=" ">
<polygon fill="none" stroke="black" points="610,-243 610,-300 660,-300 660,-243 610,-243"/>
<text text-anchor="middle" x="635" y="-288" font-family="Helvetica,sans-Serif" font-size="10.00">double</text>
<polyline fill="none" stroke="black" points="610,-281 660,-281 "/>
<text text-anchor="middle" x="635" y="-269" font-family="Helvetica,sans-Serif" font-size="10.00"> </text>
<polyline fill="none" stroke="black" points="610,-262 660,-262 "/>
<text text-anchor="middle" x="635" y="-250" font-family="Helvetica,sans-Serif" font-size="10.00"> </text>
</a>
</g>
</g>
<!-- Node12&#45;&gt;Node1 -->
<g id="edge16" class="edge">
<title>Node12&#45;&gt;Node1</title>
<path fill="none" stroke="#404040" d="M616.24,-242.9C611.61,-237 606.41,-231.03 601,-226 565.34,-192.85 520.68,-162.49 481.98,-138.95"/>
<polygon fill="none" stroke="#404040" points="481.52,-138.68 474.32,-139.02 471.24,-132.5 478.44,-132.16 481.52,-138.68"/>
<text text-anchor="middle" x="610.5" y="-200" font-family="Helvetica,sans-Serif" font-size="10.00"> &#45;wave_angle_</text>
</g>
</g>
</svg>
