<?xml version="1.0" encoding="UTF-8" standalone="no"?>
<!DOCTYPE svg PUBLIC "-//W3C//DTD SVG 1.1//EN"
 "http://www.w3.org/Graphics/SVG/1.1/DTD/svg11.dtd">
<!-- Generated by graphviz version 2.43.0 (0)
 -->
<!-- Title: kazoo::BinaryStream::popByte Pages: 1 -->
<svg width="1118pt" height="154pt"
 viewBox="0.00 0.00 1118.00 153.50" xmlns="http://www.w3.org/2000/svg" xmlns:xlink="http://www.w3.org/1999/xlink">
<g id="graph0" class="graph" transform="scale(1 1) rotate(0) translate(4 149.5)">
<title>kazoo::BinaryStream::popByte</title>
<!-- Node1 -->
<g id="node1" class="node">
<title>Node1</title>
<g id="a_node1"><a xlink:title=" ">
<polygon fill="#bfbfbf" stroke="black" points="992,-33 992,-63 1110,-63 1110,-33 992,-33"/>
<text text-anchor="start" x="1000" y="-51" font-family="Helvetica,sans-Serif" font-size="10.00">kazoo::BinaryStream</text>
<text text-anchor="middle" x="1051" y="-40" font-family="Helvetica,sans-Serif" font-size="10.00">::popByte</text>
</a>
</g>
</g>
<!-- Node2 -->
<g id="node2" class="node">
<title>Node2</title>
<g id="a_node2"><a xlink:href="classkazoo_1_1Deframer.html#ad544e3c1a1301cc5ab77389eab411b03" target="_top" xlink:title=" ">
<polygon fill="none" stroke="black" points="574,-38.5 574,-57.5 750,-57.5 750,-38.5 574,-38.5"/>
<text text-anchor="middle" x="662" y="-45.5" font-family="Helvetica,sans-Serif" font-size="10.00">kazoo::Deframer::findFrameData</text>
</a>
</g>
</g>
<!-- Node1&#45;&gt;Node2 -->
<g id="edge1" class="edge">
<title>Node1&#45;&gt;Node2</title>
<path fill="none" stroke="midnightblue" d="M981.58,-48C917.11,-48 820.22,-48 750.23,-48"/>
<polygon fill="midnightblue" stroke="midnightblue" points="981.64,-51.5 991.64,-48 981.64,-44.5 981.64,-51.5"/>
</g>
<!-- Node3 -->
<g id="node3" class="node">
<title>Node3</title>
<g id="a_node3"><a xlink:href="classkazoo_1_1Deframer.html#a79d8b406e773fdc32d7c5002b9e37e2b" target="_top" xlink:title=" ">
<polygon fill="none" stroke="black" points="365,-76.5 365,-95.5 538,-95.5 538,-76.5 365,-76.5"/>
<text text-anchor="middle" x="451.5" y="-83.5" font-family="Helvetica,sans-Serif" font-size="10.00">kazoo::Deframer::findFrameSize</text>
</a>
</g>
</g>
<!-- Node1&#45;&gt;Node3 -->
<g id="edge10" class="edge">
<title>Node1&#45;&gt;Node3</title>
<path fill="none" stroke="midnightblue" d="M981.83,-58.97C973.15,-60.13 964.38,-61.18 956,-62 809.68,-76.35 638.57,-82.2 538.21,-84.53"/>
<polygon fill="midnightblue" stroke="midnightblue" points="982.52,-62.41 991.95,-57.58 981.56,-55.48 982.52,-62.41"/>
</g>
<!-- Node6 -->
<g id="node6" class="node">
<title>Node6</title>
<g id="a_node6"><a xlink:href="classkazoo_1_1Deframer.html#ae4c8d8b5f7e2bc50183fc1b758fc21a8" target="_top" xlink:title=" ">
<polygon fill="none" stroke="black" points="786,-0.5 786,-19.5 956,-19.5 956,-0.5 786,-0.5"/>
<text text-anchor="middle" x="871" y="-7.5" font-family="Helvetica,sans-Serif" font-size="10.00">kazoo::Deframer::findFrameEnd</text>
</a>
</g>
</g>
<!-- Node1&#45;&gt;Node6 -->
<g id="edge7" class="edge">
<title>Node1&#45;&gt;Node6</title>
<path fill="none" stroke="midnightblue" d="M981.81,-33.44C959.95,-28.78 936.3,-23.73 916.58,-19.52"/>
<polygon fill="midnightblue" stroke="midnightblue" points="981.21,-36.89 991.72,-35.56 982.67,-30.05 981.21,-36.89"/>
</g>
<!-- Node2&#45;&gt;Node3 -->
<g id="edge2" class="edge">
<title>Node2&#45;&gt;Node3</title>
<path fill="none" stroke="midnightblue" d="M598.74,-59.35C568.83,-64.8 533.37,-71.26 504.87,-76.46"/>
<polygon fill="midnightblue" stroke="midnightblue" points="599.45,-62.78 608.66,-57.54 598.19,-55.89 599.45,-62.78"/>
</g>
<!-- Node5 -->
<g id="node5" class="node">
<title>Node5</title>
<g id="a_node5"><a xlink:href="classkazoo_1_1Deframer.html#a742de19b3ca490d3faabfcbb64785998" target="_top" xlink:title="Process the input binary stream in a stateful manner to extract frames from sequential stream inputs.">
<polygon fill="none" stroke="black" points="0,-52 0,-82 141,-82 141,-52 0,-52"/>
<text text-anchor="start" x="8" y="-70" font-family="Helvetica,sans-Serif" font-size="10.00">kazoo::Deframer::process</text>
<text text-anchor="middle" x="70.5" y="-59" font-family="Helvetica,sans-Serif" font-size="10.00">Input</text>
</a>
</g>
</g>
<!-- Node2&#45;&gt;Node5 -->
<g id="edge6" class="edge">
<title>Node2&#45;&gt;Node5</title>
<path fill="none" stroke="midnightblue" d="M563.5,-51.14C444.43,-54.98 245.99,-61.38 141.22,-64.75"/>
<polygon fill="midnightblue" stroke="midnightblue" points="563.82,-54.63 573.7,-50.81 563.59,-47.64 563.82,-54.63"/>
</g>
<!-- Node4 -->
<g id="node4" class="node">
<title>Node4</title>
<g id="a_node4"><a xlink:href="classkazoo_1_1Deframer.html#a7dc1caffad1ffe4925a3e13d8d125024" target="_top" xlink:title=" ">
<polygon fill="none" stroke="black" points="177,-115 177,-145 329,-145 329,-115 177,-115"/>
<text text-anchor="start" x="185" y="-133" font-family="Helvetica,sans-Serif" font-size="10.00">kazoo::Deframer::findFrame</text>
<text text-anchor="middle" x="253" y="-122" font-family="Helvetica,sans-Serif" font-size="10.00">Start</text>
</a>
</g>
</g>
<!-- Node3&#45;&gt;Node4 -->
<g id="edge3" class="edge">
<title>Node3&#45;&gt;Node4</title>
<path fill="none" stroke="midnightblue" d="M398.06,-97.74C374.49,-103.02 346.38,-109.31 321.28,-114.93"/>
<polygon fill="midnightblue" stroke="midnightblue" points="398.87,-101.15 407.86,-95.55 397.34,-94.32 398.87,-101.15"/>
</g>
<!-- Node3&#45;&gt;Node5 -->
<g id="edge5" class="edge">
<title>Node3&#45;&gt;Node5</title>
<path fill="none" stroke="midnightblue" d="M354.9,-81.21C288.38,-77.87 201.2,-73.5 141.2,-70.49"/>
<polygon fill="midnightblue" stroke="midnightblue" points="354.81,-84.71 364.97,-81.71 355.16,-77.72 354.81,-84.71"/>
</g>
<!-- Node4&#45;&gt;Node5 -->
<g id="edge4" class="edge">
<title>Node4&#45;&gt;Node5</title>
<path fill="none" stroke="midnightblue" d="M199.13,-111.55C172.27,-102.17 140.05,-90.92 114.69,-82.08"/>
<polygon fill="midnightblue" stroke="midnightblue" points="198.17,-114.92 208.77,-114.91 200.48,-108.31 198.17,-114.92"/>
</g>
<!-- Node6&#45;&gt;Node2 -->
<g id="edge8" class="edge">
<title>Node6&#45;&gt;Node2</title>
<path fill="none" stroke="midnightblue" d="M808.19,-21.35C778.49,-26.8 743.29,-33.26 714.99,-38.46"/>
<polygon fill="midnightblue" stroke="midnightblue" points="808.83,-24.79 818.03,-19.54 807.56,-17.9 808.83,-24.79"/>
</g>
<!-- Node6&#45;&gt;Node5 -->
<g id="edge9" class="edge">
<title>Node6&#45;&gt;Node5</title>
<path fill="none" stroke="midnightblue" d="M775.7,-14.66C642.26,-21.58 390.74,-35.86 177,-55 165.43,-56.04 153.17,-57.29 141.25,-58.59"/>
<polygon fill="midnightblue" stroke="midnightblue" points="776.08,-18.14 785.89,-14.13 775.72,-11.15 776.08,-18.14"/>
</g>
</g>
</svg>
