<?xml version="1.0" encoding="UTF-8" standalone="no"?>
<!DOCTYPE svg PUBLIC "-//W3C//DTD SVG 1.1//EN"
 "http://www.w3.org/Graphics/SVG/1.1/DTD/svg11.dtd">
<!-- Generated by graphviz version 2.43.0 (0)
 -->
<!-- Title: kazoo::Logger::logError Pages: 1 -->
<svg width="825pt" height="132pt"
 viewBox="0.00 0.00 825.00 131.50" xmlns="http://www.w3.org/2000/svg" xmlns:xlink="http://www.w3.org/1999/xlink">
<g id="graph0" class="graph" transform="scale(1 1) rotate(0) translate(4 127.5)">
<title>kazoo::Logger::logError</title>
<!-- Node1 -->
<g id="node1" class="node">
<title>Node1</title>
<g id="a_node1"><a xlink:title=" ">
<polygon fill="#bfbfbf" stroke="black" points="689,-44 689,-63 817,-63 817,-44 689,-44"/>
<text text-anchor="middle" x="753" y="-51" font-family="Helvetica,sans-Serif" font-size="10.00">kazoo::Logger::logError</text>
</a>
</g>
</g>
<!-- Node2 -->
<g id="node2" class="node">
<title>Node2</title>
<g id="a_node2"><a xlink:href="classkazoo_1_1ModelTester.html#a972ca91e756c8f5975e8d69204260f13" target="_top" xlink:title=" ">
<polygon fill="none" stroke="black" points="543,-38.5 543,-68.5 653,-68.5 653,-38.5 543,-38.5"/>
<text text-anchor="start" x="551" y="-56.5" font-family="Helvetica,sans-Serif" font-size="10.00">kazoo::ModelTester</text>
<text text-anchor="middle" x="598" y="-45.5" font-family="Helvetica,sans-Serif" font-size="10.00">::expectTrue</text>
</a>
</g>
</g>
<!-- Node1&#45;&gt;Node2 -->
<g id="edge1" class="edge">
<title>Node1&#45;&gt;Node2</title>
<path fill="none" stroke="midnightblue" d="M678.81,-53.5C670.17,-53.5 661.49,-53.5 653.18,-53.5"/>
<polygon fill="midnightblue" stroke="midnightblue" points="678.89,-57 688.89,-53.5 678.89,-50 678.89,-57"/>
</g>
<!-- Node3 -->
<g id="node3" class="node">
<title>Node3</title>
<g id="a_node3"><a xlink:href="classkazoo_1_1ModelTester.html#ae3b12528cffc8ff611b85d82c63d84c5" target="_top" xlink:title=" ">
<polygon fill="none" stroke="black" points="346,-82 346,-123 507,-123 507,-82 346,-82"/>
<text text-anchor="start" x="354" y="-111" font-family="Helvetica,sans-Serif" font-size="10.00">kazoo::ModelTester</text>
<text text-anchor="start" x="354" y="-100" font-family="Helvetica,sans-Serif" font-size="10.00">::helper_encodeStringToAudio</text>
<text text-anchor="middle" x="426.5" y="-89" font-family="Helvetica,sans-Serif" font-size="10.00">Channel</text>
</a>
</g>
</g>
<!-- Node2&#45;&gt;Node3 -->
<g id="edge2" class="edge">
<title>Node2&#45;&gt;Node3</title>
<path fill="none" stroke="midnightblue" d="M534.99,-71.43C523.15,-74.85 510.68,-78.45 498.58,-81.95"/>
<polygon fill="midnightblue" stroke="midnightblue" points="536.13,-74.74 544.76,-68.6 534.18,-68.02 536.13,-74.74"/>
</g>
<!-- Node4 -->
<g id="node4" class="node">
<title>Node4</title>
<g id="a_node4"><a xlink:href="classkazoo_1_1ModelTester.html#a43e738d358a87f9f01cc8ad13c6964fe" target="_top" xlink:title=" ">
<polygon fill="none" stroke="black" points="146,-49.5 146,-79.5 310,-79.5 310,-49.5 146,-49.5"/>
<text text-anchor="start" x="154" y="-67.5" font-family="Helvetica,sans-Serif" font-size="10.00">kazoo::ModelTester</text>
<text text-anchor="middle" x="228" y="-56.5" font-family="Helvetica,sans-Serif" font-size="10.00">::test_gaussianNoiseTolerance</text>
</a>
</g>
</g>
<!-- Node2&#45;&gt;Node4 -->
<g id="edge7" class="edge">
<title>Node2&#45;&gt;Node4</title>
<path fill="none" stroke="midnightblue" d="M532.67,-55.42C470.8,-57.27 377.04,-60.07 310.08,-62.08"/>
<polygon fill="midnightblue" stroke="midnightblue" points="532.81,-58.92 542.7,-55.12 532.6,-51.92 532.81,-58.92"/>
</g>
<!-- Node6 -->
<g id="node6" class="node">
<title>Node6</title>
<g id="a_node6"><a xlink:href="classkazoo_1_1ModelTester.html#ae04082b16f30df3b2200f4d090b0337b" target="_top" xlink:title=" ">
<polygon fill="none" stroke="black" points="156,-0.5 156,-30.5 300,-30.5 300,-0.5 156,-0.5"/>
<text text-anchor="start" x="164" y="-18.5" font-family="Helvetica,sans-Serif" font-size="10.00">kazoo::ModelTester</text>
<text text-anchor="middle" x="228" y="-7.5" font-family="Helvetica,sans-Serif" font-size="10.00">::test_basicEncodeDecode</text>
</a>
</g>
</g>
<!-- Node2&#45;&gt;Node6 -->
<g id="edge5" class="edge">
<title>Node2&#45;&gt;Node6</title>
<path fill="none" stroke="midnightblue" d="M532.59,-46.85C467.62,-40.14 367.58,-29.81 300.27,-22.86"/>
<polygon fill="midnightblue" stroke="midnightblue" points="532.39,-50.35 542.7,-47.89 533.11,-43.38 532.39,-50.35"/>
</g>
<!-- Node3&#45;&gt;Node4 -->
<g id="edge3" class="edge">
<title>Node3&#45;&gt;Node4</title>
<path fill="none" stroke="midnightblue" d="M335.83,-85.16C326.15,-83.29 316.36,-81.39 306.84,-79.55"/>
<polygon fill="midnightblue" stroke="midnightblue" points="335.38,-88.64 345.86,-87.1 336.71,-81.76 335.38,-88.64"/>
</g>
<!-- Node5 -->
<g id="node5" class="node">
<title>Node5</title>
<g id="a_node5"><a xlink:href="classkazoo_1_1ModelTester.html#a7e596cfc6087c50c134a30707a33d6dc" target="_top" xlink:title=" ">
<polygon fill="none" stroke="black" points="0,-24.5 0,-54.5 110,-54.5 110,-24.5 0,-24.5"/>
<text text-anchor="start" x="8" y="-42.5" font-family="Helvetica,sans-Serif" font-size="10.00">kazoo::ModelTester</text>
<text text-anchor="middle" x="55" y="-31.5" font-family="Helvetica,sans-Serif" font-size="10.00">::runAllTests</text>
</a>
</g>
</g>
<!-- Node4&#45;&gt;Node5 -->
<g id="edge4" class="edge">
<title>Node4&#45;&gt;Node5</title>
<path fill="none" stroke="midnightblue" d="M135.85,-51.17C127.1,-49.89 118.42,-48.63 110.19,-47.42"/>
<polygon fill="midnightblue" stroke="midnightblue" points="135.36,-54.64 145.76,-52.62 136.37,-47.71 135.36,-54.64"/>
</g>
<!-- Node6&#45;&gt;Node5 -->
<g id="edge6" class="edge">
<title>Node6&#45;&gt;Node5</title>
<path fill="none" stroke="midnightblue" d="M145.84,-26.89C133.73,-28.59 121.5,-30.31 110.12,-31.9"/>
<polygon fill="midnightblue" stroke="midnightblue" points="146.55,-30.33 155.97,-25.47 145.58,-23.39 146.55,-30.33"/>
</g>
</g>
</svg>
