<?xml version="1.0" encoding="UTF-8" standalone="no"?>
<!DOCTYPE svg PUBLIC "-//W3C//DTD SVG 1.1//EN"
 "http://www.w3.org/Graphics/SVG/1.1/DTD/svg11.dtd">
<!-- Generated by graphviz version 2.43.0 (0)
 -->
<!-- Title: kazoo::BinaryStream::popBits Pages: 1 -->
<svg width="628pt" height="112pt"
 viewBox="0.00 0.00 628.00 112.00" xmlns="http://www.w3.org/2000/svg" xmlns:xlink="http://www.w3.org/1999/xlink">
<g id="graph0" class="graph" transform="scale(1 1) rotate(0) translate(4 108)">
<title>kazoo::BinaryStream::popBits</title>
<!-- Node1 -->
<g id="node1" class="node">
<title>Node1</title>
<g id="a_node1"><a xlink:title="Pop bits off the front, effectively the inverse of addBits.">
<polygon fill="#bfbfbf" stroke="black" points="0,-24.5 0,-54.5 118,-54.5 118,-24.5 0,-24.5"/>
<text text-anchor="start" x="8" y="-42.5" font-family="Helvetica,sans-Serif" font-size="10.00">kazoo::BinaryStream</text>
<text text-anchor="middle" x="59" y="-31.5" font-family="Helvetica,sans-Serif" font-size="10.00">::popBits</text>
</a>
</g>
</g>
<!-- Node2 -->
<g id="node2" class="node">
<title>Node2</title>
<g id="a_node2"><a xlink:href="classkazoo_1_1BinaryStream.html#a3a614f83199d9abd627964db2fef5f7b" target="_top" xlink:title="Get the number of bits in the stream.">
<polygon fill="none" stroke="black" points="154,-49.5 154,-79.5 272,-79.5 272,-49.5 154,-49.5"/>
<text text-anchor="start" x="162" y="-67.5" font-family="Helvetica,sans-Serif" font-size="10.00">kazoo::BinaryStream</text>
<text text-anchor="middle" x="213" y="-56.5" font-family="Helvetica,sans-Serif" font-size="10.00">::getNumBits</text>
</a>
</g>
</g>
<!-- Node1&#45;&gt;Node2 -->
<g id="edge1" class="edge">
<title>Node1&#45;&gt;Node2</title>
<path fill="none" stroke="midnightblue" d="M118.33,-49.09C126.7,-50.47 135.36,-51.9 143.9,-53.3"/>
<polygon fill="midnightblue" stroke="midnightblue" points="143.39,-56.76 153.82,-54.93 144.52,-49.85 143.39,-56.76"/>
</g>
<!-- Node6 -->
<g id="node6" class="node">
<title>Node6</title>
<g id="a_node6"><a xlink:href="classkazoo_1_1BinaryStream.html#a82de69510e248576ea64a328979a9f48" target="_top" xlink:title=" ">
<polygon fill="none" stroke="black" points="154,-0.5 154,-30.5 272,-30.5 272,-0.5 154,-0.5"/>
<text text-anchor="start" x="162" y="-18.5" font-family="Helvetica,sans-Serif" font-size="10.00">kazoo::BinaryStream</text>
<text text-anchor="middle" x="213" y="-7.5" font-family="Helvetica,sans-Serif" font-size="10.00">::popBit</text>
</a>
</g>
</g>
<!-- Node1&#45;&gt;Node6 -->
<g id="edge5" class="edge">
<title>Node1&#45;&gt;Node6</title>
<path fill="none" stroke="midnightblue" d="M118.33,-30.29C126.7,-28.97 135.36,-27.6 143.9,-26.25"/>
<polygon fill="midnightblue" stroke="midnightblue" points="144.49,-29.7 153.82,-24.69 143.4,-22.79 144.49,-29.7"/>
</g>
<!-- Node3 -->
<g id="node3" class="node">
<title>Node3</title>
<g id="a_node3"><a xlink:href="classkazoo_1_1BinaryStream.html#aada16bde376a41419737c7177612a521" target="_top" xlink:title="If adding bits, this will return the number of bits that can be added to the stream before the stream...">
<polygon fill="none" stroke="black" points="319.5,-73.5 319.5,-103.5 454.5,-103.5 454.5,-73.5 319.5,-73.5"/>
<text text-anchor="start" x="327.5" y="-91.5" font-family="Helvetica,sans-Serif" font-size="10.00">kazoo::BinaryStream</text>
<text text-anchor="middle" x="387" y="-80.5" font-family="Helvetica,sans-Serif" font-size="10.00">::getInputBitBufferSpace</text>
</a>
</g>
</g>
<!-- Node2&#45;&gt;Node3 -->
<g id="edge2" class="edge">
<title>Node2&#45;&gt;Node3</title>
<path fill="none" stroke="midnightblue" d="M272.23,-72.63C284.15,-74.29 296.87,-76.06 309.32,-77.8"/>
<polygon fill="midnightblue" stroke="midnightblue" points="308.84,-81.27 319.23,-79.18 309.81,-74.33 308.84,-81.27"/>
</g>
<!-- Node4 -->
<g id="node4" class="node">
<title>Node4</title>
<g id="a_node4"><a xlink:href="classkazoo_1_1BinaryStream.html#a12a1666a4c0b0ddfdc512a50f09f5975" target="_top" xlink:title=" ">
<polygon fill="none" stroke="black" points="308,-24.5 308,-54.5 466,-54.5 466,-24.5 308,-24.5"/>
<text text-anchor="start" x="316" y="-42.5" font-family="Helvetica,sans-Serif" font-size="10.00">kazoo::BinaryStream</text>
<text text-anchor="middle" x="387" y="-31.5" font-family="Helvetica,sans-Serif" font-size="10.00">::getOutputBitBufferUsedBits</text>
</a>
</g>
</g>
<!-- Node2&#45;&gt;Node4 -->
<g id="edge3" class="edge">
<title>Node2&#45;&gt;Node4</title>
<path fill="none" stroke="midnightblue" d="M272.23,-56.04C280.43,-54.84 289,-53.6 297.6,-52.35"/>
<polygon fill="midnightblue" stroke="midnightblue" points="298.31,-55.78 307.7,-50.88 297.3,-48.86 298.31,-55.78"/>
</g>
<!-- Node5 -->
<g id="node5" class="node">
<title>Node5</title>
<g id="a_node5"><a xlink:href="classkazoo_1_1BinaryStream.html#a32b6f202b2627b75ace2e6c9c07726aa" target="_top" xlink:title="Get the byte alignment status of the stream.">
<polygon fill="none" stroke="black" points="502,-24.5 502,-54.5 620,-54.5 620,-24.5 502,-24.5"/>
<text text-anchor="start" x="510" y="-42.5" font-family="Helvetica,sans-Serif" font-size="10.00">kazoo::BinaryStream</text>
<text text-anchor="middle" x="561" y="-31.5" font-family="Helvetica,sans-Serif" font-size="10.00">::isByteAligned</text>
</a>
</g>
</g>
<!-- Node4&#45;&gt;Node5 -->
<g id="edge4" class="edge">
<title>Node4&#45;&gt;Node5</title>
<path fill="none" stroke="midnightblue" d="M466.2,-39.5C474.72,-39.5 483.34,-39.5 491.72,-39.5"/>
<polygon fill="midnightblue" stroke="midnightblue" points="491.81,-43 501.81,-39.5 491.81,-36 491.81,-43"/>
</g>
</g>
</svg>
