<?xml version="1.0" encoding="UTF-8" standalone="no"?>
<!DOCTYPE svg PUBLIC "-//W3C//DTD SVG 1.1//EN"
 "http://www.w3.org/Graphics/SVG/1.1/DTD/svg11.dtd">
<!-- Generated by graphviz version 2.43.0 (0)
 -->
<!-- Title: kazoo::model::K3ReasonableModel::K3Model::decodeAudioToSymbols Pages: 1 -->
<svg width="615pt" height="193pt"
 viewBox="0.00 0.00 615.00 193.00" xmlns="http://www.w3.org/2000/svg" xmlns:xlink="http://www.w3.org/1999/xlink">
<g id="graph0" class="graph" transform="scale(1 1) rotate(0) translate(4 189)">
<title>kazoo::model::K3ReasonableModel::K3Model::decodeAudioToSymbols</title>
<!-- Node1 -->
<g id="node1" class="node">
<title>Node1</title>
<g id="a_node1"><a xlink:title=" ">
<polygon fill="#bfbfbf" stroke="black" points="0,-71.5 0,-101.5 217,-101.5 217,-71.5 0,-71.5"/>
<text text-anchor="start" x="8" y="-89.5" font-family="Helvetica,sans-Serif" font-size="10.00">kazoo::model::K3Reasonable</text>
<text text-anchor="middle" x="108.5" y="-78.5" font-family="Helvetica,sans-Serif" font-size="10.00">Model::K3Model::decodeAudioToSymbols</text>
</a>
</g>
</g>
<!-- Node2 -->
<g id="node2" class="node">
<title>Node2</title>
<g id="a_node2"><a xlink:href="classkazoo_1_1ISymbolStream.html#a84d57e49235049ea033140d351aeb2cb" target="_top" xlink:title=" ">
<polygon fill="none" stroke="black" points="287,-154.5 287,-184.5 413,-184.5 413,-154.5 287,-154.5"/>
<text text-anchor="start" x="295" y="-172.5" font-family="Helvetica,sans-Serif" font-size="10.00">kazoo::ISymbolStream</text>
<text text-anchor="middle" x="350" y="-161.5" font-family="Helvetica,sans-Serif" font-size="10.00">::addSymbolId</text>
</a>
</g>
</g>
<!-- Node1&#45;&gt;Node2 -->
<g id="edge1" class="edge">
<title>Node1&#45;&gt;Node2</title>
<path fill="none" stroke="midnightblue" d="M143.25,-101.59C172.04,-114.11 214.73,-131.84 253,-144.5 260.82,-147.09 269.06,-149.58 277.3,-151.92"/>
<polygon fill="midnightblue" stroke="midnightblue" points="276.37,-155.29 286.94,-154.6 278.24,-148.55 276.37,-155.29"/>
</g>
<!-- Node3 -->
<g id="node3" class="node">
<title>Node3</title>
<g id="a_node3"><a xlink:href="classkazoo_1_1model_1_1K3ReasonableModel_1_1K3Model.html#a5a805349ff160bed87a2552b7d1ed908" target="_top" xlink:title=" ">
<polygon fill="none" stroke="black" points="253,-94 253,-135 447,-135 447,-94 253,-94"/>
<text text-anchor="start" x="261" y="-123" font-family="Helvetica,sans-Serif" font-size="10.00">kazoo::model::K3Reasonable</text>
<text text-anchor="start" x="261" y="-112" font-family="Helvetica,sans-Serif" font-size="10.00">Model::K3Model::detectSymbolFrom</text>
<text text-anchor="middle" x="350" y="-101" font-family="Helvetica,sans-Serif" font-size="10.00">FftResults</text>
</a>
</g>
</g>
<!-- Node1&#45;&gt;Node3 -->
<g id="edge2" class="edge">
<title>Node1&#45;&gt;Node3</title>
<path fill="none" stroke="midnightblue" d="M217.34,-99.11C225.72,-100.09 234.19,-101.08 242.57,-102.06"/>
<polygon fill="midnightblue" stroke="midnightblue" points="242.39,-105.56 252.73,-103.24 243.2,-98.61 242.39,-105.56"/>
</g>
<!-- Node5 -->
<g id="node5" class="node">
<title>Node5</title>
<g id="a_node5"><a xlink:href="classkazoo_1_1IAudioChannel.html#a4cb9127060966e0e53bd6782b9f3413d" target="_top" xlink:title=" ">
<polygon fill="none" stroke="black" points="289,-44.5 289,-74.5 411,-74.5 411,-44.5 289,-44.5"/>
<text text-anchor="start" x="297" y="-62.5" font-family="Helvetica,sans-Serif" font-size="10.00">kazoo::IAudioChannel</text>
<text text-anchor="middle" x="350" y="-51.5" font-family="Helvetica,sans-Serif" font-size="10.00">::getSamplesRef</text>
</a>
</g>
</g>
<!-- Node1&#45;&gt;Node5 -->
<g id="edge4" class="edge">
<title>Node1&#45;&gt;Node5</title>
<path fill="none" stroke="midnightblue" d="M217.34,-74.34C238.18,-71.99 259.5,-69.59 278.75,-67.42"/>
<polygon fill="midnightblue" stroke="midnightblue" points="279.37,-70.87 288.92,-66.27 278.59,-63.92 279.37,-70.87"/>
</g>
<!-- Node6 -->
<g id="node6" class="node">
<title>Node6</title>
<g id="a_node6"><a xlink:href="classkazoo_1_1Fft.html#a8163205fa6b54e9c6e24022c5180baae" target="_top" xlink:title=" ">
<polygon fill="none" stroke="black" points="264,-6 264,-25 436,-25 436,-6 264,-6"/>
<text text-anchor="middle" x="350" y="-13" font-family="Helvetica,sans-Serif" font-size="10.00">kazoo::Fft::performFftFrequency</text>
</a>
</g>
</g>
<!-- Node1&#45;&gt;Node6 -->
<g id="edge5" class="edge">
<title>Node1&#45;&gt;Node6</title>
<path fill="none" stroke="midnightblue" d="M146.16,-71.46C174.86,-60.12 215.98,-44.8 253,-34.5 262.7,-31.8 273.05,-29.33 283.23,-27.13"/>
<polygon fill="midnightblue" stroke="midnightblue" points="284.25,-30.5 293.33,-25.03 282.82,-23.64 284.25,-30.5"/>
</g>
<!-- Node4 -->
<g id="node4" class="node">
<title>Node4</title>
<g id="a_node4"><a xlink:href="structkazoo_1_1Fft_1_1FftResults.html#a1e06d9b6ae6b3a6f6c717bd7268eb4f3" target="_top" xlink:title=" ">
<polygon fill="none" stroke="black" points="483,-99.5 483,-129.5 607,-129.5 607,-99.5 483,-99.5"/>
<text text-anchor="start" x="491" y="-117.5" font-family="Helvetica,sans-Serif" font-size="10.00">kazoo::Fft::FftResults</text>
<text text-anchor="middle" x="545" y="-106.5" font-family="Helvetica,sans-Serif" font-size="10.00">::getNormalizedPeaks</text>
</a>
</g>
</g>
<!-- Node3&#45;&gt;Node4 -->
<g id="edge3" class="edge">
<title>Node3&#45;&gt;Node4</title>
<path fill="none" stroke="midnightblue" d="M447.22,-114.5C455.81,-114.5 464.41,-114.5 472.73,-114.5"/>
<polygon fill="midnightblue" stroke="midnightblue" points="472.73,-118 482.73,-114.5 472.73,-111 472.73,-118"/>
</g>
<!-- Node7 -->
<g id="node7" class="node">
<title>Node7</title>
<g id="a_node7"><a xlink:href="structkazoo_1_1Fft_1_1FftResults.html#a3af2ef110332f3a5f0b38b8cd4e16019" target="_top" xlink:title=" ">
<polygon fill="none" stroke="black" points="485.5,-0.5 485.5,-30.5 604.5,-30.5 604.5,-0.5 485.5,-0.5"/>
<text text-anchor="start" x="493.5" y="-18.5" font-family="Helvetica,sans-Serif" font-size="10.00">kazoo::Fft::FftResults</text>
<text text-anchor="middle" x="545" y="-7.5" font-family="Helvetica,sans-Serif" font-size="10.00">::reset</text>
</a>
</g>
</g>
<!-- Node6&#45;&gt;Node7 -->
<g id="edge6" class="edge">
<title>Node6&#45;&gt;Node7</title>
<path fill="none" stroke="midnightblue" d="M436.21,-15.5C449.15,-15.5 462.37,-15.5 474.9,-15.5"/>
<polygon fill="midnightblue" stroke="midnightblue" points="475.26,-19 485.26,-15.5 475.26,-12 475.26,-19"/>
</g>
</g>
</svg>
