<?xml version="1.0" encoding="UTF-8" standalone="no"?>
<!DOCTYPE svg PUBLIC "-//W3C//DTD SVG 1.1//EN"
 "http://www.w3.org/Graphics/SVG/1.1/DTD/svg11.dtd">
<!-- Generated by graphviz version 2.43.0 (0)
 -->
<!-- Title: kazoo::Logger::log Pages: 1 -->
<svg width="983pt" height="164pt"
 viewBox="0.00 0.00 983.00 164.00" xmlns="http://www.w3.org/2000/svg" xmlns:xlink="http://www.w3.org/1999/xlink">
<g id="graph0" class="graph" transform="scale(1 1) rotate(0) translate(4 160)">
<title>kazoo::Logger::log</title>
<!-- Node1 -->
<g id="node1" class="node">
<title>Node1</title>
<g id="a_node1"><a xlink:title=" ">
<polygon fill="#bfbfbf" stroke="black" points="870,-64.5 870,-83.5 975,-83.5 975,-64.5 870,-64.5"/>
<text text-anchor="middle" x="922.5" y="-71.5" font-family="Helvetica,sans-Serif" font-size="10.00">kazoo::Logger::log</text>
</a>
</g>
</g>
<!-- Node2 -->
<g id="node2" class="node">
<title>Node2</title>
<g id="a_node2"><a xlink:href="classkazoo_1_1Logger.html#ab6e4c2a261f2b6b8481ab1d606f50177" target="_top" xlink:title=" ">
<polygon fill="none" stroke="black" points="358,-136.5 358,-155.5 495,-155.5 495,-136.5 358,-136.5"/>
<text text-anchor="middle" x="426.5" y="-143.5" font-family="Helvetica,sans-Serif" font-size="10.00">kazoo::Logger::logDebug</text>
</a>
</g>
</g>
<!-- Node1&#45;&gt;Node2 -->
<g id="edge1" class="edge">
<title>Node1&#45;&gt;Node2</title>
<path fill="none" stroke="midnightblue" d="M894.75,-88.34C877.83,-96.72 855.21,-106.66 834,-112 717.42,-141.34 576.71,-146.72 495.14,-147.01"/>
<polygon fill="midnightblue" stroke="midnightblue" points="896.68,-91.29 904.01,-83.63 893.51,-85.05 896.68,-91.29"/>
</g>
<!-- Node6 -->
<g id="node6" class="node">
<title>Node6</title>
<g id="a_node6"><a xlink:href="classkazoo_1_1Logger.html#add67bfbca917a0cb6c9b4424c79eefeb" target="_top" xlink:title=" ">
<polygon fill="none" stroke="black" points="697.5,-83.5 697.5,-102.5 825.5,-102.5 825.5,-83.5 697.5,-83.5"/>
<text text-anchor="middle" x="761.5" y="-90.5" font-family="Helvetica,sans-Serif" font-size="10.00">kazoo::Logger::logError</text>
</a>
</g>
</g>
<!-- Node1&#45;&gt;Node6 -->
<g id="edge7" class="edge">
<title>Node1&#45;&gt;Node6</title>
<path fill="none" stroke="midnightblue" d="M859.74,-81.38C848.51,-82.72 836.79,-84.12 825.53,-85.47"/>
<polygon fill="midnightblue" stroke="midnightblue" points="860.36,-84.83 869.88,-80.17 859.53,-77.88 860.36,-84.83"/>
</g>
<!-- Node9 -->
<g id="node9" class="node">
<title>Node9</title>
<g id="a_node9"><a xlink:href="classkazoo_1_1Logger.html#a12af5e025dac6b76f007b1e145d1d22f" target="_top" xlink:title=" ">
<polygon fill="none" stroke="black" points="699.5,-45.5 699.5,-64.5 823.5,-64.5 823.5,-45.5 699.5,-45.5"/>
<text text-anchor="middle" x="761.5" y="-52.5" font-family="Helvetica,sans-Serif" font-size="10.00">kazoo::Logger::logInfo</text>
</a>
</g>
</g>
<!-- Node1&#45;&gt;Node9 -->
<g id="edge13" class="edge">
<title>Node1&#45;&gt;Node9</title>
<path fill="none" stroke="midnightblue" d="M859.63,-66.61C847.78,-65.19 835.38,-63.71 823.56,-62.3"/>
<polygon fill="midnightblue" stroke="midnightblue" points="859.53,-70.12 869.88,-67.83 860.36,-63.17 859.53,-70.12"/>
</g>
<!-- Node10 -->
<g id="node10" class="node">
<title>Node10</title>
<g id="a_node10"><a xlink:href="classkazoo_1_1Logger.html#abf9128a4d7497a620ca5f08f7fb05147" target="_top" xlink:title=" ">
<polygon fill="none" stroke="black" points="689,-7.5 689,-26.5 834,-26.5 834,-7.5 689,-7.5"/>
<text text-anchor="middle" x="761.5" y="-14.5" font-family="Helvetica,sans-Serif" font-size="10.00">kazoo::Logger::logWarning</text>
</a>
</g>
</g>
<!-- Node1&#45;&gt;Node10 -->
<g id="edge14" class="edge">
<title>Node1&#45;&gt;Node10</title>
<path fill="none" stroke="midnightblue" d="M892.4,-60.05C875.58,-52.32 853.88,-42.91 834,-36 823.93,-32.5 812.88,-29.27 802.53,-26.51"/>
<polygon fill="midnightblue" stroke="midnightblue" points="891.14,-63.33 901.68,-64.38 894.09,-56.98 891.14,-63.33"/>
</g>
<!-- Node3 -->
<g id="node3" class="node">
<title>Node3</title>
<g id="a_node3"><a xlink:href="classkazoo_1_1ModelTester.html#a7e596cfc6087c50c134a30707a33d6dc" target="_top" xlink:title=" ">
<polygon fill="none" stroke="black" points="0,-98 0,-128 110,-128 110,-98 0,-98"/>
<text text-anchor="start" x="8" y="-116" font-family="Helvetica,sans-Serif" font-size="10.00">kazoo::ModelTester</text>
<text text-anchor="middle" x="55" y="-105" font-family="Helvetica,sans-Serif" font-size="10.00">::runAllTests</text>
</a>
</g>
</g>
<!-- Node2&#45;&gt;Node3 -->
<g id="edge2" class="edge">
<title>Node2&#45;&gt;Node3</title>
<path fill="none" stroke="midnightblue" d="M347.65,-148.23C291.35,-148.7 213.6,-146.97 146,-137 132.24,-134.97 117.57,-131.6 104.15,-128.01"/>
<polygon fill="midnightblue" stroke="midnightblue" points="347.95,-151.73 357.91,-148.12 347.87,-144.73 347.95,-151.73"/>
</g>
<!-- Node4 -->
<g id="node4" class="node">
<title>Node4</title>
<g id="a_node4"><a xlink:href="classkazoo_1_1ModelTester.html#ae04082b16f30df3b2200f4d090b0337b" target="_top" xlink:title=" ">
<polygon fill="none" stroke="black" points="156,-98 156,-128 300,-128 300,-98 156,-98"/>
<text text-anchor="start" x="164" y="-116" font-family="Helvetica,sans-Serif" font-size="10.00">kazoo::ModelTester</text>
<text text-anchor="middle" x="228" y="-105" font-family="Helvetica,sans-Serif" font-size="10.00">::test_basicEncodeDecode</text>
</a>
</g>
</g>
<!-- Node2&#45;&gt;Node4 -->
<g id="edge3" class="edge">
<title>Node2&#45;&gt;Node4</title>
<path fill="none" stroke="midnightblue" d="M358.93,-134.82C340.03,-131.65 319.38,-128.18 300.22,-124.96"/>
<polygon fill="midnightblue" stroke="midnightblue" points="358.49,-138.29 368.93,-136.5 359.65,-131.39 358.49,-138.29"/>
</g>
<!-- Node5 -->
<g id="node5" class="node">
<title>Node5</title>
<g id="a_node5"><a xlink:href="classkazoo_1_1ModelTester.html#a43e738d358a87f9f01cc8ad13c6964fe" target="_top" xlink:title=" ">
<polygon fill="none" stroke="black" points="146,-49 146,-79 310,-79 310,-49 146,-49"/>
<text text-anchor="start" x="154" y="-67" font-family="Helvetica,sans-Serif" font-size="10.00">kazoo::ModelTester</text>
<text text-anchor="middle" x="228" y="-56" font-family="Helvetica,sans-Serif" font-size="10.00">::test_gaussianNoiseTolerance</text>
</a>
</g>
</g>
<!-- Node2&#45;&gt;Node5 -->
<g id="edge5" class="edge">
<title>Node2&#45;&gt;Node5</title>
<path fill="none" stroke="midnightblue" d="M399.93,-131.5C376.91,-118.86 341.91,-100.62 310,-88 301.95,-84.82 293.31,-81.83 284.78,-79.11"/>
<polygon fill="midnightblue" stroke="midnightblue" points="398.27,-134.59 408.72,-136.38 401.67,-128.47 398.27,-134.59"/>
</g>
<!-- Node4&#45;&gt;Node3 -->
<g id="edge4" class="edge">
<title>Node4&#45;&gt;Node3</title>
<path fill="none" stroke="midnightblue" d="M145.84,-113C133.73,-113 121.5,-113 110.12,-113"/>
<polygon fill="midnightblue" stroke="midnightblue" points="145.97,-116.5 155.97,-113 145.97,-109.5 145.97,-116.5"/>
</g>
<!-- Node5&#45;&gt;Node3 -->
<g id="edge6" class="edge">
<title>Node5&#45;&gt;Node3</title>
<path fill="none" stroke="midnightblue" d="M164.55,-81.89C146.16,-87.16 126.23,-92.88 108.53,-97.95"/>
<polygon fill="midnightblue" stroke="midnightblue" points="165.65,-85.22 174.3,-79.1 163.72,-78.49 165.65,-85.22"/>
</g>
<!-- Node7 -->
<g id="node7" class="node">
<title>Node7</title>
<g id="a_node7"><a xlink:href="classkazoo_1_1ModelTester.html#a972ca91e756c8f5975e8d69204260f13" target="_top" xlink:title=" ">
<polygon fill="none" stroke="black" points="543,-71 543,-101 653,-101 653,-71 543,-71"/>
<text text-anchor="start" x="551" y="-89" font-family="Helvetica,sans-Serif" font-size="10.00">kazoo::ModelTester</text>
<text text-anchor="middle" x="598" y="-78" font-family="Helvetica,sans-Serif" font-size="10.00">::expectTrue</text>
</a>
</g>
</g>
<!-- Node6&#45;&gt;Node7 -->
<g id="edge8" class="edge">
<title>Node6&#45;&gt;Node7</title>
<path fill="none" stroke="midnightblue" d="M687.13,-89.82C675.65,-89.32 663.97,-88.82 653.04,-88.34"/>
<polygon fill="midnightblue" stroke="midnightblue" points="686.99,-93.32 697.13,-90.25 687.3,-86.32 686.99,-93.32"/>
</g>
<!-- Node7&#45;&gt;Node4 -->
<g id="edge11" class="edge">
<title>Node7&#45;&gt;Node4</title>
<path fill="none" stroke="midnightblue" d="M532.59,-90.73C467.62,-95.49 367.58,-102.83 300.27,-107.77"/>
<polygon fill="midnightblue" stroke="midnightblue" points="532.98,-94.21 542.7,-89.98 532.47,-87.23 532.98,-94.21"/>
</g>
<!-- Node7&#45;&gt;Node5 -->
<g id="edge12" class="edge">
<title>Node7&#45;&gt;Node5</title>
<path fill="none" stroke="midnightblue" d="M532.67,-82.15C470.8,-78.46 377.04,-72.85 310.08,-68.85"/>
<polygon fill="midnightblue" stroke="midnightblue" points="532.51,-85.65 542.7,-82.75 532.93,-78.66 532.51,-85.65"/>
</g>
<!-- Node8 -->
<g id="node8" class="node">
<title>Node8</title>
<g id="a_node8"><a xlink:href="classkazoo_1_1ModelTester.html#ae3b12528cffc8ff611b85d82c63d84c5" target="_top" xlink:title=" ">
<polygon fill="none" stroke="black" points="346,-0.5 346,-41.5 507,-41.5 507,-0.5 346,-0.5"/>
<text text-anchor="start" x="354" y="-29.5" font-family="Helvetica,sans-Serif" font-size="10.00">kazoo::ModelTester</text>
<text text-anchor="start" x="354" y="-18.5" font-family="Helvetica,sans-Serif" font-size="10.00">::helper_encodeStringToAudio</text>
<text text-anchor="middle" x="426.5" y="-7.5" font-family="Helvetica,sans-Serif" font-size="10.00">Channel</text>
</a>
</g>
</g>
<!-- Node7&#45;&gt;Node8 -->
<g id="edge9" class="edge">
<title>Node7&#45;&gt;Node8</title>
<path fill="none" stroke="midnightblue" d="M548.3,-67.33C527.27,-59.26 502.59,-49.8 481.04,-41.53"/>
<polygon fill="midnightblue" stroke="midnightblue" points="547.1,-70.61 557.69,-70.92 549.6,-64.08 547.1,-70.61"/>
</g>
<!-- Node8&#45;&gt;Node5 -->
<g id="edge10" class="edge">
<title>Node8&#45;&gt;Node5</title>
<path fill="none" stroke="midnightblue" d="M336.07,-40.57C323.19,-43.39 310.11,-46.25 297.71,-48.96"/>
<polygon fill="midnightblue" stroke="midnightblue" points="336.84,-43.98 345.86,-38.43 335.34,-37.15 336.84,-43.98"/>
</g>
</g>
</svg>
