<?xml version="1.0" encoding="UTF-8" standalone="no"?>
<!DOCTYPE svg PUBLIC "-//W3C//DTD SVG 1.1//EN"
 "http://www.w3.org/Graphics/SVG/1.1/DTD/svg11.dtd">
<!-- Generated by graphviz version 2.43.0 (0)
 -->
<!-- Title: kazoo::Deframer::findFrameData Pages: 1 -->
<svg width="1269pt" height="180pt"
 viewBox="0.00 0.00 1269.00 179.50" xmlns="http://www.w3.org/2000/svg" xmlns:xlink="http://www.w3.org/1999/xlink">
<g id="graph0" class="graph" transform="scale(1 1) rotate(0) translate(4 175.5)">
<title>kazoo::Deframer::findFrameData</title>
<!-- Node1 -->
<g id="node1" class="node">
<title>Node1</title>
<g id="a_node1"><a xlink:title=" ">
<polygon fill="#bfbfbf" stroke="black" points="0,-77 0,-96 176,-96 176,-77 0,-77"/>
<text text-anchor="middle" x="88" y="-84" font-family="Helvetica,sans-Serif" font-size="10.00">kazoo::Deframer::findFrameData</text>
</a>
</g>
</g>
<!-- Node2 -->
<g id="node2" class="node">
<title>Node2</title>
<g id="a_node2"><a xlink:href="classkazoo_1_1Deframer.html#ad48e61e42665c2d7f03685452b23c571" target="_top" xlink:title=" ">
<polygon fill="none" stroke="black" points="426,-152 426,-171 590,-171 590,-152 426,-152"/>
<text text-anchor="middle" x="508" y="-159" font-family="Helvetica,sans-Serif" font-size="10.00">kazoo::Deframer::changeState</text>
</a>
</g>
</g>
<!-- Node1&#45;&gt;Node2 -->
<g id="edge1" class="edge">
<title>Node1&#45;&gt;Node2</title>
<path fill="none" stroke="midnightblue" d="M116.02,-96.03C140.73,-104.4 178.41,-116.34 212,-123.5 279.67,-137.93 357.32,-147.67 415.97,-153.67"/>
<polygon fill="midnightblue" stroke="midnightblue" points="415.65,-157.16 425.95,-154.67 416.35,-150.19 415.65,-157.16"/>
</g>
<!-- Node3 -->
<g id="node3" class="node">
<title>Node3</title>
<g id="a_node3"><a xlink:href="classkazoo_1_1Deframer.html#ae4c8d8b5f7e2bc50183fc1b758fc21a8" target="_top" xlink:title=" ">
<polygon fill="none" stroke="black" points="212,-77 212,-96 382,-96 382,-77 212,-77"/>
<text text-anchor="middle" x="297" y="-84" font-family="Helvetica,sans-Serif" font-size="10.00">kazoo::Deframer::findFrameEnd</text>
</a>
</g>
</g>
<!-- Node1&#45;&gt;Node3 -->
<g id="edge2" class="edge">
<title>Node1&#45;&gt;Node3</title>
<path fill="none" stroke="midnightblue" d="M176.19,-86.5C184.59,-86.5 193.14,-86.5 201.61,-86.5"/>
<polygon fill="midnightblue" stroke="midnightblue" points="201.89,-90 211.89,-86.5 201.89,-83 201.89,-90"/>
</g>
<!-- Node4 -->
<g id="node4" class="node">
<title>Node4</title>
<g id="a_node4"><a xlink:href="classkazoo_1_1BinaryStream.html#af26ef358b4ddbd2f0a7f9d94d1b64357" target="_top" xlink:title="Get the number of bytes in the stream. If the stream has spare bits that do not align to a byte,...">
<polygon fill="none" stroke="black" points="449,-101.5 449,-131.5 567,-131.5 567,-101.5 449,-101.5"/>
<text text-anchor="start" x="457" y="-119.5" font-family="Helvetica,sans-Serif" font-size="10.00">kazoo::BinaryStream</text>
<text text-anchor="middle" x="508" y="-108.5" font-family="Helvetica,sans-Serif" font-size="10.00">::getNumBytes</text>
</a>
</g>
</g>
<!-- Node1&#45;&gt;Node4 -->
<g id="edge14" class="edge">
<title>Node1&#45;&gt;Node4</title>
<path fill="none" stroke="midnightblue" d="M141.81,-96.03C163.48,-99.59 188.88,-103.29 212,-105.5 289.53,-112.91 378.96,-115.4 438.85,-116.2"/>
<polygon fill="midnightblue" stroke="midnightblue" points="438.89,-119.7 448.93,-116.32 438.98,-112.7 438.89,-119.7"/>
</g>
<!-- Node5 -->
<g id="node5" class="node">
<title>Node5</title>
<g id="a_node5"><a xlink:href="classkazoo_1_1BinaryStream.html#ae77e9324dbd09dd4a02d3504a83ae866" target="_top" xlink:title=" ">
<polygon fill="none" stroke="black" points="449,-51.5 449,-81.5 567,-81.5 567,-51.5 449,-51.5"/>
<text text-anchor="start" x="457" y="-69.5" font-family="Helvetica,sans-Serif" font-size="10.00">kazoo::BinaryStream</text>
<text text-anchor="middle" x="508" y="-58.5" font-family="Helvetica,sans-Serif" font-size="10.00">::popByte</text>
</a>
</g>
</g>
<!-- Node1&#45;&gt;Node5 -->
<g id="edge15" class="edge">
<title>Node1&#45;&gt;Node5</title>
<path fill="none" stroke="midnightblue" d="M139.37,-76.98C161.55,-73.23 187.98,-69.39 212,-67.5 289.59,-61.41 379.01,-62.2 438.88,-63.84"/>
<polygon fill="midnightblue" stroke="midnightblue" points="438.86,-67.34 448.96,-64.14 439.07,-60.35 438.86,-67.34"/>
</g>
<!-- Node12 -->
<g id="node12" class="node">
<title>Node12</title>
<g id="a_node12"><a xlink:href="classkazoo_1_1Deframer.html#a919b00cfd64865233361bf4779674b6a" target="_top" xlink:title=" ">
<polygon fill="none" stroke="black" points="418,-6 418,-25 598,-25 598,-6 418,-6"/>
<text text-anchor="middle" x="508" y="-13" font-family="Helvetica,sans-Serif" font-size="10.00">kazoo::Deframer::printFrameData</text>
</a>
</g>
</g>
<!-- Node1&#45;&gt;Node12 -->
<g id="edge16" class="edge">
<title>Node1&#45;&gt;Node12</title>
<path fill="none" stroke="midnightblue" d="M127.34,-76.95C151.53,-71.13 183.47,-63.82 212,-58.5 281.62,-45.52 361.1,-34.13 420,-26.34"/>
<polygon fill="midnightblue" stroke="midnightblue" points="420.55,-29.8 430.01,-25.03 419.64,-22.86 420.55,-29.8"/>
</g>
<!-- Node3&#45;&gt;Node2 -->
<g id="edge3" class="edge">
<title>Node3&#45;&gt;Node2</title>
<path fill="none" stroke="midnightblue" d="M315.82,-96.1C338.84,-108.16 380.43,-128.83 418,-141.5 427.02,-144.54 436.71,-147.26 446.26,-149.64"/>
<polygon fill="midnightblue" stroke="midnightblue" points="445.59,-153.07 456.13,-151.99 447.22,-146.27 445.59,-153.07"/>
</g>
<!-- Node3&#45;&gt;Node4 -->
<g id="edge4" class="edge">
<title>Node3&#45;&gt;Node4</title>
<path fill="none" stroke="midnightblue" d="M364.42,-96.03C388.16,-99.44 414.94,-103.29 438.82,-106.71"/>
<polygon fill="midnightblue" stroke="midnightblue" points="438.47,-110.2 448.87,-108.16 439.47,-103.27 438.47,-110.2"/>
</g>
<!-- Node3&#45;&gt;Node5 -->
<g id="edge5" class="edge">
<title>Node3&#45;&gt;Node5</title>
<path fill="none" stroke="midnightblue" d="M382.1,-78.45C400.87,-76.66 420.55,-74.77 438.59,-73.05"/>
<polygon fill="midnightblue" stroke="midnightblue" points="439.1,-76.51 448.72,-72.08 438.43,-69.55 439.1,-76.51"/>
</g>
<!-- Node3&#45;&gt;Node12 -->
<g id="edge12" class="edge">
<title>Node3&#45;&gt;Node12</title>
<path fill="none" stroke="midnightblue" d="M322.68,-76.99C346.84,-67.78 384.75,-53.63 418,-42.5 432.93,-37.5 449.4,-32.4 464.06,-27.99"/>
<polygon fill="midnightblue" stroke="midnightblue" points="465.31,-31.27 473.89,-25.06 463.31,-24.56 465.31,-31.27"/>
</g>
<!-- Node6 -->
<g id="node6" class="node">
<title>Node6</title>
<g id="a_node6"><a xlink:href="classkazoo_1_1BinaryStream.html#a745b2acb522d69e283dd5df14500016b" target="_top" xlink:title="Pop bits off the front, effectively the inverse of addBits.">
<polygon fill="none" stroke="black" points="637.5,-51.5 637.5,-81.5 755.5,-81.5 755.5,-51.5 637.5,-51.5"/>
<text text-anchor="start" x="645.5" y="-69.5" font-family="Helvetica,sans-Serif" font-size="10.00">kazoo::BinaryStream</text>
<text text-anchor="middle" x="696.5" y="-58.5" font-family="Helvetica,sans-Serif" font-size="10.00">::popBits</text>
</a>
</g>
</g>
<!-- Node5&#45;&gt;Node6 -->
<g id="edge6" class="edge">
<title>Node5&#45;&gt;Node6</title>
<path fill="none" stroke="midnightblue" d="M567.24,-66.5C586.26,-66.5 607.56,-66.5 627.25,-66.5"/>
<polygon fill="midnightblue" stroke="midnightblue" points="627.38,-70 637.38,-66.5 627.38,-63 627.38,-70"/>
</g>
<!-- Node7 -->
<g id="node7" class="node">
<title>Node7</title>
<g id="a_node7"><a xlink:href="classkazoo_1_1BinaryStream.html#a3a614f83199d9abd627964db2fef5f7b" target="_top" xlink:title="Get the number of bits in the stream.">
<polygon fill="none" stroke="black" points="795,-76.5 795,-106.5 913,-106.5 913,-76.5 795,-76.5"/>
<text text-anchor="start" x="803" y="-94.5" font-family="Helvetica,sans-Serif" font-size="10.00">kazoo::BinaryStream</text>
<text text-anchor="middle" x="854" y="-83.5" font-family="Helvetica,sans-Serif" font-size="10.00">::getNumBits</text>
</a>
</g>
</g>
<!-- Node6&#45;&gt;Node7 -->
<g id="edge7" class="edge">
<title>Node6&#45;&gt;Node7</title>
<path fill="none" stroke="midnightblue" d="M755.84,-75.88C765.31,-77.4 775.19,-78.99 784.86,-80.55"/>
<polygon fill="midnightblue" stroke="midnightblue" points="784.42,-84.02 794.85,-82.15 785.53,-77.11 784.42,-84.02"/>
</g>
<!-- Node11 -->
<g id="node11" class="node">
<title>Node11</title>
<g id="a_node11"><a xlink:href="classkazoo_1_1BinaryStream.html#a82de69510e248576ea64a328979a9f48" target="_top" xlink:title=" ">
<polygon fill="none" stroke="black" points="795,-27.5 795,-57.5 913,-57.5 913,-27.5 795,-27.5"/>
<text text-anchor="start" x="803" y="-45.5" font-family="Helvetica,sans-Serif" font-size="10.00">kazoo::BinaryStream</text>
<text text-anchor="middle" x="854" y="-34.5" font-family="Helvetica,sans-Serif" font-size="10.00">::popBit</text>
</a>
</g>
</g>
<!-- Node6&#45;&gt;Node11 -->
<g id="edge11" class="edge">
<title>Node6&#45;&gt;Node11</title>
<path fill="none" stroke="midnightblue" d="M755.84,-57.5C765.31,-56.03 775.19,-54.51 784.86,-53.02"/>
<polygon fill="midnightblue" stroke="midnightblue" points="785.5,-56.46 794.85,-51.48 784.43,-49.54 785.5,-56.46"/>
</g>
<!-- Node8 -->
<g id="node8" class="node">
<title>Node8</title>
<g id="a_node8"><a xlink:href="classkazoo_1_1BinaryStream.html#aada16bde376a41419737c7177612a521" target="_top" xlink:title="If adding bits, this will return the number of bits that can be added to the stream before the stream...">
<polygon fill="none" stroke="black" points="960.5,-100.5 960.5,-130.5 1095.5,-130.5 1095.5,-100.5 960.5,-100.5"/>
<text text-anchor="start" x="968.5" y="-118.5" font-family="Helvetica,sans-Serif" font-size="10.00">kazoo::BinaryStream</text>
<text text-anchor="middle" x="1028" y="-107.5" font-family="Helvetica,sans-Serif" font-size="10.00">::getInputBitBufferSpace</text>
</a>
</g>
</g>
<!-- Node7&#45;&gt;Node8 -->
<g id="edge8" class="edge">
<title>Node7&#45;&gt;Node8</title>
<path fill="none" stroke="midnightblue" d="M913.23,-99.63C925.15,-101.29 937.87,-103.06 950.32,-104.8"/>
<polygon fill="midnightblue" stroke="midnightblue" points="949.84,-108.27 960.23,-106.18 950.81,-101.33 949.84,-108.27"/>
</g>
<!-- Node9 -->
<g id="node9" class="node">
<title>Node9</title>
<g id="a_node9"><a xlink:href="classkazoo_1_1BinaryStream.html#a12a1666a4c0b0ddfdc512a50f09f5975" target="_top" xlink:title=" ">
<polygon fill="none" stroke="black" points="949,-51.5 949,-81.5 1107,-81.5 1107,-51.5 949,-51.5"/>
<text text-anchor="start" x="957" y="-69.5" font-family="Helvetica,sans-Serif" font-size="10.00">kazoo::BinaryStream</text>
<text text-anchor="middle" x="1028" y="-58.5" font-family="Helvetica,sans-Serif" font-size="10.00">::getOutputBitBufferUsedBits</text>
</a>
</g>
</g>
<!-- Node7&#45;&gt;Node9 -->
<g id="edge9" class="edge">
<title>Node7&#45;&gt;Node9</title>
<path fill="none" stroke="midnightblue" d="M913.23,-83.04C921.43,-81.84 930,-80.6 938.6,-79.35"/>
<polygon fill="midnightblue" stroke="midnightblue" points="939.31,-82.78 948.7,-77.88 938.3,-75.86 939.31,-82.78"/>
</g>
<!-- Node10 -->
<g id="node10" class="node">
<title>Node10</title>
<g id="a_node10"><a xlink:href="classkazoo_1_1BinaryStream.html#a32b6f202b2627b75ace2e6c9c07726aa" target="_top" xlink:title="Get the byte alignment status of the stream.">
<polygon fill="none" stroke="black" points="1143,-51.5 1143,-81.5 1261,-81.5 1261,-51.5 1143,-51.5"/>
<text text-anchor="start" x="1151" y="-69.5" font-family="Helvetica,sans-Serif" font-size="10.00">kazoo::BinaryStream</text>
<text text-anchor="middle" x="1202" y="-58.5" font-family="Helvetica,sans-Serif" font-size="10.00">::isByteAligned</text>
</a>
</g>
</g>
<!-- Node9&#45;&gt;Node10 -->
<g id="edge10" class="edge">
<title>Node9&#45;&gt;Node10</title>
<path fill="none" stroke="midnightblue" d="M1107.2,-66.5C1115.72,-66.5 1124.34,-66.5 1132.72,-66.5"/>
<polygon fill="midnightblue" stroke="midnightblue" points="1132.81,-70 1142.81,-66.5 1132.81,-63 1132.81,-70"/>
</g>
<!-- Node13 -->
<g id="node13" class="node">
<title>Node13</title>
<g id="a_node13"><a xlink:href="classkazoo_1_1BinaryStream.html#a9cf1c3eb54ace654061894c7278b6d32" target="_top" xlink:title="Get a const reference to the underlying stream data.">
<polygon fill="none" stroke="black" points="634,-0.5 634,-30.5 759,-30.5 759,-0.5 634,-0.5"/>
<text text-anchor="start" x="642" y="-18.5" font-family="Helvetica,sans-Serif" font-size="10.00">kazoo::BinaryStream</text>
<text text-anchor="middle" x="696.5" y="-7.5" font-family="Helvetica,sans-Serif" font-size="10.00">::getStreamDataConst</text>
</a>
</g>
</g>
<!-- Node12&#45;&gt;Node13 -->
<g id="edge13" class="edge">
<title>Node12&#45;&gt;Node13</title>
<path fill="none" stroke="midnightblue" d="M598.15,-15.5C606.74,-15.5 615.38,-15.5 623.77,-15.5"/>
<polygon fill="midnightblue" stroke="midnightblue" points="623.86,-19 633.86,-15.5 623.86,-12 623.86,-19"/>
</g>
</g>
</svg>
