<?xml version="1.0" encoding="UTF-8" standalone="no"?>
<!DOCTYPE svg PUBLIC "-//W3C//DTD SVG 1.1//EN"
 "http://www.w3.org/Graphics/SVG/1.1/DTD/svg11.dtd">
<!-- Generated by graphviz version 2.43.0 (0)
 -->
<!-- Title: kazoo::IEncoder::encodeAvailableSymbols Pages: 1 -->
<svg width="730pt" height="94pt"
 viewBox="0.00 0.00 730.00 93.50" xmlns="http://www.w3.org/2000/svg" xmlns:xlink="http://www.w3.org/1999/xlink">
<g id="graph0" class="graph" transform="scale(1 1) rotate(0) translate(4 89.5)">
<title>kazoo::IEncoder::encodeAvailableSymbols</title>
<!-- Node1 -->
<g id="node1" class="node">
<title>Node1</title>
<g id="a_node1"><a xlink:title=" ">
<polygon fill="#bfbfbf" stroke="black" points="543,-24.5 543,-54.5 722,-54.5 722,-24.5 543,-24.5"/>
<text text-anchor="start" x="551" y="-42.5" font-family="Helvetica,sans-Serif" font-size="10.00">kazoo::IEncoder::encodeAvailable</text>
<text text-anchor="middle" x="632.5" y="-31.5" font-family="Helvetica,sans-Serif" font-size="10.00">Symbols</text>
</a>
</g>
</g>
<!-- Node2 -->
<g id="node2" class="node">
<title>Node2</title>
<g id="a_node2"><a xlink:href="classkazoo_1_1ModelTester.html#ae3b12528cffc8ff611b85d82c63d84c5" target="_top" xlink:title=" ">
<polygon fill="none" stroke="black" points="346,-44 346,-85 507,-85 507,-44 346,-44"/>
<text text-anchor="start" x="354" y="-73" font-family="Helvetica,sans-Serif" font-size="10.00">kazoo::ModelTester</text>
<text text-anchor="start" x="354" y="-62" font-family="Helvetica,sans-Serif" font-size="10.00">::helper_encodeStringToAudio</text>
<text text-anchor="middle" x="426.5" y="-51" font-family="Helvetica,sans-Serif" font-size="10.00">Channel</text>
</a>
</g>
</g>
<!-- Node1&#45;&gt;Node2 -->
<g id="edge1" class="edge">
<title>Node1&#45;&gt;Node2</title>
<path fill="none" stroke="midnightblue" d="M532.8,-51.6C524.16,-52.65 515.48,-53.72 507.03,-54.75"/>
<polygon fill="midnightblue" stroke="midnightblue" points="533.41,-55.05 542.91,-50.36 532.56,-48.1 533.41,-55.05"/>
</g>
<!-- Node5 -->
<g id="node5" class="node">
<title>Node5</title>
<g id="a_node5"><a xlink:href="classkazoo_1_1ModelTester.html#ae04082b16f30df3b2200f4d090b0337b" target="_top" xlink:title=" ">
<polygon fill="none" stroke="black" points="156,-0.5 156,-30.5 300,-30.5 300,-0.5 156,-0.5"/>
<text text-anchor="start" x="164" y="-18.5" font-family="Helvetica,sans-Serif" font-size="10.00">kazoo::ModelTester</text>
<text text-anchor="middle" x="228" y="-7.5" font-family="Helvetica,sans-Serif" font-size="10.00">::test_basicEncodeDecode</text>
</a>
</g>
</g>
<!-- Node1&#45;&gt;Node5 -->
<g id="edge4" class="edge">
<title>Node1&#45;&gt;Node5</title>
<path fill="none" stroke="midnightblue" d="M532.67,-33.61C460.66,-29.31 364.79,-23.6 300.19,-19.74"/>
<polygon fill="midnightblue" stroke="midnightblue" points="532.48,-37.1 542.67,-34.2 532.9,-30.11 532.48,-37.1"/>
</g>
<!-- Node3 -->
<g id="node3" class="node">
<title>Node3</title>
<g id="a_node3"><a xlink:href="classkazoo_1_1ModelTester.html#a43e738d358a87f9f01cc8ad13c6964fe" target="_top" xlink:title=" ">
<polygon fill="none" stroke="black" points="146,-49.5 146,-79.5 310,-79.5 310,-49.5 146,-49.5"/>
<text text-anchor="start" x="154" y="-67.5" font-family="Helvetica,sans-Serif" font-size="10.00">kazoo::ModelTester</text>
<text text-anchor="middle" x="228" y="-56.5" font-family="Helvetica,sans-Serif" font-size="10.00">::test_gaussianNoiseTolerance</text>
</a>
</g>
</g>
<!-- Node2&#45;&gt;Node3 -->
<g id="edge2" class="edge">
<title>Node2&#45;&gt;Node3</title>
<path fill="none" stroke="midnightblue" d="M335.82,-64.5C327.23,-64.5 318.54,-64.5 310.03,-64.5"/>
<polygon fill="midnightblue" stroke="midnightblue" points="335.86,-68 345.86,-64.5 335.86,-61 335.86,-68"/>
</g>
<!-- Node4 -->
<g id="node4" class="node">
<title>Node4</title>
<g id="a_node4"><a xlink:href="classkazoo_1_1ModelTester.html#a7e596cfc6087c50c134a30707a33d6dc" target="_top" xlink:title=" ">
<polygon fill="none" stroke="black" points="0,-24.5 0,-54.5 110,-54.5 110,-24.5 0,-24.5"/>
<text text-anchor="start" x="8" y="-42.5" font-family="Helvetica,sans-Serif" font-size="10.00">kazoo::ModelTester</text>
<text text-anchor="middle" x="55" y="-31.5" font-family="Helvetica,sans-Serif" font-size="10.00">::runAllTests</text>
</a>
</g>
</g>
<!-- Node3&#45;&gt;Node4 -->
<g id="edge3" class="edge">
<title>Node3&#45;&gt;Node4</title>
<path fill="none" stroke="midnightblue" d="M135.85,-51.17C127.1,-49.89 118.42,-48.63 110.19,-47.42"/>
<polygon fill="midnightblue" stroke="midnightblue" points="135.36,-54.64 145.76,-52.62 136.37,-47.71 135.36,-54.64"/>
</g>
<!-- Node5&#45;&gt;Node4 -->
<g id="edge5" class="edge">
<title>Node5&#45;&gt;Node4</title>
<path fill="none" stroke="midnightblue" d="M145.84,-26.89C133.73,-28.59 121.5,-30.31 110.12,-31.9"/>
<polygon fill="midnightblue" stroke="midnightblue" points="146.55,-30.33 155.97,-25.47 145.58,-23.39 146.55,-30.33"/>
</g>
</g>
</svg>
