<?xml version="1.0" encoding="UTF-8" standalone="no"?>
<!DOCTYPE svg PUBLIC "-//W3C//DTD SVG 1.1//EN"
 "http://www.w3.org/Graphics/SVG/1.1/DTD/svg11.dtd">
<!-- Generated by graphviz version 2.43.0 (0)
 -->
<!-- Title: kazoo::model::K1Model::Model::decodeAudioToSymbols Pages: 1 -->
<svg width="545pt" height="231pt"
 viewBox="0.00 0.00 545.00 231.00" xmlns="http://www.w3.org/2000/svg" xmlns:xlink="http://www.w3.org/1999/xlink">
<g id="graph0" class="graph" transform="scale(1 1) rotate(0) translate(4 227)">
<title>kazoo::model::K1Model::Model::decodeAudioToSymbols</title>
<!-- Node1 -->
<g id="node1" class="node">
<title>Node1</title>
<g id="a_node1"><a xlink:title=" ">
<polygon fill="#bfbfbf" stroke="black" points="0,-99.5 0,-129.5 174,-129.5 174,-99.5 0,-99.5"/>
<text text-anchor="start" x="8" y="-117.5" font-family="Helvetica,sans-Serif" font-size="10.00">kazoo::model::K1Model</text>
<text text-anchor="middle" x="87" y="-106.5" font-family="Helvetica,sans-Serif" font-size="10.00">::Model::decodeAudioToSymbols</text>
</a>
</g>
</g>
<!-- Node2 -->
<g id="node2" class="node">
<title>Node2</title>
<g id="a_node2"><a xlink:href="classkazoo_1_1ISymbolStream.html#a84d57e49235049ea033140d351aeb2cb" target="_top" xlink:title=" ">
<polygon fill="none" stroke="black" points="233,-192.5 233,-222.5 359,-222.5 359,-192.5 233,-192.5"/>
<text text-anchor="start" x="241" y="-210.5" font-family="Helvetica,sans-Serif" font-size="10.00">kazoo::ISymbolStream</text>
<text text-anchor="middle" x="296" y="-199.5" font-family="Helvetica,sans-Serif" font-size="10.00">::addSymbolId</text>
</a>
</g>
</g>
<!-- Node1&#45;&gt;Node2 -->
<g id="edge1" class="edge">
<title>Node1&#45;&gt;Node2</title>
<path fill="none" stroke="midnightblue" d="M111.51,-129.68C135.51,-144.68 174.22,-167.49 210,-182.5 215.68,-184.88 221.66,-187.13 227.71,-189.23"/>
<polygon fill="midnightblue" stroke="midnightblue" points="226.65,-192.56 237.24,-192.4 228.86,-185.92 226.65,-192.56"/>
</g>
<!-- Node3 -->
<g id="node3" class="node">
<title>Node3</title>
<g id="a_node3"><a xlink:href="namespacekazoo_1_1model.html#a0b04cec946880b246a6acda3e884f747" target="_top" xlink:title=" ">
<polygon fill="none" stroke="black" points="226,-154 226,-173 366,-173 366,-154 226,-154"/>
<text text-anchor="middle" x="296" y="-161" font-family="Helvetica,sans-Serif" font-size="10.00">kazoo::model::debugPrint</text>
</a>
</g>
</g>
<!-- Node1&#45;&gt;Node3 -->
<g id="edge2" class="edge">
<title>Node1&#45;&gt;Node3</title>
<path fill="none" stroke="midnightblue" d="M148.13,-129.55C167.83,-134.41 189.83,-139.77 210,-144.5 220.15,-146.88 231,-149.36 241.44,-151.71"/>
<polygon fill="midnightblue" stroke="midnightblue" points="240.76,-155.14 251.28,-153.91 242.29,-148.31 240.76,-155.14"/>
</g>
<!-- Node4 -->
<g id="node4" class="node">
<title>Node4</title>
<g id="a_node4"><a xlink:href="classkazoo_1_1model_1_1K1Model_1_1Model.html#ad8fd4af849fd660d2b2b85c1d122a921" target="_top" xlink:title=" ">
<polygon fill="none" stroke="black" points="214,-94 214,-135 378,-135 378,-94 214,-94"/>
<text text-anchor="start" x="222" y="-123" font-family="Helvetica,sans-Serif" font-size="10.00">kazoo::model::K1Model</text>
<text text-anchor="start" x="222" y="-112" font-family="Helvetica,sans-Serif" font-size="10.00">::Model::detectSymbolFromFft</text>
<text text-anchor="middle" x="296" y="-101" font-family="Helvetica,sans-Serif" font-size="10.00">Results</text>
</a>
</g>
</g>
<!-- Node1&#45;&gt;Node4 -->
<g id="edge3" class="edge">
<title>Node1&#45;&gt;Node4</title>
<path fill="none" stroke="midnightblue" d="M174.29,-114.5C184,-114.5 193.93,-114.5 203.7,-114.5"/>
<polygon fill="midnightblue" stroke="midnightblue" points="203.82,-118 213.82,-114.5 203.82,-111 203.82,-118"/>
</g>
<!-- Node5 -->
<g id="node5" class="node">
<title>Node5</title>
<g id="a_node5"><a xlink:href="classkazoo_1_1IAudioChannel.html#a4cb9127060966e0e53bd6782b9f3413d" target="_top" xlink:title=" ">
<polygon fill="none" stroke="black" points="235,-44.5 235,-74.5 357,-74.5 357,-44.5 235,-44.5"/>
<text text-anchor="start" x="243" y="-62.5" font-family="Helvetica,sans-Serif" font-size="10.00">kazoo::IAudioChannel</text>
<text text-anchor="middle" x="296" y="-51.5" font-family="Helvetica,sans-Serif" font-size="10.00">::getSamplesRef</text>
</a>
</g>
</g>
<!-- Node1&#45;&gt;Node5 -->
<g id="edge4" class="edge">
<title>Node1&#45;&gt;Node5</title>
<path fill="none" stroke="midnightblue" d="M144.56,-99.47C170.58,-92.56 201.61,-84.31 228.71,-77.11"/>
<polygon fill="midnightblue" stroke="midnightblue" points="229.74,-80.46 238.5,-74.51 227.94,-73.7 229.74,-80.46"/>
</g>
<!-- Node6 -->
<g id="node6" class="node">
<title>Node6</title>
<g id="a_node6"><a xlink:href="classkazoo_1_1Fft.html#a8163205fa6b54e9c6e24022c5180baae" target="_top" xlink:title=" ">
<polygon fill="none" stroke="black" points="210,-6 210,-25 382,-25 382,-6 210,-6"/>
<text text-anchor="middle" x="296" y="-13" font-family="Helvetica,sans-Serif" font-size="10.00">kazoo::Fft::performFftFrequency</text>
</a>
</g>
</g>
<!-- Node1&#45;&gt;Node6 -->
<g id="edge5" class="edge">
<title>Node1&#45;&gt;Node6</title>
<path fill="none" stroke="midnightblue" d="M106.69,-99.44C129.69,-81.64 170.54,-52.32 210,-35.5 217.06,-32.49 224.65,-29.89 232.29,-27.65"/>
<polygon fill="midnightblue" stroke="midnightblue" points="233.23,-31.03 241.95,-25.01 231.38,-24.27 233.23,-31.03"/>
</g>
<!-- Node7 -->
<g id="node7" class="node">
<title>Node7</title>
<g id="a_node7"><a xlink:href="structkazoo_1_1Fft_1_1FftResults.html#a3af2ef110332f3a5f0b38b8cd4e16019" target="_top" xlink:title=" ">
<polygon fill="none" stroke="black" points="418,-0.5 418,-30.5 537,-30.5 537,-0.5 418,-0.5"/>
<text text-anchor="start" x="426" y="-18.5" font-family="Helvetica,sans-Serif" font-size="10.00">kazoo::Fft::FftResults</text>
<text text-anchor="middle" x="477.5" y="-7.5" font-family="Helvetica,sans-Serif" font-size="10.00">::reset</text>
</a>
</g>
</g>
<!-- Node6&#45;&gt;Node7 -->
<g id="edge6" class="edge">
<title>Node6&#45;&gt;Node7</title>
<path fill="none" stroke="midnightblue" d="M382.02,-15.5C390.65,-15.5 399.34,-15.5 407.77,-15.5"/>
<polygon fill="midnightblue" stroke="midnightblue" points="407.9,-19 417.9,-15.5 407.9,-12 407.9,-19"/>
</g>
</g>
</svg>
