<?xml version="1.0" encoding="UTF-8" standalone="no"?>
<!DOCTYPE svg PUBLIC "-//W3C//DTD SVG 1.1//EN"
 "http://www.w3.org/Graphics/SVG/1.1/DTD/svg11.dtd">
<!-- Generated by graphviz version 2.43.0 (0)
 -->
<!-- Title: kazoo::WavFile::getDurationSeconds Pages: 1 -->
<svg width="427pt" height="61pt"
 viewBox="0.00 0.00 427.00 61.00" xmlns="http://www.w3.org/2000/svg" xmlns:xlink="http://www.w3.org/1999/xlink">
<g id="graph0" class="graph" transform="scale(1 1) rotate(0) translate(4 57)">
<title>kazoo::WavFile::getDurationSeconds</title>
<!-- Node1 -->
<g id="node1" class="node">
<title>Node1</title>
<g id="a_node1"><a xlink:title=" ">
<polygon fill="#bfbfbf" stroke="black" points="266,-0.5 266,-30.5 419,-30.5 419,-0.5 266,-0.5"/>
<text text-anchor="start" x="274" y="-18.5" font-family="Helvetica,sans-Serif" font-size="10.00">kazoo::WavFile::getDuration</text>
<text text-anchor="middle" x="342.5" y="-7.5" font-family="Helvetica,sans-Serif" font-size="10.00">Seconds</text>
</a>
</g>
</g>
<!-- Node2 -->
<g id="node2" class="node">
<title>Node2</title>
<g id="a_node2"><a xlink:href="classkazoo_1_1WavFile.html#a7f895eeb010bb773aa034b343cb13f0e" target="_top" xlink:title=" ">
<polygon fill="none" stroke="black" points="77,-22.5 77,-52.5 230,-52.5 230,-22.5 77,-22.5"/>
<text text-anchor="start" x="85" y="-40.5" font-family="Helvetica,sans-Serif" font-size="10.00">kazoo::WavFile::getDuration</text>
<text text-anchor="middle" x="153.5" y="-29.5" font-family="Helvetica,sans-Serif" font-size="10.00">Milliseconds</text>
</a>
</g>
</g>
<!-- Node1&#45;&gt;Node2 -->
<g id="edge1" class="edge">
<title>Node1&#45;&gt;Node2</title>
<path fill="none" stroke="midnightblue" d="M255.98,-25.56C247.42,-26.57 238.76,-27.59 230.3,-28.58"/>
<polygon fill="midnightblue" stroke="midnightblue" points="256.46,-29.03 265.98,-24.38 255.64,-22.08 256.46,-29.03"/>
</g>
<!-- Node3 -->
<g id="node3" class="node">
<title>Node3</title>
<g id="a_node3"><a xlink:href="wav__file_8test_8cpp.html#a99fc4009d825617d685169fe1aaa70f6" target="_top" xlink:title=" ">
<polygon fill="none" stroke="black" points="0,-6 0,-25 41,-25 41,-6 0,-6"/>
<text text-anchor="middle" x="20.5" y="-13" font-family="Helvetica,sans-Serif" font-size="10.00">TEST</text>
</a>
</g>
</g>
<!-- Node1&#45;&gt;Node3 -->
<g id="edge3" class="edge">
<title>Node1&#45;&gt;Node3</title>
<path fill="none" stroke="midnightblue" d="M255.82,-13.74C204.04,-12.96 136.72,-12.42 77,-13.5 65.05,-13.72 51.65,-14.19 41.02,-14.62"/>
<polygon fill="midnightblue" stroke="midnightblue" points="255.91,-17.25 265.96,-13.9 256.02,-10.25 255.91,-17.25"/>
</g>
<!-- Node2&#45;&gt;Node3 -->
<g id="edge2" class="edge">
<title>Node2&#45;&gt;Node3</title>
<path fill="none" stroke="midnightblue" d="M66.67,-23.09C57.26,-21.5 48.46,-20.03 41.18,-18.8"/>
<polygon fill="midnightblue" stroke="midnightblue" points="66.23,-26.56 76.68,-24.77 67.39,-19.66 66.23,-26.56"/>
</g>
</g>
</svg>
