<?xml version="1.0" encoding="UTF-8" standalone="no"?>
<!DOCTYPE svg PUBLIC "-//W3C//DTD SVG 1.1//EN"
 "http://www.w3.org/Graphics/SVG/1.1/DTD/svg11.dtd">
<!-- Generated by graphviz version 2.43.0 (0)
 -->
<!-- Title: kazoo::WavFile::read Pages: 1 -->
<svg width="292pt" height="116pt"
 viewBox="0.00 0.00 292.00 115.50" xmlns="http://www.w3.org/2000/svg" xmlns:xlink="http://www.w3.org/1999/xlink">
<g id="graph0" class="graph" transform="scale(1 1) rotate(0) translate(4 111.5)">
<title>kazoo::WavFile::read</title>
<!-- Node1 -->
<g id="node1" class="node">
<title>Node1</title>
<g id="a_node1"><a xlink:title="Read a WAV file from disk. Clears the current audio sample buffer.">
<polygon fill="#bfbfbf" stroke="black" points="167,-38.5 167,-57.5 284,-57.5 284,-38.5 167,-38.5"/>
<text text-anchor="middle" x="225.5" y="-45.5" font-family="Helvetica,sans-Serif" font-size="10.00">kazoo::WavFile::read</text>
</a>
</g>
</g>
<!-- Node2 -->
<g id="node2" class="node">
<title>Node2</title>
<g id="a_node2"><a xlink:href="classkazoo_1_1TranslationLayer.html#a76f09d5f7213679a6656aa9473f8f2ab" target="_top" xlink:title=" ">
<polygon fill="none" stroke="black" points="0,-77 0,-107 131,-107 131,-77 0,-77"/>
<text text-anchor="start" x="8" y="-95" font-family="Helvetica,sans-Serif" font-size="10.00">kazoo::TranslationLayer</text>
<text text-anchor="middle" x="65.5" y="-84" font-family="Helvetica,sans-Serif" font-size="10.00">::loadAndDecodeWav</text>
</a>
</g>
</g>
<!-- Node1&#45;&gt;Node2 -->
<g id="edge1" class="edge">
<title>Node1&#45;&gt;Node2</title>
<path fill="none" stroke="midnightblue" d="M180.55,-60.24C161.97,-65.41 140.15,-71.49 120.6,-76.93"/>
<polygon fill="midnightblue" stroke="midnightblue" points="181.52,-63.6 190.22,-57.55 179.64,-56.86 181.52,-63.6"/>
</g>
<!-- Node3 -->
<g id="node3" class="node">
<title>Node3</title>
<g id="a_node3"><a xlink:href="fft_8test_8cpp.html#a092f9462fa3635bd44c786bd4f94ffc8" target="_top" xlink:title=" ">
<polygon fill="none" stroke="black" points="45,-38.5 45,-57.5 86,-57.5 86,-38.5 45,-38.5"/>
<text text-anchor="middle" x="65.5" y="-45.5" font-family="Helvetica,sans-Serif" font-size="10.00">TEST</text>
</a>
</g>
</g>
<!-- Node1&#45;&gt;Node3 -->
<g id="edge2" class="edge">
<title>Node1&#45;&gt;Node3</title>
<path fill="none" stroke="midnightblue" d="M156.52,-48C131.04,-48 103.99,-48 86.27,-48"/>
<polygon fill="midnightblue" stroke="midnightblue" points="156.56,-51.5 166.56,-48 156.56,-44.5 156.56,-51.5"/>
</g>
<!-- Node4 -->
<g id="node4" class="node">
<title>Node4</title>
<g id="a_node4"><a xlink:href="k1__model_8test_8cpp.html#a7afde82f3b7a3b8a1d5c2175d4d2b323" target="_top" xlink:title=" ">
<polygon fill="none" stroke="black" points="39.5,-0.5 39.5,-19.5 91.5,-19.5 91.5,-0.5 39.5,-0.5"/>
<text text-anchor="middle" x="65.5" y="-7.5" font-family="Helvetica,sans-Serif" font-size="10.00">TEST_F</text>
</a>
</g>
</g>
<!-- Node1&#45;&gt;Node4 -->
<g id="edge3" class="edge">
<title>Node1&#45;&gt;Node4</title>
<path fill="none" stroke="midnightblue" d="M174.72,-36.03C147.05,-29.37 113.81,-21.38 91.54,-16.02"/>
<polygon fill="midnightblue" stroke="midnightblue" points="174.09,-39.48 184.63,-38.41 175.73,-32.67 174.09,-39.48"/>
</g>
</g>
</svg>
