<?xml version="1.0" encoding="UTF-8" standalone="no"?>
<!DOCTYPE svg PUBLIC "-//W3C//DTD SVG 1.1//EN"
 "http://www.w3.org/Graphics/SVG/1.1/DTD/svg11.dtd">
<!-- Generated by graphviz version 2.43.0 (0)
 -->
<!-- Title: kazoo::model::K3ReasonableModel Pages: 1 -->
<svg width="456pt" height="248pt"
 viewBox="0.00 0.00 455.50 248.00" xmlns="http://www.w3.org/2000/svg" xmlns:xlink="http://www.w3.org/1999/xlink">
<g id="graph0" class="graph" transform="scale(1 1) rotate(0) translate(4 244)">
<title>kazoo::model::K3ReasonableModel</title>
<!-- Node1 -->
<g id="node1" class="node">
<title>Node1</title>
<g id="a_node1"><a xlink:title=" ">
<polygon fill="#bfbfbf" stroke="black" points="120.5,-0.5 120.5,-68.5 278.5,-68.5 278.5,-0.5 120.5,-0.5"/>
<text text-anchor="start" x="128.5" y="-56.5" font-family="Helvetica,sans-Serif" font-size="10.00">kazoo::model::K3Reasonable</text>
<text text-anchor="middle" x="199.5" y="-45.5" font-family="Helvetica,sans-Serif" font-size="10.00">Model</text>
<polyline fill="none" stroke="black" points="120.5,-38.5 278.5,-38.5 "/>
<text text-anchor="middle" x="199.5" y="-26.5" font-family="Helvetica,sans-Serif" font-size="10.00"> </text>
<polyline fill="none" stroke="black" points="120.5,-19.5 278.5,-19.5 "/>
<text text-anchor="middle" x="199.5" y="-7.5" font-family="Helvetica,sans-Serif" font-size="10.00"> </text>
</a>
</g>
</g>
<!-- Node2 -->
<g id="node2" class="node">
<title>Node2</title>
<g id="a_node2"><a xlink:title=" ">
<polygon fill="none" stroke="black" points="0,-177 0,-234 45,-234 45,-177 0,-177"/>
<text text-anchor="middle" x="22.5" y="-222" font-family="Helvetica,sans-Serif" font-size="10.00">size_t</text>
<polyline fill="none" stroke="black" points="0,-215 45,-215 "/>
<text text-anchor="middle" x="22.5" y="-203" font-family="Helvetica,sans-Serif" font-size="10.00"> </text>
<polyline fill="none" stroke="black" points="0,-196 45,-196 "/>
<text text-anchor="middle" x="22.5" y="-184" font-family="Helvetica,sans-Serif" font-size="10.00"> </text>
</a>
</g>
</g>
<!-- Node2&#45;&gt;Node1 -->
<g id="edge1" class="edge">
<title>Node2&#45;&gt;Node1</title>
<path fill="none" stroke="#404040" d="M19.39,-176.93C18.01,-150.75 20.27,-111.8 41.5,-87 58.59,-67.04 83.52,-54.76 108.54,-47.23"/>
<polygon fill="none" stroke="#404040" points="108.83,-47.15 113.57,-41.71 120.41,-44 115.67,-49.43 108.83,-47.15"/>
<text text-anchor="middle" x="118.5" y="-134" font-family="Helvetica,sans-Serif" font-size="10.00"> +SAMPLES_PER_SYMBOL</text>
<text text-anchor="middle" x="118.5" y="-123" font-family="Helvetica,sans-Serif" font-size="10.00">+SYMBOL_BIT_WIDTH</text>
<text text-anchor="middle" x="118.5" y="-112" font-family="Helvetica,sans-Serif" font-size="10.00">&#45;NUM_PEAKS_OF_INTEREST</text>
<text text-anchor="middle" x="118.5" y="-101" font-family="Helvetica,sans-Serif" font-size="10.00">&#45;NUM_PEAK_FREQS_TO_CHECK</text>
</g>
<!-- Node3 -->
<g id="node3" class="node">
<title>Node3</title>
<g id="a_node3"><a xlink:title=" ">
<polygon fill="none" stroke="black" points="174.5,-177 174.5,-234 224.5,-234 224.5,-177 174.5,-177"/>
<text text-anchor="middle" x="199.5" y="-222" font-family="Helvetica,sans-Serif" font-size="10.00">double</text>
<polyline fill="none" stroke="black" points="174.5,-215 224.5,-215 "/>
<text text-anchor="middle" x="199.5" y="-203" font-family="Helvetica,sans-Serif" font-size="10.00"> </text>
<polyline fill="none" stroke="black" points="174.5,-196 224.5,-196 "/>
<text text-anchor="middle" x="199.5" y="-184" font-family="Helvetica,sans-Serif" font-size="10.00"> </text>
</a>
</g>
</g>
<!-- Node3&#45;&gt;Node1 -->
<g id="edge2" class="edge">
<title>Node3&#45;&gt;Node1</title>
<path fill="none" stroke="#404040" d="M199.5,-176.97C199.5,-150.91 199.5,-111.32 199.5,-80.64"/>
<polygon fill="none" stroke="#404040" points="199.5,-80.53 195.5,-74.53 199.5,-68.53 203.5,-74.53 199.5,-80.53"/>
<text text-anchor="middle" x="255.5" y="-145" font-family="Helvetica,sans-Serif" font-size="10.00"> &#45;MAX_FREQ_CUT_OFF</text>
<text text-anchor="start" x="199.5" y="-134" font-family="Helvetica,sans-Serif" font-size="10.00">&#45;MIN_AMPLITUDE_CUT</text>
<text text-anchor="middle" x="255.5" y="-123" font-family="Helvetica,sans-Serif" font-size="10.00">_OFF_PARAMETER</text>
<text text-anchor="middle" x="255.5" y="-112" font-family="Helvetica,sans-Serif" font-size="10.00">&#45;MIN_FREQ_CUT_OFF</text>
<text text-anchor="start" x="199.5" y="-101" font-family="Helvetica,sans-Serif" font-size="10.00">&#45;PEAK_OF_INTEREST</text>
<text text-anchor="middle" x="255.5" y="-90" font-family="Helvetica,sans-Serif" font-size="10.00">_ENVELOPE_HZ</text>
</g>
<!-- Node4 -->
<g id="node4" class="node">
<title>Node4</title>
<g id="a_node4"><a xlink:title=" ">
<polygon fill="none" stroke="black" points="266.5,-171.5 266.5,-239.5 402.5,-239.5 402.5,-171.5 266.5,-171.5"/>
<text text-anchor="start" x="274.5" y="-227.5" font-family="Helvetica,sans-Serif" font-size="10.00">array&lt; double, NUM</text>
<text text-anchor="middle" x="334.5" y="-216.5" font-family="Helvetica,sans-Serif" font-size="10.00">_PEAKS_OF_INTEREST &gt;</text>
<polyline fill="none" stroke="black" points="266.5,-209.5 402.5,-209.5 "/>
<text text-anchor="middle" x="334.5" y="-197.5" font-family="Helvetica,sans-Serif" font-size="10.00"> </text>
<polyline fill="none" stroke="black" points="266.5,-190.5 402.5,-190.5 "/>
<text text-anchor="middle" x="334.5" y="-178.5" font-family="Helvetica,sans-Serif" font-size="10.00"> </text>
</a>
</g>
</g>
<!-- Node4&#45;&gt;Node1 -->
<g id="edge3" class="edge">
<title>Node4&#45;&gt;Node1</title>
<path fill="none" stroke="#404040" d="M336.15,-171.28C335.71,-145.72 331.18,-110.86 312.5,-87 306.03,-78.74 297.94,-71.75 289.07,-65.86"/>
<polygon fill="none" stroke="#404040" points="289.05,-65.85 281.85,-66.19 278.77,-59.66 285.98,-59.33 289.05,-65.85"/>
<text text-anchor="start" x="334.5" y="-134" font-family="Helvetica,sans-Serif" font-size="10.00"> &#45;SYM_A_00_PEAKS_OF</text>
<text text-anchor="middle" x="391" y="-123" font-family="Helvetica,sans-Serif" font-size="10.00">_INTEREST</text>
<text text-anchor="start" x="334.5" y="-112" font-family="Helvetica,sans-Serif" font-size="10.00">&#45;SYM_D_01_PEAKS_OF</text>
<text text-anchor="middle" x="391" y="-101" font-family="Helvetica,sans-Serif" font-size="10.00">_INTEREST</text>
</g>
</g>
</svg>
