<?xml version="1.0" encoding="UTF-8" standalone="no"?>
<!DOCTYPE svg PUBLIC "-//W3C//DTD SVG 1.1//EN"
 "http://www.w3.org/Graphics/SVG/1.1/DTD/svg11.dtd">
<!-- Generated by graphviz version 2.43.0 (0)
 -->
<!-- Title: kazoo::Encoder&lt; Token_t &gt; Pages: 1 -->
<svg width="500pt" height="397pt"
 viewBox="0.00 0.00 499.50 397.00" xmlns="http://www.w3.org/2000/svg" xmlns:xlink="http://www.w3.org/1999/xlink">
<g id="graph0" class="graph" transform="scale(1 1) rotate(0) translate(4 393)">
<title>kazoo::Encoder&lt; Token_t &gt;</title>
<!-- Node1 -->
<g id="node1" class="node">
<title>Node1</title>
<g id="a_node1"><a xlink:title=" ">
<polygon fill="#bfbfbf" stroke="black" points="161,-0.5 161,-101.5 319,-101.5 319,-0.5 161,-0.5"/>
<text text-anchor="middle" x="240" y="-89.5" font-family="Helvetica,sans-Serif" font-size="10.00">kazoo::Encoder&lt; Token_t &gt;</text>
<polyline fill="none" stroke="black" points="161,-82.5 319,-82.5 "/>
<text text-anchor="middle" x="240" y="-70.5" font-family="Helvetica,sans-Serif" font-size="10.00"> </text>
<polyline fill="none" stroke="black" points="161,-63.5 319,-63.5 "/>
<text text-anchor="start" x="169" y="-51.5" font-family="Helvetica,sans-Serif" font-size="10.00">+ Encoder()</text>
<text text-anchor="start" x="169" y="-40.5" font-family="Helvetica,sans-Serif" font-size="10.00">+ clear()</text>
<text text-anchor="start" x="169" y="-29.5" font-family="Helvetica,sans-Serif" font-size="10.00">+ encodeAvailableSymbols()</text>
<text text-anchor="start" x="169" y="-18.5" font-family="Helvetica,sans-Serif" font-size="10.00">&#45; encodePreamble()</text>
<text text-anchor="start" x="169" y="-7.5" font-family="Helvetica,sans-Serif" font-size="10.00">&#45; encodeTail()</text>
</a>
</g>
</g>
<!-- Node2 -->
<g id="node2" class="node">
<title>Node2</title>
<g id="a_node2"><a xlink:href="classkazoo_1_1IEncoder.html" target="_top" xlink:title=" ">
<polygon fill="none" stroke="black" points="0,-177 0,-256 158,-256 158,-177 0,-177"/>
<text text-anchor="middle" x="79" y="-244" font-family="Helvetica,sans-Serif" font-size="10.00">kazoo::IEncoder</text>
<polyline fill="none" stroke="black" points="0,-237 158,-237 "/>
<text text-anchor="middle" x="79" y="-225" font-family="Helvetica,sans-Serif" font-size="10.00"> </text>
<polyline fill="none" stroke="black" points="0,-218 158,-218 "/>
<text text-anchor="start" x="8" y="-206" font-family="Helvetica,sans-Serif" font-size="10.00">+ ~IEncoder()</text>
<text text-anchor="start" x="8" y="-195" font-family="Helvetica,sans-Serif" font-size="10.00">+ clear()</text>
<text text-anchor="start" x="8" y="-184" font-family="Helvetica,sans-Serif" font-size="10.00">+ encodeAvailableSymbols()</text>
</a>
</g>
</g>
<!-- Node2&#45;&gt;Node1 -->
<g id="edge1" class="edge">
<title>Node2&#45;&gt;Node1</title>
<path fill="none" stroke="midnightblue" d="M124.34,-169.45C145.16,-148.31 169.89,-123.2 191.12,-101.63"/>
<polygon fill="none" stroke="midnightblue" points="121.68,-167.17 117.15,-176.75 126.67,-172.08 121.68,-167.17"/>
</g>
<!-- Node3 -->
<g id="node3" class="node">
<title>Node3</title>
<g id="a_node3"><a xlink:href="namespacekazoo.html#structkazoo_1_1EncoderContext" target="_top" xlink:title="Encoder context, used to store state information be.">
<polygon fill="none" stroke="black" points="176,-188 176,-245 304,-245 304,-188 176,-188"/>
<text text-anchor="middle" x="240" y="-233" font-family="Helvetica,sans-Serif" font-size="10.00">kazoo::EncoderContext</text>
<polyline fill="none" stroke="black" points="176,-226 304,-226 "/>
<text text-anchor="middle" x="240" y="-214" font-family="Helvetica,sans-Serif" font-size="10.00"> </text>
<polyline fill="none" stroke="black" points="176,-207 304,-207 "/>
<text text-anchor="middle" x="240" y="-195" font-family="Helvetica,sans-Serif" font-size="10.00"> </text>
</a>
</g>
</g>
<!-- Node3&#45;&gt;Node1 -->
<g id="edge2" class="edge">
<title>Node3&#45;&gt;Node1</title>
<path fill="none" stroke="#404040" d="M240,-187.76C240,-167.56 240,-139.4 240,-113.96"/>
<polygon fill="none" stroke="#404040" points="240,-113.73 236,-107.73 240,-101.73 244,-107.73 240,-113.73"/>
<text text-anchor="middle" x="264.5" y="-123" font-family="Helvetica,sans-Serif" font-size="10.00"> &#45;context_</text>
</g>
<!-- Node4 -->
<g id="node4" class="node">
<title>Node4</title>
<g id="a_node4"><a xlink:title=" ">
<polygon fill="none" stroke="black" points="163,-331.5 163,-388.5 213,-388.5 213,-331.5 163,-331.5"/>
<text text-anchor="middle" x="188" y="-376.5" font-family="Helvetica,sans-Serif" font-size="10.00">double</text>
<polyline fill="none" stroke="black" points="163,-369.5 213,-369.5 "/>
<text text-anchor="middle" x="188" y="-357.5" font-family="Helvetica,sans-Serif" font-size="10.00"> </text>
<polyline fill="none" stroke="black" points="163,-350.5 213,-350.5 "/>
<text text-anchor="middle" x="188" y="-338.5" font-family="Helvetica,sans-Serif" font-size="10.00"> </text>
</a>
</g>
</g>
<!-- Node4&#45;&gt;Node3 -->
<g id="edge3" class="edge">
<title>Node4&#45;&gt;Node3</title>
<path fill="none" stroke="#404040" d="M191.21,-331.35C192.74,-321.9 194.93,-311.35 198,-302 203.12,-286.4 210.67,-270.07 217.96,-255.96"/>
<polygon fill="none" stroke="#404040" points="218.06,-255.78 217.35,-248.6 223.7,-245.19 224.41,-252.36 218.06,-255.78"/>
<text text-anchor="middle" x="233" y="-305" font-family="Helvetica,sans-Serif" font-size="10.00"> +wave_angle</text>
</g>
<!-- Node5 -->
<g id="node5" class="node">
<title>Node5</title>
<g id="a_node5"><a xlink:title=" ">
<polygon fill="none" stroke="black" points="231.5,-331.5 231.5,-388.5 350.5,-388.5 350.5,-331.5 231.5,-331.5"/>
<text text-anchor="middle" x="291" y="-376.5" font-family="Helvetica,sans-Serif" font-size="10.00">optional&lt; uint32_t &gt;</text>
<polyline fill="none" stroke="black" points="231.5,-369.5 350.5,-369.5 "/>
<text text-anchor="middle" x="291" y="-357.5" font-family="Helvetica,sans-Serif" font-size="10.00"> </text>
<polyline fill="none" stroke="black" points="231.5,-350.5 350.5,-350.5 "/>
<text text-anchor="middle" x="291" y="-338.5" font-family="Helvetica,sans-Serif" font-size="10.00"> </text>
</a>
</g>
</g>
<!-- Node5&#45;&gt;Node3 -->
<g id="edge4" class="edge">
<title>Node5&#45;&gt;Node3</title>
<path fill="none" stroke="#404040" d="M281.05,-331.38C273.36,-310.05 262.62,-280.27 254.06,-256.51"/>
<polygon fill="none" stroke="#404040" points="254,-256.34 248.2,-252.05 249.93,-245.05 255.73,-249.34 254,-256.34"/>
<text text-anchor="middle" x="345" y="-305" font-family="Helvetica,sans-Serif" font-size="10.00"> +previous_symbol_token_id</text>
</g>
<!-- Node6 -->
<g id="node6" class="node">
<title>Node6</title>
<g id="a_node6"><a xlink:href="classkazoo_1_1ISymbolModel.html" target="_top" xlink:title=" ">
<polygon fill="none" stroke="black" points="322.5,-149.5 322.5,-283.5 491.5,-283.5 491.5,-149.5 322.5,-149.5"/>
<text text-anchor="middle" x="407" y="-271.5" font-family="Helvetica,sans-Serif" font-size="10.00">kazoo::ISymbolModel</text>
<polyline fill="none" stroke="black" points="322.5,-264.5 491.5,-264.5 "/>
<text text-anchor="middle" x="407" y="-252.5" font-family="Helvetica,sans-Serif" font-size="10.00"> </text>
<polyline fill="none" stroke="black" points="322.5,-245.5 491.5,-245.5 "/>
<text text-anchor="start" x="330.5" y="-233.5" font-family="Helvetica,sans-Serif" font-size="10.00">+ ~ISymbolModel()</text>
<text text-anchor="start" x="330.5" y="-222.5" font-family="Helvetica,sans-Serif" font-size="10.00">+ decodeAudioToSymbols()</text>
<text text-anchor="start" x="330.5" y="-211.5" font-family="Helvetica,sans-Serif" font-size="10.00">+ encodeSymbol()</text>
<text text-anchor="start" x="330.5" y="-200.5" font-family="Helvetica,sans-Serif" font-size="10.00">+ getNumSamplesPerSymbol()</text>
<text text-anchor="start" x="330.5" y="-189.5" font-family="Helvetica,sans-Serif" font-size="10.00">+ getSymbolBitMask()</text>
<text text-anchor="start" x="330.5" y="-178.5" font-family="Helvetica,sans-Serif" font-size="10.00">+ getSymbolBitWidth()</text>
<text text-anchor="start" x="330.5" y="-167.5" font-family="Helvetica,sans-Serif" font-size="10.00">+ getSymbolId()</text>
<text text-anchor="start" x="330.5" y="-156.5" font-family="Helvetica,sans-Serif" font-size="10.00">+ getValue()</text>
</a>
</g>
</g>
<!-- Node6&#45;&gt;Node1 -->
<g id="edge5" class="edge">
<title>Node6&#45;&gt;Node1</title>
<path fill="none" stroke="#404040" d="M339.56,-149.47C326.32,-136.51 312.52,-123 299.56,-110.31"/>
<polygon fill="none" stroke="#404040" points="299.31,-110.07 292.23,-108.73 290.74,-101.68 297.83,-103.02 299.31,-110.07"/>
<text text-anchor="middle" x="360.5" y="-123" font-family="Helvetica,sans-Serif" font-size="10.00"> &#45;symbol_model_</text>
</g>
</g>
</svg>
