<?xml version="1.0" encoding="UTF-8" standalone="no"?>
<!DOCTYPE svg PUBLIC "-//W3C//DTD SVG 1.1//EN"
 "http://www.w3.org/Graphics/SVG/1.1/DTD/svg11.dtd">
<!-- Generated by graphviz version 2.43.0 (0)
 -->
<!-- Title: kazoo::Deframer::findFrameEnd Pages: 1 -->
<svg width="964pt" height="135pt"
 viewBox="0.00 0.00 964.00 134.50" xmlns="http://www.w3.org/2000/svg" xmlns:xlink="http://www.w3.org/1999/xlink">
<g id="graph0" class="graph" transform="scale(1 1) rotate(0) translate(4 130.5)">
<title>kazoo::Deframer::findFrameEnd</title>
<!-- Node1 -->
<g id="node1" class="node">
<title>Node1</title>
<g id="a_node1"><a xlink:title=" ">
<polygon fill="#bfbfbf" stroke="black" points="786,-0.5 786,-19.5 956,-19.5 956,-0.5 786,-0.5"/>
<text text-anchor="middle" x="871" y="-7.5" font-family="Helvetica,sans-Serif" font-size="10.00">kazoo::Deframer::findFrameEnd</text>
</a>
</g>
</g>
<!-- Node2 -->
<g id="node2" class="node">
<title>Node2</title>
<g id="a_node2"><a xlink:href="classkazoo_1_1Deframer.html#ad544e3c1a1301cc5ab77389eab411b03" target="_top" xlink:title=" ">
<polygon fill="none" stroke="black" points="574,-19.5 574,-38.5 750,-38.5 750,-19.5 574,-19.5"/>
<text text-anchor="middle" x="662" y="-26.5" font-family="Helvetica,sans-Serif" font-size="10.00">kazoo::Deframer::findFrameData</text>
</a>
</g>
</g>
<!-- Node1&#45;&gt;Node2 -->
<g id="edge1" class="edge">
<title>Node1&#45;&gt;Node2</title>
<path fill="none" stroke="midnightblue" d="M775.82,-18.64C767.27,-19.43 758.63,-20.22 750.15,-21"/>
<polygon fill="midnightblue" stroke="midnightblue" points="776.17,-22.13 785.81,-17.73 775.53,-15.16 776.17,-22.13"/>
</g>
<!-- Node5 -->
<g id="node5" class="node">
<title>Node5</title>
<g id="a_node5"><a xlink:href="classkazoo_1_1Deframer.html#a742de19b3ca490d3faabfcbb64785998" target="_top" xlink:title="Process the input binary stream in a stateful manner to extract frames from sequential stream inputs.">
<polygon fill="none" stroke="black" points="0,-33 0,-63 141,-63 141,-33 0,-33"/>
<text text-anchor="start" x="8" y="-51" font-family="Helvetica,sans-Serif" font-size="10.00">kazoo::Deframer::process</text>
<text text-anchor="middle" x="70.5" y="-40" font-family="Helvetica,sans-Serif" font-size="10.00">Input</text>
</a>
</g>
</g>
<!-- Node1&#45;&gt;Node5 -->
<g id="edge7" class="edge">
<title>Node1&#45;&gt;Node5</title>
<path fill="none" stroke="midnightblue" d="M775.5,-8.43C717.36,-7.85 641.35,-7.8 574,-10 397.27,-15.78 353.12,-20.23 177,-36 165.43,-37.04 153.17,-38.29 141.25,-39.59"/>
<polygon fill="midnightblue" stroke="midnightblue" points="775.73,-11.93 785.77,-8.54 775.81,-4.93 775.73,-11.93"/>
</g>
<!-- Node3 -->
<g id="node3" class="node">
<title>Node3</title>
<g id="a_node3"><a xlink:href="classkazoo_1_1Deframer.html#a79d8b406e773fdc32d7c5002b9e37e2b" target="_top" xlink:title=" ">
<polygon fill="none" stroke="black" points="365,-57.5 365,-76.5 538,-76.5 538,-57.5 365,-57.5"/>
<text text-anchor="middle" x="451.5" y="-64.5" font-family="Helvetica,sans-Serif" font-size="10.00">kazoo::Deframer::findFrameSize</text>
</a>
</g>
</g>
<!-- Node2&#45;&gt;Node3 -->
<g id="edge2" class="edge">
<title>Node2&#45;&gt;Node3</title>
<path fill="none" stroke="midnightblue" d="M598.74,-40.35C568.83,-45.8 533.37,-52.26 504.87,-57.46"/>
<polygon fill="midnightblue" stroke="midnightblue" points="599.45,-43.78 608.66,-38.54 598.19,-36.89 599.45,-43.78"/>
</g>
<!-- Node2&#45;&gt;Node5 -->
<g id="edge6" class="edge">
<title>Node2&#45;&gt;Node5</title>
<path fill="none" stroke="midnightblue" d="M563.5,-32.14C444.43,-35.98 245.99,-42.38 141.22,-45.75"/>
<polygon fill="midnightblue" stroke="midnightblue" points="563.82,-35.63 573.7,-31.81 563.59,-28.64 563.82,-35.63"/>
</g>
<!-- Node4 -->
<g id="node4" class="node">
<title>Node4</title>
<g id="a_node4"><a xlink:href="classkazoo_1_1Deframer.html#a7dc1caffad1ffe4925a3e13d8d125024" target="_top" xlink:title=" ">
<polygon fill="none" stroke="black" points="177,-96 177,-126 329,-126 329,-96 177,-96"/>
<text text-anchor="start" x="185" y="-114" font-family="Helvetica,sans-Serif" font-size="10.00">kazoo::Deframer::findFrame</text>
<text text-anchor="middle" x="253" y="-103" font-family="Helvetica,sans-Serif" font-size="10.00">Start</text>
</a>
</g>
</g>
<!-- Node3&#45;&gt;Node4 -->
<g id="edge3" class="edge">
<title>Node3&#45;&gt;Node4</title>
<path fill="none" stroke="midnightblue" d="M398.06,-78.74C374.49,-84.02 346.38,-90.31 321.28,-95.93"/>
<polygon fill="midnightblue" stroke="midnightblue" points="398.87,-82.15 407.86,-76.55 397.34,-75.32 398.87,-82.15"/>
</g>
<!-- Node3&#45;&gt;Node5 -->
<g id="edge5" class="edge">
<title>Node3&#45;&gt;Node5</title>
<path fill="none" stroke="midnightblue" d="M354.9,-62.21C288.38,-58.87 201.2,-54.5 141.2,-51.49"/>
<polygon fill="midnightblue" stroke="midnightblue" points="354.81,-65.71 364.97,-62.71 355.16,-58.72 354.81,-65.71"/>
</g>
<!-- Node4&#45;&gt;Node5 -->
<g id="edge4" class="edge">
<title>Node4&#45;&gt;Node5</title>
<path fill="none" stroke="midnightblue" d="M199.13,-92.55C172.27,-83.17 140.05,-71.92 114.69,-63.08"/>
<polygon fill="midnightblue" stroke="midnightblue" points="198.17,-95.92 208.77,-95.91 200.48,-89.31 198.17,-95.92"/>
</g>
</g>
</svg>
