<?xml version="1.0" encoding="UTF-8" standalone="no"?>
<!DOCTYPE svg PUBLIC "-//W3C//DTD SVG 1.1//EN"
 "http://www.w3.org/Graphics/SVG/1.1/DTD/svg11.dtd">
<!-- Generated by graphviz version 2.43.0 (0)
 -->
<!-- Title: kazoo::BinaryStream::popBits Pages: 1 -->
<svg width="1281pt" height="242pt"
 viewBox="0.00 0.00 1281.00 241.50" xmlns="http://www.w3.org/2000/svg" xmlns:xlink="http://www.w3.org/1999/xlink">
<g id="graph0" class="graph" transform="scale(1 1) rotate(0) translate(4 237.5)">
<title>kazoo::BinaryStream::popBits</title>
<!-- Node1 -->
<g id="node1" class="node">
<title>Node1</title>
<g id="a_node1"><a xlink:title="Pop bits off the front, effectively the inverse of addBits.">
<polygon fill="#bfbfbf" stroke="black" points="1155,-88 1155,-118 1273,-118 1273,-88 1155,-88"/>
<text text-anchor="start" x="1163" y="-106" font-family="Helvetica,sans-Serif" font-size="10.00">kazoo::BinaryStream</text>
<text text-anchor="middle" x="1214" y="-95" font-family="Helvetica,sans-Serif" font-size="10.00">::popBits</text>
</a>
</g>
</g>
<!-- Node2 -->
<g id="node2" class="node">
<title>Node2</title>
<g id="a_node2"><a xlink:href="classkazoo_1_1Deframer.html#a7dc1caffad1ffe4925a3e13d8d125024" target="_top" xlink:title=" ">
<polygon fill="none" stroke="black" points="177,-203 177,-233 329,-233 329,-203 177,-203"/>
<text text-anchor="start" x="185" y="-221" font-family="Helvetica,sans-Serif" font-size="10.00">kazoo::Deframer::findFrame</text>
<text text-anchor="middle" x="253" y="-210" font-family="Helvetica,sans-Serif" font-size="10.00">Start</text>
</a>
</g>
</g>
<!-- Node1&#45;&gt;Node2 -->
<g id="edge1" class="edge">
<title>Node1&#45;&gt;Node2</title>
<path fill="none" stroke="midnightblue" d="M1177.43,-123.03C1116.76,-155.24 988.52,-215 872,-215 872,-215 872,-215 661,-215 545.11,-215 410.67,-216.23 329.01,-217.12"/>
<polygon fill="midnightblue" stroke="midnightblue" points="1179.42,-125.93 1186.57,-118.1 1176.11,-119.76 1179.42,-125.93"/>
</g>
<!-- Node4 -->
<g id="node4" class="node">
<title>Node4</title>
<g id="a_node4"><a xlink:href="classkazoo_1_1BinaryStream.html#ae77e9324dbd09dd4a02d3504a83ae866" target="_top" xlink:title=" ">
<polygon fill="none" stroke="black" points="996.5,-105 996.5,-135 1114.5,-135 1114.5,-105 996.5,-105"/>
<text text-anchor="start" x="1004.5" y="-123" font-family="Helvetica,sans-Serif" font-size="10.00">kazoo::BinaryStream</text>
<text text-anchor="middle" x="1055.5" y="-112" font-family="Helvetica,sans-Serif" font-size="10.00">::popByte</text>
</a>
</g>
</g>
<!-- Node1&#45;&gt;Node4 -->
<g id="edge3" class="edge">
<title>Node1&#45;&gt;Node4</title>
<path fill="none" stroke="midnightblue" d="M1144.76,-110.41C1134.69,-111.51 1124.4,-112.62 1114.56,-113.69"/>
<polygon fill="midnightblue" stroke="midnightblue" points="1145.16,-113.89 1154.73,-109.33 1144.41,-106.93 1145.16,-113.89"/>
</g>
<!-- Node8 -->
<g id="node8" class="node">
<title>Node8</title>
<g id="a_node8"><a xlink:href="classkazoo_1_1SymbolStream.html#a483b690f6e07727669434375cbb23586" target="_top" xlink:title="Process a binary stream and convert it to symbols, removing the bits from the binary stream.">
<polygon fill="none" stroke="black" points="992,-47 992,-77 1119,-77 1119,-47 992,-47"/>
<text text-anchor="start" x="1000" y="-65" font-family="Helvetica,sans-Serif" font-size="10.00">kazoo::SymbolStream</text>
<text text-anchor="middle" x="1055.5" y="-54" font-family="Helvetica,sans-Serif" font-size="10.00">::processBinaryStream</text>
</a>
</g>
</g>
<!-- Node1&#45;&gt;Node8 -->
<g id="edge13" class="edge">
<title>Node1&#45;&gt;Node8</title>
<path fill="none" stroke="midnightblue" d="M1145.92,-85.43C1135.25,-82.63 1124.3,-79.76 1113.88,-77.03"/>
<polygon fill="midnightblue" stroke="midnightblue" points="1145.05,-88.82 1155.61,-87.97 1146.83,-82.05 1145.05,-88.82"/>
</g>
<!-- Node15 -->
<g id="node15" class="node">
<title>Node15</title>
<g id="a_node15"><a xlink:href="binary__stream_8test_8cpp.html#a4adfd3c5c4d57fd921cc878fe8b146a5" target="_top" xlink:title=" ">
<polygon fill="none" stroke="black" points="1035,-8.5 1035,-27.5 1076,-27.5 1076,-8.5 1035,-8.5"/>
<text text-anchor="middle" x="1055.5" y="-15.5" font-family="Helvetica,sans-Serif" font-size="10.00">TEST</text>
</a>
</g>
</g>
<!-- Node1&#45;&gt;Node15 -->
<g id="edge20" class="edge">
<title>Node1&#45;&gt;Node15</title>
<path fill="none" stroke="midnightblue" d="M1186.72,-81.12C1168.62,-66.94 1143.49,-48.94 1119,-37 1105.34,-30.34 1088.86,-25.45 1076.25,-22.29"/>
<polygon fill="midnightblue" stroke="midnightblue" points="1185.02,-84.24 1195.01,-87.74 1189.38,-78.77 1185.02,-84.24"/>
</g>
<!-- Node3 -->
<g id="node3" class="node">
<title>Node3</title>
<g id="a_node3"><a xlink:href="classkazoo_1_1Deframer.html#a742de19b3ca490d3faabfcbb64785998" target="_top" xlink:title="Process the input binary stream in a stateful manner to extract frames from sequential stream inputs.">
<polygon fill="none" stroke="black" points="0,-140 0,-170 141,-170 141,-140 0,-140"/>
<text text-anchor="start" x="8" y="-158" font-family="Helvetica,sans-Serif" font-size="10.00">kazoo::Deframer::process</text>
<text text-anchor="middle" x="70.5" y="-147" font-family="Helvetica,sans-Serif" font-size="10.00">Input</text>
</a>
</g>
</g>
<!-- Node2&#45;&gt;Node3 -->
<g id="edge2" class="edge">
<title>Node2&#45;&gt;Node3</title>
<path fill="none" stroke="midnightblue" d="M199.13,-199.55C172.27,-190.17 140.05,-178.92 114.69,-170.08"/>
<polygon fill="midnightblue" stroke="midnightblue" points="198.17,-202.92 208.77,-202.91 200.48,-196.31 198.17,-202.92"/>
</g>
<!-- Node5 -->
<g id="node5" class="node">
<title>Node5</title>
<g id="a_node5"><a xlink:href="classkazoo_1_1Deframer.html#ad544e3c1a1301cc5ab77389eab411b03" target="_top" xlink:title=" ">
<polygon fill="none" stroke="black" points="574,-126.5 574,-145.5 750,-145.5 750,-126.5 574,-126.5"/>
<text text-anchor="middle" x="662" y="-133.5" font-family="Helvetica,sans-Serif" font-size="10.00">kazoo::Deframer::findFrameData</text>
</a>
</g>
</g>
<!-- Node4&#45;&gt;Node5 -->
<g id="edge4" class="edge">
<title>Node4&#45;&gt;Node5</title>
<path fill="none" stroke="midnightblue" d="M986.09,-122.8C920.54,-125.47 821.34,-129.53 750.17,-132.44"/>
<polygon fill="midnightblue" stroke="midnightblue" points="986.46,-126.28 996.31,-122.38 986.18,-119.29 986.46,-126.28"/>
</g>
<!-- Node6 -->
<g id="node6" class="node">
<title>Node6</title>
<g id="a_node6"><a xlink:href="classkazoo_1_1Deframer.html#a79d8b406e773fdc32d7c5002b9e37e2b" target="_top" xlink:title=" ">
<polygon fill="none" stroke="black" points="365,-164.5 365,-183.5 538,-183.5 538,-164.5 365,-164.5"/>
<text text-anchor="middle" x="451.5" y="-171.5" font-family="Helvetica,sans-Serif" font-size="10.00">kazoo::Deframer::findFrameSize</text>
</a>
</g>
</g>
<!-- Node4&#45;&gt;Node6 -->
<g id="edge12" class="edge">
<title>Node4&#45;&gt;Node6</title>
<path fill="none" stroke="midnightblue" d="M986.37,-135.84C976.23,-137.81 965.87,-139.62 956,-141 810.25,-161.38 638.96,-169.23 538.42,-172.21"/>
<polygon fill="midnightblue" stroke="midnightblue" points="987.3,-139.22 996.41,-133.82 985.91,-132.36 987.3,-139.22"/>
</g>
<!-- Node7 -->
<g id="node7" class="node">
<title>Node7</title>
<g id="a_node7"><a xlink:href="classkazoo_1_1Deframer.html#ae4c8d8b5f7e2bc50183fc1b758fc21a8" target="_top" xlink:title=" ">
<polygon fill="none" stroke="black" points="786,-88.5 786,-107.5 956,-107.5 956,-88.5 786,-88.5"/>
<text text-anchor="middle" x="871" y="-95.5" font-family="Helvetica,sans-Serif" font-size="10.00">kazoo::Deframer::findFrameEnd</text>
</a>
</g>
</g>
<!-- Node4&#45;&gt;Node7 -->
<g id="edge9" class="edge">
<title>Node4&#45;&gt;Node7</title>
<path fill="none" stroke="midnightblue" d="M986.29,-111.78C974.79,-110.39 962.75,-108.94 951,-107.52"/>
<polygon fill="midnightblue" stroke="midnightblue" points="985.91,-115.26 996.25,-112.98 986.74,-108.31 985.91,-115.26"/>
</g>
<!-- Node5&#45;&gt;Node3 -->
<g id="edge8" class="edge">
<title>Node5&#45;&gt;Node3</title>
<path fill="none" stroke="midnightblue" d="M563.5,-139.14C444.43,-142.98 245.99,-149.38 141.22,-152.75"/>
<polygon fill="midnightblue" stroke="midnightblue" points="563.82,-142.63 573.7,-138.81 563.59,-135.64 563.82,-142.63"/>
</g>
<!-- Node5&#45;&gt;Node6 -->
<g id="edge5" class="edge">
<title>Node5&#45;&gt;Node6</title>
<path fill="none" stroke="midnightblue" d="M598.74,-147.35C568.83,-152.8 533.37,-159.26 504.87,-164.46"/>
<polygon fill="midnightblue" stroke="midnightblue" points="599.45,-150.78 608.66,-145.54 598.19,-143.89 599.45,-150.78"/>
</g>
<!-- Node6&#45;&gt;Node2 -->
<g id="edge6" class="edge">
<title>Node6&#45;&gt;Node2</title>
<path fill="none" stroke="midnightblue" d="M398.06,-185.74C374.49,-191.02 346.38,-197.31 321.28,-202.93"/>
<polygon fill="midnightblue" stroke="midnightblue" points="398.87,-189.15 407.86,-183.55 397.34,-182.32 398.87,-189.15"/>
</g>
<!-- Node6&#45;&gt;Node3 -->
<g id="edge7" class="edge">
<title>Node6&#45;&gt;Node3</title>
<path fill="none" stroke="midnightblue" d="M354.9,-169.21C288.38,-165.87 201.2,-161.5 141.2,-158.49"/>
<polygon fill="midnightblue" stroke="midnightblue" points="354.81,-172.71 364.97,-169.71 355.16,-165.72 354.81,-172.71"/>
</g>
<!-- Node7&#45;&gt;Node3 -->
<g id="edge11" class="edge">
<title>Node7&#45;&gt;Node3</title>
<path fill="none" stroke="midnightblue" d="M775.68,-102.22C642.2,-108.59 390.65,-122.07 177,-142 165.42,-143.08 153.16,-144.42 141.24,-145.82"/>
<polygon fill="midnightblue" stroke="midnightblue" points="776.04,-105.7 785.87,-101.73 775.71,-98.71 776.04,-105.7"/>
</g>
<!-- Node7&#45;&gt;Node5 -->
<g id="edge10" class="edge">
<title>Node7&#45;&gt;Node5</title>
<path fill="none" stroke="midnightblue" d="M808.19,-109.35C778.49,-114.8 743.29,-121.26 714.99,-126.46"/>
<polygon fill="midnightblue" stroke="midnightblue" points="808.83,-112.79 818.03,-107.54 807.56,-105.9 808.83,-112.79"/>
</g>
<!-- Node9 -->
<g id="node9" class="node">
<title>Node9</title>
<g id="a_node9"><a xlink:href="classkazoo_1_1TranslationLayer.html#a6b80b010d94b9f1373fea308d1c6d435" target="_top" xlink:title="Takes input data and processes it through the symbol stream.">
<polygon fill="none" stroke="black" points="805.5,-39 805.5,-69 936.5,-69 936.5,-39 805.5,-39"/>
<text text-anchor="start" x="813.5" y="-57" font-family="Helvetica,sans-Serif" font-size="10.00">kazoo::TranslationLayer</text>
<text text-anchor="middle" x="871" y="-46" font-family="Helvetica,sans-Serif" font-size="10.00">::addData</text>
</a>
</g>
</g>
<!-- Node8&#45;&gt;Node9 -->
<g id="edge14" class="edge">
<title>Node8&#45;&gt;Node9</title>
<path fill="none" stroke="midnightblue" d="M981.76,-58.81C966.85,-58.16 951.25,-57.47 936.64,-56.83"/>
<polygon fill="midnightblue" stroke="midnightblue" points="981.81,-62.32 991.95,-59.26 982.11,-55.32 981.81,-62.32"/>
</g>
<!-- Node14 -->
<g id="node14" class="node">
<title>Node14</title>
<g id="a_node14"><a xlink:href="symbol__stream_8test_8cpp.html#ae06de649963b46341ca9f338594aa8cd" target="_top" xlink:title=" ">
<polygon fill="none" stroke="black" points="850.5,-0.5 850.5,-19.5 891.5,-19.5 891.5,-0.5 850.5,-0.5"/>
<text text-anchor="middle" x="871" y="-7.5" font-family="Helvetica,sans-Serif" font-size="10.00">TEST</text>
</a>
</g>
</g>
<!-- Node8&#45;&gt;Node14 -->
<g id="edge19" class="edge">
<title>Node8&#45;&gt;Node14</title>
<path fill="none" stroke="midnightblue" d="M1002.96,-43.64C987.92,-38.58 971.39,-33.31 956,-29 934.26,-22.92 908.94,-17.4 891.83,-13.9"/>
<polygon fill="midnightblue" stroke="midnightblue" points="1002.01,-47.02 1012.61,-46.93 1004.27,-40.39 1002.01,-47.02"/>
</g>
<!-- Node10 -->
<g id="node10" class="node">
<title>Node10</title>
<g id="a_node10"><a xlink:href="classkazoo_1_1TranslationLayer.html#a85b59418d9b63eaf80dd1b3623a96b96" target="_top" xlink:title=" ">
<polygon fill="none" stroke="black" points="596.5,-39 596.5,-69 727.5,-69 727.5,-39 596.5,-39"/>
<text text-anchor="start" x="604.5" y="-57" font-family="Helvetica,sans-Serif" font-size="10.00">kazoo::TranslationLayer</text>
<text text-anchor="middle" x="662" y="-46" font-family="Helvetica,sans-Serif" font-size="10.00">::sendFrame</text>
</a>
</g>
</g>
<!-- Node9&#45;&gt;Node10 -->
<g id="edge15" class="edge">
<title>Node9&#45;&gt;Node10</title>
<path fill="none" stroke="midnightblue" d="M795.31,-54C773.11,-54 749,-54 727.51,-54"/>
<polygon fill="midnightblue" stroke="midnightblue" points="795.36,-57.5 805.36,-54 795.36,-50.5 795.36,-57.5"/>
</g>
<!-- Node13 -->
<g id="node13" class="node">
<title>Node13</title>
<g id="a_node13"><a xlink:href="translation__layer_8test_8cpp.html#a5981aa5142cca1c44a01f7506cf94a8e" target="_top" xlink:title=" ">
<polygon fill="none" stroke="black" points="641.5,-0.5 641.5,-19.5 682.5,-19.5 682.5,-0.5 641.5,-0.5"/>
<text text-anchor="middle" x="662" y="-7.5" font-family="Helvetica,sans-Serif" font-size="10.00">TEST</text>
</a>
</g>
</g>
<!-- Node9&#45;&gt;Node13 -->
<g id="edge18" class="edge">
<title>Node9&#45;&gt;Node13</title>
<path fill="none" stroke="midnightblue" d="M795.54,-38.17C755.29,-29.62 708.67,-19.71 682.83,-14.22"/>
<polygon fill="midnightblue" stroke="midnightblue" points="794.85,-41.6 805.36,-40.26 796.3,-34.76 794.85,-41.6"/>
</g>
<!-- Node11 -->
<g id="node11" class="node">
<title>Node11</title>
<g id="a_node11"><a xlink:href="src_2kazoo__connect__server_2main_8cpp.html#ae66f6b31b5ad750f1fe042a706a4e3d4" target="_top" xlink:title=" ">
<polygon fill="none" stroke="black" points="431,-47.5 431,-66.5 472,-66.5 472,-47.5 431,-47.5"/>
<text text-anchor="middle" x="451.5" y="-54.5" font-family="Helvetica,sans-Serif" font-size="10.00">main</text>
</a>
</g>
</g>
<!-- Node10&#45;&gt;Node11 -->
<g id="edge16" class="edge">
<title>Node10&#45;&gt;Node11</title>
<path fill="none" stroke="midnightblue" d="M586.25,-55.08C545.46,-55.66 498.12,-56.34 472.12,-56.72"/>
<polygon fill="midnightblue" stroke="midnightblue" points="586.51,-58.57 596.46,-54.93 586.41,-51.57 586.51,-58.57"/>
</g>
<!-- Node12 -->
<g id="node12" class="node">
<title>Node12</title>
<g id="a_node12"><a xlink:href="translation__layer_8test_8cpp.html#a557311196b9a309f0d8377ef5af0c62c" target="_top" xlink:title=" ">
<polygon fill="none" stroke="black" points="431,-9.5 431,-28.5 472,-28.5 472,-9.5 431,-9.5"/>
<text text-anchor="middle" x="451.5" y="-16.5" font-family="Helvetica,sans-Serif" font-size="10.00">TEST</text>
</a>
</g>
</g>
<!-- Node10&#45;&gt;Node12 -->
<g id="edge17" class="edge">
<title>Node10&#45;&gt;Node12</title>
<path fill="none" stroke="midnightblue" d="M586.51,-41.49C545.66,-34.64 498.17,-26.67 472.12,-22.29"/>
<polygon fill="midnightblue" stroke="midnightblue" points="586.02,-44.96 596.46,-43.17 587.17,-38.06 586.02,-44.96"/>
</g>
</g>
</svg>
