<?xml version="1.0" encoding="UTF-8" standalone="no"?>
<!DOCTYPE svg PUBLIC "-//W3C//DTD SVG 1.1//EN"
 "http://www.w3.org/Graphics/SVG/1.1/DTD/svg11.dtd">
<!-- Generated by graphviz version 2.43.0 (0)
 -->
<!-- Title: kazoo::Deframer::changeState Pages: 1 -->
<svg width="1164pt" height="180pt"
 viewBox="0.00 0.00 1164.00 180.00" xmlns="http://www.w3.org/2000/svg" xmlns:xlink="http://www.w3.org/1999/xlink">
<g id="graph0" class="graph" transform="scale(1 1) rotate(0) translate(4 176)">
<title>kazoo::Deframer::changeState</title>
<!-- Node1 -->
<g id="node1" class="node">
<title>Node1</title>
<g id="a_node1"><a xlink:title=" ">
<polygon fill="#bfbfbf" stroke="black" points="992,-76.5 992,-95.5 1156,-95.5 1156,-76.5 992,-76.5"/>
<text text-anchor="middle" x="1074" y="-83.5" font-family="Helvetica,sans-Serif" font-size="10.00">kazoo::Deframer::changeState</text>
</a>
</g>
</g>
<!-- Node2 -->
<g id="node2" class="node">
<title>Node2</title>
<g id="a_node2"><a xlink:href="classkazoo_1_1Deframer.html#ad544e3c1a1301cc5ab77389eab411b03" target="_top" xlink:title=" ">
<polygon fill="none" stroke="black" points="574,-76.5 574,-95.5 750,-95.5 750,-76.5 574,-76.5"/>
<text text-anchor="middle" x="662" y="-83.5" font-family="Helvetica,sans-Serif" font-size="10.00">kazoo::Deframer::findFrameData</text>
</a>
</g>
</g>
<!-- Node1&#45;&gt;Node2 -->
<g id="edge1" class="edge">
<title>Node1&#45;&gt;Node2</title>
<path fill="none" stroke="midnightblue" d="M981.99,-86C912.86,-86 818.39,-86 750.21,-86"/>
<polygon fill="midnightblue" stroke="midnightblue" points="982,-89.5 992,-86 982,-82.5 982,-89.5"/>
</g>
<!-- Node3 -->
<g id="node3" class="node">
<title>Node3</title>
<g id="a_node3"><a xlink:href="classkazoo_1_1Deframer.html#a79d8b406e773fdc32d7c5002b9e37e2b" target="_top" xlink:title=" ">
<polygon fill="none" stroke="black" points="365,-152.5 365,-171.5 538,-171.5 538,-152.5 365,-152.5"/>
<text text-anchor="middle" x="451.5" y="-159.5" font-family="Helvetica,sans-Serif" font-size="10.00">kazoo::Deframer::findFrameSize</text>
</a>
</g>
</g>
<!-- Node1&#45;&gt;Node3 -->
<g id="edge10" class="edge">
<title>Node1&#45;&gt;Node3</title>
<path fill="none" stroke="midnightblue" d="M1047.86,-100.47C1024.79,-112.93 989.27,-130.11 956,-138 812.31,-172.09 639.28,-171.66 538.02,-167.42"/>
<polygon fill="midnightblue" stroke="midnightblue" points="1049.57,-103.52 1056.64,-95.63 1046.19,-97.39 1049.57,-103.52"/>
</g>
<!-- Node4 -->
<g id="node4" class="node">
<title>Node4</title>
<g id="a_node4"><a xlink:href="classkazoo_1_1Deframer.html#a7dc1caffad1ffe4925a3e13d8d125024" target="_top" xlink:title=" ">
<polygon fill="none" stroke="black" points="177,-115 177,-145 329,-145 329,-115 177,-115"/>
<text text-anchor="start" x="185" y="-133" font-family="Helvetica,sans-Serif" font-size="10.00">kazoo::Deframer::findFrame</text>
<text text-anchor="middle" x="253" y="-122" font-family="Helvetica,sans-Serif" font-size="10.00">Start</text>
</a>
</g>
</g>
<!-- Node1&#45;&gt;Node4 -->
<g id="edge11" class="edge">
<title>Node1&#45;&gt;Node4</title>
<path fill="none" stroke="midnightblue" d="M990.57,-96.66C978.97,-97.93 967.2,-99.09 956,-100 728.18,-118.47 457.78,-125.97 329.18,-128.67"/>
<polygon fill="midnightblue" stroke="midnightblue" points="991.14,-100.12 1000.69,-95.53 990.36,-93.16 991.14,-100.12"/>
</g>
<!-- Node6 -->
<g id="node6" class="node">
<title>Node6</title>
<g id="a_node6"><a xlink:href="classkazoo_1_1Deframer.html#ae4c8d8b5f7e2bc50183fc1b758fc21a8" target="_top" xlink:title=" ">
<polygon fill="none" stroke="black" points="786,-38.5 786,-57.5 956,-57.5 956,-38.5 786,-38.5"/>
<text text-anchor="middle" x="871" y="-45.5" font-family="Helvetica,sans-Serif" font-size="10.00">kazoo::Deframer::findFrameEnd</text>
</a>
</g>
</g>
<!-- Node1&#45;&gt;Node6 -->
<g id="edge7" class="edge">
<title>Node1&#45;&gt;Node6</title>
<path fill="none" stroke="midnightblue" d="M1012.6,-74.58C983.84,-69.14 949.84,-62.72 922.48,-57.54"/>
<polygon fill="midnightblue" stroke="midnightblue" points="1012.06,-78.04 1022.54,-76.46 1013.36,-71.16 1012.06,-78.04"/>
</g>
<!-- Node7 -->
<g id="node7" class="node">
<title>Node7</title>
<g id="a_node7"><a xlink:href="classkazoo_1_1Deframer.html#a54e9f10befd916627aa27a09623f6a5d" target="_top" xlink:title=" ">
<polygon fill="none" stroke="black" points="807,-0.5 807,-19.5 935,-19.5 935,-0.5 807,-0.5"/>
<text text-anchor="middle" x="871" y="-7.5" font-family="Helvetica,sans-Serif" font-size="10.00">kazoo::Deframer::reset</text>
</a>
</g>
</g>
<!-- Node1&#45;&gt;Node7 -->
<g id="edge12" class="edge">
<title>Node1&#45;&gt;Node7</title>
<path fill="none" stroke="midnightblue" d="M1047.63,-71.51C1024.41,-58.77 988.79,-40.52 956,-29 945.56,-25.33 934.14,-22.2 923.17,-19.59"/>
<polygon fill="midnightblue" stroke="midnightblue" points="1046.04,-74.63 1056.48,-76.43 1049.44,-68.51 1046.04,-74.63"/>
</g>
<!-- Node2&#45;&gt;Node3 -->
<g id="edge2" class="edge">
<title>Node2&#45;&gt;Node3</title>
<path fill="none" stroke="midnightblue" d="M625.1,-99.08C583.43,-114.27 515.7,-138.96 478.69,-152.45"/>
<polygon fill="midnightblue" stroke="midnightblue" points="626.4,-102.34 634.59,-95.63 624,-95.76 626.4,-102.34"/>
</g>
<!-- Node5 -->
<g id="node5" class="node">
<title>Node5</title>
<g id="a_node5"><a xlink:href="classkazoo_1_1Deframer.html#a742de19b3ca490d3faabfcbb64785998" target="_top" xlink:title="Process the input binary stream in a stateful manner to extract frames from sequential stream inputs.">
<polygon fill="none" stroke="black" points="0,-93 0,-123 141,-123 141,-93 0,-93"/>
<text text-anchor="start" x="8" y="-111" font-family="Helvetica,sans-Serif" font-size="10.00">kazoo::Deframer::process</text>
<text text-anchor="middle" x="70.5" y="-100" font-family="Helvetica,sans-Serif" font-size="10.00">Input</text>
</a>
</g>
</g>
<!-- Node2&#45;&gt;Node5 -->
<g id="edge6" class="edge">
<title>Node2&#45;&gt;Node5</title>
<path fill="none" stroke="midnightblue" d="M563.5,-89.64C444.43,-94.08 245.99,-101.49 141.22,-105.4"/>
<polygon fill="midnightblue" stroke="midnightblue" points="563.84,-93.13 573.7,-89.26 563.58,-86.13 563.84,-93.13"/>
</g>
<!-- Node3&#45;&gt;Node4 -->
<g id="edge3" class="edge">
<title>Node3&#45;&gt;Node4</title>
<path fill="none" stroke="midnightblue" d="M382.2,-150.88C365.13,-148.1 346.73,-145.1 329.34,-142.27"/>
<polygon fill="midnightblue" stroke="midnightblue" points="381.64,-154.33 392.08,-152.49 382.77,-147.42 381.64,-154.33"/>
</g>
<!-- Node3&#45;&gt;Node5 -->
<g id="edge5" class="edge">
<title>Node3&#45;&gt;Node5</title>
<path fill="none" stroke="midnightblue" d="M354.69,-168.04C301.7,-169.19 235.03,-166.99 177,-154 148.92,-147.72 119.05,-133.95 98.29,-123.1"/>
<polygon fill="midnightblue" stroke="midnightblue" points="354.86,-171.54 364.76,-167.78 354.68,-164.54 354.86,-171.54"/>
</g>
<!-- Node4&#45;&gt;Node5 -->
<g id="edge4" class="edge">
<title>Node4&#45;&gt;Node5</title>
<path fill="none" stroke="midnightblue" d="M166.74,-119.61C158.16,-118.56 149.52,-117.51 141.14,-116.49"/>
<polygon fill="midnightblue" stroke="midnightblue" points="166.41,-123.09 176.76,-120.83 167.26,-116.15 166.41,-123.09"/>
</g>
<!-- Node6&#45;&gt;Node2 -->
<g id="edge8" class="edge">
<title>Node6&#45;&gt;Node2</title>
<path fill="none" stroke="midnightblue" d="M808.19,-59.35C778.49,-64.8 743.29,-71.26 714.99,-76.46"/>
<polygon fill="midnightblue" stroke="midnightblue" points="808.83,-62.79 818.03,-57.54 807.56,-55.9 808.83,-62.79"/>
</g>
<!-- Node6&#45;&gt;Node5 -->
<g id="edge9" class="edge">
<title>Node6&#45;&gt;Node5</title>
<path fill="none" stroke="midnightblue" d="M775.68,-52.67C642.2,-59.68 390.64,-74.32 177,-95 165.43,-96.12 153.16,-97.48 141.24,-98.88"/>
<polygon fill="midnightblue" stroke="midnightblue" points="776.06,-56.16 785.87,-52.14 775.7,-49.17 776.06,-56.16"/>
</g>
</g>
</svg>
