<?xml version="1.0" encoding="UTF-8" standalone="no"?>
<!DOCTYPE svg PUBLIC "-//W3C//DTD SVG 1.1//EN"
 "http://www.w3.org/Graphics/SVG/1.1/DTD/svg11.dtd">
<!-- Generated by graphviz version 2.43.0 (0)
 -->
<!-- Title: kazoo::Logger Pages: 1 -->
<svg width="129pt" height="226pt"
 viewBox="0.00 0.00 129.00 226.00" xmlns="http://www.w3.org/2000/svg" xmlns:xlink="http://www.w3.org/1999/xlink">
<g id="graph0" class="graph" transform="scale(1 1) rotate(0) translate(4 222)">
<title>kazoo::Logger</title>
<!-- Node1 -->
<g id="node1" class="node">
<title>Node1</title>
<g id="a_node1"><a xlink:title=" ">
<polygon fill="#bfbfbf" stroke="black" points="0,-0.5 0,-112.5 90,-112.5 90,-0.5 0,-0.5"/>
<text text-anchor="middle" x="45" y="-100.5" font-family="Helvetica,sans-Serif" font-size="10.00">kazoo::Logger</text>
<polyline fill="none" stroke="black" points="0,-93.5 90,-93.5 "/>
<text text-anchor="middle" x="45" y="-81.5" font-family="Helvetica,sans-Serif" font-size="10.00"> </text>
<polyline fill="none" stroke="black" points="0,-74.5 90,-74.5 "/>
<text text-anchor="start" x="8" y="-62.5" font-family="Helvetica,sans-Serif" font-size="10.00">+ Logger()</text>
<text text-anchor="start" x="8" y="-51.5" font-family="Helvetica,sans-Serif" font-size="10.00"># logDebug()</text>
<text text-anchor="start" x="8" y="-40.5" font-family="Helvetica,sans-Serif" font-size="10.00"># logError()</text>
<text text-anchor="start" x="8" y="-29.5" font-family="Helvetica,sans-Serif" font-size="10.00"># logInfo()</text>
<text text-anchor="start" x="8" y="-18.5" font-family="Helvetica,sans-Serif" font-size="10.00"># logWarning()</text>
<text text-anchor="start" x="8" y="-7.5" font-family="Helvetica,sans-Serif" font-size="10.00">&#45; log()</text>
</a>
</g>
</g>
<!-- Node2 -->
<g id="node2" class="node">
<title>Node2</title>
<g id="a_node2"><a xlink:title=" ">
<polygon fill="none" stroke="black" points="23,-160.5 23,-217.5 67,-217.5 67,-160.5 23,-160.5"/>
<text text-anchor="middle" x="45" y="-205.5" font-family="Helvetica,sans-Serif" font-size="10.00">string</text>
<polyline fill="none" stroke="black" points="23,-198.5 67,-198.5 "/>
<text text-anchor="middle" x="45" y="-186.5" font-family="Helvetica,sans-Serif" font-size="10.00"> </text>
<polyline fill="none" stroke="black" points="23,-179.5 67,-179.5 "/>
<text text-anchor="middle" x="45" y="-167.5" font-family="Helvetica,sans-Serif" font-size="10.00"> </text>
</a>
</g>
</g>
<!-- Node2&#45;&gt;Node1 -->
<g id="edge1" class="edge">
<title>Node2&#45;&gt;Node1</title>
<path fill="none" stroke="#404040" d="M45,-160.32C45,-149.78 45,-137.25 45,-124.62"/>
<polygon fill="none" stroke="#404040" points="45,-124.55 41,-118.55 45,-112.55 49,-118.55 45,-124.55"/>
<text text-anchor="middle" x="83" y="-134" font-family="Helvetica,sans-Serif" font-size="10.00"> &#45;logger_name_</text>
</g>
</g>
</svg>
