<?xml version="1.0" encoding="UTF-8" standalone="no"?>
<!DOCTYPE svg PUBLIC "-//W3C//DTD SVG 1.1//EN"
 "http://www.w3.org/Graphics/SVG/1.1/DTD/svg11.dtd">
<!-- Generated by graphviz version 2.43.0 (0)
 -->
<!-- Title: kazoo::SymbolStream::addSymbol Pages: 1 -->
<svg width="219pt" height="66pt"
 viewBox="0.00 0.00 219.00 66.00" xmlns="http://www.w3.org/2000/svg" xmlns:xlink="http://www.w3.org/1999/xlink">
<g id="graph0" class="graph" transform="scale(1 1) rotate(0) translate(4 62)">
<title>kazoo::SymbolStream::addSymbol</title>
<!-- Node1 -->
<g id="node1" class="node">
<title>Node1</title>
<g id="a_node1"><a xlink:title="Add a symbol to the end of the stream.">
<polygon fill="#bfbfbf" stroke="black" points="88,-14 88,-44 211,-44 211,-14 88,-14"/>
<text text-anchor="start" x="96" y="-32" font-family="Helvetica,sans-Serif" font-size="10.00">kazoo::SymbolStream</text>
<text text-anchor="middle" x="149.5" y="-21" font-family="Helvetica,sans-Serif" font-size="10.00">::addSymbol</text>
</a>
</g>
</g>
<!-- Node2 -->
<g id="node2" class="node">
<title>Node2</title>
<g id="a_node2"><a xlink:href="binary__model_8test_8cpp.html#a2ab2088bc8f63bfedc115d9edb0cac65" target="_top" xlink:title=" ">
<polygon fill="none" stroke="black" points="5.5,-38.5 5.5,-57.5 46.5,-57.5 46.5,-38.5 5.5,-38.5"/>
<text text-anchor="middle" x="26" y="-45.5" font-family="Helvetica,sans-Serif" font-size="10.00">TEST</text>
</a>
</g>
</g>
<!-- Node1&#45;&gt;Node2 -->
<g id="edge1" class="edge">
<title>Node1&#45;&gt;Node2</title>
<path fill="none" stroke="midnightblue" d="M77.63,-40.08C66.21,-41.87 55.28,-43.58 46.52,-44.95"/>
<polygon fill="midnightblue" stroke="midnightblue" points="78.41,-43.5 87.75,-38.5 77.33,-36.59 78.41,-43.5"/>
</g>
<!-- Node3 -->
<g id="node3" class="node">
<title>Node3</title>
<g id="a_node3"><a xlink:href="k1__model_8test_8cpp.html#a7afde82f3b7a3b8a1d5c2175d4d2b323" target="_top" xlink:title=" ">
<polygon fill="none" stroke="black" points="0,-0.5 0,-19.5 52,-19.5 52,-0.5 0,-0.5"/>
<text text-anchor="middle" x="26" y="-7.5" font-family="Helvetica,sans-Serif" font-size="10.00">TEST_F</text>
</a>
</g>
</g>
<!-- Node1&#45;&gt;Node3 -->
<g id="edge2" class="edge">
<title>Node1&#45;&gt;Node3</title>
<path fill="none" stroke="midnightblue" d="M77.77,-17.94C68.64,-16.51 59.83,-15.13 52.17,-13.94"/>
<polygon fill="midnightblue" stroke="midnightblue" points="77.33,-21.41 87.75,-19.5 78.41,-14.5 77.33,-21.41"/>
</g>
</g>
</svg>
