<?xml version="1.0" encoding="UTF-8" standalone="no"?>
<!DOCTYPE svg PUBLIC "-//W3C//DTD SVG 1.1//EN"
 "http://www.w3.org/Graphics/SVG/1.1/DTD/svg11.dtd">
<!-- Generated by graphviz version 2.43.0 (0)
 -->
<!-- Title: kazoo::PulseAudio::Reader Pages: 1 -->
<svg width="644pt" height="303pt"
 viewBox="0.00 0.00 643.50 303.00" xmlns="http://www.w3.org/2000/svg" xmlns:xlink="http://www.w3.org/1999/xlink">
<g id="graph0" class="graph" transform="scale(1 1) rotate(0) translate(4 299)">
<title>kazoo::PulseAudio::Reader</title>
<!-- Node1 -->
<g id="node1" class="node">
<title>Node1</title>
<g id="a_node1"><a xlink:title=" ">
<polygon fill="#bfbfbf" stroke="black" points="204.5,-0.5 204.5,-178.5 315.5,-178.5 315.5,-0.5 204.5,-0.5"/>
<text text-anchor="start" x="212.5" y="-166.5" font-family="Helvetica,sans-Serif" font-size="10.00">kazoo::PulseAudio::</text>
<text text-anchor="middle" x="260" y="-155.5" font-family="Helvetica,sans-Serif" font-size="10.00">Reader</text>
<polyline fill="none" stroke="black" points="204.5,-148.5 315.5,-148.5 "/>
<text text-anchor="middle" x="260" y="-136.5" font-family="Helvetica,sans-Serif" font-size="10.00"> </text>
<polyline fill="none" stroke="black" points="204.5,-129.5 315.5,-129.5 "/>
<text text-anchor="start" x="212.5" y="-117.5" font-family="Helvetica,sans-Serif" font-size="10.00">+ Reader()</text>
<text text-anchor="start" x="212.5" y="-106.5" font-family="Helvetica,sans-Serif" font-size="10.00">+ Reader()</text>
<text text-anchor="start" x="212.5" y="-95.5" font-family="Helvetica,sans-Serif" font-size="10.00">+ Reader()</text>
<text text-anchor="start" x="212.5" y="-84.5" font-family="Helvetica,sans-Serif" font-size="10.00">+ ~Reader()</text>
<text text-anchor="start" x="212.5" y="-73.5" font-family="Helvetica,sans-Serif" font-size="10.00">+ getAudioBuffer()</text>
<text text-anchor="start" x="212.5" y="-62.5" font-family="Helvetica,sans-Serif" font-size="10.00">+ getLatency()</text>
<text text-anchor="start" x="212.5" y="-51.5" font-family="Helvetica,sans-Serif" font-size="10.00">+ getRms()</text>
<text text-anchor="start" x="212.5" y="-40.5" font-family="Helvetica,sans-Serif" font-size="10.00">+ getVolume()</text>
<text text-anchor="start" x="212.5" y="-29.5" font-family="Helvetica,sans-Serif" font-size="10.00">+ operator=()</text>
<text text-anchor="start" x="212.5" y="-18.5" font-family="Helvetica,sans-Serif" font-size="10.00">+ operator=()</text>
<text text-anchor="start" x="212.5" y="-7.5" font-family="Helvetica,sans-Serif" font-size="10.00">+ process()</text>
</a>
</g>
</g>
<!-- Node2 -->
<g id="node2" class="node">
<title>Node2</title>
<g id="a_node2"><a xlink:title=" ">
<polygon fill="none" stroke="black" points="0,-232 0,-289 56,-289 56,-232 0,-232"/>
<text text-anchor="middle" x="28" y="-277" font-family="Helvetica,sans-Serif" font-size="10.00">uint32_t</text>
<polyline fill="none" stroke="black" points="0,-270 56,-270 "/>
<text text-anchor="middle" x="28" y="-258" font-family="Helvetica,sans-Serif" font-size="10.00"> </text>
<polyline fill="none" stroke="black" points="0,-251 56,-251 "/>
<text text-anchor="middle" x="28" y="-239" font-family="Helvetica,sans-Serif" font-size="10.00"> </text>
</a>
</g>
</g>
<!-- Node2&#45;&gt;Node1 -->
<g id="edge1" class="edge">
<title>Node2&#45;&gt;Node1</title>
<path fill="none" stroke="#404040" d="M45.07,-231.98C53.19,-220.3 63.61,-207.07 75,-197 110.37,-165.71 156.36,-139.19 193.64,-120.43"/>
<polygon fill="none" stroke="#404040" points="193.65,-120.43 197.26,-114.18 204.41,-115.11 200.8,-121.36 193.65,-120.43"/>
<text text-anchor="middle" x="125.5" y="-200" font-family="Helvetica,sans-Serif" font-size="10.00"> &#45;audio_latency_ms_</text>
</g>
<!-- Node3 -->
<g id="node3" class="node">
<title>Node3</title>
<g id="a_node3"><a xlink:title=" ">
<polygon fill="none" stroke="black" points="115,-232 115,-289 171,-289 171,-232 115,-232"/>
<text text-anchor="middle" x="143" y="-277" font-family="Helvetica,sans-Serif" font-size="10.00">uint64_t</text>
<polyline fill="none" stroke="black" points="115,-270 171,-270 "/>
<text text-anchor="middle" x="143" y="-258" font-family="Helvetica,sans-Serif" font-size="10.00"> </text>
<polyline fill="none" stroke="black" points="115,-251 171,-251 "/>
<text text-anchor="middle" x="143" y="-239" font-family="Helvetica,sans-Serif" font-size="10.00"> </text>
</a>
</g>
</g>
<!-- Node3&#45;&gt;Node1 -->
<g id="edge2" class="edge">
<title>Node3&#45;&gt;Node1</title>
<path fill="none" stroke="#404040" d="M162.06,-231.97C171.88,-217.78 184.49,-199.57 197.36,-180.98"/>
<polygon fill="none" stroke="#404040" points="197.48,-180.81 197.61,-173.6 204.31,-170.94 204.18,-178.15 197.48,-180.81"/>
<text text-anchor="middle" x="199.5" y="-200" font-family="Helvetica,sans-Serif" font-size="10.00"> &#45;rms_</text>
</g>
<!-- Node4 -->
<g id="node4" class="node">
<title>Node4</title>
<g id="a_node4"><a xlink:title=" ">
<polygon fill="none" stroke="black" points="189,-232 189,-289 239,-289 239,-232 189,-232"/>
<text text-anchor="middle" x="214" y="-277" font-family="Helvetica,sans-Serif" font-size="10.00">double</text>
<polyline fill="none" stroke="black" points="189,-270 239,-270 "/>
<text text-anchor="middle" x="214" y="-258" font-family="Helvetica,sans-Serif" font-size="10.00"> </text>
<polyline fill="none" stroke="black" points="189,-251 239,-251 "/>
<text text-anchor="middle" x="214" y="-239" font-family="Helvetica,sans-Serif" font-size="10.00"> </text>
</a>
</g>
</g>
<!-- Node4&#45;&gt;Node1 -->
<g id="edge3" class="edge">
<title>Node4&#45;&gt;Node1</title>
<path fill="none" stroke="#404040" d="M221.49,-231.97C224.7,-220.19 228.66,-205.66 232.8,-190.42"/>
<polygon fill="none" stroke="#404040" points="232.85,-190.25 230.56,-183.41 236,-178.68 238.28,-185.52 232.85,-190.25"/>
<text text-anchor="middle" x="254.5" y="-200" font-family="Helvetica,sans-Serif" font-size="10.00"> &#45;volume_</text>
</g>
<!-- Node5 -->
<g id="node5" class="node">
<title>Node5</title>
<g id="a_node5"><a xlink:title=" ">
<polygon fill="none" stroke="black" points="257,-232 257,-289 355,-289 355,-232 257,-232"/>
<text text-anchor="middle" x="306" y="-277" font-family="Helvetica,sans-Serif" font-size="10.00">pa_sample_spec</text>
<polyline fill="none" stroke="black" points="257,-270 355,-270 "/>
<text text-anchor="middle" x="306" y="-258" font-family="Helvetica,sans-Serif" font-size="10.00"> </text>
<polyline fill="none" stroke="black" points="257,-251 355,-251 "/>
<text text-anchor="middle" x="306" y="-239" font-family="Helvetica,sans-Serif" font-size="10.00"> </text>
</a>
</g>
</g>
<!-- Node5&#45;&gt;Node1 -->
<g id="edge4" class="edge">
<title>Node5&#45;&gt;Node1</title>
<path fill="none" stroke="#404040" d="M298.51,-231.97C295.3,-220.19 291.34,-205.66 287.2,-190.42"/>
<polygon fill="none" stroke="#404040" points="287.15,-190.25 281.72,-185.52 284,-178.68 289.44,-183.41 287.15,-190.25"/>
<text text-anchor="middle" x="302.5" y="-200" font-family="Helvetica,sans-Serif" font-size="10.00"> &#45;ss_</text>
</g>
<!-- Node6 -->
<g id="node6" class="node">
<title>Node6</title>
<g id="a_node6"><a xlink:title=" ">
<polygon fill="none" stroke="black" points="373.5,-232 373.5,-289 448.5,-289 448.5,-232 373.5,-232"/>
<text text-anchor="middle" x="411" y="-277" font-family="Helvetica,sans-Serif" font-size="10.00">pa_simple *</text>
<polyline fill="none" stroke="black" points="373.5,-270 448.5,-270 "/>
<text text-anchor="middle" x="411" y="-258" font-family="Helvetica,sans-Serif" font-size="10.00"> </text>
<polyline fill="none" stroke="black" points="373.5,-251 448.5,-251 "/>
<text text-anchor="middle" x="411" y="-239" font-family="Helvetica,sans-Serif" font-size="10.00"> </text>
</a>
</g>
</g>
<!-- Node6&#45;&gt;Node1 -->
<g id="edge5" class="edge">
<title>Node6&#45;&gt;Node1</title>
<path fill="none" stroke="#404040" d="M386.4,-231.97C369.36,-212.9 345.84,-186.57 323.7,-161.79"/>
<polygon fill="none" stroke="#404040" points="323.62,-161.7 316.64,-159.89 315.62,-152.75 322.6,-154.56 323.62,-161.7"/>
<text text-anchor="middle" x="399.5" y="-200" font-family="Helvetica,sans-Serif" font-size="10.00"> &#45;pulse_server_</text>
</g>
<!-- Node7 -->
<g id="node7" class="node">
<title>Node7</title>
<g id="a_node7"><a xlink:title=" ">
<polygon fill="none" stroke="black" points="466.5,-226.5 466.5,-294.5 635.5,-294.5 635.5,-226.5 466.5,-226.5"/>
<text text-anchor="start" x="474.5" y="-282.5" font-family="Helvetica,sans-Serif" font-size="10.00">array&lt; int16_t, PULSE</text>
<text text-anchor="middle" x="551" y="-271.5" font-family="Helvetica,sans-Serif" font-size="10.00">_AUDIO_READ_BUFFER_SIZE &gt;</text>
<polyline fill="none" stroke="black" points="466.5,-264.5 635.5,-264.5 "/>
<text text-anchor="middle" x="551" y="-252.5" font-family="Helvetica,sans-Serif" font-size="10.00"> </text>
<polyline fill="none" stroke="black" points="466.5,-245.5 635.5,-245.5 "/>
<text text-anchor="middle" x="551" y="-233.5" font-family="Helvetica,sans-Serif" font-size="10.00"> </text>
</a>
</g>
</g>
<!-- Node7&#45;&gt;Node1 -->
<g id="edge6" class="edge">
<title>Node7&#45;&gt;Node1</title>
<path fill="none" stroke="#404040" d="M493.85,-226.31C445.64,-198.31 376.6,-158.21 326.03,-128.85"/>
<polygon fill="none" stroke="#404040" points="325.91,-128.78 318.71,-129.22 315.53,-122.75 322.73,-122.31 325.91,-128.78"/>
<text text-anchor="middle" x="492.5" y="-200" font-family="Helvetica,sans-Serif" font-size="10.00"> &#45;audio_buffer_</text>
</g>
</g>
</svg>
