<?xml version="1.0" encoding="UTF-8" standalone="no"?>
<!DOCTYPE svg PUBLIC "-//W3C//DTD SVG 1.1//EN"
 "http://www.w3.org/Graphics/SVG/1.1/DTD/svg11.dtd">
<!-- Generated by graphviz version 2.43.0 (0)
 -->
<!-- Title: kazoo::TranslationLayer::encode Pages: 1 -->
<svg width="722pt" height="242pt"
 viewBox="0.00 0.00 722.00 241.50" xmlns="http://www.w3.org/2000/svg" xmlns:xlink="http://www.w3.org/1999/xlink">
<g id="graph0" class="graph" transform="scale(1 1) rotate(0) translate(4 237.5)">
<title>kazoo::TranslationLayer::encode</title>
<!-- Node1 -->
<g id="node1" class="node">
<title>Node1</title>
<g id="a_node1"><a xlink:title=" ">
<polygon fill="#bfbfbf" stroke="black" points="0,-49.5 0,-79.5 131,-79.5 131,-49.5 0,-49.5"/>
<text text-anchor="start" x="8" y="-67.5" font-family="Helvetica,sans-Serif" font-size="10.00">kazoo::TranslationLayer</text>
<text text-anchor="middle" x="65.5" y="-56.5" font-family="Helvetica,sans-Serif" font-size="10.00">::encode</text>
</a>
</g>
</g>
<!-- Node2 -->
<g id="node2" class="node">
<title>Node2</title>
<g id="a_node2"><a xlink:href="classkazoo_1_1Encoder.html#a377a241e22091d991edd5376e0d0be10" target="_top" xlink:title="Pops symbols from the front of the symbol stream and encodes them into the audio buffer.">
<polygon fill="none" stroke="black" points="167,-120.5 167,-150.5 343,-150.5 343,-120.5 167,-120.5"/>
<text text-anchor="start" x="175" y="-138.5" font-family="Helvetica,sans-Serif" font-size="10.00">kazoo::Encoder::encodeAvailable</text>
<text text-anchor="middle" x="255" y="-127.5" font-family="Helvetica,sans-Serif" font-size="10.00">Symbols</text>
</a>
</g>
</g>
<!-- Node1&#45;&gt;Node2 -->
<g id="edge1" class="edge">
<title>Node1&#45;&gt;Node2</title>
<path fill="none" stroke="midnightblue" d="M106.26,-79.56C134.98,-90.43 173.94,-105.18 204.64,-116.81"/>
<polygon fill="midnightblue" stroke="midnightblue" points="203.7,-120.2 214.29,-120.46 206.18,-113.65 203.7,-120.2"/>
</g>
<!-- Node7 -->
<g id="node7" class="node">
<title>Node7</title>
<g id="a_node7"><a xlink:href="classkazoo_1_1SymbolStream.html#a5eb190a46e077143f1abcaf2211a0ad0" target="_top" xlink:title=" ">
<polygon fill="none" stroke="black" points="193.5,-49.5 193.5,-79.5 316.5,-79.5 316.5,-49.5 193.5,-49.5"/>
<text text-anchor="start" x="201.5" y="-67.5" font-family="Helvetica,sans-Serif" font-size="10.00">kazoo::SymbolStream</text>
<text text-anchor="middle" x="255" y="-56.5" font-family="Helvetica,sans-Serif" font-size="10.00">::getNumBytes</text>
</a>
</g>
</g>
<!-- Node1&#45;&gt;Node7 -->
<g id="edge6" class="edge">
<title>Node1&#45;&gt;Node7</title>
<path fill="none" stroke="midnightblue" d="M131.03,-64.5C147.78,-64.5 165.92,-64.5 182.99,-64.5"/>
<polygon fill="midnightblue" stroke="midnightblue" points="183.46,-68 193.46,-64.5 183.46,-61 183.46,-68"/>
</g>
<!-- Node10 -->
<g id="node10" class="node">
<title>Node10</title>
<g id="a_node10"><a xlink:href="classkazoo_1_1AudioChannel.html#a97d2202c18916b93bb72b4c540ba75ed" target="_top" xlink:title=" ">
<polygon fill="none" stroke="black" points="195.5,-0.5 195.5,-30.5 314.5,-30.5 314.5,-0.5 195.5,-0.5"/>
<text text-anchor="start" x="203.5" y="-18.5" font-family="Helvetica,sans-Serif" font-size="10.00">kazoo::AudioChannel</text>
<text text-anchor="middle" x="255" y="-7.5" font-family="Helvetica,sans-Serif" font-size="10.00">::getNumSamples</text>
</a>
</g>
</g>
<!-- Node1&#45;&gt;Node10 -->
<g id="edge9" class="edge">
<title>Node1&#45;&gt;Node10</title>
<path fill="none" stroke="midnightblue" d="M124.03,-49.47C143.83,-44.29 166.17,-38.45 186.68,-33.09"/>
<polygon fill="midnightblue" stroke="midnightblue" points="187.79,-36.42 196.58,-30.51 186.02,-29.65 187.79,-36.42"/>
</g>
<!-- Node3 -->
<g id="node3" class="node">
<title>Node3</title>
<g id="a_node3"><a xlink:href="classkazoo_1_1Encoder.html#ab775a959f5c94f1ca28e38cebacaf4c5" target="_top" xlink:title="Adds a preamble to the audio channel to help with synchronization.">
<polygon fill="none" stroke="black" points="379,-214 379,-233 557,-233 557,-214 379,-214"/>
<text text-anchor="middle" x="468" y="-221" font-family="Helvetica,sans-Serif" font-size="10.00">kazoo::Encoder::encodePreamble</text>
</a>
</g>
</g>
<!-- Node2&#45;&gt;Node3 -->
<g id="edge2" class="edge">
<title>Node2&#45;&gt;Node3</title>
<path fill="none" stroke="midnightblue" d="M278.13,-150.61C302.02,-166.26 341.68,-190.37 379,-204.5 385.83,-207.09 393.11,-209.36 400.43,-211.36"/>
<polygon fill="midnightblue" stroke="midnightblue" points="399.86,-214.82 410.41,-213.9 401.58,-208.04 399.86,-214.82"/>
</g>
<!-- Node4 -->
<g id="node4" class="node">
<title>Node4</title>
<g id="a_node4"><a xlink:href="classkazoo_1_1ISymbolModel.html#a093bf25697e9c33e5f0fb1373e602594" target="_top" xlink:title=" ">
<polygon fill="none" stroke="black" points="407.5,-164.5 407.5,-194.5 528.5,-194.5 528.5,-164.5 407.5,-164.5"/>
<text text-anchor="start" x="415.5" y="-182.5" font-family="Helvetica,sans-Serif" font-size="10.00">kazoo::ISymbolModel</text>
<text text-anchor="middle" x="468" y="-171.5" font-family="Helvetica,sans-Serif" font-size="10.00">::encodeSymbol</text>
</a>
</g>
</g>
<!-- Node2&#45;&gt;Node4 -->
<g id="edge3" class="edge">
<title>Node2&#45;&gt;Node4</title>
<path fill="none" stroke="midnightblue" d="M328.02,-150.52C350.39,-155.18 374.99,-160.31 397.2,-164.94"/>
<polygon fill="midnightblue" stroke="midnightblue" points="396.71,-168.42 407.21,-167.03 398.14,-161.57 396.71,-168.42"/>
</g>
<!-- Node5 -->
<g id="node5" class="node">
<title>Node5</title>
<g id="a_node5"><a xlink:href="classkazoo_1_1Encoder.html#a365c15beddddcda0de58e96087997e1f" target="_top" xlink:title=" ">
<polygon fill="none" stroke="black" points="394,-126 394,-145 542,-145 542,-126 394,-126"/>
<text text-anchor="middle" x="468" y="-133" font-family="Helvetica,sans-Serif" font-size="10.00">kazoo::Encoder::encodeTail</text>
</a>
</g>
</g>
<!-- Node2&#45;&gt;Node5 -->
<g id="edge4" class="edge">
<title>Node2&#45;&gt;Node5</title>
<path fill="none" stroke="midnightblue" d="M343.04,-135.5C356.52,-135.5 370.41,-135.5 383.8,-135.5"/>
<polygon fill="midnightblue" stroke="midnightblue" points="383.93,-139 393.93,-135.5 383.93,-132 383.93,-139"/>
</g>
<!-- Node6 -->
<g id="node6" class="node">
<title>Node6</title>
<g id="a_node6"><a xlink:href="classkazoo_1_1ISymbolStream.html#a88dbb4b56018e8238e3fe8b1c599c8a4" target="_top" xlink:title=" ">
<polygon fill="none" stroke="black" points="405,-76.5 405,-106.5 531,-106.5 531,-76.5 405,-76.5"/>
<text text-anchor="start" x="413" y="-94.5" font-family="Helvetica,sans-Serif" font-size="10.00">kazoo::ISymbolStream</text>
<text text-anchor="middle" x="468" y="-83.5" font-family="Helvetica,sans-Serif" font-size="10.00">::popSymbolTokenId</text>
</a>
</g>
</g>
<!-- Node2&#45;&gt;Node6 -->
<g id="edge5" class="edge">
<title>Node2&#45;&gt;Node6</title>
<path fill="none" stroke="midnightblue" d="M328.02,-120.48C349.56,-115.99 373.18,-111.06 394.74,-106.57"/>
<polygon fill="midnightblue" stroke="midnightblue" points="395.73,-109.94 404.81,-104.47 394.3,-103.08 395.73,-109.94"/>
</g>
<!-- Node8 -->
<g id="node8" class="node">
<title>Node8</title>
<g id="a_node8"><a xlink:href="classkazoo_1_1SymbolStream.html#a1276660b16a23ea24bd024fd8ba72b57" target="_top" xlink:title=" ">
<polygon fill="none" stroke="black" points="406.5,-27.5 406.5,-57.5 529.5,-57.5 529.5,-27.5 406.5,-27.5"/>
<text text-anchor="start" x="414.5" y="-45.5" font-family="Helvetica,sans-Serif" font-size="10.00">kazoo::SymbolStream</text>
<text text-anchor="middle" x="468" y="-34.5" font-family="Helvetica,sans-Serif" font-size="10.00">::getNumBits</text>
</a>
</g>
</g>
<!-- Node7&#45;&gt;Node8 -->
<g id="edge7" class="edge">
<title>Node7&#45;&gt;Node8</title>
<path fill="none" stroke="midnightblue" d="M316.75,-58.17C341.57,-55.58 370.46,-52.57 396.23,-49.88"/>
<polygon fill="midnightblue" stroke="midnightblue" points="396.73,-53.35 406.32,-48.83 396.01,-46.38 396.73,-53.35"/>
</g>
<!-- Node9 -->
<g id="node9" class="node">
<title>Node9</title>
<g id="a_node9"><a xlink:href="classkazoo_1_1ISymbolModel.html#a08668909fe1a7f901fe26ad30f9a1e30" target="_top" xlink:title=" ">
<polygon fill="none" stroke="black" points="593,-27.5 593,-57.5 714,-57.5 714,-27.5 593,-27.5"/>
<text text-anchor="start" x="601" y="-45.5" font-family="Helvetica,sans-Serif" font-size="10.00">kazoo::ISymbolModel</text>
<text text-anchor="middle" x="653.5" y="-34.5" font-family="Helvetica,sans-Serif" font-size="10.00">::getSymbolBitWidth</text>
</a>
</g>
</g>
<!-- Node8&#45;&gt;Node9 -->
<g id="edge8" class="edge">
<title>Node8&#45;&gt;Node9</title>
<path fill="none" stroke="midnightblue" d="M529.59,-42.5C546.61,-42.5 565.25,-42.5 582.75,-42.5"/>
<polygon fill="midnightblue" stroke="midnightblue" points="582.91,-46 592.91,-42.5 582.91,-39 582.91,-46"/>
</g>
</g>
</svg>
