<?xml version="1.0" encoding="UTF-8" standalone="no"?>
<!DOCTYPE svg PUBLIC "-//W3C//DTD SVG 1.1//EN"
 "http://www.w3.org/Graphics/SVG/1.1/DTD/svg11.dtd">
<!-- Generated by graphviz version 2.43.0 (0)
 -->
<!-- Title: kazoo::IEncoder::clear Pages: 1 -->
<svg width="623pt" height="61pt"
 viewBox="0.00 0.00 623.00 61.00" xmlns="http://www.w3.org/2000/svg" xmlns:xlink="http://www.w3.org/1999/xlink">
<g id="graph0" class="graph" transform="scale(1 1) rotate(0) translate(4 57)">
<title>kazoo::IEncoder::clear</title>
<!-- Node1 -->
<g id="node1" class="node">
<title>Node1</title>
<g id="a_node1"><a xlink:title=" ">
<polygon fill="#bfbfbf" stroke="black" points="492,-28 492,-47 615,-47 615,-28 492,-28"/>
<text text-anchor="middle" x="553.5" y="-35" font-family="Helvetica,sans-Serif" font-size="10.00">kazoo::IEncoder::clear</text>
</a>
</g>
</g>
<!-- Node2 -->
<g id="node2" class="node">
<title>Node2</title>
<g id="a_node2"><a xlink:href="classkazoo_1_1ModelTester.html#a702e366157b9a545b104494ae0924054" target="_top" xlink:title=" ">
<polygon fill="none" stroke="black" points="346,-22.5 346,-52.5 456,-52.5 456,-22.5 346,-22.5"/>
<text text-anchor="start" x="354" y="-40.5" font-family="Helvetica,sans-Serif" font-size="10.00">kazoo::ModelTester</text>
<text text-anchor="middle" x="401" y="-29.5" font-family="Helvetica,sans-Serif" font-size="10.00">::resetState</text>
</a>
</g>
</g>
<!-- Node1&#45;&gt;Node2 -->
<g id="edge1" class="edge">
<title>Node1&#45;&gt;Node2</title>
<path fill="none" stroke="midnightblue" d="M481.72,-37.5C473.15,-37.5 464.5,-37.5 456.21,-37.5"/>
<polygon fill="midnightblue" stroke="midnightblue" points="481.72,-41 491.72,-37.5 481.72,-34 481.72,-41"/>
</g>
<!-- Node3 -->
<g id="node3" class="node">
<title>Node3</title>
<g id="a_node3"><a xlink:href="classkazoo_1_1ModelTester.html#a7e596cfc6087c50c134a30707a33d6dc" target="_top" xlink:title=" ">
<polygon fill="none" stroke="black" points="0,-22.5 0,-52.5 110,-52.5 110,-22.5 0,-22.5"/>
<text text-anchor="start" x="8" y="-40.5" font-family="Helvetica,sans-Serif" font-size="10.00">kazoo::ModelTester</text>
<text text-anchor="middle" x="55" y="-29.5" font-family="Helvetica,sans-Serif" font-size="10.00">::runAllTests</text>
</a>
</g>
</g>
<!-- Node2&#45;&gt;Node3 -->
<g id="edge2" class="edge">
<title>Node2&#45;&gt;Node3</title>
<path fill="none" stroke="midnightblue" d="M335.7,-39.9C327.06,-40.15 318.31,-40.36 310,-40.5 237.12,-41.71 218.88,-41.71 146,-40.5 134.43,-40.31 122.03,-39.98 110.25,-39.6"/>
<polygon fill="midnightblue" stroke="midnightblue" points="335.86,-43.4 345.75,-39.6 335.65,-36.4 335.86,-43.4"/>
</g>
<!-- Node4 -->
<g id="node4" class="node">
<title>Node4</title>
<g id="a_node4"><a xlink:href="classkazoo_1_1ModelTester.html#a43e738d358a87f9f01cc8ad13c6964fe" target="_top" xlink:title=" ">
<polygon fill="none" stroke="black" points="146,-0.5 146,-30.5 310,-30.5 310,-0.5 146,-0.5"/>
<text text-anchor="start" x="154" y="-18.5" font-family="Helvetica,sans-Serif" font-size="10.00">kazoo::ModelTester</text>
<text text-anchor="middle" x="228" y="-7.5" font-family="Helvetica,sans-Serif" font-size="10.00">::test_gaussianNoiseTolerance</text>
</a>
</g>
</g>
<!-- Node2&#45;&gt;Node4 -->
<g id="edge3" class="edge">
<title>Node2&#45;&gt;Node4</title>
<path fill="none" stroke="midnightblue" d="M335.86,-29.25C327.5,-28.17 318.84,-27.06 310.24,-25.95"/>
<polygon fill="midnightblue" stroke="midnightblue" points="335.53,-32.73 345.89,-30.54 336.42,-25.79 335.53,-32.73"/>
</g>
<!-- Node4&#45;&gt;Node3 -->
<g id="edge4" class="edge">
<title>Node4&#45;&gt;Node3</title>
<path fill="none" stroke="midnightblue" d="M135.57,-27.26C126.91,-28.38 118.33,-29.48 110.19,-30.53"/>
<polygon fill="midnightblue" stroke="midnightblue" points="136.29,-30.7 145.76,-25.95 135.39,-23.76 136.29,-30.7"/>
</g>
</g>
</svg>
