<?xml version="1.0" encoding="UTF-8" standalone="no"?>
<!DOCTYPE svg PUBLIC "-//W3C//DTD SVG 1.1//EN"
 "http://www.w3.org/Graphics/SVG/1.1/DTD/svg11.dtd">
<!-- Generated by graphviz version 2.43.0 (0)
 -->
<!-- Title: kazoo::ModelTester::resetState Pages: 1 -->
<svg width="280pt" height="78pt"
 viewBox="0.00 0.00 280.00 77.50" xmlns="http://www.w3.org/2000/svg" xmlns:xlink="http://www.w3.org/1999/xlink">
<g id="graph0" class="graph" transform="scale(1 1) rotate(0) translate(4 73.5)">
<title>kazoo::ModelTester::resetState</title>
<!-- Node1 -->
<g id="node1" class="node">
<title>Node1</title>
<g id="a_node1"><a xlink:title=" ">
<polygon fill="#bfbfbf" stroke="black" points="0,-22.5 0,-52.5 110,-52.5 110,-22.5 0,-22.5"/>
<text text-anchor="start" x="8" y="-40.5" font-family="Helvetica,sans-Serif" font-size="10.00">kazoo::ModelTester</text>
<text text-anchor="middle" x="55" y="-29.5" font-family="Helvetica,sans-Serif" font-size="10.00">::resetState</text>
</a>
</g>
</g>
<!-- Node2 -->
<g id="node2" class="node">
<title>Node2</title>
<g id="a_node2"><a xlink:href="classkazoo_1_1IEncoder.html#a8f9aac087c06e7fe51aec3903843f644" target="_top" xlink:title=" ">
<polygon fill="none" stroke="black" points="147.5,-50 147.5,-69 270.5,-69 270.5,-50 147.5,-50"/>
<text text-anchor="middle" x="209" y="-57" font-family="Helvetica,sans-Serif" font-size="10.00">kazoo::IEncoder::clear</text>
</a>
</g>
</g>
<!-- Node1&#45;&gt;Node2 -->
<g id="edge1" class="edge">
<title>Node1&#45;&gt;Node2</title>
<path fill="none" stroke="midnightblue" d="M110.02,-45.32C118.92,-46.61 128.25,-47.96 137.48,-49.29"/>
<polygon fill="midnightblue" stroke="midnightblue" points="137.03,-52.76 147.43,-50.73 138.04,-45.84 137.03,-52.76"/>
</g>
<!-- Node3 -->
<g id="node3" class="node">
<title>Node3</title>
<g id="a_node3"><a xlink:href="classkazoo_1_1ISymbolStream.html#af55f1fe1a9b779fdd261ea6beb3420d3" target="_top" xlink:title="Clear/Reset the symbol stream.">
<polygon fill="none" stroke="black" points="146,-0.5 146,-30.5 272,-30.5 272,-0.5 146,-0.5"/>
<text text-anchor="start" x="154" y="-18.5" font-family="Helvetica,sans-Serif" font-size="10.00">kazoo::ISymbolStream</text>
<text text-anchor="middle" x="209" y="-7.5" font-family="Helvetica,sans-Serif" font-size="10.00">::clear</text>
</a>
</g>
</g>
<!-- Node1&#45;&gt;Node3 -->
<g id="edge2" class="edge">
<title>Node1&#45;&gt;Node3</title>
<path fill="none" stroke="midnightblue" d="M110.02,-29.68C118.36,-28.47 127.09,-27.21 135.75,-25.96"/>
<polygon fill="midnightblue" stroke="midnightblue" points="136.47,-29.39 145.86,-24.49 135.46,-22.46 136.47,-29.39"/>
</g>
</g>
</svg>
