<?xml version="1.0" encoding="UTF-8" standalone="no"?>
<!DOCTYPE svg PUBLIC "-//W3C//DTD SVG 1.1//EN"
 "http://www.w3.org/Graphics/SVG/1.1/DTD/svg11.dtd">
<!-- Generated by graphviz version 2.43.0 (0)
 -->
<!-- Title: kazoo::ModelTester::test_basicEncodeDecode Pages: 1 -->
<svg width="681pt" height="568pt"
 viewBox="0.00 0.00 681.00 568.00" xmlns="http://www.w3.org/2000/svg" xmlns:xlink="http://www.w3.org/1999/xlink">
<g id="graph0" class="graph" transform="scale(1 1) rotate(0) translate(4 564)">
<title>kazoo::ModelTester::test_basicEncodeDecode</title>
<!-- Node1 -->
<g id="node1" class="node">
<title>Node1</title>
<g id="a_node1"><a xlink:title=" ">
<polygon fill="#bfbfbf" stroke="black" points="0,-259.5 0,-289.5 144,-289.5 144,-259.5 0,-259.5"/>
<text text-anchor="start" x="8" y="-277.5" font-family="Helvetica,sans-Serif" font-size="10.00">kazoo::ModelTester</text>
<text text-anchor="middle" x="72" y="-266.5" font-family="Helvetica,sans-Serif" font-size="10.00">::test_basicEncodeDecode</text>
</a>
</g>
</g>
<!-- Node2 -->
<g id="node2" class="node">
<title>Node2</title>
<g id="a_node2"><a xlink:href="classkazoo_1_1BinaryStream.html#a5bcef3247636f3ffd53309244c9e6a10" target="_top" xlink:title="Add bytes to the stream. If the stream is not byte aligned when this function is called,...">
<polygon fill="none" stroke="black" points="210.5,-529.5 210.5,-559.5 328.5,-559.5 328.5,-529.5 210.5,-529.5"/>
<text text-anchor="start" x="218.5" y="-547.5" font-family="Helvetica,sans-Serif" font-size="10.00">kazoo::BinaryStream</text>
<text text-anchor="middle" x="269.5" y="-536.5" font-family="Helvetica,sans-Serif" font-size="10.00">::addBytes</text>
</a>
</g>
</g>
<!-- Node1&#45;&gt;Node2 -->
<g id="edge1" class="edge">
<title>Node1&#45;&gt;Node2</title>
<path fill="none" stroke="midnightblue" d="M75,-289.59C81.52,-332.57 106.18,-456.7 180,-520.5 186.01,-525.7 193.05,-529.78 200.47,-532.98"/>
<polygon fill="midnightblue" stroke="midnightblue" points="199.45,-536.34 210.04,-536.59 201.92,-529.79 199.45,-536.34"/>
</g>
<!-- Node4 -->
<g id="node4" class="node">
<title>Node4</title>
<g id="a_node4"><a xlink:href="classkazoo_1_1ISymbolStream.html#af55f1fe1a9b779fdd261ea6beb3420d3" target="_top" xlink:title="Clear/Reset the symbol stream.">
<polygon fill="none" stroke="black" points="206.5,-480.5 206.5,-510.5 332.5,-510.5 332.5,-480.5 206.5,-480.5"/>
<text text-anchor="start" x="214.5" y="-498.5" font-family="Helvetica,sans-Serif" font-size="10.00">kazoo::ISymbolStream</text>
<text text-anchor="middle" x="269.5" y="-487.5" font-family="Helvetica,sans-Serif" font-size="10.00">::clear</text>
</a>
</g>
</g>
<!-- Node1&#45;&gt;Node4 -->
<g id="edge3" class="edge">
<title>Node1&#45;&gt;Node4</title>
<path fill="none" stroke="midnightblue" d="M76.82,-289.76C86.9,-326.87 117.87,-422.38 180,-471.5 185.08,-475.52 190.78,-478.86 196.78,-481.65"/>
<polygon fill="midnightblue" stroke="midnightblue" points="195.82,-485.04 206.4,-485.59 198.47,-478.56 195.82,-485.04"/>
</g>
<!-- Node5 -->
<g id="node5" class="node">
<title>Node5</title>
<g id="a_node5"><a xlink:href="classkazoo_1_1ISymbolModel.html#a2c41b4fca45a1bb19613435c92fb91d4" target="_top" xlink:title=" ">
<polygon fill="none" stroke="black" points="200.5,-431.5 200.5,-461.5 338.5,-461.5 338.5,-431.5 200.5,-431.5"/>
<text text-anchor="start" x="208.5" y="-449.5" font-family="Helvetica,sans-Serif" font-size="10.00">kazoo::ISymbolModel</text>
<text text-anchor="middle" x="269.5" y="-438.5" font-family="Helvetica,sans-Serif" font-size="10.00">::decodeAudioToSymbols</text>
</a>
</g>
</g>
<!-- Node1&#45;&gt;Node5 -->
<g id="edge4" class="edge">
<title>Node1&#45;&gt;Node5</title>
<path fill="none" stroke="midnightblue" d="M79.67,-289.72C93.68,-319.87 129.14,-387.34 180,-422.5 183.46,-424.89 187.15,-427.05 190.99,-428.99"/>
<polygon fill="midnightblue" stroke="midnightblue" points="189.61,-432.2 200.16,-433.14 192.49,-425.83 189.61,-432.2"/>
</g>
<!-- Node6 -->
<g id="node6" class="node">
<title>Node6</title>
<g id="a_node6"><a xlink:href="classkazoo_1_1IEncoder.html#abe1a45e3899b69dc6ce63066a4f89cc3" target="_top" xlink:title=" ">
<polygon fill="none" stroke="black" points="180,-382.5 180,-412.5 359,-412.5 359,-382.5 180,-382.5"/>
<text text-anchor="start" x="188" y="-400.5" font-family="Helvetica,sans-Serif" font-size="10.00">kazoo::IEncoder::encodeAvailable</text>
<text text-anchor="middle" x="269.5" y="-389.5" font-family="Helvetica,sans-Serif" font-size="10.00">Symbols</text>
</a>
</g>
</g>
<!-- Node1&#45;&gt;Node6 -->
<g id="edge5" class="edge">
<title>Node1&#45;&gt;Node6</title>
<path fill="none" stroke="midnightblue" d="M85.15,-289.66C103.44,-311.45 140.15,-351.43 180,-373.5 183.26,-375.3 186.65,-376.98 190.14,-378.53"/>
<polygon fill="midnightblue" stroke="midnightblue" points="188.97,-381.83 199.55,-382.36 191.61,-375.35 188.97,-381.83"/>
</g>
<!-- Node7 -->
<g id="node7" class="node">
<title>Node7</title>
<g id="a_node7"><a xlink:href="classkazoo_1_1ModelTester.html#a972ca91e756c8f5975e8d69204260f13" target="_top" xlink:title=" ">
<polygon fill="none" stroke="black" points="214.5,-333.5 214.5,-363.5 324.5,-363.5 324.5,-333.5 214.5,-333.5"/>
<text text-anchor="start" x="222.5" y="-351.5" font-family="Helvetica,sans-Serif" font-size="10.00">kazoo::ModelTester</text>
<text text-anchor="middle" x="269.5" y="-340.5" font-family="Helvetica,sans-Serif" font-size="10.00">::expectTrue</text>
</a>
</g>
</g>
<!-- Node1&#45;&gt;Node7 -->
<g id="edge6" class="edge">
<title>Node1&#45;&gt;Node7</title>
<path fill="none" stroke="midnightblue" d="M101.94,-289.69C123.15,-300.4 152.85,-314.56 180,-324.5 187.84,-327.37 196.19,-330.07 204.5,-332.56"/>
<polygon fill="midnightblue" stroke="midnightblue" points="203.64,-335.95 214.21,-335.37 205.58,-329.23 203.64,-335.95"/>
</g>
<!-- Node10 -->
<g id="node10" class="node">
<title>Node10</title>
<g id="a_node10"><a xlink:href="classkazoo_1_1ISymbolStream.html#a9e3b2b62a64109d782aa7746041e7e95" target="_top" xlink:title=" ">
<polygon fill="none" stroke="black" points="206.5,-284.5 206.5,-314.5 332.5,-314.5 332.5,-284.5 206.5,-284.5"/>
<text text-anchor="start" x="214.5" y="-302.5" font-family="Helvetica,sans-Serif" font-size="10.00">kazoo::ISymbolStream</text>
<text text-anchor="middle" x="269.5" y="-291.5" font-family="Helvetica,sans-Serif" font-size="10.00">::getNumBytes</text>
</a>
</g>
</g>
<!-- Node1&#45;&gt;Node10 -->
<g id="edge9" class="edge">
<title>Node1&#45;&gt;Node10</title>
<path fill="none" stroke="midnightblue" d="M144.13,-283.6C161.2,-285.78 179.44,-288.11 196.54,-290.3"/>
<polygon fill="midnightblue" stroke="midnightblue" points="196.1,-293.77 206.46,-291.57 196.99,-286.83 196.1,-293.77"/>
</g>
<!-- Node11 -->
<g id="node11" class="node">
<title>Node11</title>
<g id="a_node11"><a xlink:href="classkazoo_1_1AudioChannel.html#a97d2202c18916b93bb72b4c540ba75ed" target="_top" xlink:title=" ">
<polygon fill="none" stroke="black" points="210,-235.5 210,-265.5 329,-265.5 329,-235.5 210,-235.5"/>
<text text-anchor="start" x="218" y="-253.5" font-family="Helvetica,sans-Serif" font-size="10.00">kazoo::AudioChannel</text>
<text text-anchor="middle" x="269.5" y="-242.5" font-family="Helvetica,sans-Serif" font-size="10.00">::getNumSamples</text>
</a>
</g>
</g>
<!-- Node1&#45;&gt;Node11 -->
<g id="edge10" class="edge">
<title>Node1&#45;&gt;Node11</title>
<path fill="none" stroke="midnightblue" d="M144.13,-265.77C162.29,-263.54 181.77,-261.15 199.8,-258.93"/>
<polygon fill="midnightblue" stroke="midnightblue" points="200.44,-262.38 209.94,-257.69 199.58,-255.43 200.44,-262.38"/>
</g>
<!-- Node12 -->
<g id="node12" class="node">
<title>Node12</title>
<g id="a_node12"><a xlink:href="classkazoo_1_1BinaryStream.html#a9cf1c3eb54ace654061894c7278b6d32" target="_top" xlink:title="Get a const reference to the underlying stream data.">
<polygon fill="none" stroke="black" points="207,-186.5 207,-216.5 332,-216.5 332,-186.5 207,-186.5"/>
<text text-anchor="start" x="215" y="-204.5" font-family="Helvetica,sans-Serif" font-size="10.00">kazoo::BinaryStream</text>
<text text-anchor="middle" x="269.5" y="-193.5" font-family="Helvetica,sans-Serif" font-size="10.00">::getStreamDataConst</text>
</a>
</g>
</g>
<!-- Node1&#45;&gt;Node12 -->
<g id="edge11" class="edge">
<title>Node1&#45;&gt;Node12</title>
<path fill="none" stroke="midnightblue" d="M103.41,-259.42C124.56,-249.29 153.59,-236.09 180,-226.5 186.71,-224.06 193.77,-221.72 200.86,-219.5"/>
<polygon fill="midnightblue" stroke="midnightblue" points="201.96,-222.82 210.51,-216.57 199.92,-216.13 201.96,-222.82"/>
</g>
<!-- Node13 -->
<g id="node13" class="node">
<title>Node13</title>
<g id="a_node13"><a xlink:href="classkazoo_1_1ISymbolModel.html#a08668909fe1a7f901fe26ad30f9a1e30" target="_top" xlink:title=" ">
<polygon fill="none" stroke="black" points="209,-137.5 209,-167.5 330,-167.5 330,-137.5 209,-137.5"/>
<text text-anchor="start" x="217" y="-155.5" font-family="Helvetica,sans-Serif" font-size="10.00">kazoo::ISymbolModel</text>
<text text-anchor="middle" x="269.5" y="-144.5" font-family="Helvetica,sans-Serif" font-size="10.00">::getSymbolBitWidth</text>
</a>
</g>
</g>
<!-- Node1&#45;&gt;Node13 -->
<g id="edge12" class="edge">
<title>Node1&#45;&gt;Node13</title>
<path fill="none" stroke="midnightblue" d="M85.56,-259.36C104.07,-238.01 140.74,-199.25 180,-177.5 186.01,-174.17 192.49,-171.26 199.12,-168.71"/>
<polygon fill="midnightblue" stroke="midnightblue" points="200.66,-171.88 208.91,-165.24 198.32,-165.28 200.66,-171.88"/>
</g>
<!-- Node14 -->
<g id="node14" class="node">
<title>Node14</title>
<g id="a_node14"><a xlink:href="classkazoo_1_1Logger.html#ab6e4c2a261f2b6b8481ab1d606f50177" target="_top" xlink:title=" ">
<polygon fill="none" stroke="black" points="395,-150 395,-169 532,-169 532,-150 395,-150"/>
<text text-anchor="middle" x="463.5" y="-157" font-family="Helvetica,sans-Serif" font-size="10.00">kazoo::Logger::logDebug</text>
</a>
</g>
</g>
<!-- Node1&#45;&gt;Node14 -->
<g id="edge13" class="edge">
<title>Node1&#45;&gt;Node14</title>
<path fill="none" stroke="midnightblue" d="M78.6,-259.17C91.09,-227.55 124.58,-155.71 180,-127.5 263.86,-84.82 379.48,-123.45 433.05,-145.96"/>
<polygon fill="midnightblue" stroke="midnightblue" points="431.75,-149.21 442.31,-149.95 434.52,-142.78 431.75,-149.21"/>
</g>
<!-- Node15 -->
<g id="node15" class="node">
<title>Node15</title>
<g id="a_node15"><a xlink:href="classkazoo_1_1ISymbolStream.html#a6dd43cbf09e35b93f95b1d3ad2bc7f0a" target="_top" xlink:title=" ">
<polygon fill="none" stroke="black" points="203.5,-49.5 203.5,-79.5 335.5,-79.5 335.5,-49.5 203.5,-49.5"/>
<text text-anchor="start" x="211.5" y="-67.5" font-family="Helvetica,sans-Serif" font-size="10.00">kazoo::ISymbolStream</text>
<text text-anchor="middle" x="269.5" y="-56.5" font-family="Helvetica,sans-Serif" font-size="10.00">::populateBinaryStream</text>
</a>
</g>
</g>
<!-- Node1&#45;&gt;Node15 -->
<g id="edge15" class="edge">
<title>Node1&#45;&gt;Node15</title>
<path fill="none" stroke="midnightblue" d="M77.92,-259.26C89.8,-224.8 123.35,-140.37 180,-94.5 184.96,-90.48 190.5,-86.99 196.3,-83.95"/>
<polygon fill="midnightblue" stroke="midnightblue" points="198.06,-86.99 205.61,-79.56 195.07,-80.66 198.06,-86.99"/>
</g>
<!-- Node16 -->
<g id="node16" class="node">
<title>Node16</title>
<g id="a_node16"><a xlink:href="classkazoo_1_1ISymbolStream.html#a5f31cbfcdd4d258dc14a0eb166a7b944" target="_top" xlink:title=" ">
<polygon fill="none" stroke="black" points="206,-0.5 206,-30.5 333,-30.5 333,-0.5 206,-0.5"/>
<text text-anchor="start" x="214" y="-18.5" font-family="Helvetica,sans-Serif" font-size="10.00">kazoo::ISymbolStream</text>
<text text-anchor="middle" x="269.5" y="-7.5" font-family="Helvetica,sans-Serif" font-size="10.00">::processBinaryStream</text>
</a>
</g>
</g>
<!-- Node1&#45;&gt;Node16 -->
<g id="edge16" class="edge">
<title>Node1&#45;&gt;Node16</title>
<path fill="none" stroke="midnightblue" d="M75.33,-259.48C82.59,-217.84 108.76,-100.01 180,-39.5 184.86,-35.37 190.36,-31.95 196.19,-29.11"/>
<polygon fill="midnightblue" stroke="midnightblue" points="197.74,-32.26 205.56,-25.12 194.99,-25.82 197.74,-32.26"/>
</g>
<!-- Node3 -->
<g id="node3" class="node">
<title>Node3</title>
<g id="a_node3"><a xlink:href="classkazoo_1_1BinaryStream.html#a32b6f202b2627b75ace2e6c9c07726aa" target="_top" xlink:title="Get the byte alignment status of the stream.">
<polygon fill="none" stroke="black" points="404.5,-529.5 404.5,-559.5 522.5,-559.5 522.5,-529.5 404.5,-529.5"/>
<text text-anchor="start" x="412.5" y="-547.5" font-family="Helvetica,sans-Serif" font-size="10.00">kazoo::BinaryStream</text>
<text text-anchor="middle" x="463.5" y="-536.5" font-family="Helvetica,sans-Serif" font-size="10.00">::isByteAligned</text>
</a>
</g>
</g>
<!-- Node2&#45;&gt;Node3 -->
<g id="edge2" class="edge">
<title>Node2&#45;&gt;Node3</title>
<path fill="none" stroke="midnightblue" d="M328.63,-544.5C349.3,-544.5 372.77,-544.5 394.22,-544.5"/>
<polygon fill="midnightblue" stroke="midnightblue" points="394.24,-548 404.24,-544.5 394.24,-541 394.24,-548"/>
</g>
<!-- Node8 -->
<g id="node8" class="node">
<title>Node8</title>
<g id="a_node8"><a xlink:href="classkazoo_1_1Logger.html#add67bfbca917a0cb6c9b4424c79eefeb" target="_top" xlink:title=" ">
<polygon fill="none" stroke="black" points="399.5,-238 399.5,-257 527.5,-257 527.5,-238 399.5,-238"/>
<text text-anchor="middle" x="463.5" y="-245" font-family="Helvetica,sans-Serif" font-size="10.00">kazoo::Logger::logError</text>
</a>
</g>
</g>
<!-- Node7&#45;&gt;Node8 -->
<g id="edge7" class="edge">
<title>Node7&#45;&gt;Node8</title>
<path fill="none" stroke="midnightblue" d="M324.56,-337.3C336.22,-333.94 348.26,-329.72 359,-324.5 392.14,-308.4 425.42,-281.2 444.99,-263.81"/>
<polygon fill="midnightblue" stroke="midnightblue" points="447.42,-266.32 452.49,-257.02 442.73,-261.13 447.42,-266.32"/>
</g>
<!-- Node9 -->
<g id="node9" class="node">
<title>Node9</title>
<g id="a_node9"><a xlink:href="classkazoo_1_1Logger.html#ab69883e34a35febd7597c646022ca0cb" target="_top" xlink:title=" ">
<polygon fill="none" stroke="black" points="568,-169 568,-188 673,-188 673,-169 568,-169"/>
<text text-anchor="middle" x="620.5" y="-176" font-family="Helvetica,sans-Serif" font-size="10.00">kazoo::Logger::log</text>
</a>
</g>
</g>
<!-- Node8&#45;&gt;Node9 -->
<g id="edge8" class="edge">
<title>Node8&#45;&gt;Node9</title>
<path fill="none" stroke="midnightblue" d="M486.05,-237.91C512.77,-226.01 558.5,-205.66 588.86,-192.14"/>
<polygon fill="midnightblue" stroke="midnightblue" points="590.42,-195.28 598.13,-188.01 587.57,-188.88 590.42,-195.28"/>
</g>
<!-- Node14&#45;&gt;Node9 -->
<g id="edge14" class="edge">
<title>Node14&#45;&gt;Node9</title>
<path fill="none" stroke="midnightblue" d="M532.03,-167.78C540.5,-168.82 549.13,-169.87 557.51,-170.9"/>
<polygon fill="midnightblue" stroke="midnightblue" points="557.22,-174.39 567.57,-172.13 558.07,-167.44 557.22,-174.39"/>
</g>
</g>
</svg>
