<?xml version="1.0" encoding="UTF-8" standalone="no"?>
<!DOCTYPE svg PUBLIC "-//W3C//DTD SVG 1.1//EN"
 "http://www.w3.org/Graphics/SVG/1.1/DTD/svg11.dtd">
<!-- Generated by graphviz version 2.43.0 (0)
 -->
<!-- Title: kazoo::BinaryStream::pad Pages: 1 -->
<svg width="561pt" height="140pt"
 viewBox="0.00 0.00 561.00 140.00" xmlns="http://www.w3.org/2000/svg" xmlns:xlink="http://www.w3.org/1999/xlink">
<g id="graph0" class="graph" transform="scale(1 1) rotate(0) translate(4 136)">
<title>kazoo::BinaryStream::pad</title>
<!-- Node1 -->
<g id="node1" class="node">
<title>Node1</title>
<g id="a_node1"><a xlink:title="If the last element is being used as a bit buffer, this will fill the remaining bits until the stream...">
<polygon fill="#bfbfbf" stroke="black" points="411,-44.5 411,-63.5 553,-63.5 553,-44.5 411,-44.5"/>
<text text-anchor="middle" x="482" y="-51.5" font-family="Helvetica,sans-Serif" font-size="10.00">kazoo::BinaryStream::pad</text>
</a>
</g>
</g>
<!-- Node2 -->
<g id="node2" class="node">
<title>Node2</title>
<g id="a_node2"><a xlink:href="classkazoo_1_1TranslationLayer.html#aa2783a8a2e4fb8fafa580e3cda27203e" target="_top" xlink:title=" ">
<polygon fill="none" stroke="black" points="244,-88 244,-118 375,-118 375,-88 244,-88"/>
<text text-anchor="start" x="252" y="-106" font-family="Helvetica,sans-Serif" font-size="10.00">kazoo::TranslationLayer</text>
<text text-anchor="middle" x="309.5" y="-95" font-family="Helvetica,sans-Serif" font-size="10.00">::listeningThreadFunc</text>
</a>
</g>
</g>
<!-- Node1&#45;&gt;Node2 -->
<g id="edge1" class="edge">
<title>Node1&#45;&gt;Node2</title>
<path fill="none" stroke="midnightblue" d="M437.97,-66.37C415.14,-72.93 386.91,-81.04 362.82,-87.96"/>
<polygon fill="midnightblue" stroke="midnightblue" points="439.08,-69.69 447.72,-63.56 437.14,-62.96 439.08,-69.69"/>
</g>
<!-- Node6 -->
<g id="node6" class="node">
<title>Node6</title>
<g id="a_node6"><a xlink:href="classkazoo_1_1TranslationLayer.html#a76f09d5f7213679a6656aa9473f8f2ab" target="_top" xlink:title=" ">
<polygon fill="none" stroke="black" points="244,-39 244,-69 375,-69 375,-39 244,-39"/>
<text text-anchor="start" x="252" y="-57" font-family="Helvetica,sans-Serif" font-size="10.00">kazoo::TranslationLayer</text>
<text text-anchor="middle" x="309.5" y="-46" font-family="Helvetica,sans-Serif" font-size="10.00">::loadAndDecodeWav</text>
</a>
</g>
</g>
<!-- Node1&#45;&gt;Node6 -->
<g id="edge5" class="edge">
<title>Node1&#45;&gt;Node6</title>
<path fill="none" stroke="midnightblue" d="M400.41,-54C391.96,-54 383.44,-54 375.2,-54"/>
<polygon fill="midnightblue" stroke="midnightblue" points="400.67,-57.5 410.67,-54 400.67,-50.5 400.67,-57.5"/>
</g>
<!-- Node7 -->
<g id="node7" class="node">
<title>Node7</title>
<g id="a_node7"><a xlink:href="binary__stream_8test_8cpp.html#a4adfd3c5c4d57fd921cc878fe8b146a5" target="_top" xlink:title=" ">
<polygon fill="none" stroke="black" points="289,-0.5 289,-19.5 330,-19.5 330,-0.5 289,-0.5"/>
<text text-anchor="middle" x="309.5" y="-7.5" font-family="Helvetica,sans-Serif" font-size="10.00">TEST</text>
</a>
</g>
</g>
<!-- Node1&#45;&gt;Node7 -->
<g id="edge6" class="edge">
<title>Node1&#45;&gt;Node7</title>
<path fill="none" stroke="midnightblue" d="M434.25,-41.93C400.17,-33.14 355.72,-21.67 330.42,-15.14"/>
<polygon fill="midnightblue" stroke="midnightblue" points="433.45,-45.34 444,-44.45 435.2,-38.56 433.45,-45.34"/>
</g>
<!-- Node3 -->
<g id="node3" class="node">
<title>Node3</title>
<g id="a_node3"><a xlink:href="classkazoo_1_1TranslationLayer.html#add62ed51f54492faf5a8ef388f1f0f58" target="_top" xlink:title="Starts listening for audio input on the default audio device.">
<polygon fill="none" stroke="black" points="77,-88 77,-118 208,-118 208,-88 77,-88"/>
<text text-anchor="start" x="85" y="-106" font-family="Helvetica,sans-Serif" font-size="10.00">kazoo::TranslationLayer</text>
<text text-anchor="middle" x="142.5" y="-95" font-family="Helvetica,sans-Serif" font-size="10.00">::startListening</text>
</a>
</g>
</g>
<!-- Node2&#45;&gt;Node3 -->
<g id="edge2" class="edge">
<title>Node2&#45;&gt;Node3</title>
<path fill="none" stroke="midnightblue" d="M233.76,-103C225.18,-103 216.48,-103 208.05,-103"/>
<polygon fill="midnightblue" stroke="midnightblue" points="233.76,-106.5 243.76,-103 233.76,-99.5 233.76,-106.5"/>
</g>
<!-- Node4 -->
<g id="node4" class="node">
<title>Node4</title>
<g id="a_node4"><a xlink:href="src_2kazoo__connect__server_2main_8cpp.html#ae66f6b31b5ad750f1fe042a706a4e3d4" target="_top" xlink:title=" ">
<polygon fill="none" stroke="black" points="0,-112.5 0,-131.5 41,-131.5 41,-112.5 0,-112.5"/>
<text text-anchor="middle" x="20.5" y="-119.5" font-family="Helvetica,sans-Serif" font-size="10.00">main</text>
</a>
</g>
</g>
<!-- Node3&#45;&gt;Node4 -->
<g id="edge3" class="edge">
<title>Node3&#45;&gt;Node4</title>
<path fill="none" stroke="midnightblue" d="M66.91,-114.81C57.43,-116.31 48.46,-117.73 41.05,-118.91"/>
<polygon fill="midnightblue" stroke="midnightblue" points="67.6,-118.24 76.93,-113.22 66.51,-111.33 67.6,-118.24"/>
</g>
<!-- Node5 -->
<g id="node5" class="node">
<title>Node5</title>
<g id="a_node5"><a xlink:href="translation__layer_8test_8cpp.html#a557311196b9a309f0d8377ef5af0c62c" target="_top" xlink:title=" ">
<polygon fill="none" stroke="black" points="0,-74.5 0,-93.5 41,-93.5 41,-74.5 0,-74.5"/>
<text text-anchor="middle" x="20.5" y="-81.5" font-family="Helvetica,sans-Serif" font-size="10.00">TEST</text>
</a>
</g>
</g>
<!-- Node3&#45;&gt;Node5 -->
<g id="edge4" class="edge">
<title>Node3&#45;&gt;Node5</title>
<path fill="none" stroke="midnightblue" d="M66.91,-91.19C57.43,-89.69 48.46,-88.27 41.05,-87.09"/>
<polygon fill="midnightblue" stroke="midnightblue" points="66.51,-94.67 76.93,-92.78 67.6,-87.76 66.51,-94.67"/>
</g>
</g>
</svg>
