<?xml version="1.0" encoding="UTF-8" standalone="no"?>
<!DOCTYPE svg PUBLIC "-//W3C//DTD SVG 1.1//EN"
 "http://www.w3.org/Graphics/SVG/1.1/DTD/svg11.dtd">
<!-- Generated by graphviz version 2.43.0 (0)
 -->
<!-- Title: kazoo::model::K1Model Pages: 1 -->
<svg width="391pt" height="226pt"
 viewBox="0.00 0.00 390.50 226.00" xmlns="http://www.w3.org/2000/svg" xmlns:xlink="http://www.w3.org/1999/xlink">
<g id="graph0" class="graph" transform="scale(1 1) rotate(0) translate(4 222)">
<title>kazoo::model::K1Model</title>
<!-- Node1 -->
<g id="node1" class="node">
<title>Node1</title>
<g id="a_node1"><a xlink:title=" ">
<polygon fill="#bfbfbf" stroke="black" points="107,-0.5 107,-57.5 238,-57.5 238,-0.5 107,-0.5"/>
<text text-anchor="middle" x="172.5" y="-45.5" font-family="Helvetica,sans-Serif" font-size="10.00">kazoo::model::K1Model</text>
<polyline fill="none" stroke="black" points="107,-38.5 238,-38.5 "/>
<text text-anchor="middle" x="172.5" y="-26.5" font-family="Helvetica,sans-Serif" font-size="10.00"> </text>
<polyline fill="none" stroke="black" points="107,-19.5 238,-19.5 "/>
<text text-anchor="middle" x="172.5" y="-7.5" font-family="Helvetica,sans-Serif" font-size="10.00"> </text>
</a>
</g>
</g>
<!-- Node2 -->
<g id="node2" class="node">
<title>Node2</title>
<g id="a_node2"><a xlink:title=" ">
<polygon fill="none" stroke="black" points="0,-155 0,-212 45,-212 45,-155 0,-155"/>
<text text-anchor="middle" x="22.5" y="-200" font-family="Helvetica,sans-Serif" font-size="10.00">size_t</text>
<polyline fill="none" stroke="black" points="0,-193 45,-193 "/>
<text text-anchor="middle" x="22.5" y="-181" font-family="Helvetica,sans-Serif" font-size="10.00"> </text>
<polyline fill="none" stroke="black" points="0,-174 45,-174 "/>
<text text-anchor="middle" x="22.5" y="-162" font-family="Helvetica,sans-Serif" font-size="10.00"> </text>
</a>
</g>
</g>
<!-- Node2&#45;&gt;Node1 -->
<g id="edge1" class="edge">
<title>Node2&#45;&gt;Node1</title>
<path fill="none" stroke="#404040" d="M20.2,-154.82C19.77,-131.21 23,-97.75 41.5,-76 55.34,-59.73 75.29,-49.21 95.46,-42.42"/>
<polygon fill="none" stroke="#404040" points="95.51,-42.4 100.09,-36.83 106.99,-38.92 102.41,-44.49 95.51,-42.4"/>
<text text-anchor="middle" x="105" y="-101" font-family="Helvetica,sans-Serif" font-size="10.00"> +SAMPLES_PER_SYMBOL</text>
</g>
<!-- Node3 -->
<g id="node3" class="node">
<title>Node3</title>
<g id="a_node3"><a xlink:title=" ">
<polygon fill="none" stroke="black" points="103,-149.5 103,-217.5 242,-217.5 242,-149.5 103,-149.5"/>
<text text-anchor="start" x="111" y="-205.5" font-family="Helvetica,sans-Serif" font-size="10.00">array&lt; int16_t, SAMPLES</text>
<text text-anchor="middle" x="172.5" y="-194.5" font-family="Helvetica,sans-Serif" font-size="10.00">_PER_SYMBOL &gt;</text>
<polyline fill="none" stroke="black" points="103,-187.5 242,-187.5 "/>
<text text-anchor="middle" x="172.5" y="-175.5" font-family="Helvetica,sans-Serif" font-size="10.00"> </text>
<polyline fill="none" stroke="black" points="103,-168.5 242,-168.5 "/>
<text text-anchor="middle" x="172.5" y="-156.5" font-family="Helvetica,sans-Serif" font-size="10.00"> </text>
</a>
</g>
</g>
<!-- Node3&#45;&gt;Node1 -->
<g id="edge2" class="edge">
<title>Node3&#45;&gt;Node1</title>
<path fill="none" stroke="#404040" d="M172.5,-149.41C172.5,-126.14 172.5,-94.86 172.5,-70.16"/>
<polygon fill="none" stroke="#404040" points="172.5,-69.92 168.5,-63.92 172.5,-57.92 176.5,-63.92 172.5,-69.92"/>
<text text-anchor="middle" x="227.5" y="-106.5" font-family="Helvetica,sans-Serif" font-size="10.00"> &#45;SYMBOL_0_SAMPLES</text>
<text text-anchor="middle" x="227.5" y="-95.5" font-family="Helvetica,sans-Serif" font-size="10.00">&#45;SYMBOL_1_SAMPLES</text>
</g>
<!-- Node4 -->
<g id="node4" class="node">
<title>Node4</title>
<g id="a_node4"><a xlink:title=" ">
<polygon fill="none" stroke="black" points="280.5,-155 280.5,-212 330.5,-212 330.5,-155 280.5,-155"/>
<text text-anchor="middle" x="305.5" y="-200" font-family="Helvetica,sans-Serif" font-size="10.00">double</text>
<polyline fill="none" stroke="black" points="280.5,-193 330.5,-193 "/>
<text text-anchor="middle" x="305.5" y="-181" font-family="Helvetica,sans-Serif" font-size="10.00"> </text>
<polyline fill="none" stroke="black" points="280.5,-174 330.5,-174 "/>
<text text-anchor="middle" x="305.5" y="-162" font-family="Helvetica,sans-Serif" font-size="10.00"> </text>
</a>
</g>
</g>
<!-- Node4&#45;&gt;Node1 -->
<g id="edge3" class="edge">
<title>Node4&#45;&gt;Node1</title>
<path fill="none" stroke="#404040" d="M306.6,-154.54C306.05,-131.08 301.66,-97.97 283.5,-76 274.36,-64.95 262.13,-56.51 249.12,-50.09"/>
<polygon fill="none" stroke="#404040" points="249.01,-50.04 241.91,-51.25 238.06,-45.15 245.17,-43.94 249.01,-50.04"/>
<text text-anchor="middle" x="343.5" y="-123" font-family="Helvetica,sans-Serif" font-size="10.00"> &#45;CENTER_FREQ</text>
<text text-anchor="middle" x="343.5" y="-112" font-family="Helvetica,sans-Serif" font-size="10.00">&#45;MAX_FREQ_A</text>
<text text-anchor="middle" x="343.5" y="-101" font-family="Helvetica,sans-Serif" font-size="10.00">&#45;MAX_FREQ_B</text>
<text text-anchor="middle" x="343.5" y="-90" font-family="Helvetica,sans-Serif" font-size="10.00">&#45;MIN_FREQ_A</text>
<text text-anchor="middle" x="343.5" y="-79" font-family="Helvetica,sans-Serif" font-size="10.00">&#45;MIN_FREQ_B</text>
</g>
</g>
</svg>
