<?xml version="1.0" encoding="UTF-8" standalone="no"?>
<!DOCTYPE svg PUBLIC "-//W3C//DTD SVG 1.1//EN"
 "http://www.w3.org/Graphics/SVG/1.1/DTD/svg11.dtd">
<!-- Generated by graphviz version 2.43.0 (0)
 -->
<!-- Title: kazoo::BinaryStream::getStreamDataConst Pages: 1 -->
<svg width="1341pt" height="257pt"
 viewBox="0.00 0.00 1341.00 256.50" xmlns="http://www.w3.org/2000/svg" xmlns:xlink="http://www.w3.org/1999/xlink">
<g id="graph0" class="graph" transform="scale(1 1) rotate(0) translate(4 252.5)">
<title>kazoo::BinaryStream::getStreamDataConst</title>
<!-- Node1 -->
<g id="node1" class="node">
<title>Node1</title>
<g id="a_node1"><a xlink:title="Get a const reference to the underlying stream data.">
<polygon fill="#bfbfbf" stroke="black" points="1208,-123.5 1208,-153.5 1333,-153.5 1333,-123.5 1208,-123.5"/>
<text text-anchor="start" x="1216" y="-141.5" font-family="Helvetica,sans-Serif" font-size="10.00">kazoo::BinaryStream</text>
<text text-anchor="middle" x="1270.5" y="-130.5" font-family="Helvetica,sans-Serif" font-size="10.00">::getStreamDataConst</text>
</a>
</g>
</g>
<!-- Node2 -->
<g id="node2" class="node">
<title>Node2</title>
<g id="a_node2"><a xlink:href="classkazoo_1_1ModelTester.html#a2d86a19402c92c173a6ffa8838835935" target="_top" xlink:title=" ">
<polygon fill="none" stroke="black" points="1001.5,-207 1001.5,-248 1162.5,-248 1162.5,-207 1001.5,-207"/>
<text text-anchor="start" x="1009.5" y="-236" font-family="Helvetica,sans-Serif" font-size="10.00">kazoo::ModelTester</text>
<text text-anchor="start" x="1009.5" y="-225" font-family="Helvetica,sans-Serif" font-size="10.00">::helper_decodeAudioChannel</text>
<text text-anchor="middle" x="1082" y="-214" font-family="Helvetica,sans-Serif" font-size="10.00">ToString</text>
</a>
</g>
</g>
<!-- Node1&#45;&gt;Node2 -->
<g id="edge1" class="edge">
<title>Node1&#45;&gt;Node2</title>
<path fill="none" stroke="midnightblue" d="M1234.56,-158.75C1216.2,-169.06 1193.16,-181.51 1172,-191.5 1160.7,-196.84 1148.38,-202.14 1136.61,-206.96"/>
<polygon fill="midnightblue" stroke="midnightblue" points="1236.46,-161.69 1243.43,-153.72 1233.01,-155.6 1236.46,-161.69"/>
</g>
<!-- Node5 -->
<g id="node5" class="node">
<title>Node5</title>
<g id="a_node5"><a xlink:href="binary__stream_8cpp.html#afd6109129b1bee507f167db4d707d6de" target="_top" xlink:title=" ">
<polygon fill="none" stroke="black" points="1045,-129 1045,-148 1119,-148 1119,-129 1045,-129"/>
<text text-anchor="middle" x="1082" y="-136" font-family="Helvetica,sans-Serif" font-size="10.00">operator&lt;&lt;</text>
</a>
</g>
</g>
<!-- Node1&#45;&gt;Node5 -->
<g id="edge4" class="edge">
<title>Node1&#45;&gt;Node5</title>
<path fill="none" stroke="midnightblue" d="M1197.76,-138.5C1170.9,-138.5 1141.52,-138.5 1119.22,-138.5"/>
<polygon fill="midnightblue" stroke="midnightblue" points="1197.92,-142 1207.92,-138.5 1197.92,-135 1197.92,-142"/>
</g>
<!-- Node6 -->
<g id="node6" class="node">
<title>Node6</title>
<g id="a_node6"><a xlink:href="classkazoo_1_1Deframer.html#a919b00cfd64865233361bf4779674b6a" target="_top" xlink:title=" ">
<polygon fill="none" stroke="black" points="992,-88 992,-107 1172,-107 1172,-88 992,-88"/>
<text text-anchor="middle" x="1082" y="-95" font-family="Helvetica,sans-Serif" font-size="10.00">kazoo::Deframer::printFrameData</text>
</a>
</g>
</g>
<!-- Node1&#45;&gt;Node6 -->
<g id="edge5" class="edge">
<title>Node1&#45;&gt;Node6</title>
<path fill="none" stroke="midnightblue" d="M1198.05,-122.79C1173.84,-117.47 1147.56,-111.69 1126.24,-107.01"/>
<polygon fill="midnightblue" stroke="midnightblue" points="1197.4,-126.23 1207.92,-124.96 1198.9,-119.4 1197.4,-126.23"/>
</g>
<!-- Node12 -->
<g id="node12" class="node">
<title>Node12</title>
<g id="a_node12"><a xlink:href="symbol__stream_8test_8cpp.html#a6649846ac517122a5ce6489b52046605" target="_top" xlink:title=" ">
<polygon fill="none" stroke="black" points="1061.5,-50 1061.5,-69 1102.5,-69 1102.5,-50 1061.5,-50"/>
<text text-anchor="middle" x="1082" y="-57" font-family="Helvetica,sans-Serif" font-size="10.00">TEST</text>
</a>
</g>
</g>
<!-- Node1&#45;&gt;Node12 -->
<g id="edge17" class="edge">
<title>Node1&#45;&gt;Node12</title>
<path fill="none" stroke="midnightblue" d="M1241.3,-117.55C1222.53,-104.54 1196.85,-88.45 1172,-78.5 1149.12,-69.34 1121.08,-64.28 1102.66,-61.74"/>
<polygon fill="midnightblue" stroke="midnightblue" points="1239.48,-120.55 1249.67,-123.46 1243.52,-114.83 1239.48,-120.55"/>
</g>
<!-- Node13 -->
<g id="node13" class="node">
<title>Node13</title>
<g id="a_node13"><a xlink:href="classkazoo_1_1ModelTester.html#ae04082b16f30df3b2200f4d090b0337b" target="_top" xlink:title=" ">
<polygon fill="none" stroke="black" points="799,-164.5 799,-194.5 943,-194.5 943,-164.5 799,-164.5"/>
<text text-anchor="start" x="807" y="-182.5" font-family="Helvetica,sans-Serif" font-size="10.00">kazoo::ModelTester</text>
<text text-anchor="middle" x="871" y="-171.5" font-family="Helvetica,sans-Serif" font-size="10.00">::test_basicEncodeDecode</text>
</a>
</g>
</g>
<!-- Node1&#45;&gt;Node13 -->
<g id="edge18" class="edge">
<title>Node1&#45;&gt;Node13</title>
<path fill="none" stroke="midnightblue" d="M1197.71,-153.49C1189.07,-155 1180.35,-156.38 1172,-157.5 1094.1,-167.91 1004.11,-173.68 943.16,-176.67"/>
<polygon fill="midnightblue" stroke="midnightblue" points="1198.57,-156.9 1207.79,-151.68 1197.33,-150.01 1198.57,-156.9"/>
</g>
<!-- Node3 -->
<g id="node3" class="node">
<title>Node3</title>
<g id="a_node3"><a xlink:href="classkazoo_1_1ModelTester.html#a43e738d358a87f9f01cc8ad13c6964fe" target="_top" xlink:title=" ">
<polygon fill="none" stroke="black" points="789,-213.5 789,-243.5 953,-243.5 953,-213.5 789,-213.5"/>
<text text-anchor="start" x="797" y="-231.5" font-family="Helvetica,sans-Serif" font-size="10.00">kazoo::ModelTester</text>
<text text-anchor="middle" x="871" y="-220.5" font-family="Helvetica,sans-Serif" font-size="10.00">::test_gaussianNoiseTolerance</text>
</a>
</g>
</g>
<!-- Node2&#45;&gt;Node3 -->
<g id="edge2" class="edge">
<title>Node2&#45;&gt;Node3</title>
<path fill="none" stroke="midnightblue" d="M991.3,-227.93C978.61,-227.99 965.63,-228.05 953.12,-228.11"/>
<polygon fill="midnightblue" stroke="midnightblue" points="991.41,-231.43 1001.39,-227.88 991.37,-224.43 991.41,-231.43"/>
</g>
<!-- Node4 -->
<g id="node4" class="node">
<title>Node4</title>
<g id="a_node4"><a xlink:href="classkazoo_1_1ModelTester.html#a7e596cfc6087c50c134a30707a33d6dc" target="_top" xlink:title=" ">
<polygon fill="none" stroke="black" points="607,-188.5 607,-218.5 717,-218.5 717,-188.5 607,-188.5"/>
<text text-anchor="start" x="615" y="-206.5" font-family="Helvetica,sans-Serif" font-size="10.00">kazoo::ModelTester</text>
<text text-anchor="middle" x="662" y="-195.5" font-family="Helvetica,sans-Serif" font-size="10.00">::runAllTests</text>
</a>
</g>
</g>
<!-- Node3&#45;&gt;Node4 -->
<g id="edge3" class="edge">
<title>Node3&#45;&gt;Node4</title>
<path fill="none" stroke="midnightblue" d="M778.85,-217.49C757.82,-214.95 736.09,-212.33 717.21,-210.05"/>
<polygon fill="midnightblue" stroke="midnightblue" points="778.43,-220.97 788.78,-218.69 779.27,-214.02 778.43,-220.97"/>
</g>
<!-- Node7 -->
<g id="node7" class="node">
<title>Node7</title>
<g id="a_node7"><a xlink:href="classkazoo_1_1Deframer.html#ad544e3c1a1301cc5ab77389eab411b03" target="_top" xlink:title=" ">
<polygon fill="none" stroke="black" points="574,-88 574,-107 750,-107 750,-88 574,-88"/>
<text text-anchor="middle" x="662" y="-95" font-family="Helvetica,sans-Serif" font-size="10.00">kazoo::Deframer::findFrameData</text>
</a>
</g>
</g>
<!-- Node6&#45;&gt;Node7 -->
<g id="edge6" class="edge">
<title>Node6&#45;&gt;Node7</title>
<path fill="none" stroke="midnightblue" d="M981.63,-97.5C911.25,-97.5 817.73,-97.5 750.23,-97.5"/>
<polygon fill="midnightblue" stroke="midnightblue" points="981.84,-101 991.84,-97.5 981.84,-94 981.84,-101"/>
</g>
<!-- Node8 -->
<g id="node8" class="node">
<title>Node8</title>
<g id="a_node8"><a xlink:href="classkazoo_1_1Deframer.html#a79d8b406e773fdc32d7c5002b9e37e2b" target="_top" xlink:title=" ">
<polygon fill="none" stroke="black" points="365,-50 365,-69 538,-69 538,-50 365,-50"/>
<text text-anchor="middle" x="451.5" y="-57" font-family="Helvetica,sans-Serif" font-size="10.00">kazoo::Deframer::findFrameSize</text>
</a>
</g>
</g>
<!-- Node6&#45;&gt;Node8 -->
<g id="edge15" class="edge">
<title>Node6&#45;&gt;Node8</title>
<path fill="none" stroke="midnightblue" d="M981.84,-91.5C859.59,-84.11 653.83,-71.67 538.15,-64.68"/>
<polygon fill="midnightblue" stroke="midnightblue" points="981.76,-95.01 991.95,-92.12 982.18,-88.02 981.76,-95.01"/>
</g>
<!-- Node9 -->
<g id="node9" class="node">
<title>Node9</title>
<g id="a_node9"><a xlink:href="classkazoo_1_1Deframer.html#a7dc1caffad1ffe4925a3e13d8d125024" target="_top" xlink:title=" ">
<polygon fill="none" stroke="black" points="177,-0.5 177,-30.5 329,-30.5 329,-0.5 177,-0.5"/>
<text text-anchor="start" x="185" y="-18.5" font-family="Helvetica,sans-Serif" font-size="10.00">kazoo::Deframer::findFrame</text>
<text text-anchor="middle" x="253" y="-7.5" font-family="Helvetica,sans-Serif" font-size="10.00">Start</text>
</a>
</g>
</g>
<!-- Node6&#45;&gt;Node9 -->
<g id="edge16" class="edge">
<title>Node6&#45;&gt;Node9</title>
<path fill="none" stroke="midnightblue" d="M1022.73,-86.14C1001.76,-82.34 977.88,-78.35 956,-75.5 728.58,-45.83 457.71,-27.43 329.04,-19.72"/>
<polygon fill="midnightblue" stroke="midnightblue" points="1022.31,-89.62 1032.78,-87.98 1023.57,-82.73 1022.31,-89.62"/>
</g>
<!-- Node11 -->
<g id="node11" class="node">
<title>Node11</title>
<g id="a_node11"><a xlink:href="classkazoo_1_1Deframer.html#ae4c8d8b5f7e2bc50183fc1b758fc21a8" target="_top" xlink:title=" ">
<polygon fill="none" stroke="black" points="786,-126 786,-145 956,-145 956,-126 786,-126"/>
<text text-anchor="middle" x="871" y="-133" font-family="Helvetica,sans-Serif" font-size="10.00">kazoo::Deframer::findFrameEnd</text>
</a>
</g>
</g>
<!-- Node6&#45;&gt;Node11 -->
<g id="edge12" class="edge">
<title>Node6&#45;&gt;Node11</title>
<path fill="none" stroke="midnightblue" d="M1018.59,-108.85C988.61,-114.3 953.07,-120.76 924.49,-125.96"/>
<polygon fill="midnightblue" stroke="midnightblue" points="1019.32,-112.27 1028.53,-107.04 1018.07,-105.39 1019.32,-112.27"/>
</g>
<!-- Node7&#45;&gt;Node8 -->
<g id="edge7" class="edge">
<title>Node7&#45;&gt;Node8</title>
<path fill="none" stroke="midnightblue" d="M598.74,-86.15C568.83,-80.7 533.37,-74.24 504.87,-69.04"/>
<polygon fill="midnightblue" stroke="midnightblue" points="598.19,-89.61 608.66,-87.96 599.45,-82.72 598.19,-89.61"/>
</g>
<!-- Node10 -->
<g id="node10" class="node">
<title>Node10</title>
<g id="a_node10"><a xlink:href="classkazoo_1_1Deframer.html#a742de19b3ca490d3faabfcbb64785998" target="_top" xlink:title="Process the input binary stream in a stateful manner to extract frames from sequential stream inputs.">
<polygon fill="none" stroke="black" points="0,-63.5 0,-93.5 141,-93.5 141,-63.5 0,-63.5"/>
<text text-anchor="start" x="8" y="-81.5" font-family="Helvetica,sans-Serif" font-size="10.00">kazoo::Deframer::process</text>
<text text-anchor="middle" x="70.5" y="-70.5" font-family="Helvetica,sans-Serif" font-size="10.00">Input</text>
</a>
</g>
</g>
<!-- Node7&#45;&gt;Node10 -->
<g id="edge11" class="edge">
<title>Node7&#45;&gt;Node10</title>
<path fill="none" stroke="midnightblue" d="M563.84,-94.69C466.11,-91.81 311.09,-87.12 177,-82.5 165.37,-82.1 153.02,-81.65 141.02,-81.2"/>
<polygon fill="midnightblue" stroke="midnightblue" points="563.9,-98.19 574,-94.98 564.11,-91.19 563.9,-98.19"/>
</g>
<!-- Node8&#45;&gt;Node9 -->
<g id="edge8" class="edge">
<title>Node8&#45;&gt;Node9</title>
<path fill="none" stroke="midnightblue" d="M398.06,-47.76C374.49,-42.48 346.38,-36.19 321.28,-30.57"/>
<polygon fill="midnightblue" stroke="midnightblue" points="397.34,-51.18 407.86,-49.95 398.87,-44.35 397.34,-51.18"/>
</g>
<!-- Node8&#45;&gt;Node10 -->
<g id="edge10" class="edge">
<title>Node8&#45;&gt;Node10</title>
<path fill="none" stroke="midnightblue" d="M354.9,-64.29C288.38,-67.63 201.2,-72 141.2,-75.01"/>
<polygon fill="midnightblue" stroke="midnightblue" points="355.16,-67.78 364.97,-63.79 354.81,-60.79 355.16,-67.78"/>
</g>
<!-- Node9&#45;&gt;Node10 -->
<g id="edge9" class="edge">
<title>Node9&#45;&gt;Node10</title>
<path fill="none" stroke="midnightblue" d="M199.13,-33.95C172.27,-43.33 140.05,-54.58 114.69,-63.42"/>
<polygon fill="midnightblue" stroke="midnightblue" points="200.48,-37.19 208.77,-30.59 198.17,-30.58 200.48,-37.19"/>
</g>
<!-- Node11&#45;&gt;Node7 -->
<g id="edge13" class="edge">
<title>Node11&#45;&gt;Node7</title>
<path fill="none" stroke="midnightblue" d="M808.19,-124.15C778.49,-118.7 743.29,-112.24 714.99,-107.04"/>
<polygon fill="midnightblue" stroke="midnightblue" points="807.56,-127.6 818.03,-125.96 808.83,-120.71 807.56,-127.6"/>
</g>
<!-- Node11&#45;&gt;Node10 -->
<g id="edge14" class="edge">
<title>Node11&#45;&gt;Node10</title>
<path fill="none" stroke="midnightblue" d="M775.74,-134.46C642.09,-132.09 390.04,-124.26 177,-98.5 165.34,-97.09 153.03,-95.16 141.1,-93.06"/>
<polygon fill="midnightblue" stroke="midnightblue" points="775.89,-137.97 785.95,-134.64 776.01,-130.97 775.89,-137.97"/>
</g>
<!-- Node13&#45;&gt;Node4 -->
<g id="edge19" class="edge">
<title>Node13&#45;&gt;Node4</title>
<path fill="none" stroke="midnightblue" d="M788.59,-188.94C764.56,-191.72 738.88,-194.7 717.03,-197.24"/>
<polygon fill="midnightblue" stroke="midnightblue" points="789.23,-192.39 798.76,-187.76 788.43,-185.43 789.23,-192.39"/>
</g>
</g>
</svg>
