<?xml version="1.0" encoding="UTF-8" standalone="no"?>
<!DOCTYPE svg PUBLIC "-//W3C//DTD SVG 1.1//EN"
 "http://www.w3.org/Graphics/SVG/1.1/DTD/svg11.dtd">
<!-- Generated by graphviz version 2.43.0 (0)
 -->
<!-- Title: kazoo::ISymbolModel::getSymbolBitWidth Pages: 1 -->
<svg width="938pt" height="343pt"
 viewBox="0.00 0.00 938.00 343.00" xmlns="http://www.w3.org/2000/svg" xmlns:xlink="http://www.w3.org/1999/xlink">
<g id="graph0" class="graph" transform="scale(1 1) rotate(0) translate(4 339)">
<title>kazoo::ISymbolModel::getSymbolBitWidth</title>
<!-- Node1 -->
<g id="node1" class="node">
<title>Node1</title>
<g id="a_node1"><a xlink:title=" ">
<polygon fill="#bfbfbf" stroke="black" points="809,-121 809,-151 930,-151 930,-121 809,-121"/>
<text text-anchor="start" x="817" y="-139" font-family="Helvetica,sans-Serif" font-size="10.00">kazoo::ISymbolModel</text>
<text text-anchor="middle" x="869.5" y="-128" font-family="Helvetica,sans-Serif" font-size="10.00">::getSymbolBitWidth</text>
</a>
</g>
</g>
<!-- Node2 -->
<g id="node2" class="node">
<title>Node2</title>
<g id="a_node2"><a xlink:href="classkazoo_1_1SymbolStream.html#a1276660b16a23ea24bd024fd8ba72b57" target="_top" xlink:title=" ">
<polygon fill="none" stroke="black" points="631,-187 631,-217 754,-217 754,-187 631,-187"/>
<text text-anchor="start" x="639" y="-205" font-family="Helvetica,sans-Serif" font-size="10.00">kazoo::SymbolStream</text>
<text text-anchor="middle" x="692.5" y="-194" font-family="Helvetica,sans-Serif" font-size="10.00">::getNumBits</text>
</a>
</g>
</g>
<!-- Node1&#45;&gt;Node2 -->
<g id="edge1" class="edge">
<title>Node1&#45;&gt;Node2</title>
<path fill="none" stroke="midnightblue" d="M818.7,-154.78C791.69,-164.97 758.77,-177.38 733.46,-186.93"/>
<polygon fill="midnightblue" stroke="midnightblue" points="820.23,-157.95 828.35,-151.14 817.76,-151.4 820.23,-157.95"/>
</g>
<!-- Node11 -->
<g id="node11" class="node">
<title>Node11</title>
<g id="a_node11"><a xlink:href="classkazoo_1_1SymbolStream.html#a6d4fe37e7f9c05587d95de99c84be743" target="_top" xlink:title=" ">
<polygon fill="none" stroke="black" points="244,-99 244,-129 376,-129 376,-99 244,-99"/>
<text text-anchor="start" x="252" y="-117" font-family="Helvetica,sans-Serif" font-size="10.00">kazoo::SymbolStream</text>
<text text-anchor="middle" x="310" y="-106" font-family="Helvetica,sans-Serif" font-size="10.00">::populateBinaryStream</text>
</a>
</g>
</g>
<!-- Node1&#45;&gt;Node11 -->
<g id="edge21" class="edge">
<title>Node1&#45;&gt;Node11</title>
<path fill="none" stroke="midnightblue" d="M798.78,-138.44C790.1,-138.67 781.34,-138.87 773,-139 701.45,-140.12 683.49,-141.96 612,-139 530.53,-135.62 436.98,-127.12 376.08,-120.97"/>
<polygon fill="midnightblue" stroke="midnightblue" points="799,-141.94 808.9,-138.16 798.81,-134.94 799,-141.94"/>
</g>
<!-- Node14 -->
<g id="node14" class="node">
<title>Node14</title>
<g id="a_node14"><a xlink:href="classkazoo_1_1ISymbolModel.html#a7cc0418ce8bb674f20483748a3cf3dd6" target="_top" xlink:title=" ">
<polygon fill="none" stroke="black" points="632,-99 632,-129 753,-129 753,-99 632,-99"/>
<text text-anchor="start" x="640" y="-117" font-family="Helvetica,sans-Serif" font-size="10.00">kazoo::ISymbolModel</text>
<text text-anchor="middle" x="692.5" y="-106" font-family="Helvetica,sans-Serif" font-size="10.00">::getSymbolBitMask</text>
</a>
</g>
</g>
<!-- Node1&#45;&gt;Node14 -->
<g id="edge17" class="edge">
<title>Node1&#45;&gt;Node14</title>
<path fill="none" stroke="midnightblue" d="M798.52,-127.2C783.53,-125.32 767.83,-123.34 753.26,-121.51"/>
<polygon fill="midnightblue" stroke="midnightblue" points="798.41,-130.72 808.76,-128.49 799.28,-123.77 798.41,-130.72"/>
</g>
<!-- Node15 -->
<g id="node15" class="node">
<title>Node15</title>
<g id="a_node15"><a xlink:href="classkazoo_1_1ModelTester.html#ae3b12528cffc8ff611b85d82c63d84c5" target="_top" xlink:title=" ">
<polygon fill="none" stroke="black" points="612,-0.5 612,-41.5 773,-41.5 773,-0.5 612,-0.5"/>
<text text-anchor="start" x="620" y="-29.5" font-family="Helvetica,sans-Serif" font-size="10.00">kazoo::ModelTester</text>
<text text-anchor="start" x="620" y="-18.5" font-family="Helvetica,sans-Serif" font-size="10.00">::helper_encodeStringToAudio</text>
<text text-anchor="middle" x="692.5" y="-7.5" font-family="Helvetica,sans-Serif" font-size="10.00">Channel</text>
</a>
</g>
</g>
<!-- Node1&#45;&gt;Node15 -->
<g id="edge18" class="edge">
<title>Node1&#45;&gt;Node15</title>
<path fill="none" stroke="midnightblue" d="M845.99,-113.97C827.49,-96.67 800,-72.78 773,-56 764.55,-50.75 755.17,-45.88 745.9,-41.54"/>
<polygon fill="midnightblue" stroke="midnightblue" points="843.68,-116.6 853.34,-120.94 848.49,-111.52 843.68,-116.6"/>
</g>
<!-- Node18 -->
<g id="node18" class="node">
<title>Node18</title>
<g id="a_node18"><a xlink:href="classkazoo_1_1SymbolStream.html#a483b690f6e07727669434375cbb23586" target="_top" xlink:title="Process a binary stream and convert it to symbols, removing the bits from the binary stream.">
<polygon fill="none" stroke="black" points="629,-272 629,-302 756,-302 756,-272 629,-272"/>
<text text-anchor="start" x="637" y="-290" font-family="Helvetica,sans-Serif" font-size="10.00">kazoo::SymbolStream</text>
<text text-anchor="middle" x="692.5" y="-279" font-family="Helvetica,sans-Serif" font-size="10.00">::processBinaryStream</text>
</a>
</g>
</g>
<!-- Node1&#45;&gt;Node18 -->
<g id="edge22" class="edge">
<title>Node1&#45;&gt;Node18</title>
<path fill="none" stroke="midnightblue" d="M846.52,-158.34C827.58,-177.24 799.24,-204.72 773,-227 754.02,-243.12 731.24,-260.09 714.94,-271.85"/>
<polygon fill="midnightblue" stroke="midnightblue" points="849.2,-160.61 853.78,-151.05 844.24,-155.67 849.2,-160.61"/>
</g>
<!-- Node20 -->
<g id="node20" class="node">
<title>Node20</title>
<g id="a_node20"><a xlink:href="classkazoo_1_1ModelTester.html#ae04082b16f30df3b2200f4d090b0337b" target="_top" xlink:title=" ">
<polygon fill="none" stroke="black" points="422,-55 422,-85 566,-85 566,-55 422,-55"/>
<text text-anchor="start" x="430" y="-73" font-family="Helvetica,sans-Serif" font-size="10.00">kazoo::ModelTester</text>
<text text-anchor="middle" x="494" y="-62" font-family="Helvetica,sans-Serif" font-size="10.00">::test_basicEncodeDecode</text>
</a>
</g>
</g>
<!-- Node1&#45;&gt;Node20 -->
<g id="edge25" class="edge">
<title>Node1&#45;&gt;Node20</title>
<path fill="none" stroke="midnightblue" d="M835.13,-116.08C817.32,-106.46 794.65,-95.77 773,-90 704.38,-71.72 623.08,-67.83 566.19,-67.83"/>
<polygon fill="midnightblue" stroke="midnightblue" points="833.53,-119.19 843.97,-120.98 836.92,-113.07 833.53,-119.19"/>
</g>
<!-- Node3 -->
<g id="node3" class="node">
<title>Node3</title>
<g id="a_node3"><a xlink:href="classkazoo_1_1SymbolStream.html#a5eb190a46e077143f1abcaf2211a0ad0" target="_top" xlink:title=" ">
<polygon fill="none" stroke="black" points="432.5,-187 432.5,-217 555.5,-217 555.5,-187 432.5,-187"/>
<text text-anchor="start" x="440.5" y="-205" font-family="Helvetica,sans-Serif" font-size="10.00">kazoo::SymbolStream</text>
<text text-anchor="middle" x="494" y="-194" font-family="Helvetica,sans-Serif" font-size="10.00">::getNumBytes</text>
</a>
</g>
</g>
<!-- Node2&#45;&gt;Node3 -->
<g id="edge2" class="edge">
<title>Node2&#45;&gt;Node3</title>
<path fill="none" stroke="midnightblue" d="M620.67,-202C599.39,-202 576.25,-202 555.7,-202"/>
<polygon fill="midnightblue" stroke="midnightblue" points="620.94,-205.5 630.94,-202 620.94,-198.5 620.94,-205.5"/>
</g>
<!-- Node13 -->
<g id="node13" class="node">
<title>Node13</title>
<g id="a_node13"><a xlink:href="binary__model_8test_8cpp.html#a2ab2088bc8f63bfedc115d9edb0cac65" target="_top" xlink:title=" ">
<polygon fill="none" stroke="black" points="289.5,-236.5 289.5,-255.5 330.5,-255.5 330.5,-236.5 289.5,-236.5"/>
<text text-anchor="middle" x="310" y="-243.5" font-family="Helvetica,sans-Serif" font-size="10.00">TEST</text>
</a>
</g>
</g>
<!-- Node2&#45;&gt;Node13 -->
<g id="edge16" class="edge">
<title>Node2&#45;&gt;Node13</title>
<path fill="none" stroke="midnightblue" d="M620.87,-218.94C606.12,-222.02 590.6,-224.91 576,-227 484.91,-240.06 374.86,-244.3 330.72,-245.54"/>
<polygon fill="midnightblue" stroke="midnightblue" points="621.9,-222.3 630.95,-216.79 620.44,-215.46 621.9,-222.3"/>
</g>
<!-- Node4 -->
<g id="node4" class="node">
<title>Node4</title>
<g id="a_node4"><a xlink:href="classkazoo_1_1TranslationLayer.html#a6b80b010d94b9f1373fea308d1c6d435" target="_top" xlink:title="Takes input data and processes it through the symbol stream.">
<polygon fill="none" stroke="black" points="244.5,-275 244.5,-305 375.5,-305 375.5,-275 244.5,-275"/>
<text text-anchor="start" x="252.5" y="-293" font-family="Helvetica,sans-Serif" font-size="10.00">kazoo::TranslationLayer</text>
<text text-anchor="middle" x="310" y="-282" font-family="Helvetica,sans-Serif" font-size="10.00">::addData</text>
</a>
</g>
</g>
<!-- Node3&#45;&gt;Node4 -->
<g id="edge3" class="edge">
<title>Node3&#45;&gt;Node4</title>
<path fill="none" stroke="midnightblue" d="M458.3,-222.19C435.32,-235.17 404.32,-251.99 376,-265 368.53,-268.43 360.44,-271.8 352.59,-274.91"/>
<polygon fill="midnightblue" stroke="midnightblue" points="460.04,-225.22 467,-217.23 456.58,-219.14 460.04,-225.22"/>
</g>
<!-- Node9 -->
<g id="node9" class="node">
<title>Node9</title>
<g id="a_node9"><a xlink:href="classkazoo_1_1TranslationLayer.html#ae6af635a406681696216d31a11dd64f9" target="_top" xlink:title=" ">
<polygon fill="none" stroke="black" points="244.5,-187 244.5,-217 375.5,-217 375.5,-187 244.5,-187"/>
<text text-anchor="start" x="252.5" y="-205" font-family="Helvetica,sans-Serif" font-size="10.00">kazoo::TranslationLayer</text>
<text text-anchor="middle" x="310" y="-194" font-family="Helvetica,sans-Serif" font-size="10.00">::encode</text>
</a>
</g>
</g>
<!-- Node3&#45;&gt;Node9 -->
<g id="edge8" class="edge">
<title>Node3&#45;&gt;Node9</title>
<path fill="none" stroke="midnightblue" d="M421.99,-202C406.74,-202 390.7,-202 375.71,-202"/>
<polygon fill="midnightblue" stroke="midnightblue" points="422.4,-205.5 432.4,-202 422.4,-198.5 422.4,-205.5"/>
</g>
<!-- Node10 -->
<g id="node10" class="node">
<title>Node10</title>
<g id="a_node10"><a xlink:href="classkazoo_1_1TranslationLayer.html#a76f09d5f7213679a6656aa9473f8f2ab" target="_top" xlink:title=" ">
<polygon fill="none" stroke="black" points="77,-143 77,-173 208,-173 208,-143 77,-143"/>
<text text-anchor="start" x="85" y="-161" font-family="Helvetica,sans-Serif" font-size="10.00">kazoo::TranslationLayer</text>
<text text-anchor="middle" x="142.5" y="-150" font-family="Helvetica,sans-Serif" font-size="10.00">::loadAndDecodeWav</text>
</a>
</g>
</g>
<!-- Node3&#45;&gt;Node10 -->
<g id="edge11" class="edge">
<title>Node3&#45;&gt;Node10</title>
<path fill="none" stroke="midnightblue" d="M422.34,-186.12C407.11,-183.09 391.07,-180.19 376,-178 319.67,-169.83 255.14,-164.6 208.38,-161.55"/>
<polygon fill="midnightblue" stroke="midnightblue" points="421.71,-189.57 432.21,-188.13 423.11,-182.71 421.71,-189.57"/>
</g>
<!-- Node3&#45;&gt;Node11 -->
<g id="edge12" class="edge">
<title>Node3&#45;&gt;Node11</title>
<path fill="none" stroke="midnightblue" d="M435.39,-183.17C427.36,-179.83 419.35,-176.09 412,-172 394.29,-162.14 393.32,-154.54 376,-144 367.08,-138.57 357.02,-133.48 347.52,-129.08"/>
<polygon fill="midnightblue" stroke="midnightblue" points="434.21,-186.46 444.8,-186.91 436.8,-179.96 434.21,-186.46"/>
</g>
<!-- Node3&#45;&gt;Node13 -->
<g id="edge15" class="edge">
<title>Node3&#45;&gt;Node13</title>
<path fill="none" stroke="midnightblue" d="M422.29,-219.1C389.26,-227.08 352.48,-235.97 330.57,-241.27"/>
<polygon fill="midnightblue" stroke="midnightblue" points="423.5,-222.4 432.4,-216.65 421.85,-215.6 423.5,-222.4"/>
</g>
<!-- Node5 -->
<g id="node5" class="node">
<title>Node5</title>
<g id="a_node5"><a xlink:href="classkazoo_1_1TranslationLayer.html#a85b59418d9b63eaf80dd1b3623a96b96" target="_top" xlink:title=" ">
<polygon fill="none" stroke="black" points="77,-264 77,-294 208,-294 208,-264 77,-264"/>
<text text-anchor="start" x="85" y="-282" font-family="Helvetica,sans-Serif" font-size="10.00">kazoo::TranslationLayer</text>
<text text-anchor="middle" x="142.5" y="-271" font-family="Helvetica,sans-Serif" font-size="10.00">::sendFrame</text>
</a>
</g>
</g>
<!-- Node4&#45;&gt;Node5 -->
<g id="edge4" class="edge">
<title>Node4&#45;&gt;Node5</title>
<path fill="none" stroke="midnightblue" d="M234.03,-285.02C225.43,-284.45 216.71,-283.87 208.25,-283.3"/>
<polygon fill="midnightblue" stroke="midnightblue" points="233.85,-288.51 244.07,-285.68 234.32,-281.53 233.85,-288.51"/>
</g>
<!-- Node8 -->
<g id="node8" class="node">
<title>Node8</title>
<g id="a_node8"><a xlink:href="translation__layer_8test_8cpp.html#a5981aa5142cca1c44a01f7506cf94a8e" target="_top" xlink:title=" ">
<polygon fill="none" stroke="black" points="122,-214.5 122,-233.5 163,-233.5 163,-214.5 122,-214.5"/>
<text text-anchor="middle" x="142.5" y="-221.5" font-family="Helvetica,sans-Serif" font-size="10.00">TEST</text>
</a>
</g>
</g>
<!-- Node4&#45;&gt;Node8 -->
<g id="edge7" class="edge">
<title>Node4&#45;&gt;Node8</title>
<path fill="none" stroke="midnightblue" d="M259.85,-271.22C254.49,-269.13 249.13,-267.03 244,-265 215.79,-253.82 183.32,-240.49 163.1,-232.13"/>
<polygon fill="midnightblue" stroke="midnightblue" points="258.83,-274.58 269.42,-274.92 261.36,-268.05 258.83,-274.58"/>
</g>
<!-- Node6 -->
<g id="node6" class="node">
<title>Node6</title>
<g id="a_node6"><a xlink:href="src_2kazoo__connect__server_2main_8cpp.html#ae66f6b31b5ad750f1fe042a706a4e3d4" target="_top" xlink:title=" ">
<polygon fill="none" stroke="black" points="0,-288.5 0,-307.5 41,-307.5 41,-288.5 0,-288.5"/>
<text text-anchor="middle" x="20.5" y="-295.5" font-family="Helvetica,sans-Serif" font-size="10.00">main</text>
</a>
</g>
</g>
<!-- Node5&#45;&gt;Node6 -->
<g id="edge5" class="edge">
<title>Node5&#45;&gt;Node6</title>
<path fill="none" stroke="midnightblue" d="M66.91,-290.81C57.43,-292.31 48.46,-293.73 41.05,-294.91"/>
<polygon fill="midnightblue" stroke="midnightblue" points="67.6,-294.24 76.93,-289.22 66.51,-287.33 67.6,-294.24"/>
</g>
<!-- Node7 -->
<g id="node7" class="node">
<title>Node7</title>
<g id="a_node7"><a xlink:href="translation__layer_8test_8cpp.html#a557311196b9a309f0d8377ef5af0c62c" target="_top" xlink:title=" ">
<polygon fill="none" stroke="black" points="0,-250.5 0,-269.5 41,-269.5 41,-250.5 0,-250.5"/>
<text text-anchor="middle" x="20.5" y="-257.5" font-family="Helvetica,sans-Serif" font-size="10.00">TEST</text>
</a>
</g>
</g>
<!-- Node5&#45;&gt;Node7 -->
<g id="edge6" class="edge">
<title>Node5&#45;&gt;Node7</title>
<path fill="none" stroke="midnightblue" d="M66.91,-267.19C57.43,-265.69 48.46,-264.27 41.05,-263.09"/>
<polygon fill="midnightblue" stroke="midnightblue" points="66.51,-270.67 76.93,-268.78 67.6,-263.76 66.51,-270.67"/>
</g>
<!-- Node9&#45;&gt;Node5 -->
<g id="edge9" class="edge">
<title>Node9&#45;&gt;Node5</title>
<path fill="none" stroke="midnightblue" d="M258.4,-220.83C253.5,-222.84 248.64,-224.92 244,-227 218.73,-238.35 190.81,-252.98 170.83,-263.82"/>
<polygon fill="midnightblue" stroke="midnightblue" points="259.83,-224.03 267.8,-217.06 257.22,-217.54 259.83,-224.03"/>
</g>
<!-- Node9&#45;&gt;Node8 -->
<g id="edge10" class="edge">
<title>Node9&#45;&gt;Node8</title>
<path fill="none" stroke="midnightblue" d="M234.12,-211.95C207.98,-215.43 180.79,-219.04 163.09,-221.4"/>
<polygon fill="midnightblue" stroke="midnightblue" points="234.61,-215.42 244.07,-210.63 233.69,-208.48 234.61,-215.42"/>
</g>
<!-- Node11&#45;&gt;Node10 -->
<g id="edge13" class="edge">
<title>Node11&#45;&gt;Node10</title>
<path fill="none" stroke="midnightblue" d="M242.82,-131.59C228.65,-135.36 213.79,-139.31 200.02,-142.97"/>
<polygon fill="midnightblue" stroke="midnightblue" points="243.74,-134.97 252.51,-129.02 241.94,-128.21 243.74,-134.97"/>
</g>
<!-- Node12 -->
<g id="node12" class="node">
<title>Node12</title>
<g id="a_node12"><a xlink:href="symbol__stream_8test_8cpp.html#a6649846ac517122a5ce6489b52046605" target="_top" xlink:title=" ">
<polygon fill="none" stroke="black" points="122,-104.5 122,-123.5 163,-123.5 163,-104.5 122,-104.5"/>
<text text-anchor="middle" x="142.5" y="-111.5" font-family="Helvetica,sans-Serif" font-size="10.00">TEST</text>
</a>
</g>
</g>
<!-- Node11&#45;&gt;Node12 -->
<g id="edge14" class="edge">
<title>Node11&#45;&gt;Node12</title>
<path fill="none" stroke="midnightblue" d="M233.39,-114C207.6,-114 180.88,-114 163.34,-114"/>
<polygon fill="midnightblue" stroke="midnightblue" points="233.59,-117.5 243.59,-114 233.59,-110.5 233.59,-117.5"/>
</g>
<!-- Node16 -->
<g id="node16" class="node">
<title>Node16</title>
<g id="a_node16"><a xlink:href="classkazoo_1_1ModelTester.html#a43e738d358a87f9f01cc8ad13c6964fe" target="_top" xlink:title=" ">
<polygon fill="none" stroke="black" points="412,-6 412,-36 576,-36 576,-6 412,-6"/>
<text text-anchor="start" x="420" y="-24" font-family="Helvetica,sans-Serif" font-size="10.00">kazoo::ModelTester</text>
<text text-anchor="middle" x="494" y="-13" font-family="Helvetica,sans-Serif" font-size="10.00">::test_gaussianNoiseTolerance</text>
</a>
</g>
</g>
<!-- Node15&#45;&gt;Node16 -->
<g id="edge19" class="edge">
<title>Node15&#45;&gt;Node16</title>
<path fill="none" stroke="midnightblue" d="M601.82,-21C593.23,-21 584.54,-21 576.03,-21"/>
<polygon fill="midnightblue" stroke="midnightblue" points="601.86,-24.5 611.86,-21 601.86,-17.5 601.86,-24.5"/>
</g>
<!-- Node17 -->
<g id="node17" class="node">
<title>Node17</title>
<g id="a_node17"><a xlink:href="classkazoo_1_1ModelTester.html#a7e596cfc6087c50c134a30707a33d6dc" target="_top" xlink:title=" ">
<polygon fill="none" stroke="black" points="255,-28 255,-58 365,-58 365,-28 255,-28"/>
<text text-anchor="start" x="263" y="-46" font-family="Helvetica,sans-Serif" font-size="10.00">kazoo::ModelTester</text>
<text text-anchor="middle" x="310" y="-35" font-family="Helvetica,sans-Serif" font-size="10.00">::runAllTests</text>
</a>
</g>
</g>
<!-- Node16&#45;&gt;Node17 -->
<g id="edge20" class="edge">
<title>Node16&#45;&gt;Node17</title>
<path fill="none" stroke="midnightblue" d="M401.79,-32.02C389.24,-33.54 376.69,-35.06 365.1,-36.46"/>
<polygon fill="midnightblue" stroke="midnightblue" points="402.34,-35.48 411.85,-30.81 401.5,-28.54 402.34,-35.48"/>
</g>
<!-- Node18&#45;&gt;Node4 -->
<g id="edge23" class="edge">
<title>Node18&#45;&gt;Node4</title>
<path fill="none" stroke="midnightblue" d="M618.56,-287.58C548.24,-288.13 442.85,-288.96 375.52,-289.49"/>
<polygon fill="midnightblue" stroke="midnightblue" points="618.7,-291.07 628.67,-287.5 618.64,-284.07 618.7,-291.07"/>
</g>
<!-- Node19 -->
<g id="node19" class="node">
<title>Node19</title>
<g id="a_node19"><a xlink:href="symbol__stream_8test_8cpp.html#ae06de649963b46341ca9f338594aa8cd" target="_top" xlink:title=" ">
<polygon fill="none" stroke="black" points="473.5,-315.5 473.5,-334.5 514.5,-334.5 514.5,-315.5 473.5,-315.5"/>
<text text-anchor="middle" x="494" y="-322.5" font-family="Helvetica,sans-Serif" font-size="10.00">TEST</text>
</a>
</g>
</g>
<!-- Node18&#45;&gt;Node19 -->
<g id="edge24" class="edge">
<title>Node18&#45;&gt;Node19</title>
<path fill="none" stroke="midnightblue" d="M618.95,-301.03C581.73,-308.23 539.22,-316.45 514.9,-321.15"/>
<polygon fill="midnightblue" stroke="midnightblue" points="619.63,-304.46 628.79,-299.13 618.3,-297.59 619.63,-304.46"/>
</g>
<!-- Node20&#45;&gt;Node17 -->
<g id="edge26" class="edge">
<title>Node20&#45;&gt;Node17</title>
<path fill="none" stroke="midnightblue" d="M411.6,-57.92C395.88,-55.59 379.78,-53.2 365.19,-51.04"/>
<polygon fill="midnightblue" stroke="midnightblue" points="411.45,-61.44 421.85,-59.45 412.47,-54.52 411.45,-61.44"/>
</g>
</g>
</svg>
