<?xml version="1.0" encoding="UTF-8" standalone="no"?>
<!DOCTYPE svg PUBLIC "-//W3C//DTD SVG 1.1//EN"
 "http://www.w3.org/Graphics/SVG/1.1/DTD/svg11.dtd">
<!-- Generated by graphviz version 2.43.0 (0)
 -->
<!-- Title: kazoo::ModelTester Pages: 1 -->
<svg width="812pt" height="485pt"
 viewBox="0.00 0.00 812.00 485.00" xmlns="http://www.w3.org/2000/svg" xmlns:xlink="http://www.w3.org/1999/xlink">
<g id="graph0" class="graph" transform="scale(1 1) rotate(0) translate(4 481)">
<title>kazoo::ModelTester</title>
<!-- Node1 -->
<g id="node1" class="node">
<title>Node1</title>
<g id="a_node1"><a xlink:title=" ">
<polygon fill="#bfbfbf" stroke="black" points="229.5,-0.5 229.5,-189.5 402.5,-189.5 402.5,-0.5 229.5,-0.5"/>
<text text-anchor="middle" x="316" y="-177.5" font-family="Helvetica,sans-Serif" font-size="10.00">kazoo::ModelTester</text>
<polyline fill="none" stroke="black" points="229.5,-170.5 402.5,-170.5 "/>
<text text-anchor="middle" x="316" y="-158.5" font-family="Helvetica,sans-Serif" font-size="10.00"> </text>
<polyline fill="none" stroke="black" points="229.5,-151.5 402.5,-151.5 "/>
<text text-anchor="start" x="237.5" y="-139.5" font-family="Helvetica,sans-Serif" font-size="10.00">+ ModelTester()</text>
<text text-anchor="start" x="237.5" y="-128.5" font-family="Helvetica,sans-Serif" font-size="10.00">+ getScore()</text>
<text text-anchor="start" x="237.5" y="-117.5" font-family="Helvetica,sans-Serif" font-size="10.00">+ resetState()</text>
<text text-anchor="start" x="237.5" y="-106.5" font-family="Helvetica,sans-Serif" font-size="10.00">+ runAllTests()</text>
<text text-anchor="start" x="237.5" y="-95.5" font-family="Helvetica,sans-Serif" font-size="10.00">&#45; expectTrue()</text>
<text text-anchor="start" x="237.5" y="-84.5" font-family="Helvetica,sans-Serif" font-size="10.00">&#45; getRandomTestString()</text>
<text text-anchor="start" x="237.5" y="-73.5" font-family="Helvetica,sans-Serif" font-size="10.00">&#45; helper_decodeAudioChannel</text>
<text text-anchor="start" x="237.5" y="-62.5" font-family="Helvetica,sans-Serif" font-size="10.00">ToString()</text>
<text text-anchor="start" x="237.5" y="-51.5" font-family="Helvetica,sans-Serif" font-size="10.00">&#45; helper_encodeStringToAudio</text>
<text text-anchor="start" x="237.5" y="-40.5" font-family="Helvetica,sans-Serif" font-size="10.00">Channel()</text>
<text text-anchor="start" x="237.5" y="-29.5" font-family="Helvetica,sans-Serif" font-size="10.00">&#45; test_basicEncodeDecode()</text>
<text text-anchor="start" x="237.5" y="-18.5" font-family="Helvetica,sans-Serif" font-size="10.00">&#45; test_gaussianNoiseTolerance()</text>
<text text-anchor="start" x="237.5" y="-7.5" font-family="Helvetica,sans-Serif" font-size="10.00">&#45; getRandomDouble()</text>
</a>
</g>
</g>
<!-- Node2 -->
<g id="node2" class="node">
<title>Node2</title>
<g id="a_node2"><a xlink:href="classkazoo_1_1Logger.html" target="_top" xlink:title=" ">
<polygon fill="none" stroke="black" points="0,-248.5 0,-360.5 90,-360.5 90,-248.5 0,-248.5"/>
<text text-anchor="middle" x="45" y="-348.5" font-family="Helvetica,sans-Serif" font-size="10.00">kazoo::Logger</text>
<polyline fill="none" stroke="black" points="0,-341.5 90,-341.5 "/>
<text text-anchor="middle" x="45" y="-329.5" font-family="Helvetica,sans-Serif" font-size="10.00"> </text>
<polyline fill="none" stroke="black" points="0,-322.5 90,-322.5 "/>
<text text-anchor="start" x="8" y="-310.5" font-family="Helvetica,sans-Serif" font-size="10.00">+ Logger()</text>
<text text-anchor="start" x="8" y="-299.5" font-family="Helvetica,sans-Serif" font-size="10.00"># logDebug()</text>
<text text-anchor="start" x="8" y="-288.5" font-family="Helvetica,sans-Serif" font-size="10.00"># logError()</text>
<text text-anchor="start" x="8" y="-277.5" font-family="Helvetica,sans-Serif" font-size="10.00"># logInfo()</text>
<text text-anchor="start" x="8" y="-266.5" font-family="Helvetica,sans-Serif" font-size="10.00"># logWarning()</text>
<text text-anchor="start" x="8" y="-255.5" font-family="Helvetica,sans-Serif" font-size="10.00">&#45; log()</text>
</a>
</g>
</g>
<!-- Node2&#45;&gt;Node1 -->
<g id="edge1" class="edge">
<title>Node2&#45;&gt;Node1</title>
<path fill="none" stroke="midnightblue" d="M94.67,-241.03C96.1,-239.65 97.55,-238.31 99,-237 138.5,-201.47 187.81,-168.68 229.44,-143.68"/>
<polygon fill="none" stroke="midnightblue" points="92.15,-238.6 87.6,-248.17 97.12,-243.53 92.15,-238.6"/>
</g>
<!-- Node3 -->
<g id="node3" class="node">
<title>Node3</title>
<g id="a_node3"><a xlink:title=" ">
<polygon fill="none" stroke="black" points="23,-419.5 23,-476.5 67,-476.5 67,-419.5 23,-419.5"/>
<text text-anchor="middle" x="45" y="-464.5" font-family="Helvetica,sans-Serif" font-size="10.00">string</text>
<polyline fill="none" stroke="black" points="23,-457.5 67,-457.5 "/>
<text text-anchor="middle" x="45" y="-445.5" font-family="Helvetica,sans-Serif" font-size="10.00"> </text>
<polyline fill="none" stroke="black" points="23,-438.5 67,-438.5 "/>
<text text-anchor="middle" x="45" y="-426.5" font-family="Helvetica,sans-Serif" font-size="10.00"> </text>
</a>
</g>
</g>
<!-- Node3&#45;&gt;Node2 -->
<g id="edge2" class="edge">
<title>Node3&#45;&gt;Node2</title>
<path fill="none" stroke="#404040" d="M45,-419.38C45,-406.05 45,-389.42 45,-373.01"/>
<polygon fill="none" stroke="#404040" points="45,-372.57 41,-366.57 45,-360.57 49,-366.57 45,-372.57"/>
<text text-anchor="middle" x="83" y="-393" font-family="Helvetica,sans-Serif" font-size="10.00"> &#45;logger_name_</text>
</g>
<!-- Node4 -->
<g id="node4" class="node">
<title>Node4</title>
<g id="a_node4"><a xlink:title=" ">
<polygon fill="none" stroke="black" points="108,-270.5 108,-338.5 210,-338.5 210,-270.5 108,-270.5"/>
<text text-anchor="start" x="116" y="-326.5" font-family="Helvetica,sans-Serif" font-size="10.00">array&lt; std::string</text>
<text text-anchor="middle" x="159" y="-315.5" font-family="Helvetica,sans-Serif" font-size="10.00">_view, 5 &gt;</text>
<polyline fill="none" stroke="black" points="108,-308.5 210,-308.5 "/>
<text text-anchor="middle" x="159" y="-296.5" font-family="Helvetica,sans-Serif" font-size="10.00"> </text>
<polyline fill="none" stroke="black" points="108,-289.5 210,-289.5 "/>
<text text-anchor="middle" x="159" y="-277.5" font-family="Helvetica,sans-Serif" font-size="10.00"> </text>
</a>
</g>
</g>
<!-- Node4&#45;&gt;Node1 -->
<g id="edge3" class="edge">
<title>Node4&#45;&gt;Node1</title>
<path fill="none" stroke="#404040" d="M171.81,-270.18C179.91,-251.12 191.41,-227.24 205,-208 210.05,-200.85 215.57,-193.74 221.36,-186.77"/>
<polygon fill="none" stroke="#404040" points="221.61,-186.48 222.47,-179.32 229.41,-177.37 228.55,-184.52 221.61,-186.48"/>
<text text-anchor="middle" x="240" y="-211" font-family="Helvetica,sans-Serif" font-size="10.00"> &#45;test_strings_</text>
</g>
<!-- Node5 -->
<g id="node5" class="node">
<title>Node5</title>
<g id="a_node5"><a xlink:title=" ">
<polygon fill="none" stroke="black" points="228,-276 228,-333 278,-333 278,-276 228,-276"/>
<text text-anchor="middle" x="253" y="-321" font-family="Helvetica,sans-Serif" font-size="10.00">double</text>
<polyline fill="none" stroke="black" points="228,-314 278,-314 "/>
<text text-anchor="middle" x="253" y="-302" font-family="Helvetica,sans-Serif" font-size="10.00"> </text>
<polyline fill="none" stroke="black" points="228,-295 278,-295 "/>
<text text-anchor="middle" x="253" y="-283" font-family="Helvetica,sans-Serif" font-size="10.00"> </text>
</a>
</g>
</g>
<!-- Node5&#45;&gt;Node1 -->
<g id="edge4" class="edge">
<title>Node5&#45;&gt;Node1</title>
<path fill="none" stroke="#404040" d="M261.37,-275.95C267.28,-256.46 275.62,-228.98 284.01,-201.35"/>
<polygon fill="none" stroke="#404040" points="284.12,-201.01 282.03,-194.11 287.6,-189.53 289.69,-196.43 284.12,-201.01"/>
<text text-anchor="middle" x="300.5" y="-211" font-family="Helvetica,sans-Serif" font-size="10.00"> &#45;score_</text>
</g>
<!-- Node6 -->
<g id="node6" class="node">
<title>Node6</title>
<g id="a_node6"><a xlink:href="classkazoo_1_1ISymbolModel.html" target="_top" xlink:title=" ">
<polygon fill="none" stroke="black" points="295.5,-237.5 295.5,-371.5 464.5,-371.5 464.5,-237.5 295.5,-237.5"/>
<text text-anchor="middle" x="380" y="-359.5" font-family="Helvetica,sans-Serif" font-size="10.00">kazoo::ISymbolModel</text>
<polyline fill="none" stroke="black" points="295.5,-352.5 464.5,-352.5 "/>
<text text-anchor="middle" x="380" y="-340.5" font-family="Helvetica,sans-Serif" font-size="10.00"> </text>
<polyline fill="none" stroke="black" points="295.5,-333.5 464.5,-333.5 "/>
<text text-anchor="start" x="303.5" y="-321.5" font-family="Helvetica,sans-Serif" font-size="10.00">+ ~ISymbolModel()</text>
<text text-anchor="start" x="303.5" y="-310.5" font-family="Helvetica,sans-Serif" font-size="10.00">+ decodeAudioToSymbols()</text>
<text text-anchor="start" x="303.5" y="-299.5" font-family="Helvetica,sans-Serif" font-size="10.00">+ encodeSymbol()</text>
<text text-anchor="start" x="303.5" y="-288.5" font-family="Helvetica,sans-Serif" font-size="10.00">+ getNumSamplesPerSymbol()</text>
<text text-anchor="start" x="303.5" y="-277.5" font-family="Helvetica,sans-Serif" font-size="10.00">+ getSymbolBitMask()</text>
<text text-anchor="start" x="303.5" y="-266.5" font-family="Helvetica,sans-Serif" font-size="10.00">+ getSymbolBitWidth()</text>
<text text-anchor="start" x="303.5" y="-255.5" font-family="Helvetica,sans-Serif" font-size="10.00">+ getSymbolId()</text>
<text text-anchor="start" x="303.5" y="-244.5" font-family="Helvetica,sans-Serif" font-size="10.00">+ getValue()</text>
</a>
</g>
</g>
<!-- Node6&#45;&gt;Node1 -->
<g id="edge5" class="edge">
<title>Node6&#45;&gt;Node1</title>
<path fill="none" stroke="#404040" d="M359.57,-237.28C356.03,-225.77 352.26,-213.55 348.48,-201.31"/>
<polygon fill="none" stroke="#404040" points="348.4,-201.05 342.81,-196.49 344.86,-189.58 350.45,-194.14 348.4,-201.05"/>
<text text-anchor="middle" x="395.5" y="-211" font-family="Helvetica,sans-Serif" font-size="10.00"> &#45;symbol_model_</text>
</g>
<!-- Node7 -->
<g id="node7" class="node">
<title>Node7</title>
<g id="a_node7"><a xlink:href="classkazoo_1_1ISymbolStream.html" target="_top" xlink:title="An interface for a symbol stream.">
<polygon fill="none" stroke="black" points="482.5,-243 482.5,-366 627.5,-366 627.5,-243 482.5,-243"/>
<text text-anchor="middle" x="555" y="-354" font-family="Helvetica,sans-Serif" font-size="10.00">kazoo::ISymbolStream</text>
<polyline fill="none" stroke="black" points="482.5,-347 627.5,-347 "/>
<text text-anchor="middle" x="555" y="-335" font-family="Helvetica,sans-Serif" font-size="10.00"> </text>
<polyline fill="none" stroke="black" points="482.5,-328 627.5,-328 "/>
<text text-anchor="start" x="490.5" y="-316" font-family="Helvetica,sans-Serif" font-size="10.00">+ ~ISymbolStream()</text>
<text text-anchor="start" x="490.5" y="-305" font-family="Helvetica,sans-Serif" font-size="10.00">+ addSymbolId()</text>
<text text-anchor="start" x="490.5" y="-294" font-family="Helvetica,sans-Serif" font-size="10.00">+ clear()</text>
<text text-anchor="start" x="490.5" y="-283" font-family="Helvetica,sans-Serif" font-size="10.00">+ getNumBytes()</text>
<text text-anchor="start" x="490.5" y="-272" font-family="Helvetica,sans-Serif" font-size="10.00">+ popSymbolTokenId()</text>
<text text-anchor="start" x="490.5" y="-261" font-family="Helvetica,sans-Serif" font-size="10.00">+ populateBinaryStream()</text>
<text text-anchor="start" x="490.5" y="-250" font-family="Helvetica,sans-Serif" font-size="10.00">+ processBinaryStream()</text>
</a>
</g>
</g>
<!-- Node7&#45;&gt;Node1 -->
<g id="edge6" class="edge">
<title>Node7&#45;&gt;Node1</title>
<path fill="none" stroke="#404040" d="M485.23,-242.92C462.38,-223.09 436.58,-200.69 412.14,-179.47"/>
<polygon fill="none" stroke="#404040" points="411.91,-179.27 404.76,-178.36 402.85,-171.4 410,-172.32 411.91,-179.27"/>
<text text-anchor="middle" x="500" y="-211" font-family="Helvetica,sans-Serif" font-size="10.00"> &#45;symbol_stream_</text>
</g>
<!-- Node8 -->
<g id="node8" class="node">
<title>Node8</title>
<g id="a_node8"><a xlink:href="classkazoo_1_1IEncoder.html" target="_top" xlink:title=" ">
<polygon fill="none" stroke="black" points="646,-265 646,-344 804,-344 804,-265 646,-265"/>
<text text-anchor="middle" x="725" y="-332" font-family="Helvetica,sans-Serif" font-size="10.00">kazoo::IEncoder</text>
<polyline fill="none" stroke="black" points="646,-325 804,-325 "/>
<text text-anchor="middle" x="725" y="-313" font-family="Helvetica,sans-Serif" font-size="10.00"> </text>
<polyline fill="none" stroke="black" points="646,-306 804,-306 "/>
<text text-anchor="start" x="654" y="-294" font-family="Helvetica,sans-Serif" font-size="10.00">+ ~IEncoder()</text>
<text text-anchor="start" x="654" y="-283" font-family="Helvetica,sans-Serif" font-size="10.00">+ clear()</text>
<text text-anchor="start" x="654" y="-272" font-family="Helvetica,sans-Serif" font-size="10.00">+ encodeAvailableSymbols()</text>
</a>
</g>
</g>
<!-- Node8&#45;&gt;Node1 -->
<g id="edge7" class="edge">
<title>Node8&#45;&gt;Node1</title>
<path fill="none" stroke="#404040" d="M678,-264.8C665.12,-255.1 650.87,-245.14 637,-237 565.56,-195.09 479.36,-157.9 414.29,-132.24"/>
<polygon fill="none" stroke="#404040" points="413.98,-132.12 406.94,-133.66 402.81,-127.75 409.85,-126.21 413.98,-132.12"/>
<text text-anchor="middle" x="629" y="-211" font-family="Helvetica,sans-Serif" font-size="10.00"> &#45;encoder_</text>
</g>
</g>
</svg>
