<?xml version="1.0" encoding="UTF-8" standalone="no"?>
<!DOCTYPE svg PUBLIC "-//W3C//DTD SVG 1.1//EN"
 "http://www.w3.org/Graphics/SVG/1.1/DTD/svg11.dtd">
<!-- Generated by graphviz version 2.43.0 (0)
 -->
<!-- Title: kazoo::ISymbolModel Pages: 1 -->
<svg width="867pt" height="691pt"
 viewBox="0.00 0.00 867.00 691.00" xmlns="http://www.w3.org/2000/svg" xmlns:xlink="http://www.w3.org/1999/xlink">
<g id="graph0" class="graph" transform="scale(1 1) rotate(0) translate(4 687)">
<title>kazoo::ISymbolModel</title>
<!-- Node1 -->
<g id="node1" class="node">
<title>Node1</title>
<g id="a_node1"><a xlink:title=" ">
<polygon fill="#bfbfbf" stroke="black" points="325,-548.5 325,-682.5 494,-682.5 494,-548.5 325,-548.5"/>
<text text-anchor="middle" x="409.5" y="-670.5" font-family="Helvetica,sans-Serif" font-size="10.00">kazoo::ISymbolModel</text>
<polyline fill="none" stroke="black" points="325,-663.5 494,-663.5 "/>
<text text-anchor="middle" x="409.5" y="-651.5" font-family="Helvetica,sans-Serif" font-size="10.00"> </text>
<polyline fill="none" stroke="black" points="325,-644.5 494,-644.5 "/>
<text text-anchor="start" x="333" y="-632.5" font-family="Helvetica,sans-Serif" font-size="10.00">+ ~ISymbolModel()</text>
<text text-anchor="start" x="333" y="-621.5" font-family="Helvetica,sans-Serif" font-size="10.00">+ decodeAudioToSymbols()</text>
<text text-anchor="start" x="333" y="-610.5" font-family="Helvetica,sans-Serif" font-size="10.00">+ encodeSymbol()</text>
<text text-anchor="start" x="333" y="-599.5" font-family="Helvetica,sans-Serif" font-size="10.00">+ getNumSamplesPerSymbol()</text>
<text text-anchor="start" x="333" y="-588.5" font-family="Helvetica,sans-Serif" font-size="10.00">+ getSymbolBitMask()</text>
<text text-anchor="start" x="333" y="-577.5" font-family="Helvetica,sans-Serif" font-size="10.00">+ getSymbolBitWidth()</text>
<text text-anchor="start" x="333" y="-566.5" font-family="Helvetica,sans-Serif" font-size="10.00">+ getSymbolId()</text>
<text text-anchor="start" x="333" y="-555.5" font-family="Helvetica,sans-Serif" font-size="10.00">+ getValue()</text>
</a>
</g>
</g>
<!-- Node2 -->
<g id="node2" class="node">
<title>Node2</title>
<g id="a_node2"><a xlink:href="classkazoo_1_1SymbolModel.html" target="_top" xlink:title=" ">
<polygon fill="none" stroke="black" points="329,-150.5 329,-306.5 498,-306.5 498,-150.5 329,-150.5"/>
<text text-anchor="start" x="337" y="-294.5" font-family="Helvetica,sans-Serif" font-size="10.00">kazoo::SymbolModel</text>
<text text-anchor="middle" x="413.5" y="-283.5" font-family="Helvetica,sans-Serif" font-size="10.00">&lt; Token &gt;</text>
<polyline fill="none" stroke="black" points="329,-276.5 498,-276.5 "/>
<text text-anchor="start" x="337" y="-264.5" font-family="Helvetica,sans-Serif" font-size="10.00">&#45; symbol_bit_width_</text>
<text text-anchor="start" x="337" y="-253.5" font-family="Helvetica,sans-Serif" font-size="10.00">&#45; token_values_</text>
<polyline fill="none" stroke="black" points="329,-246.5 498,-246.5 "/>
<text text-anchor="start" x="337" y="-234.5" font-family="Helvetica,sans-Serif" font-size="10.00">+ SymbolModel()</text>
<text text-anchor="start" x="337" y="-223.5" font-family="Helvetica,sans-Serif" font-size="10.00">+ decodeAudioToSymbols()</text>
<text text-anchor="start" x="337" y="-212.5" font-family="Helvetica,sans-Serif" font-size="10.00">+ encodeSymbol()</text>
<text text-anchor="start" x="337" y="-201.5" font-family="Helvetica,sans-Serif" font-size="10.00">+ getNumSamplesPerSymbol()</text>
<text text-anchor="start" x="337" y="-190.5" font-family="Helvetica,sans-Serif" font-size="10.00">+ getSymbolBitWidth()</text>
<text text-anchor="start" x="337" y="-179.5" font-family="Helvetica,sans-Serif" font-size="10.00">+ getSymbolId()</text>
<text text-anchor="start" x="337" y="-168.5" font-family="Helvetica,sans-Serif" font-size="10.00">+ getToken()</text>
<text text-anchor="start" x="337" y="-157.5" font-family="Helvetica,sans-Serif" font-size="10.00">+ getValue()</text>
</a>
</g>
</g>
<!-- Node1&#45;&gt;Node2 -->
<g id="edge1" class="edge">
<title>Node1&#45;&gt;Node2</title>
<path fill="none" stroke="midnightblue" d="M410.29,-538.24C410.99,-471.19 412,-374.07 412.7,-306.73"/>
<polygon fill="none" stroke="midnightblue" points="406.79,-538.28 410.19,-548.32 413.79,-538.35 406.79,-538.28"/>
</g>
<!-- Node8 -->
<g id="node8" class="node">
<title>Node8</title>
<g id="a_node8"><a xlink:href="classkazoo_1_1SymbolModel.html" target="_top" xlink:title=" ">
<polygon fill="none" stroke="black" points="425,-354.5 425,-510.5 594,-510.5 594,-354.5 425,-354.5"/>
<text text-anchor="start" x="433" y="-498.5" font-family="Helvetica,sans-Serif" font-size="10.00">kazoo::SymbolModel</text>
<text text-anchor="middle" x="509.5" y="-487.5" font-family="Helvetica,sans-Serif" font-size="10.00">&lt; Token_t &gt;</text>
<polyline fill="none" stroke="black" points="425,-480.5 594,-480.5 "/>
<text text-anchor="start" x="433" y="-468.5" font-family="Helvetica,sans-Serif" font-size="10.00">&#45; symbol_bit_width_</text>
<text text-anchor="start" x="433" y="-457.5" font-family="Helvetica,sans-Serif" font-size="10.00">&#45; token_values_</text>
<polyline fill="none" stroke="black" points="425,-450.5 594,-450.5 "/>
<text text-anchor="start" x="433" y="-438.5" font-family="Helvetica,sans-Serif" font-size="10.00">+ SymbolModel()</text>
<text text-anchor="start" x="433" y="-427.5" font-family="Helvetica,sans-Serif" font-size="10.00">+ decodeAudioToSymbols()</text>
<text text-anchor="start" x="433" y="-416.5" font-family="Helvetica,sans-Serif" font-size="10.00">+ encodeSymbol()</text>
<text text-anchor="start" x="433" y="-405.5" font-family="Helvetica,sans-Serif" font-size="10.00">+ getNumSamplesPerSymbol()</text>
<text text-anchor="start" x="433" y="-394.5" font-family="Helvetica,sans-Serif" font-size="10.00">+ getSymbolBitWidth()</text>
<text text-anchor="start" x="433" y="-383.5" font-family="Helvetica,sans-Serif" font-size="10.00">+ getSymbolId()</text>
<text text-anchor="start" x="433" y="-372.5" font-family="Helvetica,sans-Serif" font-size="10.00">+ getToken()</text>
<text text-anchor="start" x="433" y="-361.5" font-family="Helvetica,sans-Serif" font-size="10.00">+ getValue()</text>
</a>
</g>
</g>
<!-- Node1&#45;&gt;Node8 -->
<g id="edge7" class="edge">
<title>Node1&#45;&gt;Node8</title>
<path fill="none" stroke="midnightblue" d="M450.99,-539.41C456.21,-529.96 461.56,-520.28 466.8,-510.79"/>
<polygon fill="none" stroke="midnightblue" points="447.8,-537.94 446.03,-548.39 453.93,-541.33 447.8,-537.94"/>
</g>
<!-- Node3 -->
<g id="node3" class="node">
<title>Node3</title>
<g id="a_node3"><a xlink:href="classkazoo_1_1model_1_1Binary_1_1Model.html" target="_top" xlink:title=" ">
<polygon fill="none" stroke="black" points="0,-22.5 0,-90.5 119,-90.5 119,-22.5 0,-22.5"/>
<text text-anchor="start" x="8" y="-78.5" font-family="Helvetica,sans-Serif" font-size="10.00">kazoo::model::Binary</text>
<text text-anchor="middle" x="59.5" y="-67.5" font-family="Helvetica,sans-Serif" font-size="10.00">::Model</text>
<polyline fill="none" stroke="black" points="0,-60.5 119,-60.5 "/>
<text text-anchor="middle" x="59.5" y="-48.5" font-family="Helvetica,sans-Serif" font-size="10.00"> </text>
<polyline fill="none" stroke="black" points="0,-41.5 119,-41.5 "/>
<text text-anchor="start" x="8" y="-29.5" font-family="Helvetica,sans-Serif" font-size="10.00">+ Model()</text>
</a>
</g>
</g>
<!-- Node2&#45;&gt;Node3 -->
<g id="edge2" class="edge">
<title>Node2&#45;&gt;Node3</title>
<path fill="none" stroke="midnightblue" d="M319.03,-197.47C261.91,-177.42 188.75,-148.28 128.5,-113 117.62,-106.63 106.63,-98.65 96.72,-90.74"/>
<polygon fill="none" stroke="midnightblue" points="318.18,-200.88 328.77,-200.86 320.48,-194.27 318.18,-200.88"/>
</g>
<!-- Node4 -->
<g id="node4" class="node">
<title>Node4</title>
<g id="a_node4"><a xlink:href="classkazoo_1_1model_1_1K1Model_1_1Model.html" target="_top" xlink:title=" ">
<polygon fill="none" stroke="black" points="137.5,-0.5 137.5,-112.5 309.5,-112.5 309.5,-0.5 137.5,-0.5"/>
<text text-anchor="start" x="145.5" y="-100.5" font-family="Helvetica,sans-Serif" font-size="10.00">kazoo::model::K1Model</text>
<text text-anchor="middle" x="223.5" y="-89.5" font-family="Helvetica,sans-Serif" font-size="10.00">::Model</text>
<polyline fill="none" stroke="black" points="137.5,-82.5 309.5,-82.5 "/>
<text text-anchor="middle" x="223.5" y="-70.5" font-family="Helvetica,sans-Serif" font-size="10.00"> </text>
<polyline fill="none" stroke="black" points="137.5,-63.5 309.5,-63.5 "/>
<text text-anchor="start" x="145.5" y="-51.5" font-family="Helvetica,sans-Serif" font-size="10.00">+ Model()</text>
<text text-anchor="start" x="145.5" y="-40.5" font-family="Helvetica,sans-Serif" font-size="10.00">+ decodeAudioToSymbols()</text>
<text text-anchor="start" x="145.5" y="-29.5" font-family="Helvetica,sans-Serif" font-size="10.00">+ encodeSymbol()</text>
<text text-anchor="start" x="145.5" y="-18.5" font-family="Helvetica,sans-Serif" font-size="10.00">+ getNumSamplesPerSymbol()</text>
<text text-anchor="start" x="145.5" y="-7.5" font-family="Helvetica,sans-Serif" font-size="10.00">&#45; detectSymbolFromFftResults()</text>
</a>
</g>
</g>
<!-- Node2&#45;&gt;Node4 -->
<g id="edge3" class="edge">
<title>Node2&#45;&gt;Node4</title>
<path fill="none" stroke="midnightblue" d="M321.15,-144.88C308.88,-133.9 296.56,-122.87 284.99,-112.51"/>
<polygon fill="none" stroke="midnightblue" points="318.99,-147.64 328.78,-151.7 323.66,-142.42 318.99,-147.64"/>
</g>
<!-- Node5 -->
<g id="node5" class="node">
<title>Node5</title>
<g id="a_node5"><a xlink:href="classkazoo_1_1model_1_1K2PeakModel_1_1Model.html" target="_top" xlink:title=" ">
<polygon fill="none" stroke="black" points="327.5,-0.5 327.5,-112.5 499.5,-112.5 499.5,-0.5 327.5,-0.5"/>
<text text-anchor="start" x="335.5" y="-100.5" font-family="Helvetica,sans-Serif" font-size="10.00">kazoo::model::K2PeakModel</text>
<text text-anchor="middle" x="413.5" y="-89.5" font-family="Helvetica,sans-Serif" font-size="10.00">::Model</text>
<polyline fill="none" stroke="black" points="327.5,-82.5 499.5,-82.5 "/>
<text text-anchor="middle" x="413.5" y="-70.5" font-family="Helvetica,sans-Serif" font-size="10.00"> </text>
<polyline fill="none" stroke="black" points="327.5,-63.5 499.5,-63.5 "/>
<text text-anchor="start" x="335.5" y="-51.5" font-family="Helvetica,sans-Serif" font-size="10.00">+ Model()</text>
<text text-anchor="start" x="335.5" y="-40.5" font-family="Helvetica,sans-Serif" font-size="10.00">+ decodeAudioToSymbols()</text>
<text text-anchor="start" x="335.5" y="-29.5" font-family="Helvetica,sans-Serif" font-size="10.00">+ encodeSymbol()</text>
<text text-anchor="start" x="335.5" y="-18.5" font-family="Helvetica,sans-Serif" font-size="10.00">+ getNumSamplesPerSymbol()</text>
<text text-anchor="start" x="335.5" y="-7.5" font-family="Helvetica,sans-Serif" font-size="10.00">&#45; detectSymbolFromFftResults()</text>
</a>
</g>
</g>
<!-- Node2&#45;&gt;Node5 -->
<g id="edge4" class="edge">
<title>Node2&#45;&gt;Node5</title>
<path fill="none" stroke="midnightblue" d="M413.5,-140.35C413.5,-131.02 413.5,-121.73 413.5,-112.93"/>
<polygon fill="none" stroke="midnightblue" points="410,-140.46 413.5,-150.46 417,-140.46 410,-140.46"/>
</g>
<!-- Node6 -->
<g id="node6" class="node">
<title>Node6</title>
<g id="a_node6"><a xlink:href="classkazoo_1_1model_1_1K3ReasonableModel_1_1K3Model.html" target="_top" xlink:title=" ">
<polygon fill="none" stroke="black" points="517.5,-0.5 517.5,-112.5 689.5,-112.5 689.5,-0.5 517.5,-0.5"/>
<text text-anchor="start" x="525.5" y="-100.5" font-family="Helvetica,sans-Serif" font-size="10.00">kazoo::model::K3Reasonable</text>
<text text-anchor="middle" x="603.5" y="-89.5" font-family="Helvetica,sans-Serif" font-size="10.00">Model::K3Model</text>
<polyline fill="none" stroke="black" points="517.5,-82.5 689.5,-82.5 "/>
<text text-anchor="middle" x="603.5" y="-70.5" font-family="Helvetica,sans-Serif" font-size="10.00"> </text>
<polyline fill="none" stroke="black" points="517.5,-63.5 689.5,-63.5 "/>
<text text-anchor="start" x="525.5" y="-51.5" font-family="Helvetica,sans-Serif" font-size="10.00">+ K3Model()</text>
<text text-anchor="start" x="525.5" y="-40.5" font-family="Helvetica,sans-Serif" font-size="10.00">+ decodeAudioToSymbols()</text>
<text text-anchor="start" x="525.5" y="-29.5" font-family="Helvetica,sans-Serif" font-size="10.00">+ encodeSymbol()</text>
<text text-anchor="start" x="525.5" y="-18.5" font-family="Helvetica,sans-Serif" font-size="10.00">+ getNumSamplesPerSymbol()</text>
<text text-anchor="start" x="525.5" y="-7.5" font-family="Helvetica,sans-Serif" font-size="10.00">&#45; detectSymbolFromFftResults()</text>
</a>
</g>
</g>
<!-- Node2&#45;&gt;Node6 -->
<g id="edge5" class="edge">
<title>Node2&#45;&gt;Node6</title>
<path fill="none" stroke="midnightblue" d="M505.85,-144.88C518.12,-133.9 530.44,-122.87 542.01,-112.51"/>
<polygon fill="none" stroke="midnightblue" points="503.34,-142.42 498.22,-151.7 508.01,-147.64 503.34,-142.42"/>
</g>
<!-- Node7 -->
<g id="node7" class="node">
<title>Node7</title>
<g id="a_node7"><a xlink:href="classkazoo_1_1model_1_1Testing_1_1Model.html" target="_top" xlink:title=" ">
<polygon fill="none" stroke="black" points="708,-11.5 708,-101.5 859,-101.5 859,-11.5 708,-11.5"/>
<text text-anchor="start" x="716" y="-89.5" font-family="Helvetica,sans-Serif" font-size="10.00">kazoo::model::Testing</text>
<text text-anchor="middle" x="783.5" y="-78.5" font-family="Helvetica,sans-Serif" font-size="10.00">::Model</text>
<polyline fill="none" stroke="black" points="708,-71.5 859,-71.5 "/>
<text text-anchor="middle" x="783.5" y="-59.5" font-family="Helvetica,sans-Serif" font-size="10.00"> </text>
<polyline fill="none" stroke="black" points="708,-52.5 859,-52.5 "/>
<text text-anchor="start" x="716" y="-40.5" font-family="Helvetica,sans-Serif" font-size="10.00">+ Model()</text>
<text text-anchor="start" x="716" y="-29.5" font-family="Helvetica,sans-Serif" font-size="10.00">+ decodeAudioToSymbols()</text>
<text text-anchor="start" x="716" y="-18.5" font-family="Helvetica,sans-Serif" font-size="10.00">+ encodeSymbol()</text>
</a>
</g>
</g>
<!-- Node2&#45;&gt;Node7 -->
<g id="edge6" class="edge">
<title>Node2&#45;&gt;Node7</title>
<path fill="none" stroke="midnightblue" d="M507.7,-194.97C564.25,-174.15 636.92,-145.08 698.5,-113 705.22,-109.5 712.08,-105.61 718.85,-101.56"/>
<polygon fill="none" stroke="midnightblue" points="506.24,-191.78 498.05,-198.5 508.65,-198.35 506.24,-191.78"/>
</g>
<!-- Node8&#45;&gt;Node2 -->
<g id="edge8" class="edge">
<title>Node8&#45;&gt;Node2</title>
<path fill="none" stroke="orange" d="M468.42,-345.05C462.36,-332.3 456.15,-319.24 450.18,-306.69"/>
<polygon fill="orange" stroke="orange" points="465.34,-346.74 472.8,-354.27 471.66,-343.73 465.34,-346.74"/>
<text text-anchor="middle" x="488.5" y="-328" font-family="Helvetica,sans-Serif" font-size="10.00"> &lt; Token &gt;</text>
</g>
</g>
</svg>
