<?xml version="1.0" encoding="UTF-8" standalone="no"?>
<!DOCTYPE svg PUBLIC "-//W3C//DTD SVG 1.1//EN"
 "http://www.w3.org/Graphics/SVG/1.1/DTD/svg11.dtd">
<!-- Generated by graphviz version 2.43.0 (0)
 -->
<!-- Title: kazoo::ModelTester::test_gaussianNoiseTolerance Pages: 1 -->
<svg width="898pt" height="654pt"
 viewBox="0.00 0.00 898.00 653.50" xmlns="http://www.w3.org/2000/svg" xmlns:xlink="http://www.w3.org/1999/xlink">
<g id="graph0" class="graph" transform="scale(1 1) rotate(0) translate(4 649.5)">
<title>kazoo::ModelTester::test_gaussianNoiseTolerance</title>
<!-- Node1 -->
<g id="node1" class="node">
<title>Node1</title>
<g id="a_node1"><a xlink:title=" ">
<polygon fill="#bfbfbf" stroke="black" points="0,-346.5 0,-376.5 164,-376.5 164,-346.5 0,-346.5"/>
<text text-anchor="start" x="8" y="-364.5" font-family="Helvetica,sans-Serif" font-size="10.00">kazoo::ModelTester</text>
<text text-anchor="middle" x="82" y="-353.5" font-family="Helvetica,sans-Serif" font-size="10.00">::test_gaussianNoiseTolerance</text>
</a>
</g>
</g>
<!-- Node2 -->
<g id="node2" class="node">
<title>Node2</title>
<g id="a_node2"><a xlink:href="classkazoo_1_1ModelTester.html#a972ca91e756c8f5975e8d69204260f13" target="_top" xlink:title=" ">
<polygon fill="none" stroke="black" points="431.5,-578.5 431.5,-608.5 541.5,-608.5 541.5,-578.5 431.5,-578.5"/>
<text text-anchor="start" x="439.5" y="-596.5" font-family="Helvetica,sans-Serif" font-size="10.00">kazoo::ModelTester</text>
<text text-anchor="middle" x="486.5" y="-585.5" font-family="Helvetica,sans-Serif" font-size="10.00">::expectTrue</text>
</a>
</g>
</g>
<!-- Node1&#45;&gt;Node2 -->
<g id="edge1" class="edge">
<title>Node1&#45;&gt;Node2</title>
<path fill="none" stroke="midnightblue" d="M100.73,-376.73C146.5,-415.21 273.65,-517.02 397,-569.5 404.79,-572.81 413.17,-575.79 421.54,-578.42"/>
<polygon fill="midnightblue" stroke="midnightblue" points="420.76,-581.84 431.35,-581.35 422.77,-575.13 420.76,-581.84"/>
</g>
<!-- Node5 -->
<g id="node5" class="node">
<title>Node5</title>
<g id="a_node5"><a xlink:href="classkazoo_1_1ModelTester.html#a7fb957b1363edf86aef2d5dd839b2749" target="_top" xlink:title=" ">
<polygon fill="none" stroke="black" points="217,-275.5 217,-305.5 344,-305.5 344,-275.5 217,-275.5"/>
<text text-anchor="start" x="225" y="-293.5" font-family="Helvetica,sans-Serif" font-size="10.00">kazoo::ModelTester</text>
<text text-anchor="middle" x="280.5" y="-282.5" font-family="Helvetica,sans-Serif" font-size="10.00">::getRandomTestString</text>
</a>
</g>
</g>
<!-- Node1&#45;&gt;Node5 -->
<g id="edge4" class="edge">
<title>Node1&#45;&gt;Node5</title>
<path fill="none" stroke="midnightblue" d="M124.67,-346.44C154.89,-335.52 195.95,-320.69 228.19,-309.04"/>
<polygon fill="midnightblue" stroke="midnightblue" points="229.67,-312.23 237.89,-305.54 227.29,-305.64 229.67,-312.23"/>
</g>
<!-- Node7 -->
<g id="node7" class="node">
<title>Node7</title>
<g id="a_node7"><a xlink:href="classkazoo_1_1ModelTester.html#a2d86a19402c92c173a6ffa8838835935" target="_top" xlink:title=" ">
<polygon fill="none" stroke="black" points="200,-93 200,-134 361,-134 361,-93 200,-93"/>
<text text-anchor="start" x="208" y="-122" font-family="Helvetica,sans-Serif" font-size="10.00">kazoo::ModelTester</text>
<text text-anchor="start" x="208" y="-111" font-family="Helvetica,sans-Serif" font-size="10.00">::helper_decodeAudioChannel</text>
<text text-anchor="middle" x="280.5" y="-100" font-family="Helvetica,sans-Serif" font-size="10.00">ToString</text>
</a>
</g>
</g>
<!-- Node1&#45;&gt;Node7 -->
<g id="edge6" class="edge">
<title>Node1&#45;&gt;Node7</title>
<path fill="none" stroke="midnightblue" d="M91.07,-346.02C108.4,-313.54 151.6,-236.71 200,-181.5 212.91,-166.77 229.05,-152.39 243.41,-140.67"/>
<polygon fill="midnightblue" stroke="midnightblue" points="246,-143.08 251.62,-134.09 241.63,-137.61 246,-143.08"/>
</g>
<!-- Node12 -->
<g id="node12" class="node">
<title>Node12</title>
<g id="a_node12"><a xlink:href="classkazoo_1_1ModelTester.html#ae3b12528cffc8ff611b85d82c63d84c5" target="_top" xlink:title=" ">
<polygon fill="none" stroke="black" points="200,-401 200,-442 361,-442 361,-401 200,-401"/>
<text text-anchor="start" x="208" y="-430" font-family="Helvetica,sans-Serif" font-size="10.00">kazoo::ModelTester</text>
<text text-anchor="start" x="208" y="-419" font-family="Helvetica,sans-Serif" font-size="10.00">::helper_encodeStringToAudio</text>
<text text-anchor="middle" x="280.5" y="-408" font-family="Helvetica,sans-Serif" font-size="10.00">Channel</text>
</a>
</g>
</g>
<!-- Node1&#45;&gt;Node12 -->
<g id="edge11" class="edge">
<title>Node1&#45;&gt;Node12</title>
<path fill="none" stroke="midnightblue" d="M132.33,-376.56C153.61,-383.06 179.01,-390.82 202.66,-398.04"/>
<polygon fill="midnightblue" stroke="midnightblue" points="201.74,-401.42 212.33,-400.99 203.78,-394.72 201.74,-401.42"/>
</g>
<!-- Node20 -->
<g id="node20" class="node">
<title>Node20</title>
<g id="a_node20"><a xlink:href="classkazoo_1_1Logger.html#ab6e4c2a261f2b6b8481ab1d606f50177" target="_top" xlink:title=" ">
<polygon fill="none" stroke="black" points="612,-626 612,-645 749,-645 749,-626 612,-626"/>
<text text-anchor="middle" x="680.5" y="-633" font-family="Helvetica,sans-Serif" font-size="10.00">kazoo::Logger::logDebug</text>
</a>
</g>
</g>
<!-- Node1&#45;&gt;Node20 -->
<g id="edge20" class="edge">
<title>Node1&#45;&gt;Node20</title>
<path fill="none" stroke="midnightblue" d="M91.13,-376.72C107.95,-407.05 149.3,-475.79 200,-518.5 275.1,-581.76 302.24,-592.79 397,-618.5 464.44,-636.79 544.13,-640.01 601.65,-639.25"/>
<polygon fill="midnightblue" stroke="midnightblue" points="601.82,-642.75 611.76,-639.08 601.7,-635.75 601.82,-642.75"/>
</g>
<!-- Node21 -->
<g id="node21" class="node">
<title>Node21</title>
<g id="a_node21"><a xlink:href="classkazoo_1_1ModelTester.html#a702e366157b9a545b104494ae0924054" target="_top" xlink:title=" ">
<polygon fill="none" stroke="black" points="225.5,-191.5 225.5,-221.5 335.5,-221.5 335.5,-191.5 225.5,-191.5"/>
<text text-anchor="start" x="233.5" y="-209.5" font-family="Helvetica,sans-Serif" font-size="10.00">kazoo::ModelTester</text>
<text text-anchor="middle" x="280.5" y="-198.5" font-family="Helvetica,sans-Serif" font-size="10.00">::resetState</text>
</a>
</g>
</g>
<!-- Node1&#45;&gt;Node21 -->
<g id="edge22" class="edge">
<title>Node1&#45;&gt;Node21</title>
<path fill="none" stroke="midnightblue" d="M101.08,-346.49C123.93,-327.59 164.56,-294.24 200,-266.5 216.77,-253.37 235.81,-238.98 251.05,-227.59"/>
<polygon fill="midnightblue" stroke="midnightblue" points="253.17,-230.38 259.09,-221.59 248.98,-224.77 253.17,-230.38"/>
</g>
<!-- Node3 -->
<g id="node3" class="node">
<title>Node3</title>
<g id="a_node3"><a xlink:href="classkazoo_1_1Logger.html#add67bfbca917a0cb6c9b4424c79eefeb" target="_top" xlink:title=" ">
<polygon fill="none" stroke="black" points="616.5,-585 616.5,-604 744.5,-604 744.5,-585 616.5,-585"/>
<text text-anchor="middle" x="680.5" y="-592" font-family="Helvetica,sans-Serif" font-size="10.00">kazoo::Logger::logError</text>
</a>
</g>
</g>
<!-- Node2&#45;&gt;Node3 -->
<g id="edge2" class="edge">
<title>Node2&#45;&gt;Node3</title>
<path fill="none" stroke="midnightblue" d="M541.75,-593.78C561.76,-593.89 584.77,-594.01 606.18,-594.12"/>
<polygon fill="midnightblue" stroke="midnightblue" points="606.2,-597.62 616.22,-594.17 606.24,-590.62 606.2,-597.62"/>
</g>
<!-- Node4 -->
<g id="node4" class="node">
<title>Node4</title>
<g id="a_node4"><a xlink:href="classkazoo_1_1Logger.html#ab69883e34a35febd7597c646022ca0cb" target="_top" xlink:title=" ">
<polygon fill="none" stroke="black" points="785,-605 785,-624 890,-624 890,-605 785,-605"/>
<text text-anchor="middle" x="837.5" y="-612" font-family="Helvetica,sans-Serif" font-size="10.00">kazoo::Logger::log</text>
</a>
</g>
</g>
<!-- Node3&#45;&gt;Node4 -->
<g id="edge3" class="edge">
<title>Node3&#45;&gt;Node4</title>
<path fill="none" stroke="midnightblue" d="M744.54,-602.63C754.5,-603.92 764.78,-605.25 774.7,-606.53"/>
<polygon fill="midnightblue" stroke="midnightblue" points="774.52,-610.03 784.89,-607.84 775.42,-603.09 774.52,-610.03"/>
</g>
<!-- Node6 -->
<g id="node6" class="node">
<title>Node6</title>
<g id="a_node6"><a xlink:href="classkazoo_1_1ModelTester.html#a0efeae66058019794185110c784a00fd" target="_top" xlink:title=" ">
<polygon fill="none" stroke="black" points="430,-235.5 430,-265.5 543,-265.5 543,-235.5 430,-235.5"/>
<text text-anchor="start" x="438" y="-253.5" font-family="Helvetica,sans-Serif" font-size="10.00">kazoo::ModelTester</text>
<text text-anchor="middle" x="486.5" y="-242.5" font-family="Helvetica,sans-Serif" font-size="10.00">::getRandomDouble</text>
</a>
</g>
</g>
<!-- Node5&#45;&gt;Node6 -->
<g id="edge5" class="edge">
<title>Node5&#45;&gt;Node6</title>
<path fill="none" stroke="midnightblue" d="M344.09,-278.23C368.18,-273.5 395.73,-268.1 420.08,-263.33"/>
<polygon fill="midnightblue" stroke="midnightblue" points="420.8,-266.75 429.94,-261.39 419.46,-259.88 420.8,-266.75"/>
</g>
<!-- Node8 -->
<g id="node8" class="node">
<title>Node8</title>
<g id="a_node8"><a xlink:href="classkazoo_1_1ISymbolStream.html#af55f1fe1a9b779fdd261ea6beb3420d3" target="_top" xlink:title="Clear/Reset the symbol stream.">
<polygon fill="none" stroke="black" points="423.5,-147.5 423.5,-177.5 549.5,-177.5 549.5,-147.5 423.5,-147.5"/>
<text text-anchor="start" x="431.5" y="-165.5" font-family="Helvetica,sans-Serif" font-size="10.00">kazoo::ISymbolStream</text>
<text text-anchor="middle" x="486.5" y="-154.5" font-family="Helvetica,sans-Serif" font-size="10.00">::clear</text>
</a>
</g>
</g>
<!-- Node7&#45;&gt;Node8 -->
<g id="edge7" class="edge">
<title>Node7&#45;&gt;Node8</title>
<path fill="none" stroke="midnightblue" d="M361.25,-132.66C378.53,-136.81 396.71,-141.17 413.66,-145.25"/>
<polygon fill="midnightblue" stroke="midnightblue" points="412.95,-148.67 423.49,-147.61 414.58,-141.87 412.95,-148.67"/>
</g>
<!-- Node9 -->
<g id="node9" class="node">
<title>Node9</title>
<g id="a_node9"><a xlink:href="classkazoo_1_1ISymbolModel.html#a2c41b4fca45a1bb19613435c92fb91d4" target="_top" xlink:title=" ">
<polygon fill="none" stroke="black" points="417.5,-0.5 417.5,-30.5 555.5,-30.5 555.5,-0.5 417.5,-0.5"/>
<text text-anchor="start" x="425.5" y="-18.5" font-family="Helvetica,sans-Serif" font-size="10.00">kazoo::ISymbolModel</text>
<text text-anchor="middle" x="486.5" y="-7.5" font-family="Helvetica,sans-Serif" font-size="10.00">::decodeAudioToSymbols</text>
</a>
</g>
</g>
<!-- Node7&#45;&gt;Node9 -->
<g id="edge8" class="edge">
<title>Node7&#45;&gt;Node9</title>
<path fill="none" stroke="midnightblue" d="M308.62,-92.73C331.21,-76.29 364.78,-53.79 397,-39.5 401.61,-37.46 406.44,-35.55 411.35,-33.78"/>
<polygon fill="midnightblue" stroke="midnightblue" points="412.55,-37.07 420.89,-30.54 410.29,-30.44 412.55,-37.07"/>
</g>
<!-- Node10 -->
<g id="node10" class="node">
<title>Node10</title>
<g id="a_node10"><a xlink:href="classkazoo_1_1BinaryStream.html#a9cf1c3eb54ace654061894c7278b6d32" target="_top" xlink:title="Get a const reference to the underlying stream data.">
<polygon fill="none" stroke="black" points="424,-98.5 424,-128.5 549,-128.5 549,-98.5 424,-98.5"/>
<text text-anchor="start" x="432" y="-116.5" font-family="Helvetica,sans-Serif" font-size="10.00">kazoo::BinaryStream</text>
<text text-anchor="middle" x="486.5" y="-105.5" font-family="Helvetica,sans-Serif" font-size="10.00">::getStreamDataConst</text>
</a>
</g>
</g>
<!-- Node7&#45;&gt;Node10 -->
<g id="edge9" class="edge">
<title>Node7&#45;&gt;Node10</title>
<path fill="none" stroke="midnightblue" d="M361.25,-113.5C378.46,-113.5 396.56,-113.5 413.46,-113.5"/>
<polygon fill="midnightblue" stroke="midnightblue" points="413.81,-117 423.81,-113.5 413.81,-110 413.81,-117"/>
</g>
<!-- Node11 -->
<g id="node11" class="node">
<title>Node11</title>
<g id="a_node11"><a xlink:href="classkazoo_1_1ISymbolStream.html#a6dd43cbf09e35b93f95b1d3ad2bc7f0a" target="_top" xlink:title=" ">
<polygon fill="none" stroke="black" points="420.5,-49.5 420.5,-79.5 552.5,-79.5 552.5,-49.5 420.5,-49.5"/>
<text text-anchor="start" x="428.5" y="-67.5" font-family="Helvetica,sans-Serif" font-size="10.00">kazoo::ISymbolStream</text>
<text text-anchor="middle" x="486.5" y="-56.5" font-family="Helvetica,sans-Serif" font-size="10.00">::populateBinaryStream</text>
</a>
</g>
</g>
<!-- Node7&#45;&gt;Node11 -->
<g id="edge10" class="edge">
<title>Node7&#45;&gt;Node11</title>
<path fill="none" stroke="midnightblue" d="M361.25,-94.34C378.34,-90.24 396.32,-85.92 413.11,-81.89"/>
<polygon fill="midnightblue" stroke="midnightblue" points="413.95,-85.29 422.85,-79.55 412.31,-78.48 413.95,-85.29"/>
</g>
<!-- Node12&#45;&gt;Node2 -->
<g id="edge15" class="edge">
<title>Node12&#45;&gt;Node2</title>
<path fill="none" stroke="midnightblue" d="M303.57,-442.29C320.41,-458.78 343.61,-482.92 361,-506.5 380.14,-532.45 371.49,-549.77 397,-569.5 404.31,-575.15 412.85,-579.47 421.69,-582.78"/>
<polygon fill="midnightblue" stroke="midnightblue" points="420.76,-586.16 431.35,-585.98 422.96,-579.51 420.76,-586.16"/>
</g>
<!-- Node13 -->
<g id="node13" class="node">
<title>Node13</title>
<g id="a_node13"><a xlink:href="classkazoo_1_1BinaryStream.html#a5bcef3247636f3ffd53309244c9e6a10" target="_top" xlink:title="Add bytes to the stream. If the stream is not byte aligned when this function is called,...">
<polygon fill="none" stroke="black" points="427.5,-431.5 427.5,-461.5 545.5,-461.5 545.5,-431.5 427.5,-431.5"/>
<text text-anchor="start" x="435.5" y="-449.5" font-family="Helvetica,sans-Serif" font-size="10.00">kazoo::BinaryStream</text>
<text text-anchor="middle" x="486.5" y="-438.5" font-family="Helvetica,sans-Serif" font-size="10.00">::addBytes</text>
</a>
</g>
</g>
<!-- Node12&#45;&gt;Node13 -->
<g id="edge12" class="edge">
<title>Node12&#45;&gt;Node13</title>
<path fill="none" stroke="midnightblue" d="M361.25,-431.27C379.74,-433.54 399.25,-435.93 417.2,-438.13"/>
<polygon fill="midnightblue" stroke="midnightblue" points="416.92,-441.62 427.28,-439.36 417.78,-434.67 416.92,-441.62"/>
</g>
<!-- Node15 -->
<g id="node15" class="node">
<title>Node15</title>
<g id="a_node15"><a xlink:href="classkazoo_1_1IEncoder.html#abe1a45e3899b69dc6ce63066a4f89cc3" target="_top" xlink:title=" ">
<polygon fill="none" stroke="black" points="397,-382.5 397,-412.5 576,-412.5 576,-382.5 397,-382.5"/>
<text text-anchor="start" x="405" y="-400.5" font-family="Helvetica,sans-Serif" font-size="10.00">kazoo::IEncoder::encodeAvailable</text>
<text text-anchor="middle" x="486.5" y="-389.5" font-family="Helvetica,sans-Serif" font-size="10.00">Symbols</text>
</a>
</g>
</g>
<!-- Node12&#45;&gt;Node15 -->
<g id="edge14" class="edge">
<title>Node12&#45;&gt;Node15</title>
<path fill="none" stroke="midnightblue" d="M361.25,-412.12C369.6,-411.14 378.16,-410.13 386.7,-409.12"/>
<polygon fill="midnightblue" stroke="midnightblue" points="387.16,-412.59 396.69,-407.95 386.35,-405.64 387.16,-412.59"/>
</g>
<!-- Node16 -->
<g id="node16" class="node">
<title>Node16</title>
<g id="a_node16"><a xlink:href="classkazoo_1_1ISymbolStream.html#a9e3b2b62a64109d782aa7746041e7e95" target="_top" xlink:title=" ">
<polygon fill="none" stroke="black" points="423.5,-333.5 423.5,-363.5 549.5,-363.5 549.5,-333.5 423.5,-333.5"/>
<text text-anchor="start" x="431.5" y="-351.5" font-family="Helvetica,sans-Serif" font-size="10.00">kazoo::ISymbolStream</text>
<text text-anchor="middle" x="486.5" y="-340.5" font-family="Helvetica,sans-Serif" font-size="10.00">::getNumBytes</text>
</a>
</g>
</g>
<!-- Node12&#45;&gt;Node16 -->
<g id="edge16" class="edge">
<title>Node12&#45;&gt;Node16</title>
<path fill="none" stroke="midnightblue" d="M327.38,-400.96C348.38,-391.95 373.72,-381.59 397,-373.5 403.95,-371.08 411.26,-368.73 418.58,-366.49"/>
<polygon fill="midnightblue" stroke="midnightblue" points="419.96,-369.73 428.53,-363.52 417.95,-363.03 419.96,-369.73"/>
</g>
<!-- Node17 -->
<g id="node17" class="node">
<title>Node17</title>
<g id="a_node17"><a xlink:href="classkazoo_1_1AudioChannel.html#a97d2202c18916b93bb72b4c540ba75ed" target="_top" xlink:title=" ">
<polygon fill="none" stroke="black" points="427,-284.5 427,-314.5 546,-314.5 546,-284.5 427,-284.5"/>
<text text-anchor="start" x="435" y="-302.5" font-family="Helvetica,sans-Serif" font-size="10.00">kazoo::AudioChannel</text>
<text text-anchor="middle" x="486.5" y="-291.5" font-family="Helvetica,sans-Serif" font-size="10.00">::getNumSamples</text>
</a>
</g>
</g>
<!-- Node12&#45;&gt;Node17 -->
<g id="edge17" class="edge">
<title>Node12&#45;&gt;Node17</title>
<path fill="none" stroke="midnightblue" d="M300.82,-400.71C322.32,-378.75 359.05,-344.59 397,-324.5 403.31,-321.16 410.11,-318.23 417.04,-315.66"/>
<polygon fill="midnightblue" stroke="midnightblue" points="418.23,-318.95 426.54,-312.37 415.94,-312.33 418.23,-318.95"/>
</g>
<!-- Node18 -->
<g id="node18" class="node">
<title>Node18</title>
<g id="a_node18"><a xlink:href="classkazoo_1_1ISymbolModel.html#a08668909fe1a7f901fe26ad30f9a1e30" target="_top" xlink:title=" ">
<polygon fill="none" stroke="black" points="426,-529.5 426,-559.5 547,-559.5 547,-529.5 426,-529.5"/>
<text text-anchor="start" x="434" y="-547.5" font-family="Helvetica,sans-Serif" font-size="10.00">kazoo::ISymbolModel</text>
<text text-anchor="middle" x="486.5" y="-536.5" font-family="Helvetica,sans-Serif" font-size="10.00">::getSymbolBitWidth</text>
</a>
</g>
</g>
<!-- Node12&#45;&gt;Node18 -->
<g id="edge18" class="edge">
<title>Node12&#45;&gt;Node18</title>
<path fill="none" stroke="midnightblue" d="M299.92,-442C321.19,-464.46 358.25,-499.99 397,-520.5 402.96,-523.65 409.36,-526.42 415.91,-528.84"/>
<polygon fill="midnightblue" stroke="midnightblue" points="414.96,-532.21 425.56,-532.14 417.23,-525.59 414.96,-532.21"/>
</g>
<!-- Node19 -->
<g id="node19" class="node">
<title>Node19</title>
<g id="a_node19"><a xlink:href="classkazoo_1_1ISymbolStream.html#a5f31cbfcdd4d258dc14a0eb166a7b944" target="_top" xlink:title=" ">
<polygon fill="none" stroke="black" points="423,-480.5 423,-510.5 550,-510.5 550,-480.5 423,-480.5"/>
<text text-anchor="start" x="431" y="-498.5" font-family="Helvetica,sans-Serif" font-size="10.00">kazoo::ISymbolStream</text>
<text text-anchor="middle" x="486.5" y="-487.5" font-family="Helvetica,sans-Serif" font-size="10.00">::processBinaryStream</text>
</a>
</g>
</g>
<!-- Node12&#45;&gt;Node19 -->
<g id="edge19" class="edge">
<title>Node12&#45;&gt;Node19</title>
<path fill="none" stroke="midnightblue" d="M325.06,-442.12C346.45,-451.79 372.77,-463.02 397,-471.5 402.92,-473.57 409.11,-475.57 415.35,-477.48"/>
<polygon fill="midnightblue" stroke="midnightblue" points="414.58,-480.9 425.16,-480.39 416.57,-474.19 414.58,-480.9"/>
</g>
<!-- Node14 -->
<g id="node14" class="node">
<title>Node14</title>
<g id="a_node14"><a xlink:href="classkazoo_1_1BinaryStream.html#a32b6f202b2627b75ace2e6c9c07726aa" target="_top" xlink:title="Get the byte alignment status of the stream.">
<polygon fill="none" stroke="black" points="621.5,-431.5 621.5,-461.5 739.5,-461.5 739.5,-431.5 621.5,-431.5"/>
<text text-anchor="start" x="629.5" y="-449.5" font-family="Helvetica,sans-Serif" font-size="10.00">kazoo::BinaryStream</text>
<text text-anchor="middle" x="680.5" y="-438.5" font-family="Helvetica,sans-Serif" font-size="10.00">::isByteAligned</text>
</a>
</g>
</g>
<!-- Node13&#45;&gt;Node14 -->
<g id="edge13" class="edge">
<title>Node13&#45;&gt;Node14</title>
<path fill="none" stroke="midnightblue" d="M545.63,-446.5C566.3,-446.5 589.77,-446.5 611.22,-446.5"/>
<polygon fill="midnightblue" stroke="midnightblue" points="611.24,-450 621.24,-446.5 611.24,-443 611.24,-450"/>
</g>
<!-- Node20&#45;&gt;Node4 -->
<g id="edge21" class="edge">
<title>Node20&#45;&gt;Node4</title>
<path fill="none" stroke="midnightblue" d="M749.03,-626.35C757.5,-625.2 766.13,-624.03 774.51,-622.9"/>
<polygon fill="midnightblue" stroke="midnightblue" points="775.13,-626.35 784.57,-621.54 774.19,-619.41 775.13,-626.35"/>
</g>
<!-- Node21&#45;&gt;Node8 -->
<g id="edge24" class="edge">
<title>Node21&#45;&gt;Node8</title>
<path fill="none" stroke="midnightblue" d="M335.63,-194.82C359.39,-189.7 387.63,-183.61 413.16,-178.1"/>
<polygon fill="midnightblue" stroke="midnightblue" points="414.13,-181.47 423.16,-175.95 412.65,-174.63 414.13,-181.47"/>
</g>
<!-- Node22 -->
<g id="node22" class="node">
<title>Node22</title>
<g id="a_node22"><a xlink:href="classkazoo_1_1IEncoder.html#a8f9aac087c06e7fe51aec3903843f644" target="_top" xlink:title=" ">
<polygon fill="none" stroke="black" points="425,-197 425,-216 548,-216 548,-197 425,-197"/>
<text text-anchor="middle" x="486.5" y="-204" font-family="Helvetica,sans-Serif" font-size="10.00">kazoo::IEncoder::clear</text>
</a>
</g>
</g>
<!-- Node21&#45;&gt;Node22 -->
<g id="edge23" class="edge">
<title>Node21&#45;&gt;Node22</title>
<path fill="none" stroke="midnightblue" d="M335.63,-206.5C359.91,-206.5 388.87,-206.5 414.83,-206.5"/>
<polygon fill="midnightblue" stroke="midnightblue" points="415,-210 425,-206.5 415,-203 415,-210"/>
</g>
</g>
</svg>
