<?xml version="1.0" encoding="UTF-8" standalone="no"?>
<!DOCTYPE svg PUBLIC "-//W3C//DTD SVG 1.1//EN"
 "http://www.w3.org/Graphics/SVG/1.1/DTD/svg11.dtd">
<!-- Generated by graphviz version 2.43.0 (0)
 -->
<!-- Title: sock::TcpSocketServer::~TcpSocketServer Pages: 1 -->
<svg width="455pt" height="79pt"
 viewBox="0.00 0.00 455.00 79.00" xmlns="http://www.w3.org/2000/svg" xmlns:xlink="http://www.w3.org/1999/xlink">
<g id="graph0" class="graph" transform="scale(1 1) rotate(0) translate(4 75)">
<title>sock::TcpSocketServer::~TcpSocketServer</title>
<!-- Node1 -->
<g id="node1" class="node">
<title>Node1</title>
<g id="a_node1"><a xlink:title=" ">
<polygon fill="#bfbfbf" stroke="black" points="0,-0.5 0,-30.5 125,-30.5 125,-0.5 0,-0.5"/>
<text text-anchor="start" x="8" y="-18.5" font-family="Helvetica,sans-Serif" font-size="10.00">sock::TcpSocketServer</text>
<text text-anchor="middle" x="62.5" y="-7.5" font-family="Helvetica,sans-Serif" font-size="10.00">::~TcpSocketServer</text>
</a>
</g>
</g>
<!-- Node2 -->
<g id="node2" class="node">
<title>Node2</title>
<g id="a_node2"><a xlink:href="classsock_1_1TcpSocketServer.html#ada37dff8b6cad8a7108f02c11544ceb8" target="_top" xlink:title=" ">
<polygon fill="none" stroke="black" points="161,-22.5 161,-52.5 286,-52.5 286,-22.5 161,-22.5"/>
<text text-anchor="start" x="169" y="-40.5" font-family="Helvetica,sans-Serif" font-size="10.00">sock::TcpSocketServer</text>
<text text-anchor="middle" x="223.5" y="-29.5" font-family="Helvetica,sans-Serif" font-size="10.00">::close</text>
</a>
</g>
</g>
<!-- Node1&#45;&gt;Node2 -->
<g id="edge1" class="edge">
<title>Node1&#45;&gt;Node2</title>
<path fill="none" stroke="midnightblue" d="M125.43,-24.07C133.67,-25.21 142.18,-26.39 150.58,-27.55"/>
<polygon fill="midnightblue" stroke="midnightblue" points="150.35,-31.05 160.74,-28.95 151.31,-24.12 150.35,-31.05"/>
</g>
<!-- Node3 -->
<g id="node3" class="node">
<title>Node3</title>
<g id="a_node3"><a xlink:href="classsock_1_1TcpSocketServer.html#a67fd24b7ac134d195a0c0bb112834602" target="_top" xlink:title=" ">
<polygon fill="none" stroke="black" points="322,-0.5 322,-30.5 447,-30.5 447,-0.5 322,-0.5"/>
<text text-anchor="start" x="330" y="-18.5" font-family="Helvetica,sans-Serif" font-size="10.00">sock::TcpSocketServer</text>
<text text-anchor="middle" x="384.5" y="-7.5" font-family="Helvetica,sans-Serif" font-size="10.00">::isValid</text>
</a>
</g>
</g>
<!-- Node1&#45;&gt;Node3 -->
<g id="edge4" class="edge">
<title>Node1&#45;&gt;Node3</title>
<path fill="none" stroke="midnightblue" d="M125.13,-14.04C137.03,-13.82 149.4,-13.62 161,-13.5 216.55,-12.93 230.45,-12.93 286,-13.5 294.34,-13.59 303.07,-13.71 311.74,-13.86"/>
<polygon fill="midnightblue" stroke="midnightblue" points="311.81,-17.36 321.87,-14.04 311.93,-10.36 311.81,-17.36"/>
</g>
<!-- Node2&#45;&gt;Node2 -->
<g id="edge2" class="edge">
<title>Node2&#45;&gt;Node2</title>
<path fill="none" stroke="midnightblue" d="M195.62,-52.66C188.89,-62.06 198.19,-71 223.5,-71 238.92,-71 248.4,-67.68 251.93,-62.96"/>
<polygon fill="midnightblue" stroke="midnightblue" points="255.41,-62.46 251.38,-52.66 248.42,-62.83 255.41,-62.46"/>
</g>
<!-- Node2&#45;&gt;Node3 -->
<g id="edge3" class="edge">
<title>Node2&#45;&gt;Node3</title>
<path fill="none" stroke="midnightblue" d="M286.43,-28.93C294.67,-27.79 303.18,-26.61 311.58,-25.45"/>
<polygon fill="midnightblue" stroke="midnightblue" points="312.31,-28.88 321.74,-24.05 311.35,-21.95 312.31,-28.88"/>
</g>
</g>
</svg>
