<?xml version="1.0" encoding="UTF-8" standalone="no"?>
<!DOCTYPE svg PUBLIC "-//W3C//DTD SVG 1.1//EN"
 "http://www.w3.org/Graphics/SVG/1.1/DTD/svg11.dtd">
<!-- Generated by graphviz version 2.43.0 (0)
 -->
<!-- Title: sock::TcpSocketServer::send Pages: 1 -->
<svg width="371pt" height="79pt"
 viewBox="0.00 0.00 371.00 79.00" xmlns="http://www.w3.org/2000/svg" xmlns:xlink="http://www.w3.org/1999/xlink">
<g id="graph0" class="graph" transform="scale(1 1) rotate(0) translate(4 75)">
<title>sock::TcpSocketServer::send</title>
<!-- Node1 -->
<g id="node1" class="node">
<title>Node1</title>
<g id="a_node1"><a xlink:title=" ">
<polygon fill="#bfbfbf" stroke="black" points="238,-22.5 238,-52.5 363,-52.5 363,-22.5 238,-22.5"/>
<text text-anchor="start" x="246" y="-40.5" font-family="Helvetica,sans-Serif" font-size="10.00">sock::TcpSocketServer</text>
<text text-anchor="middle" x="300.5" y="-29.5" font-family="Helvetica,sans-Serif" font-size="10.00">::send</text>
</a>
</g>
</g>
<!-- Node1&#45;&gt;Node1 -->
<g id="edge3" class="edge">
<title>Node1&#45;&gt;Node1</title>
<path fill="none" stroke="midnightblue" d="M328.93,-62.96C325.4,-67.68 315.92,-71 300.5,-71 275.19,-71 265.89,-62.06 272.62,-52.66"/>
<polygon fill="midnightblue" stroke="midnightblue" points="332.41,-62.46 328.38,-52.66 325.42,-62.83 332.41,-62.46"/>
</g>
<!-- Node2 -->
<g id="node2" class="node">
<title>Node2</title>
<g id="a_node2"><a xlink:href="src_2kazoo__connect__server_2main_8cpp.html#a3569f5249387954388ba619b8e21009b" target="_top" xlink:title="One of the HTTP servers of all time.">
<polygon fill="none" stroke="black" points="89,-50 89,-69 190,-69 190,-50 89,-50"/>
<text text-anchor="middle" x="139.5" y="-57" font-family="Helvetica,sans-Serif" font-size="10.00">httpServerThread</text>
</a>
</g>
</g>
<!-- Node1&#45;&gt;Node2 -->
<g id="edge1" class="edge">
<title>Node1&#45;&gt;Node2</title>
<path fill="none" stroke="midnightblue" d="M227.54,-47.46C214.92,-49.2 202.05,-50.98 190.22,-52.62"/>
<polygon fill="midnightblue" stroke="midnightblue" points="228.15,-50.91 237.57,-46.07 227.19,-43.97 228.15,-50.91"/>
</g>
<!-- Node4 -->
<g id="node4" class="node">
<title>Node4</title>
<g id="a_node4"><a xlink:href="classsock_1_1TcpSocketServer.html#a20371784cee1df4f8aa14004d8f7aa2e" target="_top" xlink:title=" ">
<polygon fill="none" stroke="black" points="77,-0.5 77,-30.5 202,-30.5 202,-0.5 77,-0.5"/>
<text text-anchor="start" x="85" y="-18.5" font-family="Helvetica,sans-Serif" font-size="10.00">sock::TcpSocketServer</text>
<text text-anchor="middle" x="139.5" y="-7.5" font-family="Helvetica,sans-Serif" font-size="10.00">::sendRawData</text>
</a>
</g>
</g>
<!-- Node1&#45;&gt;Node4 -->
<g id="edge4" class="edge">
<title>Node1&#45;&gt;Node4</title>
<path fill="none" stroke="midnightblue" d="M227.41,-27.53C219.01,-26.36 210.5,-25.19 202.26,-24.05"/>
<polygon fill="midnightblue" stroke="midnightblue" points="227.19,-31.03 237.57,-28.93 228.15,-24.09 227.19,-31.03"/>
</g>
<!-- Node3 -->
<g id="node3" class="node">
<title>Node3</title>
<g id="a_node3"><a xlink:href="src_2kazoo__connect__server_2main_8cpp.html#ae66f6b31b5ad750f1fe042a706a4e3d4" target="_top" xlink:title=" ">
<polygon fill="none" stroke="black" points="0,-50 0,-69 41,-69 41,-50 0,-50"/>
<text text-anchor="middle" x="20.5" y="-57" font-family="Helvetica,sans-Serif" font-size="10.00">main</text>
</a>
</g>
</g>
<!-- Node2&#45;&gt;Node3 -->
<g id="edge2" class="edge">
<title>Node2&#45;&gt;Node3</title>
<path fill="none" stroke="midnightblue" d="M78.56,-59.5C65.02,-59.5 51.59,-59.5 41.16,-59.5"/>
<polygon fill="midnightblue" stroke="midnightblue" points="78.88,-63 88.88,-59.5 78.88,-56 78.88,-63"/>
</g>
</g>
</svg>
