<?xml version="1.0" encoding="UTF-8" standalone="no"?>
<!DOCTYPE svg PUBLIC "-//W3C//DTD SVG 1.1//EN"
 "http://www.w3.org/Graphics/SVG/1.1/DTD/svg11.dtd">
<!-- Generated by graphviz version 2.43.0 (0)
 -->
<!-- Title: kazoo::BinaryStream::getNumBytes Pages: 1 -->
<svg width="1118pt" height="365pt"
 viewBox="0.00 0.00 1118.00 365.05" xmlns="http://www.w3.org/2000/svg" xmlns:xlink="http://www.w3.org/1999/xlink">
<g id="graph0" class="graph" transform="scale(1 1) rotate(0) translate(4 361.05)">
<title>kazoo::BinaryStream::getNumBytes</title>
<!-- Node1 -->
<g id="node1" class="node">
<title>Node1</title>
<g id="a_node1"><a xlink:title="Get the number of bytes in the stream. If the stream has spare bits that do not align to a byte,...">
<polygon fill="#bfbfbf" stroke="black" points="992,-159 992,-189 1110,-189 1110,-159 992,-159"/>
<text text-anchor="start" x="1000" y="-177" font-family="Helvetica,sans-Serif" font-size="10.00">kazoo::BinaryStream</text>
<text text-anchor="middle" x="1051" y="-166" font-family="Helvetica,sans-Serif" font-size="10.00">::getNumBytes</text>
</a>
</g>
</g>
<!-- Node2 -->
<g id="node2" class="node">
<title>Node2</title>
<g id="a_node2"><a xlink:href="classkazoo_1_1Deframer.html#ad544e3c1a1301cc5ab77389eab411b03" target="_top" xlink:title=" ">
<polygon fill="none" stroke="black" points="574,-186.5 574,-205.5 750,-205.5 750,-186.5 574,-186.5"/>
<text text-anchor="middle" x="662" y="-193.5" font-family="Helvetica,sans-Serif" font-size="10.00">kazoo::Deframer::findFrameData</text>
</a>
</g>
</g>
<!-- Node1&#45;&gt;Node2 -->
<g id="edge1" class="edge">
<title>Node1&#45;&gt;Node2</title>
<path fill="none" stroke="midnightblue" d="M981.58,-177.89C917.11,-181.55 820.22,-187.06 750.23,-191.04"/>
<polygon fill="midnightblue" stroke="midnightblue" points="981.86,-181.38 991.64,-177.32 981.46,-174.39 981.86,-181.38"/>
</g>
<!-- Node3 -->
<g id="node3" class="node">
<title>Node3</title>
<g id="a_node3"><a xlink:href="classkazoo_1_1Deframer.html#a79d8b406e773fdc32d7c5002b9e37e2b" target="_top" xlink:title=" ">
<polygon fill="none" stroke="black" points="365,-262.5 365,-281.5 538,-281.5 538,-262.5 365,-262.5"/>
<text text-anchor="middle" x="451.5" y="-269.5" font-family="Helvetica,sans-Serif" font-size="10.00">kazoo::Deframer::findFrameSize</text>
</a>
</g>
</g>
<!-- Node1&#45;&gt;Node3 -->
<g id="edge10" class="edge">
<title>Node1&#45;&gt;Node3</title>
<path fill="none" stroke="midnightblue" d="M1031.12,-196.65C1013.79,-215.59 986.28,-241.31 956,-253 803.8,-311.74 606.13,-294.98 510.03,-281.55"/>
<polygon fill="midnightblue" stroke="midnightblue" points="1033.88,-198.82 1037.9,-189.01 1028.64,-194.17 1033.88,-198.82"/>
</g>
<!-- Node4 -->
<g id="node4" class="node">
<title>Node4</title>
<g id="a_node4"><a xlink:href="classkazoo_1_1Deframer.html#a7dc1caffad1ffe4925a3e13d8d125024" target="_top" xlink:title=" ">
<polygon fill="none" stroke="black" points="177,-301 177,-331 329,-331 329,-301 177,-301"/>
<text text-anchor="start" x="185" y="-319" font-family="Helvetica,sans-Serif" font-size="10.00">kazoo::Deframer::findFrame</text>
<text text-anchor="middle" x="253" y="-308" font-family="Helvetica,sans-Serif" font-size="10.00">Start</text>
</a>
</g>
</g>
<!-- Node1&#45;&gt;Node4 -->
<g id="edge11" class="edge">
<title>Node1&#45;&gt;Node4</title>
<path fill="none" stroke="midnightblue" d="M1037.34,-198.24C1022.02,-224.76 993.54,-266.03 956,-285 747.09,-390.59 456.98,-355.31 324.75,-331.01"/>
<polygon fill="midnightblue" stroke="midnightblue" points="1040.56,-199.64 1042.38,-189.2 1034.45,-196.23 1040.56,-199.64"/>
</g>
<!-- Node6 -->
<g id="node6" class="node">
<title>Node6</title>
<g id="a_node6"><a xlink:href="classkazoo_1_1Deframer.html#ae4c8d8b5f7e2bc50183fc1b758fc21a8" target="_top" xlink:title=" ">
<polygon fill="none" stroke="black" points="786,-224.5 786,-243.5 956,-243.5 956,-224.5 786,-224.5"/>
<text text-anchor="middle" x="871" y="-231.5" font-family="Helvetica,sans-Serif" font-size="10.00">kazoo::Deframer::findFrameEnd</text>
</a>
</g>
</g>
<!-- Node1&#45;&gt;Node6 -->
<g id="edge7" class="edge">
<title>Node1&#45;&gt;Node6</title>
<path fill="none" stroke="midnightblue" d="M1003.2,-192.85C988.22,-198.63 971.5,-204.83 956,-210 940.46,-215.18 923.08,-220.27 908.18,-224.41"/>
<polygon fill="midnightblue" stroke="midnightblue" points="1004.72,-196.01 1012.76,-189.12 1002.17,-189.49 1004.72,-196.01"/>
</g>
<!-- Node7 -->
<g id="node7" class="node">
<title>Node7</title>
<g id="a_node7"><a xlink:href="classkazoo_1_1TranslationLayer.html#aa2783a8a2e4fb8fafa580e3cda27203e" target="_top" xlink:title=" ">
<polygon fill="none" stroke="black" points="805.5,-137 805.5,-167 936.5,-167 936.5,-137 805.5,-137"/>
<text text-anchor="start" x="813.5" y="-155" font-family="Helvetica,sans-Serif" font-size="10.00">kazoo::TranslationLayer</text>
<text text-anchor="middle" x="871" y="-144" font-family="Helvetica,sans-Serif" font-size="10.00">::listeningThreadFunc</text>
</a>
</g>
</g>
<!-- Node1&#45;&gt;Node7 -->
<g id="edge12" class="edge">
<title>Node1&#45;&gt;Node7</title>
<path fill="none" stroke="midnightblue" d="M981.62,-165.55C966.82,-163.72 951.22,-161.79 936.57,-159.98"/>
<polygon fill="midnightblue" stroke="midnightblue" points="981.36,-169.04 991.72,-166.8 982.22,-162.1 981.36,-169.04"/>
</g>
<!-- Node11 -->
<g id="node11" class="node">
<title>Node11</title>
<g id="a_node11"><a xlink:href="classkazoo_1_1TranslationLayer.html#a76f09d5f7213679a6656aa9473f8f2ab" target="_top" xlink:title=" ">
<polygon fill="none" stroke="black" points="805.5,-39 805.5,-69 936.5,-69 936.5,-39 805.5,-39"/>
<text text-anchor="start" x="813.5" y="-57" font-family="Helvetica,sans-Serif" font-size="10.00">kazoo::TranslationLayer</text>
<text text-anchor="middle" x="871" y="-46" font-family="Helvetica,sans-Serif" font-size="10.00">::loadAndDecodeWav</text>
</a>
</g>
</g>
<!-- Node1&#45;&gt;Node11 -->
<g id="edge16" class="edge">
<title>Node1&#45;&gt;Node11</title>
<path fill="none" stroke="midnightblue" d="M1032.76,-150.83C1015.57,-129.27 987.27,-97.74 956,-79 949.61,-75.17 942.58,-71.89 935.4,-69.08"/>
<polygon fill="midnightblue" stroke="midnightblue" points="1030.09,-153.1 1039,-158.83 1035.62,-148.79 1030.09,-153.1"/>
</g>
<!-- Node12 -->
<g id="node12" class="node">
<title>Node12</title>
<g id="a_node12"><a xlink:href="classkazoo_1_1SymbolStream.html#a483b690f6e07727669434375cbb23586" target="_top" xlink:title="Process a binary stream and convert it to symbols, removing the bits from the binary stream.">
<polygon fill="none" stroke="black" points="807.5,-88 807.5,-118 934.5,-118 934.5,-88 807.5,-88"/>
<text text-anchor="start" x="815.5" y="-106" font-family="Helvetica,sans-Serif" font-size="10.00">kazoo::SymbolStream</text>
<text text-anchor="middle" x="871" y="-95" font-family="Helvetica,sans-Serif" font-size="10.00">::processBinaryStream</text>
</a>
</g>
</g>
<!-- Node1&#45;&gt;Node12 -->
<g id="edge17" class="edge">
<title>Node1&#45;&gt;Node12</title>
<path fill="none" stroke="midnightblue" d="M1013.09,-154.17C996.01,-145.46 975.28,-135.53 956,-128 946.93,-124.46 937.14,-121.13 927.57,-118.12"/>
<polygon fill="midnightblue" stroke="midnightblue" points="1011.67,-157.38 1022.16,-158.86 1014.89,-151.16 1011.67,-157.38"/>
</g>
<!-- Node17 -->
<g id="node17" class="node">
<title>Node17</title>
<g id="a_node17"><a xlink:href="binary__stream_8test_8cpp.html#a0ea90f1ff04ac7d2c91a322c493df41b" target="_top" xlink:title=" ">
<polygon fill="none" stroke="black" points="850.5,-0.5 850.5,-19.5 891.5,-19.5 891.5,-0.5 850.5,-0.5"/>
<text text-anchor="middle" x="871" y="-7.5" font-family="Helvetica,sans-Serif" font-size="10.00">TEST</text>
</a>
</g>
</g>
<!-- Node1&#45;&gt;Node17 -->
<g id="edge24" class="edge">
<title>Node1&#45;&gt;Node17</title>
<path fill="none" stroke="midnightblue" d="M1040.88,-149.2C1027.48,-116.39 999.3,-59.2 956,-29 936.87,-15.66 909.86,-11.52 891.68,-10.32"/>
<polygon fill="midnightblue" stroke="midnightblue" points="1037.79,-150.9 1044.71,-158.93 1044.3,-148.34 1037.79,-150.9"/>
</g>
<!-- Node2&#45;&gt;Node3 -->
<g id="edge2" class="edge">
<title>Node2&#45;&gt;Node3</title>
<path fill="none" stroke="midnightblue" d="M625.1,-209.08C583.43,-224.27 515.7,-248.96 478.69,-262.45"/>
<polygon fill="midnightblue" stroke="midnightblue" points="626.4,-212.34 634.59,-205.63 624,-205.76 626.4,-212.34"/>
</g>
<!-- Node5 -->
<g id="node5" class="node">
<title>Node5</title>
<g id="a_node5"><a xlink:href="classkazoo_1_1Deframer.html#a742de19b3ca490d3faabfcbb64785998" target="_top" xlink:title="Process the input binary stream in a stateful manner to extract frames from sequential stream inputs.">
<polygon fill="none" stroke="black" points="0,-238 0,-268 141,-268 141,-238 0,-238"/>
<text text-anchor="start" x="8" y="-256" font-family="Helvetica,sans-Serif" font-size="10.00">kazoo::Deframer::process</text>
<text text-anchor="middle" x="70.5" y="-245" font-family="Helvetica,sans-Serif" font-size="10.00">Input</text>
</a>
</g>
</g>
<!-- Node2&#45;&gt;Node5 -->
<g id="edge6" class="edge">
<title>Node2&#45;&gt;Node5</title>
<path fill="none" stroke="midnightblue" d="M563.48,-193.63C465.15,-192.92 309.39,-196.41 177,-220 154.89,-223.94 130.96,-231.17 111.48,-237.86"/>
<polygon fill="midnightblue" stroke="midnightblue" points="563.67,-197.13 573.7,-193.72 563.73,-190.13 563.67,-197.13"/>
</g>
<!-- Node3&#45;&gt;Node4 -->
<g id="edge3" class="edge">
<title>Node3&#45;&gt;Node4</title>
<path fill="none" stroke="midnightblue" d="M398.06,-283.74C374.49,-289.02 346.38,-295.31 321.28,-300.93"/>
<polygon fill="midnightblue" stroke="midnightblue" points="398.87,-287.15 407.86,-281.55 397.34,-280.32 398.87,-287.15"/>
</g>
<!-- Node3&#45;&gt;Node5 -->
<g id="edge5" class="edge">
<title>Node3&#45;&gt;Node5</title>
<path fill="none" stroke="midnightblue" d="M354.9,-267.21C288.38,-263.87 201.2,-259.5 141.2,-256.49"/>
<polygon fill="midnightblue" stroke="midnightblue" points="354.81,-270.71 364.97,-267.71 355.16,-263.72 354.81,-270.71"/>
</g>
<!-- Node4&#45;&gt;Node5 -->
<g id="edge4" class="edge">
<title>Node4&#45;&gt;Node5</title>
<path fill="none" stroke="midnightblue" d="M199.13,-297.55C172.27,-288.17 140.05,-276.92 114.69,-268.08"/>
<polygon fill="midnightblue" stroke="midnightblue" points="198.17,-300.92 208.77,-300.91 200.48,-294.31 198.17,-300.92"/>
</g>
<!-- Node6&#45;&gt;Node2 -->
<g id="edge8" class="edge">
<title>Node6&#45;&gt;Node2</title>
<path fill="none" stroke="midnightblue" d="M808.19,-222.65C778.49,-217.2 743.29,-210.74 714.99,-205.54"/>
<polygon fill="midnightblue" stroke="midnightblue" points="807.56,-226.1 818.03,-224.46 808.83,-219.21 807.56,-226.1"/>
</g>
<!-- Node6&#45;&gt;Node5 -->
<g id="edge9" class="edge">
<title>Node6&#45;&gt;Node5</title>
<path fill="none" stroke="midnightblue" d="M775.22,-236.26C612.73,-240.12 284.66,-247.93 141.25,-251.34"/>
<polygon fill="midnightblue" stroke="midnightblue" points="775.77,-239.74 785.68,-236.01 775.6,-232.75 775.77,-239.74"/>
</g>
<!-- Node8 -->
<g id="node8" class="node">
<title>Node8</title>
<g id="a_node8"><a xlink:href="classkazoo_1_1TranslationLayer.html#add62ed51f54492faf5a8ef388f1f0f58" target="_top" xlink:title="Starts listening for audio input on the default audio device.">
<polygon fill="none" stroke="black" points="386,-137 386,-167 517,-167 517,-137 386,-137"/>
<text text-anchor="start" x="394" y="-155" font-family="Helvetica,sans-Serif" font-size="10.00">kazoo::TranslationLayer</text>
<text text-anchor="middle" x="451.5" y="-144" font-family="Helvetica,sans-Serif" font-size="10.00">::startListening</text>
</a>
</g>
</g>
<!-- Node7&#45;&gt;Node8 -->
<g id="edge13" class="edge">
<title>Node7&#45;&gt;Node8</title>
<path fill="none" stroke="midnightblue" d="M794.83,-152C715.59,-152 592.08,-152 517.08,-152"/>
<polygon fill="midnightblue" stroke="midnightblue" points="795.22,-155.5 805.22,-152 795.22,-148.5 795.22,-155.5"/>
</g>
<!-- Node9 -->
<g id="node9" class="node">
<title>Node9</title>
<g id="a_node9"><a xlink:href="src_2kazoo__connect__server_2main_8cpp.html#ae66f6b31b5ad750f1fe042a706a4e3d4" target="_top" xlink:title=" ">
<polygon fill="none" stroke="black" points="232.5,-130.5 232.5,-149.5 273.5,-149.5 273.5,-130.5 232.5,-130.5"/>
<text text-anchor="middle" x="253" y="-137.5" font-family="Helvetica,sans-Serif" font-size="10.00">main</text>
</a>
</g>
</g>
<!-- Node8&#45;&gt;Node9 -->
<g id="edge14" class="edge">
<title>Node8&#45;&gt;Node9</title>
<path fill="none" stroke="midnightblue" d="M375.69,-147.43C339.05,-145.19 297.78,-142.67 273.94,-141.22"/>
<polygon fill="midnightblue" stroke="midnightblue" points="375.69,-150.94 385.89,-148.05 376.12,-143.95 375.69,-150.94"/>
</g>
<!-- Node10 -->
<g id="node10" class="node">
<title>Node10</title>
<g id="a_node10"><a xlink:href="translation__layer_8test_8cpp.html#a557311196b9a309f0d8377ef5af0c62c" target="_top" xlink:title=" ">
<polygon fill="none" stroke="black" points="232.5,-67.5 232.5,-86.5 273.5,-86.5 273.5,-67.5 232.5,-67.5"/>
<text text-anchor="middle" x="253" y="-74.5" font-family="Helvetica,sans-Serif" font-size="10.00">TEST</text>
</a>
</g>
</g>
<!-- Node8&#45;&gt;Node10 -->
<g id="edge15" class="edge">
<title>Node8&#45;&gt;Node10</title>
<path fill="none" stroke="midnightblue" d="M385,-133.86C378.2,-131.68 371.43,-129.38 365,-127 332.09,-114.84 295.19,-97.43 273.31,-86.69"/>
<polygon fill="midnightblue" stroke="midnightblue" points="384.35,-137.33 394.94,-136.97 386.44,-130.65 384.35,-137.33"/>
</g>
<!-- Node13 -->
<g id="node13" class="node">
<title>Node13</title>
<g id="a_node13"><a xlink:href="classkazoo_1_1TranslationLayer.html#a6b80b010d94b9f1373fea308d1c6d435" target="_top" xlink:title="Takes input data and processes it through the symbol stream.">
<polygon fill="none" stroke="black" points="596.5,-52 596.5,-82 727.5,-82 727.5,-52 596.5,-52"/>
<text text-anchor="start" x="604.5" y="-70" font-family="Helvetica,sans-Serif" font-size="10.00">kazoo::TranslationLayer</text>
<text text-anchor="middle" x="662" y="-59" font-family="Helvetica,sans-Serif" font-size="10.00">::addData</text>
</a>
</g>
</g>
<!-- Node12&#45;&gt;Node13 -->
<g id="edge18" class="edge">
<title>Node12&#45;&gt;Node13</title>
<path fill="none" stroke="midnightblue" d="M797.4,-90.37C774.67,-86.42 749.75,-82.09 727.6,-78.24"/>
<polygon fill="midnightblue" stroke="midnightblue" points="796.88,-93.84 807.33,-92.1 798.08,-86.94 796.88,-93.84"/>
</g>
<!-- Node16 -->
<g id="node16" class="node">
<title>Node16</title>
<g id="a_node16"><a xlink:href="symbol__stream_8test_8cpp.html#ae06de649963b46341ca9f338594aa8cd" target="_top" xlink:title=" ">
<polygon fill="none" stroke="black" points="641.5,-101.5 641.5,-120.5 682.5,-120.5 682.5,-101.5 641.5,-101.5"/>
<text text-anchor="middle" x="662" y="-108.5" font-family="Helvetica,sans-Serif" font-size="10.00">TEST</text>
</a>
</g>
</g>
<!-- Node12&#45;&gt;Node16 -->
<g id="edge23" class="edge">
<title>Node12&#45;&gt;Node16</title>
<path fill="none" stroke="midnightblue" d="M797.16,-105.81C756.51,-107.39 708.92,-109.23 682.76,-110.24"/>
<polygon fill="midnightblue" stroke="midnightblue" points="797.47,-109.31 807.33,-105.42 797.2,-102.31 797.47,-109.31"/>
</g>
<!-- Node14 -->
<g id="node14" class="node">
<title>Node14</title>
<g id="a_node14"><a xlink:href="classkazoo_1_1TranslationLayer.html#a85b59418d9b63eaf80dd1b3623a96b96" target="_top" xlink:title=" ">
<polygon fill="none" stroke="black" points="386,-49 386,-79 517,-79 517,-49 386,-49"/>
<text text-anchor="start" x="394" y="-67" font-family="Helvetica,sans-Serif" font-size="10.00">kazoo::TranslationLayer</text>
<text text-anchor="middle" x="451.5" y="-56" font-family="Helvetica,sans-Serif" font-size="10.00">::sendFrame</text>
</a>
</g>
</g>
<!-- Node13&#45;&gt;Node14 -->
<g id="edge19" class="edge">
<title>Node13&#45;&gt;Node14</title>
<path fill="none" stroke="midnightblue" d="M586.23,-65.92C563.61,-65.6 538.98,-65.24 517.1,-64.93"/>
<polygon fill="midnightblue" stroke="midnightblue" points="586.41,-69.43 596.46,-66.07 586.51,-62.43 586.41,-69.43"/>
</g>
<!-- Node15 -->
<g id="node15" class="node">
<title>Node15</title>
<g id="a_node15"><a xlink:href="translation__layer_8test_8cpp.html#a5981aa5142cca1c44a01f7506cf94a8e" target="_top" xlink:title=" ">
<polygon fill="none" stroke="black" points="431,-98.5 431,-117.5 472,-117.5 472,-98.5 431,-98.5"/>
<text text-anchor="middle" x="451.5" y="-105.5" font-family="Helvetica,sans-Serif" font-size="10.00">TEST</text>
</a>
</g>
</g>
<!-- Node13&#45;&gt;Node15 -->
<g id="edge22" class="edge">
<title>Node13&#45;&gt;Node15</title>
<path fill="none" stroke="midnightblue" d="M586.51,-81.65C545.66,-89.68 498.17,-99.02 472.12,-104.14"/>
<polygon fill="midnightblue" stroke="midnightblue" points="587.32,-85.06 596.46,-79.69 585.97,-78.19 587.32,-85.06"/>
</g>
<!-- Node14&#45;&gt;Node9 -->
<g id="edge20" class="edge">
<title>Node14&#45;&gt;Node9</title>
<path fill="none" stroke="midnightblue" d="M384.67,-82.19C377.98,-84.35 371.33,-86.64 365,-89 331.62,-101.47 294.25,-119.54 272.5,-130.48"/>
<polygon fill="midnightblue" stroke="midnightblue" points="385.97,-85.45 394.46,-79.11 383.87,-78.77 385.97,-85.45"/>
</g>
<!-- Node14&#45;&gt;Node10 -->
<g id="edge21" class="edge">
<title>Node14&#45;&gt;Node10</title>
<path fill="none" stroke="midnightblue" d="M375.69,-68.95C339.05,-71.37 297.78,-74.1 273.94,-75.68"/>
<polygon fill="midnightblue" stroke="midnightblue" points="376.14,-72.43 385.89,-68.27 375.68,-65.44 376.14,-72.43"/>
</g>
</g>
</svg>
