<?xml version="1.0" encoding="UTF-8" standalone="no"?>
<!DOCTYPE svg PUBLIC "-//W3C//DTD SVG 1.1//EN"
 "http://www.w3.org/Graphics/SVG/1.1/DTD/svg11.dtd">
<!-- Generated by graphviz version 2.43.0 (0)
 -->
<!-- Title: kazoo::TranslationLayer::stopListening Pages: 1 -->
<svg width="383pt" height="154pt"
 viewBox="0.00 0.00 383.00 153.50" xmlns="http://www.w3.org/2000/svg" xmlns:xlink="http://www.w3.org/1999/xlink">
<g id="graph0" class="graph" transform="scale(1 1) rotate(0) translate(4 149.5)">
<title>kazoo::TranslationLayer::stopListening</title>
<!-- Node1 -->
<g id="node1" class="node">
<title>Node1</title>
<g id="a_node1"><a xlink:title=" ">
<polygon fill="#bfbfbf" stroke="black" points="244,-52 244,-82 375,-82 375,-52 244,-52"/>
<text text-anchor="start" x="252" y="-70" font-family="Helvetica,sans-Serif" font-size="10.00">kazoo::TranslationLayer</text>
<text text-anchor="middle" x="309.5" y="-59" font-family="Helvetica,sans-Serif" font-size="10.00">::stopListening</text>
</a>
</g>
</g>
<!-- Node2 -->
<g id="node2" class="node">
<title>Node2</title>
<g id="a_node2"><a xlink:href="classkazoo_1_1TranslationLayer.html#ad44420b7eb1db804fa2ecff0957fa50d" target="_top" xlink:title=" ">
<polygon fill="none" stroke="black" points="77,-115 77,-145 208,-145 208,-115 77,-115"/>
<text text-anchor="start" x="85" y="-133" font-family="Helvetica,sans-Serif" font-size="10.00">kazoo::TranslationLayer</text>
<text text-anchor="middle" x="142.5" y="-122" font-family="Helvetica,sans-Serif" font-size="10.00">::~TranslationLayer</text>
</a>
</g>
</g>
<!-- Node1&#45;&gt;Node2 -->
<g id="edge1" class="edge">
<title>Node1&#45;&gt;Node2</title>
<path fill="none" stroke="midnightblue" d="M259.53,-85.7C235.1,-95.02 205.96,-106.15 182.98,-114.92"/>
<polygon fill="midnightblue" stroke="midnightblue" points="260.88,-88.93 268.98,-82.09 258.39,-82.39 260.88,-88.93"/>
</g>
<!-- Node3 -->
<g id="node3" class="node">
<title>Node3</title>
<g id="a_node3"><a xlink:href="src_2main_8cpp.html#aae2c22c53916e5e957a5b7392130c3db" target="_top" xlink:title=" ">
<polygon fill="none" stroke="black" points="102.5,-76.5 102.5,-95.5 182.5,-95.5 182.5,-76.5 102.5,-76.5"/>
<text text-anchor="middle" x="142.5" y="-83.5" font-family="Helvetica,sans-Serif" font-size="10.00">getUserInput</text>
</a>
</g>
</g>
<!-- Node1&#45;&gt;Node3 -->
<g id="edge2" class="edge">
<title>Node1&#45;&gt;Node3</title>
<path fill="none" stroke="midnightblue" d="M233.53,-75.63C216.02,-77.65 198.05,-79.72 182.82,-81.47"/>
<polygon fill="midnightblue" stroke="midnightblue" points="234.23,-79.08 243.76,-74.45 233.43,-72.12 234.23,-79.08"/>
</g>
<!-- Node4 -->
<g id="node4" class="node">
<title>Node4</title>
<g id="a_node4"><a xlink:href="src_2main_8cpp.html#ae66f6b31b5ad750f1fe042a706a4e3d4" target="_top" xlink:title=" ">
<polygon fill="none" stroke="black" points="0,-57.5 0,-76.5 41,-76.5 41,-57.5 0,-57.5"/>
<text text-anchor="middle" x="20.5" y="-64.5" font-family="Helvetica,sans-Serif" font-size="10.00">main</text>
</a>
</g>
</g>
<!-- Node1&#45;&gt;Node4 -->
<g id="edge4" class="edge">
<title>Node1&#45;&gt;Node4</title>
<path fill="none" stroke="midnightblue" d="M233.58,-67C168.94,-67 80.02,-67 41.09,-67"/>
<polygon fill="midnightblue" stroke="midnightblue" points="233.73,-70.5 243.73,-67 233.73,-63.5 233.73,-70.5"/>
</g>
<!-- Node5 -->
<g id="node5" class="node">
<title>Node5</title>
<g id="a_node5"><a xlink:href="translation__layer_8test_8cpp.html#a557311196b9a309f0d8377ef5af0c62c" target="_top" xlink:title=" ">
<polygon fill="none" stroke="black" points="122,-0.5 122,-19.5 163,-19.5 163,-0.5 122,-0.5"/>
<text text-anchor="middle" x="142.5" y="-7.5" font-family="Helvetica,sans-Serif" font-size="10.00">TEST</text>
</a>
</g>
</g>
<!-- Node1&#45;&gt;Node5 -->
<g id="edge5" class="edge">
<title>Node1&#45;&gt;Node5</title>
<path fill="none" stroke="midnightblue" d="M255.17,-48.58C223.65,-37.69 185.61,-24.55 163.05,-16.75"/>
<polygon fill="midnightblue" stroke="midnightblue" points="254.12,-51.92 264.72,-51.87 256.41,-45.3 254.12,-51.92"/>
</g>
<!-- Node3&#45;&gt;Node4 -->
<g id="edge3" class="edge">
<title>Node3&#45;&gt;Node4</title>
<path fill="none" stroke="midnightblue" d="M92.12,-78.18C74.15,-75.34 54.87,-72.28 41.01,-70.09"/>
<polygon fill="midnightblue" stroke="midnightblue" points="91.78,-81.67 102.21,-79.78 92.88,-74.76 91.78,-81.67"/>
</g>
</g>
</svg>
