<?xml version="1.0" encoding="UTF-8" standalone="no"?>
<!DOCTYPE svg PUBLIC "-//W3C//DTD SVG 1.1//EN"
 "http://www.w3.org/Graphics/SVG/1.1/DTD/svg11.dtd">
<!-- Generated by graphviz version 2.43.0 (0)
 -->
<!-- Title: kazoo::BinaryStream::pad Pages: 1 -->
<svg width="304pt" height="88pt"
 viewBox="0.00 0.00 304.00 88.00" xmlns="http://www.w3.org/2000/svg" xmlns:xlink="http://www.w3.org/1999/xlink">
<g id="graph0" class="graph" transform="scale(1 1) rotate(0) translate(4 84)">
<title>kazoo::BinaryStream::pad</title>
<!-- Node1 -->
<g id="node1" class="node">
<title>Node1</title>
<g id="a_node1"><a xlink:title="If the last element is being used as a bit buffer, this will fill the remaining bits until the stream...">
<polygon fill="#bfbfbf" stroke="black" points="0,-30 0,-49 142,-49 142,-30 0,-30"/>
<text text-anchor="middle" x="71" y="-37" font-family="Helvetica,sans-Serif" font-size="10.00">kazoo::BinaryStream::pad</text>
</a>
</g>
</g>
<!-- Node2 -->
<g id="node2" class="node">
<title>Node2</title>
<g id="a_node2"><a xlink:href="classkazoo_1_1BinaryStream.html#ad6187750dbcd6ae38948b5c267740bf6" target="_top" xlink:title=" ">
<polygon fill="none" stroke="black" points="178,-49.5 178,-79.5 296,-79.5 296,-49.5 178,-49.5"/>
<text text-anchor="start" x="186" y="-67.5" font-family="Helvetica,sans-Serif" font-size="10.00">kazoo::BinaryStream</text>
<text text-anchor="middle" x="237" y="-56.5" font-family="Helvetica,sans-Serif" font-size="10.00">::addBit</text>
</a>
</g>
</g>
<!-- Node1&#45;&gt;Node2 -->
<g id="edge1" class="edge">
<title>Node1&#45;&gt;Node2</title>
<path fill="none" stroke="midnightblue" d="M134.47,-49.02C145.35,-50.68 156.72,-52.41 167.74,-54.1"/>
<polygon fill="midnightblue" stroke="midnightblue" points="167.34,-57.57 177.75,-55.62 168.39,-50.65 167.34,-57.57"/>
</g>
<!-- Node3 -->
<g id="node3" class="node">
<title>Node3</title>
<g id="a_node3"><a xlink:href="classkazoo_1_1BinaryStream.html#a32b6f202b2627b75ace2e6c9c07726aa" target="_top" xlink:title="Get the byte alignment status of the stream.">
<polygon fill="none" stroke="black" points="178,-0.5 178,-30.5 296,-30.5 296,-0.5 178,-0.5"/>
<text text-anchor="start" x="186" y="-18.5" font-family="Helvetica,sans-Serif" font-size="10.00">kazoo::BinaryStream</text>
<text text-anchor="middle" x="237" y="-7.5" font-family="Helvetica,sans-Serif" font-size="10.00">::isByteAligned</text>
</a>
</g>
</g>
<!-- Node1&#45;&gt;Node3 -->
<g id="edge2" class="edge">
<title>Node1&#45;&gt;Node3</title>
<path fill="none" stroke="midnightblue" d="M137.29,-29.95C147.34,-28.48 157.74,-26.95 167.85,-25.47"/>
<polygon fill="midnightblue" stroke="midnightblue" points="168.45,-28.92 177.84,-24.01 167.43,-22 168.45,-28.92"/>
</g>
</g>
</svg>
