<?xml version="1.0" encoding="UTF-8" standalone="no"?>
<!DOCTYPE svg PUBLIC "-//W3C//DTD SVG 1.1//EN"
 "http://www.w3.org/Graphics/SVG/1.1/DTD/svg11.dtd">
<!-- Generated by graphviz version 2.43.0 (0)
 -->
<!-- Title: kazoo::model::K1Model::Model Pages: 1 -->
<svg width="277pt" height="691pt"
 viewBox="0.00 0.00 277.00 691.00" xmlns="http://www.w3.org/2000/svg" xmlns:xlink="http://www.w3.org/1999/xlink">
<g id="graph0" class="graph" transform="scale(1 1) rotate(0) translate(4 687)">
<title>kazoo::model::K1Model::Model</title>
<!-- Node1 -->
<g id="node1" class="node">
<title>Node1</title>
<g id="a_node1"><a xlink:title=" ">
<polygon fill="#bfbfbf" stroke="black" points="2.5,-0.5 2.5,-112.5 174.5,-112.5 174.5,-0.5 2.5,-0.5"/>
<text text-anchor="start" x="10.5" y="-100.5" font-family="Helvetica,sans-Serif" font-size="10.00">kazoo::model::K1Model</text>
<text text-anchor="middle" x="88.5" y="-89.5" font-family="Helvetica,sans-Serif" font-size="10.00">::Model</text>
<polyline fill="none" stroke="black" points="2.5,-82.5 174.5,-82.5 "/>
<text text-anchor="middle" x="88.5" y="-70.5" font-family="Helvetica,sans-Serif" font-size="10.00"> </text>
<polyline fill="none" stroke="black" points="2.5,-63.5 174.5,-63.5 "/>
<text text-anchor="start" x="10.5" y="-51.5" font-family="Helvetica,sans-Serif" font-size="10.00">+ Model()</text>
<text text-anchor="start" x="10.5" y="-40.5" font-family="Helvetica,sans-Serif" font-size="10.00">+ decodeAudioToSymbols()</text>
<text text-anchor="start" x="10.5" y="-29.5" font-family="Helvetica,sans-Serif" font-size="10.00">+ encodeSymbol()</text>
<text text-anchor="start" x="10.5" y="-18.5" font-family="Helvetica,sans-Serif" font-size="10.00">+ getNumSamplesPerSymbol()</text>
<text text-anchor="start" x="10.5" y="-7.5" font-family="Helvetica,sans-Serif" font-size="10.00">&#45; detectSymbolFromFftResults()</text>
</a>
</g>
</g>
<!-- Node2 -->
<g id="node2" class="node">
<title>Node2</title>
<g id="a_node2"><a xlink:href="classkazoo_1_1SymbolModel.html" target="_top" xlink:title=" ">
<polygon fill="none" stroke="black" points="4,-150.5 4,-306.5 173,-306.5 173,-150.5 4,-150.5"/>
<text text-anchor="start" x="12" y="-294.5" font-family="Helvetica,sans-Serif" font-size="10.00">kazoo::SymbolModel</text>
<text text-anchor="middle" x="88.5" y="-283.5" font-family="Helvetica,sans-Serif" font-size="10.00">&lt; Token &gt;</text>
<polyline fill="none" stroke="black" points="4,-276.5 173,-276.5 "/>
<text text-anchor="start" x="12" y="-264.5" font-family="Helvetica,sans-Serif" font-size="10.00">&#45; symbol_bit_width_</text>
<text text-anchor="start" x="12" y="-253.5" font-family="Helvetica,sans-Serif" font-size="10.00">&#45; token_values_</text>
<polyline fill="none" stroke="black" points="4,-246.5 173,-246.5 "/>
<text text-anchor="start" x="12" y="-234.5" font-family="Helvetica,sans-Serif" font-size="10.00">+ SymbolModel()</text>
<text text-anchor="start" x="12" y="-223.5" font-family="Helvetica,sans-Serif" font-size="10.00">+ decodeAudioToSymbols()</text>
<text text-anchor="start" x="12" y="-212.5" font-family="Helvetica,sans-Serif" font-size="10.00">+ encodeSymbol()</text>
<text text-anchor="start" x="12" y="-201.5" font-family="Helvetica,sans-Serif" font-size="10.00">+ getNumSamplesPerSymbol()</text>
<text text-anchor="start" x="12" y="-190.5" font-family="Helvetica,sans-Serif" font-size="10.00">+ getSymbolBitWidth()</text>
<text text-anchor="start" x="12" y="-179.5" font-family="Helvetica,sans-Serif" font-size="10.00">+ getSymbolId()</text>
<text text-anchor="start" x="12" y="-168.5" font-family="Helvetica,sans-Serif" font-size="10.00">+ getToken()</text>
<text text-anchor="start" x="12" y="-157.5" font-family="Helvetica,sans-Serif" font-size="10.00">+ getValue()</text>
</a>
</g>
</g>
<!-- Node2&#45;&gt;Node1 -->
<g id="edge1" class="edge">
<title>Node2&#45;&gt;Node1</title>
<path fill="none" stroke="midnightblue" d="M88.5,-140.35C88.5,-131.02 88.5,-121.73 88.5,-112.93"/>
<polygon fill="none" stroke="midnightblue" points="85,-140.46 88.5,-150.46 92,-140.46 85,-140.46"/>
</g>
<!-- Node3 -->
<g id="node3" class="node">
<title>Node3</title>
<g id="a_node3"><a xlink:href="classkazoo_1_1ISymbolModel.html" target="_top" xlink:title=" ">
<polygon fill="none" stroke="black" points="0,-548.5 0,-682.5 169,-682.5 169,-548.5 0,-548.5"/>
<text text-anchor="middle" x="84.5" y="-670.5" font-family="Helvetica,sans-Serif" font-size="10.00">kazoo::ISymbolModel</text>
<polyline fill="none" stroke="black" points="0,-663.5 169,-663.5 "/>
<text text-anchor="middle" x="84.5" y="-651.5" font-family="Helvetica,sans-Serif" font-size="10.00"> </text>
<polyline fill="none" stroke="black" points="0,-644.5 169,-644.5 "/>
<text text-anchor="start" x="8" y="-632.5" font-family="Helvetica,sans-Serif" font-size="10.00">+ ~ISymbolModel()</text>
<text text-anchor="start" x="8" y="-621.5" font-family="Helvetica,sans-Serif" font-size="10.00">+ decodeAudioToSymbols()</text>
<text text-anchor="start" x="8" y="-610.5" font-family="Helvetica,sans-Serif" font-size="10.00">+ encodeSymbol()</text>
<text text-anchor="start" x="8" y="-599.5" font-family="Helvetica,sans-Serif" font-size="10.00">+ getNumSamplesPerSymbol()</text>
<text text-anchor="start" x="8" y="-588.5" font-family="Helvetica,sans-Serif" font-size="10.00">+ getSymbolBitMask()</text>
<text text-anchor="start" x="8" y="-577.5" font-family="Helvetica,sans-Serif" font-size="10.00">+ getSymbolBitWidth()</text>
<text text-anchor="start" x="8" y="-566.5" font-family="Helvetica,sans-Serif" font-size="10.00">+ getSymbolId()</text>
<text text-anchor="start" x="8" y="-555.5" font-family="Helvetica,sans-Serif" font-size="10.00">+ getValue()</text>
</a>
</g>
</g>
<!-- Node3&#45;&gt;Node2 -->
<g id="edge2" class="edge">
<title>Node3&#45;&gt;Node2</title>
<path fill="none" stroke="midnightblue" d="M85.29,-538.24C85.99,-471.19 87,-374.07 87.7,-306.73"/>
<polygon fill="none" stroke="midnightblue" points="81.79,-538.28 85.19,-548.32 88.79,-538.35 81.79,-538.28"/>
</g>
<!-- Node4 -->
<g id="node4" class="node">
<title>Node4</title>
<g id="a_node4"><a xlink:href="classkazoo_1_1SymbolModel.html" target="_top" xlink:title=" ">
<polygon fill="none" stroke="black" points="100,-354.5 100,-510.5 269,-510.5 269,-354.5 100,-354.5"/>
<text text-anchor="start" x="108" y="-498.5" font-family="Helvetica,sans-Serif" font-size="10.00">kazoo::SymbolModel</text>
<text text-anchor="middle" x="184.5" y="-487.5" font-family="Helvetica,sans-Serif" font-size="10.00">&lt; Token_t &gt;</text>
<polyline fill="none" stroke="black" points="100,-480.5 269,-480.5 "/>
<text text-anchor="start" x="108" y="-468.5" font-family="Helvetica,sans-Serif" font-size="10.00">&#45; symbol_bit_width_</text>
<text text-anchor="start" x="108" y="-457.5" font-family="Helvetica,sans-Serif" font-size="10.00">&#45; token_values_</text>
<polyline fill="none" stroke="black" points="100,-450.5 269,-450.5 "/>
<text text-anchor="start" x="108" y="-438.5" font-family="Helvetica,sans-Serif" font-size="10.00">+ SymbolModel()</text>
<text text-anchor="start" x="108" y="-427.5" font-family="Helvetica,sans-Serif" font-size="10.00">+ decodeAudioToSymbols()</text>
<text text-anchor="start" x="108" y="-416.5" font-family="Helvetica,sans-Serif" font-size="10.00">+ encodeSymbol()</text>
<text text-anchor="start" x="108" y="-405.5" font-family="Helvetica,sans-Serif" font-size="10.00">+ getNumSamplesPerSymbol()</text>
<text text-anchor="start" x="108" y="-394.5" font-family="Helvetica,sans-Serif" font-size="10.00">+ getSymbolBitWidth()</text>
<text text-anchor="start" x="108" y="-383.5" font-family="Helvetica,sans-Serif" font-size="10.00">+ getSymbolId()</text>
<text text-anchor="start" x="108" y="-372.5" font-family="Helvetica,sans-Serif" font-size="10.00">+ getToken()</text>
<text text-anchor="start" x="108" y="-361.5" font-family="Helvetica,sans-Serif" font-size="10.00">+ getValue()</text>
</a>
</g>
</g>
<!-- Node3&#45;&gt;Node4 -->
<g id="edge4" class="edge">
<title>Node3&#45;&gt;Node4</title>
<path fill="none" stroke="midnightblue" d="M125.99,-539.41C131.21,-529.96 136.56,-520.28 141.8,-510.79"/>
<polygon fill="none" stroke="midnightblue" points="122.8,-537.94 121.03,-548.39 128.93,-541.33 122.8,-537.94"/>
</g>
<!-- Node4&#45;&gt;Node2 -->
<g id="edge3" class="edge">
<title>Node4&#45;&gt;Node2</title>
<path fill="none" stroke="orange" d="M143.42,-345.05C137.36,-332.3 131.15,-319.24 125.18,-306.69"/>
<polygon fill="orange" stroke="orange" points="140.34,-346.74 147.8,-354.27 146.66,-343.73 140.34,-346.74"/>
<text text-anchor="middle" x="163.5" y="-328" font-family="Helvetica,sans-Serif" font-size="10.00"> &lt; Token &gt;</text>
</g>
</g>
</svg>
