<?xml version="1.0" encoding="UTF-8" standalone="no"?>
<!DOCTYPE svg PUBLIC "-//W3C//DTD SVG 1.1//EN"
 "http://www.w3.org/Graphics/SVG/1.1/DTD/svg11.dtd">
<!-- Generated by graphviz version 2.43.0 (0)
 -->
<!-- Title: kazoo::TranslationLayer::saveWav Pages: 1 -->
<svg width="504pt" height="88pt"
 viewBox="0.00 0.00 504.00 88.00" xmlns="http://www.w3.org/2000/svg" xmlns:xlink="http://www.w3.org/1999/xlink">
<g id="graph0" class="graph" transform="scale(1 1) rotate(0) translate(4 84)">
<title>kazoo::TranslationLayer::saveWav</title>
<!-- Node1 -->
<g id="node1" class="node">
<title>Node1</title>
<g id="a_node1"><a xlink:title=" ">
<polygon fill="#bfbfbf" stroke="black" points="0,-24.5 0,-54.5 131,-54.5 131,-24.5 0,-24.5"/>
<text text-anchor="start" x="8" y="-42.5" font-family="Helvetica,sans-Serif" font-size="10.00">kazoo::TranslationLayer</text>
<text text-anchor="middle" x="65.5" y="-31.5" font-family="Helvetica,sans-Serif" font-size="10.00">::saveWav</text>
</a>
</g>
</g>
<!-- Node2 -->
<g id="node2" class="node">
<title>Node2</title>
<g id="a_node2"><a xlink:href="classkazoo_1_1WavFile.html#a01f04370c47e9cc867e69cea710ea642" target="_top" xlink:title=" ">
<polygon fill="none" stroke="black" points="167,-47.5 167,-77.5 308,-77.5 308,-47.5 167,-47.5"/>
<text text-anchor="start" x="175" y="-65.5" font-family="Helvetica,sans-Serif" font-size="10.00">kazoo::WavFile::loadFrom</text>
<text text-anchor="middle" x="237.5" y="-54.5" font-family="Helvetica,sans-Serif" font-size="10.00">AudioChannel</text>
</a>
</g>
</g>
<!-- Node1&#45;&gt;Node2 -->
<g id="edge1" class="edge">
<title>Node1&#45;&gt;Node2</title>
<path fill="none" stroke="midnightblue" d="M131.25,-48.26C139.62,-49.39 148.26,-50.56 156.83,-51.72"/>
<polygon fill="midnightblue" stroke="midnightblue" points="156.45,-55.2 166.83,-53.07 157.39,-48.26 156.45,-55.2"/>
</g>
<!-- Node4 -->
<g id="node4" class="node">
<title>Node4</title>
<g id="a_node4"><a xlink:href="classkazoo_1_1WavFile.html#aae13ca7fd69fb99ff4b52d441854f9d8" target="_top" xlink:title=" ">
<polygon fill="none" stroke="black" points="177.5,-8 177.5,-27 297.5,-27 297.5,-8 177.5,-8"/>
<text text-anchor="middle" x="237.5" y="-15" font-family="Helvetica,sans-Serif" font-size="10.00">kazoo::WavFile::write</text>
</a>
</g>
</g>
<!-- Node1&#45;&gt;Node4 -->
<g id="edge3" class="edge">
<title>Node1&#45;&gt;Node4</title>
<path fill="none" stroke="midnightblue" d="M131.25,-31.12C142.94,-29.61 155.17,-28.03 166.98,-26.5"/>
<polygon fill="midnightblue" stroke="midnightblue" points="167.76,-29.92 177.23,-25.17 166.86,-22.98 167.76,-29.92"/>
</g>
<!-- Node3 -->
<g id="node3" class="node">
<title>Node3</title>
<g id="a_node3"><a xlink:href="classkazoo_1_1IAudioChannel.html#a4cb9127060966e0e53bd6782b9f3413d" target="_top" xlink:title=" ">
<polygon fill="none" stroke="black" points="359,-49.5 359,-79.5 481,-79.5 481,-49.5 359,-49.5"/>
<text text-anchor="start" x="367" y="-67.5" font-family="Helvetica,sans-Serif" font-size="10.00">kazoo::IAudioChannel</text>
<text text-anchor="middle" x="420" y="-56.5" font-family="Helvetica,sans-Serif" font-size="10.00">::getSamplesRef</text>
</a>
</g>
</g>
<!-- Node2&#45;&gt;Node3 -->
<g id="edge2" class="edge">
<title>Node2&#45;&gt;Node3</title>
<path fill="none" stroke="midnightblue" d="M308.03,-63.27C321.4,-63.42 335.42,-63.57 348.81,-63.72"/>
<polygon fill="midnightblue" stroke="midnightblue" points="348.88,-67.22 358.92,-63.83 348.95,-60.22 348.88,-67.22"/>
</g>
<!-- Node5 -->
<g id="node5" class="node">
<title>Node5</title>
<g id="a_node5"><a xlink:href="structkazoo_1_1WavFile_1_1WavHeader.html#a4ca9ab42866565a03850e82cfe19ef2c" target="_top" xlink:title=" ">
<polygon fill="none" stroke="black" points="344,-0.5 344,-30.5 496,-30.5 496,-0.5 344,-0.5"/>
<text text-anchor="start" x="352" y="-18.5" font-family="Helvetica,sans-Serif" font-size="10.00">kazoo::WavFile::WavHeader</text>
<text text-anchor="middle" x="420" y="-7.5" font-family="Helvetica,sans-Serif" font-size="10.00">::resterToDefault</text>
</a>
</g>
</g>
<!-- Node4&#45;&gt;Node5 -->
<g id="edge4" class="edge">
<title>Node4&#45;&gt;Node5</title>
<path fill="none" stroke="midnightblue" d="M297.6,-16.85C309.17,-16.72 321.51,-16.58 333.74,-16.44"/>
<polygon fill="midnightblue" stroke="midnightblue" points="333.99,-19.94 343.95,-16.33 333.92,-12.94 333.99,-19.94"/>
</g>
</g>
</svg>
