<?xml version="1.0" encoding="UTF-8" standalone="no"?>
<!DOCTYPE svg PUBLIC "-//W3C//DTD SVG 1.1//EN"
 "http://www.w3.org/Graphics/SVG/1.1/DTD/svg11.dtd">
<!-- Generated by graphviz version 2.43.0 (0)
 -->
<!-- Title: kazoo::AudioChannel Pages: 1 -->
<svg width="256pt" height="292pt"
 viewBox="0.00 0.00 255.50 292.00" xmlns="http://www.w3.org/2000/svg" xmlns:xlink="http://www.w3.org/1999/xlink">
<g id="graph0" class="graph" transform="scale(1 1) rotate(0) translate(4 288)">
<title>kazoo::AudioChannel</title>
<!-- Node1 -->
<g id="node1" class="node">
<title>Node1</title>
<g id="a_node1"><a xlink:title=" ">
<polygon fill="#bfbfbf" stroke="black" points="67.5,-0.5 67.5,-145.5 186.5,-145.5 186.5,-0.5 67.5,-0.5"/>
<text text-anchor="middle" x="127" y="-133.5" font-family="Helvetica,sans-Serif" font-size="10.00">kazoo::AudioChannel</text>
<polyline fill="none" stroke="black" points="67.5,-126.5 186.5,-126.5 "/>
<text text-anchor="middle" x="127" y="-114.5" font-family="Helvetica,sans-Serif" font-size="10.00"> </text>
<polyline fill="none" stroke="black" points="67.5,-107.5 186.5,-107.5 "/>
<text text-anchor="start" x="75.5" y="-95.5" font-family="Helvetica,sans-Serif" font-size="10.00">+ AudioChannel()</text>
<text text-anchor="start" x="75.5" y="-84.5" font-family="Helvetica,sans-Serif" font-size="10.00">+ addSample()</text>
<text text-anchor="start" x="75.5" y="-73.5" font-family="Helvetica,sans-Serif" font-size="10.00">+ addSamples()</text>
<text text-anchor="start" x="75.5" y="-62.5" font-family="Helvetica,sans-Serif" font-size="10.00">+ clear()</text>
<text text-anchor="start" x="75.5" y="-51.5" font-family="Helvetica,sans-Serif" font-size="10.00">+ getLengthMs()</text>
<text text-anchor="start" x="75.5" y="-40.5" font-family="Helvetica,sans-Serif" font-size="10.00">+ getNumSamples()</text>
<text text-anchor="start" x="75.5" y="-29.5" font-family="Helvetica,sans-Serif" font-size="10.00">+ getSample()</text>
<text text-anchor="start" x="75.5" y="-18.5" font-family="Helvetica,sans-Serif" font-size="10.00">+ getSamplesRef()</text>
<text text-anchor="start" x="75.5" y="-7.5" font-family="Helvetica,sans-Serif" font-size="10.00">+ setSample()</text>
</a>
</g>
</g>
<!-- Node2 -->
<g id="node2" class="node">
<title>Node2</title>
<g id="a_node2"><a xlink:href="classkazoo_1_1IAudioChannel.html" target="_top" xlink:title=" ">
<polygon fill="none" stroke="black" points="0,-193.5 0,-283.5 122,-283.5 122,-193.5 0,-193.5"/>
<text text-anchor="middle" x="61" y="-271.5" font-family="Helvetica,sans-Serif" font-size="10.00">kazoo::IAudioChannel</text>
<polyline fill="none" stroke="black" points="0,-264.5 122,-264.5 "/>
<text text-anchor="middle" x="61" y="-252.5" font-family="Helvetica,sans-Serif" font-size="10.00"> </text>
<polyline fill="none" stroke="black" points="0,-245.5 122,-245.5 "/>
<text text-anchor="start" x="8" y="-233.5" font-family="Helvetica,sans-Serif" font-size="10.00">+ ~IAudioChannel()</text>
<text text-anchor="start" x="8" y="-222.5" font-family="Helvetica,sans-Serif" font-size="10.00">+ addSample()</text>
<text text-anchor="start" x="8" y="-211.5" font-family="Helvetica,sans-Serif" font-size="10.00">+ clear()</text>
<text text-anchor="start" x="8" y="-200.5" font-family="Helvetica,sans-Serif" font-size="10.00">+ getSamplesRef()</text>
</a>
</g>
</g>
<!-- Node2&#45;&gt;Node1 -->
<g id="edge1" class="edge">
<title>Node2&#45;&gt;Node1</title>
<path fill="none" stroke="midnightblue" d="M82.71,-183.73C87.61,-171.57 92.9,-158.47 98.06,-145.7"/>
<polygon fill="none" stroke="midnightblue" points="79.36,-182.67 78.86,-193.25 85.85,-185.29 79.36,-182.67"/>
</g>
<!-- Node3 -->
<g id="node3" class="node">
<title>Node3</title>
<g id="a_node3"><a xlink:title=" ">
<polygon fill="none" stroke="black" points="140.5,-210 140.5,-267 247.5,-267 247.5,-210 140.5,-210"/>
<text text-anchor="middle" x="194" y="-255" font-family="Helvetica,sans-Serif" font-size="10.00">vector&lt; Sample &gt;</text>
<polyline fill="none" stroke="black" points="140.5,-248 247.5,-248 "/>
<text text-anchor="middle" x="194" y="-236" font-family="Helvetica,sans-Serif" font-size="10.00"> </text>
<polyline fill="none" stroke="black" points="140.5,-229 247.5,-229 "/>
<text text-anchor="middle" x="194" y="-217" font-family="Helvetica,sans-Serif" font-size="10.00"> </text>
</a>
</g>
</g>
<!-- Node3&#45;&gt;Node1 -->
<g id="edge2" class="edge">
<title>Node3&#45;&gt;Node1</title>
<path fill="none" stroke="#404040" d="M182.63,-209.76C176.58,-194.99 168.78,-175.95 160.95,-156.84"/>
<polygon fill="none" stroke="#404040" points="160.89,-156.71 154.92,-152.67 156.34,-145.61 162.32,-149.64 160.89,-156.71"/>
<text text-anchor="middle" x="195" y="-167" font-family="Helvetica,sans-Serif" font-size="10.00"> #samples_</text>
</g>
</g>
</svg>
