<?xml version="1.0" encoding="UTF-8" standalone="no"?>
<!DOCTYPE svg PUBLIC "-//W3C//DTD SVG 1.1//EN"
 "http://www.w3.org/Graphics/SVG/1.1/DTD/svg11.dtd">
<!-- Generated by graphviz version 2.43.0 (0)
 -->
<!-- Title: kazoo::TranslationLayer::startListening Pages: 1 -->
<svg width="638pt" height="459pt"
 viewBox="0.00 0.00 638.00 459.00" xmlns="http://www.w3.org/2000/svg" xmlns:xlink="http://www.w3.org/1999/xlink">
<g id="graph0" class="graph" transform="scale(1 1) rotate(0) translate(4 455)">
<title>kazoo::TranslationLayer::startListening</title>
<!-- Node1 -->
<g id="node1" class="node">
<title>Node1</title>
<g id="a_node1"><a xlink:title="Starts listening for audio input on the default audio device.">
<polygon fill="#bfbfbf" stroke="black" points="0,-199.5 0,-229.5 131,-229.5 131,-199.5 0,-199.5"/>
<text text-anchor="start" x="8" y="-217.5" font-family="Helvetica,sans-Serif" font-size="10.00">kazoo::TranslationLayer</text>
<text text-anchor="middle" x="65.5" y="-206.5" font-family="Helvetica,sans-Serif" font-size="10.00">::startListening</text>
</a>
</g>
</g>
<!-- Node2 -->
<g id="node2" class="node">
<title>Node2</title>
<g id="a_node2"><a xlink:href="classkazoo_1_1TranslationLayer.html#aa2783a8a2e4fb8fafa580e3cda27203e" target="_top" xlink:title=" ">
<polygon fill="none" stroke="black" points="167,-199.5 167,-229.5 298,-229.5 298,-199.5 167,-199.5"/>
<text text-anchor="start" x="175" y="-217.5" font-family="Helvetica,sans-Serif" font-size="10.00">kazoo::TranslationLayer</text>
<text text-anchor="middle" x="232.5" y="-206.5" font-family="Helvetica,sans-Serif" font-size="10.00">::listeningThreadFunc</text>
</a>
</g>
</g>
<!-- Node1&#45;&gt;Node2 -->
<g id="edge1" class="edge">
<title>Node1&#45;&gt;Node2</title>
<path fill="none" stroke="midnightblue" d="M131.24,-214.5C139.58,-214.5 148.18,-214.5 156.67,-214.5"/>
<polygon fill="midnightblue" stroke="midnightblue" points="156.95,-218 166.95,-214.5 156.95,-211 156.95,-218"/>
</g>
<!-- Node3 -->
<g id="node3" class="node">
<title>Node3</title>
<g id="a_node3"><a xlink:href="classkazoo_1_1AudioChannel.html#aa2791ad2274b523a480f2010df2e71d2" target="_top" xlink:title=" ">
<polygon fill="none" stroke="black" points="345.5,-420.5 345.5,-450.5 464.5,-450.5 464.5,-420.5 345.5,-420.5"/>
<text text-anchor="start" x="353.5" y="-438.5" font-family="Helvetica,sans-Serif" font-size="10.00">kazoo::AudioChannel</text>
<text text-anchor="middle" x="405" y="-427.5" font-family="Helvetica,sans-Serif" font-size="10.00">::addSamples</text>
</a>
</g>
</g>
<!-- Node2&#45;&gt;Node3 -->
<g id="edge2" class="edge">
<title>Node2&#45;&gt;Node3</title>
<path fill="none" stroke="midnightblue" d="M237.07,-229.77C246.43,-266.48 275.13,-360.42 334,-411.5 335.49,-412.79 337.06,-414.02 338.68,-415.18"/>
<polygon fill="midnightblue" stroke="midnightblue" points="336.88,-418.18 347.23,-420.45 340.56,-412.22 336.88,-418.18"/>
</g>
<!-- Node4 -->
<g id="node4" class="node">
<title>Node4</title>
<g id="a_node4"><a xlink:href="classkazoo_1_1AudioChannel.html#a400078d8b30365e3f755e23a02e392e2" target="_top" xlink:title=" ">
<polygon fill="none" stroke="black" points="345.5,-371.5 345.5,-401.5 464.5,-401.5 464.5,-371.5 345.5,-371.5"/>
<text text-anchor="start" x="353.5" y="-389.5" font-family="Helvetica,sans-Serif" font-size="10.00">kazoo::AudioChannel</text>
<text text-anchor="middle" x="405" y="-378.5" font-family="Helvetica,sans-Serif" font-size="10.00">::clear</text>
</a>
</g>
</g>
<!-- Node2&#45;&gt;Node4 -->
<g id="edge3" class="edge">
<title>Node2&#45;&gt;Node4</title>
<path fill="none" stroke="midnightblue" d="M239.9,-229.9C253.09,-259.79 286.12,-325.93 334,-362.5 335.82,-363.89 337.74,-365.21 339.71,-366.45"/>
<polygon fill="midnightblue" stroke="midnightblue" points="338.29,-369.67 348.74,-371.44 341.68,-363.54 338.29,-369.67"/>
</g>
<!-- Node5 -->
<g id="node5" class="node">
<title>Node5</title>
<g id="a_node5"><a xlink:href="classkazoo_1_1ISymbolModel.html#a2c41b4fca45a1bb19613435c92fb91d4" target="_top" xlink:title=" ">
<polygon fill="none" stroke="black" points="336,-322.5 336,-352.5 474,-352.5 474,-322.5 336,-322.5"/>
<text text-anchor="start" x="344" y="-340.5" font-family="Helvetica,sans-Serif" font-size="10.00">kazoo::ISymbolModel</text>
<text text-anchor="middle" x="405" y="-329.5" font-family="Helvetica,sans-Serif" font-size="10.00">::decodeAudioToSymbols</text>
</a>
</g>
</g>
<!-- Node2&#45;&gt;Node5 -->
<g id="edge4" class="edge">
<title>Node2&#45;&gt;Node5</title>
<path fill="none" stroke="midnightblue" d="M245.19,-229.72C262.44,-251.22 296.72,-290.43 334,-313.5 336.65,-315.14 339.42,-316.68 342.27,-318.13"/>
<polygon fill="midnightblue" stroke="midnightblue" points="341.04,-321.42 351.58,-322.45 343.98,-315.07 341.04,-321.42"/>
</g>
<!-- Node6 -->
<g id="node6" class="node">
<title>Node6</title>
<g id="a_node6"><a xlink:href="classkazoo_1_1BinaryStream.html#af26ef358b4ddbd2f0a7f9d94d1b64357" target="_top" xlink:title="Get the number of bytes in the stream. If the stream has spare bits that do not align to a byte,...">
<polygon fill="none" stroke="black" points="346,-273.5 346,-303.5 464,-303.5 464,-273.5 346,-273.5"/>
<text text-anchor="start" x="354" y="-291.5" font-family="Helvetica,sans-Serif" font-size="10.00">kazoo::BinaryStream</text>
<text text-anchor="middle" x="405" y="-280.5" font-family="Helvetica,sans-Serif" font-size="10.00">::getNumBytes</text>
</a>
</g>
</g>
<!-- Node2&#45;&gt;Node6 -->
<g id="edge5" class="edge">
<title>Node2&#45;&gt;Node6</title>
<path fill="none" stroke="midnightblue" d="M261.2,-229.51C281.13,-240.01 308.83,-253.98 334,-264.5 338.43,-266.35 343.07,-268.18 347.75,-269.94"/>
<polygon fill="midnightblue" stroke="midnightblue" points="346.77,-273.31 357.36,-273.47 349.18,-266.74 346.77,-273.31"/>
</g>
<!-- Node7 -->
<g id="node7" class="node">
<title>Node7</title>
<g id="a_node7"><a xlink:href="classkazoo_1_1ISymbolStream.html#a9e3b2b62a64109d782aa7746041e7e95" target="_top" xlink:title=" ">
<polygon fill="none" stroke="black" points="342,-224.5 342,-254.5 468,-254.5 468,-224.5 342,-224.5"/>
<text text-anchor="start" x="350" y="-242.5" font-family="Helvetica,sans-Serif" font-size="10.00">kazoo::ISymbolStream</text>
<text text-anchor="middle" x="405" y="-231.5" font-family="Helvetica,sans-Serif" font-size="10.00">::getNumBytes</text>
</a>
</g>
</g>
<!-- Node2&#45;&gt;Node7 -->
<g id="edge6" class="edge">
<title>Node2&#45;&gt;Node7</title>
<path fill="none" stroke="midnightblue" d="M298.45,-224.02C309.32,-225.62 320.67,-227.28 331.72,-228.9"/>
<polygon fill="midnightblue" stroke="midnightblue" points="331.36,-232.39 341.77,-230.37 332.38,-225.46 331.36,-232.39"/>
</g>
<!-- Node8 -->
<g id="node8" class="node">
<title>Node8</title>
<g id="a_node8"><a xlink:href="classkazoo_1_1AudioChannel.html#a97d2202c18916b93bb72b4c540ba75ed" target="_top" xlink:title=" ">
<polygon fill="none" stroke="black" points="345.5,-175.5 345.5,-205.5 464.5,-205.5 464.5,-175.5 345.5,-175.5"/>
<text text-anchor="start" x="353.5" y="-193.5" font-family="Helvetica,sans-Serif" font-size="10.00">kazoo::AudioChannel</text>
<text text-anchor="middle" x="405" y="-182.5" font-family="Helvetica,sans-Serif" font-size="10.00">::getNumSamples</text>
</a>
</g>
</g>
<!-- Node2&#45;&gt;Node8 -->
<g id="edge7" class="edge">
<title>Node2&#45;&gt;Node8</title>
<path fill="none" stroke="midnightblue" d="M298.45,-205.36C310.5,-203.66 323.14,-201.88 335.3,-200.17"/>
<polygon fill="midnightblue" stroke="midnightblue" points="335.97,-203.61 345.39,-198.75 335,-196.68 335.97,-203.61"/>
</g>
<!-- Node9 -->
<g id="node9" class="node">
<title>Node9</title>
<g id="a_node9"><a xlink:href="classkazoo_1_1TranslationLayer.html#aac2f32faef9d2ffa8f3a28bf58844ba6" target="_top" xlink:title=" ">
<polygon fill="none" stroke="black" points="338.5,-126.5 338.5,-156.5 471.5,-156.5 471.5,-126.5 338.5,-126.5"/>
<text text-anchor="start" x="346.5" y="-144.5" font-family="Helvetica,sans-Serif" font-size="10.00">kazoo::TranslationLayer</text>
<text text-anchor="middle" x="405" y="-133.5" font-family="Helvetica,sans-Serif" font-size="10.00">::getStaticSymbolModel</text>
</a>
</g>
</g>
<!-- Node2&#45;&gt;Node9 -->
<g id="edge8" class="edge">
<title>Node2&#45;&gt;Node9</title>
<path fill="none" stroke="midnightblue" d="M263.04,-199.41C282.87,-189.52 309.72,-176.6 334,-166.5 339.14,-164.36 344.53,-162.24 349.95,-160.18"/>
<polygon fill="midnightblue" stroke="midnightblue" points="351.52,-163.32 359.67,-156.55 349.08,-156.76 351.52,-163.32"/>
</g>
<!-- Node10 -->
<g id="node10" class="node">
<title>Node10</title>
<g id="a_node10"><a xlink:href="classkazoo_1_1BinaryStream.html#a32b6f202b2627b75ace2e6c9c07726aa" target="_top" xlink:title="Get the byte alignment status of the stream.">
<polygon fill="none" stroke="black" points="512,-82.5 512,-112.5 630,-112.5 630,-82.5 512,-82.5"/>
<text text-anchor="start" x="520" y="-100.5" font-family="Helvetica,sans-Serif" font-size="10.00">kazoo::BinaryStream</text>
<text text-anchor="middle" x="571" y="-89.5" font-family="Helvetica,sans-Serif" font-size="10.00">::isByteAligned</text>
</a>
</g>
</g>
<!-- Node2&#45;&gt;Node10 -->
<g id="edge9" class="edge">
<title>Node2&#45;&gt;Node10</title>
<path fill="none" stroke="midnightblue" d="M243.76,-199.44C259.97,-177.07 293.81,-135.74 334,-117.5 386.78,-93.54 453,-89.9 501.85,-91.47"/>
<polygon fill="midnightblue" stroke="midnightblue" points="501.86,-94.98 512,-91.88 502.14,-87.98 501.86,-94.98"/>
</g>
<!-- Node11 -->
<g id="node11" class="node">
<title>Node11</title>
<g id="a_node11"><a xlink:href="classkazoo_1_1BinaryStream.html#a8d303f53784202d1d75b360075093ffb" target="_top" xlink:title="If the last element is being used as a bit buffer, this will fill the remaining bits until the stream...">
<polygon fill="none" stroke="black" points="334,-50 334,-69 476,-69 476,-50 334,-50"/>
<text text-anchor="middle" x="405" y="-57" font-family="Helvetica,sans-Serif" font-size="10.00">kazoo::BinaryStream::pad</text>
</a>
</g>
</g>
<!-- Node2&#45;&gt;Node11 -->
<g id="edge10" class="edge">
<title>Node2&#45;&gt;Node11</title>
<path fill="none" stroke="midnightblue" d="M241.28,-199.21C255.84,-172.05 289.78,-115.29 334,-83.5 339.95,-79.22 346.73,-75.66 353.67,-72.7"/>
<polygon fill="midnightblue" stroke="midnightblue" points="355.09,-75.9 363.16,-69.04 352.58,-69.37 355.09,-75.9"/>
</g>
<!-- Node13 -->
<g id="node13" class="node">
<title>Node13</title>
<g id="a_node13"><a xlink:href="classkazoo_1_1ISymbolStream.html#a6dd43cbf09e35b93f95b1d3ad2bc7f0a" target="_top" xlink:title=" ">
<polygon fill="none" stroke="black" points="339,-0.5 339,-30.5 471,-30.5 471,-0.5 339,-0.5"/>
<text text-anchor="start" x="347" y="-18.5" font-family="Helvetica,sans-Serif" font-size="10.00">kazoo::ISymbolStream</text>
<text text-anchor="middle" x="405" y="-7.5" font-family="Helvetica,sans-Serif" font-size="10.00">::populateBinaryStream</text>
</a>
</g>
</g>
<!-- Node2&#45;&gt;Node13 -->
<g id="edge13" class="edge">
<title>Node2&#45;&gt;Node13</title>
<path fill="none" stroke="midnightblue" d="M238.21,-199.33C249.37,-165.84 280.55,-85.07 334,-40.5 336.04,-38.8 338.2,-37.21 340.45,-35.73"/>
<polygon fill="midnightblue" stroke="midnightblue" points="342.6,-38.53 349.53,-30.51 339.11,-32.46 342.6,-38.53"/>
</g>
<!-- Node11&#45;&gt;Node10 -->
<g id="edge12" class="edge">
<title>Node11&#45;&gt;Node10</title>
<path fill="none" stroke="midnightblue" d="M447.38,-69.09C463.95,-72.93 483.48,-77.45 502.03,-81.75"/>
<polygon fill="midnightblue" stroke="midnightblue" points="501.37,-85.19 511.91,-84.04 502.95,-78.37 501.37,-85.19"/>
</g>
<!-- Node12 -->
<g id="node12" class="node">
<title>Node12</title>
<g id="a_node12"><a xlink:href="classkazoo_1_1BinaryStream.html#ad6187750dbcd6ae38948b5c267740bf6" target="_top" xlink:title=" ">
<polygon fill="none" stroke="black" points="512,-33.5 512,-63.5 630,-63.5 630,-33.5 512,-33.5"/>
<text text-anchor="start" x="520" y="-51.5" font-family="Helvetica,sans-Serif" font-size="10.00">kazoo::BinaryStream</text>
<text text-anchor="middle" x="571" y="-40.5" font-family="Helvetica,sans-Serif" font-size="10.00">::addBit</text>
</a>
</g>
</g>
<!-- Node11&#45;&gt;Node12 -->
<g id="edge11" class="edge">
<title>Node11&#45;&gt;Node12</title>
<path fill="none" stroke="midnightblue" d="M476.03,-54.8C484.51,-54.23 493.16,-53.65 501.62,-53.09"/>
<polygon fill="midnightblue" stroke="midnightblue" points="502.06,-56.56 511.81,-52.4 501.59,-49.58 502.06,-56.56"/>
</g>
</g>
</svg>
