<?xml version="1.0" encoding="UTF-8" standalone="no"?>
<!DOCTYPE svg PUBLIC "-//W3C//DTD SVG 1.1//EN"
 "http://www.w3.org/Graphics/SVG/1.1/DTD/svg11.dtd">
<!-- Generated by graphviz version 2.43.0 (0)
 -->
<!-- Title: kazoo::ISymbolModel::decodeAudioToSymbols Pages: 1 -->
<svg width="689pt" height="206pt"
 viewBox="0.00 0.00 689.00 205.50" xmlns="http://www.w3.org/2000/svg" xmlns:xlink="http://www.w3.org/1999/xlink">
<g id="graph0" class="graph" transform="scale(1 1) rotate(0) translate(4 201.5)">
<title>kazoo::ISymbolModel::decodeAudioToSymbols</title>
<!-- Node1 -->
<g id="node1" class="node">
<title>Node1</title>
<g id="a_node1"><a xlink:title=" ">
<polygon fill="#bfbfbf" stroke="black" points="543,-90 543,-120 681,-120 681,-90 543,-90"/>
<text text-anchor="start" x="551" y="-108" font-family="Helvetica,sans-Serif" font-size="10.00">kazoo::ISymbolModel</text>
<text text-anchor="middle" x="612" y="-97" font-family="Helvetica,sans-Serif" font-size="10.00">::decodeAudioToSymbols</text>
</a>
</g>
</g>
<!-- Node2 -->
<g id="node2" class="node">
<title>Node2</title>
<g id="a_node2"><a xlink:href="classkazoo_1_1ModelTester.html#a2d86a19402c92c173a6ffa8838835935" target="_top" xlink:title=" ">
<polygon fill="none" stroke="black" points="346,-112.5 346,-153.5 507,-153.5 507,-112.5 346,-112.5"/>
<text text-anchor="start" x="354" y="-141.5" font-family="Helvetica,sans-Serif" font-size="10.00">kazoo::ModelTester</text>
<text text-anchor="start" x="354" y="-130.5" font-family="Helvetica,sans-Serif" font-size="10.00">::helper_decodeAudioChannel</text>
<text text-anchor="middle" x="426.5" y="-119.5" font-family="Helvetica,sans-Serif" font-size="10.00">ToString</text>
</a>
</g>
</g>
<!-- Node1&#45;&gt;Node2 -->
<g id="edge1" class="edge">
<title>Node1&#45;&gt;Node2</title>
<path fill="none" stroke="midnightblue" d="M533.01,-116.9C524.48,-118.2 515.79,-119.53 507.23,-120.83"/>
<polygon fill="midnightblue" stroke="midnightblue" points="533.57,-120.35 542.93,-115.39 532.52,-113.43 533.57,-120.35"/>
</g>
<!-- Node5 -->
<g id="node5" class="node">
<title>Node5</title>
<g id="a_node5"><a xlink:href="classkazoo_1_1TranslationLayer.html#aa2783a8a2e4fb8fafa580e3cda27203e" target="_top" xlink:title=" ">
<polygon fill="none" stroke="black" points="361,-14 361,-44 492,-44 492,-14 361,-14"/>
<text text-anchor="start" x="369" y="-32" font-family="Helvetica,sans-Serif" font-size="10.00">kazoo::TranslationLayer</text>
<text text-anchor="middle" x="426.5" y="-21" font-family="Helvetica,sans-Serif" font-size="10.00">::listeningThreadFunc</text>
</a>
</g>
</g>
<!-- Node1&#45;&gt;Node5 -->
<g id="edge4" class="edge">
<title>Node1&#45;&gt;Node5</title>
<path fill="none" stroke="midnightblue" d="M574.85,-85.02C555.16,-74.63 530.16,-62.21 507,-53 498.96,-49.8 490.32,-46.79 481.81,-44.04"/>
<polygon fill="midnightblue" stroke="midnightblue" points="573.31,-88.16 583.78,-89.78 576.6,-81.99 573.31,-88.16"/>
</g>
<!-- Node9 -->
<g id="node9" class="node">
<title>Node9</title>
<g id="a_node9"><a xlink:href="classkazoo_1_1TranslationLayer.html#a76f09d5f7213679a6656aa9473f8f2ab" target="_top" xlink:title=" ">
<polygon fill="none" stroke="black" points="361,-63 361,-93 492,-93 492,-63 361,-63"/>
<text text-anchor="start" x="369" y="-81" font-family="Helvetica,sans-Serif" font-size="10.00">kazoo::TranslationLayer</text>
<text text-anchor="middle" x="426.5" y="-70" font-family="Helvetica,sans-Serif" font-size="10.00">::loadAndDecodeWav</text>
</a>
</g>
</g>
<!-- Node1&#45;&gt;Node9 -->
<g id="edge8" class="edge">
<title>Node1&#45;&gt;Node9</title>
<path fill="none" stroke="midnightblue" d="M532.68,-93.48C519.15,-91.49 505.22,-89.44 492.11,-87.51"/>
<polygon fill="midnightblue" stroke="midnightblue" points="532.53,-96.99 542.93,-94.98 533.55,-90.07 532.53,-96.99"/>
</g>
<!-- Node10 -->
<g id="node10" class="node">
<title>Node10</title>
<g id="a_node10"><a xlink:href="classkazoo_1_1ModelTester.html#ae04082b16f30df3b2200f4d090b0337b" target="_top" xlink:title=" ">
<polygon fill="none" stroke="black" points="156,-167 156,-197 300,-197 300,-167 156,-167"/>
<text text-anchor="start" x="164" y="-185" font-family="Helvetica,sans-Serif" font-size="10.00">kazoo::ModelTester</text>
<text text-anchor="middle" x="228" y="-174" font-family="Helvetica,sans-Serif" font-size="10.00">::test_basicEncodeDecode</text>
</a>
</g>
</g>
<!-- Node1&#45;&gt;Node10 -->
<g id="edge9" class="edge">
<title>Node1&#45;&gt;Node10</title>
<path fill="none" stroke="midnightblue" d="M581.97,-125.79C561.93,-138.95 534.11,-154.96 507,-163 438.83,-183.23 357.28,-186.49 300.2,-185.6"/>
<polygon fill="midnightblue" stroke="midnightblue" points="583.99,-128.66 590.33,-120.17 580.08,-122.85 583.99,-128.66"/>
</g>
<!-- Node3 -->
<g id="node3" class="node">
<title>Node3</title>
<g id="a_node3"><a xlink:href="classkazoo_1_1ModelTester.html#a43e738d358a87f9f01cc8ad13c6964fe" target="_top" xlink:title=" ">
<polygon fill="none" stroke="black" points="146,-118 146,-148 310,-148 310,-118 146,-118"/>
<text text-anchor="start" x="154" y="-136" font-family="Helvetica,sans-Serif" font-size="10.00">kazoo::ModelTester</text>
<text text-anchor="middle" x="228" y="-125" font-family="Helvetica,sans-Serif" font-size="10.00">::test_gaussianNoiseTolerance</text>
</a>
</g>
</g>
<!-- Node2&#45;&gt;Node3 -->
<g id="edge2" class="edge">
<title>Node2&#45;&gt;Node3</title>
<path fill="none" stroke="midnightblue" d="M335.82,-133C327.23,-133 318.54,-133 310.03,-133"/>
<polygon fill="midnightblue" stroke="midnightblue" points="335.86,-136.5 345.86,-133 335.86,-129.5 335.86,-136.5"/>
</g>
<!-- Node4 -->
<g id="node4" class="node">
<title>Node4</title>
<g id="a_node4"><a xlink:href="classkazoo_1_1ModelTester.html#a7e596cfc6087c50c134a30707a33d6dc" target="_top" xlink:title=" ">
<polygon fill="none" stroke="black" points="0,-142 0,-172 110,-172 110,-142 0,-142"/>
<text text-anchor="start" x="8" y="-160" font-family="Helvetica,sans-Serif" font-size="10.00">kazoo::ModelTester</text>
<text text-anchor="middle" x="55" y="-149" font-family="Helvetica,sans-Serif" font-size="10.00">::runAllTests</text>
</a>
</g>
</g>
<!-- Node3&#45;&gt;Node4 -->
<g id="edge3" class="edge">
<title>Node3&#45;&gt;Node4</title>
<path fill="none" stroke="midnightblue" d="M135.57,-145.83C126.91,-147.05 118.33,-148.25 110.19,-149.39"/>
<polygon fill="midnightblue" stroke="midnightblue" points="136.34,-149.26 145.76,-144.4 135.37,-142.33 136.34,-149.26"/>
</g>
<!-- Node6 -->
<g id="node6" class="node">
<title>Node6</title>
<g id="a_node6"><a xlink:href="classkazoo_1_1TranslationLayer.html#add62ed51f54492faf5a8ef388f1f0f58" target="_top" xlink:title="Starts listening for audio input on the default audio device.">
<polygon fill="none" stroke="black" points="162.5,-14 162.5,-44 293.5,-44 293.5,-14 162.5,-14"/>
<text text-anchor="start" x="170.5" y="-32" font-family="Helvetica,sans-Serif" font-size="10.00">kazoo::TranslationLayer</text>
<text text-anchor="middle" x="228" y="-21" font-family="Helvetica,sans-Serif" font-size="10.00">::startListening</text>
</a>
</g>
</g>
<!-- Node5&#45;&gt;Node6 -->
<g id="edge5" class="edge">
<title>Node5&#45;&gt;Node6</title>
<path fill="none" stroke="midnightblue" d="M350.87,-29C332.03,-29 311.95,-29 293.65,-29"/>
<polygon fill="midnightblue" stroke="midnightblue" points="350.89,-32.5 360.89,-29 350.89,-25.5 350.89,-32.5"/>
</g>
<!-- Node7 -->
<g id="node7" class="node">
<title>Node7</title>
<g id="a_node7"><a xlink:href="src_2kazoo__connect__server_2main_8cpp.html#ae66f6b31b5ad750f1fe042a706a4e3d4" target="_top" xlink:title=" ">
<polygon fill="none" stroke="black" points="34.5,-38.5 34.5,-57.5 75.5,-57.5 75.5,-38.5 34.5,-38.5"/>
<text text-anchor="middle" x="55" y="-45.5" font-family="Helvetica,sans-Serif" font-size="10.00">main</text>
</a>
</g>
</g>
<!-- Node6&#45;&gt;Node7 -->
<g id="edge6" class="edge">
<title>Node6&#45;&gt;Node7</title>
<path fill="none" stroke="midnightblue" d="M152.12,-37.32C124.09,-40.43 94.52,-43.72 75.7,-45.81"/>
<polygon fill="midnightblue" stroke="midnightblue" points="152.8,-40.77 162.35,-36.18 152.03,-33.81 152.8,-40.77"/>
</g>
<!-- Node8 -->
<g id="node8" class="node">
<title>Node8</title>
<g id="a_node8"><a xlink:href="translation__layer_8test_8cpp.html#a557311196b9a309f0d8377ef5af0c62c" target="_top" xlink:title=" ">
<polygon fill="none" stroke="black" points="34.5,-0.5 34.5,-19.5 75.5,-19.5 75.5,-0.5 34.5,-0.5"/>
<text text-anchor="middle" x="55" y="-7.5" font-family="Helvetica,sans-Serif" font-size="10.00">TEST</text>
</a>
</g>
</g>
<!-- Node6&#45;&gt;Node8 -->
<g id="edge7" class="edge">
<title>Node6&#45;&gt;Node8</title>
<path fill="none" stroke="midnightblue" d="M152.12,-20.68C124.09,-17.57 94.52,-14.28 75.7,-12.19"/>
<polygon fill="midnightblue" stroke="midnightblue" points="152.03,-24.19 162.35,-21.82 152.8,-17.23 152.03,-24.19"/>
</g>
<!-- Node10&#45;&gt;Node4 -->
<g id="edge10" class="edge">
<title>Node10&#45;&gt;Node4</title>
<path fill="none" stroke="midnightblue" d="M145.84,-170.13C133.73,-168.36 121.5,-166.58 110.12,-164.91"/>
<polygon fill="midnightblue" stroke="midnightblue" points="145.57,-173.63 155.97,-171.61 146.58,-166.71 145.57,-173.63"/>
</g>
</g>
</svg>
