<?xml version="1.0" encoding="UTF-8" standalone="no"?>
<!DOCTYPE svg PUBLIC "-//W3C//DTD SVG 1.1//EN"
 "http://www.w3.org/Graphics/SVG/1.1/DTD/svg11.dtd">
<!-- Generated by graphviz version 2.43.0 (0)
 -->
<!-- Title: sock::TcpSocketServer Pages: 1 -->
<svg width="143pt" height="303pt"
 viewBox="0.00 0.00 142.50 303.00" xmlns="http://www.w3.org/2000/svg" xmlns:xlink="http://www.w3.org/1999/xlink">
<g id="graph0" class="graph" transform="scale(1 1) rotate(0) translate(4 299)">
<title>sock::TcpSocketServer</title>
<!-- Node1 -->
<g id="node1" class="node">
<title>Node1</title>
<g id="a_node1"><a xlink:title="The TCP socket server class.">
<polygon fill="#bfbfbf" stroke="black" points="0,-0.5 0,-189.5 125,-189.5 125,-0.5 0,-0.5"/>
<text text-anchor="middle" x="62.5" y="-177.5" font-family="Helvetica,sans-Serif" font-size="10.00">sock::TcpSocketServer</text>
<polyline fill="none" stroke="black" points="0,-170.5 125,-170.5 "/>
<text text-anchor="middle" x="62.5" y="-158.5" font-family="Helvetica,sans-Serif" font-size="10.00"> </text>
<polyline fill="none" stroke="black" points="0,-151.5 125,-151.5 "/>
<text text-anchor="start" x="8" y="-139.5" font-family="Helvetica,sans-Serif" font-size="10.00">+ TcpSocketServer()</text>
<text text-anchor="start" x="8" y="-128.5" font-family="Helvetica,sans-Serif" font-size="10.00">+ ~TcpSocketServer()</text>
<text text-anchor="start" x="8" y="-117.5" font-family="Helvetica,sans-Serif" font-size="10.00">+ accept()</text>
<text text-anchor="start" x="8" y="-106.5" font-family="Helvetica,sans-Serif" font-size="10.00">+ bind()</text>
<text text-anchor="start" x="8" y="-95.5" font-family="Helvetica,sans-Serif" font-size="10.00">+ close()</text>
<text text-anchor="start" x="8" y="-84.5" font-family="Helvetica,sans-Serif" font-size="10.00">+ create()</text>
<text text-anchor="start" x="8" y="-73.5" font-family="Helvetica,sans-Serif" font-size="10.00">+ getClientAddress()</text>
<text text-anchor="start" x="8" y="-62.5" font-family="Helvetica,sans-Serif" font-size="10.00">+ init()</text>
<text text-anchor="start" x="8" y="-51.5" font-family="Helvetica,sans-Serif" font-size="10.00">+ isValid()</text>
<text text-anchor="start" x="8" y="-40.5" font-family="Helvetica,sans-Serif" font-size="10.00">+ listen()</text>
<text text-anchor="start" x="8" y="-29.5" font-family="Helvetica,sans-Serif" font-size="10.00">+ receive()</text>
<text text-anchor="start" x="8" y="-18.5" font-family="Helvetica,sans-Serif" font-size="10.00">+ send()</text>
<text text-anchor="start" x="8" y="-7.5" font-family="Helvetica,sans-Serif" font-size="10.00">+ sendRawData()</text>
</a>
</g>
</g>
<!-- Node2 -->
<g id="node2" class="node">
<title>Node2</title>
<g id="a_node2"><a xlink:title=" ">
<polygon fill="none" stroke="black" points="13,-237.5 13,-294.5 42,-294.5 42,-237.5 13,-237.5"/>
<text text-anchor="middle" x="27.5" y="-282.5" font-family="Helvetica,sans-Serif" font-size="10.00">int</text>
<polyline fill="none" stroke="black" points="13,-275.5 42,-275.5 "/>
<text text-anchor="middle" x="27.5" y="-263.5" font-family="Helvetica,sans-Serif" font-size="10.00"> </text>
<polyline fill="none" stroke="black" points="13,-256.5 42,-256.5 "/>
<text text-anchor="middle" x="27.5" y="-244.5" font-family="Helvetica,sans-Serif" font-size="10.00"> </text>
</a>
</g>
</g>
<!-- Node2&#45;&gt;Node1 -->
<g id="edge1" class="edge">
<title>Node2&#45;&gt;Node1</title>
<path fill="none" stroke="#404040" d="M33.2,-237.47C35.34,-227.13 37.93,-214.65 40.66,-201.44"/>
<polygon fill="none" stroke="#404040" points="40.66,-201.44 37.96,-194.75 43.1,-189.69 45.8,-196.37 40.66,-201.44"/>
<text text-anchor="middle" x="56" y="-211" font-family="Helvetica,sans-Serif" font-size="10.00"> &#45;sock_</text>
</g>
<!-- Node3 -->
<g id="node3" class="node">
<title>Node3</title>
<g id="a_node3"><a xlink:title=" ">
<polygon fill="none" stroke="black" points="60.5,-237.5 60.5,-294.5 134.5,-294.5 134.5,-237.5 60.5,-237.5"/>
<text text-anchor="middle" x="97.5" y="-282.5" font-family="Helvetica,sans-Serif" font-size="10.00">sockaddr_in</text>
<polyline fill="none" stroke="black" points="60.5,-275.5 134.5,-275.5 "/>
<text text-anchor="middle" x="97.5" y="-263.5" font-family="Helvetica,sans-Serif" font-size="10.00"> </text>
<polyline fill="none" stroke="black" points="60.5,-256.5 134.5,-256.5 "/>
<text text-anchor="middle" x="97.5" y="-244.5" font-family="Helvetica,sans-Serif" font-size="10.00"> </text>
</a>
</g>
</g>
<!-- Node3&#45;&gt;Node1 -->
<g id="edge2" class="edge">
<title>Node3&#45;&gt;Node1</title>
<path fill="none" stroke="#404040" d="M91.8,-237.47C89.66,-227.13 87.07,-214.65 84.34,-201.44"/>
<polygon fill="none" stroke="#404040" points="84.34,-201.44 79.2,-196.37 81.9,-189.69 87.04,-194.75 84.34,-201.44"/>
<text text-anchor="middle" x="103.5" y="-211" font-family="Helvetica,sans-Serif" font-size="10.00"> &#45;addr_</text>
</g>
</g>
</svg>
