<?xml version="1.0" encoding="UTF-8" standalone="no"?>
<!DOCTYPE svg PUBLIC "-//W3C//DTD SVG 1.1//EN"
 "http://www.w3.org/Graphics/SVG/1.1/DTD/svg11.dtd">
<!-- Generated by graphviz version 2.43.0 (0)
 -->
<!-- Title: sock::TcpSocketClient::transaction Pages: 1 -->
<svg width="288pt" height="106pt"
 viewBox="0.00 0.00 288.00 106.00" xmlns="http://www.w3.org/2000/svg" xmlns:xlink="http://www.w3.org/1999/xlink">
<g id="graph0" class="graph" transform="scale(1 1) rotate(0) translate(4 102)">
<title>sock::TcpSocketClient::transaction</title>
<!-- Node1 -->
<g id="node1" class="node">
<title>Node1</title>
<g id="a_node1"><a xlink:title=" ">
<polygon fill="#bfbfbf" stroke="black" points="0,-33.5 0,-63.5 122,-63.5 122,-33.5 0,-33.5"/>
<text text-anchor="start" x="8" y="-51.5" font-family="Helvetica,sans-Serif" font-size="10.00">sock::TcpSocketClient</text>
<text text-anchor="middle" x="61" y="-40.5" font-family="Helvetica,sans-Serif" font-size="10.00">::transaction</text>
</a>
</g>
</g>
<!-- Node2 -->
<g id="node2" class="node">
<title>Node2</title>
<g id="a_node2"><a xlink:href="classsock_1_1TcpSocketClient.html#a39876396de4d85dc85685591ca58b8c8" target="_top" xlink:title=" ">
<polygon fill="none" stroke="black" points="158,-67.5 158,-97.5 280,-97.5 280,-67.5 158,-67.5"/>
<text text-anchor="start" x="166" y="-85.5" font-family="Helvetica,sans-Serif" font-size="10.00">sock::TcpSocketClient</text>
<text text-anchor="middle" x="219" y="-74.5" font-family="Helvetica,sans-Serif" font-size="10.00">::receive</text>
</a>
</g>
</g>
<!-- Node1&#45;&gt;Node2 -->
<g id="edge1" class="edge">
<title>Node1&#45;&gt;Node2</title>
<path fill="none" stroke="midnightblue" d="M122.31,-61.65C130.69,-63.47 139.36,-65.36 147.9,-67.22"/>
<polygon fill="midnightblue" stroke="midnightblue" points="147.33,-70.68 157.85,-69.39 148.82,-63.84 147.33,-70.68"/>
</g>
<!-- Node3 -->
<g id="node3" class="node">
<title>Node3</title>
<g id="a_node3"><a xlink:href="classsock_1_1TcpSocketClient.html#a80c923b93b6868bc88933738ac410df8" target="_top" xlink:title=" ">
<polygon fill="none" stroke="black" points="158,-0.5 158,-30.5 280,-30.5 280,-0.5 158,-0.5"/>
<text text-anchor="start" x="166" y="-18.5" font-family="Helvetica,sans-Serif" font-size="10.00">sock::TcpSocketClient</text>
<text text-anchor="middle" x="219" y="-7.5" font-family="Helvetica,sans-Serif" font-size="10.00">::send</text>
</a>
</g>
</g>
<!-- Node1&#45;&gt;Node3 -->
<g id="edge2" class="edge">
<title>Node1&#45;&gt;Node3</title>
<path fill="none" stroke="midnightblue" d="M122.31,-35.74C130.69,-33.97 139.36,-32.13 147.9,-30.33"/>
<polygon fill="midnightblue" stroke="midnightblue" points="148.79,-33.72 157.85,-28.22 147.34,-26.87 148.79,-33.72"/>
</g>
<!-- Node3&#45;&gt;Node3 -->
<g id="edge3" class="edge">
<title>Node3&#45;&gt;Node3</title>
<path fill="none" stroke="midnightblue" d="M191.47,-30.66C184.83,-40.06 194,-49 219,-49 234.23,-49 243.59,-45.68 247.07,-40.96"/>
<polygon fill="midnightblue" stroke="midnightblue" points="250.55,-40.46 246.53,-30.66 243.56,-40.83 250.55,-40.46"/>
</g>
</g>
</svg>
