<?xml version="1.0" encoding="UTF-8" standalone="no"?>
<!DOCTYPE svg PUBLIC "-//W3C//DTD SVG 1.1//EN"
 "http://www.w3.org/Graphics/SVG/1.1/DTD/svg11.dtd">
<!-- Generated by graphviz version 2.43.0 (0)
 -->
<!-- Title: deframer.hpp Pages: 1 -->
<svg width="848pt" height="196pt"
 viewBox="0.00 0.00 848.00 196.00" xmlns="http://www.w3.org/2000/svg" xmlns:xlink="http://www.w3.org/1999/xlink">
<g id="graph0" class="graph" transform="scale(1 1) rotate(0) translate(4 192)">
<title>deframer.hpp</title>
<!-- Node1 -->
<g id="node1" class="node">
<title>Node1</title>
<g id="a_node1"><a xlink:title=" ">
<polygon fill="#bfbfbf" stroke="black" points="212,-168.5 212,-187.5 294,-187.5 294,-168.5 212,-168.5"/>
<text text-anchor="middle" x="253" y="-175.5" font-family="Helvetica,sans-Serif" font-size="10.00">deframer.hpp</text>
</a>
</g>
</g>
<!-- Node2 -->
<g id="node2" class="node">
<title>Node2</title>
<g id="a_node2"><a xlink:title=" ">
<polygon fill="none" stroke="#bfbfbf" points="790,-56.5 790,-75.5 840,-75.5 840,-56.5 790,-56.5"/>
<text text-anchor="middle" x="815" y="-63.5" font-family="Helvetica,sans-Serif" font-size="10.00">cstdint</text>
</a>
</g>
</g>
<!-- Node1&#45;&gt;Node2 -->
<g id="edge1" class="edge">
<title>Node1&#45;&gt;Node2</title>
<path fill="none" stroke="midnightblue" d="M294.28,-176.98C398.99,-176.35 672.34,-170.9 753,-132 774.87,-121.45 793.07,-99.69 803.97,-84.26"/>
<polygon fill="midnightblue" stroke="midnightblue" points="807.11,-85.88 809.79,-75.63 801.3,-81.97 807.11,-85.88"/>
</g>
<!-- Node3 -->
<g id="node3" class="node">
<title>Node3</title>
<g id="a_node3"><a xlink:title=" ">
<polygon fill="none" stroke="#bfbfbf" points="131,-112.5 131,-131.5 187,-131.5 187,-112.5 131,-112.5"/>
<text text-anchor="middle" x="159" y="-119.5" font-family="Helvetica,sans-Serif" font-size="10.00">iomanip</text>
</a>
</g>
</g>
<!-- Node1&#45;&gt;Node3 -->
<g id="edge2" class="edge">
<title>Node1&#45;&gt;Node3</title>
<path fill="none" stroke="midnightblue" d="M237.9,-168.32C223.1,-159.82 200.31,-146.73 183.02,-136.8"/>
<polygon fill="midnightblue" stroke="midnightblue" points="184.48,-133.6 174.07,-131.65 180.99,-139.67 184.48,-133.6"/>
</g>
<!-- Node4 -->
<g id="node4" class="node">
<title>Node4</title>
<g id="a_node4"><a xlink:title=" ">
<polygon fill="none" stroke="#bfbfbf" points="0,-56.5 0,-75.5 60,-75.5 60,-56.5 0,-56.5"/>
<text text-anchor="middle" x="30" y="-63.5" font-family="Helvetica,sans-Serif" font-size="10.00">iostream</text>
</a>
</g>
</g>
<!-- Node1&#45;&gt;Node4 -->
<g id="edge3" class="edge">
<title>Node1&#45;&gt;Node4</title>
<path fill="none" stroke="midnightblue" d="M219.92,-168.46C192.78,-160.8 153.79,-148.27 122,-132 94.47,-117.91 65.85,-96.43 47.99,-82.06"/>
<polygon fill="midnightblue" stroke="midnightblue" points="50.09,-79.26 40.14,-75.64 45.66,-84.68 50.09,-79.26"/>
</g>
<!-- Node5 -->
<g id="node5" class="node">
<title>Node5</title>
<g id="a_node5"><a xlink:title=" ">
<polygon fill="none" stroke="#bfbfbf" points="78,-56.5 78,-75.5 134,-75.5 134,-56.5 78,-56.5"/>
<text text-anchor="middle" x="106" y="-63.5" font-family="Helvetica,sans-Serif" font-size="10.00">optional</text>
</a>
</g>
</g>
<!-- Node1&#45;&gt;Node5 -->
<g id="edge4" class="edge">
<title>Node1&#45;&gt;Node5</title>
<path fill="none" stroke="midnightblue" d="M247.2,-168.47C237.74,-155.07 217.86,-128.87 196,-112 178.5,-98.49 156.3,-87.34 138.33,-79.52"/>
<polygon fill="midnightblue" stroke="midnightblue" points="139.42,-76.18 128.84,-75.52 136.7,-82.63 139.42,-76.18"/>
</g>
<!-- Node6 -->
<g id="node6" class="node">
<title>Node6</title>
<g id="a_node6"><a xlink:title=" ">
<polygon fill="none" stroke="#bfbfbf" points="152.5,-56.5 152.5,-75.5 199.5,-75.5 199.5,-56.5 152.5,-56.5"/>
<text text-anchor="middle" x="176" y="-63.5" font-family="Helvetica,sans-Serif" font-size="10.00">vector</text>
</a>
</g>
</g>
<!-- Node1&#45;&gt;Node6 -->
<g id="edge5" class="edge">
<title>Node1&#45;&gt;Node6</title>
<path fill="none" stroke="midnightblue" d="M251.29,-168.34C248.38,-155.23 241.55,-129.94 229,-112 220.79,-100.25 208.79,-89.72 198.28,-81.81"/>
<polygon fill="midnightblue" stroke="midnightblue" points="200.09,-78.79 189.93,-75.8 196.01,-84.48 200.09,-78.79"/>
</g>
<!-- Node7 -->
<g id="node7" class="node">
<title>Node7</title>
<g id="a_node7"><a xlink:href="binary__stream_8hpp.html" target="_top" xlink:title=" ">
<polygon fill="none" stroke="black" points="305,-112.5 305,-131.5 429,-131.5 429,-112.5 305,-112.5"/>
<text text-anchor="middle" x="367" y="-119.5" font-family="Helvetica,sans-Serif" font-size="10.00">ktl/binary_stream.hpp</text>
</a>
</g>
</g>
<!-- Node1&#45;&gt;Node7 -->
<g id="edge6" class="edge">
<title>Node1&#45;&gt;Node7</title>
<path fill="none" stroke="midnightblue" d="M271.06,-168.44C289.57,-159.68 318.58,-145.94 339.86,-135.86"/>
<polygon fill="midnightblue" stroke="midnightblue" points="341.48,-138.96 349.02,-131.52 338.49,-132.63 341.48,-138.96"/>
</g>
<!-- Node17 -->
<g id="node17" class="node">
<title>Node17</title>
<g id="a_node17"><a xlink:href="ktl__frame_8hpp.html" target="_top" xlink:title=" ">
<polygon fill="none" stroke="black" points="642.5,-112.5 642.5,-131.5 743.5,-131.5 743.5,-112.5 642.5,-112.5"/>
<text text-anchor="middle" x="693" y="-119.5" font-family="Helvetica,sans-Serif" font-size="10.00">ktl/ktl_frame.hpp</text>
</a>
</g>
</g>
<!-- Node1&#45;&gt;Node17 -->
<g id="edge20" class="edge">
<title>Node1&#45;&gt;Node17</title>
<path fill="none" stroke="midnightblue" d="M294.39,-171.92C372.36,-162.35 541.3,-141.62 632.2,-130.46"/>
<polygon fill="midnightblue" stroke="midnightblue" points="632.85,-133.91 642.35,-129.22 632,-126.96 632.85,-133.91"/>
</g>
<!-- Node7&#45;&gt;Node2 -->
<g id="edge10" class="edge">
<title>Node7&#45;&gt;Node2</title>
<path fill="none" stroke="midnightblue" d="M429.15,-117.17C508.44,-111.64 649.9,-99.59 779.72,-75.98"/>
<polygon fill="midnightblue" stroke="midnightblue" points="780.65,-79.37 789.84,-74.11 779.38,-72.48 780.65,-79.37"/>
</g>
<!-- Node7&#45;&gt;Node4 -->
<g id="edge12" class="edge">
<title>Node7&#45;&gt;Node4</title>
<path fill="none" stroke="midnightblue" d="M304.84,-113.03C246.63,-105.25 157.03,-92.45 70.21,-76.11"/>
<polygon fill="midnightblue" stroke="midnightblue" points="70.66,-72.64 60.19,-74.21 69.36,-79.51 70.66,-72.64"/>
</g>
<!-- Node7&#45;&gt;Node5 -->
<g id="edge14" class="edge">
<title>Node7&#45;&gt;Node5</title>
<path fill="none" stroke="midnightblue" d="M321.84,-112.48C278.64,-104.21 211.43,-91.02 144.18,-76.2"/>
<polygon fill="midnightblue" stroke="midnightblue" points="144.77,-72.74 134.25,-74 143.26,-79.58 144.77,-72.74"/>
</g>
<!-- Node7&#45;&gt;Node6 -->
<g id="edge17" class="edge">
<title>Node7&#45;&gt;Node6</title>
<path fill="none" stroke="midnightblue" d="M336.74,-112.44C302.17,-102.67 245.78,-86.73 209.8,-76.56"/>
<polygon fill="midnightblue" stroke="midnightblue" points="210.36,-73.08 199.79,-73.73 208.46,-79.81 210.36,-73.08"/>
</g>
<!-- Node8 -->
<g id="node8" class="node">
<title>Node8</title>
<g id="a_node8"><a xlink:title=" ">
<polygon fill="none" stroke="#bfbfbf" points="672,-56.5 672,-75.5 714,-75.5 714,-56.5 672,-56.5"/>
<text text-anchor="middle" x="693" y="-63.5" font-family="Helvetica,sans-Serif" font-size="10.00">array</text>
</a>
</g>
</g>
<!-- Node7&#45;&gt;Node8 -->
<g id="edge7" class="edge">
<title>Node7&#45;&gt;Node8</title>
<path fill="none" stroke="midnightblue" d="M429.27,-114.12C487.26,-107.12 576.22,-94.91 661.9,-75.98"/>
<polygon fill="midnightblue" stroke="midnightblue" points="662.8,-79.37 671.79,-73.76 661.27,-72.54 662.8,-79.37"/>
</g>
<!-- Node9 -->
<g id="node9" class="node">
<title>Node9</title>
<g id="a_node9"><a xlink:title=" ">
<polygon fill="none" stroke="#bfbfbf" points="478,-56.5 478,-75.5 522,-75.5 522,-56.5 478,-56.5"/>
<text text-anchor="middle" x="500" y="-63.5" font-family="Helvetica,sans-Serif" font-size="10.00">bitset</text>
</a>
</g>
</g>
<!-- Node7&#45;&gt;Node9 -->
<g id="edge8" class="edge">
<title>Node7&#45;&gt;Node9</title>
<path fill="none" stroke="midnightblue" d="M388.07,-112.44C410.06,-103.52 444.73,-89.44 469.66,-79.32"/>
<polygon fill="midnightblue" stroke="midnightblue" points="471.08,-82.52 479.02,-75.52 468.44,-76.04 471.08,-82.52"/>
</g>
<!-- Node10 -->
<g id="node10" class="node">
<title>Node10</title>
<g id="a_node10"><a xlink:title=" ">
<polygon fill="none" stroke="#bfbfbf" points="217.5,-56.5 217.5,-75.5 264.5,-75.5 264.5,-56.5 217.5,-56.5"/>
<text text-anchor="middle" x="241" y="-63.5" font-family="Helvetica,sans-Serif" font-size="10.00">cmath</text>
</a>
</g>
</g>
<!-- Node7&#45;&gt;Node10 -->
<g id="edge9" class="edge">
<title>Node7&#45;&gt;Node10</title>
<path fill="none" stroke="midnightblue" d="M347.03,-112.44C326.39,-103.6 293.94,-89.69 270.37,-79.59"/>
<polygon fill="midnightblue" stroke="midnightblue" points="271.44,-76.24 260.87,-75.52 268.68,-82.67 271.44,-76.24"/>
</g>
<!-- Node11 -->
<g id="node11" class="node">
<title>Node11</title>
<g id="a_node11"><a xlink:title=" ">
<polygon fill="none" stroke="#bfbfbf" points="282.5,-56.5 282.5,-75.5 329.5,-75.5 329.5,-56.5 282.5,-56.5"/>
<text text-anchor="middle" x="306" y="-63.5" font-family="Helvetica,sans-Serif" font-size="10.00">deque</text>
</a>
</g>
</g>
<!-- Node7&#45;&gt;Node11 -->
<g id="edge11" class="edge">
<title>Node7&#45;&gt;Node11</title>
<path fill="none" stroke="midnightblue" d="M357.2,-112.32C348.18,-104.34 334.59,-92.31 323.68,-82.65"/>
<polygon fill="midnightblue" stroke="midnightblue" points="325.79,-79.84 315.98,-75.83 321.15,-85.08 325.79,-79.84"/>
</g>
<!-- Node12 -->
<g id="node12" class="node">
<title>Node12</title>
<g id="a_node12"><a xlink:title=" ">
<polygon fill="none" stroke="#bfbfbf" points="348,-56.5 348,-75.5 386,-75.5 386,-56.5 348,-56.5"/>
<text text-anchor="middle" x="367" y="-63.5" font-family="Helvetica,sans-Serif" font-size="10.00">map</text>
</a>
</g>
</g>
<!-- Node7&#45;&gt;Node12 -->
<g id="edge13" class="edge">
<title>Node7&#45;&gt;Node12</title>
<path fill="none" stroke="midnightblue" d="M367,-112.08C367,-105.01 367,-94.86 367,-85.99"/>
<polygon fill="midnightblue" stroke="midnightblue" points="370.5,-85.75 367,-75.75 363.5,-85.75 370.5,-85.75"/>
</g>
<!-- Node13 -->
<g id="node13" class="node">
<title>Node13</title>
<g id="a_node13"><a xlink:title=" ">
<polygon fill="none" stroke="#bfbfbf" points="732,-56.5 732,-75.5 772,-75.5 772,-56.5 732,-56.5"/>
<text text-anchor="middle" x="752" y="-63.5" font-family="Helvetica,sans-Serif" font-size="10.00">span</text>
</a>
</g>
</g>
<!-- Node7&#45;&gt;Node13 -->
<g id="edge15" class="edge">
<title>Node7&#45;&gt;Node13</title>
<path fill="none" stroke="midnightblue" d="M429.3,-116.45C498.64,-110.65 614.07,-98.77 721.78,-75.92"/>
<polygon fill="midnightblue" stroke="midnightblue" points="722.8,-79.28 731.84,-73.75 721.33,-72.44 722.8,-79.28"/>
</g>
<!-- Node14 -->
<g id="node14" class="node">
<title>Node14</title>
<g id="a_node14"><a xlink:title=" ">
<polygon fill="none" stroke="#bfbfbf" points="404,-56.5 404,-75.5 460,-75.5 460,-56.5 404,-56.5"/>
<text text-anchor="middle" x="432" y="-63.5" font-family="Helvetica,sans-Serif" font-size="10.00">sstream</text>
</a>
</g>
</g>
<!-- Node7&#45;&gt;Node14 -->
<g id="edge16" class="edge">
<title>Node7&#45;&gt;Node14</title>
<path fill="none" stroke="midnightblue" d="M377.44,-112.32C387.15,-104.26 401.82,-92.08 413.5,-82.37"/>
<polygon fill="midnightblue" stroke="midnightblue" points="415.91,-84.92 421.37,-75.83 411.44,-79.53 415.91,-84.92"/>
</g>
<!-- Node15 -->
<g id="node15" class="node">
<title>Node15</title>
<g id="a_node15"><a xlink:href="assert_8hpp.html" target="_top" xlink:title=" ">
<polygon fill="none" stroke="black" points="540.5,-56.5 540.5,-75.5 653.5,-75.5 653.5,-56.5 540.5,-56.5"/>
<text text-anchor="middle" x="597" y="-63.5" font-family="Helvetica,sans-Serif" font-size="10.00">common/assert.hpp</text>
</a>
</g>
</g>
<!-- Node7&#45;&gt;Node15 -->
<g id="edge18" class="edge">
<title>Node7&#45;&gt;Node15</title>
<path fill="none" stroke="midnightblue" d="M403.44,-112.44C443.4,-103.06 507.59,-87.99 550.98,-77.8"/>
<polygon fill="midnightblue" stroke="midnightblue" points="551.79,-81.21 560.73,-75.52 550.19,-74.39 551.79,-81.21"/>
</g>
<!-- Node16 -->
<g id="node16" class="node">
<title>Node16</title>
<g id="a_node16"><a xlink:title=" ">
<polygon fill="none" stroke="#bfbfbf" points="575,-0.5 575,-19.5 619,-19.5 619,-0.5 575,-0.5"/>
<text text-anchor="middle" x="597" y="-7.5" font-family="Helvetica,sans-Serif" font-size="10.00">string</text>
</a>
</g>
</g>
<!-- Node15&#45;&gt;Node16 -->
<g id="edge19" class="edge">
<title>Node15&#45;&gt;Node16</title>
<path fill="none" stroke="midnightblue" d="M597,-56.08C597,-49.01 597,-38.86 597,-29.99"/>
<polygon fill="midnightblue" stroke="midnightblue" points="600.5,-29.75 597,-19.75 593.5,-29.75 600.5,-29.75"/>
</g>
<!-- Node17&#45;&gt;Node2 -->
<g id="edge22" class="edge">
<title>Node17&#45;&gt;Node2</title>
<path fill="none" stroke="midnightblue" d="M712.33,-112.44C732.32,-103.6 763.74,-89.69 786.56,-79.59"/>
<polygon fill="midnightblue" stroke="midnightblue" points="788.03,-82.76 795.76,-75.52 785.2,-76.36 788.03,-82.76"/>
</g>
<!-- Node17&#45;&gt;Node8 -->
<g id="edge21" class="edge">
<title>Node17&#45;&gt;Node8</title>
<path fill="none" stroke="midnightblue" d="M693,-112.08C693,-105.01 693,-94.86 693,-85.99"/>
<polygon fill="midnightblue" stroke="midnightblue" points="696.5,-85.75 693,-75.75 689.5,-85.75 696.5,-85.75"/>
</g>
<!-- Node17&#45;&gt;Node13 -->
<g id="edge23" class="edge">
<title>Node17&#45;&gt;Node13</title>
<path fill="none" stroke="midnightblue" d="M702.48,-112.32C711.2,-104.34 724.34,-92.31 734.9,-82.65"/>
<polygon fill="midnightblue" stroke="midnightblue" points="737.33,-85.17 742.35,-75.83 732.61,-80 737.33,-85.17"/>
</g>
<!-- Node17&#45;&gt;Node15 -->
<g id="edge24" class="edge">
<title>Node17&#45;&gt;Node15</title>
<path fill="none" stroke="midnightblue" d="M677.58,-112.32C662.46,-103.82 639.18,-90.73 621.53,-80.8"/>
<polygon fill="midnightblue" stroke="midnightblue" points="622.82,-77.51 612.39,-75.65 619.39,-83.61 622.82,-77.51"/>
</g>
</g>
</svg>
