<?xml version="1.0" encoding="UTF-8" standalone="no"?>
<!DOCTYPE svg PUBLIC "-//W3C//DTD SVG 1.1//EN"
 "http://www.w3.org/Graphics/SVG/1.1/DTD/svg11.dtd">
<!-- Generated by graphviz version 2.43.0 (0)
 -->
<!-- Title: models Pages: 1 -->
<svg width="314pt" height="175pt"
 viewBox="0.00 0.00 313.50 175.00" xmlns="http://www.w3.org/2000/svg" xmlns:xlink="http://www.w3.org/1999/xlink">
<g id="graph0" class="graph" transform="scale(1 1) rotate(0) translate(4 171)">
<title>models</title>
<g id="clust1" class="cluster">
<title>clusterdir_8539e7adb580953cec1d8664997e7c8b</title>
<g id="a_clust1"><a xlink:href="dir_8539e7adb580953cec1d8664997e7c8b.html" target="_top" xlink:title="ktl">
<polygon fill="#daedff" stroke="#7f7f7f" stroke-dasharray="5,2" points="8,-8 8,-159 238,-159 238,-8 8,-8"/>
<text text-anchor="middle" x="123" y="-147" font-family="Helvetica,sans-Serif" font-size="10.00">ktl</text>
</a>
</g>
</g>
<g id="clust2" class="cluster">
<title>clusterdir_becdca43d4913721aef7e816ca4ff296</title>
<g id="a_clust2"><a xlink:href="dir_becdca43d4913721aef7e816ca4ff296.html" target="_top">
<polygon fill="#daedff" stroke="#404040" stroke-width="2" points="16,-80 16,-132 230,-132 230,-80 16,-80"/>
</a>
</g>
</g>
<!-- dir_43b3ef48ecd3158a0458a26f5d14dddc -->
<g id="node1" class="node">
<title>dir_43b3ef48ecd3158a0458a26f5d14dddc</title>
<g id="a_node1"><a xlink:href="dir_43b3ef48ecd3158a0458a26f5d14dddc.html" target="_top" xlink:title="audio">
<polygon fill="#4ea9ff" stroke="red" points="150,-52 96,-52 96,-16 150,-16 150,-52"/>
<text text-anchor="middle" x="123" y="-31.5" font-family="Helvetica,sans-Serif" font-size="10.00">audio</text>
</a>
</g>
</g>
<!-- dir_becdca43d4913721aef7e816ca4ff296 -->
<g id="node2" class="node">
<title>dir_becdca43d4913721aef7e816ca4ff296</title>
<text text-anchor="middle" x="123" y="-103.5" font-family="Helvetica,sans-Serif" font-size="10.00">models</text>
</g>
<!-- dir_becdca43d4913721aef7e816ca4ff296&#45;&gt;dir_43b3ef48ecd3158a0458a26f5d14dddc -->
<g id="edge1" class="edge">
<title>dir_becdca43d4913721aef7e816ca4ff296&#45;&gt;dir_43b3ef48ecd3158a0458a26f5d14dddc</title>
<path fill="none" stroke="black" d="M123,-87.7C123,-79.98 123,-70.71 123,-62.11"/>
<polygon fill="black" stroke="black" points="126.5,-62.1 123,-52.1 119.5,-62.1 126.5,-62.1"/>
<g id="a_edge1&#45;headlabel"><a xlink:href="dir_000018_000001.html" target="_top" xlink:title="12">
<text text-anchor="middle" x="129.34" y="-63.2" font-family="Helvetica,sans-Serif" font-size="10.00">12</text>
</a>
</g>
</g>
<!-- dir_fdedb0aba14d44ce9d99bc100e026e6a -->
<g id="node5" class="node">
<title>dir_fdedb0aba14d44ce9d99bc100e026e6a</title>
<g id="a_node5"><a xlink:href="dir_fdedb0aba14d44ce9d99bc100e026e6a.html" target="_top" xlink:title="common">
<polygon fill="none" stroke="#7f7f7f" points="305.5,-52 246.5,-52 246.5,-16 305.5,-16 305.5,-52"/>
<text text-anchor="middle" x="276" y="-31.5" font-family="Helvetica,sans-Serif" font-size="10.00">common</text>
</a>
</g>
</g>
<!-- dir_becdca43d4913721aef7e816ca4ff296&#45;&gt;dir_fdedb0aba14d44ce9d99bc100e026e6a -->
<g id="edge2" class="edge">
<title>dir_becdca43d4913721aef7e816ca4ff296&#45;&gt;dir_fdedb0aba14d44ce9d99bc100e026e6a</title>
<path fill="none" stroke="black" d="M145.64,-87.86C149.95,-85.01 154.51,-82.26 159,-80 190.92,-63.94 203.89,-66.38 237.04,-53.83"/>
<polygon fill="black" stroke="black" points="238.45,-57.03 246.44,-50.08 235.86,-50.53 238.45,-57.03"/>
<g id="a_edge2&#45;headlabel"><a xlink:href="dir_000018_000003.html" target="_top" xlink:title="5">
<text text-anchor="middle" x="236.16" y="-58.5" font-family="Helvetica,sans-Serif" font-size="10.00">5</text>
</a>
</g>
</g>
<!-- dir_87df69f326f66017b4e1d10636c6ae2c -->
<g id="node3" class="node">
<title>dir_87df69f326f66017b4e1d10636c6ae2c</title>
<g id="a_node3"><a xlink:href="dir_87df69f326f66017b4e1d10636c6ae2c.html" target="_top" xlink:title="k2">
<polygon fill="#4ea9ff" stroke="#404040" points="78,-124 24,-124 24,-88 78,-88 78,-124"/>
<text text-anchor="middle" x="51" y="-103.5" font-family="Helvetica,sans-Serif" font-size="10.00">k2</text>
</a>
</g>
</g>
<!-- dir_87df69f326f66017b4e1d10636c6ae2c&#45;&gt;dir_43b3ef48ecd3158a0458a26f5d14dddc -->
<g id="edge3" class="edge">
<title>dir_87df69f326f66017b4e1d10636c6ae2c&#45;&gt;dir_43b3ef48ecd3158a0458a26f5d14dddc</title>
<path fill="none" stroke="black" d="M68.8,-87.7C77.6,-79.14 88.38,-68.66 98,-59.3"/>
<polygon fill="black" stroke="black" points="100.68,-61.58 105.41,-52.1 95.8,-56.57 100.68,-61.58"/>
<g id="a_edge3&#45;headlabel"><a xlink:href="dir_000008_000001.html" target="_top" xlink:title="2">
<text text-anchor="middle" x="100.08" y="-63.63" font-family="Helvetica,sans-Serif" font-size="10.00">2</text>
</a>
</g>
</g>
<!-- dir_87df69f326f66017b4e1d10636c6ae2c&#45;&gt;dir_fdedb0aba14d44ce9d99bc100e026e6a -->
<g id="edge4" class="edge">
<title>dir_87df69f326f66017b4e1d10636c6ae2c&#45;&gt;dir_fdedb0aba14d44ce9d99bc100e026e6a</title>
<path fill="none" stroke="black" d="M72.6,-87.81C77.16,-84.83 82.08,-82.04 87,-80 148.64,-54.46 173.25,-72.25 236.54,-53.53"/>
<polygon fill="black" stroke="black" points="237.68,-56.84 246.16,-50.5 235.57,-50.16 237.68,-56.84"/>
<g id="a_edge4&#45;headlabel"><a xlink:href="dir_000008_000003.html" target="_top" xlink:title="1">
<text text-anchor="middle" x="235.1" y="-58.13" font-family="Helvetica,sans-Serif" font-size="10.00">1</text>
</a>
</g>
</g>
<!-- dir_c68fe914a5a14afa6d89c4d6dd152472 -->
<g id="node4" class="node">
<title>dir_c68fe914a5a14afa6d89c4d6dd152472</title>
<g id="a_node4"><a xlink:href="dir_c68fe914a5a14afa6d89c4d6dd152472.html" target="_top" xlink:title="k3">
<polygon fill="#4ea9ff" stroke="#404040" points="222,-124 168,-124 168,-88 222,-88 222,-124"/>
<text text-anchor="middle" x="195" y="-103.5" font-family="Helvetica,sans-Serif" font-size="10.00">k3</text>
</a>
</g>
</g>
<!-- dir_c68fe914a5a14afa6d89c4d6dd152472&#45;&gt;dir_43b3ef48ecd3158a0458a26f5d14dddc -->
<g id="edge5" class="edge">
<title>dir_c68fe914a5a14afa6d89c4d6dd152472&#45;&gt;dir_43b3ef48ecd3158a0458a26f5d14dddc</title>
<path fill="none" stroke="black" d="M177.2,-87.7C168.4,-79.14 157.62,-68.66 148,-59.3"/>
<polygon fill="black" stroke="black" points="150.2,-56.57 140.59,-52.1 145.32,-61.58 150.2,-56.57"/>
<g id="a_edge5&#45;headlabel"><a xlink:href="dir_000010_000001.html" target="_top" xlink:title="5">
<text text-anchor="middle" x="154.76" y="-54.54" font-family="Helvetica,sans-Serif" font-size="10.00">5</text>
</a>
</g>
</g>
<!-- dir_c68fe914a5a14afa6d89c4d6dd152472&#45;&gt;dir_fdedb0aba14d44ce9d99bc100e026e6a -->
<g id="edge6" class="edge">
<title>dir_c68fe914a5a14afa6d89c4d6dd152472&#45;&gt;dir_fdedb0aba14d44ce9d99bc100e026e6a</title>
<path fill="none" stroke="black" d="M215.02,-87.7C225.13,-78.97 237.54,-68.24 248.52,-58.75"/>
<polygon fill="black" stroke="black" points="250.93,-61.29 256.21,-52.1 246.35,-55.99 250.93,-61.29"/>
<g id="a_edge6&#45;headlabel"><a xlink:href="dir_000010_000003.html" target="_top" xlink:title="1">
<text text-anchor="middle" x="250.07" y="-63.29" font-family="Helvetica,sans-Serif" font-size="10.00">1</text>
</a>
</g>
</g>
</g>
</svg>
