<?xml version="1.0" encoding="UTF-8" standalone="no"?>
<!DOCTYPE svg PUBLIC "-//W3C//DTD SVG 1.1//EN"
 "http://www.w3.org/Graphics/SVG/1.1/DTD/svg11.dtd">
<!-- Generated by graphviz version 2.43.0 (0)
 -->
<!-- Title: k2 Pages: 1 -->
<svg width="140pt" height="151pt"
 viewBox="0.00 0.00 139.50 151.00" xmlns="http://www.w3.org/2000/svg" xmlns:xlink="http://www.w3.org/1999/xlink">
<g id="graph0" class="graph" transform="scale(1 1) rotate(0) translate(4 147)">
<title>k2</title>
<g id="clust1" class="cluster">
<title>clusterdir_becdca43d4913721aef7e816ca4ff296</title>
<g id="a_clust1"><a xlink:href="dir_becdca43d4913721aef7e816ca4ff296.html" target="_top" xlink:title="models">
<polygon fill="#daedff" stroke="#7f7f7f" stroke-dasharray="5,2" points="29,-64 29,-135 99,-135 99,-64 29,-64"/>
<text text-anchor="middle" x="64" y="-123" font-family="Helvetica,sans-Serif" font-size="10.00">models</text>
</a>
</g>
</g>
<!-- dir_87df69f326f66017b4e1d10636c6ae2c -->
<g id="node1" class="node">
<title>dir_87df69f326f66017b4e1d10636c6ae2c</title>
<g id="a_node1"><a xlink:href="dir_87df69f326f66017b4e1d10636c6ae2c.html" target="_top" xlink:title="k2">
<polygon fill="#daedff" stroke="#404040" stroke-width="2" points="91,-108 37,-108 37,-72 91,-72 91,-108"/>
<text text-anchor="middle" x="64" y="-87.5" font-family="Helvetica,sans-Serif" font-size="10.00">k2</text>
</a>
</g>
</g>
<!-- dir_43b3ef48ecd3158a0458a26f5d14dddc -->
<g id="node2" class="node">
<title>dir_43b3ef48ecd3158a0458a26f5d14dddc</title>
<g id="a_node2"><a xlink:href="dir_43b3ef48ecd3158a0458a26f5d14dddc.html" target="_top" xlink:title="audio">
<polygon fill="none" stroke="red" stroke-dasharray="5,2" points="54,-36 0,-36 0,0 54,0 54,-36"/>
<text text-anchor="middle" x="27" y="-15.5" font-family="Helvetica,sans-Serif" font-size="10.00">audio</text>
</a>
</g>
</g>
<!-- dir_87df69f326f66017b4e1d10636c6ae2c&#45;&gt;dir_43b3ef48ecd3158a0458a26f5d14dddc -->
<g id="edge1" class="edge">
<title>dir_87df69f326f66017b4e1d10636c6ae2c&#45;&gt;dir_43b3ef48ecd3158a0458a26f5d14dddc</title>
<path fill="none" stroke="black" d="M54.85,-71.7C50.6,-63.64 45.44,-53.89 40.73,-44.98"/>
<polygon fill="black" stroke="black" points="43.81,-43.31 36.04,-36.1 37.62,-46.58 43.81,-43.31"/>
<g id="a_edge1&#45;headlabel"><a xlink:href="dir_000004_000000.html" target="_top" xlink:title="2">
<text text-anchor="middle" x="48" y="-42.66" font-family="Helvetica,sans-Serif" font-size="10.00">2</text>
</a>
</g>
</g>
<!-- dir_fdedb0aba14d44ce9d99bc100e026e6a -->
<g id="node3" class="node">
<title>dir_fdedb0aba14d44ce9d99bc100e026e6a</title>
<g id="a_node3"><a xlink:href="dir_fdedb0aba14d44ce9d99bc100e026e6a.html" target="_top" xlink:title="common">
<polygon fill="none" stroke="#7f7f7f" points="131.5,-36 72.5,-36 72.5,0 131.5,0 131.5,-36"/>
<text text-anchor="middle" x="102" y="-15.5" font-family="Helvetica,sans-Serif" font-size="10.00">common</text>
</a>
</g>
</g>
<!-- dir_87df69f326f66017b4e1d10636c6ae2c&#45;&gt;dir_fdedb0aba14d44ce9d99bc100e026e6a -->
<g id="edge2" class="edge">
<title>dir_87df69f326f66017b4e1d10636c6ae2c&#45;&gt;dir_fdedb0aba14d44ce9d99bc100e026e6a</title>
<path fill="none" stroke="black" d="M73.39,-71.7C77.76,-63.64 83.06,-53.89 87.9,-44.98"/>
<polygon fill="black" stroke="black" points="91.02,-46.56 92.71,-36.1 84.87,-43.22 91.02,-46.56"/>
<g id="a_edge2&#45;headlabel"><a xlink:href="dir_000004_000002.html" target="_top" xlink:title="1">
<text text-anchor="middle" x="91.8" y="-48.58" font-family="Helvetica,sans-Serif" font-size="10.00">1</text>
</a>
</g>
</g>
</g>
</svg>
