<?xml version="1.0" encoding="UTF-8" standalone="no"?>
<!DOCTYPE svg PUBLIC "-//W3C//DTD SVG 1.1//EN"
 "http://www.w3.org/Graphics/SVG/1.1/DTD/svg11.dtd">
<!-- Generated by graphviz version 2.43.0 (0)
 -->
<!-- Title: ktl Pages: 1 -->
<svg width="142pt" height="319pt"
 viewBox="0.00 0.00 142.00 319.00" xmlns="http://www.w3.org/2000/svg" xmlns:xlink="http://www.w3.org/1999/xlink">
<g id="graph0" class="graph" transform="scale(1 1) rotate(0) translate(4 315)">
<title>ktl</title>
<g id="clust1" class="cluster">
<title>clusterdir_68267d1309a1af8e8297ef4c3efbcdba</title>
<g id="a_clust1"><a xlink:href="dir_68267d1309a1af8e8297ef4c3efbcdba.html" target="_top" xlink:title="src">
<polygon fill="#daedff" stroke="#404040" stroke-dasharray="5,2" points="8,-8 8,-303 126,-303 126,-8 8,-8"/>
<text text-anchor="middle" x="67" y="-291" font-family="Helvetica,sans-Serif" font-size="10.00">src</text>
</a>
</g>
</g>
<g id="clust2" class="cluster">
<title>clusterdir_8539e7adb580953cec1d8664997e7c8b</title>
<g id="a_clust2"><a xlink:href="dir_8539e7adb580953cec1d8664997e7c8b.html" target="_top">
<polygon fill="#daedff" stroke="#404040" stroke-width="2" points="16,-80 16,-276 106,-276 106,-80 16,-80"/>
</a>
</g>
</g>
<!-- dir_fdedb0aba14d44ce9d99bc100e026e6a -->
<g id="node1" class="node">
<title>dir_fdedb0aba14d44ce9d99bc100e026e6a</title>
<g id="a_node1"><a xlink:href="dir_fdedb0aba14d44ce9d99bc100e026e6a.html" target="_top" xlink:title="common">
<polygon fill="#4ea9ff" stroke="#404040" points="117.5,-52 58.5,-52 58.5,-16 117.5,-16 117.5,-52"/>
<text text-anchor="middle" x="88" y="-31.5" font-family="Helvetica,sans-Serif" font-size="10.00">common</text>
</a>
</g>
</g>
<!-- dir_8539e7adb580953cec1d8664997e7c8b -->
<g id="node2" class="node">
<title>dir_8539e7adb580953cec1d8664997e7c8b</title>
<text text-anchor="middle" x="71" y="-247.5" font-family="Helvetica,sans-Serif" font-size="10.00">ktl</text>
</g>
<!-- dir_8539e7adb580953cec1d8664997e7c8b&#45;&gt;dir_fdedb0aba14d44ce9d99bc100e026e6a -->
<g id="edge3" class="edge">
<title>dir_8539e7adb580953cec1d8664997e7c8b&#45;&gt;dir_fdedb0aba14d44ce9d99bc100e026e6a</title>
<path fill="none" stroke="black" d="M86.61,-231.77C94.37,-222.03 102.95,-209.18 107,-196 121.03,-150.36 108.13,-94.51 97.82,-62.02"/>
<polygon fill="black" stroke="black" points="101.08,-60.73 94.6,-52.34 94.43,-62.93 101.08,-60.73"/>
<g id="a_edge3&#45;headlabel"><a xlink:href="dir_000014_000003.html" target="_top" xlink:title="11">
<text text-anchor="middle" x="104.9" y="-60.74" font-family="Helvetica,sans-Serif" font-size="10.00">11</text>
</a>
</g>
</g>
<!-- dir_43b3ef48ecd3158a0458a26f5d14dddc -->
<g id="node3" class="node">
<title>dir_43b3ef48ecd3158a0458a26f5d14dddc</title>
<g id="a_node3"><a xlink:href="dir_43b3ef48ecd3158a0458a26f5d14dddc.html" target="_top" xlink:title="audio">
<polygon fill="#4ea9ff" stroke="#404040" points="78,-124 24,-124 24,-88 78,-88 78,-124"/>
<text text-anchor="middle" x="51" y="-103.5" font-family="Helvetica,sans-Serif" font-size="10.00">audio</text>
</a>
</g>
</g>
<!-- dir_8539e7adb580953cec1d8664997e7c8b&#45;&gt;dir_43b3ef48ecd3158a0458a26f5d14dddc -->
<g id="edge1" class="edge">
<title>dir_8539e7adb580953cec1d8664997e7c8b&#45;&gt;dir_43b3ef48ecd3158a0458a26f5d14dddc</title>
<path fill="none" stroke="black" d="M55.39,-231.77C47.63,-222.03 39.05,-209.18 35,-196 28.68,-175.46 33.7,-151.44 39.73,-133.53"/>
<polygon fill="black" stroke="black" points="43.06,-134.61 43.22,-124.02 36.49,-132.2 43.06,-134.61"/>
<g id="a_edge1&#45;headlabel"><a xlink:href="dir_000014_000001.html" target="_top" xlink:title="16">
<text text-anchor="middle" x="44.49" y="-136.47" font-family="Helvetica,sans-Serif" font-size="10.00">16</text>
</a>
</g>
</g>
<!-- dir_becdca43d4913721aef7e816ca4ff296 -->
<g id="node4" class="node">
<title>dir_becdca43d4913721aef7e816ca4ff296</title>
<g id="a_node4"><a xlink:href="dir_becdca43d4913721aef7e816ca4ff296.html" target="_top" xlink:title="models">
<polygon fill="#4ea9ff" stroke="#404040" points="98,-196 44,-196 44,-160 98,-160 98,-196"/>
<text text-anchor="middle" x="71" y="-175.5" font-family="Helvetica,sans-Serif" font-size="10.00">models</text>
</a>
</g>
</g>
<!-- dir_8539e7adb580953cec1d8664997e7c8b&#45;&gt;dir_becdca43d4913721aef7e816ca4ff296 -->
<g id="edge2" class="edge">
<title>dir_8539e7adb580953cec1d8664997e7c8b&#45;&gt;dir_becdca43d4913721aef7e816ca4ff296</title>
<path fill="none" stroke="black" d="M71,-231.7C71,-223.98 71,-214.71 71,-206.11"/>
<polygon fill="black" stroke="black" points="74.5,-206.1 71,-196.1 67.5,-206.1 74.5,-206.1"/>
<g id="a_edge2&#45;headlabel"><a xlink:href="dir_000014_000018.html" target="_top" xlink:title="11">
<text text-anchor="middle" x="77.34" y="-207.2" font-family="Helvetica,sans-Serif" font-size="10.00">11</text>
</a>
</g>
</g>
<!-- dir_43b3ef48ecd3158a0458a26f5d14dddc&#45;&gt;dir_fdedb0aba14d44ce9d99bc100e026e6a -->
<g id="edge4" class="edge">
<title>dir_43b3ef48ecd3158a0458a26f5d14dddc&#45;&gt;dir_fdedb0aba14d44ce9d99bc100e026e6a</title>
<path fill="none" stroke="black" d="M60.15,-87.7C64.4,-79.64 69.56,-69.89 74.27,-60.98"/>
<polygon fill="black" stroke="black" points="77.38,-62.58 78.96,-52.1 71.19,-59.31 77.38,-62.58"/>
<g id="a_edge4&#45;headlabel"><a xlink:href="dir_000001_000003.html" target="_top" xlink:title="4">
<text text-anchor="middle" x="78.21" y="-64.59" font-family="Helvetica,sans-Serif" font-size="10.00">4</text>
</a>
</g>
</g>
<!-- dir_becdca43d4913721aef7e816ca4ff296&#45;&gt;dir_fdedb0aba14d44ce9d99bc100e026e6a -->
<g id="edge6" class="edge">
<title>dir_becdca43d4913721aef7e816ca4ff296&#45;&gt;dir_fdedb0aba14d44ce9d99bc100e026e6a</title>
<path fill="none" stroke="black" d="M77.6,-159.62C81.13,-149.41 85.13,-136.16 87,-124 90.14,-103.51 90.27,-80.05 89.67,-62.37"/>
<polygon fill="black" stroke="black" points="93.16,-62.02 89.23,-52.18 86.17,-62.32 93.16,-62.02"/>
<g id="a_edge6&#45;headlabel"><a xlink:href="dir_000018_000003.html" target="_top" xlink:title="5">
<text text-anchor="middle" x="96.15" y="-62.99" font-family="Helvetica,sans-Serif" font-size="10.00">5</text>
</a>
</g>
</g>
<!-- dir_becdca43d4913721aef7e816ca4ff296&#45;&gt;dir_43b3ef48ecd3158a0458a26f5d14dddc -->
<g id="edge5" class="edge">
<title>dir_becdca43d4913721aef7e816ca4ff296&#45;&gt;dir_43b3ef48ecd3158a0458a26f5d14dddc</title>
<path fill="none" stroke="black" d="M66.06,-159.7C63.83,-151.9 61.15,-142.51 58.67,-133.83"/>
<polygon fill="black" stroke="black" points="62,-132.76 55.89,-124.1 55.27,-134.68 62,-132.76"/>
<g id="a_edge5&#45;headlabel"><a xlink:href="dir_000018_000001.html" target="_top" xlink:title="12">
<text text-anchor="middle" x="65.72" y="-132.93" font-family="Helvetica,sans-Serif" font-size="10.00">12</text>
</a>
</g>
</g>
</g>
</svg>
