<?xml version="1.0" encoding="UTF-8" standalone="no"?>
<!DOCTYPE svg PUBLIC "-//W3C//DTD SVG 1.1//EN"
 "http://www.w3.org/Graphics/SVG/1.1/DTD/svg11.dtd">
<!-- Generated by graphviz version 2.43.0 (0)
 -->
<!-- Title: encoder.hpp Pages: 1 -->
<svg width="1316pt" height="196pt"
 viewBox="0.00 0.00 1315.50 196.00" xmlns="http://www.w3.org/2000/svg" xmlns:xlink="http://www.w3.org/1999/xlink">
<g id="graph0" class="graph" transform="scale(1 1) rotate(0) translate(4 192)">
<title>encoder.hpp</title>
<!-- Node1 -->
<g id="node1" class="node">
<title>Node1</title>
<g id="a_node1"><a xlink:title=" ">
<polygon fill="#bfbfbf" stroke="black" points="648.5,-168.5 648.5,-187.5 724.5,-187.5 724.5,-168.5 648.5,-168.5"/>
<text text-anchor="middle" x="686.5" y="-175.5" font-family="Helvetica,sans-Serif" font-size="10.00">encoder.hpp</text>
</a>
</g>
</g>
<!-- Node2 -->
<g id="node2" class="node">
<title>Node2</title>
<g id="a_node2"><a xlink:href="binary__model_8hpp.html" target="_top" xlink:title=" ">
<polygon fill="none" stroke="black" points="681.5,-112.5 681.5,-131.5 785.5,-131.5 785.5,-112.5 681.5,-112.5"/>
<text text-anchor="middle" x="733.5" y="-119.5" font-family="Helvetica,sans-Serif" font-size="10.00">binary_model.hpp</text>
</a>
</g>
</g>
<!-- Node1&#45;&gt;Node2 -->
<g id="edge1" class="edge">
<title>Node1&#45;&gt;Node2</title>
<path fill="none" stroke="midnightblue" d="M700.92,-160.43C709.16,-150.97 719.15,-139.48 725.88,-131.75"/>
<polygon fill="midnightblue" stroke="midnightblue" points="698.19,-158.24 694.26,-168.08 703.47,-162.84 698.19,-158.24"/>
</g>
<!-- Node9 -->
<g id="node9" class="node">
<title>Node9</title>
<g id="a_node9"><a xlink:href="k1__model_8hpp.html" target="_top" xlink:title=" ">
<polygon fill="none" stroke="black" points="219.5,-112.5 219.5,-131.5 305.5,-131.5 305.5,-112.5 219.5,-112.5"/>
<text text-anchor="middle" x="262.5" y="-119.5" font-family="Helvetica,sans-Serif" font-size="10.00">k1_model.hpp</text>
</a>
</g>
</g>
<!-- Node1&#45;&gt;Node9 -->
<g id="edge9" class="edge">
<title>Node1&#45;&gt;Node9</title>
<path fill="none" stroke="midnightblue" d="M638.55,-170.89C555.3,-160.29 385.3,-138.64 305.58,-128.49"/>
<polygon fill="midnightblue" stroke="midnightblue" points="638.14,-174.37 648.5,-172.16 639.02,-167.42 638.14,-174.37"/>
</g>
<!-- Node11 -->
<g id="node11" class="node">
<title>Node11</title>
<g id="a_node11"><a xlink:href="k1__model_8test_8cpp.html" target="_top" xlink:title=" ">
<polygon fill="none" stroke="black" points="0,-56.5 0,-75.5 107,-75.5 107,-56.5 0,-56.5"/>
<text text-anchor="middle" x="53.5" y="-63.5" font-family="Helvetica,sans-Serif" font-size="10.00">k1_model.test.cpp</text>
</a>
</g>
</g>
<!-- Node1&#45;&gt;Node11 -->
<g id="edge15" class="edge">
<title>Node1&#45;&gt;Node11</title>
<path fill="none" stroke="midnightblue" d="M638.13,-177.15C551.2,-176.37 363.39,-169.97 210.5,-132 156.96,-118.71 97.87,-90.15 69.9,-75.72"/>
<polygon fill="midnightblue" stroke="midnightblue" points="638.19,-180.65 648.22,-177.21 638.24,-173.65 638.19,-180.65"/>
</g>
<!-- Node13 -->
<g id="node13" class="node">
<title>Node13</title>
<g id="a_node13"><a xlink:href="k2__model_8hpp.html" target="_top" xlink:title=" ">
<polygon fill="none" stroke="black" points="529.5,-112.5 529.5,-131.5 615.5,-131.5 615.5,-112.5 529.5,-112.5"/>
<text text-anchor="middle" x="572.5" y="-119.5" font-family="Helvetica,sans-Serif" font-size="10.00">k2_model.hpp</text>
</a>
</g>
</g>
<!-- Node1&#45;&gt;Node13 -->
<g id="edge16" class="edge">
<title>Node1&#45;&gt;Node13</title>
<path fill="none" stroke="midnightblue" d="M659.26,-164.1C637.96,-154.01 608.96,-140.27 590.48,-131.52"/>
<polygon fill="midnightblue" stroke="midnightblue" points="657.9,-167.33 668.44,-168.44 660.9,-161 657.9,-167.33"/>
</g>
<!-- Node14 -->
<g id="node14" class="node">
<title>Node14</title>
<g id="a_node14"><a xlink:href="k2__peak__model_8test_8cpp.html" target="_top" xlink:title=" ">
<polygon fill="none" stroke="black" points="504.5,-56.5 504.5,-75.5 640.5,-75.5 640.5,-56.5 504.5,-56.5"/>
<text text-anchor="middle" x="572.5" y="-63.5" font-family="Helvetica,sans-Serif" font-size="10.00">k2_peak_model.test.cpp</text>
</a>
</g>
</g>
<!-- Node1&#45;&gt;Node14 -->
<g id="edge21" class="edge">
<title>Node1&#45;&gt;Node14</title>
<path fill="none" stroke="midnightblue" d="M671.89,-160.84C659.58,-147.43 641.33,-128.03 624.5,-112 610.67,-98.82 593.81,-84.54 583.12,-75.68"/>
<polygon fill="midnightblue" stroke="midnightblue" points="669.4,-163.3 678.73,-168.33 674.57,-158.59 669.4,-163.3"/>
</g>
<!-- Node15 -->
<g id="node15" class="node">
<title>Node15</title>
<g id="a_node15"><a xlink:href="k3__model_8hpp.html" target="_top" xlink:title=" ">
<polygon fill="none" stroke="black" points="819.5,-112.5 819.5,-131.5 905.5,-131.5 905.5,-112.5 819.5,-112.5"/>
<text text-anchor="middle" x="862.5" y="-119.5" font-family="Helvetica,sans-Serif" font-size="10.00">k3_model.hpp</text>
</a>
</g>
</g>
<!-- Node1&#45;&gt;Node15 -->
<g id="edge22" class="edge">
<title>Node1&#45;&gt;Node15</title>
<path fill="none" stroke="midnightblue" d="M724.19,-165.44C757.37,-155.26 804.93,-140.66 834.74,-131.52"/>
<polygon fill="midnightblue" stroke="midnightblue" points="722.92,-162.16 714.39,-168.44 724.97,-168.86 722.92,-162.16"/>
</g>
<!-- Node16 -->
<g id="node16" class="node">
<title>Node16</title>
<g id="a_node16"><a xlink:href="k3__model_8test_8cpp.html" target="_top" xlink:title=" ">
<polygon fill="none" stroke="black" points="1016,-56.5 1016,-75.5 1123,-75.5 1123,-56.5 1016,-56.5"/>
<text text-anchor="middle" x="1069.5" y="-63.5" font-family="Helvetica,sans-Serif" font-size="10.00">k3_model.test.cpp</text>
</a>
</g>
</g>
<!-- Node1&#45;&gt;Node16 -->
<g id="edge26" class="edge">
<title>Node1&#45;&gt;Node16</title>
<path fill="none" stroke="midnightblue" d="M734.72,-170.38C781.35,-163.31 853.68,-150.54 914.5,-132 966.14,-116.25 1024.09,-89.32 1052.26,-75.59"/>
<polygon fill="midnightblue" stroke="midnightblue" points="733.97,-166.96 724.6,-171.89 735,-173.88 733.97,-166.96"/>
</g>
<!-- Node17 -->
<g id="node17" class="node">
<title>Node17</title>
<g id="a_node17"><a xlink:href="model__tester_8hpp.html" target="_top" xlink:title=" ">
<polygon fill="none" stroke="black" points="347,-112.5 347,-131.5 448,-131.5 448,-112.5 347,-112.5"/>
<text text-anchor="middle" x="397.5" y="-119.5" font-family="Helvetica,sans-Serif" font-size="10.00">model_tester.hpp</text>
</a>
</g>
</g>
<!-- Node1&#45;&gt;Node17 -->
<g id="edge27" class="edge">
<title>Node1&#45;&gt;Node17</title>
<path fill="none" stroke="midnightblue" d="M638.36,-168.01C584.11,-157.87 496.56,-141.51 443.29,-131.56"/>
<polygon fill="midnightblue" stroke="midnightblue" points="637.95,-171.49 648.42,-169.88 639.23,-164.61 637.95,-171.49"/>
</g>
<!-- Node19 -->
<g id="node19" class="node">
<title>Node19</title>
<g id="a_node19"><a xlink:href="testing__model_8hpp.html" target="_top" xlink:title=" ">
<polygon fill="none" stroke="black" points="1073,-112.5 1073,-131.5 1180,-131.5 1180,-112.5 1073,-112.5"/>
<text text-anchor="middle" x="1126.5" y="-119.5" font-family="Helvetica,sans-Serif" font-size="10.00">testing_model.hpp</text>
</a>
</g>
</g>
<!-- Node1&#45;&gt;Node19 -->
<g id="edge30" class="edge">
<title>Node1&#45;&gt;Node19</title>
<path fill="none" stroke="midnightblue" d="M734.93,-171.06C817.86,-160.88 986.41,-140.19 1072.81,-129.59"/>
<polygon fill="midnightblue" stroke="midnightblue" points="734.28,-167.61 724.78,-172.3 735.13,-174.56 734.28,-167.61"/>
</g>
<!-- Node20 -->
<g id="node20" class="node">
<title>Node20</title>
<g id="a_node20"><a xlink:href="testing__model_8test_8cpp.html" target="_top" xlink:title=" ">
<polygon fill="none" stroke="black" points="1179.5,-56.5 1179.5,-75.5 1307.5,-75.5 1307.5,-56.5 1179.5,-56.5"/>
<text text-anchor="middle" x="1243.5" y="-63.5" font-family="Helvetica,sans-Serif" font-size="10.00">testing_model.test.cpp</text>
</a>
</g>
</g>
<!-- Node1&#45;&gt;Node20 -->
<g id="edge34" class="edge">
<title>Node1&#45;&gt;Node20</title>
<path fill="none" stroke="midnightblue" d="M734.95,-177.33C845.21,-177.35 1111.38,-173.01 1189.5,-132 1213.92,-119.18 1231.6,-90.13 1239.26,-75.61"/>
<polygon fill="midnightblue" stroke="midnightblue" points="734.78,-173.83 724.78,-177.32 734.77,-180.83 734.78,-173.83"/>
</g>
<!-- Node3 -->
<g id="node3" class="node">
<title>Node3</title>
<g id="a_node3"><a xlink:href="binary__model_8test_8cpp.html" target="_top" xlink:title=" ">
<polygon fill="none" stroke="black" points="659,-56.5 659,-75.5 784,-75.5 784,-56.5 659,-56.5"/>
<text text-anchor="middle" x="721.5" y="-63.5" font-family="Helvetica,sans-Serif" font-size="10.00">binary_model.test.cpp</text>
</a>
</g>
</g>
<!-- Node2&#45;&gt;Node3 -->
<g id="edge2" class="edge">
<title>Node2&#45;&gt;Node3</title>
<path fill="none" stroke="midnightblue" d="M729.3,-102.1C727.31,-93.14 725.02,-82.86 723.44,-75.75"/>
<polygon fill="midnightblue" stroke="midnightblue" points="725.93,-103.08 731.52,-112.08 732.77,-101.56 725.93,-103.08"/>
</g>
<!-- Node4 -->
<g id="node4" class="node">
<title>Node4</title>
<g id="a_node4"><a xlink:href="translation__layer_8cpp.html" target="_top" xlink:title=" ">
<polygon fill="none" stroke="black" points="753,-0.5 753,-19.5 872,-19.5 872,-0.5 753,-0.5"/>
<text text-anchor="middle" x="812.5" y="-7.5" font-family="Helvetica,sans-Serif" font-size="10.00">translation_layer.cpp</text>
</a>
</g>
</g>
<!-- Node2&#45;&gt;Node4 -->
<g id="edge3" class="edge">
<title>Node2&#45;&gt;Node4</title>
<path fill="none" stroke="midnightblue" d="M759.16,-107.02C771.15,-99.31 784.7,-88.71 793.5,-76 805.68,-58.41 810.15,-32.98 811.71,-19.74"/>
<polygon fill="midnightblue" stroke="midnightblue" points="757.12,-104.16 750.39,-112.35 760.76,-110.15 757.12,-104.16"/>
</g>
<!-- Node5 -->
<g id="node5" class="node">
<title>Node5</title>
<g id="a_node5"><a xlink:href="translation__layer_8hpp.html" target="_top" xlink:title=" ">
<polygon fill="none" stroke="black" points="879,-56.5 879,-75.5 998,-75.5 998,-56.5 879,-56.5"/>
<text text-anchor="middle" x="938.5" y="-63.5" font-family="Helvetica,sans-Serif" font-size="10.00">translation_layer.hpp</text>
</a>
</g>
</g>
<!-- Node2&#45;&gt;Node5 -->
<g id="edge4" class="edge">
<title>Node2&#45;&gt;Node5</title>
<path fill="none" stroke="midnightblue" d="M775.91,-109.83C814.61,-99.63 870.99,-84.78 906.17,-75.52"/>
<polygon fill="midnightblue" stroke="midnightblue" points="774.76,-106.51 765.98,-112.44 776.54,-113.28 774.76,-106.51"/>
</g>
<!-- Node5&#45;&gt;Node4 -->
<g id="edge7" class="edge">
<title>Node5&#45;&gt;Node4</title>
<path fill="none" stroke="midnightblue" d="M909.34,-52.5C885.72,-42.38 853.07,-28.39 832.37,-19.52"/>
<polygon fill="midnightblue" stroke="midnightblue" points="907.96,-55.72 918.53,-56.44 910.72,-49.29 907.96,-55.72"/>
</g>
<!-- Node6 -->
<g id="node6" class="node">
<title>Node6</title>
<g id="a_node6"><a xlink:href="src_2kazoo__connect__server_2main_8cpp.html" target="_top" xlink:title=" ">
<polygon fill="none" stroke="black" points="1128.5,-0.5 1128.5,-19.5 1190.5,-19.5 1190.5,-0.5 1128.5,-0.5"/>
<text text-anchor="middle" x="1159.5" y="-7.5" font-family="Helvetica,sans-Serif" font-size="10.00">main.cpp</text>
</a>
</g>
</g>
<!-- Node5&#45;&gt;Node6 -->
<g id="edge5" class="edge">
<title>Node5&#45;&gt;Node6</title>
<path fill="none" stroke="midnightblue" d="M983.45,-54.02C1026.53,-43.49 1090.42,-27.88 1128.22,-18.64"/>
<polygon fill="midnightblue" stroke="midnightblue" points="982.4,-50.67 973.52,-56.44 984.06,-57.47 982.4,-50.67"/>
</g>
<!-- Node7 -->
<g id="node7" class="node">
<title>Node7</title>
<g id="a_node7"><a xlink:href="src_2main_8cpp.html" target="_top" xlink:title=" ">
<polygon fill="none" stroke="black" points="890.5,-0.5 890.5,-19.5 952.5,-19.5 952.5,-0.5 890.5,-0.5"/>
<text text-anchor="middle" x="921.5" y="-7.5" font-family="Helvetica,sans-Serif" font-size="10.00">main.cpp</text>
</a>
</g>
</g>
<!-- Node5&#45;&gt;Node7 -->
<g id="edge6" class="edge">
<title>Node5&#45;&gt;Node7</title>
<path fill="none" stroke="midnightblue" d="M932.64,-46.4C929.8,-37.36 926.52,-26.94 924.25,-19.75"/>
<polygon fill="midnightblue" stroke="midnightblue" points="929.35,-47.6 935.69,-56.08 936.03,-45.49 929.35,-47.6"/>
</g>
<!-- Node8 -->
<g id="node8" class="node">
<title>Node8</title>
<g id="a_node8"><a xlink:href="translation__layer_8test_8cpp.html" target="_top" xlink:title=" ">
<polygon fill="none" stroke="black" points="970.5,-0.5 970.5,-19.5 1110.5,-19.5 1110.5,-0.5 970.5,-0.5"/>
<text text-anchor="middle" x="1040.5" y="-7.5" font-family="Helvetica,sans-Serif" font-size="10.00">translation_layer.test.cpp</text>
</a>
</g>
</g>
<!-- Node5&#45;&gt;Node8 -->
<g id="edge8" class="edge">
<title>Node5&#45;&gt;Node8</title>
<path fill="none" stroke="midnightblue" d="M963.83,-51.59C982.69,-41.61 1007.88,-28.27 1024.15,-19.65"/>
<polygon fill="midnightblue" stroke="midnightblue" points="962.09,-48.55 954.89,-56.32 965.36,-54.74 962.09,-48.55"/>
</g>
<!-- Node9&#45;&gt;Node4 -->
<g id="edge13" class="edge">
<title>Node9&#45;&gt;Node4</title>
<path fill="none" stroke="midnightblue" d="M254.52,-102.65C249.59,-88.13 246.14,-68.32 257.5,-56 290.58,-20.13 616.61,-12.85 753,-11.37"/>
<polygon fill="midnightblue" stroke="midnightblue" points="251.31,-104.04 258.19,-112.1 257.84,-101.51 251.31,-104.04"/>
</g>
<!-- Node9&#45;&gt;Node5 -->
<g id="edge14" class="edge">
<title>Node9&#45;&gt;Node5</title>
<path fill="none" stroke="midnightblue" d="M315.85,-114.3C323.12,-113.47 330.49,-112.68 337.5,-112 535.37,-92.73 770.58,-77.28 878.71,-70.59"/>
<polygon fill="midnightblue" stroke="midnightblue" points="315.22,-110.85 305.69,-115.48 316.03,-117.8 315.22,-110.85"/>
</g>
<!-- Node10 -->
<g id="node10" class="node">
<title>Node10</title>
<g id="a_node10"><a xlink:href="k1__model_8cpp.html" target="_top" xlink:title=" ">
<polygon fill="none" stroke="black" points="125,-56.5 125,-75.5 210,-75.5 210,-56.5 125,-56.5"/>
<text text-anchor="middle" x="167.5" y="-63.5" font-family="Helvetica,sans-Serif" font-size="10.00">k1_model.cpp</text>
</a>
</g>
</g>
<!-- Node9&#45;&gt;Node10 -->
<g id="edge10" class="edge">
<title>Node9&#45;&gt;Node10</title>
<path fill="none" stroke="midnightblue" d="M238.18,-107.18C220.7,-97.24 197.67,-84.15 182.73,-75.65"/>
<polygon fill="midnightblue" stroke="midnightblue" points="236.81,-110.43 247.24,-112.32 240.27,-104.34 236.81,-110.43"/>
</g>
<!-- Node9&#45;&gt;Node11 -->
<g id="edge11" class="edge">
<title>Node9&#45;&gt;Node11</title>
<path fill="none" stroke="midnightblue" d="M219.52,-109.89C180.05,-99.7 122.4,-84.8 86.46,-75.52"/>
<polygon fill="midnightblue" stroke="midnightblue" points="218.83,-113.33 229.38,-112.44 220.58,-106.55 218.83,-113.33"/>
</g>
<!-- Node12 -->
<g id="node12" class="node">
<title>Node12</title>
<g id="a_node12"><a xlink:href="tests_2ktl__model__scoring_2main_8cpp.html" target="_top" xlink:title=" ">
<polygon fill="none" stroke="black" points="266.5,-56.5 266.5,-75.5 328.5,-75.5 328.5,-56.5 266.5,-56.5"/>
<text text-anchor="middle" x="297.5" y="-63.5" font-family="Helvetica,sans-Serif" font-size="10.00">main.cpp</text>
</a>
</g>
</g>
<!-- Node9&#45;&gt;Node12 -->
<g id="edge12" class="edge">
<title>Node9&#45;&gt;Node12</title>
<path fill="none" stroke="midnightblue" d="M273.8,-103.57C279.82,-94.27 286.97,-83.25 291.83,-75.75"/>
<polygon fill="midnightblue" stroke="midnightblue" points="270.78,-101.79 268.28,-112.08 276.66,-105.6 270.78,-101.79"/>
</g>
<!-- Node13&#45;&gt;Node4 -->
<g id="edge19" class="edge">
<title>Node13&#45;&gt;Node4</title>
<path fill="none" stroke="midnightblue" d="M538.66,-108.61C510.44,-96.43 477.52,-76.71 495.5,-56 528.16,-18.38 670.5,-11.38 752.91,-10.56"/>
<polygon fill="midnightblue" stroke="midnightblue" points="537.39,-111.87 547.97,-112.44 540.06,-105.4 537.39,-111.87"/>
</g>
<!-- Node13&#45;&gt;Node5 -->
<g id="edge20" class="edge">
<title>Node13&#45;&gt;Node5</title>
<path fill="none" stroke="midnightblue" d="M625.62,-113.16C693.58,-103.14 810.83,-85.84 880.88,-75.5"/>
<polygon fill="midnightblue" stroke="midnightblue" points="624.94,-109.72 615.56,-114.65 625.96,-116.65 624.94,-109.72"/>
</g>
<!-- Node13&#45;&gt;Node12 -->
<g id="edge18" class="edge">
<title>Node13&#45;&gt;Node12</title>
<path fill="none" stroke="midnightblue" d="M519.01,-111.26C471.31,-102.46 399.64,-88.94 337.5,-76 334.71,-75.42 331.82,-74.8 328.92,-74.17"/>
<polygon fill="midnightblue" stroke="midnightblue" points="518.64,-114.75 529.1,-113.12 519.9,-107.87 518.64,-114.75"/>
</g>
<!-- Node13&#45;&gt;Node14 -->
<g id="edge17" class="edge">
<title>Node13&#45;&gt;Node14</title>
<path fill="none" stroke="midnightblue" d="M572.5,-101.8C572.5,-92.91 572.5,-82.78 572.5,-75.75"/>
<polygon fill="midnightblue" stroke="midnightblue" points="569,-102.08 572.5,-112.08 576,-102.08 569,-102.08"/>
</g>
<!-- Node15&#45;&gt;Node4 -->
<g id="edge24" class="edge">
<title>Node15&#45;&gt;Node4</title>
<path fill="none" stroke="midnightblue" d="M854.32,-103C843.41,-79 824.53,-37.47 816.41,-19.59"/>
<polygon fill="midnightblue" stroke="midnightblue" points="851.25,-104.71 858.58,-112.37 857.62,-101.82 851.25,-104.71"/>
</g>
<!-- Node15&#45;&gt;Node5 -->
<g id="edge25" class="edge">
<title>Node15&#45;&gt;Node5</title>
<path fill="none" stroke="midnightblue" d="M883.08,-106.38C896.81,-96.62 914.43,-84.11 926.07,-75.83"/>
<polygon fill="midnightblue" stroke="midnightblue" points="880.84,-103.68 874.71,-112.32 884.89,-109.38 880.84,-103.68"/>
</g>
<!-- Node15&#45;&gt;Node16 -->
<g id="edge23" class="edge">
<title>Node15&#45;&gt;Node16</title>
<path fill="none" stroke="midnightblue" d="M905.32,-109.83C944.41,-99.63 1001.33,-84.78 1036.85,-75.52"/>
<polygon fill="midnightblue" stroke="midnightblue" points="904.09,-106.53 895.3,-112.44 905.86,-113.31 904.09,-106.53"/>
</g>
<!-- Node17&#45;&gt;Node12 -->
<g id="edge28" class="edge">
<title>Node17&#45;&gt;Node12</title>
<path fill="none" stroke="midnightblue" d="M372.41,-107.45C353.95,-97.48 329.4,-84.23 313.53,-75.65"/>
<polygon fill="midnightblue" stroke="midnightblue" points="370.97,-110.65 381.43,-112.32 374.3,-104.49 370.97,-110.65"/>
</g>
<!-- Node18 -->
<g id="node18" class="node">
<title>Node18</title>
<g id="a_node18"><a xlink:href="model__tester_8cpp.html" target="_top" xlink:title=" ">
<polygon fill="none" stroke="black" points="347,-56.5 347,-75.5 448,-75.5 448,-56.5 347,-56.5"/>
<text text-anchor="middle" x="397.5" y="-63.5" font-family="Helvetica,sans-Serif" font-size="10.00">model_tester.cpp</text>
</a>
</g>
</g>
<!-- Node17&#45;&gt;Node18 -->
<g id="edge29" class="edge">
<title>Node17&#45;&gt;Node18</title>
<path fill="none" stroke="midnightblue" d="M397.5,-101.8C397.5,-92.91 397.5,-82.78 397.5,-75.75"/>
<polygon fill="midnightblue" stroke="midnightblue" points="394,-102.08 397.5,-112.08 401,-102.08 394,-102.08"/>
</g>
<!-- Node19&#45;&gt;Node4 -->
<g id="edge32" class="edge">
<title>Node19&#45;&gt;Node4</title>
<path fill="none" stroke="midnightblue" d="M1134.67,-102.83C1139.78,-88.42 1143.51,-68.66 1132.5,-56 1130.37,-53.55 964.21,-31.14 872.2,-18.9"/>
<polygon fill="midnightblue" stroke="midnightblue" points="1131.39,-101.62 1130.9,-112.2 1137.88,-104.23 1131.39,-101.62"/>
</g>
<!-- Node19&#45;&gt;Node5 -->
<g id="edge33" class="edge">
<title>Node19&#45;&gt;Node5</title>
<path fill="none" stroke="midnightblue" d="M1086.7,-109.57C1051.23,-99.38 1000.13,-84.7 968.15,-75.52"/>
<polygon fill="midnightblue" stroke="midnightblue" points="1086.13,-113.05 1096.71,-112.44 1088.07,-106.32 1086.13,-113.05"/>
</g>
<!-- Node19&#45;&gt;Node20 -->
<g id="edge31" class="edge">
<title>Node19&#45;&gt;Node20</title>
<path fill="none" stroke="midnightblue" d="M1154.16,-108.23C1176.05,-98.13 1206,-84.31 1225.05,-75.52"/>
<polygon fill="midnightblue" stroke="midnightblue" points="1152.65,-105.08 1145.04,-112.44 1155.59,-111.43 1152.65,-105.08"/>
</g>
</g>
</svg>
