<?xml version="1.0" encoding="UTF-8" standalone="no"?>
<!DOCTYPE svg PUBLIC "-//W3C//DTD SVG 1.1//EN"
 "http://www.w3.org/Graphics/SVG/1.1/DTD/svg11.dtd">
<!-- Generated by graphviz version 2.43.0 (0)
 -->
<!-- Title: encoder_context.hpp Pages: 1 -->
<svg width="1292pt" height="364pt"
 viewBox="0.00 0.00 1291.96 364.00" xmlns="http://www.w3.org/2000/svg" xmlns:xlink="http://www.w3.org/1999/xlink">
<g id="graph0" class="graph" transform="scale(1 1) rotate(0) translate(4 360)">
<title>encoder_context.hpp</title>
<!-- Node1 -->
<g id="node1" class="node">
<title>Node1</title>
<g id="a_node1"><a xlink:title=" ">
<polygon fill="#bfbfbf" stroke="black" points="427.96,-336.5 427.96,-355.5 546.96,-355.5 546.96,-336.5 427.96,-336.5"/>
<text text-anchor="middle" x="487.46" y="-343.5" font-family="Helvetica,sans-Serif" font-size="10.00">encoder_context.hpp</text>
</a>
</g>
</g>
<!-- Node2 -->
<g id="node2" class="node">
<title>Node2</title>
<g id="a_node2"><a xlink:href="encoder_8hpp.html" target="_top" xlink:title=" ">
<polygon fill="none" stroke="black" points="483.46,-168.5 483.46,-187.5 559.46,-187.5 559.46,-168.5 483.46,-168.5"/>
<text text-anchor="middle" x="521.46" y="-175.5" font-family="Helvetica,sans-Serif" font-size="10.00">encoder.hpp</text>
</a>
</g>
</g>
<!-- Node1&#45;&gt;Node2 -->
<g id="edge1" class="edge">
<title>Node1&#45;&gt;Node2</title>
<path fill="none" stroke="midnightblue" d="M491.37,-325.93C498.74,-289.92 514.45,-213.23 519.71,-187.57"/>
<polygon fill="midnightblue" stroke="midnightblue" points="487.87,-325.58 489.29,-336.08 494.72,-326.98 487.87,-325.58"/>
</g>
<!-- Node22 -->
<g id="node22" class="node">
<title>Node22</title>
<g id="a_node22"><a xlink:href="symbol__model_8hpp.html" target="_top" xlink:title=" ">
<polygon fill="none" stroke="black" points="617.46,-280.5 617.46,-299.5 727.46,-299.5 727.46,-280.5 617.46,-280.5"/>
<text text-anchor="middle" x="672.46" y="-287.5" font-family="Helvetica,sans-Serif" font-size="10.00">symbol_model.hpp</text>
</a>
</g>
</g>
<!-- Node1&#45;&gt;Node22 -->
<g id="edge36" class="edge">
<title>Node1&#45;&gt;Node22</title>
<path fill="none" stroke="midnightblue" d="M526.63,-333.57C561.53,-323.38 611.81,-308.7 643.28,-299.52"/>
<polygon fill="midnightblue" stroke="midnightblue" points="525.39,-330.28 516.77,-336.44 527.36,-337 525.39,-330.28"/>
</g>
<!-- Node3 -->
<g id="node3" class="node">
<title>Node3</title>
<g id="a_node3"><a xlink:href="binary__model_8hpp.html" target="_top" xlink:title=" ">
<polygon fill="none" stroke="black" points="910.46,-112.5 910.46,-131.5 1014.46,-131.5 1014.46,-112.5 910.46,-112.5"/>
<text text-anchor="middle" x="962.46" y="-119.5" font-family="Helvetica,sans-Serif" font-size="10.00">binary_model.hpp</text>
</a>
</g>
</g>
<!-- Node2&#45;&gt;Node3 -->
<g id="edge2" class="edge">
<title>Node2&#45;&gt;Node3</title>
<path fill="none" stroke="midnightblue" d="M569.68,-171.74C641.89,-163.76 782.36,-147.83 901.46,-132 904.33,-131.62 907.27,-131.22 910.23,-130.81"/>
<polygon fill="midnightblue" stroke="midnightblue" points="569.09,-168.28 559.53,-172.86 569.85,-175.24 569.09,-168.28"/>
</g>
<!-- Node10 -->
<g id="node10" class="node">
<title>Node10</title>
<g id="a_node10"><a xlink:href="k1__model_8hpp.html" target="_top" xlink:title=" ">
<polygon fill="none" stroke="black" points="686.46,-112.5 686.46,-131.5 772.46,-131.5 772.46,-112.5 686.46,-112.5"/>
<text text-anchor="middle" x="729.46" y="-119.5" font-family="Helvetica,sans-Serif" font-size="10.00">k1_model.hpp</text>
</a>
</g>
</g>
<!-- Node2&#45;&gt;Node10 -->
<g id="edge10" class="edge">
<title>Node2&#45;&gt;Node10</title>
<path fill="none" stroke="midnightblue" d="M564.24,-165.89C603.52,-155.7 660.89,-140.8 696.66,-131.52"/>
<polygon fill="midnightblue" stroke="midnightblue" points="563.22,-162.54 554.42,-168.44 564.98,-169.32 563.22,-162.54"/>
</g>
<!-- Node12 -->
<g id="node12" class="node">
<title>Node12</title>
<g id="a_node12"><a xlink:href="k1__model_8test_8cpp.html" target="_top" xlink:title=" ">
<polygon fill="none" stroke="black" points="653.96,-56.5 653.96,-75.5 760.96,-75.5 760.96,-56.5 653.96,-56.5"/>
<text text-anchor="middle" x="707.46" y="-63.5" font-family="Helvetica,sans-Serif" font-size="10.00">k1_model.test.cpp</text>
</a>
</g>
</g>
<!-- Node2&#45;&gt;Node12 -->
<g id="edge16" class="edge">
<title>Node2&#45;&gt;Node12</title>
<path fill="none" stroke="midnightblue" d="M531.51,-159.46C540.71,-144.85 555.58,-124.5 573.46,-112 599.81,-93.58 634.28,-82.23 661.66,-75.54"/>
<polygon fill="midnightblue" stroke="midnightblue" points="528.48,-157.71 526.32,-168.08 534.47,-161.32 528.48,-157.71"/>
</g>
<!-- Node14 -->
<g id="node14" class="node">
<title>Node14</title>
<g id="a_node14"><a xlink:href="k2__model_8hpp.html" target="_top" xlink:title=" ">
<polygon fill="none" stroke="black" points="582.46,-112.5 582.46,-131.5 668.46,-131.5 668.46,-112.5 582.46,-112.5"/>
<text text-anchor="middle" x="625.46" y="-119.5" font-family="Helvetica,sans-Serif" font-size="10.00">k2_model.hpp</text>
</a>
</g>
</g>
<!-- Node2&#45;&gt;Node14 -->
<g id="edge17" class="edge">
<title>Node2&#45;&gt;Node14</title>
<path fill="none" stroke="midnightblue" d="M547.29,-163.59C566.52,-153.61 592.21,-140.27 608.79,-131.65"/>
<polygon fill="midnightblue" stroke="midnightblue" points="545.43,-160.61 538.17,-168.32 548.66,-166.82 545.43,-160.61"/>
</g>
<!-- Node15 -->
<g id="node15" class="node">
<title>Node15</title>
<g id="a_node15"><a xlink:href="k2__peak__model_8test_8cpp.html" target="_top" xlink:title=" ">
<polygon fill="none" stroke="black" points="323.46,-56.5 323.46,-75.5 459.46,-75.5 459.46,-56.5 323.46,-56.5"/>
<text text-anchor="middle" x="391.46" y="-63.5" font-family="Helvetica,sans-Serif" font-size="10.00">k2_peak_model.test.cpp</text>
</a>
</g>
</g>
<!-- Node2&#45;&gt;Node15 -->
<g id="edge22" class="edge">
<title>Node2&#45;&gt;Node15</title>
<path fill="none" stroke="midnightblue" d="M517.12,-158.56C512.92,-144.27 505.28,-124.81 492.46,-112 474.27,-93.82 447.45,-82.34 426.02,-75.53"/>
<polygon fill="midnightblue" stroke="midnightblue" points="513.75,-159.5 519.69,-168.28 520.52,-157.72 513.75,-159.5"/>
</g>
<!-- Node16 -->
<g id="node16" class="node">
<title>Node16</title>
<g id="a_node16"><a xlink:href="k3__model_8hpp.html" target="_top" xlink:title=" ">
<polygon fill="none" stroke="black" points="200.46,-112.5 200.46,-131.5 286.46,-131.5 286.46,-112.5 200.46,-112.5"/>
<text text-anchor="middle" x="243.46" y="-119.5" font-family="Helvetica,sans-Serif" font-size="10.00">k3_model.hpp</text>
</a>
</g>
</g>
<!-- Node2&#45;&gt;Node16 -->
<g id="edge23" class="edge">
<title>Node2&#45;&gt;Node16</title>
<path fill="none" stroke="midnightblue" d="M473.29,-167.64C420.65,-157.42 337.09,-141.19 286.54,-131.37"/>
<polygon fill="midnightblue" stroke="midnightblue" points="472.91,-171.13 483.39,-169.6 474.24,-164.26 472.91,-171.13"/>
</g>
<!-- Node17 -->
<g id="node17" class="node">
<title>Node17</title>
<g id="a_node17"><a xlink:href="k3__model_8test_8cpp.html" target="_top" xlink:title=" ">
<polygon fill="none" stroke="black" points="13.96,-56.5 13.96,-75.5 120.96,-75.5 120.96,-56.5 13.96,-56.5"/>
<text text-anchor="middle" x="67.46" y="-63.5" font-family="Helvetica,sans-Serif" font-size="10.00">k3_model.test.cpp</text>
</a>
</g>
</g>
<!-- Node2&#45;&gt;Node17 -->
<g id="edge27" class="edge">
<title>Node2&#45;&gt;Node17</title>
<path fill="none" stroke="midnightblue" d="M473.25,-168.9C434.68,-161.6 379.6,-149.35 333.46,-132 315.6,-125.28 313.46,-118.36 295.46,-112 237.64,-91.57 168.1,-79.53 121.15,-73.13"/>
<polygon fill="midnightblue" stroke="midnightblue" points="472.71,-172.36 483.18,-170.74 473.98,-165.47 472.71,-172.36"/>
</g>
<!-- Node18 -->
<g id="node18" class="node">
<title>Node18</title>
<g id="a_node18"><a xlink:href="model__tester_8hpp.html" target="_top" xlink:title=" ">
<polygon fill="none" stroke="black" points="790.96,-112.5 790.96,-131.5 891.96,-131.5 891.96,-112.5 790.96,-112.5"/>
<text text-anchor="middle" x="841.46" y="-119.5" font-family="Helvetica,sans-Serif" font-size="10.00">model_tester.hpp</text>
</a>
</g>
</g>
<!-- Node2&#45;&gt;Node18 -->
<g id="edge28" class="edge">
<title>Node2&#45;&gt;Node18</title>
<path fill="none" stroke="midnightblue" d="M569.66,-168.87C629.3,-158.8 730.38,-141.74 791.03,-131.51"/>
<polygon fill="midnightblue" stroke="midnightblue" points="569.02,-165.42 559.74,-170.54 570.19,-172.33 569.02,-165.42"/>
</g>
<!-- Node20 -->
<g id="node20" class="node">
<title>Node20</title>
<g id="a_node20"><a xlink:href="testing__model_8hpp.html" target="_top" xlink:title=" ">
<polygon fill="none" stroke="black" points="342.96,-112.5 342.96,-131.5 449.96,-131.5 449.96,-112.5 342.96,-112.5"/>
<text text-anchor="middle" x="396.46" y="-119.5" font-family="Helvetica,sans-Serif" font-size="10.00">testing_model.hpp</text>
</a>
</g>
</g>
<!-- Node2&#45;&gt;Node20 -->
<g id="edge31" class="edge">
<title>Node2&#45;&gt;Node20</title>
<path fill="none" stroke="midnightblue" d="M492.22,-164.37C468.81,-154.26 436.62,-140.35 416.18,-131.52"/>
<polygon fill="midnightblue" stroke="midnightblue" points="491.09,-167.69 501.65,-168.44 493.86,-161.26 491.09,-167.69"/>
</g>
<!-- Node21 -->
<g id="node21" class="node">
<title>Node21</title>
<g id="a_node21"><a xlink:href="testing__model_8test_8cpp.html" target="_top" xlink:title=" ">
<polygon fill="none" stroke="black" points="177.46,-56.5 177.46,-75.5 305.46,-75.5 305.46,-56.5 177.46,-56.5"/>
<text text-anchor="middle" x="241.46" y="-63.5" font-family="Helvetica,sans-Serif" font-size="10.00">testing_model.test.cpp</text>
</a>
</g>
</g>
<!-- Node2&#45;&gt;Node21 -->
<g id="edge35" class="edge">
<title>Node2&#45;&gt;Node21</title>
<path fill="none" stroke="midnightblue" d="M509.53,-159.83C498.17,-144.82 479.67,-123.66 458.46,-112 432.08,-97.49 356.86,-83.91 302.37,-75.54"/>
<polygon fill="midnightblue" stroke="midnightblue" points="506.94,-162.21 515.65,-168.24 512.6,-158.09 506.94,-162.21"/>
</g>
<!-- Node4 -->
<g id="node4" class="node">
<title>Node4</title>
<g id="a_node4"><a xlink:href="binary__model_8test_8cpp.html" target="_top" xlink:title=" ">
<polygon fill="none" stroke="black" points="1158.96,-56.5 1158.96,-75.5 1283.96,-75.5 1283.96,-56.5 1158.96,-56.5"/>
<text text-anchor="middle" x="1221.46" y="-63.5" font-family="Helvetica,sans-Serif" font-size="10.00">binary_model.test.cpp</text>
</a>
</g>
</g>
<!-- Node3&#45;&gt;Node4 -->
<g id="edge3" class="edge">
<title>Node3&#45;&gt;Node4</title>
<path fill="none" stroke="midnightblue" d="M1013.56,-110.35C1062.51,-100.14 1135.42,-84.94 1180.61,-75.52"/>
<polygon fill="midnightblue" stroke="midnightblue" points="1012.58,-106.98 1003.5,-112.44 1014,-113.83 1012.58,-106.98"/>
</g>
<!-- Node5 -->
<g id="node5" class="node">
<title>Node5</title>
<g id="a_node5"><a xlink:href="translation__layer_8cpp.html" target="_top" xlink:title=" ">
<polygon fill="none" stroke="black" points="586.96,-0.5 586.96,-19.5 705.96,-19.5 705.96,-0.5 586.96,-0.5"/>
<text text-anchor="middle" x="646.46" y="-7.5" font-family="Helvetica,sans-Serif" font-size="10.00">translation_layer.cpp</text>
</a>
</g>
</g>
<!-- Node3&#45;&gt;Node5 -->
<g id="edge4" class="edge">
<title>Node3&#45;&gt;Node5</title>
<path fill="none" stroke="midnightblue" d="M1022.61,-110.36C1059.02,-102.56 1100.49,-90.77 1111.46,-76 1116.76,-68.86 1117.44,-62.58 1111.46,-56 1084.71,-26.54 825.7,-15.8 706.26,-12.4"/>
<polygon fill="midnightblue" stroke="midnightblue" points="1021.58,-107 1012.5,-112.46 1023,-113.86 1021.58,-107"/>
</g>
<!-- Node6 -->
<g id="node6" class="node">
<title>Node6</title>
<g id="a_node6"><a xlink:href="translation__layer_8hpp.html" target="_top" xlink:title=" ">
<polygon fill="none" stroke="black" points="477.96,-56.5 477.96,-75.5 596.96,-75.5 596.96,-56.5 477.96,-56.5"/>
<text text-anchor="middle" x="537.46" y="-63.5" font-family="Helvetica,sans-Serif" font-size="10.00">translation_layer.hpp</text>
</a>
</g>
</g>
<!-- Node3&#45;&gt;Node6 -->
<g id="edge5" class="edge">
<title>Node3&#45;&gt;Node6</title>
<path fill="none" stroke="midnightblue" d="M900.02,-111.83C787.07,-96.6 667.13,-82.18 597.1,-73.94"/>
<polygon fill="midnightblue" stroke="midnightblue" points="899.85,-115.34 910.23,-113.21 900.79,-108.4 899.85,-115.34"/>
</g>
<!-- Node6&#45;&gt;Node5 -->
<g id="edge8" class="edge">
<title>Node6&#45;&gt;Node5</title>
<path fill="none" stroke="midnightblue" d="M563.98,-51.86C584.19,-41.85 611.45,-28.35 628.99,-19.65"/>
<polygon fill="midnightblue" stroke="midnightblue" points="562.38,-48.75 554.97,-56.32 565.49,-55.02 562.38,-48.75"/>
</g>
<!-- Node7 -->
<g id="node7" class="node">
<title>Node7</title>
<g id="a_node7"><a xlink:href="src_2kazoo__connect__server_2main_8cpp.html" target="_top" xlink:title=" ">
<polygon fill="none" stroke="black" points="506.46,-0.5 506.46,-19.5 568.46,-19.5 568.46,-0.5 506.46,-0.5"/>
<text text-anchor="middle" x="537.46" y="-7.5" font-family="Helvetica,sans-Serif" font-size="10.00">main.cpp</text>
</a>
</g>
</g>
<!-- Node6&#45;&gt;Node7 -->
<g id="edge6" class="edge">
<title>Node6&#45;&gt;Node7</title>
<path fill="none" stroke="midnightblue" d="M537.46,-45.8C537.46,-36.91 537.46,-26.78 537.46,-19.75"/>
<polygon fill="midnightblue" stroke="midnightblue" points="533.96,-46.08 537.46,-56.08 540.96,-46.08 533.96,-46.08"/>
</g>
<!-- Node8 -->
<g id="node8" class="node">
<title>Node8</title>
<g id="a_node8"><a xlink:href="src_2main_8cpp.html" target="_top" xlink:title=" ">
<polygon fill="none" stroke="black" points="268.46,-0.5 268.46,-19.5 330.46,-19.5 330.46,-0.5 268.46,-0.5"/>
<text text-anchor="middle" x="299.46" y="-7.5" font-family="Helvetica,sans-Serif" font-size="10.00">main.cpp</text>
</a>
</g>
</g>
<!-- Node6&#45;&gt;Node8 -->
<g id="edge7" class="edge">
<title>Node6&#45;&gt;Node8</title>
<path fill="none" stroke="midnightblue" d="M489.72,-54.17C442.33,-43.42 371.07,-27.25 330.55,-18.05"/>
<polygon fill="midnightblue" stroke="midnightblue" points="489.22,-57.64 499.75,-56.44 490.77,-50.82 489.22,-57.64"/>
</g>
<!-- Node9 -->
<g id="node9" class="node">
<title>Node9</title>
<g id="a_node9"><a xlink:href="translation__layer_8test_8cpp.html" target="_top" xlink:title=" ">
<polygon fill="none" stroke="black" points="348.46,-0.5 348.46,-19.5 488.46,-19.5 488.46,-0.5 348.46,-0.5"/>
<text text-anchor="middle" x="418.46" y="-7.5" font-family="Helvetica,sans-Serif" font-size="10.00">translation_layer.test.cpp</text>
</a>
</g>
</g>
<!-- Node6&#45;&gt;Node9 -->
<g id="edge9" class="edge">
<title>Node6&#45;&gt;Node9</title>
<path fill="none" stroke="midnightblue" d="M509.32,-52.23C487.07,-42.13 456.61,-28.31 437.23,-19.52"/>
<polygon fill="midnightblue" stroke="midnightblue" points="508.05,-55.5 518.61,-56.44 510.95,-49.12 508.05,-55.5"/>
</g>
<!-- Node10&#45;&gt;Node5 -->
<g id="edge14" class="edge">
<title>Node10&#45;&gt;Node5</title>
<path fill="none" stroke="midnightblue" d="M749.64,-106.09C765.18,-92.74 782.2,-72.75 770.46,-56 755.74,-35 730.16,-23.76 706.05,-17.76"/>
<polygon fill="midnightblue" stroke="midnightblue" points="747.38,-103.41 741.8,-112.41 751.78,-108.86 747.38,-103.41"/>
</g>
<!-- Node10&#45;&gt;Node6 -->
<g id="edge15" class="edge">
<title>Node10&#45;&gt;Node6</title>
<path fill="none" stroke="midnightblue" d="M689.28,-109.7C653.04,-99.51 600.55,-84.74 567.74,-75.52"/>
<polygon fill="midnightblue" stroke="midnightblue" points="688.46,-113.11 699.04,-112.44 690.36,-106.37 688.46,-113.11"/>
</g>
<!-- Node11 -->
<g id="node11" class="node">
<title>Node11</title>
<g id="a_node11"><a xlink:href="k1__model_8cpp.html" target="_top" xlink:title=" ">
<polygon fill="none" stroke="black" points="897.96,-56.5 897.96,-75.5 982.96,-75.5 982.96,-56.5 897.96,-56.5"/>
<text text-anchor="middle" x="940.46" y="-63.5" font-family="Helvetica,sans-Serif" font-size="10.00">k1_model.cpp</text>
</a>
</g>
</g>
<!-- Node10&#45;&gt;Node11 -->
<g id="edge11" class="edge">
<title>Node10&#45;&gt;Node11</title>
<path fill="none" stroke="midnightblue" d="M772.6,-109.96C812.46,-99.76 870.82,-84.82 907.18,-75.52"/>
<polygon fill="midnightblue" stroke="midnightblue" points="771.71,-106.57 762.89,-112.44 773.45,-113.35 771.71,-106.57"/>
</g>
<!-- Node10&#45;&gt;Node12 -->
<g id="edge12" class="edge">
<title>Node10&#45;&gt;Node12</title>
<path fill="none" stroke="midnightblue" d="M722,-102.69C718.29,-93.59 713.99,-83.01 711.03,-75.75"/>
<polygon fill="midnightblue" stroke="midnightblue" points="718.81,-104.14 725.83,-112.08 725.3,-101.5 718.81,-104.14"/>
</g>
<!-- Node13 -->
<g id="node13" class="node">
<title>Node13</title>
<g id="a_node13"><a xlink:href="tests_2ktl__model__scoring_2main_8cpp.html" target="_top" xlink:title=" ">
<polygon fill="none" stroke="black" points="817.46,-56.5 817.46,-75.5 879.46,-75.5 879.46,-56.5 817.46,-56.5"/>
<text text-anchor="middle" x="848.46" y="-63.5" font-family="Helvetica,sans-Serif" font-size="10.00">main.cpp</text>
</a>
</g>
</g>
<!-- Node10&#45;&gt;Node13 -->
<g id="edge13" class="edge">
<title>Node10&#45;&gt;Node13</title>
<path fill="none" stroke="midnightblue" d="M757.6,-108.23C779.86,-98.13 810.32,-84.31 829.69,-75.52"/>
<polygon fill="midnightblue" stroke="midnightblue" points="755.98,-105.12 748.32,-112.44 758.87,-111.5 755.98,-105.12"/>
</g>
<!-- Node14&#45;&gt;Node5 -->
<g id="edge20" class="edge">
<title>Node14&#45;&gt;Node5</title>
<path fill="none" stroke="midnightblue" d="M629.02,-102.35C633.62,-78.25 641.44,-37.31 644.82,-19.59"/>
<polygon fill="midnightblue" stroke="midnightblue" points="625.55,-101.89 627.11,-112.37 632.42,-103.2 625.55,-101.89"/>
</g>
<!-- Node14&#45;&gt;Node6 -->
<g id="edge21" class="edge">
<title>Node14&#45;&gt;Node6</title>
<path fill="none" stroke="midnightblue" d="M602.48,-106.9C586.35,-97 565.28,-84.07 551.56,-75.65"/>
<polygon fill="midnightblue" stroke="midnightblue" points="600.97,-110.08 611.32,-112.32 604.63,-104.11 600.97,-110.08"/>
</g>
<!-- Node14&#45;&gt;Node13 -->
<g id="edge19" class="edge">
<title>Node14&#45;&gt;Node13</title>
<path fill="none" stroke="midnightblue" d="M670.57,-110.08C714.18,-99.52 779.08,-83.8 817.25,-74.56"/>
<polygon fill="midnightblue" stroke="midnightblue" points="669.69,-106.69 660.8,-112.44 671.34,-113.49 669.69,-106.69"/>
</g>
<!-- Node14&#45;&gt;Node15 -->
<g id="edge18" class="edge">
<title>Node14&#45;&gt;Node15</title>
<path fill="none" stroke="midnightblue" d="M578.46,-110.15C534.24,-99.95 468.94,-84.88 428.37,-75.52"/>
<polygon fill="midnightblue" stroke="midnightblue" points="577.85,-113.61 588.38,-112.44 579.43,-106.78 577.85,-113.61"/>
</g>
<!-- Node16&#45;&gt;Node5 -->
<g id="edge25" class="edge">
<title>Node16&#45;&gt;Node5</title>
<path fill="none" stroke="midnightblue" d="M190.04,-118.63C126.93,-114.59 27.57,-103.86 4.46,-76 -1.21,-69.16 -1.62,-62.48 4.46,-56 48.13,-9.5 513.96,-26.13 577.46,-20 580.47,-19.71 583.54,-19.39 586.65,-19.05"/>
<polygon fill="midnightblue" stroke="midnightblue" points="190.03,-122.14 200.22,-119.25 190.45,-115.15 190.03,-122.14"/>
</g>
<!-- Node16&#45;&gt;Node6 -->
<g id="edge26" class="edge">
<title>Node16&#45;&gt;Node6</title>
<path fill="none" stroke="midnightblue" d="M296.5,-111.26C351.92,-101.08 438,-85.27 490.88,-75.56"/>
<polygon fill="midnightblue" stroke="midnightblue" points="295.73,-107.84 286.53,-113.09 296.99,-114.73 295.73,-107.84"/>
</g>
<!-- Node16&#45;&gt;Node17 -->
<g id="edge24" class="edge">
<title>Node16&#45;&gt;Node17</title>
<path fill="none" stroke="midnightblue" d="M205.77,-109.44C172.59,-99.26 125.03,-84.66 95.22,-75.52"/>
<polygon fill="midnightblue" stroke="midnightblue" points="204.99,-112.86 215.57,-112.44 207.04,-106.16 204.99,-112.86"/>
</g>
<!-- Node18&#45;&gt;Node13 -->
<g id="edge29" class="edge">
<title>Node18&#45;&gt;Node13</title>
<path fill="none" stroke="midnightblue" d="M843.91,-102.1C845.07,-93.14 846.41,-82.86 847.33,-75.75"/>
<polygon fill="midnightblue" stroke="midnightblue" points="840.43,-101.72 842.62,-112.08 847.37,-102.62 840.43,-101.72"/>
</g>
<!-- Node19 -->
<g id="node19" class="node">
<title>Node19</title>
<g id="a_node19"><a xlink:href="model__tester_8cpp.html" target="_top" xlink:title=" ">
<polygon fill="none" stroke="black" points="1000.96,-56.5 1000.96,-75.5 1101.96,-75.5 1101.96,-56.5 1000.96,-56.5"/>
<text text-anchor="middle" x="1051.46" y="-63.5" font-family="Helvetica,sans-Serif" font-size="10.00">model_tester.cpp</text>
</a>
</g>
</g>
<!-- Node18&#45;&gt;Node19 -->
<g id="edge30" class="edge">
<title>Node18&#45;&gt;Node19</title>
<path fill="none" stroke="midnightblue" d="M884.65,-109.89C924.31,-99.7 982.23,-84.8 1018.34,-75.52"/>
<polygon fill="midnightblue" stroke="midnightblue" points="883.55,-106.56 874.74,-112.44 885.29,-113.34 883.55,-106.56"/>
</g>
<!-- Node20&#45;&gt;Node5 -->
<g id="edge33" class="edge">
<title>Node20&#45;&gt;Node5</title>
<path fill="none" stroke="midnightblue" d="M332.78,-112.61C269.03,-103.56 178.93,-88.74 168.46,-76 162.82,-69.13 162.46,-62.56 168.46,-56 199.27,-22.36 532.11,-24.95 577.46,-20 580.46,-19.67 583.54,-19.32 586.64,-18.96"/>
<polygon fill="midnightblue" stroke="midnightblue" points="332.37,-116.09 342.76,-114.01 333.35,-109.16 332.37,-116.09"/>
</g>
<!-- Node20&#45;&gt;Node6 -->
<g id="edge34" class="edge">
<title>Node20&#45;&gt;Node6</title>
<path fill="none" stroke="midnightblue" d="M428.39,-108.77C454.88,-98.63 491.85,-84.47 515.22,-75.52"/>
<polygon fill="midnightblue" stroke="midnightblue" points="426.89,-105.6 418.8,-112.44 429.39,-112.14 426.89,-105.6"/>
</g>
<!-- Node20&#45;&gt;Node21 -->
<g id="edge32" class="edge">
<title>Node20&#45;&gt;Node21</title>
<path fill="none" stroke="midnightblue" d="M362.13,-109.04C332.96,-98.88 291.82,-84.55 265.91,-75.52"/>
<polygon fill="midnightblue" stroke="midnightblue" points="361.31,-112.46 371.9,-112.44 363.61,-105.85 361.31,-112.46"/>
</g>
<!-- Node22&#45;&gt;Node3 -->
<g id="edge37" class="edge">
<title>Node22&#45;&gt;Node3</title>
<path fill="none" stroke="midnightblue" d="M737.64,-282.28C796.79,-275.14 878.73,-262.35 905.46,-244 945.09,-216.8 957.9,-154.47 961.35,-131.61"/>
<polygon fill="midnightblue" stroke="midnightblue" points="737.14,-278.81 727.62,-283.46 737.96,-285.77 737.14,-278.81"/>
</g>
<!-- Node22&#45;&gt;Node10 -->
<g id="edge38" class="edge">
<title>Node22&#45;&gt;Node10</title>
<path fill="none" stroke="midnightblue" d="M737.53,-281.13C793.93,-270.48 872.31,-245.64 910.46,-188 915.37,-180.59 915.94,-175 910.46,-168 901.91,-157.06 823.58,-140.58 772.81,-130.9"/>
<polygon fill="midnightblue" stroke="midnightblue" points="736.85,-277.69 727.62,-282.9 738.08,-284.58 736.85,-277.69"/>
</g>
<!-- Node22&#45;&gt;Node14 -->
<g id="edge39" class="edge">
<title>Node22&#45;&gt;Node14</title>
<path fill="none" stroke="midnightblue" d="M641.44,-275.67C628.47,-268.35 614.74,-257.89 607.46,-244 587.45,-205.81 610.49,-152.1 620.89,-131.5"/>
<polygon fill="midnightblue" stroke="midnightblue" points="640.16,-278.95 650.65,-280.45 643.39,-272.73 640.16,-278.95"/>
</g>
<!-- Node22&#45;&gt;Node16 -->
<g id="edge40" class="edge">
<title>Node22&#45;&gt;Node16</title>
<path fill="none" stroke="midnightblue" d="M619.53,-278.24C583.73,-270.32 535.66,-258.45 494.46,-244 437.78,-224.11 425.58,-214.05 371.46,-188 331.04,-168.54 284.18,-144.31 259.92,-131.64"/>
<polygon fill="midnightblue" stroke="midnightblue" points="619.23,-281.76 629.75,-280.46 620.72,-274.92 619.23,-281.76"/>
</g>
<!-- Node22&#45;&gt;Node18 -->
<g id="edge41" class="edge">
<title>Node22&#45;&gt;Node18</title>
<path fill="none" stroke="midnightblue" d="M737.89,-287.11C803.19,-281.06 897.71,-259.69 925.46,-188 928.67,-179.71 930.03,-175.63 925.46,-168 914.41,-149.55 892.92,-138.23 874.45,-131.56"/>
<polygon fill="midnightblue" stroke="midnightblue" points="737.35,-283.64 727.67,-287.95 737.93,-290.62 737.35,-283.64"/>
</g>
<!-- Node22&#45;&gt;Node20 -->
<g id="edge52" class="edge">
<title>Node22&#45;&gt;Node20</title>
<path fill="none" stroke="midnightblue" d="M627.87,-277.74C577.97,-263.41 496.73,-234.74 440.46,-188 421.17,-171.98 406.88,-145.41 400.37,-131.73"/>
<polygon fill="midnightblue" stroke="midnightblue" points="627.15,-281.17 637.72,-280.5 629.04,-274.43 627.15,-281.17"/>
</g>
<!-- Node23 -->
<g id="node23" class="node">
<title>Node23</title>
<g id="a_node23"><a xlink:href="symbol__stream_8hpp.html" target="_top" xlink:title=" ">
<polygon fill="none" stroke="black" points="615.96,-224.5 615.96,-243.5 728.96,-243.5 728.96,-224.5 615.96,-224.5"/>
<text text-anchor="middle" x="672.46" y="-231.5" font-family="Helvetica,sans-Serif" font-size="10.00">symbol_stream.hpp</text>
</a>
</g>
</g>
<!-- Node22&#45;&gt;Node23 -->
<g id="edge42" class="edge">
<title>Node22&#45;&gt;Node23</title>
<path fill="none" stroke="midnightblue" d="M672.46,-269.8C672.46,-260.91 672.46,-250.78 672.46,-243.75"/>
<polygon fill="midnightblue" stroke="midnightblue" points="668.96,-270.08 672.46,-280.08 675.96,-270.08 668.96,-270.08"/>
</g>
<!-- Node24 -->
<g id="node24" class="node">
<title>Node24</title>
<g id="a_node24"><a xlink:href="symbol__stream_8test_8cpp.html" target="_top" xlink:title=" ">
<polygon fill="none" stroke="black" points="767.46,-168.5 767.46,-187.5 901.46,-187.5 901.46,-168.5 767.46,-168.5"/>
<text text-anchor="middle" x="834.46" y="-175.5" font-family="Helvetica,sans-Serif" font-size="10.00">symbol_stream.test.cpp</text>
</a>
</g>
</g>
<!-- Node22&#45;&gt;Node24 -->
<g id="edge51" class="edge">
<title>Node22&#45;&gt;Node24</title>
<path fill="none" stroke="midnightblue" d="M693.5,-274.71C727.64,-251.53 794.06,-206.43 821.81,-187.59"/>
<polygon fill="midnightblue" stroke="midnightblue" points="691.48,-271.86 685.17,-280.37 695.41,-277.65 691.48,-271.86"/>
</g>
<!-- Node23&#45;&gt;Node2 -->
<g id="edge45" class="edge">
<title>Node23&#45;&gt;Node2</title>
<path fill="none" stroke="midnightblue" d="M639.02,-221.04C610.6,-210.88 570.52,-196.55 545.28,-187.52"/>
<polygon fill="midnightblue" stroke="midnightblue" points="637.94,-224.37 648.53,-224.44 640.3,-217.78 637.94,-224.37"/>
</g>
<!-- Node23&#45;&gt;Node3 -->
<g id="edge43" class="edge">
<title>Node23&#45;&gt;Node3</title>
<path fill="none" stroke="midnightblue" d="M682.08,-215.31C691.21,-200.28 706.37,-179.37 725.46,-168 741.14,-158.66 845.28,-141.19 910.19,-130.98"/>
<polygon fill="midnightblue" stroke="midnightblue" points="678.92,-213.77 676.96,-224.19 684.99,-217.27 678.92,-213.77"/>
</g>
<!-- Node23&#45;&gt;Node4 -->
<g id="edge44" class="edge">
<title>Node23&#45;&gt;Node4</title>
<path fill="none" stroke="midnightblue" d="M690.21,-217.86C710.8,-200.62 743.79,-174.05 758.46,-168 868.34,-122.69 907.63,-158.65 1023.46,-132 1089.04,-116.91 1163.85,-89.44 1199.86,-75.54"/>
<polygon fill="midnightblue" stroke="midnightblue" points="687.87,-215.25 682.49,-224.38 692.39,-220.61 687.87,-215.25"/>
</g>
<!-- Node23&#45;&gt;Node10 -->
<g id="edge46" class="edge">
<title>Node23&#45;&gt;Node10</title>
<path fill="none" stroke="midnightblue" d="M674.19,-214.05C676.04,-200.57 679.81,-182.38 687.46,-168 695.19,-153.47 708.82,-140.14 718.45,-131.82"/>
<polygon fill="midnightblue" stroke="midnightblue" points="670.71,-213.75 673.05,-224.08 677.66,-214.54 670.71,-213.75"/>
</g>
<!-- Node23&#45;&gt;Node14 -->
<g id="edge47" class="edge">
<title>Node23&#45;&gt;Node14</title>
<path fill="none" stroke="midnightblue" d="M662.76,-215.23C658.45,-207.04 653.47,-197.14 649.46,-188 640.77,-168.17 632.43,-144.09 628.25,-131.54"/>
<polygon fill="midnightblue" stroke="midnightblue" points="659.75,-217.02 667.56,-224.19 665.92,-213.72 659.75,-217.02"/>
</g>
<!-- Node23&#45;&gt;Node16 -->
<g id="edge48" class="edge">
<title>Node23&#45;&gt;Node16</title>
<path fill="none" stroke="midnightblue" d="M608.1,-222.78C561.26,-214.79 496.5,-202.62 440.46,-188 376.34,-171.28 302.62,-145.01 266.23,-131.56"/>
<polygon fill="midnightblue" stroke="midnightblue" points="607.67,-226.26 618.11,-224.47 608.84,-219.35 607.67,-226.26"/>
</g>
<!-- Node23&#45;&gt;Node20 -->
<g id="edge50" class="edge">
<title>Node23&#45;&gt;Node20</title>
<path fill="none" stroke="midnightblue" d="M605.79,-225.81C566.09,-219.62 515.6,-208.33 474.46,-188 445.07,-173.47 417.21,-145.74 404.17,-131.66"/>
<polygon fill="midnightblue" stroke="midnightblue" points="605.5,-229.3 615.9,-227.31 606.52,-222.38 605.5,-229.3"/>
</g>
<!-- Node23&#45;&gt;Node24 -->
<g id="edge49" class="edge">
<title>Node23&#45;&gt;Node24</title>
<path fill="none" stroke="midnightblue" d="M707.94,-221.17C738.45,-211 781.71,-196.59 808.91,-187.52"/>
<polygon fill="midnightblue" stroke="midnightblue" points="706.51,-217.96 698.13,-224.44 708.72,-224.6 706.51,-217.96"/>
</g>
</g>
</svg>
