<?xml version="1.0" encoding="UTF-8" standalone="no"?>
<!DOCTYPE svg PUBLIC "-//W3C//DTD SVG 1.1//EN"
 "http://www.w3.org/Graphics/SVG/1.1/DTD/svg11.dtd">
<!-- Generated by graphviz version 2.43.0 (0)
 -->
<!-- Title: encoder.hpp Pages: 1 -->
<svg width="1603pt" height="308pt"
 viewBox="0.00 0.00 1603.00 308.00" xmlns="http://www.w3.org/2000/svg" xmlns:xlink="http://www.w3.org/1999/xlink">
<g id="graph0" class="graph" transform="scale(1 1) rotate(0) translate(4 304)">
<title>encoder.hpp</title>
<!-- Node1 -->
<g id="node1" class="node">
<title>Node1</title>
<g id="a_node1"><a xlink:title=" ">
<polygon fill="#bfbfbf" stroke="black" points="743,-280.5 743,-299.5 819,-299.5 819,-280.5 743,-280.5"/>
<text text-anchor="middle" x="781" y="-287.5" font-family="Helvetica,sans-Serif" font-size="10.00">encoder.hpp</text>
</a>
</g>
</g>
<!-- Node2 -->
<g id="node2" class="node">
<title>Node2</title>
<g id="a_node2"><a xlink:title=" ">
<polygon fill="none" stroke="#bfbfbf" points="651,-56.5 651,-75.5 691,-75.5 691,-56.5 651,-56.5"/>
<text text-anchor="middle" x="671" y="-63.5" font-family="Helvetica,sans-Serif" font-size="10.00">span</text>
</a>
</g>
</g>
<!-- Node1&#45;&gt;Node2 -->
<g id="edge1" class="edge">
<title>Node1&#45;&gt;Node2</title>
<path fill="none" stroke="midnightblue" d="M742.86,-288.72C654.3,-286.58 429.94,-272.54 268,-188 236.24,-171.42 224,-164.98 210,-132 206.53,-123.82 204.03,-118.58 210,-112 238.97,-80.07 542.93,-70.06 640.81,-67.65"/>
<polygon fill="midnightblue" stroke="midnightblue" points="641.01,-71.14 650.93,-67.41 640.85,-64.15 641.01,-71.14"/>
</g>
<!-- Node3 -->
<g id="node3" class="node">
<title>Node3</title>
<g id="a_node3"><a xlink:href="audio__channel_8hpp.html" target="_top" xlink:title=" ">
<polygon fill="none" stroke="black" points="921,-112.5 921,-131.5 1075,-131.5 1075,-112.5 921,-112.5"/>
<text text-anchor="middle" x="998" y="-119.5" font-family="Helvetica,sans-Serif" font-size="10.00">ktl/audio/audio_channel.hpp</text>
</a>
</g>
</g>
<!-- Node1&#45;&gt;Node3 -->
<g id="edge2" class="edge">
<title>Node1&#45;&gt;Node3</title>
<path fill="none" stroke="midnightblue" d="M806.46,-280.4C844.81,-266.35 917.82,-235.22 964,-188 977.06,-174.65 986.31,-155.27 991.83,-141.15"/>
<polygon fill="midnightblue" stroke="midnightblue" points="995.19,-142.15 995.33,-131.56 988.62,-139.75 995.19,-142.15"/>
</g>
<!-- Node10 -->
<g id="node10" class="node">
<title>Node10</title>
<g id="a_node10"><a xlink:href="kazoo__pcm_8hpp.html" target="_top" xlink:title=" ">
<polygon fill="none" stroke="black" points="1457,-112.5 1457,-131.5 1595,-131.5 1595,-112.5 1457,-112.5"/>
<text text-anchor="middle" x="1526" y="-119.5" font-family="Helvetica,sans-Serif" font-size="10.00">ktl/audio/kazoo_pcm.hpp</text>
</a>
</g>
</g>
<!-- Node1&#45;&gt;Node10 -->
<g id="edge10" class="edge">
<title>Node1&#45;&gt;Node10</title>
<path fill="none" stroke="midnightblue" d="M819.29,-284.32C910.85,-272.65 1149.22,-239.46 1343,-188 1398.1,-173.37 1460.26,-149.7 1496.1,-135.33"/>
<polygon fill="midnightblue" stroke="midnightblue" points="1497.53,-138.52 1505.49,-131.53 1494.91,-132.04 1497.53,-138.52"/>
</g>
<!-- Node11 -->
<g id="node11" class="node">
<title>Node11</title>
<g id="a_node11"><a xlink:href="encoder__context_8hpp.html" target="_top" xlink:title=" ">
<polygon fill="none" stroke="black" points="0,-112.5 0,-131.5 134,-131.5 134,-112.5 0,-112.5"/>
<text text-anchor="middle" x="67" y="-119.5" font-family="Helvetica,sans-Serif" font-size="10.00">ktl/encoder_context.hpp</text>
</a>
</g>
</g>
<!-- Node1&#45;&gt;Node11 -->
<g id="edge13" class="edge">
<title>Node1&#45;&gt;Node11</title>
<path fill="none" stroke="midnightblue" d="M742.79,-288.22C613.76,-285.34 199.39,-273.83 148,-244 108.05,-220.81 83.86,-169.07 73.29,-141.36"/>
<polygon fill="midnightblue" stroke="midnightblue" points="76.49,-139.92 69.79,-131.71 69.91,-142.31 76.49,-139.92"/>
</g>
<!-- Node13 -->
<g id="node13" class="node">
<title>Node13</title>
<g id="a_node13"><a xlink:href="symbol__stream_8hpp.html" target="_top" xlink:title=" ">
<polygon fill="none" stroke="black" points="716.5,-224.5 716.5,-243.5 845.5,-243.5 845.5,-224.5 716.5,-224.5"/>
<text text-anchor="middle" x="781" y="-231.5" font-family="Helvetica,sans-Serif" font-size="10.00">ktl/symbol_stream.hpp</text>
</a>
</g>
</g>
<!-- Node1&#45;&gt;Node13 -->
<g id="edge15" class="edge">
<title>Node1&#45;&gt;Node13</title>
<path fill="none" stroke="midnightblue" d="M781,-280.08C781,-273.01 781,-262.86 781,-253.99"/>
<polygon fill="midnightblue" stroke="midnightblue" points="784.5,-253.75 781,-243.75 777.5,-253.75 784.5,-253.75"/>
</g>
<!-- Node3&#45;&gt;Node2 -->
<g id="edge6" class="edge">
<title>Node3&#45;&gt;Node2</title>
<path fill="none" stroke="midnightblue" d="M920.84,-112.6C862.8,-105.53 781.23,-94.01 701.41,-76.03"/>
<polygon fill="midnightblue" stroke="midnightblue" points="701.7,-72.51 691.18,-73.69 700.14,-79.33 701.7,-72.51"/>
</g>
<!-- Node4 -->
<g id="node4" class="node">
<title>Node4</title>
<g id="a_node4"><a xlink:title=" ">
<polygon fill="none" stroke="#bfbfbf" points="1308,-56.5 1308,-75.5 1350,-75.5 1350,-56.5 1308,-56.5"/>
<text text-anchor="middle" x="1329" y="-63.5" font-family="Helvetica,sans-Serif" font-size="10.00">array</text>
</a>
</g>
</g>
<!-- Node3&#45;&gt;Node4 -->
<g id="edge3" class="edge">
<title>Node3&#45;&gt;Node4</title>
<path fill="none" stroke="midnightblue" d="M1050.45,-112.44C1119.98,-101.1 1240.5,-81.44 1297.45,-72.15"/>
<polygon fill="midnightblue" stroke="midnightblue" points="1298.34,-75.55 1307.64,-70.48 1297.21,-68.64 1298.34,-75.55"/>
</g>
<!-- Node5 -->
<g id="node5" class="node">
<title>Node5</title>
<g id="a_node5"><a xlink:title=" ">
<polygon fill="none" stroke="#bfbfbf" points="709,-56.5 709,-75.5 759,-75.5 759,-56.5 709,-56.5"/>
<text text-anchor="middle" x="734" y="-63.5" font-family="Helvetica,sans-Serif" font-size="10.00">cstdint</text>
</a>
</g>
</g>
<!-- Node3&#45;&gt;Node5 -->
<g id="edge4" class="edge">
<title>Node3&#45;&gt;Node5</title>
<path fill="none" stroke="midnightblue" d="M956.17,-112.44C904.56,-101.89 817.73,-84.13 769.32,-74.22"/>
<polygon fill="midnightblue" stroke="midnightblue" points="769.81,-70.75 759.31,-72.18 768.41,-77.61 769.81,-70.75"/>
</g>
<!-- Node6 -->
<g id="node6" class="node">
<title>Node6</title>
<g id="a_node6"><a xlink:title=" ">
<polygon fill="none" stroke="#bfbfbf" points="1065.5,-56.5 1065.5,-75.5 1112.5,-75.5 1112.5,-56.5 1065.5,-56.5"/>
<text text-anchor="middle" x="1089" y="-63.5" font-family="Helvetica,sans-Serif" font-size="10.00">deque</text>
</a>
</g>
</g>
<!-- Node3&#45;&gt;Node6 -->
<g id="edge5" class="edge">
<title>Node3&#45;&gt;Node6</title>
<path fill="none" stroke="midnightblue" d="M1012.62,-112.32C1026.95,-103.82 1049.01,-90.73 1065.75,-80.8"/>
<polygon fill="midnightblue" stroke="midnightblue" points="1067.6,-83.77 1074.42,-75.65 1064.03,-77.75 1067.6,-83.77"/>
</g>
<!-- Node7 -->
<g id="node7" class="node">
<title>Node7</title>
<g id="a_node7"><a xlink:title=" ">
<polygon fill="none" stroke="#bfbfbf" points="1130.5,-56.5 1130.5,-75.5 1177.5,-75.5 1177.5,-56.5 1130.5,-56.5"/>
<text text-anchor="middle" x="1154" y="-63.5" font-family="Helvetica,sans-Serif" font-size="10.00">vector</text>
</a>
</g>
</g>
<!-- Node3&#45;&gt;Node7 -->
<g id="edge7" class="edge">
<title>Node3&#45;&gt;Node7</title>
<path fill="none" stroke="midnightblue" d="M1022.72,-112.44C1049.16,-103.29 1091.24,-88.73 1120.61,-78.56"/>
<polygon fill="midnightblue" stroke="midnightblue" points="1122.11,-81.74 1130.42,-75.16 1119.82,-75.13 1122.11,-81.74"/>
</g>
<!-- Node8 -->
<g id="node8" class="node">
<title>Node8</title>
<g id="a_node8"><a xlink:href="assert_8hpp.html" target="_top" xlink:title=" ">
<polygon fill="none" stroke="black" points="836.5,-56.5 836.5,-75.5 949.5,-75.5 949.5,-56.5 836.5,-56.5"/>
<text text-anchor="middle" x="893" y="-63.5" font-family="Helvetica,sans-Serif" font-size="10.00">common/assert.hpp</text>
</a>
</g>
</g>
<!-- Node3&#45;&gt;Node8 -->
<g id="edge8" class="edge">
<title>Node3&#45;&gt;Node8</title>
<path fill="none" stroke="midnightblue" d="M981.13,-112.32C964.29,-103.66 938.19,-90.24 918.76,-80.25"/>
<polygon fill="midnightblue" stroke="midnightblue" points="920.32,-77.12 909.83,-75.65 917.12,-83.34 920.32,-77.12"/>
</g>
<!-- Node9 -->
<g id="node9" class="node">
<title>Node9</title>
<g id="a_node9"><a xlink:title=" ">
<polygon fill="none" stroke="#bfbfbf" points="871,-0.5 871,-19.5 915,-19.5 915,-0.5 871,-0.5"/>
<text text-anchor="middle" x="893" y="-7.5" font-family="Helvetica,sans-Serif" font-size="10.00">string</text>
</a>
</g>
</g>
<!-- Node8&#45;&gt;Node9 -->
<g id="edge9" class="edge">
<title>Node8&#45;&gt;Node9</title>
<path fill="none" stroke="midnightblue" d="M893,-56.08C893,-49.01 893,-38.86 893,-29.99"/>
<polygon fill="midnightblue" stroke="midnightblue" points="896.5,-29.75 893,-19.75 889.5,-29.75 896.5,-29.75"/>
</g>
<!-- Node10&#45;&gt;Node4 -->
<g id="edge11" class="edge">
<title>Node10&#45;&gt;Node4</title>
<path fill="none" stroke="midnightblue" d="M1494.78,-112.44C1457.79,-102.3 1396.55,-85.52 1359.76,-75.43"/>
<polygon fill="midnightblue" stroke="midnightblue" points="1360.64,-72.04 1350.07,-72.78 1358.79,-78.8 1360.64,-72.04"/>
</g>
<!-- Node10&#45;&gt;Node5 -->
<g id="edge12" class="edge">
<title>Node10&#45;&gt;Node5</title>
<path fill="none" stroke="midnightblue" d="M1456.99,-117.3C1331.51,-110.4 1057.61,-94.58 827,-76 807.99,-74.47 786.82,-72.44 769.48,-70.7"/>
<polygon fill="midnightblue" stroke="midnightblue" points="769.54,-67.19 759.24,-69.66 768.84,-74.16 769.54,-67.19"/>
</g>
<!-- Node12 -->
<g id="node12" class="node">
<title>Node12</title>
<g id="a_node12"><a xlink:title=" ">
<polygon fill="none" stroke="#bfbfbf" points="338,-56.5 338,-75.5 394,-75.5 394,-56.5 338,-56.5"/>
<text text-anchor="middle" x="366" y="-63.5" font-family="Helvetica,sans-Serif" font-size="10.00">optional</text>
</a>
</g>
</g>
<!-- Node11&#45;&gt;Node12 -->
<g id="edge14" class="edge">
<title>Node11&#45;&gt;Node12</title>
<path fill="none" stroke="midnightblue" d="M114.38,-112.44C173.47,-101.77 273.34,-83.73 327.8,-73.9"/>
<polygon fill="midnightblue" stroke="midnightblue" points="328.52,-77.33 337.74,-72.1 327.28,-70.44 328.52,-77.33"/>
</g>
<!-- Node13&#45;&gt;Node4 -->
<g id="edge17" class="edge">
<title>Node13&#45;&gt;Node4</title>
<path fill="none" stroke="midnightblue" d="M845.8,-232.32C967.82,-230.24 1226.8,-221.85 1309,-188 1344.89,-173.22 1359.56,-167.16 1376,-132 1384.84,-113.09 1367.22,-94.05 1351.09,-81.5"/>
<polygon fill="midnightblue" stroke="midnightblue" points="1353.09,-78.63 1342.94,-75.57 1348.97,-84.29 1353.09,-78.63"/>
</g>
<!-- Node13&#45;&gt;Node5 -->
<g id="edge20" class="edge">
<title>Node13&#45;&gt;Node5</title>
<path fill="none" stroke="midnightblue" d="M716.44,-232.55C580.3,-229.95 271.95,-214.85 219,-132 162.63,-43.8 570.58,-91.09 698.73,-75.66"/>
<polygon fill="midnightblue" stroke="midnightblue" points="699.46,-79.09 708.86,-74.21 698.47,-72.16 699.46,-79.09"/>
</g>
<!-- Node13&#45;&gt;Node6 -->
<g id="edge21" class="edge">
<title>Node13&#45;&gt;Node6</title>
<path fill="none" stroke="midnightblue" d="M845.51,-231.36C978.11,-226.47 1273.9,-207.18 1334,-132 1375.63,-79.92 1428.01,-143.77 1122.76,-76.22"/>
<polygon fill="midnightblue" stroke="midnightblue" points="1123.22,-72.73 1112.69,-73.97 1121.69,-79.56 1123.22,-72.73"/>
</g>
<!-- Node13&#45;&gt;Node7 -->
<g id="edge24" class="edge">
<title>Node13&#45;&gt;Node7</title>
<path fill="none" stroke="midnightblue" d="M845.75,-233.31C985.99,-232.3 1309.31,-220.26 1360,-132 1364.43,-124.29 1365.57,-118.92 1360,-112 1338.79,-85.66 1240.88,-73.9 1188.04,-69.39"/>
<polygon fill="midnightblue" stroke="midnightblue" points="1188.05,-65.88 1177.8,-68.56 1187.49,-72.86 1188.05,-65.88"/>
</g>
<!-- Node14 -->
<g id="node14" class="node">
<title>Node14</title>
<g id="a_node14"><a xlink:title=" ">
<polygon fill="none" stroke="#bfbfbf" points="749,-168.5 749,-187.5 813,-187.5 813,-168.5 749,-168.5"/>
<text text-anchor="middle" x="781" y="-175.5" font-family="Helvetica,sans-Serif" font-size="10.00">algorithm</text>
</a>
</g>
</g>
<!-- Node13&#45;&gt;Node14 -->
<g id="edge16" class="edge">
<title>Node13&#45;&gt;Node14</title>
<path fill="none" stroke="midnightblue" d="M781,-224.08C781,-217.01 781,-206.86 781,-197.99"/>
<polygon fill="midnightblue" stroke="midnightblue" points="784.5,-197.75 781,-187.75 777.5,-197.75 784.5,-197.75"/>
</g>
<!-- Node15 -->
<g id="node15" class="node">
<title>Node15</title>
<g id="a_node15"><a xlink:title=" ">
<polygon fill="none" stroke="#bfbfbf" points="1281,-112.5 1281,-131.5 1325,-131.5 1325,-112.5 1281,-112.5"/>
<text text-anchor="middle" x="1303" y="-119.5" font-family="Helvetica,sans-Serif" font-size="10.00">bitset</text>
</a>
</g>
</g>
<!-- Node13&#45;&gt;Node15 -->
<g id="edge18" class="edge">
<title>Node13&#45;&gt;Node15</title>
<path fill="none" stroke="midnightblue" d="M829.03,-224.44C915.53,-208.73 1103.34,-173.33 1270.73,-132.17"/>
<polygon fill="midnightblue" stroke="midnightblue" points="1271.84,-135.5 1280.71,-129.7 1270.16,-128.7 1271.84,-135.5"/>
</g>
<!-- Node16 -->
<g id="node16" class="node">
<title>Node16</title>
<g id="a_node16"><a xlink:title=" ">
<polygon fill="none" stroke="#bfbfbf" points="703.5,-112.5 703.5,-131.5 750.5,-131.5 750.5,-112.5 703.5,-112.5"/>
<text text-anchor="middle" x="727" y="-119.5" font-family="Helvetica,sans-Serif" font-size="10.00">cmath</text>
</a>
</g>
</g>
<!-- Node13&#45;&gt;Node16 -->
<g id="edge19" class="edge">
<title>Node13&#45;&gt;Node16</title>
<path fill="none" stroke="midnightblue" d="M770.16,-224.18C760.69,-215.86 747.34,-202.52 740,-188 732.7,-173.56 729.49,-155.37 728.09,-141.91"/>
<polygon fill="midnightblue" stroke="midnightblue" points="731.58,-141.58 727.29,-131.9 724.6,-142.15 731.58,-141.58"/>
</g>
<!-- Node17 -->
<g id="node17" class="node">
<title>Node17</title>
<g id="a_node17"><a xlink:title=" ">
<polygon fill="none" stroke="#bfbfbf" points="531,-112.5 531,-131.5 569,-131.5 569,-112.5 531,-112.5"/>
<text text-anchor="middle" x="550" y="-119.5" font-family="Helvetica,sans-Serif" font-size="10.00">map</text>
</a>
</g>
</g>
<!-- Node13&#45;&gt;Node17 -->
<g id="edge22" class="edge">
<title>Node13&#45;&gt;Node17</title>
<path fill="none" stroke="midnightblue" d="M716.06,-229.05C677.71,-224.03 629.82,-212.82 594,-188 577.07,-176.27 564.8,-155.74 557.58,-140.88"/>
<polygon fill="midnightblue" stroke="midnightblue" points="560.72,-139.34 553.4,-131.68 554.35,-142.24 560.72,-139.34"/>
</g>
<!-- Node18 -->
<g id="node18" class="node">
<title>Node18</title>
<g id="a_node18"><a xlink:title=" ">
<polygon fill="none" stroke="#bfbfbf" points="1207,-112.5 1207,-131.5 1263,-131.5 1263,-112.5 1207,-112.5"/>
<text text-anchor="middle" x="1235" y="-119.5" font-family="Helvetica,sans-Serif" font-size="10.00">sstream</text>
</a>
</g>
</g>
<!-- Node13&#45;&gt;Node18 -->
<g id="edge23" class="edge">
<title>Node13&#45;&gt;Node18</title>
<path fill="none" stroke="midnightblue" d="M826.08,-224.47C863.56,-216.77 918.01,-204.18 964,-188 983.88,-181.01 986.96,-174.53 1007,-168 1041.69,-156.69 1141.15,-138.9 1196.55,-129.43"/>
<polygon fill="midnightblue" stroke="midnightblue" points="1197.42,-132.84 1206.69,-127.71 1196.24,-125.94 1197.42,-132.84"/>
</g>
<!-- Node19 -->
<g id="node19" class="node">
<title>Node19</title>
<g id="a_node19"><a xlink:href="binary__stream_8hpp.html" target="_top" xlink:title=" ">
<polygon fill="none" stroke="black" points="831,-168.5 831,-187.5 955,-187.5 955,-168.5 831,-168.5"/>
<text text-anchor="middle" x="893" y="-175.5" font-family="Helvetica,sans-Serif" font-size="10.00">ktl/binary_stream.hpp</text>
</a>
</g>
</g>
<!-- Node13&#45;&gt;Node19 -->
<g id="edge25" class="edge">
<title>Node13&#45;&gt;Node19</title>
<path fill="none" stroke="midnightblue" d="M798.99,-224.32C817.04,-215.62 845.05,-202.12 865.8,-192.11"/>
<polygon fill="midnightblue" stroke="midnightblue" points="867.56,-195.15 875.05,-187.65 864.52,-188.84 867.56,-195.15"/>
</g>
<!-- Node21 -->
<g id="node21" class="node">
<title>Node21</title>
<g id="a_node21"><a xlink:href="i__symbol__stream_8hpp.html" target="_top" xlink:title=" ">
<polygon fill="none" stroke="black" points="228.5,-112.5 228.5,-131.5 365.5,-131.5 365.5,-112.5 228.5,-112.5"/>
<text text-anchor="middle" x="297" y="-119.5" font-family="Helvetica,sans-Serif" font-size="10.00">ktl/i_symbol_stream.hpp</text>
</a>
</g>
</g>
<!-- Node13&#45;&gt;Node21 -->
<g id="edge38" class="edge">
<title>Node13&#45;&gt;Node21</title>
<path fill="none" stroke="midnightblue" d="M716.38,-230.43C617.56,-225.73 434.01,-213.77 374,-188 348.5,-177.05 325.04,-154.71 310.88,-139.31"/>
<polygon fill="midnightblue" stroke="midnightblue" points="313.27,-136.73 304.02,-131.58 308.04,-141.38 313.27,-136.73"/>
</g>
<!-- Node22 -->
<g id="node22" class="node">
<title>Node22</title>
<g id="a_node22"><a xlink:href="symbol__model_8hpp.html" target="_top" xlink:title=" ">
<polygon fill="none" stroke="black" points="383,-168.5 383,-187.5 547,-187.5 547,-168.5 383,-168.5"/>
<text text-anchor="middle" x="465" y="-175.5" font-family="Helvetica,sans-Serif" font-size="10.00">ktl/models/symbol_model.hpp</text>
</a>
</g>
</g>
<!-- Node13&#45;&gt;Node22 -->
<g id="edge40" class="edge">
<title>Node13&#45;&gt;Node22</title>
<path fill="none" stroke="midnightblue" d="M730.93,-224.44C674.99,-214.89 584.49,-199.42 524.86,-189.23"/>
<polygon fill="midnightblue" stroke="midnightblue" points="525.28,-185.75 514.84,-187.52 524.1,-192.65 525.28,-185.75"/>
</g>
<!-- Node24 -->
<g id="node24" class="node">
<title>Node24</title>
<g id="a_node24"><a xlink:href="symbol_8hpp.html" target="_top" xlink:title=" ">
<polygon fill="none" stroke="black" points="603.5,-168.5 603.5,-187.5 692.5,-187.5 692.5,-168.5 603.5,-168.5"/>
<text text-anchor="middle" x="648" y="-175.5" font-family="Helvetica,sans-Serif" font-size="10.00">ktl/symbol.hpp</text>
</a>
</g>
</g>
<!-- Node13&#45;&gt;Node24 -->
<g id="edge49" class="edge">
<title>Node13&#45;&gt;Node24</title>
<path fill="none" stroke="midnightblue" d="M759.93,-224.44C737.94,-215.52 703.27,-201.44 678.34,-191.32"/>
<polygon fill="midnightblue" stroke="midnightblue" points="679.56,-188.04 668.98,-187.52 676.92,-194.52 679.56,-188.04"/>
</g>
<!-- Node19&#45;&gt;Node2 -->
<g id="edge34" class="edge">
<title>Node19&#45;&gt;Node2</title>
<path fill="none" stroke="midnightblue" d="M881.51,-168.3C863.42,-154.9 826.87,-128.99 793,-112 776.5,-103.73 731.31,-87.66 700.8,-77.14"/>
<polygon fill="midnightblue" stroke="midnightblue" points="701.68,-73.74 691.09,-73.8 699.41,-80.36 701.68,-73.74"/>
</g>
<!-- Node19&#45;&gt;Node4 -->
<g id="edge26" class="edge">
<title>Node19&#45;&gt;Node4</title>
<path fill="none" stroke="midnightblue" d="M948.03,-168.44C995.93,-160.52 1067.04,-147.63 1128,-132 1189.28,-116.29 1259.23,-92.24 1298.35,-78.22"/>
<polygon fill="midnightblue" stroke="midnightblue" points="1299.62,-81.49 1307.84,-74.8 1297.24,-74.9 1299.62,-81.49"/>
</g>
<!-- Node19&#45;&gt;Node5 -->
<g id="edge29" class="edge">
<title>Node19&#45;&gt;Node5</title>
<path fill="none" stroke="midnightblue" d="M886.58,-168.43C876.15,-154.98 854.33,-128.71 831,-112 811.76,-98.22 787.64,-87 768.26,-79.22"/>
<polygon fill="midnightblue" stroke="midnightblue" points="769.48,-75.94 758.89,-75.57 766.94,-82.46 769.48,-75.94"/>
</g>
<!-- Node19&#45;&gt;Node6 -->
<g id="edge30" class="edge">
<title>Node19&#45;&gt;Node6</title>
<path fill="none" stroke="midnightblue" d="M942.37,-168.47C995.82,-158.76 1074.72,-142.84 1084,-132 1094.69,-119.52 1094.86,-100.29 1093.01,-85.98"/>
<polygon fill="midnightblue" stroke="midnightblue" points="1096.4,-85.04 1091.25,-75.78 1089.5,-86.23 1096.4,-85.04"/>
</g>
<!-- Node19&#45;&gt;Node7 -->
<g id="edge36" class="edge">
<title>Node19&#45;&gt;Node7</title>
<path fill="none" stroke="midnightblue" d="M955.11,-168.47C1007.83,-160.36 1078.69,-147.18 1103,-132 1121.56,-120.41 1136.11,-99.54 1144.84,-84.58"/>
<polygon fill="midnightblue" stroke="midnightblue" points="1147.95,-86.2 1149.72,-75.75 1141.82,-82.81 1147.95,-86.2"/>
</g>
<!-- Node19&#45;&gt;Node8 -->
<g id="edge37" class="edge">
<title>Node19&#45;&gt;Node8</title>
<path fill="none" stroke="midnightblue" d="M893,-168.37C893,-150.62 893,-109.67 893,-85.6"/>
<polygon fill="midnightblue" stroke="midnightblue" points="896.5,-85.59 893,-75.59 889.5,-85.59 896.5,-85.59"/>
</g>
<!-- Node19&#45;&gt;Node12 -->
<g id="edge33" class="edge">
<title>Node19&#45;&gt;Node12</title>
<path fill="none" stroke="midnightblue" d="M872,-168.34C851.55,-159.72 819.72,-145.82 793,-132 777.43,-123.95 775.63,-117.56 759,-112 634.18,-70.24 475.98,-65.79 404.34,-66.18"/>
<polygon fill="midnightblue" stroke="midnightblue" points="403.98,-62.69 394.01,-66.28 404.04,-69.69 403.98,-62.69"/>
</g>
<!-- Node19&#45;&gt;Node15 -->
<g id="edge27" class="edge">
<title>Node19&#45;&gt;Node15</title>
<path fill="none" stroke="midnightblue" d="M955.26,-170.86C1042.45,-162.07 1197.57,-145.62 1270.6,-131.93"/>
<polygon fill="midnightblue" stroke="midnightblue" points="1271.62,-135.3 1280.76,-129.93 1270.27,-128.43 1271.62,-135.3"/>
</g>
<!-- Node19&#45;&gt;Node16 -->
<g id="edge28" class="edge">
<title>Node19&#45;&gt;Node16</title>
<path fill="none" stroke="midnightblue" d="M866.7,-168.44C837.91,-159.08 791.68,-144.04 760.36,-133.85"/>
<polygon fill="midnightblue" stroke="midnightblue" points="761.35,-130.49 750.76,-130.73 759.19,-137.15 761.35,-130.49"/>
</g>
<!-- Node19&#45;&gt;Node17 -->
<g id="edge32" class="edge">
<title>Node19&#45;&gt;Node17</title>
<path fill="none" stroke="midnightblue" d="M830.83,-168.69C752.88,-158.2 624.74,-140.65 579.11,-131.75"/>
<polygon fill="midnightblue" stroke="midnightblue" points="579.67,-128.29 569.16,-129.63 578.21,-135.13 579.67,-128.29"/>
</g>
<!-- Node19&#45;&gt;Node18 -->
<g id="edge35" class="edge">
<title>Node19&#45;&gt;Node18</title>
<path fill="none" stroke="midnightblue" d="M955.24,-168.81C1016.04,-160.55 1111.13,-146.9 1193,-132 1194.24,-131.77 1195.5,-131.54 1196.76,-131.3"/>
<polygon fill="midnightblue" stroke="midnightblue" points="1197.46,-134.73 1206.58,-129.34 1196.09,-127.86 1197.46,-134.73"/>
</g>
<!-- Node20 -->
<g id="node20" class="node">
<title>Node20</title>
<g id="a_node20"><a xlink:title=" ">
<polygon fill="none" stroke="#bfbfbf" points="587,-112.5 587,-131.5 647,-131.5 647,-112.5 587,-112.5"/>
<text text-anchor="middle" x="617" y="-119.5" font-family="Helvetica,sans-Serif" font-size="10.00">iostream</text>
</a>
</g>
</g>
<!-- Node19&#45;&gt;Node20 -->
<g id="edge31" class="edge">
<title>Node19&#45;&gt;Node20</title>
<path fill="none" stroke="midnightblue" d="M849.27,-168.44C796.51,-158.12 708.54,-140.91 657.35,-130.89"/>
<polygon fill="midnightblue" stroke="midnightblue" points="657.8,-127.42 647.31,-128.93 656.45,-134.29 657.8,-127.42"/>
</g>
<!-- Node21&#45;&gt;Node5 -->
<g id="edge39" class="edge">
<title>Node21&#45;&gt;Node5</title>
<path fill="none" stroke="midnightblue" d="M365.84,-112.93C368.6,-112.62 371.33,-112.3 374,-112 515.58,-95.91 554.95,-102.41 698.76,-75.98"/>
<polygon fill="midnightblue" stroke="midnightblue" points="699.65,-79.37 708.84,-74.11 698.37,-72.49 699.65,-79.37"/>
</g>
<!-- Node22&#45;&gt;Node3 -->
<g id="edge46" class="edge">
<title>Node22&#45;&gt;Node3</title>
<path fill="none" stroke="midnightblue" d="M547.11,-168.68C645.64,-158.7 810.12,-142.03 910.84,-131.83"/>
<polygon fill="midnightblue" stroke="midnightblue" points="911.39,-135.29 920.99,-130.8 910.69,-128.33 911.39,-135.29"/>
</g>
<!-- Node22&#45;&gt;Node5 -->
<g id="edge42" class="edge">
<title>Node22&#45;&gt;Node5</title>
<path fill="none" stroke="midnightblue" d="M465.54,-168.28C466.92,-154.13 471.79,-126.29 489,-112 559.76,-53.24 604.03,-93.32 698.86,-75.94"/>
<polygon fill="midnightblue" stroke="midnightblue" points="699.7,-79.34 708.81,-73.94 698.32,-72.48 699.7,-79.34"/>
</g>
<!-- Node22&#45;&gt;Node8 -->
<g id="edge45" class="edge">
<title>Node22&#45;&gt;Node8</title>
<path fill="none" stroke="midnightblue" d="M469.65,-168.47C478,-154.05 497.05,-125.17 522,-112 548.25,-98.14 726.6,-81.1 826.14,-72.51"/>
<polygon fill="midnightblue" stroke="midnightblue" points="826.74,-75.97 836.41,-71.63 826.14,-68.99 826.74,-75.97"/>
</g>
<!-- Node22&#45;&gt;Node11 -->
<g id="edge47" class="edge">
<title>Node22&#45;&gt;Node11</title>
<path fill="none" stroke="midnightblue" d="M401.94,-168.44C330.76,-158.79 215.14,-143.1 140.08,-132.92"/>
<polygon fill="midnightblue" stroke="midnightblue" points="140.15,-129.39 129.77,-131.52 139.21,-136.33 140.15,-129.39"/>
</g>
<!-- Node22&#45;&gt;Node17 -->
<g id="edge44" class="edge">
<title>Node22&#45;&gt;Node17</title>
<path fill="none" stroke="midnightblue" d="M478.66,-168.32C491.92,-159.9 512.27,-146.97 527.85,-137.07"/>
<polygon fill="midnightblue" stroke="midnightblue" points="529.81,-139.97 536.38,-131.65 526.06,-134.06 529.81,-139.97"/>
</g>
<!-- Node22&#45;&gt;Node20 -->
<g id="edge43" class="edge">
<title>Node22&#45;&gt;Node20</title>
<path fill="none" stroke="midnightblue" d="M489.08,-168.44C514.54,-159.4 554.89,-145.06 583.46,-134.92"/>
<polygon fill="midnightblue" stroke="midnightblue" points="584.78,-138.16 593.03,-131.52 582.43,-131.57 584.78,-138.16"/>
</g>
<!-- Node22&#45;&gt;Node21 -->
<g id="edge48" class="edge">
<title>Node22&#45;&gt;Node21</title>
<path fill="none" stroke="midnightblue" d="M438.38,-168.44C409.99,-159.32 364.86,-144.81 333.25,-134.65"/>
<polygon fill="midnightblue" stroke="midnightblue" points="334.09,-131.24 323.5,-131.52 331.94,-137.91 334.09,-131.24"/>
</g>
<!-- Node23 -->
<g id="node23" class="node">
<title>Node23</title>
<g id="a_node23"><a xlink:title=" ">
<polygon fill="none" stroke="#bfbfbf" points="383.5,-112.5 383.5,-131.5 436.5,-131.5 436.5,-112.5 383.5,-112.5"/>
<text text-anchor="middle" x="410" y="-119.5" font-family="Helvetica,sans-Serif" font-size="10.00">cstddef</text>
</a>
</g>
</g>
<!-- Node22&#45;&gt;Node23 -->
<g id="edge41" class="edge">
<title>Node22&#45;&gt;Node23</title>
<path fill="none" stroke="midnightblue" d="M455.92,-168.08C447.83,-160.14 435.8,-148.34 426.09,-138.8"/>
<polygon fill="midnightblue" stroke="midnightblue" points="428.5,-136.26 418.91,-131.75 423.6,-141.25 428.5,-136.26"/>
</g>
<!-- Node24&#45;&gt;Node5 -->
<g id="edge50" class="edge">
<title>Node24&#45;&gt;Node5</title>
<path fill="none" stroke="midnightblue" d="M653.66,-168.37C662.07,-155.7 678.52,-131.49 694,-112 701.8,-102.18 711.08,-91.68 718.73,-83.29"/>
<polygon fill="midnightblue" stroke="midnightblue" points="721.52,-85.43 725.73,-75.71 716.38,-80.68 721.52,-85.43"/>
</g>
<!-- Node24&#45;&gt;Node17 -->
<g id="edge51" class="edge">
<title>Node24&#45;&gt;Node17</title>
<path fill="none" stroke="midnightblue" d="M632.25,-168.32C616.68,-159.74 592.62,-146.49 574.54,-136.52"/>
<polygon fill="midnightblue" stroke="midnightblue" points="576.15,-133.42 565.71,-131.65 572.78,-139.55 576.15,-133.42"/>
</g>
</g>
</svg>
