<?xml version="1.0" encoding="UTF-8" standalone="no"?>
<!DOCTYPE svg PUBLIC "-//W3C//DTD SVG 1.1//EN"
 "http://www.w3.org/Graphics/SVG/1.1/DTD/svg11.dtd">
<!-- Generated by graphviz version 2.43.0 (0)
 -->
<!-- Title: fft.hpp Pages: 1 -->
<svg width="1014pt" height="196pt"
 viewBox="0.00 0.00 1013.50 196.00" xmlns="http://www.w3.org/2000/svg" xmlns:xlink="http://www.w3.org/1999/xlink">
<g id="graph0" class="graph" transform="scale(1 1) rotate(0) translate(4 192)">
<title>fft.hpp</title>
<!-- Node1 -->
<g id="node1" class="node">
<title>Node1</title>
<g id="a_node1"><a xlink:title=" ">
<polygon fill="#bfbfbf" stroke="black" points="337.5,-168.5 337.5,-187.5 385.5,-187.5 385.5,-168.5 337.5,-168.5"/>
<text text-anchor="middle" x="361.5" y="-175.5" font-family="Helvetica,sans-Serif" font-size="10.00">fft.hpp</text>
</a>
</g>
</g>
<!-- Node2 -->
<g id="node2" class="node">
<title>Node2</title>
<g id="a_node2"><a xlink:href="fft_8cpp.html" target="_top" xlink:title=" ">
<polygon fill="none" stroke="black" points="108,-112.5 108,-131.5 155,-131.5 155,-112.5 108,-112.5"/>
<text text-anchor="middle" x="131.5" y="-119.5" font-family="Helvetica,sans-Serif" font-size="10.00">fft.cpp</text>
</a>
</g>
</g>
<!-- Node1&#45;&gt;Node2 -->
<g id="edge1" class="edge">
<title>Node1&#45;&gt;Node2</title>
<path fill="none" stroke="midnightblue" d="M327.41,-169.8C287.86,-161.32 220.74,-146.54 163.5,-132 160.82,-131.32 158.01,-130.58 155.23,-129.82"/>
<polygon fill="midnightblue" stroke="midnightblue" points="326.82,-173.25 337.33,-171.92 328.28,-166.41 326.82,-173.25"/>
</g>
<!-- Node3 -->
<g id="node3" class="node">
<title>Node3</title>
<g id="a_node3"><a xlink:href="fft_8test_8cpp.html" target="_top" xlink:title=" ">
<polygon fill="none" stroke="black" points="173,-112.5 173,-131.5 242,-131.5 242,-112.5 173,-112.5"/>
<text text-anchor="middle" x="207.5" y="-119.5" font-family="Helvetica,sans-Serif" font-size="10.00">fft.test.cpp</text>
</a>
</g>
</g>
<!-- Node1&#45;&gt;Node3 -->
<g id="edge2" class="edge">
<title>Node1&#45;&gt;Node3</title>
<path fill="none" stroke="midnightblue" d="M327.74,-165.16C298.79,-155.01 257.76,-140.63 231.9,-131.56"/>
<polygon fill="midnightblue" stroke="midnightblue" points="326.84,-168.56 337.44,-168.56 329.16,-161.95 326.84,-168.56"/>
</g>
<!-- Node4 -->
<g id="node4" class="node">
<title>Node4</title>
<g id="a_node4"><a xlink:href="k1__model_8hpp.html" target="_top" xlink:title=" ">
<polygon fill="none" stroke="black" points="260.5,-112.5 260.5,-131.5 346.5,-131.5 346.5,-112.5 260.5,-112.5"/>
<text text-anchor="middle" x="303.5" y="-119.5" font-family="Helvetica,sans-Serif" font-size="10.00">k1_model.hpp</text>
</a>
</g>
</g>
<!-- Node1&#45;&gt;Node4 -->
<g id="edge3" class="edge">
<title>Node1&#45;&gt;Node4</title>
<path fill="none" stroke="midnightblue" d="M344.59,-161.25C334.3,-151.67 321.53,-139.79 312.99,-131.83"/>
<polygon fill="midnightblue" stroke="midnightblue" points="342.48,-164.07 352.18,-168.32 347.25,-158.95 342.48,-164.07"/>
</g>
<!-- Node13 -->
<g id="node13" class="node">
<title>Node13</title>
<g id="a_node13"><a xlink:href="k2__model_8hpp.html" target="_top" xlink:title=" ">
<polygon fill="none" stroke="black" points="371.5,-112.5 371.5,-131.5 457.5,-131.5 457.5,-112.5 371.5,-112.5"/>
<text text-anchor="middle" x="414.5" y="-119.5" font-family="Helvetica,sans-Serif" font-size="10.00">k2_model.hpp</text>
</a>
</g>
</g>
<!-- Node1&#45;&gt;Node13 -->
<g id="edge13" class="edge">
<title>Node1&#45;&gt;Node13</title>
<path fill="none" stroke="midnightblue" d="M377.48,-160.72C386.82,-151.2 398.25,-139.56 405.91,-131.75"/>
<polygon fill="midnightblue" stroke="midnightblue" points="374.76,-158.49 370.25,-168.08 379.75,-163.4 374.76,-158.49"/>
</g>
<!-- Node15 -->
<g id="node15" class="node">
<title>Node15</title>
<g id="a_node15"><a xlink:href="k3__model_8hpp.html" target="_top" xlink:title=" ">
<polygon fill="none" stroke="black" points="549.5,-112.5 549.5,-131.5 635.5,-131.5 635.5,-112.5 549.5,-112.5"/>
<text text-anchor="middle" x="592.5" y="-119.5" font-family="Helvetica,sans-Serif" font-size="10.00">k3_model.hpp</text>
</a>
</g>
</g>
<!-- Node1&#45;&gt;Node15 -->
<g id="edge18" class="edge">
<title>Node1&#45;&gt;Node15</title>
<path fill="none" stroke="midnightblue" d="M395.76,-168.99C438.74,-158.94 512.13,-141.79 556.1,-131.51"/>
<polygon fill="midnightblue" stroke="midnightblue" points="394.73,-165.64 385.78,-171.32 396.32,-172.45 394.73,-165.64"/>
</g>
<!-- Node17 -->
<g id="node17" class="node">
<title>Node17</title>
<g id="a_node17"><a xlink:href="testing__model_8hpp.html" target="_top" xlink:title=" ">
<polygon fill="none" stroke="black" points="747,-112.5 747,-131.5 854,-131.5 854,-112.5 747,-112.5"/>
<text text-anchor="middle" x="800.5" y="-119.5" font-family="Helvetica,sans-Serif" font-size="10.00">testing_model.hpp</text>
</a>
</g>
</g>
<!-- Node1&#45;&gt;Node17 -->
<g id="edge22" class="edge">
<title>Node1&#45;&gt;Node17</title>
<path fill="none" stroke="midnightblue" d="M395.72,-172.79C471.77,-163.44 655.27,-140.86 746.76,-129.61"/>
<polygon fill="midnightblue" stroke="midnightblue" points="395.23,-169.33 385.73,-174.02 396.08,-176.27 395.23,-169.33"/>
</g>
<!-- Node5 -->
<g id="node5" class="node">
<title>Node5</title>
<g id="a_node5"><a xlink:href="k1__model_8cpp.html" target="_top" xlink:title=" ">
<polygon fill="none" stroke="black" points="0,-56.5 0,-75.5 85,-75.5 85,-56.5 0,-56.5"/>
<text text-anchor="middle" x="42.5" y="-63.5" font-family="Helvetica,sans-Serif" font-size="10.00">k1_model.cpp</text>
</a>
</g>
</g>
<!-- Node4&#45;&gt;Node5 -->
<g id="edge4" class="edge">
<title>Node4&#45;&gt;Node5</title>
<path fill="none" stroke="midnightblue" d="M252.31,-110.41C202.99,-100.2 129.31,-84.96 83.66,-75.52"/>
<polygon fill="midnightblue" stroke="midnightblue" points="251.64,-113.84 262.14,-112.44 253.06,-106.99 251.64,-113.84"/>
</g>
<!-- Node6 -->
<g id="node6" class="node">
<title>Node6</title>
<g id="a_node6"><a xlink:href="k1__model_8test_8cpp.html" target="_top" xlink:title=" ">
<polygon fill="none" stroke="black" points="103,-56.5 103,-75.5 210,-75.5 210,-56.5 103,-56.5"/>
<text text-anchor="middle" x="156.5" y="-63.5" font-family="Helvetica,sans-Serif" font-size="10.00">k1_model.test.cpp</text>
</a>
</g>
</g>
<!-- Node4&#45;&gt;Node6 -->
<g id="edge5" class="edge">
<title>Node4&#45;&gt;Node6</title>
<path fill="none" stroke="midnightblue" d="M270.58,-108.91C242.94,-98.75 204.16,-84.51 179.68,-75.52"/>
<polygon fill="midnightblue" stroke="midnightblue" points="269.61,-112.28 280.21,-112.44 272.03,-105.71 269.61,-112.28"/>
</g>
<!-- Node7 -->
<g id="node7" class="node">
<title>Node7</title>
<g id="a_node7"><a xlink:href="tests_2ktl__model__scoring_2main_8cpp.html" target="_top" xlink:title=" ">
<polygon fill="none" stroke="black" points="266.5,-56.5 266.5,-75.5 328.5,-75.5 328.5,-56.5 266.5,-56.5"/>
<text text-anchor="middle" x="297.5" y="-63.5" font-family="Helvetica,sans-Serif" font-size="10.00">main.cpp</text>
</a>
</g>
</g>
<!-- Node4&#45;&gt;Node7 -->
<g id="edge6" class="edge">
<title>Node4&#45;&gt;Node7</title>
<path fill="none" stroke="midnightblue" d="M301.4,-102.1C300.4,-93.14 299.26,-82.86 298.47,-75.75"/>
<polygon fill="midnightblue" stroke="midnightblue" points="297.93,-102.53 302.51,-112.08 304.88,-101.76 297.93,-102.53"/>
</g>
<!-- Node8 -->
<g id="node8" class="node">
<title>Node8</title>
<g id="a_node8"><a xlink:href="translation__layer_8cpp.html" target="_top" xlink:title=" ">
<polygon fill="none" stroke="black" points="459,-0.5 459,-19.5 578,-19.5 578,-0.5 459,-0.5"/>
<text text-anchor="middle" x="518.5" y="-7.5" font-family="Helvetica,sans-Serif" font-size="10.00">translation_layer.cpp</text>
</a>
</g>
</g>
<!-- Node4&#45;&gt;Node8 -->
<g id="edge7" class="edge">
<title>Node4&#45;&gt;Node8</title>
<path fill="none" stroke="midnightblue" d="M281.41,-106.43C263.61,-92.9 243.65,-72.45 257.5,-56 282.72,-26.06 389.83,-16.04 458.75,-12.69"/>
<polygon fill="midnightblue" stroke="midnightblue" points="279.65,-109.47 289.82,-112.46 283.73,-103.79 279.65,-109.47"/>
</g>
<!-- Node9 -->
<g id="node9" class="node">
<title>Node9</title>
<g id="a_node9"><a xlink:href="translation__layer_8hpp.html" target="_top" xlink:title=" ">
<polygon fill="none" stroke="black" points="577,-56.5 577,-75.5 696,-75.5 696,-56.5 577,-56.5"/>
<text text-anchor="middle" x="636.5" y="-63.5" font-family="Helvetica,sans-Serif" font-size="10.00">translation_layer.hpp</text>
</a>
</g>
</g>
<!-- Node4&#45;&gt;Node9 -->
<g id="edge8" class="edge">
<title>Node4&#45;&gt;Node9</title>
<path fill="none" stroke="midnightblue" d="M356.73,-112.37C419.16,-102.24 521.98,-85.57 584.06,-75.5"/>
<polygon fill="midnightblue" stroke="midnightblue" points="356,-108.94 346.69,-114 357.12,-115.85 356,-108.94"/>
</g>
<!-- Node9&#45;&gt;Node8 -->
<g id="edge11" class="edge">
<title>Node9&#45;&gt;Node8</title>
<path fill="none" stroke="midnightblue" d="M608.6,-52.23C586.53,-42.13 556.32,-28.31 537.11,-19.52"/>
<polygon fill="midnightblue" stroke="midnightblue" points="607.25,-55.46 617.8,-56.44 610.17,-49.1 607.25,-55.46"/>
</g>
<!-- Node10 -->
<g id="node10" class="node">
<title>Node10</title>
<g id="a_node10"><a xlink:href="src_2kazoo__connect__server_2main_8cpp.html" target="_top" xlink:title=" ">
<polygon fill="none" stroke="black" points="596.5,-0.5 596.5,-19.5 658.5,-19.5 658.5,-0.5 596.5,-0.5"/>
<text text-anchor="middle" x="627.5" y="-7.5" font-family="Helvetica,sans-Serif" font-size="10.00">main.cpp</text>
</a>
</g>
</g>
<!-- Node9&#45;&gt;Node10 -->
<g id="edge9" class="edge">
<title>Node9&#45;&gt;Node10</title>
<path fill="none" stroke="midnightblue" d="M633.35,-46.1C631.86,-37.14 630.14,-26.86 628.96,-19.75"/>
<polygon fill="midnightblue" stroke="midnightblue" points="629.92,-46.79 635.01,-56.08 636.82,-45.64 629.92,-46.79"/>
</g>
<!-- Node11 -->
<g id="node11" class="node">
<title>Node11</title>
<g id="a_node11"><a xlink:href="src_2main_8cpp.html" target="_top" xlink:title=" ">
<polygon fill="none" stroke="black" points="676.5,-0.5 676.5,-19.5 738.5,-19.5 738.5,-0.5 676.5,-0.5"/>
<text text-anchor="middle" x="707.5" y="-7.5" font-family="Helvetica,sans-Serif" font-size="10.00">main.cpp</text>
</a>
</g>
</g>
<!-- Node9&#45;&gt;Node11 -->
<g id="edge10" class="edge">
<title>Node9&#45;&gt;Node11</title>
<path fill="none" stroke="midnightblue" d="M656.09,-50.1C668.87,-40.38 685.11,-28.03 695.89,-19.83"/>
<polygon fill="midnightblue" stroke="midnightblue" points="653.75,-47.48 647.91,-56.32 657.99,-53.06 653.75,-47.48"/>
</g>
<!-- Node12 -->
<g id="node12" class="node">
<title>Node12</title>
<g id="a_node12"><a xlink:href="translation__layer_8test_8cpp.html" target="_top" xlink:title=" ">
<polygon fill="none" stroke="black" points="756.5,-0.5 756.5,-19.5 896.5,-19.5 896.5,-0.5 756.5,-0.5"/>
<text text-anchor="middle" x="826.5" y="-7.5" font-family="Helvetica,sans-Serif" font-size="10.00">translation_layer.test.cpp</text>
</a>
</g>
</g>
<!-- Node9&#45;&gt;Node12 -->
<g id="edge12" class="edge">
<title>Node9&#45;&gt;Node12</title>
<path fill="none" stroke="midnightblue" d="M676.26,-53.7C712.12,-43.51 764.07,-28.74 796.53,-19.52"/>
<polygon fill="midnightblue" stroke="midnightblue" points="675.27,-50.34 666.61,-56.44 677.18,-57.08 675.27,-50.34"/>
</g>
<!-- Node13&#45;&gt;Node7 -->
<g id="edge15" class="edge">
<title>Node13&#45;&gt;Node7</title>
<path fill="none" stroke="midnightblue" d="M386.84,-108.23C364.95,-98.13 335,-84.31 315.95,-75.52"/>
<polygon fill="midnightblue" stroke="midnightblue" points="385.41,-111.43 395.96,-112.44 388.35,-105.08 385.41,-111.43"/>
</g>
<!-- Node13&#45;&gt;Node8 -->
<g id="edge16" class="edge">
<title>Node13&#45;&gt;Node8</title>
<path fill="none" stroke="midnightblue" d="M446.23,-108.26C461.57,-100.77 479.27,-90 491.5,-76 506.29,-59.06 513.77,-32.89 516.8,-19.51"/>
<polygon fill="midnightblue" stroke="midnightblue" points="444.66,-105.13 437.05,-112.49 447.59,-111.48 444.66,-105.13"/>
</g>
<!-- Node13&#45;&gt;Node9 -->
<g id="edge17" class="edge">
<title>Node13&#45;&gt;Node9</title>
<path fill="none" stroke="midnightblue" d="M459.62,-110.02C501.56,-99.82 563.15,-84.84 601.49,-75.52"/>
<polygon fill="midnightblue" stroke="midnightblue" points="458.57,-106.68 449.68,-112.44 460.22,-113.48 458.57,-106.68"/>
</g>
<!-- Node14 -->
<g id="node14" class="node">
<title>Node14</title>
<g id="a_node14"><a xlink:href="k2__peak__model_8test_8cpp.html" target="_top" xlink:title=" ">
<polygon fill="none" stroke="black" points="346.5,-56.5 346.5,-75.5 482.5,-75.5 482.5,-56.5 346.5,-56.5"/>
<text text-anchor="middle" x="414.5" y="-63.5" font-family="Helvetica,sans-Serif" font-size="10.00">k2_peak_model.test.cpp</text>
</a>
</g>
</g>
<!-- Node13&#45;&gt;Node14 -->
<g id="edge14" class="edge">
<title>Node13&#45;&gt;Node14</title>
<path fill="none" stroke="midnightblue" d="M414.5,-101.8C414.5,-92.91 414.5,-82.78 414.5,-75.75"/>
<polygon fill="midnightblue" stroke="midnightblue" points="411,-102.08 414.5,-112.08 418,-102.08 411,-102.08"/>
</g>
<!-- Node15&#45;&gt;Node8 -->
<g id="edge20" class="edge">
<title>Node15&#45;&gt;Node8</title>
<path fill="none" stroke="midnightblue" d="M581.03,-103.96C565,-80.12 536.47,-37.71 524.28,-19.59"/>
<polygon fill="midnightblue" stroke="midnightblue" points="578.21,-106.02 586.69,-112.37 584.02,-102.12 578.21,-106.02"/>
</g>
<!-- Node15&#45;&gt;Node9 -->
<g id="edge21" class="edge">
<title>Node15&#45;&gt;Node9</title>
<path fill="none" stroke="midnightblue" d="M606.23,-104.14C613.9,-94.74 623.13,-83.4 629.37,-75.75"/>
<polygon fill="midnightblue" stroke="midnightblue" points="603.37,-102.12 599.77,-112.08 608.8,-106.54 603.37,-102.12"/>
</g>
<!-- Node16 -->
<g id="node16" class="node">
<title>Node16</title>
<g id="a_node16"><a xlink:href="k3__model_8test_8cpp.html" target="_top" xlink:title=" ">
<polygon fill="none" stroke="black" points="714,-56.5 714,-75.5 821,-75.5 821,-56.5 714,-56.5"/>
<text text-anchor="middle" x="767.5" y="-63.5" font-family="Helvetica,sans-Serif" font-size="10.00">k3_model.test.cpp</text>
</a>
</g>
</g>
<!-- Node15&#45;&gt;Node16 -->
<g id="edge19" class="edge">
<title>Node15&#45;&gt;Node16</title>
<path fill="none" stroke="midnightblue" d="M629.97,-109.44C662.97,-99.26 710.26,-84.66 739.9,-75.52"/>
<polygon fill="midnightblue" stroke="midnightblue" points="628.75,-106.15 620.23,-112.44 630.82,-112.84 628.75,-106.15"/>
</g>
<!-- Node17&#45;&gt;Node8 -->
<g id="edge24" class="edge">
<title>Node17&#45;&gt;Node8</title>
<path fill="none" stroke="midnightblue" d="M817.42,-104.64C829.95,-90.56 842.88,-70.29 830.5,-56 828.44,-53.62 668.16,-31.41 578.17,-19.11"/>
<polygon fill="midnightblue" stroke="midnightblue" points="814.65,-102.48 810.28,-112.13 819.72,-107.31 814.65,-102.48"/>
</g>
<!-- Node17&#45;&gt;Node9 -->
<g id="edge25" class="edge">
<title>Node17&#45;&gt;Node9</title>
<path fill="none" stroke="midnightblue" d="M764.98,-109.3C734.08,-99.13 690.03,-84.62 662.36,-75.52"/>
<polygon fill="midnightblue" stroke="midnightblue" points="763.92,-112.64 774.51,-112.44 766.11,-105.99 763.92,-112.64"/>
</g>
<!-- Node18 -->
<g id="node18" class="node">
<title>Node18</title>
<g id="a_node18"><a xlink:href="testing__model_8test_8cpp.html" target="_top" xlink:title=" ">
<polygon fill="none" stroke="black" points="877.5,-56.5 877.5,-75.5 1005.5,-75.5 1005.5,-56.5 877.5,-56.5"/>
<text text-anchor="middle" x="941.5" y="-63.5" font-family="Helvetica,sans-Serif" font-size="10.00">testing_model.test.cpp</text>
</a>
</g>
</g>
<!-- Node17&#45;&gt;Node18 -->
<g id="edge23" class="edge">
<title>Node17&#45;&gt;Node18</title>
<path fill="none" stroke="midnightblue" d="M832.43,-108.77C858.91,-98.63 895.89,-84.47 919.26,-75.52"/>
<polygon fill="midnightblue" stroke="midnightblue" points="830.93,-105.6 822.84,-112.44 833.43,-112.14 830.93,-105.6"/>
</g>
</g>
</svg>
