<?xml version="1.0" encoding="UTF-8" standalone="no"?>
<!DOCTYPE svg PUBLIC "-//W3C//DTD SVG 1.1//EN"
 "http://www.w3.org/Graphics/SVG/1.1/DTD/svg11.dtd">
<!-- Generated by graphviz version 2.43.0 (0)
 -->
<!-- Title: fft.hpp Pages: 1 -->
<svg width="897pt" height="196pt"
 viewBox="0.00 0.00 896.50 196.00" xmlns="http://www.w3.org/2000/svg" xmlns:xlink="http://www.w3.org/1999/xlink">
<g id="graph0" class="graph" transform="scale(1 1) rotate(0) translate(4 192)">
<title>fft.hpp</title>
<!-- Node1 -->
<g id="node1" class="node">
<title>Node1</title>
<g id="a_node1"><a xlink:title=" ">
<polygon fill="#bfbfbf" stroke="black" points="335,-168.5 335,-187.5 383,-187.5 383,-168.5 335,-168.5"/>
<text text-anchor="middle" x="359" y="-175.5" font-family="Helvetica,sans-Serif" font-size="10.00">fft.hpp</text>
</a>
</g>
</g>
<!-- Node2 -->
<g id="node2" class="node">
<title>Node2</title>
<g id="a_node2"><a xlink:title=" ">
<polygon fill="none" stroke="#bfbfbf" points="0,-112.5 0,-131.5 64,-131.5 64,-112.5 0,-112.5"/>
<text text-anchor="middle" x="32" y="-119.5" font-family="Helvetica,sans-Serif" font-size="10.00">algorithm</text>
</a>
</g>
</g>
<!-- Node1&#45;&gt;Node2 -->
<g id="edge1" class="edge">
<title>Node1&#45;&gt;Node2</title>
<path fill="none" stroke="midnightblue" d="M334.81,-173.69C286.98,-167.05 176.75,-151.21 74.1,-132.12"/>
<polygon fill="midnightblue" stroke="midnightblue" points="74.67,-128.66 64.19,-130.26 73.38,-135.54 74.67,-128.66"/>
</g>
<!-- Node3 -->
<g id="node3" class="node">
<title>Node3</title>
<g id="a_node3"><a xlink:title=" ">
<polygon fill="none" stroke="#bfbfbf" points="82.5,-112.5 82.5,-131.5 129.5,-131.5 129.5,-112.5 82.5,-112.5"/>
<text text-anchor="middle" x="106" y="-119.5" font-family="Helvetica,sans-Serif" font-size="10.00">cmath</text>
</a>
</g>
</g>
<!-- Node1&#45;&gt;Node3 -->
<g id="edge2" class="edge">
<title>Node1&#45;&gt;Node3</title>
<path fill="none" stroke="midnightblue" d="M335,-172.71C295.95,-165.6 216.07,-150.53 139.52,-132.24"/>
<polygon fill="midnightblue" stroke="midnightblue" points="140.26,-128.82 129.71,-129.88 138.62,-135.63 140.26,-128.82"/>
</g>
<!-- Node4 -->
<g id="node4" class="node">
<title>Node4</title>
<g id="a_node4"><a xlink:title=" ">
<polygon fill="none" stroke="#bfbfbf" points="147.5,-112.5 147.5,-131.5 206.5,-131.5 206.5,-112.5 147.5,-112.5"/>
<text text-anchor="middle" x="177" y="-119.5" font-family="Helvetica,sans-Serif" font-size="10.00">complex</text>
</a>
</g>
</g>
<!-- Node1&#45;&gt;Node4 -->
<g id="edge3" class="edge">
<title>Node1&#45;&gt;Node4</title>
<path fill="none" stroke="midnightblue" d="M334.83,-169.83C304.34,-160.78 251.53,-145.11 215.47,-134.41"/>
<polygon fill="midnightblue" stroke="midnightblue" points="216.36,-131.03 205.77,-131.54 214.36,-137.74 216.36,-131.03"/>
</g>
<!-- Node5 -->
<g id="node5" class="node">
<title>Node5</title>
<g id="a_node5"><a xlink:title=" ">
<polygon fill="none" stroke="#bfbfbf" points="225,-112.5 225,-131.5 275,-131.5 275,-112.5 225,-112.5"/>
<text text-anchor="middle" x="250" y="-119.5" font-family="Helvetica,sans-Serif" font-size="10.00">fftw3.h</text>
</a>
</g>
</g>
<!-- Node1&#45;&gt;Node5 -->
<g id="edge4" class="edge">
<title>Node1&#45;&gt;Node5</title>
<path fill="none" stroke="midnightblue" d="M341.49,-168.32C323.93,-159.62 296.67,-146.12 276.47,-136.11"/>
<polygon fill="midnightblue" stroke="midnightblue" points="277.98,-132.96 267.47,-131.65 274.88,-139.23 277.98,-132.96"/>
</g>
<!-- Node6 -->
<g id="node6" class="node">
<title>Node6</title>
<g id="a_node6"><a xlink:title=" ">
<polygon fill="none" stroke="#bfbfbf" points="293.5,-112.5 293.5,-131.5 348.5,-131.5 348.5,-112.5 293.5,-112.5"/>
<text text-anchor="middle" x="321" y="-119.5" font-family="Helvetica,sans-Serif" font-size="10.00">fstream</text>
</a>
</g>
</g>
<!-- Node1&#45;&gt;Node6 -->
<g id="edge5" class="edge">
<title>Node1&#45;&gt;Node6</title>
<path fill="none" stroke="midnightblue" d="M352.73,-168.08C347.36,-160.46 339.48,-149.26 332.92,-139.94"/>
<polygon fill="midnightblue" stroke="midnightblue" points="335.78,-137.91 327.16,-131.75 330.05,-141.94 335.78,-137.91"/>
</g>
<!-- Node7 -->
<g id="node7" class="node">
<title>Node7</title>
<g id="a_node7"><a xlink:title=" ">
<polygon fill="none" stroke="#bfbfbf" points="367,-112.5 367,-131.5 427,-131.5 427,-112.5 367,-112.5"/>
<text text-anchor="middle" x="397" y="-119.5" font-family="Helvetica,sans-Serif" font-size="10.00">iostream</text>
</a>
</g>
</g>
<!-- Node1&#45;&gt;Node7 -->
<g id="edge6" class="edge">
<title>Node1&#45;&gt;Node7</title>
<path fill="none" stroke="midnightblue" d="M365.27,-168.08C370.64,-160.46 378.52,-149.26 385.08,-139.94"/>
<polygon fill="midnightblue" stroke="midnightblue" points="387.95,-141.94 390.84,-131.75 382.22,-137.91 387.95,-141.94"/>
</g>
<!-- Node8 -->
<g id="node8" class="node">
<title>Node8</title>
<g id="a_node8"><a xlink:title=" ">
<polygon fill="none" stroke="#bfbfbf" points="447,-56.5 447,-75.5 487,-75.5 487,-56.5 447,-56.5"/>
<text text-anchor="middle" x="467" y="-63.5" font-family="Helvetica,sans-Serif" font-size="10.00">span</text>
</a>
</g>
</g>
<!-- Node1&#45;&gt;Node8 -->
<g id="edge7" class="edge">
<title>Node1&#45;&gt;Node8</title>
<path fill="none" stroke="midnightblue" d="M380.96,-168.43C397.81,-160.94 420.7,-148.64 436,-132 448.41,-118.51 456.77,-99.15 461.65,-85.07"/>
<polygon fill="midnightblue" stroke="midnightblue" points="465,-86.11 464.72,-75.51 458.33,-83.97 465,-86.11"/>
</g>
<!-- Node9 -->
<g id="node9" class="node">
<title>Node9</title>
<g id="a_node9"><a xlink:href="audio__channel_8hpp.html" target="_top" xlink:title=" ">
<polygon fill="none" stroke="black" points="619,-112.5 619,-131.5 727,-131.5 727,-112.5 619,-112.5"/>
<text text-anchor="middle" x="673" y="-119.5" font-family="Helvetica,sans-Serif" font-size="10.00">audio_channel.hpp</text>
</a>
</g>
</g>
<!-- Node1&#45;&gt;Node9 -->
<g id="edge8" class="edge">
<title>Node1&#45;&gt;Node9</title>
<path fill="none" stroke="midnightblue" d="M383.12,-172.85C431.98,-164.45 543.93,-145.2 613.53,-133.23"/>
<polygon fill="midnightblue" stroke="midnightblue" points="614.22,-136.66 623.48,-131.52 613.03,-129.76 614.22,-136.66"/>
</g>
<!-- Node14 -->
<g id="node14" class="node">
<title>Node14</title>
<g id="a_node14"><a xlink:href="assert_8hpp.html" target="_top" xlink:title=" ">
<polygon fill="none" stroke="black" points="775.5,-56.5 775.5,-75.5 888.5,-75.5 888.5,-56.5 775.5,-56.5"/>
<text text-anchor="middle" x="832" y="-63.5" font-family="Helvetica,sans-Serif" font-size="10.00">common/assert.hpp</text>
</a>
</g>
</g>
<!-- Node1&#45;&gt;Node14 -->
<g id="edge18" class="edge">
<title>Node1&#45;&gt;Node14</title>
<path fill="none" stroke="midnightblue" d="M383.04,-175.62C455.46,-171.22 670.61,-156.39 736,-132 766.47,-120.64 796.72,-97.73 814.89,-82.37"/>
<polygon fill="midnightblue" stroke="midnightblue" points="817.52,-84.72 822.78,-75.52 812.93,-79.43 817.52,-84.72"/>
</g>
<!-- Node16 -->
<g id="node16" class="node">
<title>Node16</title>
<g id="a_node16"><a xlink:href="audio__constants_8hpp.html" target="_top" xlink:title=" ">
<polygon fill="none" stroke="black" points="483.5,-112.5 483.5,-131.5 600.5,-131.5 600.5,-112.5 483.5,-112.5"/>
<text text-anchor="middle" x="542" y="-119.5" font-family="Helvetica,sans-Serif" font-size="10.00">audio_constants.hpp</text>
</a>
</g>
</g>
<!-- Node1&#45;&gt;Node16 -->
<g id="edge16" class="edge">
<title>Node1&#45;&gt;Node16</title>
<path fill="none" stroke="midnightblue" d="M383.3,-169.83C413.96,-160.78 467.06,-145.11 503.32,-134.41"/>
<polygon fill="midnightblue" stroke="midnightblue" points="504.47,-137.72 513.07,-131.54 502.49,-131.01 504.47,-137.72"/>
</g>
<!-- Node9&#45;&gt;Node8 -->
<g id="edge12" class="edge">
<title>Node9&#45;&gt;Node8</title>
<path fill="none" stroke="midnightblue" d="M640.36,-112.44C600.95,-102.11 535.23,-84.88 497.03,-74.87"/>
<polygon fill="midnightblue" stroke="midnightblue" points="497.59,-71.4 487.03,-72.25 495.82,-78.17 497.59,-71.4"/>
</g>
<!-- Node10 -->
<g id="node10" class="node">
<title>Node10</title>
<g id="a_node10"><a xlink:title=" ">
<polygon fill="none" stroke="#bfbfbf" points="585,-56.5 585,-75.5 627,-75.5 627,-56.5 585,-56.5"/>
<text text-anchor="middle" x="606" y="-63.5" font-family="Helvetica,sans-Serif" font-size="10.00">array</text>
</a>
</g>
</g>
<!-- Node9&#45;&gt;Node10 -->
<g id="edge9" class="edge">
<title>Node9&#45;&gt;Node10</title>
<path fill="none" stroke="midnightblue" d="M662.24,-112.32C652.23,-104.26 637.11,-92.08 625.07,-82.37"/>
<polygon fill="midnightblue" stroke="midnightblue" points="626.94,-79.38 616.96,-75.83 622.55,-84.83 626.94,-79.38"/>
</g>
<!-- Node11 -->
<g id="node11" class="node">
<title>Node11</title>
<g id="a_node11"><a xlink:title=" ">
<polygon fill="none" stroke="#bfbfbf" points="517,-56.5 517,-75.5 567,-75.5 567,-56.5 517,-56.5"/>
<text text-anchor="middle" x="542" y="-63.5" font-family="Helvetica,sans-Serif" font-size="10.00">cstdint</text>
</a>
</g>
</g>
<!-- Node9&#45;&gt;Node11 -->
<g id="edge10" class="edge">
<title>Node9&#45;&gt;Node11</title>
<path fill="none" stroke="midnightblue" d="M652.24,-112.44C630.68,-103.56 596.74,-89.56 572.21,-79.45"/>
<polygon fill="midnightblue" stroke="midnightblue" points="573.24,-76.09 562.66,-75.52 570.57,-82.56 573.24,-76.09"/>
</g>
<!-- Node12 -->
<g id="node12" class="node">
<title>Node12</title>
<g id="a_node12"><a xlink:title=" ">
<polygon fill="none" stroke="#bfbfbf" points="645.5,-56.5 645.5,-75.5 692.5,-75.5 692.5,-56.5 645.5,-56.5"/>
<text text-anchor="middle" x="669" y="-63.5" font-family="Helvetica,sans-Serif" font-size="10.00">deque</text>
</a>
</g>
</g>
<!-- Node9&#45;&gt;Node12 -->
<g id="edge11" class="edge">
<title>Node9&#45;&gt;Node12</title>
<path fill="none" stroke="midnightblue" d="M672.34,-112.08C671.82,-105.01 671.06,-94.86 670.41,-85.99"/>
<polygon fill="midnightblue" stroke="midnightblue" points="673.88,-85.47 669.65,-75.75 666.9,-85.98 673.88,-85.47"/>
</g>
<!-- Node13 -->
<g id="node13" class="node">
<title>Node13</title>
<g id="a_node13"><a xlink:title=" ">
<polygon fill="none" stroke="#bfbfbf" points="710.5,-56.5 710.5,-75.5 757.5,-75.5 757.5,-56.5 710.5,-56.5"/>
<text text-anchor="middle" x="734" y="-63.5" font-family="Helvetica,sans-Serif" font-size="10.00">vector</text>
</a>
</g>
</g>
<!-- Node9&#45;&gt;Node13 -->
<g id="edge13" class="edge">
<title>Node9&#45;&gt;Node13</title>
<path fill="none" stroke="midnightblue" d="M682.8,-112.32C691.82,-104.34 705.41,-92.31 716.32,-82.65"/>
<polygon fill="midnightblue" stroke="midnightblue" points="718.85,-85.08 724.02,-75.83 714.21,-79.84 718.85,-85.08"/>
</g>
<!-- Node9&#45;&gt;Node14 -->
<g id="edge14" class="edge">
<title>Node9&#45;&gt;Node14</title>
<path fill="none" stroke="midnightblue" d="M698.19,-112.44C724.94,-103.36 767.4,-88.94 797.31,-78.78"/>
<polygon fill="midnightblue" stroke="midnightblue" points="798.58,-82.05 806.92,-75.52 796.33,-75.42 798.58,-82.05"/>
</g>
<!-- Node15 -->
<g id="node15" class="node">
<title>Node15</title>
<g id="a_node15"><a xlink:title=" ">
<polygon fill="none" stroke="#bfbfbf" points="810,-0.5 810,-19.5 854,-19.5 854,-0.5 810,-0.5"/>
<text text-anchor="middle" x="832" y="-7.5" font-family="Helvetica,sans-Serif" font-size="10.00">string</text>
</a>
</g>
</g>
<!-- Node14&#45;&gt;Node15 -->
<g id="edge15" class="edge">
<title>Node14&#45;&gt;Node15</title>
<path fill="none" stroke="midnightblue" d="M832,-56.08C832,-49.01 832,-38.86 832,-29.99"/>
<polygon fill="midnightblue" stroke="midnightblue" points="835.5,-29.75 832,-19.75 828.5,-29.75 835.5,-29.75"/>
</g>
<!-- Node16&#45;&gt;Node11 -->
<g id="edge17" class="edge">
<title>Node16&#45;&gt;Node11</title>
<path fill="none" stroke="midnightblue" d="M542,-112.08C542,-105.01 542,-94.86 542,-85.99"/>
<polygon fill="midnightblue" stroke="midnightblue" points="545.5,-85.75 542,-75.75 538.5,-85.75 545.5,-85.75"/>
</g>
</g>
</svg>
