<?xml version="1.0" encoding="UTF-8" standalone="no"?>
<!DOCTYPE svg PUBLIC "-//W3C//DTD SVG 1.1//EN"
 "http://www.w3.org/Graphics/SVG/1.1/DTD/svg11.dtd">
<!-- Generated by graphviz version 2.43.0 (0)
 -->
<!-- Title: i_symbol_stream.hpp Pages: 1 -->
<svg width="1317pt" height="364pt"
 viewBox="0.00 0.00 1317.00 364.00" xmlns="http://www.w3.org/2000/svg" xmlns:xlink="http://www.w3.org/1999/xlink">
<g id="graph0" class="graph" transform="scale(1 1) rotate(0) translate(4 360)">
<title>i_symbol_stream.hpp</title>
<!-- Node1 -->
<g id="node1" class="node">
<title>Node1</title>
<g id="a_node1"><a xlink:title=" ">
<polygon fill="#bfbfbf" stroke="black" points="561.5,-336.5 561.5,-355.5 683.5,-355.5 683.5,-336.5 561.5,-336.5"/>
<text text-anchor="middle" x="622.5" y="-343.5" font-family="Helvetica,sans-Serif" font-size="10.00">i_symbol_stream.hpp</text>
</a>
</g>
</g>
<!-- Node2 -->
<g id="node2" class="node">
<title>Node2</title>
<g id="a_node2"><a xlink:href="model__tester_8hpp.html" target="_top" xlink:title=" ">
<polygon fill="none" stroke="black" points="271,-112.5 271,-131.5 372,-131.5 372,-112.5 271,-112.5"/>
<text text-anchor="middle" x="321.5" y="-119.5" font-family="Helvetica,sans-Serif" font-size="10.00">model_tester.hpp</text>
</a>
</g>
</g>
<!-- Node1&#45;&gt;Node2 -->
<g id="edge1" class="edge">
<title>Node1&#45;&gt;Node2</title>
<path fill="none" stroke="midnightblue" d="M590.51,-332.74C537.22,-310.9 429.63,-260.67 363.5,-188 347.04,-169.91 332.76,-144.69 325.87,-131.62"/>
<polygon fill="midnightblue" stroke="midnightblue" points="589.22,-335.99 599.8,-336.48 591.83,-329.5 589.22,-335.99"/>
</g>
<!-- Node5 -->
<g id="node5" class="node">
<title>Node5</title>
<g id="a_node5"><a xlink:href="symbol__model_8hpp.html" target="_top" xlink:title=" ">
<polygon fill="none" stroke="black" points="567.5,-280.5 567.5,-299.5 677.5,-299.5 677.5,-280.5 567.5,-280.5"/>
<text text-anchor="middle" x="622.5" y="-287.5" font-family="Helvetica,sans-Serif" font-size="10.00">symbol_model.hpp</text>
</a>
</g>
</g>
<!-- Node1&#45;&gt;Node5 -->
<g id="edge4" class="edge">
<title>Node1&#45;&gt;Node5</title>
<path fill="none" stroke="midnightblue" d="M622.5,-325.8C622.5,-316.91 622.5,-306.78 622.5,-299.75"/>
<polygon fill="midnightblue" stroke="midnightblue" points="619,-326.08 622.5,-336.08 626,-326.08 619,-326.08"/>
</g>
<!-- Node20 -->
<g id="node20" class="node">
<title>Node20</title>
<g id="a_node20"><a xlink:href="symbol__stream_8hpp.html" target="_top" xlink:title=" ">
<polygon fill="none" stroke="black" points="787,-224.5 787,-243.5 900,-243.5 900,-224.5 787,-224.5"/>
<text text-anchor="middle" x="843.5" y="-231.5" font-family="Helvetica,sans-Serif" font-size="10.00">symbol_stream.hpp</text>
</a>
</g>
</g>
<!-- Node1&#45;&gt;Node20 -->
<g id="edge53" class="edge">
<title>Node1&#45;&gt;Node20</title>
<path fill="none" stroke="midnightblue" d="M648.86,-331.88C694.67,-309.08 787.75,-262.75 826.24,-243.59"/>
<polygon fill="midnightblue" stroke="midnightblue" points="647.23,-328.78 639.84,-336.37 650.35,-335.05 647.23,-328.78"/>
</g>
<!-- Node3 -->
<g id="node3" class="node">
<title>Node3</title>
<g id="a_node3"><a xlink:href="tests_2ktl__model__scoring_2main_8cpp.html" target="_top" xlink:title=" ">
<polygon fill="none" stroke="black" points="261.5,-56.5 261.5,-75.5 323.5,-75.5 323.5,-56.5 261.5,-56.5"/>
<text text-anchor="middle" x="292.5" y="-63.5" font-family="Helvetica,sans-Serif" font-size="10.00">main.cpp</text>
</a>
</g>
</g>
<!-- Node2&#45;&gt;Node3 -->
<g id="edge2" class="edge">
<title>Node2&#45;&gt;Node3</title>
<path fill="none" stroke="midnightblue" d="M311.82,-102.98C306.9,-93.82 301.14,-83.09 297.2,-75.75"/>
<polygon fill="midnightblue" stroke="midnightblue" points="308.9,-104.93 316.71,-112.08 315.06,-101.62 308.9,-104.93"/>
</g>
<!-- Node4 -->
<g id="node4" class="node">
<title>Node4</title>
<g id="a_node4"><a xlink:href="model__tester_8cpp.html" target="_top" xlink:title=" ">
<polygon fill="none" stroke="black" points="0,-56.5 0,-75.5 101,-75.5 101,-56.5 0,-56.5"/>
<text text-anchor="middle" x="50.5" y="-63.5" font-family="Helvetica,sans-Serif" font-size="10.00">model_tester.cpp</text>
</a>
</g>
</g>
<!-- Node2&#45;&gt;Node4 -->
<g id="edge3" class="edge">
<title>Node2&#45;&gt;Node4</title>
<path fill="none" stroke="midnightblue" d="M268.67,-110.47C217.46,-100.27 140.73,-84.98 93.24,-75.52"/>
<polygon fill="midnightblue" stroke="midnightblue" points="268.07,-113.92 278.56,-112.44 269.44,-107.06 268.07,-113.92"/>
</g>
<!-- Node5&#45;&gt;Node2 -->
<g id="edge28" class="edge">
<title>Node5&#45;&gt;Node2</title>
<path fill="none" stroke="midnightblue" d="M566.3,-278.15C536.43,-271 499.75,-259.97 469.5,-244 409.33,-212.24 350.62,-153.75 329.62,-131.71"/>
<polygon fill="midnightblue" stroke="midnightblue" points="565.61,-281.58 576.14,-280.42 567.19,-274.76 565.61,-281.58"/>
</g>
<!-- Node6 -->
<g id="node6" class="node">
<title>Node6</title>
<g id="a_node6"><a xlink:href="binary__model_8hpp.html" target="_top" xlink:title=" ">
<polygon fill="none" stroke="black" points="1009.5,-112.5 1009.5,-131.5 1113.5,-131.5 1113.5,-112.5 1009.5,-112.5"/>
<text text-anchor="middle" x="1061.5" y="-119.5" font-family="Helvetica,sans-Serif" font-size="10.00">binary_model.hpp</text>
</a>
</g>
</g>
<!-- Node5&#45;&gt;Node6 -->
<g id="edge5" class="edge">
<title>Node5&#45;&gt;Node6</title>
<path fill="none" stroke="midnightblue" d="M687.93,-284C765.29,-277.31 888.79,-263.91 930.5,-244 988.34,-216.39 1038.29,-154.32 1055.3,-131.57"/>
<polygon fill="midnightblue" stroke="midnightblue" points="687.47,-280.53 677.8,-284.86 688.07,-287.5 687.47,-280.53"/>
</g>
<!-- Node13 -->
<g id="node13" class="node">
<title>Node13</title>
<g id="a_node13"><a xlink:href="k1__model_8hpp.html" target="_top" xlink:title=" ">
<polygon fill="none" stroke="black" points="390.5,-112.5 390.5,-131.5 476.5,-131.5 476.5,-112.5 390.5,-112.5"/>
<text text-anchor="middle" x="433.5" y="-119.5" font-family="Helvetica,sans-Serif" font-size="10.00">k1_model.hpp</text>
</a>
</g>
</g>
<!-- Node5&#45;&gt;Node13 -->
<g id="edge13" class="edge">
<title>Node5&#45;&gt;Node13</title>
<path fill="none" stroke="midnightblue" d="M561.85,-277.93C537.71,-271.21 510.88,-260.59 490.5,-244 453.41,-213.79 439.1,-153.85 434.93,-131.59"/>
<polygon fill="midnightblue" stroke="midnightblue" points="561.09,-281.35 571.65,-280.49 562.86,-274.57 561.09,-281.35"/>
</g>
<!-- Node16 -->
<g id="node16" class="node">
<title>Node16</title>
<g id="a_node16"><a xlink:href="k2__model_8hpp.html" target="_top" xlink:title=" ">
<polygon fill="none" stroke="black" points="511.5,-112.5 511.5,-131.5 597.5,-131.5 597.5,-112.5 511.5,-112.5"/>
<text text-anchor="middle" x="554.5" y="-119.5" font-family="Helvetica,sans-Serif" font-size="10.00">k2_model.hpp</text>
</a>
</g>
</g>
<!-- Node5&#45;&gt;Node16 -->
<g id="edge19" class="edge">
<title>Node5&#45;&gt;Node16</title>
<path fill="none" stroke="midnightblue" d="M584.5,-276.86C546.39,-262.42 489.84,-234.27 464.5,-188 449.36,-160.36 490.27,-141.51 521.81,-131.5"/>
<polygon fill="midnightblue" stroke="midnightblue" points="583.64,-280.28 594.24,-280.41 586.04,-273.7 583.64,-280.28"/>
</g>
<!-- Node18 -->
<g id="node18" class="node">
<title>Node18</title>
<g id="a_node18"><a xlink:href="k3__model_8hpp.html" target="_top" xlink:title=" ">
<polygon fill="none" stroke="black" points="893.5,-112.5 893.5,-131.5 979.5,-131.5 979.5,-112.5 893.5,-112.5"/>
<text text-anchor="middle" x="936.5" y="-119.5" font-family="Helvetica,sans-Serif" font-size="10.00">k3_model.hpp</text>
</a>
</g>
</g>
<!-- Node5&#45;&gt;Node18 -->
<g id="edge24" class="edge">
<title>Node5&#45;&gt;Node18</title>
<path fill="none" stroke="midnightblue" d="M687.99,-286.99C762.34,-283.32 877.36,-272.99 908.5,-244 941.01,-213.73 939.33,-153.83 937.43,-131.58"/>
<polygon fill="midnightblue" stroke="midnightblue" points="687.61,-283.5 677.79,-287.46 687.94,-290.49 687.61,-283.5"/>
</g>
<!-- Node5&#45;&gt;Node20 -->
<g id="edge29" class="edge">
<title>Node5&#45;&gt;Node20</title>
<path fill="none" stroke="midnightblue" d="M667.42,-278.02C709.17,-267.82 770.48,-252.84 808.65,-243.52"/>
<polygon fill="midnightblue" stroke="midnightblue" points="666.4,-274.67 657.52,-280.44 668.06,-281.47 666.4,-274.67"/>
</g>
<!-- Node22 -->
<g id="node22" class="node">
<title>Node22</title>
<g id="a_node22"><a xlink:href="testing__model_8hpp.html" target="_top" xlink:title=" ">
<polygon fill="none" stroke="black" points="768,-112.5 768,-131.5 875,-131.5 875,-112.5 768,-112.5"/>
<text text-anchor="middle" x="821.5" y="-119.5" font-family="Helvetica,sans-Serif" font-size="10.00">testing_model.hpp</text>
</a>
</g>
</g>
<!-- Node5&#45;&gt;Node22 -->
<g id="edge52" class="edge">
<title>Node5&#45;&gt;Node22</title>
<path fill="none" stroke="midnightblue" d="M652.95,-276.2C688.6,-259.99 747.69,-229.13 786.5,-188 802.51,-171.03 813.45,-145.34 818.43,-131.9"/>
<polygon fill="midnightblue" stroke="midnightblue" points="651.26,-273.12 643.55,-280.39 654.11,-279.52 651.26,-273.12"/>
</g>
<!-- Node24 -->
<g id="node24" class="node">
<title>Node24</title>
<g id="a_node24"><a xlink:href="symbol__stream_8test_8cpp.html" target="_top" xlink:title=" ">
<polygon fill="none" stroke="black" points="473.5,-168.5 473.5,-187.5 607.5,-187.5 607.5,-168.5 473.5,-168.5"/>
<text text-anchor="middle" x="540.5" y="-175.5" font-family="Helvetica,sans-Serif" font-size="10.00">symbol_stream.test.cpp</text>
</a>
</g>
</g>
<!-- Node5&#45;&gt;Node24 -->
<g id="edge51" class="edge">
<title>Node5&#45;&gt;Node24</title>
<path fill="none" stroke="midnightblue" d="M610.03,-272.27C592.3,-248.49 560.47,-205.79 546.9,-187.59"/>
<polygon fill="midnightblue" stroke="midnightblue" points="607.28,-274.44 616.07,-280.37 612.9,-270.26 607.28,-274.44"/>
</g>
<!-- Node7 -->
<g id="node7" class="node">
<title>Node7</title>
<g id="a_node7"><a xlink:href="binary__model_8test_8cpp.html" target="_top" xlink:title=" ">
<polygon fill="none" stroke="black" points="1184,-56.5 1184,-75.5 1309,-75.5 1309,-56.5 1184,-56.5"/>
<text text-anchor="middle" x="1246.5" y="-63.5" font-family="Helvetica,sans-Serif" font-size="10.00">binary_model.test.cpp</text>
</a>
</g>
</g>
<!-- Node6&#45;&gt;Node7 -->
<g id="edge6" class="edge">
<title>Node6&#45;&gt;Node7</title>
<path fill="none" stroke="midnightblue" d="M1100.67,-109.57C1135.57,-99.38 1185.85,-84.7 1217.32,-75.52"/>
<polygon fill="midnightblue" stroke="midnightblue" points="1099.43,-106.28 1090.81,-112.44 1101.39,-113 1099.43,-106.28"/>
</g>
<!-- Node8 -->
<g id="node8" class="node">
<title>Node8</title>
<g id="a_node8"><a xlink:href="translation__layer_8cpp.html" target="_top" xlink:title=" ">
<polygon fill="none" stroke="black" points="788,-0.5 788,-19.5 907,-19.5 907,-0.5 788,-0.5"/>
<text text-anchor="middle" x="847.5" y="-7.5" font-family="Helvetica,sans-Serif" font-size="10.00">translation_layer.cpp</text>
</a>
</g>
</g>
<!-- Node6&#45;&gt;Node8 -->
<g id="edge7" class="edge">
<title>Node6&#45;&gt;Node8</title>
<path fill="none" stroke="midnightblue" d="M1094.21,-108.4C1121.35,-96.11 1152.91,-76.34 1135.5,-56 1120.84,-38.87 986.97,-23.78 907,-16.19"/>
<polygon fill="midnightblue" stroke="midnightblue" points="1092.68,-105.25 1084.88,-112.42 1095.45,-111.68 1092.68,-105.25"/>
</g>
<!-- Node9 -->
<g id="node9" class="node">
<title>Node9</title>
<g id="a_node9"><a xlink:href="translation__layer_8hpp.html" target="_top" xlink:title=" ">
<polygon fill="none" stroke="black" points="1008,-56.5 1008,-75.5 1127,-75.5 1127,-56.5 1008,-56.5"/>
<text text-anchor="middle" x="1067.5" y="-63.5" font-family="Helvetica,sans-Serif" font-size="10.00">translation_layer.hpp</text>
</a>
</g>
</g>
<!-- Node6&#45;&gt;Node9 -->
<g id="edge8" class="edge">
<title>Node6&#45;&gt;Node9</title>
<path fill="none" stroke="midnightblue" d="M1063.6,-102.1C1064.6,-93.14 1065.74,-82.86 1066.53,-75.75"/>
<polygon fill="midnightblue" stroke="midnightblue" points="1060.12,-101.76 1062.49,-112.08 1067.07,-102.53 1060.12,-101.76"/>
</g>
<!-- Node9&#45;&gt;Node8 -->
<g id="edge11" class="edge">
<title>Node9&#45;&gt;Node8</title>
<path fill="none" stroke="midnightblue" d="M1022.78,-54.02C981.22,-43.82 920.19,-28.84 882.2,-19.52"/>
<polygon fill="midnightblue" stroke="midnightblue" points="1022.09,-57.46 1032.64,-56.44 1023.76,-50.66 1022.09,-57.46"/>
</g>
<!-- Node10 -->
<g id="node10" class="node">
<title>Node10</title>
<g id="a_node10"><a xlink:href="src_2kazoo__connect__server_2main_8cpp.html" target="_top" xlink:title=" ">
<polygon fill="none" stroke="black" points="956.5,-0.5 956.5,-19.5 1018.5,-19.5 1018.5,-0.5 956.5,-0.5"/>
<text text-anchor="middle" x="987.5" y="-7.5" font-family="Helvetica,sans-Serif" font-size="10.00">main.cpp</text>
</a>
</g>
</g>
<!-- Node9&#45;&gt;Node10 -->
<g id="edge9" class="edge">
<title>Node9&#45;&gt;Node10</title>
<path fill="none" stroke="midnightblue" d="M1046.2,-50.62C1031.58,-40.76 1012.67,-27.99 1000.32,-19.65"/>
<polygon fill="midnightblue" stroke="midnightblue" points="1044.4,-53.63 1054.65,-56.32 1048.32,-47.83 1044.4,-53.63"/>
</g>
<!-- Node11 -->
<g id="node11" class="node">
<title>Node11</title>
<g id="a_node11"><a xlink:href="src_2main_8cpp.html" target="_top" xlink:title=" ">
<polygon fill="none" stroke="black" points="1036.5,-0.5 1036.5,-19.5 1098.5,-19.5 1098.5,-0.5 1036.5,-0.5"/>
<text text-anchor="middle" x="1067.5" y="-7.5" font-family="Helvetica,sans-Serif" font-size="10.00">main.cpp</text>
</a>
</g>
</g>
<!-- Node9&#45;&gt;Node11 -->
<g id="edge10" class="edge">
<title>Node9&#45;&gt;Node11</title>
<path fill="none" stroke="midnightblue" d="M1067.5,-45.8C1067.5,-36.91 1067.5,-26.78 1067.5,-19.75"/>
<polygon fill="midnightblue" stroke="midnightblue" points="1064,-46.08 1067.5,-56.08 1071,-46.08 1064,-46.08"/>
</g>
<!-- Node12 -->
<g id="node12" class="node">
<title>Node12</title>
<g id="a_node12"><a xlink:href="translation__layer_8test_8cpp.html" target="_top" xlink:title=" ">
<polygon fill="none" stroke="black" points="1116.5,-0.5 1116.5,-19.5 1256.5,-19.5 1256.5,-0.5 1116.5,-0.5"/>
<text text-anchor="middle" x="1186.5" y="-7.5" font-family="Helvetica,sans-Serif" font-size="10.00">translation_layer.test.cpp</text>
</a>
</g>
</g>
<!-- Node9&#45;&gt;Node12 -->
<g id="edge12" class="edge">
<title>Node9&#45;&gt;Node12</title>
<path fill="none" stroke="midnightblue" d="M1095.64,-52.23C1117.9,-42.13 1148.36,-28.31 1167.73,-19.52"/>
<polygon fill="midnightblue" stroke="midnightblue" points="1094.02,-49.12 1086.36,-56.44 1096.91,-55.5 1094.02,-49.12"/>
</g>
<!-- Node13&#45;&gt;Node3 -->
<g id="edge16" class="edge">
<title>Node13&#45;&gt;Node3</title>
<path fill="none" stroke="midnightblue" d="M401.57,-108.77C375.09,-98.63 338.11,-84.47 314.74,-75.52"/>
<polygon fill="midnightblue" stroke="midnightblue" points="400.57,-112.14 411.16,-112.44 403.07,-105.6 400.57,-112.14"/>
</g>
<!-- Node13&#45;&gt;Node8 -->
<g id="edge17" class="edge">
<title>Node13&#45;&gt;Node8</title>
<path fill="none" stroke="midnightblue" d="M380.8,-112.05C380.7,-112.03 380.6,-112.02 380.5,-112 275.8,-94.99 75.94,-133.38 148.5,-56 170.24,-32.81 622.92,-17.48 787.96,-12.64"/>
<polygon fill="midnightblue" stroke="midnightblue" points="379.97,-115.46 390.41,-113.63 381.11,-108.55 379.97,-115.46"/>
</g>
<!-- Node13&#45;&gt;Node9 -->
<g id="edge18" class="edge">
<title>Node13&#45;&gt;Node9</title>
<path fill="none" stroke="midnightblue" d="M486.71,-113.78C492.04,-113.14 497.37,-112.54 502.5,-112 705.14,-90.82 756.43,-92.46 959.5,-76 975.16,-74.73 992.09,-73.33 1007.8,-72.02"/>
<polygon fill="midnightblue" stroke="midnightblue" points="486.02,-110.34 476.52,-115.04 486.88,-117.29 486.02,-110.34"/>
</g>
<!-- Node14 -->
<g id="node14" class="node">
<title>Node14</title>
<g id="a_node14"><a xlink:href="k1__model_8cpp.html" target="_top" xlink:title=" ">
<polygon fill="none" stroke="black" points="158,-56.5 158,-75.5 243,-75.5 243,-56.5 158,-56.5"/>
<text text-anchor="middle" x="200.5" y="-63.5" font-family="Helvetica,sans-Serif" font-size="10.00">k1_model.cpp</text>
</a>
</g>
</g>
<!-- Node13&#45;&gt;Node14 -->
<g id="edge14" class="edge">
<title>Node13&#45;&gt;Node14</title>
<path fill="none" stroke="midnightblue" d="M386.7,-110.15C342.67,-99.95 277.65,-84.88 237.25,-75.52"/>
<polygon fill="midnightblue" stroke="midnightblue" points="386.05,-113.6 396.58,-112.44 387.63,-106.78 386.05,-113.6"/>
</g>
<!-- Node15 -->
<g id="node15" class="node">
<title>Node15</title>
<g id="a_node15"><a xlink:href="k1__model_8test_8cpp.html" target="_top" xlink:title=" ">
<polygon fill="none" stroke="black" points="380,-56.5 380,-75.5 487,-75.5 487,-56.5 380,-56.5"/>
<text text-anchor="middle" x="433.5" y="-63.5" font-family="Helvetica,sans-Serif" font-size="10.00">k1_model.test.cpp</text>
</a>
</g>
</g>
<!-- Node13&#45;&gt;Node15 -->
<g id="edge15" class="edge">
<title>Node13&#45;&gt;Node15</title>
<path fill="none" stroke="midnightblue" d="M433.5,-101.8C433.5,-92.91 433.5,-82.78 433.5,-75.75"/>
<polygon fill="midnightblue" stroke="midnightblue" points="430,-102.08 433.5,-112.08 437,-102.08 430,-102.08"/>
</g>
<!-- Node16&#45;&gt;Node3 -->
<g id="edge21" class="edge">
<title>Node16&#45;&gt;Node3</title>
<path fill="none" stroke="midnightblue" d="M503.03,-110.39C449.62,-99.38 367.84,-82.53 323.56,-73.4"/>
<polygon fill="midnightblue" stroke="midnightblue" points="502.48,-113.85 512.99,-112.44 503.9,-107 502.48,-113.85"/>
</g>
<!-- Node16&#45;&gt;Node8 -->
<g id="edge22" class="edge">
<title>Node16&#45;&gt;Node8</title>
<path fill="none" stroke="midnightblue" d="M501.35,-111.44C449.97,-101.66 378.71,-86.46 370.5,-76 365.01,-69.01 364.52,-62.57 370.5,-56 398.07,-25.7 665.68,-15.39 787.56,-12.24"/>
<polygon fill="midnightblue" stroke="midnightblue" points="500.86,-114.91 511.34,-113.32 502.16,-108.03 500.86,-114.91"/>
</g>
<!-- Node16&#45;&gt;Node9 -->
<g id="edge23" class="edge">
<title>Node16&#45;&gt;Node9</title>
<path fill="none" stroke="midnightblue" d="M607.91,-115.38C704.37,-105.22 906.97,-83.9 1007.83,-73.28"/>
<polygon fill="midnightblue" stroke="midnightblue" points="607.37,-111.91 597.8,-116.44 608.11,-118.88 607.37,-111.91"/>
</g>
<!-- Node17 -->
<g id="node17" class="node">
<title>Node17</title>
<g id="a_node17"><a xlink:href="k2__peak__model_8test_8cpp.html" target="_top" xlink:title=" ">
<polygon fill="none" stroke="black" points="505.5,-56.5 505.5,-75.5 641.5,-75.5 641.5,-56.5 505.5,-56.5"/>
<text text-anchor="middle" x="573.5" y="-63.5" font-family="Helvetica,sans-Serif" font-size="10.00">k2_peak_model.test.cpp</text>
</a>
</g>
</g>
<!-- Node16&#45;&gt;Node17 -->
<g id="edge20" class="edge">
<title>Node16&#45;&gt;Node17</title>
<path fill="none" stroke="midnightblue" d="M561.05,-102.4C564.22,-93.36 567.89,-82.94 570.42,-75.75"/>
<polygon fill="midnightblue" stroke="midnightblue" points="557.65,-101.49 557.64,-112.08 564.26,-103.81 557.65,-101.49"/>
</g>
<!-- Node18&#45;&gt;Node8 -->
<g id="edge26" class="edge">
<title>Node18&#45;&gt;Node8</title>
<path fill="none" stroke="midnightblue" d="M950.37,-104.25C960.02,-90.45 969.51,-70.81 959.5,-56 946.59,-36.9 924.1,-25.91 902.64,-19.58"/>
<polygon fill="midnightblue" stroke="midnightblue" points="947.47,-102.29 944.21,-112.37 953.05,-106.52 947.47,-102.29"/>
</g>
<!-- Node18&#45;&gt;Node9 -->
<g id="edge27" class="edge">
<title>Node18&#45;&gt;Node9</title>
<path fill="none" stroke="midnightblue" d="M966.82,-108.5C991.38,-98.38 1025.32,-84.39 1046.84,-75.52"/>
<polygon fill="midnightblue" stroke="midnightblue" points="965.17,-105.4 957.26,-112.44 967.84,-111.87 965.17,-105.4"/>
</g>
<!-- Node19 -->
<g id="node19" class="node">
<title>Node19</title>
<g id="a_node19"><a xlink:href="k3__model_8test_8cpp.html" target="_top" xlink:title=" ">
<polygon fill="none" stroke="black" points="844,-56.5 844,-75.5 951,-75.5 951,-56.5 844,-56.5"/>
<text text-anchor="middle" x="897.5" y="-63.5" font-family="Helvetica,sans-Serif" font-size="10.00">k3_model.test.cpp</text>
</a>
</g>
</g>
<!-- Node18&#45;&gt;Node19 -->
<g id="edge25" class="edge">
<title>Node18&#45;&gt;Node19</title>
<path fill="none" stroke="midnightblue" d="M924.12,-103.86C917.36,-94.5 909.29,-83.33 903.82,-75.75"/>
<polygon fill="midnightblue" stroke="midnightblue" points="921.37,-106.03 930.06,-112.08 927.04,-101.93 921.37,-106.03"/>
</g>
<!-- Node20&#45;&gt;Node6 -->
<g id="edge30" class="edge">
<title>Node20&#45;&gt;Node6</title>
<path fill="none" stroke="midnightblue" d="M869.79,-219.73C915.08,-196.88 1006.58,-150.71 1044.47,-131.59"/>
<polygon fill="midnightblue" stroke="midnightblue" points="867.96,-216.74 860.61,-224.37 871.11,-222.99 867.96,-216.74"/>
</g>
<!-- Node20&#45;&gt;Node7 -->
<g id="edge31" class="edge">
<title>Node20&#45;&gt;Node7</title>
<path fill="none" stroke="midnightblue" d="M880.74,-221.3C934.84,-203.92 1037.92,-169.27 1122.5,-132 1162.98,-114.16 1208.58,-88.83 1231.55,-75.68"/>
<polygon fill="midnightblue" stroke="midnightblue" points="879.37,-218.07 870.91,-224.45 881.5,-224.73 879.37,-218.07"/>
</g>
<!-- Node20&#45;&gt;Node13 -->
<g id="edge46" class="edge">
<title>Node20&#45;&gt;Node13</title>
<path fill="none" stroke="midnightblue" d="M776.88,-222.94C738.69,-215.86 690.36,-204.63 649.5,-188 633.61,-181.54 632.34,-174.57 616.5,-168 570.56,-148.96 514.66,-136.66 476.82,-129.82"/>
<polygon fill="midnightblue" stroke="midnightblue" points="776.41,-226.41 786.87,-224.74 777.65,-219.52 776.41,-226.41"/>
</g>
<!-- Node20&#45;&gt;Node16 -->
<g id="edge47" class="edge">
<title>Node20&#45;&gt;Node16</title>
<path fill="none" stroke="midnightblue" d="M799.54,-221.78C769.1,-213.56 727.86,-201.51 692.5,-188 689.45,-186.84 609.38,-148.97 572.63,-131.58"/>
<polygon fill="midnightblue" stroke="midnightblue" points="798.86,-225.22 809.43,-224.42 800.67,-218.46 798.86,-225.22"/>
</g>
<!-- Node20&#45;&gt;Node18 -->
<g id="edge48" class="edge">
<title>Node20&#45;&gt;Node18</title>
<path fill="none" stroke="midnightblue" d="M857.38,-216.59C877.43,-192.87 913.78,-149.87 929.24,-131.59"/>
<polygon fill="midnightblue" stroke="midnightblue" points="854.58,-214.47 850.8,-224.37 859.93,-218.99 854.58,-214.47"/>
</g>
<!-- Node21 -->
<g id="node21" class="node">
<title>Node21</title>
<g id="a_node21"><a xlink:href="encoder_8hpp.html" target="_top" xlink:title=" ">
<polygon fill="none" stroke="black" points="701.5,-168.5 701.5,-187.5 777.5,-187.5 777.5,-168.5 701.5,-168.5"/>
<text text-anchor="middle" x="739.5" y="-175.5" font-family="Helvetica,sans-Serif" font-size="10.00">encoder.hpp</text>
</a>
</g>
</g>
<!-- Node20&#45;&gt;Node21 -->
<g id="edge32" class="edge">
<title>Node20&#45;&gt;Node21</title>
<path fill="none" stroke="midnightblue" d="M817.67,-219.59C798.44,-209.61 772.76,-196.27 756.17,-187.65"/>
<polygon fill="midnightblue" stroke="midnightblue" points="816.3,-222.82 826.79,-224.32 819.53,-216.61 816.3,-222.82"/>
</g>
<!-- Node20&#45;&gt;Node22 -->
<g id="edge50" class="edge">
<title>Node20&#45;&gt;Node22</title>
<path fill="none" stroke="midnightblue" d="M839.77,-214.35C834.95,-190.25 826.76,-149.31 823.22,-131.59"/>
<polygon fill="midnightblue" stroke="midnightblue" points="836.38,-215.25 841.77,-224.37 843.24,-213.88 836.38,-215.25"/>
</g>
<!-- Node20&#45;&gt;Node24 -->
<g id="edge49" class="edge">
<title>Node20&#45;&gt;Node24</title>
<path fill="none" stroke="midnightblue" d="M785.5,-222.66C728.24,-212.46 641.72,-197.04 588.29,-187.52"/>
<polygon fill="midnightblue" stroke="midnightblue" points="785.03,-226.13 795.49,-224.44 786.26,-219.24 785.03,-226.13"/>
</g>
<!-- Node21&#45;&gt;Node2 -->
<g id="edge40" class="edge">
<title>Node21&#45;&gt;Node2</title>
<path fill="none" stroke="midnightblue" d="M691.21,-171.3C622.39,-163.09 492.17,-147.25 381.5,-132 378.47,-131.58 375.36,-131.14 372.23,-130.7"/>
<polygon fill="midnightblue" stroke="midnightblue" points="690.97,-174.8 701.31,-172.5 691.8,-167.85 690.97,-174.8"/>
</g>
<!-- Node21&#45;&gt;Node6 -->
<g id="edge33" class="edge">
<title>Node21&#45;&gt;Node6</title>
<path fill="none" stroke="midnightblue" d="M787.67,-168.92C847.6,-158.87 949.49,-141.78 1010.64,-131.53"/>
<polygon fill="midnightblue" stroke="midnightblue" points="786.99,-165.49 777.7,-170.59 788.14,-172.39 786.99,-165.49"/>
</g>
<!-- Node21&#45;&gt;Node13 -->
<g id="edge34" class="edge">
<title>Node21&#45;&gt;Node13</title>
<path fill="none" stroke="midnightblue" d="M691.18,-168.47C632.12,-158.05 533.11,-140.58 476.56,-130.6"/>
<polygon fill="midnightblue" stroke="midnightblue" points="690.91,-171.98 701.36,-170.27 692.12,-165.09 690.91,-171.98"/>
</g>
<!-- Node21&#45;&gt;Node15 -->
<g id="edge35" class="edge">
<title>Node21&#45;&gt;Node15</title>
<path fill="none" stroke="midnightblue" d="M709.19,-164.5C689.12,-155.95 662.38,-144.03 639.5,-132 624.32,-124.02 622.3,-118.67 606.5,-112 565.76,-94.79 516.77,-82.8 481.34,-75.55"/>
<polygon fill="midnightblue" stroke="midnightblue" points="707.89,-167.75 718.46,-168.42 710.61,-161.3 707.89,-167.75"/>
</g>
<!-- Node21&#45;&gt;Node16 -->
<g id="edge36" class="edge">
<title>Node21&#45;&gt;Node16</title>
<path fill="none" stroke="midnightblue" d="M700.33,-165.57C665.43,-155.38 615.15,-140.7 583.68,-131.52"/>
<polygon fill="midnightblue" stroke="midnightblue" points="699.61,-169 710.19,-168.44 701.57,-162.28 699.61,-169"/>
</g>
<!-- Node21&#45;&gt;Node17 -->
<g id="edge37" class="edge">
<title>Node21&#45;&gt;Node17</title>
<path fill="none" stroke="midnightblue" d="M717.94,-162.71C682.96,-139.53 614.89,-94.43 586.47,-75.59"/>
<polygon fill="midnightblue" stroke="midnightblue" points="716.2,-165.76 726.47,-168.37 720.07,-159.93 716.2,-165.76"/>
</g>
<!-- Node21&#45;&gt;Node18 -->
<g id="edge38" class="edge">
<title>Node21&#45;&gt;Node18</title>
<path fill="none" stroke="midnightblue" d="M780.73,-165.7C817.91,-155.51 871.77,-140.74 905.43,-131.52"/>
<polygon fill="midnightblue" stroke="midnightblue" points="779.43,-162.42 770.72,-168.44 781.28,-169.18 779.43,-162.42"/>
</g>
<!-- Node21&#45;&gt;Node19 -->
<g id="edge39" class="edge">
<title>Node21&#45;&gt;Node19</title>
<path fill="none" stroke="midnightblue" d="M740.41,-157.89C742.09,-143.51 746.6,-124.24 758.5,-112 780.86,-88.99 815.06,-77.73 843.94,-72.23"/>
<polygon fill="midnightblue" stroke="midnightblue" points="736.9,-157.9 739.59,-168.15 743.88,-158.46 736.9,-157.9"/>
</g>
<!-- Node21&#45;&gt;Node22 -->
<g id="edge41" class="edge">
<title>Node21&#45;&gt;Node22</title>
<path fill="none" stroke="midnightblue" d="M761.33,-162.62C776.31,-152.76 795.7,-139.99 808.36,-131.65"/>
<polygon fill="midnightblue" stroke="midnightblue" points="759.1,-159.9 752.67,-168.32 762.95,-165.75 759.1,-159.9"/>
</g>
<!-- Node23 -->
<g id="node23" class="node">
<title>Node23</title>
<g id="a_node23"><a xlink:href="testing__model_8test_8cpp.html" target="_top" xlink:title=" ">
<polygon fill="none" stroke="black" points="659.5,-56.5 659.5,-75.5 787.5,-75.5 787.5,-56.5 659.5,-56.5"/>
<text text-anchor="middle" x="723.5" y="-63.5" font-family="Helvetica,sans-Serif" font-size="10.00">testing_model.test.cpp</text>
</a>
</g>
</g>
<!-- Node21&#45;&gt;Node23 -->
<g id="edge45" class="edge">
<title>Node21&#45;&gt;Node23</title>
<path fill="none" stroke="midnightblue" d="M732.58,-158.72C729.85,-150.65 727.01,-140.98 725.5,-132 722.18,-112.18 722.51,-88.5 723.02,-75.91"/>
<polygon fill="midnightblue" stroke="midnightblue" points="729.31,-159.98 735.98,-168.21 735.9,-157.61 729.31,-159.98"/>
</g>
<!-- Node22&#45;&gt;Node8 -->
<g id="edge43" class="edge">
<title>Node22&#45;&gt;Node8</title>
<path fill="none" stroke="midnightblue" d="M824.86,-102.04C827.27,-89.03 830.74,-71.39 834.5,-56 837.62,-43.2 842,-28.58 844.79,-19.57"/>
<polygon fill="midnightblue" stroke="midnightblue" points="821.37,-101.65 823.03,-112.12 828.26,-102.9 821.37,-101.65"/>
</g>
<!-- Node22&#45;&gt;Node9 -->
<g id="edge44" class="edge">
<title>Node22&#45;&gt;Node9</title>
<path fill="none" stroke="midnightblue" d="M870.33,-110.28C916.82,-100.08 985.86,-84.92 1028.7,-75.52"/>
<polygon fill="midnightblue" stroke="midnightblue" points="869.5,-106.88 860.48,-112.44 871,-113.72 869.5,-106.88"/>
</g>
<!-- Node22&#45;&gt;Node23 -->
<g id="edge42" class="edge">
<title>Node22&#45;&gt;Node23</title>
<path fill="none" stroke="midnightblue" d="M796.91,-107.45C778.82,-97.48 754.77,-84.23 739.21,-75.65"/>
<polygon fill="midnightblue" stroke="midnightblue" points="795.31,-110.56 805.75,-112.32 798.69,-104.43 795.31,-110.56"/>
</g>
</g>
</svg>
