<?xml version="1.0" encoding="UTF-8" standalone="no"?>
<!DOCTYPE svg PUBLIC "-//W3C//DTD SVG 1.1//EN"
 "http://www.w3.org/Graphics/SVG/1.1/DTD/svg11.dtd">
<!-- Generated by graphviz version 2.43.0 (0)
 -->
<!-- Title: Graphical Class Hierarchy Pages: 1 -->
<svg width="477pt" height="235pt"
 viewBox="0.00 0.00 477.00 235.00" xmlns="http://www.w3.org/2000/svg" xmlns:xlink="http://www.w3.org/1999/xlink">
<g id="graph0" class="graph" transform="scale(1 1) rotate(0) translate(4 231)">
<title>Graphical Class Hierarchy</title>
<!-- Node0 -->
<g id="node1" class="node">
<title>Node0</title>
<g id="a_node1"><a xlink:href="classkazoo_1_1ISymbolModel.html" target="_top" xlink:title=" ">
<polygon fill="none" stroke="black" points="0,-79 0,-98 121,-98 121,-79 0,-79"/>
<text text-anchor="middle" x="60.5" y="-86" font-family="Helvetica,sans-Serif" font-size="10.00">kazoo::ISymbolModel</text>
</a>
</g>
</g>
<!-- Node1 -->
<g id="node2" class="node">
<title>Node1</title>
<g id="a_node2"><a xlink:href="classkazoo_1_1SymbolModel.html" target="_top" xlink:title=" ">
<polygon fill="none" stroke="black" points="157,-98.5 157,-128.5 275,-128.5 275,-98.5 157,-98.5"/>
<text text-anchor="start" x="165" y="-116.5" font-family="Helvetica,sans-Serif" font-size="10.00">kazoo::SymbolModel</text>
<text text-anchor="middle" x="216" y="-105.5" font-family="Helvetica,sans-Serif" font-size="10.00">&lt; Token &gt;</text>
</a>
</g>
</g>
<!-- Node0&#45;&gt;Node1 -->
<g id="edge1" class="edge">
<title>Node0&#45;&gt;Node1</title>
<path fill="none" stroke="midnightblue" d="M130.03,-99.66C139.01,-101.12 148.15,-102.61 156.95,-104.05"/>
<polygon fill="midnightblue" stroke="midnightblue" points="130.4,-96.18 119.97,-98.02 129.28,-103.08 130.4,-96.18"/>
</g>
<!-- Node7 -->
<g id="node8" class="node">
<title>Node7</title>
<g id="a_node8"><a xlink:href="classkazoo_1_1SymbolModel.html" target="_top" xlink:title=" ">
<polygon fill="none" stroke="black" points="157,-49.5 157,-79.5 275,-79.5 275,-49.5 157,-49.5"/>
<text text-anchor="start" x="165" y="-67.5" font-family="Helvetica,sans-Serif" font-size="10.00">kazoo::SymbolModel</text>
<text text-anchor="middle" x="216" y="-56.5" font-family="Helvetica,sans-Serif" font-size="10.00">&lt; Token_t &gt;</text>
</a>
</g>
</g>
<!-- Node0&#45;&gt;Node7 -->
<g id="edge7" class="edge">
<title>Node0&#45;&gt;Node7</title>
<path fill="none" stroke="midnightblue" d="M131.26,-77.59C139.83,-76.25 148.52,-74.89 156.89,-73.59"/>
<polygon fill="midnightblue" stroke="midnightblue" points="130.63,-74.15 121.29,-79.15 131.71,-81.07 130.63,-74.15"/>
</g>
<!-- Node2 -->
<g id="node3" class="node">
<title>Node2</title>
<g id="a_node3"><a xlink:href="classkazoo_1_1model_1_1Binary_1_1Model.html" target="_top" xlink:title=" ">
<polygon fill="none" stroke="black" points="330.5,-196.5 330.5,-226.5 449.5,-226.5 449.5,-196.5 330.5,-196.5"/>
<text text-anchor="start" x="338.5" y="-214.5" font-family="Helvetica,sans-Serif" font-size="10.00">kazoo::model::Binary</text>
<text text-anchor="middle" x="390" y="-203.5" font-family="Helvetica,sans-Serif" font-size="10.00">::Model</text>
</a>
</g>
</g>
<!-- Node1&#45;&gt;Node2 -->
<g id="edge2" class="edge">
<title>Node1&#45;&gt;Node2</title>
<path fill="none" stroke="midnightblue" d="M240.04,-135.64C258.1,-151.95 284.52,-173.62 311,-187.5 317.4,-190.85 324.35,-193.82 331.37,-196.43"/>
<polygon fill="midnightblue" stroke="midnightblue" points="242.09,-132.77 232.36,-128.57 237.35,-137.92 242.09,-132.77"/>
</g>
<!-- Node3 -->
<g id="node4" class="node">
<title>Node3</title>
<g id="a_node4"><a xlink:href="classkazoo_1_1model_1_1K1Model_1_1Model.html" target="_top" xlink:title=" ">
<polygon fill="none" stroke="black" points="324.5,-147.5 324.5,-177.5 455.5,-177.5 455.5,-147.5 324.5,-147.5"/>
<text text-anchor="start" x="332.5" y="-165.5" font-family="Helvetica,sans-Serif" font-size="10.00">kazoo::model::K1Model</text>
<text text-anchor="middle" x="390" y="-154.5" font-family="Helvetica,sans-Serif" font-size="10.00">::Model</text>
</a>
</g>
</g>
<!-- Node1&#45;&gt;Node3 -->
<g id="edge3" class="edge">
<title>Node1&#45;&gt;Node3</title>
<path fill="none" stroke="midnightblue" d="M279.81,-131.39C298.31,-136.66 318.36,-142.38 336.17,-147.45"/>
<polygon fill="midnightblue" stroke="midnightblue" points="280.59,-127.98 270.01,-128.6 278.67,-134.71 280.59,-127.98"/>
</g>
<!-- Node4 -->
<g id="node5" class="node">
<title>Node4</title>
<g id="a_node5"><a xlink:href="classkazoo_1_1model_1_1K2PeakModel_1_1Model.html" target="_top" xlink:title=" ">
<polygon fill="none" stroke="black" points="312.5,-98.5 312.5,-128.5 467.5,-128.5 467.5,-98.5 312.5,-98.5"/>
<text text-anchor="start" x="320.5" y="-116.5" font-family="Helvetica,sans-Serif" font-size="10.00">kazoo::model::K2PeakModel</text>
<text text-anchor="middle" x="390" y="-105.5" font-family="Helvetica,sans-Serif" font-size="10.00">::Model</text>
</a>
</g>
</g>
<!-- Node1&#45;&gt;Node4 -->
<g id="edge4" class="edge">
<title>Node1&#45;&gt;Node4</title>
<path fill="none" stroke="midnightblue" d="M285.43,-113.5C294.23,-113.5 303.3,-113.5 312.23,-113.5"/>
<polygon fill="midnightblue" stroke="midnightblue" points="285.23,-110 275.23,-113.5 285.23,-117 285.23,-110"/>
</g>
<!-- Node5 -->
<g id="node6" class="node">
<title>Node5</title>
<g id="a_node6"><a xlink:href="classkazoo_1_1model_1_1K3ReasonableModel_1_1K3Model.html" target="_top" xlink:title=" ">
<polygon fill="none" stroke="black" points="311,-49.5 311,-79.5 469,-79.5 469,-49.5 311,-49.5"/>
<text text-anchor="start" x="319" y="-67.5" font-family="Helvetica,sans-Serif" font-size="10.00">kazoo::model::K3Reasonable</text>
<text text-anchor="middle" x="390" y="-56.5" font-family="Helvetica,sans-Serif" font-size="10.00">Model::K3Model</text>
</a>
</g>
</g>
<!-- Node1&#45;&gt;Node5 -->
<g id="edge5" class="edge">
<title>Node1&#45;&gt;Node5</title>
<path fill="none" stroke="midnightblue" d="M279.81,-95.61C298.31,-90.34 318.36,-84.62 336.17,-79.55"/>
<polygon fill="midnightblue" stroke="midnightblue" points="278.67,-92.29 270.01,-98.4 280.59,-99.02 278.67,-92.29"/>
</g>
<!-- Node6 -->
<g id="node7" class="node">
<title>Node6</title>
<g id="a_node7"><a xlink:href="classkazoo_1_1model_1_1Testing_1_1Model.html" target="_top" xlink:title=" ">
<polygon fill="none" stroke="black" points="329,-0.5 329,-30.5 451,-30.5 451,-0.5 329,-0.5"/>
<text text-anchor="start" x="337" y="-18.5" font-family="Helvetica,sans-Serif" font-size="10.00">kazoo::model::Testing</text>
<text text-anchor="middle" x="390" y="-7.5" font-family="Helvetica,sans-Serif" font-size="10.00">::Model</text>
</a>
</g>
</g>
<!-- Node1&#45;&gt;Node6 -->
<g id="edge6" class="edge">
<title>Node1&#45;&gt;Node6</title>
<path fill="none" stroke="midnightblue" d="M269.97,-93.12C271.71,-91.96 273.39,-90.76 275,-89.5 296.27,-72.83 289.06,-56.28 311,-40.5 316.43,-36.6 322.49,-33.28 328.77,-30.48"/>
<polygon fill="midnightblue" stroke="midnightblue" points="267.76,-90.35 260.9,-98.42 271.3,-96.39 267.76,-90.35"/>
</g>
</g>
</svg>
