<?xml version="1.0" encoding="UTF-8" standalone="no"?>
<!DOCTYPE svg PUBLIC "-//W3C//DTD SVG 1.1//EN"
 "http://www.w3.org/Graphics/SVG/1.1/DTD/svg11.dtd">
<!-- Generated by graphviz version 2.43.0 (0)
 -->
<!-- Title: Graphical Class Hierarchy Pages: 1 -->
<svg width="285pt" height="66pt"
 viewBox="0.00 0.00 285.00 66.00" xmlns="http://www.w3.org/2000/svg" xmlns:xlink="http://www.w3.org/1999/xlink">
<g id="graph0" class="graph" transform="scale(1 1) rotate(0) translate(4 62)">
<title>Graphical Class Hierarchy</title>
<!-- Node0 -->
<g id="node1" class="node">
<title>Node0</title>
<g id="a_node1"><a xlink:href="classkazoo_1_1IAudioChannel.html" target="_top" xlink:title=" ">
<polygon fill="none" stroke="black" points="0,-19.5 0,-38.5 122,-38.5 122,-19.5 0,-19.5"/>
<text text-anchor="middle" x="61" y="-26.5" font-family="Helvetica,sans-Serif" font-size="10.00">kazoo::IAudioChannel</text>
</a>
</g>
</g>
<!-- Node1 -->
<g id="node2" class="node">
<title>Node1</title>
<g id="a_node2"><a xlink:href="classkazoo_1_1AudioChannel.html" target="_top" xlink:title=" ">
<polygon fill="none" stroke="black" points="158,-38.5 158,-57.5 277,-57.5 277,-38.5 158,-38.5"/>
<text text-anchor="middle" x="217.5" y="-45.5" font-family="Helvetica,sans-Serif" font-size="10.00">kazoo::AudioChannel</text>
</a>
</g>
</g>
<!-- Node0&#45;&gt;Node1 -->
<g id="edge1" class="edge">
<title>Node0&#45;&gt;Node1</title>
<path fill="none" stroke="midnightblue" d="M132.15,-37.63C140.71,-38.68 149.39,-39.75 157.76,-40.78"/>
<polygon fill="midnightblue" stroke="midnightblue" points="132.53,-34.15 122.18,-36.4 131.67,-41.09 132.53,-34.15"/>
</g>
<!-- Node2 -->
<g id="node3" class="node">
<title>Node2</title>
<g id="a_node3"><a xlink:href="classkazoo_1_1WavFile.html" target="_top" xlink:title="A class for reading and writing WAV files.">
<polygon fill="none" stroke="black" points="173,-0.5 173,-19.5 262,-19.5 262,-0.5 173,-0.5"/>
<text text-anchor="middle" x="217.5" y="-7.5" font-family="Helvetica,sans-Serif" font-size="10.00">kazoo::WavFile</text>
</a>
</g>
</g>
<!-- Node0&#45;&gt;Node2 -->
<g id="edge2" class="edge">
<title>Node0&#45;&gt;Node2</title>
<path fill="none" stroke="midnightblue" d="M132.21,-20.37C146.1,-18.66 160.3,-16.91 172.99,-15.35"/>
<polygon fill="midnightblue" stroke="midnightblue" points="131.67,-16.91 122.18,-21.6 132.53,-23.85 131.67,-16.91"/>
</g>
</g>
</svg>
