<?xml version="1.0" encoding="UTF-8" standalone="no"?>
<!DOCTYPE svg PUBLIC "-//W3C//DTD SVG 1.1//EN"
 "http://www.w3.org/Graphics/SVG/1.1/DTD/svg11.dtd">
<!-- Generated by graphviz version 2.43.0 (0)
 -->
<!-- Title: Graphical Class Hierarchy Pages: 1 -->
<svg width="260pt" height="104pt"
 viewBox="0.00 0.00 260.00 104.00" xmlns="http://www.w3.org/2000/svg" xmlns:xlink="http://www.w3.org/1999/xlink">
<g id="graph0" class="graph" transform="scale(1 1) rotate(0) translate(4 100)">
<title>Graphical Class Hierarchy</title>
<!-- Node0 -->
<g id="node1" class="node">
<title>Node0</title>
<g id="a_node1"><a xlink:title=" ">
<polygon fill="none" stroke="#bfbfbf" points="0,-38.5 0,-57.5 76,-57.5 76,-38.5 0,-38.5"/>
<text text-anchor="middle" x="38" y="-45.5" font-family="Helvetica,sans-Serif" font-size="10.00">testing::Test</text>
</a>
</g>
</g>
<!-- Node1 -->
<g id="node2" class="node">
<title>Node1</title>
<g id="a_node2"><a xlink:href="classK1Model__test.html" target="_top" xlink:title=" ">
<polygon fill="none" stroke="black" points="140.5,-76.5 140.5,-95.5 223.5,-95.5 223.5,-76.5 140.5,-76.5"/>
<text text-anchor="middle" x="182" y="-83.5" font-family="Helvetica,sans-Serif" font-size="10.00">K1Model_test</text>
</a>
</g>
</g>
<!-- Node0&#45;&gt;Node1 -->
<g id="edge1" class="edge">
<title>Node0&#45;&gt;Node1</title>
<path fill="none" stroke="midnightblue" d="M84.49,-60.17C104.13,-65.43 126.77,-71.49 145.18,-76.41"/>
<polygon fill="midnightblue" stroke="midnightblue" points="85.4,-56.79 74.83,-57.59 83.59,-63.56 85.4,-56.79"/>
</g>
<!-- Node2 -->
<g id="node3" class="node">
<title>Node2</title>
<g id="a_node3"><a xlink:href="classK2PeakModel__test.html" target="_top" xlink:title=" ">
<polygon fill="none" stroke="black" points="128.5,-38.5 128.5,-57.5 235.5,-57.5 235.5,-38.5 128.5,-38.5"/>
<text text-anchor="middle" x="182" y="-45.5" font-family="Helvetica,sans-Serif" font-size="10.00">K2PeakModel_test</text>
</a>
</g>
</g>
<!-- Node0&#45;&gt;Node2 -->
<g id="edge2" class="edge">
<title>Node0&#45;&gt;Node2</title>
<path fill="none" stroke="midnightblue" d="M86.35,-48C99.86,-48 114.66,-48 128.46,-48"/>
<polygon fill="midnightblue" stroke="midnightblue" points="86.31,-44.5 76.31,-48 86.31,-51.5 86.31,-44.5"/>
</g>
<!-- Node3 -->
<g id="node4" class="node">
<title>Node3</title>
<g id="a_node4"><a xlink:href="classK3ReasonableModel__test.html" target="_top" xlink:title=" ">
<polygon fill="none" stroke="black" points="112,-0.5 112,-19.5 252,-19.5 252,-0.5 112,-0.5"/>
<text text-anchor="middle" x="182" y="-7.5" font-family="Helvetica,sans-Serif" font-size="10.00">K3ReasonableModel_test</text>
</a>
</g>
</g>
<!-- Node0&#45;&gt;Node3 -->
<g id="edge3" class="edge">
<title>Node0&#45;&gt;Node3</title>
<path fill="none" stroke="midnightblue" d="M84.49,-35.83C104.13,-30.57 126.77,-24.51 145.18,-19.59"/>
<polygon fill="midnightblue" stroke="midnightblue" points="83.59,-32.44 74.83,-38.41 85.4,-39.21 83.59,-32.44"/>
</g>
</g>
</svg>
