<?xml version="1.0" encoding="UTF-8" standalone="no"?>
<!DOCTYPE svg PUBLIC "-//W3C//DTD SVG 1.1//EN"
 "http://www.w3.org/Graphics/SVG/1.1/DTD/svg11.dtd">
<!-- Generated by graphviz version 2.43.0 (0)
 -->
<!-- Title: k1_model.hpp Pages: 1 -->
<svg width="694pt" height="140pt"
 viewBox="0.00 0.00 693.50 140.00" xmlns="http://www.w3.org/2000/svg" xmlns:xlink="http://www.w3.org/1999/xlink">
<g id="graph0" class="graph" transform="scale(1 1) rotate(0) translate(4 136)">
<title>k1_model.hpp</title>
<!-- Node1 -->
<g id="node1" class="node">
<title>Node1</title>
<g id="a_node1"><a xlink:title=" ">
<polygon fill="#bfbfbf" stroke="black" points="216.5,-112.5 216.5,-131.5 302.5,-131.5 302.5,-112.5 216.5,-112.5"/>
<text text-anchor="middle" x="259.5" y="-119.5" font-family="Helvetica,sans-Serif" font-size="10.00">k1_model.hpp</text>
</a>
</g>
</g>
<!-- Node2 -->
<g id="node2" class="node">
<title>Node2</title>
<g id="a_node2"><a xlink:href="k1__model_8cpp.html" target="_top" xlink:title=" ">
<polygon fill="none" stroke="black" points="0,-56.5 0,-75.5 85,-75.5 85,-56.5 0,-56.5"/>
<text text-anchor="middle" x="42.5" y="-63.5" font-family="Helvetica,sans-Serif" font-size="10.00">k1_model.cpp</text>
</a>
</g>
</g>
<!-- Node1&#45;&gt;Node2 -->
<g id="edge1" class="edge">
<title>Node1&#45;&gt;Node2</title>
<path fill="none" stroke="midnightblue" d="M215.39,-110.02C174.4,-99.82 114.2,-84.84 76.72,-75.52"/>
<polygon fill="midnightblue" stroke="midnightblue" points="214.57,-113.43 225.12,-112.44 216.26,-106.63 214.57,-113.43"/>
</g>
<!-- Node3 -->
<g id="node3" class="node">
<title>Node3</title>
<g id="a_node3"><a xlink:href="k1__model_8test_8cpp.html" target="_top" xlink:title=" ">
<polygon fill="none" stroke="black" points="103,-56.5 103,-75.5 210,-75.5 210,-56.5 103,-56.5"/>
<text text-anchor="middle" x="156.5" y="-63.5" font-family="Helvetica,sans-Serif" font-size="10.00">k1_model.test.cpp</text>
</a>
</g>
</g>
<!-- Node1&#45;&gt;Node3 -->
<g id="edge2" class="edge">
<title>Node1&#45;&gt;Node3</title>
<path fill="none" stroke="midnightblue" d="M233.92,-107.59C214.88,-97.61 189.44,-84.27 173.01,-75.65"/>
<polygon fill="midnightblue" stroke="midnightblue" points="232.47,-110.78 242.95,-112.32 235.72,-104.58 232.47,-110.78"/>
</g>
<!-- Node4 -->
<g id="node4" class="node">
<title>Node4</title>
<g id="a_node4"><a xlink:href="tests_2ktl__model__scoring_2main_8cpp.html" target="_top" xlink:title=" ">
<polygon fill="none" stroke="black" points="228.5,-56.5 228.5,-75.5 290.5,-75.5 290.5,-56.5 228.5,-56.5"/>
<text text-anchor="middle" x="259.5" y="-63.5" font-family="Helvetica,sans-Serif" font-size="10.00">main.cpp</text>
</a>
</g>
</g>
<!-- Node1&#45;&gt;Node4 -->
<g id="edge3" class="edge">
<title>Node1&#45;&gt;Node4</title>
<path fill="none" stroke="midnightblue" d="M259.5,-101.8C259.5,-92.91 259.5,-82.78 259.5,-75.75"/>
<polygon fill="midnightblue" stroke="midnightblue" points="256,-102.08 259.5,-112.08 263,-102.08 256,-102.08"/>
</g>
<!-- Node5 -->
<g id="node5" class="node">
<title>Node5</title>
<g id="a_node5"><a xlink:href="translation__layer_8cpp.html" target="_top" xlink:title=" ">
<polygon fill="none" stroke="black" points="248,-0.5 248,-19.5 367,-19.5 367,-0.5 248,-0.5"/>
<text text-anchor="middle" x="307.5" y="-7.5" font-family="Helvetica,sans-Serif" font-size="10.00">translation_layer.cpp</text>
</a>
</g>
</g>
<!-- Node1&#45;&gt;Node5 -->
<g id="edge4" class="edge">
<title>Node1&#45;&gt;Node5</title>
<path fill="none" stroke="midnightblue" d="M277.93,-105.16C285.9,-97.24 294.53,-87 299.5,-76 307.93,-57.35 308.46,-32.79 308.03,-19.85"/>
<polygon fill="midnightblue" stroke="midnightblue" points="275.25,-102.86 270.33,-112.25 280.03,-107.98 275.25,-102.86"/>
</g>
<!-- Node6 -->
<g id="node6" class="node">
<title>Node6</title>
<g id="a_node6"><a xlink:href="translation__layer_8hpp.html" target="_top" xlink:title=" ">
<polygon fill="none" stroke="black" points="357,-56.5 357,-75.5 476,-75.5 476,-56.5 357,-56.5"/>
<text text-anchor="middle" x="416.5" y="-63.5" font-family="Helvetica,sans-Serif" font-size="10.00">translation_layer.hpp</text>
</a>
</g>
</g>
<!-- Node1&#45;&gt;Node6 -->
<g id="edge5" class="edge">
<title>Node1&#45;&gt;Node6</title>
<path fill="none" stroke="midnightblue" d="M293.89,-109.17C323.45,-99 365.37,-84.59 391.74,-75.52"/>
<polygon fill="midnightblue" stroke="midnightblue" points="292.7,-105.88 284.38,-112.44 294.97,-112.5 292.7,-105.88"/>
</g>
<!-- Node6&#45;&gt;Node5 -->
<g id="edge8" class="edge">
<title>Node6&#45;&gt;Node5</title>
<path fill="none" stroke="midnightblue" d="M389.98,-51.86C369.77,-41.85 342.51,-28.35 324.97,-19.65"/>
<polygon fill="midnightblue" stroke="midnightblue" points="388.47,-55.02 398.99,-56.32 391.58,-48.75 388.47,-55.02"/>
</g>
<!-- Node7 -->
<g id="node7" class="node">
<title>Node7</title>
<g id="a_node7"><a xlink:href="src_2kazoo__connect__server_2main_8cpp.html" target="_top" xlink:title=" ">
<polygon fill="none" stroke="black" points="385.5,-0.5 385.5,-19.5 447.5,-19.5 447.5,-0.5 385.5,-0.5"/>
<text text-anchor="middle" x="416.5" y="-7.5" font-family="Helvetica,sans-Serif" font-size="10.00">main.cpp</text>
</a>
</g>
</g>
<!-- Node6&#45;&gt;Node7 -->
<g id="edge6" class="edge">
<title>Node6&#45;&gt;Node7</title>
<path fill="none" stroke="midnightblue" d="M416.5,-45.8C416.5,-36.91 416.5,-26.78 416.5,-19.75"/>
<polygon fill="midnightblue" stroke="midnightblue" points="413,-46.08 416.5,-56.08 420,-46.08 413,-46.08"/>
</g>
<!-- Node8 -->
<g id="node8" class="node">
<title>Node8</title>
<g id="a_node8"><a xlink:href="src_2main_8cpp.html" target="_top" xlink:title=" ">
<polygon fill="none" stroke="black" points="465.5,-0.5 465.5,-19.5 527.5,-19.5 527.5,-0.5 465.5,-0.5"/>
<text text-anchor="middle" x="496.5" y="-7.5" font-family="Helvetica,sans-Serif" font-size="10.00">main.cpp</text>
</a>
</g>
</g>
<!-- Node6&#45;&gt;Node8 -->
<g id="edge7" class="edge">
<title>Node6&#45;&gt;Node8</title>
<path fill="none" stroke="midnightblue" d="M437.8,-50.62C452.42,-40.76 471.33,-27.99 483.68,-19.65"/>
<polygon fill="midnightblue" stroke="midnightblue" points="435.68,-47.83 429.35,-56.32 439.6,-53.63 435.68,-47.83"/>
</g>
<!-- Node9 -->
<g id="node9" class="node">
<title>Node9</title>
<g id="a_node9"><a xlink:href="translation__layer_8test_8cpp.html" target="_top" xlink:title=" ">
<polygon fill="none" stroke="black" points="545.5,-0.5 545.5,-19.5 685.5,-19.5 685.5,-0.5 545.5,-0.5"/>
<text text-anchor="middle" x="615.5" y="-7.5" font-family="Helvetica,sans-Serif" font-size="10.00">translation_layer.test.cpp</text>
</a>
</g>
</g>
<!-- Node6&#45;&gt;Node9 -->
<g id="edge9" class="edge">
<title>Node6&#45;&gt;Node9</title>
<path fill="none" stroke="midnightblue" d="M458.15,-53.7C495.71,-43.51 550.11,-28.74 584.12,-19.52"/>
<polygon fill="midnightblue" stroke="midnightblue" points="456.77,-50.45 448.03,-56.44 458.6,-57.2 456.77,-50.45"/>
</g>
</g>
</svg>
