<?xml version="1.0" encoding="UTF-8" standalone="no"?>
<!DOCTYPE svg PUBLIC "-//W3C//DTD SVG 1.1//EN"
 "http://www.w3.org/Graphics/SVG/1.1/DTD/svg11.dtd">
<!-- Generated by graphviz version 2.43.0 (0)
 -->
<!-- Title: k2_model.hpp Pages: 1 -->
<svg width="2233pt" height="364pt"
 viewBox="0.00 0.00 2233.29 364.00" xmlns="http://www.w3.org/2000/svg" xmlns:xlink="http://www.w3.org/1999/xlink">
<g id="graph0" class="graph" transform="scale(1 1) rotate(0) translate(4 360)">
<title>k2_model.hpp</title>
<!-- Node1 -->
<g id="node1" class="node">
<title>Node1</title>
<g id="a_node1"><a xlink:title=" ">
<polygon fill="#bfbfbf" stroke="black" points="843.29,-336.5 843.29,-355.5 929.29,-355.5 929.29,-336.5 843.29,-336.5"/>
<text text-anchor="middle" x="886.29" y="-343.5" font-family="Helvetica,sans-Serif" font-size="10.00">k2_model.hpp</text>
</a>
</g>
</g>
<!-- Node2 -->
<g id="node2" class="node">
<title>Node2</title>
<g id="a_node2"><a xlink:title=" ">
<polygon fill="none" stroke="#bfbfbf" points="13.29,-112.5 13.29,-131.5 77.29,-131.5 77.29,-112.5 13.29,-112.5"/>
<text text-anchor="middle" x="45.29" y="-119.5" font-family="Helvetica,sans-Serif" font-size="10.00">algorithm</text>
</a>
</g>
</g>
<!-- Node1&#45;&gt;Node2 -->
<g id="edge1" class="edge">
<title>Node1&#45;&gt;Node2</title>
<path fill="none" stroke="midnightblue" d="M843.24,-343.63C734.65,-339.82 451.88,-327.46 362.29,-300 240,-262.51 112.41,-173.24 64.75,-137.84"/>
<polygon fill="midnightblue" stroke="midnightblue" points="66.66,-134.89 56.56,-131.69 62.46,-140.49 66.66,-134.89"/>
</g>
<!-- Node3 -->
<g id="node3" class="node">
<title>Node3</title>
<g id="a_node3"><a xlink:href="assert_8hpp.html" target="_top" xlink:title=" ">
<polygon fill="none" stroke="black" points="860.79,-56.5 860.79,-75.5 973.79,-75.5 973.79,-56.5 860.79,-56.5"/>
<text text-anchor="middle" x="917.29" y="-63.5" font-family="Helvetica,sans-Serif" font-size="10.00">common/assert.hpp</text>
</a>
</g>
</g>
<!-- Node1&#45;&gt;Node3 -->
<g id="edge2" class="edge">
<title>Node1&#45;&gt;Node3</title>
<path fill="none" stroke="midnightblue" d="M843.25,-344.36C724.56,-341.45 401.29,-325.23 401.29,-235 401.29,-235 401.29,-235 401.29,-177 401.29,-146.77 397.82,-131.04 421.29,-112 453.91,-85.55 722.58,-73.33 850.31,-68.98"/>
<polygon fill="midnightblue" stroke="midnightblue" points="850.5,-72.47 860.37,-68.64 850.26,-65.48 850.5,-72.47"/>
</g>
<!-- Node5 -->
<g id="node5" class="node">
<title>Node5</title>
<g id="a_node5"><a xlink:href="fft_8hpp.html" target="_top" xlink:title=" ">
<polygon fill="none" stroke="black" points="279.29,-168.5 279.29,-187.5 373.29,-187.5 373.29,-168.5 279.29,-168.5"/>
<text text-anchor="middle" x="326.29" y="-175.5" font-family="Helvetica,sans-Serif" font-size="10.00">ktl/audio/fft.hpp</text>
</a>
</g>
</g>
<!-- Node1&#45;&gt;Node5 -->
<g id="edge4" class="edge">
<title>Node1&#45;&gt;Node5</title>
<path fill="none" stroke="midnightblue" d="M842.95,-343.48C728.54,-339.14 424.57,-325.33 387.29,-300 351.89,-275.94 336,-224.97 329.77,-197.48"/>
<polygon fill="midnightblue" stroke="midnightblue" points="333.17,-196.67 327.72,-187.59 326.32,-198.1 333.17,-196.67"/>
</g>
<!-- Node18 -->
<g id="node18" class="node">
<title>Node18</title>
<g id="a_node18"><a xlink:href="wave__tools_8hpp.html" target="_top" xlink:title=" ">
<polygon fill="none" stroke="black" points="546.79,-168.5 546.79,-187.5 685.79,-187.5 685.79,-168.5 546.79,-168.5"/>
<text text-anchor="middle" x="616.29" y="-175.5" font-family="Helvetica,sans-Serif" font-size="10.00">ktl/audio/wave_tools.hpp</text>
</a>
</g>
</g>
<!-- Node1&#45;&gt;Node18 -->
<g id="edge22" class="edge">
<title>Node1&#45;&gt;Node18</title>
<path fill="none" stroke="midnightblue" d="M872.16,-336.31C828.14,-309.25 693.27,-226.32 639.13,-193.04"/>
<polygon fill="midnightblue" stroke="midnightblue" points="640.64,-189.86 630.29,-187.61 636.98,-195.82 640.64,-189.86"/>
</g>
<!-- Node20 -->
<g id="node20" class="node">
<title>Node20</title>
<g id="a_node20"><a xlink:href="encoder_8hpp.html" target="_top" xlink:title=" ">
<polygon fill="none" stroke="black" points="860.29,-280.5 860.29,-299.5 952.29,-299.5 952.29,-280.5 860.29,-280.5"/>
<text text-anchor="middle" x="906.29" y="-287.5" font-family="Helvetica,sans-Serif" font-size="10.00">ktl/encoder.hpp</text>
</a>
</g>
</g>
<!-- Node1&#45;&gt;Node20 -->
<g id="edge27" class="edge">
<title>Node1&#45;&gt;Node20</title>
<path fill="none" stroke="midnightblue" d="M889.6,-336.08C892.28,-328.85 896.14,-318.41 899.48,-309.4"/>
<polygon fill="midnightblue" stroke="midnightblue" points="902.86,-310.34 903.05,-299.75 896.3,-307.91 902.86,-310.34"/>
</g>
<!-- Node24 -->
<g id="node24" class="node">
<title>Node24</title>
<g id="a_node24"><a xlink:href="symbol__stream_8hpp.html" target="_top" xlink:title=" ">
<polygon fill="none" stroke="black" points="1050.79,-224.5 1050.79,-243.5 1179.79,-243.5 1179.79,-224.5 1050.79,-224.5"/>
<text text-anchor="middle" x="1115.29" y="-231.5" font-family="Helvetica,sans-Serif" font-size="10.00">ktl/symbol_stream.hpp</text>
</a>
</g>
</g>
<!-- Node1&#45;&gt;Node24 -->
<g id="edge77" class="edge">
<title>Node1&#45;&gt;Node24</title>
<path fill="none" stroke="midnightblue" d="M904.26,-336.37C944.31,-317.13 1041.08,-270.65 1088.37,-247.93"/>
<polygon fill="midnightblue" stroke="midnightblue" points="1089.91,-251.08 1097.41,-243.59 1086.88,-244.77 1089.91,-251.08"/>
</g>
<!-- Node30 -->
<g id="node30" class="node">
<title>Node30</title>
<g id="a_node30"><a xlink:href="symbol__model_8hpp.html" target="_top" xlink:title=" ">
<polygon fill="none" stroke="black" points="1410.29,-168.5 1410.29,-187.5 1574.29,-187.5 1574.29,-168.5 1410.29,-168.5"/>
<text text-anchor="middle" x="1492.29" y="-175.5" font-family="Helvetica,sans-Serif" font-size="10.00">ktl/models/symbol_model.hpp</text>
</a>
</g>
</g>
<!-- Node1&#45;&gt;Node30 -->
<g id="edge76" class="edge">
<title>Node1&#45;&gt;Node30</title>
<path fill="none" stroke="midnightblue" d="M917.6,-336.42C1018.88,-308.68 1337.67,-221.36 1451.45,-190.19"/>
<polygon fill="midnightblue" stroke="midnightblue" points="1452.46,-193.54 1461.18,-187.52 1450.61,-186.79 1452.46,-193.54"/>
</g>
<!-- Node33 -->
<g id="node33" class="node">
<title>Node33</title>
<g id="a_node33"><a xlink:href="k2__pcm_8hpp.html" target="_top" xlink:title=" ">
<polygon fill="none" stroke="black" points="1738.29,-168.5 1738.29,-187.5 1884.29,-187.5 1884.29,-168.5 1738.29,-168.5"/>
<text text-anchor="middle" x="1811.29" y="-175.5" font-family="Helvetica,sans-Serif" font-size="10.00">ktl/models/k2/k2_pcm.hpp</text>
</a>
</g>
</g>
<!-- Node1&#45;&gt;Node33 -->
<g id="edge72" class="edge">
<title>Node1&#45;&gt;Node33</title>
<path fill="none" stroke="midnightblue" d="M929.36,-337.27C1079.92,-310.25 1582.81,-220 1753.81,-189.32"/>
<polygon fill="midnightblue" stroke="midnightblue" points="1754.64,-192.72 1763.87,-187.51 1753.41,-185.83 1754.64,-192.72"/>
</g>
<!-- Node4 -->
<g id="node4" class="node">
<title>Node4</title>
<g id="a_node4"><a xlink:title=" ">
<polygon fill="none" stroke="#bfbfbf" points="895.29,-0.5 895.29,-19.5 939.29,-19.5 939.29,-0.5 895.29,-0.5"/>
<text text-anchor="middle" x="917.29" y="-7.5" font-family="Helvetica,sans-Serif" font-size="10.00">string</text>
</a>
</g>
</g>
<!-- Node3&#45;&gt;Node4 -->
<g id="edge3" class="edge">
<title>Node3&#45;&gt;Node4</title>
<path fill="none" stroke="midnightblue" d="M917.29,-56.08C917.29,-49.01 917.29,-38.86 917.29,-29.99"/>
<polygon fill="midnightblue" stroke="midnightblue" points="920.79,-29.75 917.29,-19.75 913.79,-29.75 920.79,-29.75"/>
</g>
<!-- Node5&#45;&gt;Node2 -->
<g id="edge5" class="edge">
<title>Node5&#45;&gt;Node2</title>
<path fill="none" stroke="midnightblue" d="M281.23,-168.43C233.92,-159.41 157.36,-144.79 91.29,-132 90.04,-131.76 88.76,-131.51 87.47,-131.26"/>
<polygon fill="midnightblue" stroke="midnightblue" points="87.95,-127.79 77.46,-129.31 86.61,-134.66 87.95,-127.79"/>
</g>
<!-- Node5&#45;&gt;Node3 -->
<g id="edge21" class="edge">
<title>Node5&#45;&gt;Node3</title>
<path fill="none" stroke="midnightblue" d="M331.38,-168.36C340.49,-153.79 361.11,-124.68 387.29,-112 467.33,-73.25 726.89,-67.33 850.58,-66.78"/>
<polygon fill="midnightblue" stroke="midnightblue" points="850.69,-70.28 860.68,-66.75 850.67,-63.28 850.69,-70.28"/>
</g>
<!-- Node6 -->
<g id="node6" class="node">
<title>Node6</title>
<g id="a_node6"><a xlink:title=" ">
<polygon fill="none" stroke="#bfbfbf" points="637.79,-112.5 637.79,-131.5 684.79,-131.5 684.79,-112.5 637.79,-112.5"/>
<text text-anchor="middle" x="661.29" y="-119.5" font-family="Helvetica,sans-Serif" font-size="10.00">cmath</text>
</a>
</g>
</g>
<!-- Node5&#45;&gt;Node6 -->
<g id="edge6" class="edge">
<title>Node5&#45;&gt;Node6</title>
<path fill="none" stroke="midnightblue" d="M373.42,-171.73C431.12,-164.89 531.96,-151.69 627.73,-131.89"/>
<polygon fill="midnightblue" stroke="midnightblue" points="628.51,-135.3 637.58,-129.83 627.08,-128.45 628.51,-135.3"/>
</g>
<!-- Node7 -->
<g id="node7" class="node">
<title>Node7</title>
<g id="a_node7"><a xlink:title=" ">
<polygon fill="none" stroke="#bfbfbf" points="133.79,-112.5 133.79,-131.5 192.79,-131.5 192.79,-112.5 133.79,-112.5"/>
<text text-anchor="middle" x="163.29" y="-119.5" font-family="Helvetica,sans-Serif" font-size="10.00">complex</text>
</a>
</g>
</g>
<!-- Node5&#45;&gt;Node7 -->
<g id="edge7" class="edge">
<title>Node5&#45;&gt;Node7</title>
<path fill="none" stroke="midnightblue" d="M300.47,-168.44C273.04,-159.36 229.52,-144.94 198.86,-134.78"/>
<polygon fill="midnightblue" stroke="midnightblue" points="199.59,-131.34 189,-131.52 197.39,-137.98 199.59,-131.34"/>
</g>
<!-- Node8 -->
<g id="node8" class="node">
<title>Node8</title>
<g id="a_node8"><a xlink:title=" ">
<polygon fill="none" stroke="#bfbfbf" points="211.29,-112.5 211.29,-131.5 261.29,-131.5 261.29,-112.5 211.29,-112.5"/>
<text text-anchor="middle" x="236.29" y="-119.5" font-family="Helvetica,sans-Serif" font-size="10.00">fftw3.h</text>
</a>
</g>
</g>
<!-- Node5&#45;&gt;Node8 -->
<g id="edge8" class="edge">
<title>Node5&#45;&gt;Node8</title>
<path fill="none" stroke="midnightblue" d="M311.83,-168.32C297.79,-159.9 276.25,-146.97 259.75,-137.07"/>
<polygon fill="midnightblue" stroke="midnightblue" points="261.09,-133.8 250.72,-131.65 257.49,-139.8 261.09,-133.8"/>
</g>
<!-- Node9 -->
<g id="node9" class="node">
<title>Node9</title>
<g id="a_node9"><a xlink:title=" ">
<polygon fill="none" stroke="#bfbfbf" points="279.79,-112.5 279.79,-131.5 334.79,-131.5 334.79,-112.5 279.79,-112.5"/>
<text text-anchor="middle" x="307.29" y="-119.5" font-family="Helvetica,sans-Serif" font-size="10.00">fstream</text>
</a>
</g>
</g>
<!-- Node5&#45;&gt;Node9 -->
<g id="edge9" class="edge">
<title>Node5&#45;&gt;Node9</title>
<path fill="none" stroke="midnightblue" d="M323.16,-168.08C320.61,-160.85 316.94,-150.41 313.77,-141.4"/>
<polygon fill="midnightblue" stroke="midnightblue" points="316.99,-140.02 310.37,-131.75 310.39,-142.35 316.99,-140.02"/>
</g>
<!-- Node10 -->
<g id="node10" class="node">
<title>Node10</title>
<g id="a_node10"><a xlink:title=" ">
<polygon fill="none" stroke="#bfbfbf" points="1155.29,-112.5 1155.29,-131.5 1215.29,-131.5 1215.29,-112.5 1155.29,-112.5"/>
<text text-anchor="middle" x="1185.29" y="-119.5" font-family="Helvetica,sans-Serif" font-size="10.00">iostream</text>
</a>
</g>
</g>
<!-- Node5&#45;&gt;Node10 -->
<g id="edge10" class="edge">
<title>Node5&#45;&gt;Node10</title>
<path fill="none" stroke="midnightblue" d="M373.32,-174.45C490.86,-168 806.95,-150.27 1070.29,-132 1095.13,-130.28 1122.96,-128.11 1145.03,-126.33"/>
<polygon fill="midnightblue" stroke="midnightblue" points="1145.35,-129.81 1155.04,-125.51 1144.79,-122.83 1145.35,-129.81"/>
</g>
<!-- Node11 -->
<g id="node11" class="node">
<title>Node11</title>
<g id="a_node11"><a xlink:title=" ">
<polygon fill="none" stroke="#bfbfbf" points="439.29,-56.5 439.29,-75.5 479.29,-75.5 479.29,-56.5 439.29,-56.5"/>
<text text-anchor="middle" x="459.29" y="-63.5" font-family="Helvetica,sans-Serif" font-size="10.00">span</text>
</a>
</g>
</g>
<!-- Node5&#45;&gt;Node11 -->
<g id="edge11" class="edge">
<title>Node5&#45;&gt;Node11</title>
<path fill="none" stroke="midnightblue" d="M279.22,-173.2C225.72,-167.78 143.34,-155.76 124.29,-132 118.73,-125.06 118.44,-118.69 124.29,-112 163.79,-66.85 353.86,-65.11 428.81,-66.25"/>
<polygon fill="midnightblue" stroke="midnightblue" points="428.94,-69.75 439,-66.43 429.07,-62.75 428.94,-69.75"/>
</g>
<!-- Node12 -->
<g id="node12" class="node">
<title>Node12</title>
<g id="a_node12"><a xlink:href="audio__channel_8hpp.html" target="_top" xlink:title=" ">
<polygon fill="none" stroke="black" points="953.29,-112.5 953.29,-131.5 1061.29,-131.5 1061.29,-112.5 953.29,-112.5"/>
<text text-anchor="middle" x="1007.29" y="-119.5" font-family="Helvetica,sans-Serif" font-size="10.00">audio_channel.hpp</text>
</a>
</g>
</g>
<!-- Node5&#45;&gt;Node12 -->
<g id="edge12" class="edge">
<title>Node5&#45;&gt;Node12</title>
<path fill="none" stroke="midnightblue" d="M373.37,-173.27C492.65,-163.81 806.89,-138.89 942.96,-128.1"/>
<polygon fill="midnightblue" stroke="midnightblue" points="943.54,-131.57 953.23,-127.29 942.98,-124.59 943.54,-131.57"/>
</g>
<!-- Node17 -->
<g id="node17" class="node">
<title>Node17</title>
<g id="a_node17"><a xlink:href="audio__constants_8hpp.html" target="_top" xlink:title=" ">
<polygon fill="none" stroke="black" points="429.79,-112.5 429.79,-131.5 546.79,-131.5 546.79,-112.5 429.79,-112.5"/>
<text text-anchor="middle" x="488.29" y="-119.5" font-family="Helvetica,sans-Serif" font-size="10.00">audio_constants.hpp</text>
</a>
</g>
</g>
<!-- Node5&#45;&gt;Node17 -->
<g id="edge19" class="edge">
<title>Node5&#45;&gt;Node17</title>
<path fill="none" stroke="midnightblue" d="M351.96,-168.44C379.22,-159.36 422.48,-144.94 452.94,-134.78"/>
<polygon fill="midnightblue" stroke="midnightblue" points="454.36,-138 462.74,-131.52 452.15,-131.36 454.36,-138"/>
</g>
<!-- Node12&#45;&gt;Node3 -->
<g id="edge18" class="edge">
<title>Node12&#45;&gt;Node3</title>
<path fill="none" stroke="midnightblue" d="M992.83,-112.32C978.79,-103.9 957.25,-90.97 940.75,-81.07"/>
<polygon fill="midnightblue" stroke="midnightblue" points="942.09,-77.8 931.72,-75.65 938.49,-83.8 942.09,-77.8"/>
</g>
<!-- Node12&#45;&gt;Node11 -->
<g id="edge16" class="edge">
<title>Node12&#45;&gt;Node11</title>
<path fill="none" stroke="midnightblue" d="M953.25,-115.67C839.46,-104.46 578.34,-78.73 489.52,-69.98"/>
<polygon fill="midnightblue" stroke="midnightblue" points="489.62,-66.47 479.33,-68.97 488.93,-73.44 489.62,-66.47"/>
</g>
<!-- Node13 -->
<g id="node13" class="node">
<title>Node13</title>
<g id="a_node13"><a xlink:title=" ">
<polygon fill="none" stroke="#bfbfbf" points="1869.29,-56.5 1869.29,-75.5 1911.29,-75.5 1911.29,-56.5 1869.29,-56.5"/>
<text text-anchor="middle" x="1890.29" y="-63.5" font-family="Helvetica,sans-Serif" font-size="10.00">array</text>
</a>
</g>
</g>
<!-- Node12&#45;&gt;Node13 -->
<g id="edge13" class="edge">
<title>Node12&#45;&gt;Node13</title>
<path fill="none" stroke="midnightblue" d="M1061.42,-117.44C1087.13,-115.77 1118.3,-113.75 1146.29,-112 1422.62,-94.7 1756.74,-74.88 1859.04,-68.84"/>
<polygon fill="midnightblue" stroke="midnightblue" points="1859.51,-72.32 1869.28,-68.24 1859.1,-65.33 1859.51,-72.32"/>
</g>
<!-- Node14 -->
<g id="node14" class="node">
<title>Node14</title>
<g id="a_node14"><a xlink:title=" ">
<polygon fill="none" stroke="#bfbfbf" points="1467.29,-56.5 1467.29,-75.5 1517.29,-75.5 1517.29,-56.5 1467.29,-56.5"/>
<text text-anchor="middle" x="1492.29" y="-63.5" font-family="Helvetica,sans-Serif" font-size="10.00">cstdint</text>
</a>
</g>
</g>
<!-- Node12&#45;&gt;Node14 -->
<g id="edge14" class="edge">
<title>Node12&#45;&gt;Node14</title>
<path fill="none" stroke="midnightblue" d="M1061.52,-114.96C1161.79,-103.8 1373.58,-80.22 1457.24,-70.9"/>
<polygon fill="midnightblue" stroke="midnightblue" points="1457.7,-74.37 1467.25,-69.79 1456.92,-67.42 1457.7,-74.37"/>
</g>
<!-- Node15 -->
<g id="node15" class="node">
<title>Node15</title>
<g id="a_node15"><a xlink:title=" ">
<polygon fill="none" stroke="#bfbfbf" points="991.79,-56.5 991.79,-75.5 1038.79,-75.5 1038.79,-56.5 991.79,-56.5"/>
<text text-anchor="middle" x="1015.29" y="-63.5" font-family="Helvetica,sans-Serif" font-size="10.00">deque</text>
</a>
</g>
</g>
<!-- Node12&#45;&gt;Node15 -->
<g id="edge15" class="edge">
<title>Node12&#45;&gt;Node15</title>
<path fill="none" stroke="midnightblue" d="M1008.62,-112.08C1009.68,-104.93 1011.2,-94.64 1012.53,-85.69"/>
<polygon fill="midnightblue" stroke="midnightblue" points="1015.99,-86.16 1014,-75.75 1009.07,-85.13 1015.99,-86.16"/>
</g>
<!-- Node16 -->
<g id="node16" class="node">
<title>Node16</title>
<g id="a_node16"><a xlink:title=" ">
<polygon fill="none" stroke="#bfbfbf" points="1103.79,-56.5 1103.79,-75.5 1150.79,-75.5 1150.79,-56.5 1103.79,-56.5"/>
<text text-anchor="middle" x="1127.29" y="-63.5" font-family="Helvetica,sans-Serif" font-size="10.00">vector</text>
</a>
</g>
</g>
<!-- Node12&#45;&gt;Node16 -->
<g id="edge17" class="edge">
<title>Node12&#45;&gt;Node16</title>
<path fill="none" stroke="midnightblue" d="M1026.31,-112.44C1045.88,-103.64 1076.6,-89.81 1099.02,-79.72"/>
<polygon fill="midnightblue" stroke="midnightblue" points="1100.69,-82.81 1108.37,-75.52 1097.81,-76.43 1100.69,-82.81"/>
</g>
<!-- Node17&#45;&gt;Node14 -->
<g id="edge20" class="edge">
<title>Node17&#45;&gt;Node14</title>
<path fill="none" stroke="midnightblue" d="M546.86,-112.93C550.05,-112.59 553.21,-112.28 556.29,-112 907,-80.42 1333.76,-70.07 1457.27,-67.63"/>
<polygon fill="midnightblue" stroke="midnightblue" points="1457.36,-71.13 1467.29,-67.44 1457.23,-64.13 1457.36,-71.13"/>
</g>
<!-- Node18&#45;&gt;Node6 -->
<g id="edge23" class="edge">
<title>Node18&#45;&gt;Node6</title>
<path fill="none" stroke="midnightblue" d="M623.73,-168.08C630.15,-160.38 639.6,-149.03 647.42,-139.65"/>
<polygon fill="midnightblue" stroke="midnightblue" points="650.29,-141.67 654,-131.75 644.91,-137.19 650.29,-141.67"/>
</g>
<!-- Node18&#45;&gt;Node12 -->
<g id="edge25" class="edge">
<title>Node18&#45;&gt;Node12</title>
<path fill="none" stroke="midnightblue" d="M678.25,-168.44C750.64,-158.45 869.83,-141.98 943.15,-131.86"/>
<polygon fill="midnightblue" stroke="midnightblue" points="943.76,-135.31 953.18,-130.47 942.8,-128.37 943.76,-135.31"/>
</g>
<!-- Node18&#45;&gt;Node17 -->
<g id="edge26" class="edge">
<title>Node18&#45;&gt;Node17</title>
<path fill="none" stroke="midnightblue" d="M596.01,-168.44C574.95,-159.56 541.78,-145.56 517.81,-135.45"/>
<polygon fill="midnightblue" stroke="midnightblue" points="519.06,-132.18 508.48,-131.52 516.33,-138.63 519.06,-132.18"/>
</g>
<!-- Node19 -->
<g id="node19" class="node">
<title>Node19</title>
<g id="a_node19"><a xlink:title=" ">
<polygon fill="none" stroke="#bfbfbf" points="565.29,-112.5 565.29,-131.5 619.29,-131.5 619.29,-112.5 565.29,-112.5"/>
<text text-anchor="middle" x="592.29" y="-119.5" font-family="Helvetica,sans-Serif" font-size="10.00">random</text>
</a>
</g>
</g>
<!-- Node18&#45;&gt;Node19 -->
<g id="edge24" class="edge">
<title>Node18&#45;&gt;Node19</title>
<path fill="none" stroke="midnightblue" d="M612.33,-168.08C609.08,-160.77 604.37,-150.18 600.34,-141.1"/>
<polygon fill="midnightblue" stroke="midnightblue" points="603.44,-139.47 596.18,-131.75 597.05,-142.31 603.44,-139.47"/>
</g>
<!-- Node20&#45;&gt;Node11 -->
<g id="edge28" class="edge">
<title>Node20&#45;&gt;Node11</title>
<path fill="none" stroke="midnightblue" d="M860.2,-288.91C690.72,-287.45 106.62,-272.18 4.29,-132 -0.95,-124.82 -1.67,-118.59 4.29,-112 32.84,-80.5 332.21,-70.21 429.17,-67.69"/>
<polygon fill="midnightblue" stroke="midnightblue" points="429.29,-71.19 439.2,-67.44 429.11,-64.19 429.29,-71.19"/>
</g>
<!-- Node20&#45;&gt;Node12 -->
<g id="edge29" class="edge">
<title>Node20&#45;&gt;Node12</title>
<path fill="none" stroke="midnightblue" d="M911.72,-280.08C927.83,-253.61 975.53,-175.21 996.82,-140.21"/>
<polygon fill="midnightblue" stroke="midnightblue" points="999.87,-141.93 1002.08,-131.57 993.89,-138.29 999.87,-141.93"/>
</g>
<!-- Node21 -->
<g id="node21" class="node">
<title>Node21</title>
<g id="a_node21"><a xlink:href="kazoo__pcm_8hpp.html" target="_top" xlink:title=" ">
<polygon fill="none" stroke="black" points="1821.29,-112.5 1821.29,-131.5 1959.29,-131.5 1959.29,-112.5 1821.29,-112.5"/>
<text text-anchor="middle" x="1890.29" y="-119.5" font-family="Helvetica,sans-Serif" font-size="10.00">ktl/audio/kazoo_pcm.hpp</text>
</a>
</g>
</g>
<!-- Node20&#45;&gt;Node21 -->
<g id="edge30" class="edge">
<title>Node20&#45;&gt;Node21</title>
<path fill="none" stroke="midnightblue" d="M952.39,-287.83C1138.73,-282.64 1829.45,-258.72 1893.29,-188 1904.39,-175.71 1901.8,-156.17 1897.55,-141.72"/>
<polygon fill="midnightblue" stroke="midnightblue" points="1900.73,-140.2 1894.18,-131.87 1894.1,-142.47 1900.73,-140.2"/>
</g>
<!-- Node22 -->
<g id="node22" class="node">
<title>Node22</title>
<g id="a_node22"><a xlink:href="encoder__context_8hpp.html" target="_top" xlink:title=" ">
<polygon fill="none" stroke="black" points="2091.29,-112.5 2091.29,-131.5 2225.29,-131.5 2225.29,-112.5 2091.29,-112.5"/>
<text text-anchor="middle" x="2158.29" y="-119.5" font-family="Helvetica,sans-Serif" font-size="10.00">ktl/encoder_context.hpp</text>
</a>
</g>
</g>
<!-- Node20&#45;&gt;Node22 -->
<g id="edge33" class="edge">
<title>Node20&#45;&gt;Node22</title>
<path fill="none" stroke="midnightblue" d="M952.38,-287.9C1104.18,-284.07 1587.61,-270.08 1741.29,-244 1888.28,-219.05 2057.04,-160.43 2126.2,-135.06"/>
<polygon fill="midnightblue" stroke="midnightblue" points="2127.5,-138.31 2135.67,-131.57 2125.08,-131.74 2127.5,-138.31"/>
</g>
<!-- Node20&#45;&gt;Node24 -->
<g id="edge35" class="edge">
<title>Node20&#45;&gt;Node24</title>
<path fill="none" stroke="midnightblue" d="M939.41,-280.44C975.41,-271.14 1033.06,-256.25 1072.48,-246.06"/>
<polygon fill="midnightblue" stroke="midnightblue" points="1073.53,-249.41 1082.33,-243.52 1071.77,-242.63 1073.53,-249.41"/>
</g>
<!-- Node21&#45;&gt;Node13 -->
<g id="edge31" class="edge">
<title>Node21&#45;&gt;Node13</title>
<path fill="none" stroke="midnightblue" d="M1890.29,-112.08C1890.29,-105.01 1890.29,-94.86 1890.29,-85.99"/>
<polygon fill="midnightblue" stroke="midnightblue" points="1893.79,-85.75 1890.29,-75.75 1886.79,-85.75 1893.79,-85.75"/>
</g>
<!-- Node21&#45;&gt;Node14 -->
<g id="edge32" class="edge">
<title>Node21&#45;&gt;Node14</title>
<path fill="none" stroke="midnightblue" d="M1827.23,-112.44C1742.55,-100.95 1594.96,-80.93 1527.62,-71.79"/>
<polygon fill="midnightblue" stroke="midnightblue" points="1527.9,-68.3 1517.52,-70.42 1526.96,-75.24 1527.9,-68.3"/>
</g>
<!-- Node23 -->
<g id="node23" class="node">
<title>Node23</title>
<g id="a_node23"><a xlink:title=" ">
<polygon fill="none" stroke="#bfbfbf" points="2082.29,-56.5 2082.29,-75.5 2138.29,-75.5 2138.29,-56.5 2082.29,-56.5"/>
<text text-anchor="middle" x="2110.29" y="-63.5" font-family="Helvetica,sans-Serif" font-size="10.00">optional</text>
</a>
</g>
</g>
<!-- Node22&#45;&gt;Node23 -->
<g id="edge34" class="edge">
<title>Node22&#45;&gt;Node23</title>
<path fill="none" stroke="midnightblue" d="M2150.37,-112.08C2143.45,-104.3 2133.23,-92.8 2124.84,-83.37"/>
<polygon fill="midnightblue" stroke="midnightblue" points="2127.33,-80.9 2118.07,-75.75 2122.1,-85.55 2127.33,-80.9"/>
</g>
<!-- Node24&#45;&gt;Node2 -->
<g id="edge36" class="edge">
<title>Node24&#45;&gt;Node2</title>
<path fill="none" stroke="midnightblue" d="M1050.75,-231.47C880.17,-227.11 420.22,-213.31 270.29,-188 200.18,-176.17 120.86,-150.17 77.63,-134.88"/>
<polygon fill="midnightblue" stroke="midnightblue" points="78.81,-131.58 68.21,-131.51 76.45,-138.17 78.81,-131.58"/>
</g>
<!-- Node24&#45;&gt;Node6 -->
<g id="edge39" class="edge">
<title>Node24&#45;&gt;Node6</title>
<path fill="none" stroke="midnightblue" d="M1050.55,-231.7C981.09,-228.64 868.34,-218.83 776.29,-188 740.55,-176.03 703.3,-152.64 681.21,-137.42"/>
<polygon fill="midnightblue" stroke="midnightblue" points="683.19,-134.53 672.99,-131.65 679.17,-140.26 683.19,-134.53"/>
</g>
<!-- Node24&#45;&gt;Node13 -->
<g id="edge37" class="edge">
<title>Node24&#45;&gt;Node13</title>
<path fill="none" stroke="midnightblue" d="M1179.87,-233.31C1341.69,-233.43 1761.01,-229.61 1893.29,-188 1943.56,-172.19 2012.38,-156.59 1984.29,-112 1970.56,-90.19 1943.01,-78.72 1921.26,-72.84"/>
<polygon fill="midnightblue" stroke="midnightblue" points="1922,-69.41 1911.45,-70.44 1920.34,-76.21 1922,-69.41"/>
</g>
<!-- Node24&#45;&gt;Node14 -->
<g id="edge40" class="edge">
<title>Node24&#45;&gt;Node14</title>
<path fill="none" stroke="midnightblue" d="M1134.77,-224.42C1196.69,-197.16 1389.3,-112.35 1463.11,-79.85"/>
<polygon fill="midnightblue" stroke="midnightblue" points="1464.97,-82.86 1472.71,-75.62 1462.15,-76.45 1464.97,-82.86"/>
</g>
<!-- Node24&#45;&gt;Node15 -->
<g id="edge41" class="edge">
<title>Node24&#45;&gt;Node15</title>
<path fill="none" stroke="midnightblue" d="M1050.78,-225.99C951.34,-213.64 768.29,-184.23 732.29,-132 690.21,-70.93 617.9,-152.02 981.56,-76.15"/>
<polygon fill="midnightblue" stroke="midnightblue" points="982.55,-79.52 991.61,-74.03 981.11,-72.67 982.55,-79.52"/>
</g>
<!-- Node24&#45;&gt;Node16 -->
<g id="edge44" class="edge">
<title>Node24&#45;&gt;Node16</title>
<path fill="none" stroke="midnightblue" d="M1133.04,-224.4C1148.32,-216.41 1170.37,-203.44 1186.29,-188 1207.89,-167.07 1215.46,-160.75 1224.29,-132 1226.9,-123.5 1229.08,-119.49 1224.29,-112 1210.35,-90.15 1182.76,-78.75 1160.56,-72.9"/>
<polygon fill="midnightblue" stroke="midnightblue" points="1161.35,-69.49 1150.81,-70.58 1159.73,-76.3 1161.35,-69.49"/>
</g>
<!-- Node25 -->
<g id="node25" class="node">
<title>Node25</title>
<g id="a_node25"><a xlink:title=" ">
<polygon fill="none" stroke="#bfbfbf" points="741.29,-112.5 741.29,-131.5 785.29,-131.5 785.29,-112.5 741.29,-112.5"/>
<text text-anchor="middle" x="763.29" y="-119.5" font-family="Helvetica,sans-Serif" font-size="10.00">bitset</text>
</a>
</g>
</g>
<!-- Node24&#45;&gt;Node25 -->
<g id="edge38" class="edge">
<title>Node24&#45;&gt;Node25</title>
<path fill="none" stroke="midnightblue" d="M1078.78,-224.47C1043.78,-216.04 989.57,-202.38 943.29,-188 890.36,-171.56 829.98,-148.94 794.34,-135.18"/>
<polygon fill="midnightblue" stroke="midnightblue" points="795.56,-131.9 784.97,-131.55 793.03,-138.43 795.56,-131.9"/>
</g>
<!-- Node26 -->
<g id="node26" class="node">
<title>Node26</title>
<g id="a_node26"><a xlink:title=" ">
<polygon fill="none" stroke="#bfbfbf" points="1617.29,-112.5 1617.29,-131.5 1655.29,-131.5 1655.29,-112.5 1617.29,-112.5"/>
<text text-anchor="middle" x="1636.29" y="-119.5" font-family="Helvetica,sans-Serif" font-size="10.00">map</text>
</a>
</g>
</g>
<!-- Node24&#45;&gt;Node26 -->
<g id="edge42" class="edge">
<title>Node24&#45;&gt;Node26</title>
<path fill="none" stroke="midnightblue" d="M1179.82,-232.85C1291.43,-231.61 1515.1,-224.49 1583.29,-188 1603.09,-177.41 1618.27,-155.99 1627.21,-140.63"/>
<polygon fill="midnightblue" stroke="midnightblue" points="1630.43,-142.04 1632.17,-131.59 1624.29,-138.67 1630.43,-142.04"/>
</g>
<!-- Node27 -->
<g id="node27" class="node">
<title>Node27</title>
<g id="a_node27"><a xlink:title=" ">
<polygon fill="none" stroke="#bfbfbf" points="803.29,-112.5 803.29,-131.5 859.29,-131.5 859.29,-112.5 803.29,-112.5"/>
<text text-anchor="middle" x="831.29" y="-119.5" font-family="Helvetica,sans-Serif" font-size="10.00">sstream</text>
</a>
</g>
</g>
<!-- Node24&#45;&gt;Node27 -->
<g id="edge43" class="edge">
<title>Node24&#45;&gt;Node27</title>
<path fill="none" stroke="midnightblue" d="M1093.01,-224.37C1042.82,-204.93 920.82,-157.67 862.86,-135.23"/>
<polygon fill="midnightblue" stroke="midnightblue" points="864.06,-131.94 853.48,-131.59 861.54,-138.47 864.06,-131.94"/>
</g>
<!-- Node28 -->
<g id="node28" class="node">
<title>Node28</title>
<g id="a_node28"><a xlink:href="binary__stream_8hpp.html" target="_top" xlink:title=" ">
<polygon fill="none" stroke="black" points="1053.29,-168.5 1053.29,-187.5 1177.29,-187.5 1177.29,-168.5 1053.29,-168.5"/>
<text text-anchor="middle" x="1115.29" y="-175.5" font-family="Helvetica,sans-Serif" font-size="10.00">ktl/binary_stream.hpp</text>
</a>
</g>
</g>
<!-- Node24&#45;&gt;Node28 -->
<g id="edge45" class="edge">
<title>Node24&#45;&gt;Node28</title>
<path fill="none" stroke="midnightblue" d="M1115.29,-224.08C1115.29,-217.01 1115.29,-206.86 1115.29,-197.99"/>
<polygon fill="midnightblue" stroke="midnightblue" points="1118.79,-197.75 1115.29,-187.75 1111.79,-197.75 1118.79,-197.75"/>
</g>
<!-- Node29 -->
<g id="node29" class="node">
<title>Node29</title>
<g id="a_node29"><a xlink:href="i__symbol__stream_8hpp.html" target="_top" xlink:title=" ">
<polygon fill="none" stroke="black" points="1423.79,-112.5 1423.79,-131.5 1560.79,-131.5 1560.79,-112.5 1423.79,-112.5"/>
<text text-anchor="middle" x="1492.29" y="-119.5" font-family="Helvetica,sans-Serif" font-size="10.00">ktl/i_symbol_stream.hpp</text>
</a>
</g>
</g>
<!-- Node24&#45;&gt;Node29 -->
<g id="edge58" class="edge">
<title>Node24&#45;&gt;Node29</title>
<path fill="none" stroke="midnightblue" d="M1179.91,-225.84C1229.56,-219.19 1299.39,-207.35 1358.29,-188 1363.83,-186.18 1428.09,-154.65 1465.58,-136.19"/>
<polygon fill="midnightblue" stroke="midnightblue" points="1467.5,-139.14 1474.92,-131.58 1464.4,-132.86 1467.5,-139.14"/>
</g>
<!-- Node24&#45;&gt;Node30 -->
<g id="edge60" class="edge">
<title>Node24&#45;&gt;Node30</title>
<path fill="none" stroke="midnightblue" d="M1175.03,-224.44C1242.31,-214.81 1351.52,-199.16 1422.63,-188.98"/>
<polygon fill="midnightblue" stroke="midnightblue" points="1423.43,-192.4 1432.84,-187.52 1422.44,-185.47 1423.43,-192.4"/>
</g>
<!-- Node32 -->
<g id="node32" class="node">
<title>Node32</title>
<g id="a_node32"><a xlink:href="symbol_8hpp.html" target="_top" xlink:title=" ">
<polygon fill="none" stroke="black" points="1630.79,-168.5 1630.79,-187.5 1719.79,-187.5 1719.79,-168.5 1630.79,-168.5"/>
<text text-anchor="middle" x="1675.29" y="-175.5" font-family="Helvetica,sans-Serif" font-size="10.00">ktl/symbol.hpp</text>
</a>
</g>
</g>
<!-- Node24&#45;&gt;Node32 -->
<g id="edge69" class="edge">
<title>Node24&#45;&gt;Node32</title>
<path fill="none" stroke="midnightblue" d="M1179.88,-228.48C1275.44,-221.51 1460.02,-206.92 1616.29,-188 1617.6,-187.84 1618.91,-187.68 1620.24,-187.51"/>
<polygon fill="midnightblue" stroke="midnightblue" points="1621.11,-190.92 1630.56,-186.12 1620.18,-183.99 1621.11,-190.92"/>
</g>
<!-- Node28&#45;&gt;Node3 -->
<g id="edge57" class="edge">
<title>Node28&#45;&gt;Node3</title>
<path fill="none" stroke="midnightblue" d="M1053.24,-174.04C1017.66,-169.34 974.25,-158.13 944.29,-132 930.64,-120.1 923.75,-100.19 920.36,-85.53"/>
<polygon fill="midnightblue" stroke="midnightblue" points="923.77,-84.71 918.4,-75.57 916.9,-86.06 923.77,-84.71"/>
</g>
<!-- Node28&#45;&gt;Node6 -->
<g id="edge48" class="edge">
<title>Node28&#45;&gt;Node6</title>
<path fill="none" stroke="midnightblue" d="M1053.25,-169.89C977.48,-161.16 845.44,-145.82 732.29,-132 720.08,-130.51 706.7,-128.83 694.88,-127.32"/>
<polygon fill="midnightblue" stroke="midnightblue" points="695.32,-123.85 684.95,-126.05 694.43,-130.79 695.32,-123.85"/>
</g>
<!-- Node28&#45;&gt;Node10 -->
<g id="edge51" class="edge">
<title>Node28&#45;&gt;Node10</title>
<path fill="none" stroke="midnightblue" d="M1126.54,-168.32C1137.09,-160.18 1153.09,-147.84 1165.74,-138.09"/>
<polygon fill="midnightblue" stroke="midnightblue" points="1168.06,-140.71 1173.84,-131.83 1163.79,-135.17 1168.06,-140.71"/>
</g>
<!-- Node28&#45;&gt;Node11 -->
<g id="edge54" class="edge">
<title>Node28&#45;&gt;Node11</title>
<path fill="none" stroke="midnightblue" d="M1073.83,-168.49C1035.11,-160.24 975.88,-146.82 925.29,-132 899.53,-124.45 894.47,-117.95 868.29,-112 729.11,-80.36 558.03,-70.7 489.64,-67.98"/>
<polygon fill="midnightblue" stroke="midnightblue" points="489.69,-64.48 479.57,-67.6 489.43,-71.47 489.69,-64.48"/>
</g>
<!-- Node28&#45;&gt;Node13 -->
<g id="edge46" class="edge">
<title>Node28&#45;&gt;Node13</title>
<path fill="none" stroke="midnightblue" d="M1153.33,-168.49C1228.17,-151.79 1389.56,-115.99 1415.29,-112 1581.08,-86.28 1781.86,-73.09 1858.49,-68.7"/>
<polygon fill="midnightblue" stroke="midnightblue" points="1859.09,-72.17 1868.88,-68.12 1858.7,-65.19 1859.09,-72.17"/>
</g>
<!-- Node28&#45;&gt;Node14 -->
<g id="edge49" class="edge">
<title>Node28&#45;&gt;Node14</title>
<path fill="none" stroke="midnightblue" d="M1144.56,-168.46C1212.97,-148.5 1383.11,-98.86 1457.05,-77.28"/>
<polygon fill="midnightblue" stroke="midnightblue" points="1458.21,-80.59 1466.82,-74.43 1456.24,-73.87 1458.21,-80.59"/>
</g>
<!-- Node28&#45;&gt;Node15 -->
<g id="edge50" class="edge">
<title>Node28&#45;&gt;Node15</title>
<path fill="none" stroke="midnightblue" d="M1110.43,-168.45C1102.83,-155.47 1087.24,-130.36 1070.29,-112 1059.99,-100.84 1046.88,-90.01 1036.05,-81.77"/>
<polygon fill="midnightblue" stroke="midnightblue" points="1038.06,-78.9 1027.94,-75.76 1033.89,-84.53 1038.06,-78.9"/>
</g>
<!-- Node28&#45;&gt;Node16 -->
<g id="edge56" class="edge">
<title>Node28&#45;&gt;Node16</title>
<path fill="none" stroke="midnightblue" d="M1116.24,-168.37C1118.17,-150.62 1122.64,-109.67 1125.27,-85.6"/>
<polygon fill="midnightblue" stroke="midnightblue" points="1128.75,-85.91 1126.36,-75.59 1121.79,-85.15 1128.75,-85.91"/>
</g>
<!-- Node28&#45;&gt;Node23 -->
<g id="edge53" class="edge">
<title>Node28&#45;&gt;Node23</title>
<path fill="none" stroke="midnightblue" d="M1177.4,-175.07C1360.86,-169.18 1892.24,-150.69 1968.29,-132 2012.81,-121.06 2060.46,-96.22 2087.69,-80.61"/>
<polygon fill="midnightblue" stroke="midnightblue" points="2089.56,-83.57 2096.43,-75.51 2086.03,-77.53 2089.56,-83.57"/>
</g>
<!-- Node28&#45;&gt;Node25 -->
<g id="edge47" class="edge">
<title>Node28&#45;&gt;Node25</title>
<path fill="none" stroke="midnightblue" d="M1053,-170.94C990.2,-164.23 890.41,-151.93 795.59,-132.02"/>
<polygon fill="midnightblue" stroke="midnightblue" points="796.06,-128.54 785.55,-129.87 794.6,-135.38 796.06,-128.54"/>
</g>
<!-- Node28&#45;&gt;Node26 -->
<g id="edge52" class="edge">
<title>Node28&#45;&gt;Node26</title>
<path fill="none" stroke="midnightblue" d="M1177.56,-171.58C1265.27,-163.77 1430.16,-148.48 1570.29,-132 1582.43,-130.57 1595.79,-128.79 1607.3,-127.19"/>
<polygon fill="midnightblue" stroke="midnightblue" points="1607.84,-130.65 1617.26,-125.79 1606.87,-123.72 1607.84,-130.65"/>
</g>
<!-- Node28&#45;&gt;Node27 -->
<g id="edge55" class="edge">
<title>Node28&#45;&gt;Node27</title>
<path fill="none" stroke="midnightblue" d="M1067.01,-168.42C1018.11,-159.64 940.34,-145.41 873.29,-132 872.06,-131.75 870.81,-131.5 869.54,-131.24"/>
<polygon fill="midnightblue" stroke="midnightblue" points="870.24,-127.81 859.74,-129.2 868.82,-134.67 870.24,-127.81"/>
</g>
<!-- Node29&#45;&gt;Node14 -->
<g id="edge59" class="edge">
<title>Node29&#45;&gt;Node14</title>
<path fill="none" stroke="midnightblue" d="M1492.29,-112.08C1492.29,-105.01 1492.29,-94.86 1492.29,-85.99"/>
<polygon fill="midnightblue" stroke="midnightblue" points="1495.79,-85.75 1492.29,-75.75 1488.79,-85.75 1495.79,-85.75"/>
</g>
<!-- Node30&#45;&gt;Node3 -->
<g id="edge65" class="edge">
<title>Node30&#45;&gt;Node3</title>
<path fill="none" stroke="midnightblue" d="M1461.14,-168.45C1411.39,-155.02 1310.77,-128.79 1224.29,-112 1201.26,-107.53 1067.37,-88.3 984.2,-76.47"/>
<polygon fill="midnightblue" stroke="midnightblue" points="984.46,-72.97 974.06,-75.03 983.47,-79.9 984.46,-72.97"/>
</g>
<!-- Node30&#45;&gt;Node10 -->
<g id="edge63" class="edge">
<title>Node30&#45;&gt;Node10</title>
<path fill="none" stroke="midnightblue" d="M1443.65,-168.44C1383.32,-157.83 1281.61,-139.94 1225.49,-130.07"/>
<polygon fill="midnightblue" stroke="midnightblue" points="1226.02,-126.61 1215.57,-128.32 1224.81,-133.5 1226.02,-126.61"/>
</g>
<!-- Node30&#45;&gt;Node12 -->
<g id="edge66" class="edge">
<title>Node30&#45;&gt;Node12</title>
<path fill="none" stroke="midnightblue" d="M1415.71,-168.47C1320.61,-157.88 1160.11,-140.01 1071.27,-130.12"/>
<polygon fill="midnightblue" stroke="midnightblue" points="1071.65,-126.64 1061.32,-129.02 1070.87,-133.6 1071.65,-126.64"/>
</g>
<!-- Node30&#45;&gt;Node14 -->
<g id="edge62" class="edge">
<title>Node30&#45;&gt;Node14</title>
<path fill="none" stroke="midnightblue" d="M1521.42,-168.44C1538.94,-161.62 1559.82,-150.14 1570.29,-132 1583.72,-108.75 1553.57,-90.16 1526.93,-78.91"/>
<polygon fill="midnightblue" stroke="midnightblue" points="1527.95,-75.55 1517.37,-75.11 1525.36,-82.06 1527.95,-75.55"/>
</g>
<!-- Node30&#45;&gt;Node22 -->
<g id="edge67" class="edge">
<title>Node30&#45;&gt;Node22</title>
<path fill="none" stroke="midnightblue" d="M1574.56,-171.02C1711.88,-160.98 1982.09,-140.95 2077.29,-132 2078.56,-131.88 2079.84,-131.76 2081.13,-131.63"/>
<polygon fill="midnightblue" stroke="midnightblue" points="2081.52,-135.11 2091.13,-130.64 2080.83,-128.15 2081.52,-135.11"/>
</g>
<!-- Node30&#45;&gt;Node26 -->
<g id="edge64" class="edge">
<title>Node30&#45;&gt;Node26</title>
<path fill="none" stroke="midnightblue" d="M1515.11,-168.44C1540.15,-159.06 1580.38,-143.97 1607.55,-133.78"/>
<polygon fill="midnightblue" stroke="midnightblue" points="1609.13,-136.93 1617.26,-130.14 1606.67,-130.37 1609.13,-136.93"/>
</g>
<!-- Node30&#45;&gt;Node29 -->
<g id="edge68" class="edge">
<title>Node30&#45;&gt;Node29</title>
<path fill="none" stroke="midnightblue" d="M1492.29,-168.08C1492.29,-161.01 1492.29,-150.86 1492.29,-141.99"/>
<polygon fill="midnightblue" stroke="midnightblue" points="1495.79,-141.75 1492.29,-131.75 1488.79,-141.75 1495.79,-141.75"/>
</g>
<!-- Node31 -->
<g id="node31" class="node">
<title>Node31</title>
<g id="a_node31"><a xlink:title=" ">
<polygon fill="none" stroke="#bfbfbf" points="1711.79,-112.5 1711.79,-131.5 1764.79,-131.5 1764.79,-112.5 1711.79,-112.5"/>
<text text-anchor="middle" x="1738.29" y="-119.5" font-family="Helvetica,sans-Serif" font-size="10.00">cstddef</text>
</a>
</g>
</g>
<!-- Node30&#45;&gt;Node31 -->
<g id="edge61" class="edge">
<title>Node30&#45;&gt;Node31</title>
<path fill="none" stroke="midnightblue" d="M1531.27,-168.44C1578.13,-158.16 1656.14,-141.03 1701.84,-131"/>
<polygon fill="midnightblue" stroke="midnightblue" points="1702.61,-134.42 1711.63,-128.85 1701.11,-127.58 1702.61,-134.42"/>
</g>
<!-- Node32&#45;&gt;Node14 -->
<g id="edge70" class="edge">
<title>Node32&#45;&gt;Node14</title>
<path fill="none" stroke="midnightblue" d="M1676.55,-168.15C1677.98,-154.32 1678.51,-127.53 1664.29,-112 1646.06,-92.08 1572.4,-78.37 1527.6,-71.68"/>
<polygon fill="midnightblue" stroke="midnightblue" points="1527.82,-68.18 1517.42,-70.21 1526.82,-75.11 1527.82,-68.18"/>
</g>
<!-- Node32&#45;&gt;Node26 -->
<g id="edge71" class="edge">
<title>Node32&#45;&gt;Node26</title>
<path fill="none" stroke="midnightblue" d="M1668.85,-168.08C1663.35,-160.46 1655.26,-149.26 1648.53,-139.94"/>
<polygon fill="midnightblue" stroke="midnightblue" points="1651.31,-137.81 1642.61,-131.75 1645.63,-141.91 1651.31,-137.81"/>
</g>
<!-- Node33&#45;&gt;Node13 -->
<g id="edge73" class="edge">
<title>Node33&#45;&gt;Node13</title>
<path fill="none" stroke="midnightblue" d="M1866.03,-168.45C1906.18,-160.93 1955.79,-148.59 1968.29,-132 1985.55,-109.11 1949.41,-89.07 1920.75,-77.5"/>
<polygon fill="midnightblue" stroke="midnightblue" points="1921.99,-74.23 1911.4,-73.91 1919.48,-80.76 1921.99,-74.23"/>
</g>
<!-- Node33&#45;&gt;Node14 -->
<g id="edge75" class="edge">
<title>Node33&#45;&gt;Node14</title>
<path fill="none" stroke="midnightblue" d="M1808.96,-168.16C1804.68,-153.83 1794.15,-125.75 1774.29,-112 1734.83,-84.67 1593.72,-72.94 1527.32,-68.84"/>
<polygon fill="midnightblue" stroke="midnightblue" points="1527.52,-65.35 1517.33,-68.25 1527.1,-72.34 1527.52,-65.35"/>
</g>
<!-- Node33&#45;&gt;Node31 -->
<g id="edge74" class="edge">
<title>Node33&#45;&gt;Node31</title>
<path fill="none" stroke="midnightblue" d="M1799.57,-168.32C1788.46,-160.11 1771.55,-147.6 1758.31,-137.81"/>
<polygon fill="midnightblue" stroke="midnightblue" points="1760.36,-134.97 1750.24,-131.83 1756.19,-140.59 1760.36,-134.97"/>
</g>
</g>
</svg>
