<?xml version="1.0" encoding="UTF-8" standalone="no"?>
<!DOCTYPE svg PUBLIC "-//W3C//DTD SVG 1.1//EN"
 "http://www.w3.org/Graphics/SVG/1.1/DTD/svg11.dtd">
<!-- Generated by graphviz version 2.43.0 (0)
 -->
<!-- Title: k2_pcm.hpp Pages: 1 -->
<svg width="753pt" height="196pt"
 viewBox="0.00 0.00 753.00 196.00" xmlns="http://www.w3.org/2000/svg" xmlns:xlink="http://www.w3.org/1999/xlink">
<g id="graph0" class="graph" transform="scale(1 1) rotate(0) translate(4 192)">
<title>k2_pcm.hpp</title>
<!-- Node1 -->
<g id="node1" class="node">
<title>Node1</title>
<g id="a_node1"><a xlink:title=" ">
<polygon fill="#bfbfbf" stroke="black" points="411,-168.5 411,-187.5 487,-187.5 487,-168.5 411,-168.5"/>
<text text-anchor="middle" x="449" y="-175.5" font-family="Helvetica,sans-Serif" font-size="10.00">k2_pcm.hpp</text>
</a>
</g>
</g>
<!-- Node2 -->
<g id="node2" class="node">
<title>Node2</title>
<g id="a_node2"><a xlink:href="k2__model_8hpp.html" target="_top" xlink:title=" ">
<polygon fill="none" stroke="black" points="171,-112.5 171,-131.5 257,-131.5 257,-112.5 171,-112.5"/>
<text text-anchor="middle" x="214" y="-119.5" font-family="Helvetica,sans-Serif" font-size="10.00">k2_model.hpp</text>
</a>
</g>
</g>
<!-- Node1&#45;&gt;Node2 -->
<g id="edge1" class="edge">
<title>Node1&#45;&gt;Node2</title>
<path fill="none" stroke="midnightblue" d="M401.79,-166.15C357.39,-155.95 291.81,-140.88 251.06,-131.52"/>
<polygon fill="midnightblue" stroke="midnightblue" points="401.23,-169.62 411.76,-168.44 402.8,-162.79 401.23,-169.62"/>
</g>
<!-- Node10 -->
<g id="node10" class="node">
<title>Node10</title>
<g id="a_node10"><a xlink:href="kazoo__A__pcm_8cpp.html" target="_top" xlink:title=" ">
<polygon fill="none" stroke="black" points="275,-112.5 275,-131.5 379,-131.5 379,-112.5 275,-112.5"/>
<text text-anchor="middle" x="327" y="-119.5" font-family="Helvetica,sans-Serif" font-size="10.00">kazoo_A_pcm.cpp</text>
</a>
</g>
</g>
<!-- Node1&#45;&gt;Node10 -->
<g id="edge10" class="edge">
<title>Node1&#45;&gt;Node10</title>
<path fill="none" stroke="midnightblue" d="M420.46,-164.37C397.61,-154.26 366.19,-140.35 346.24,-131.52"/>
<polygon fill="midnightblue" stroke="midnightblue" points="419.11,-167.6 429.67,-168.44 421.94,-161.2 419.11,-167.6"/>
</g>
<!-- Node11 -->
<g id="node11" class="node">
<title>Node11</title>
<g id="a_node11"><a xlink:href="kazoo__D__pcm_8cpp.html" target="_top" xlink:title=" ">
<polygon fill="none" stroke="black" points="397,-112.5 397,-131.5 501,-131.5 501,-112.5 397,-112.5"/>
<text text-anchor="middle" x="449" y="-119.5" font-family="Helvetica,sans-Serif" font-size="10.00">kazoo_D_pcm.cpp</text>
</a>
</g>
</g>
<!-- Node1&#45;&gt;Node11 -->
<g id="edge11" class="edge">
<title>Node1&#45;&gt;Node11</title>
<path fill="none" stroke="midnightblue" d="M449,-157.8C449,-148.91 449,-138.78 449,-131.75"/>
<polygon fill="midnightblue" stroke="midnightblue" points="445.5,-158.08 449,-168.08 452.5,-158.08 445.5,-158.08"/>
</g>
<!-- Node12 -->
<g id="node12" class="node">
<title>Node12</title>
<g id="a_node12"><a xlink:href="kazoo__E__pcm_8cpp.html" target="_top" xlink:title=" ">
<polygon fill="none" stroke="black" points="519.5,-112.5 519.5,-131.5 622.5,-131.5 622.5,-112.5 519.5,-112.5"/>
<text text-anchor="middle" x="571" y="-119.5" font-family="Helvetica,sans-Serif" font-size="10.00">kazoo_E_pcm.cpp</text>
</a>
</g>
</g>
<!-- Node1&#45;&gt;Node12 -->
<g id="edge12" class="edge">
<title>Node1&#45;&gt;Node12</title>
<path fill="none" stroke="midnightblue" d="M477.54,-164.37C500.39,-154.26 531.81,-140.35 551.76,-131.52"/>
<polygon fill="midnightblue" stroke="midnightblue" points="476.06,-161.2 468.33,-168.44 478.89,-167.6 476.06,-161.2"/>
</g>
<!-- Node13 -->
<g id="node13" class="node">
<title>Node13</title>
<g id="a_node13"><a xlink:href="kazoo__G__pcm_8cpp.html" target="_top" xlink:title=" ">
<polygon fill="none" stroke="black" points="641,-112.5 641,-131.5 745,-131.5 745,-112.5 641,-112.5"/>
<text text-anchor="middle" x="693" y="-119.5" font-family="Helvetica,sans-Serif" font-size="10.00">kazoo_G_pcm.cpp</text>
</a>
</g>
</g>
<!-- Node1&#45;&gt;Node13 -->
<g id="edge13" class="edge">
<title>Node1&#45;&gt;Node13</title>
<path fill="none" stroke="midnightblue" d="M497.17,-166.34C543.21,-156.15 611.75,-140.98 654.34,-131.56"/>
<polygon fill="midnightblue" stroke="midnightblue" points="496.13,-162.98 487.12,-168.56 497.65,-169.82 496.13,-162.98"/>
</g>
<!-- Node3 -->
<g id="node3" class="node">
<title>Node3</title>
<g id="a_node3"><a xlink:href="k2__peak__model_8test_8cpp.html" target="_top" xlink:title=" ">
<polygon fill="none" stroke="black" points="0,-56.5 0,-75.5 136,-75.5 136,-56.5 0,-56.5"/>
<text text-anchor="middle" x="68" y="-63.5" font-family="Helvetica,sans-Serif" font-size="10.00">k2_peak_model.test.cpp</text>
</a>
</g>
</g>
<!-- Node2&#45;&gt;Node3 -->
<g id="edge2" class="edge">
<title>Node2&#45;&gt;Node3</title>
<path fill="none" stroke="midnightblue" d="M181.3,-108.91C153.85,-98.75 115.33,-84.51 91.03,-75.52"/>
<polygon fill="midnightblue" stroke="midnightblue" points="180.27,-112.26 190.87,-112.44 182.7,-105.69 180.27,-112.26"/>
</g>
<!-- Node4 -->
<g id="node4" class="node">
<title>Node4</title>
<g id="a_node4"><a xlink:href="tests_2ktl__model__scoring_2main_8cpp.html" target="_top" xlink:title=" ">
<polygon fill="none" stroke="black" points="154,-56.5 154,-75.5 216,-75.5 216,-56.5 154,-56.5"/>
<text text-anchor="middle" x="185" y="-63.5" font-family="Helvetica,sans-Serif" font-size="10.00">main.cpp</text>
</a>
</g>
</g>
<!-- Node2&#45;&gt;Node4 -->
<g id="edge3" class="edge">
<title>Node2&#45;&gt;Node4</title>
<path fill="none" stroke="midnightblue" d="M204.32,-102.98C199.4,-93.82 193.64,-83.09 189.7,-75.75"/>
<polygon fill="midnightblue" stroke="midnightblue" points="201.4,-104.93 209.21,-112.08 207.56,-101.62 201.4,-104.93"/>
</g>
<!-- Node5 -->
<g id="node5" class="node">
<title>Node5</title>
<g id="a_node5"><a xlink:href="translation__layer_8cpp.html" target="_top" xlink:title=" ">
<polygon fill="none" stroke="black" points="173.5,-0.5 173.5,-19.5 292.5,-19.5 292.5,-0.5 173.5,-0.5"/>
<text text-anchor="middle" x="233" y="-7.5" font-family="Helvetica,sans-Serif" font-size="10.00">translation_layer.cpp</text>
</a>
</g>
</g>
<!-- Node2&#45;&gt;Node5 -->
<g id="edge4" class="edge">
<title>Node2&#45;&gt;Node5</title>
<path fill="none" stroke="midnightblue" d="M219.02,-102.58C221.1,-94.47 223.39,-84.81 225,-76 228.65,-56.09 231.09,-32.44 232.24,-19.88"/>
<polygon fill="midnightblue" stroke="midnightblue" points="215.59,-101.88 216.41,-112.44 222.35,-103.67 215.59,-101.88"/>
</g>
<!-- Node6 -->
<g id="node6" class="node">
<title>Node6</title>
<g id="a_node6"><a xlink:href="translation__layer_8hpp.html" target="_top" xlink:title=" ">
<polygon fill="none" stroke="black" points="282.5,-56.5 282.5,-75.5 401.5,-75.5 401.5,-56.5 282.5,-56.5"/>
<text text-anchor="middle" x="342" y="-63.5" font-family="Helvetica,sans-Serif" font-size="10.00">translation_layer.hpp</text>
</a>
</g>
</g>
<!-- Node2&#45;&gt;Node6 -->
<g id="edge5" class="edge">
<title>Node2&#45;&gt;Node6</title>
<path fill="none" stroke="midnightblue" d="M243.62,-108.5C267.62,-98.38 300.78,-84.39 321.81,-75.52"/>
<polygon fill="midnightblue" stroke="midnightblue" points="242.14,-105.33 234.28,-112.44 244.86,-111.78 242.14,-105.33"/>
</g>
<!-- Node6&#45;&gt;Node5 -->
<g id="edge8" class="edge">
<title>Node6&#45;&gt;Node5</title>
<path fill="none" stroke="midnightblue" d="M315.48,-51.86C295.27,-41.85 268.01,-28.35 250.47,-19.65"/>
<polygon fill="midnightblue" stroke="midnightblue" points="313.97,-55.02 324.49,-56.32 317.08,-48.75 313.97,-55.02"/>
</g>
<!-- Node7 -->
<g id="node7" class="node">
<title>Node7</title>
<g id="a_node7"><a xlink:href="src_2kazoo__connect__server_2main_8cpp.html" target="_top" xlink:title=" ">
<polygon fill="none" stroke="black" points="311,-0.5 311,-19.5 373,-19.5 373,-0.5 311,-0.5"/>
<text text-anchor="middle" x="342" y="-7.5" font-family="Helvetica,sans-Serif" font-size="10.00">main.cpp</text>
</a>
</g>
</g>
<!-- Node6&#45;&gt;Node7 -->
<g id="edge6" class="edge">
<title>Node6&#45;&gt;Node7</title>
<path fill="none" stroke="midnightblue" d="M342,-45.8C342,-36.91 342,-26.78 342,-19.75"/>
<polygon fill="midnightblue" stroke="midnightblue" points="338.5,-46.08 342,-56.08 345.5,-46.08 338.5,-46.08"/>
</g>
<!-- Node8 -->
<g id="node8" class="node">
<title>Node8</title>
<g id="a_node8"><a xlink:href="src_2main_8cpp.html" target="_top" xlink:title=" ">
<polygon fill="none" stroke="black" points="391,-0.5 391,-19.5 453,-19.5 453,-0.5 391,-0.5"/>
<text text-anchor="middle" x="422" y="-7.5" font-family="Helvetica,sans-Serif" font-size="10.00">main.cpp</text>
</a>
</g>
</g>
<!-- Node6&#45;&gt;Node8 -->
<g id="edge7" class="edge">
<title>Node6&#45;&gt;Node8</title>
<path fill="none" stroke="midnightblue" d="M363.3,-50.62C377.92,-40.76 396.83,-27.99 409.18,-19.65"/>
<polygon fill="midnightblue" stroke="midnightblue" points="361.18,-47.83 354.85,-56.32 365.1,-53.63 361.18,-47.83"/>
</g>
<!-- Node9 -->
<g id="node9" class="node">
<title>Node9</title>
<g id="a_node9"><a xlink:href="translation__layer_8test_8cpp.html" target="_top" xlink:title=" ">
<polygon fill="none" stroke="black" points="471,-0.5 471,-19.5 611,-19.5 611,-0.5 471,-0.5"/>
<text text-anchor="middle" x="541" y="-7.5" font-family="Helvetica,sans-Serif" font-size="10.00">translation_layer.test.cpp</text>
</a>
</g>
</g>
<!-- Node6&#45;&gt;Node9 -->
<g id="edge9" class="edge">
<title>Node6&#45;&gt;Node9</title>
<path fill="none" stroke="midnightblue" d="M383.65,-53.7C421.21,-43.51 475.61,-28.74 509.62,-19.52"/>
<polygon fill="midnightblue" stroke="midnightblue" points="382.27,-50.45 373.53,-56.44 384.1,-57.2 382.27,-50.45"/>
</g>
</g>
</svg>
