<?xml version="1.0" encoding="UTF-8" standalone="no"?>
<!DOCTYPE svg PUBLIC "-//W3C//DTD SVG 1.1//EN"
 "http://www.w3.org/Graphics/SVG/1.1/DTD/svg11.dtd">
<!-- Generated by graphviz version 2.43.0 (0)
 -->
<!-- Title: k3_model.hpp Pages: 1 -->
<svg width="2022pt" height="364pt"
 viewBox="0.00 0.00 2022.21 364.00" xmlns="http://www.w3.org/2000/svg" xmlns:xlink="http://www.w3.org/1999/xlink">
<g id="graph0" class="graph" transform="scale(1 1) rotate(0) translate(4 360)">
<title>k3_model.hpp</title>
<!-- Node1 -->
<g id="node1" class="node">
<title>Node1</title>
<g id="a_node1"><a xlink:title=" ">
<polygon fill="#bfbfbf" stroke="black" points="588.1,-336.5 588.1,-355.5 674.1,-355.5 674.1,-336.5 588.1,-336.5"/>
<text text-anchor="middle" x="631.1" y="-343.5" font-family="Helvetica,sans-Serif" font-size="10.00">k3_model.hpp</text>
</a>
</g>
</g>
<!-- Node2 -->
<g id="node2" class="node">
<title>Node2</title>
<g id="a_node2"><a xlink:title=" ">
<polygon fill="none" stroke="#bfbfbf" points="325.1,-112.5 325.1,-131.5 389.1,-131.5 389.1,-112.5 325.1,-112.5"/>
<text text-anchor="middle" x="357.1" y="-119.5" font-family="Helvetica,sans-Serif" font-size="10.00">algorithm</text>
</a>
</g>
</g>
<!-- Node1&#45;&gt;Node2 -->
<g id="edge1" class="edge">
<title>Node1&#45;&gt;Node2</title>
<path fill="none" stroke="midnightblue" d="M620.22,-336.14C588.41,-310.22 492.74,-232.33 413.1,-168 400.69,-157.98 386.71,-146.75 375.82,-138.01"/>
<polygon fill="midnightblue" stroke="midnightblue" points="377.83,-135.14 367.84,-131.61 373.46,-140.6 377.83,-135.14"/>
</g>
<!-- Node3 -->
<g id="node3" class="node">
<title>Node3</title>
<g id="a_node3"><a xlink:href="assert_8hpp.html" target="_top" xlink:title=" ">
<polygon fill="none" stroke="black" points="555.6,-56.5 555.6,-75.5 668.6,-75.5 668.6,-56.5 555.6,-56.5"/>
<text text-anchor="middle" x="612.1" y="-63.5" font-family="Helvetica,sans-Serif" font-size="10.00">common/assert.hpp</text>
</a>
</g>
</g>
<!-- Node1&#45;&gt;Node3 -->
<g id="edge2" class="edge">
<title>Node1&#45;&gt;Node3</title>
<path fill="none" stroke="midnightblue" d="M587.79,-342.03C445.46,-331.7 1.1,-294.68 1.1,-235 1.1,-235 1.1,-235 1.1,-177 1.1,-146.9 -3.29,-130.95 20.1,-112 60.12,-79.56 398.77,-70.34 545.14,-67.86"/>
<polygon fill="midnightblue" stroke="midnightblue" points="545.4,-71.36 555.34,-67.69 545.29,-64.36 545.4,-71.36"/>
</g>
<!-- Node5 -->
<g id="node5" class="node">
<title>Node5</title>
<g id="a_node5"><a xlink:href="fft_8hpp.html" target="_top" xlink:title=" ">
<polygon fill="none" stroke="black" points="310.1,-168.5 310.1,-187.5 404.1,-187.5 404.1,-168.5 310.1,-168.5"/>
<text text-anchor="middle" x="357.1" y="-175.5" font-family="Helvetica,sans-Serif" font-size="10.00">ktl/audio/fft.hpp</text>
</a>
</g>
</g>
<!-- Node1&#45;&gt;Node5 -->
<g id="edge4" class="edge">
<title>Node1&#45;&gt;Node5</title>
<path fill="none" stroke="midnightblue" d="M588.02,-340.34C533.7,-333.72 444.23,-320.11 418.1,-300 384.49,-274.13 367.97,-224.71 361.13,-197.72"/>
<polygon fill="midnightblue" stroke="midnightblue" points="364.46,-196.6 358.77,-187.66 357.65,-198.2 364.46,-196.6"/>
</g>
<!-- Node18 -->
<g id="node18" class="node">
<title>Node18</title>
<g id="a_node18"><a xlink:href="kazoo__pcm_8hpp.html" target="_top" xlink:title=" ">
<polygon fill="none" stroke="black" points="734.1,-224.5 734.1,-243.5 872.1,-243.5 872.1,-224.5 734.1,-224.5"/>
<text text-anchor="middle" x="803.1" y="-231.5" font-family="Helvetica,sans-Serif" font-size="10.00">ktl/audio/kazoo_pcm.hpp</text>
</a>
</g>
</g>
<!-- Node1&#45;&gt;Node18 -->
<g id="edge22" class="edge">
<title>Node1&#45;&gt;Node18</title>
<path fill="none" stroke="midnightblue" d="M638.26,-336.41C649.88,-322.92 674.05,-296.61 699.1,-280 720.18,-266.01 746.34,-254.72 767.14,-246.95"/>
<polygon fill="midnightblue" stroke="midnightblue" points="768.37,-250.22 776.58,-243.52 765.99,-243.64 768.37,-250.22"/>
</g>
<!-- Node19 -->
<g id="node19" class="node">
<title>Node19</title>
<g id="a_node19"><a xlink:href="wave__tools_8hpp.html" target="_top" xlink:title=" ">
<polygon fill="none" stroke="black" points="499.6,-168.5 499.6,-187.5 638.6,-187.5 638.6,-168.5 499.6,-168.5"/>
<text text-anchor="middle" x="569.1" y="-175.5" font-family="Helvetica,sans-Serif" font-size="10.00">ktl/audio/wave_tools.hpp</text>
</a>
</g>
</g>
<!-- Node1&#45;&gt;Node19 -->
<g id="edge25" class="edge">
<title>Node1&#45;&gt;Node19</title>
<path fill="none" stroke="midnightblue" d="M627.76,-336.08C617.96,-309.83 589.09,-232.55 575.86,-197.12"/>
<polygon fill="midnightblue" stroke="midnightblue" points="579.07,-195.71 572.3,-187.57 572.52,-198.16 579.07,-195.71"/>
</g>
<!-- Node21 -->
<g id="node21" class="node">
<title>Node21</title>
<g id="a_node21"><a xlink:href="encoder_8hpp.html" target="_top" xlink:title=" ">
<polygon fill="none" stroke="black" points="708.1,-280.5 708.1,-299.5 800.1,-299.5 800.1,-280.5 708.1,-280.5"/>
<text text-anchor="middle" x="754.1" y="-287.5" font-family="Helvetica,sans-Serif" font-size="10.00">ktl/encoder.hpp</text>
</a>
</g>
</g>
<!-- Node1&#45;&gt;Node21 -->
<g id="edge30" class="edge">
<title>Node1&#45;&gt;Node21</title>
<path fill="none" stroke="midnightblue" d="M650.59,-336.44C670.74,-327.6 702.42,-313.69 725.43,-303.59"/>
<polygon fill="midnightblue" stroke="midnightblue" points="726.95,-306.74 734.7,-299.52 724.13,-300.33 726.95,-306.74"/>
</g>
<!-- Node24 -->
<g id="node24" class="node">
<title>Node24</title>
<g id="a_node24"><a xlink:href="symbol__stream_8hpp.html" target="_top" xlink:title=" ">
<polygon fill="none" stroke="black" points="1450.6,-224.5 1450.6,-243.5 1579.6,-243.5 1579.6,-224.5 1450.6,-224.5"/>
<text text-anchor="middle" x="1515.1" y="-231.5" font-family="Helvetica,sans-Serif" font-size="10.00">ktl/symbol_stream.hpp</text>
</a>
</g>
</g>
<!-- Node1&#45;&gt;Node24 -->
<g id="edge74" class="edge">
<title>Node1&#45;&gt;Node24</title>
<path fill="none" stroke="midnightblue" d="M674.18,-345.77C782.47,-346.93 1074.35,-345.21 1312.1,-300 1374.97,-288.04 1445.54,-262.58 1484.71,-247.31"/>
<polygon fill="midnightblue" stroke="midnightblue" points="1486.18,-250.49 1494.2,-243.57 1483.62,-243.98 1486.18,-250.49"/>
</g>
<!-- Node30 -->
<g id="node30" class="node">
<title>Node30</title>
<g id="a_node30"><a xlink:href="symbol__model_8hpp.html" target="_top" xlink:title=" ">
<polygon fill="none" stroke="black" points="1030.1,-168.5 1030.1,-187.5 1194.1,-187.5 1194.1,-168.5 1030.1,-168.5"/>
<text text-anchor="middle" x="1112.1" y="-175.5" font-family="Helvetica,sans-Serif" font-size="10.00">ktl/models/symbol_model.hpp</text>
</a>
</g>
</g>
<!-- Node1&#45;&gt;Node30 -->
<g id="edge73" class="edge">
<title>Node1&#45;&gt;Node30</title>
<path fill="none" stroke="midnightblue" d="M671.11,-336.48C707.47,-328.36 762.4,-315.15 809.1,-300 912.35,-266.49 1030.82,-215.34 1083.86,-191.74"/>
<polygon fill="midnightblue" stroke="midnightblue" points="1085.57,-194.81 1093.27,-187.53 1082.72,-188.42 1085.57,-194.81"/>
</g>
<!-- Node4 -->
<g id="node4" class="node">
<title>Node4</title>
<g id="a_node4"><a xlink:title=" ">
<polygon fill="none" stroke="#bfbfbf" points="590.1,-0.5 590.1,-19.5 634.1,-19.5 634.1,-0.5 590.1,-0.5"/>
<text text-anchor="middle" x="612.1" y="-7.5" font-family="Helvetica,sans-Serif" font-size="10.00">string</text>
</a>
</g>
</g>
<!-- Node3&#45;&gt;Node4 -->
<g id="edge3" class="edge">
<title>Node3&#45;&gt;Node4</title>
<path fill="none" stroke="midnightblue" d="M612.1,-56.08C612.1,-49.01 612.1,-38.86 612.1,-29.99"/>
<polygon fill="midnightblue" stroke="midnightblue" points="615.6,-29.75 612.1,-19.75 608.6,-29.75 615.6,-29.75"/>
</g>
<!-- Node5&#45;&gt;Node2 -->
<g id="edge5" class="edge">
<title>Node5&#45;&gt;Node2</title>
<path fill="none" stroke="midnightblue" d="M357.1,-168.08C357.1,-161.01 357.1,-150.86 357.1,-141.99"/>
<polygon fill="midnightblue" stroke="midnightblue" points="360.6,-141.75 357.1,-131.75 353.6,-141.75 360.6,-141.75"/>
</g>
<!-- Node5&#45;&gt;Node3 -->
<g id="edge21" class="edge">
<title>Node5&#45;&gt;Node3</title>
<path fill="none" stroke="midnightblue" d="M333.65,-168.37C305.23,-156.64 263.42,-134.55 283.1,-112 316.42,-73.81 459.2,-66.85 545.34,-66.24"/>
<polygon fill="midnightblue" stroke="midnightblue" points="545.57,-69.74 555.56,-66.19 545.54,-62.74 545.57,-69.74"/>
</g>
<!-- Node6 -->
<g id="node6" class="node">
<title>Node6</title>
<g id="a_node6"><a xlink:title=" ">
<polygon fill="none" stroke="#bfbfbf" points="817.6,-112.5 817.6,-131.5 864.6,-131.5 864.6,-112.5 817.6,-112.5"/>
<text text-anchor="middle" x="841.1" y="-119.5" font-family="Helvetica,sans-Serif" font-size="10.00">cmath</text>
</a>
</g>
</g>
<!-- Node5&#45;&gt;Node6 -->
<g id="edge6" class="edge">
<title>Node5&#45;&gt;Node6</title>
<path fill="none" stroke="midnightblue" d="M404.2,-172.14C480.91,-164.16 637.58,-147.62 770.1,-132 782.31,-130.56 795.7,-128.89 807.52,-127.38"/>
<polygon fill="midnightblue" stroke="midnightblue" points="807.97,-130.85 817.44,-126.1 807.08,-123.91 807.97,-130.85"/>
</g>
<!-- Node7 -->
<g id="node7" class="node">
<title>Node7</title>
<g id="a_node7"><a xlink:title=" ">
<polygon fill="none" stroke="#bfbfbf" points="29.6,-112.5 29.6,-131.5 88.6,-131.5 88.6,-112.5 29.6,-112.5"/>
<text text-anchor="middle" x="59.1" y="-119.5" font-family="Helvetica,sans-Serif" font-size="10.00">complex</text>
</a>
</g>
</g>
<!-- Node5&#45;&gt;Node7 -->
<g id="edge7" class="edge">
<title>Node5&#45;&gt;Node7</title>
<path fill="none" stroke="midnightblue" d="M309.69,-169.56C259.78,-161.55 178.68,-148.04 99.07,-132.11"/>
<polygon fill="midnightblue" stroke="midnightblue" points="99.36,-128.59 88.87,-130.05 97.98,-135.46 99.36,-128.59"/>
</g>
<!-- Node8 -->
<g id="node8" class="node">
<title>Node8</title>
<g id="a_node8"><a xlink:title=" ">
<polygon fill="none" stroke="#bfbfbf" points="107.1,-112.5 107.1,-131.5 157.1,-131.5 157.1,-112.5 107.1,-112.5"/>
<text text-anchor="middle" x="132.1" y="-119.5" font-family="Helvetica,sans-Serif" font-size="10.00">fftw3.h</text>
</a>
</g>
</g>
<!-- Node5&#45;&gt;Node8 -->
<g id="edge8" class="edge">
<title>Node5&#45;&gt;Node8</title>
<path fill="none" stroke="midnightblue" d="M319.33,-168.42C282.78,-160.05 225.57,-146.76 167.1,-132.2"/>
<polygon fill="midnightblue" stroke="midnightblue" points="167.88,-128.79 157.33,-129.76 166.18,-135.58 167.88,-128.79"/>
</g>
<!-- Node9 -->
<g id="node9" class="node">
<title>Node9</title>
<g id="a_node9"><a xlink:title=" ">
<polygon fill="none" stroke="#bfbfbf" points="175.6,-112.5 175.6,-131.5 230.6,-131.5 230.6,-112.5 175.6,-112.5"/>
<text text-anchor="middle" x="203.1" y="-119.5" font-family="Helvetica,sans-Serif" font-size="10.00">fstream</text>
</a>
</g>
</g>
<!-- Node5&#45;&gt;Node9 -->
<g id="edge9" class="edge">
<title>Node5&#45;&gt;Node9</title>
<path fill="none" stroke="midnightblue" d="M332.69,-168.44C306.9,-159.4 266.02,-145.06 237.08,-134.92"/>
<polygon fill="midnightblue" stroke="midnightblue" points="237.98,-131.52 227.38,-131.52 235.66,-138.13 237.98,-131.52"/>
</g>
<!-- Node10 -->
<g id="node10" class="node">
<title>Node10</title>
<g id="a_node10"><a xlink:title=" ">
<polygon fill="none" stroke="#bfbfbf" points="1031.1,-112.5 1031.1,-131.5 1091.1,-131.5 1091.1,-112.5 1031.1,-112.5"/>
<text text-anchor="middle" x="1061.1" y="-119.5" font-family="Helvetica,sans-Serif" font-size="10.00">iostream</text>
</a>
</g>
</g>
<!-- Node5&#45;&gt;Node10 -->
<g id="edge10" class="edge">
<title>Node5&#45;&gt;Node10</title>
<path fill="none" stroke="midnightblue" d="M404.35,-173.83C544.08,-164.44 949.59,-137.18 1020.56,-131.42"/>
<polygon fill="midnightblue" stroke="midnightblue" points="1021.32,-134.87 1030.95,-130.46 1020.67,-127.9 1021.32,-134.87"/>
</g>
<!-- Node11 -->
<g id="node11" class="node">
<title>Node11</title>
<g id="a_node11"><a xlink:title=" ">
<polygon fill="none" stroke="#bfbfbf" points="687.1,-56.5 687.1,-75.5 727.1,-75.5 727.1,-56.5 687.1,-56.5"/>
<text text-anchor="middle" x="707.1" y="-63.5" font-family="Helvetica,sans-Serif" font-size="10.00">span</text>
</a>
</g>
</g>
<!-- Node5&#45;&gt;Node11 -->
<g id="edge11" class="edge">
<title>Node5&#45;&gt;Node11</title>
<path fill="none" stroke="midnightblue" d="M344.71,-168.36C327.4,-155.26 299.8,-130 316.1,-112 368.4,-54.24 582.58,-89.3 676.87,-75.58"/>
<polygon fill="midnightblue" stroke="midnightblue" points="677.7,-78.99 686.95,-73.82 676.5,-72.09 677.7,-78.99"/>
</g>
<!-- Node12 -->
<g id="node12" class="node">
<title>Node12</title>
<g id="a_node12"><a xlink:href="audio__channel_8hpp.html" target="_top" xlink:title=" ">
<polygon fill="none" stroke="black" points="653.1,-112.5 653.1,-131.5 761.1,-131.5 761.1,-112.5 653.1,-112.5"/>
<text text-anchor="middle" x="707.1" y="-119.5" font-family="Helvetica,sans-Serif" font-size="10.00">audio_channel.hpp</text>
</a>
</g>
</g>
<!-- Node5&#45;&gt;Node12 -->
<g id="edge12" class="edge">
<title>Node5&#45;&gt;Node12</title>
<path fill="none" stroke="midnightblue" d="M404.3,-169.72C465.92,-160.21 574.03,-143.53 643.02,-132.89"/>
<polygon fill="midnightblue" stroke="midnightblue" points="643.55,-136.35 652.9,-131.36 642.48,-129.43 643.55,-136.35"/>
</g>
<!-- Node17 -->
<g id="node17" class="node">
<title>Node17</title>
<g id="a_node17"><a xlink:href="audio__constants_8hpp.html" target="_top" xlink:title=" ">
<polygon fill="none" stroke="black" points="407.6,-112.5 407.6,-131.5 524.6,-131.5 524.6,-112.5 407.6,-112.5"/>
<text text-anchor="middle" x="466.1" y="-119.5" font-family="Helvetica,sans-Serif" font-size="10.00">audio_constants.hpp</text>
</a>
</g>
</g>
<!-- Node5&#45;&gt;Node17 -->
<g id="edge19" class="edge">
<title>Node5&#45;&gt;Node17</title>
<path fill="none" stroke="midnightblue" d="M374.61,-168.32C392.17,-159.62 419.43,-146.12 439.63,-136.11"/>
<polygon fill="midnightblue" stroke="midnightblue" points="441.22,-139.23 448.63,-131.65 438.11,-132.96 441.22,-139.23"/>
</g>
<!-- Node12&#45;&gt;Node3 -->
<g id="edge18" class="edge">
<title>Node12&#45;&gt;Node3</title>
<path fill="none" stroke="midnightblue" d="M691.83,-112.32C676.87,-103.82 653.84,-90.73 636.37,-80.8"/>
<polygon fill="midnightblue" stroke="midnightblue" points="637.74,-77.55 627.32,-75.65 634.29,-83.64 637.74,-77.55"/>
</g>
<!-- Node12&#45;&gt;Node11 -->
<g id="edge16" class="edge">
<title>Node12&#45;&gt;Node11</title>
<path fill="none" stroke="midnightblue" d="M707.1,-112.08C707.1,-105.01 707.1,-94.86 707.1,-85.99"/>
<polygon fill="midnightblue" stroke="midnightblue" points="710.6,-85.75 707.1,-75.75 703.6,-85.75 710.6,-85.75"/>
</g>
<!-- Node13 -->
<g id="node13" class="node">
<title>Node13</title>
<g id="a_node13"><a xlink:title=" ">
<polygon fill="none" stroke="#bfbfbf" points="1366.1,-56.5 1366.1,-75.5 1408.1,-75.5 1408.1,-56.5 1366.1,-56.5"/>
<text text-anchor="middle" x="1387.1" y="-63.5" font-family="Helvetica,sans-Serif" font-size="10.00">array</text>
</a>
</g>
</g>
<!-- Node12&#45;&gt;Node13 -->
<g id="edge13" class="edge">
<title>Node12&#45;&gt;Node13</title>
<path fill="none" stroke="midnightblue" d="M761.35,-116.11C776.77,-114.75 793.59,-113.29 809.1,-112 1017.83,-94.67 1269.14,-75.78 1355.88,-69.32"/>
<polygon fill="midnightblue" stroke="midnightblue" points="1356.38,-72.79 1366.09,-68.56 1355.86,-65.81 1356.38,-72.79"/>
</g>
<!-- Node14 -->
<g id="node14" class="node">
<title>Node14</title>
<g id="a_node14"><a xlink:title=" ">
<polygon fill="none" stroke="#bfbfbf" points="1124.1,-56.5 1124.1,-75.5 1174.1,-75.5 1174.1,-56.5 1124.1,-56.5"/>
<text text-anchor="middle" x="1149.1" y="-63.5" font-family="Helvetica,sans-Serif" font-size="10.00">cstdint</text>
</a>
</g>
</g>
<!-- Node12&#45;&gt;Node14 -->
<g id="edge14" class="edge">
<title>Node12&#45;&gt;Node14</title>
<path fill="none" stroke="midnightblue" d="M761.28,-113.77C765.95,-113.16 770.61,-112.57 775.1,-112 899.5,-96.28 1047.36,-78.87 1113.75,-71.11"/>
<polygon fill="midnightblue" stroke="midnightblue" points="1114.16,-74.59 1123.69,-69.95 1113.35,-67.63 1114.16,-74.59"/>
</g>
<!-- Node15 -->
<g id="node15" class="node">
<title>Node15</title>
<g id="a_node15"><a xlink:title=" ">
<polygon fill="none" stroke="#bfbfbf" points="1782.6,-56.5 1782.6,-75.5 1829.6,-75.5 1829.6,-56.5 1782.6,-56.5"/>
<text text-anchor="middle" x="1806.1" y="-63.5" font-family="Helvetica,sans-Serif" font-size="10.00">deque</text>
</a>
</g>
</g>
<!-- Node12&#45;&gt;Node15 -->
<g id="edge15" class="edge">
<title>Node12&#45;&gt;Node15</title>
<path fill="none" stroke="midnightblue" d="M761.32,-115.7C776.74,-114.33 793.57,-112.97 809.1,-112 1234.09,-85.34 1348.32,-141.67 1772.39,-75.9"/>
<polygon fill="midnightblue" stroke="midnightblue" points="1773.13,-79.32 1782.47,-74.32 1772.05,-72.41 1773.13,-79.32"/>
</g>
<!-- Node16 -->
<g id="node16" class="node">
<title>Node16</title>
<g id="a_node16"><a xlink:title=" ">
<polygon fill="none" stroke="#bfbfbf" points="1717.6,-56.5 1717.6,-75.5 1764.6,-75.5 1764.6,-56.5 1717.6,-56.5"/>
<text text-anchor="middle" x="1741.1" y="-63.5" font-family="Helvetica,sans-Serif" font-size="10.00">vector</text>
</a>
</g>
</g>
<!-- Node12&#45;&gt;Node16 -->
<g id="edge17" class="edge">
<title>Node12&#45;&gt;Node16</title>
<path fill="none" stroke="midnightblue" d="M761.32,-115.81C776.75,-114.45 793.58,-113.06 809.1,-112 831.95,-110.44 1542.58,-76.48 1707.26,-68.62"/>
<polygon fill="midnightblue" stroke="midnightblue" points="1707.48,-72.11 1717.3,-68.14 1707.15,-65.12 1707.48,-72.11"/>
</g>
<!-- Node17&#45;&gt;Node14 -->
<g id="edge20" class="edge">
<title>Node17&#45;&gt;Node14</title>
<path fill="none" stroke="midnightblue" d="M524.68,-113.03C527.86,-112.66 531.02,-112.32 534.1,-112 754.05,-89.42 1019.41,-73.98 1113.73,-68.86"/>
<polygon fill="midnightblue" stroke="midnightblue" points="1114.06,-72.35 1123.86,-68.32 1113.69,-65.36 1114.06,-72.35"/>
</g>
<!-- Node18&#45;&gt;Node13 -->
<g id="edge23" class="edge">
<title>Node18&#45;&gt;Node13</title>
<path fill="none" stroke="midnightblue" d="M810.31,-224.3C830.05,-201.21 887.66,-138.38 951.1,-112 1024.53,-81.46 1268.73,-70.79 1355.87,-67.9"/>
<polygon fill="midnightblue" stroke="midnightblue" points="1356.04,-71.4 1365.93,-67.58 1355.82,-64.4 1356.04,-71.4"/>
</g>
<!-- Node18&#45;&gt;Node14 -->
<g id="edge24" class="edge">
<title>Node18&#45;&gt;Node14</title>
<path fill="none" stroke="midnightblue" d="M800.24,-224.28C793.61,-202.23 779.88,-143.71 809.1,-112 849.5,-68.13 1034.87,-65.37 1113.58,-66.24"/>
<polygon fill="midnightblue" stroke="midnightblue" points="1113.91,-69.74 1123.96,-66.38 1114,-62.74 1113.91,-69.74"/>
</g>
<!-- Node19&#45;&gt;Node6 -->
<g id="edge26" class="edge">
<title>Node19&#45;&gt;Node6</title>
<path fill="none" stroke="midnightblue" d="M612.19,-168.44C666.46,-157.67 758.51,-139.39 807.73,-129.62"/>
<polygon fill="midnightblue" stroke="midnightblue" points="808.42,-133.06 817.55,-127.67 807.06,-126.19 808.42,-133.06"/>
</g>
<!-- Node19&#45;&gt;Node12 -->
<g id="edge28" class="edge">
<title>Node19&#45;&gt;Node12</title>
<path fill="none" stroke="midnightblue" d="M590.96,-168.44C613.87,-159.48 650.07,-145.31 675.96,-135.18"/>
<polygon fill="midnightblue" stroke="midnightblue" points="677.29,-138.42 685.33,-131.52 674.74,-131.9 677.29,-138.42"/>
</g>
<!-- Node19&#45;&gt;Node17 -->
<g id="edge29" class="edge">
<title>Node19&#45;&gt;Node17</title>
<path fill="none" stroke="midnightblue" d="M552.55,-168.32C536.1,-159.7 510.66,-146.36 491.63,-136.39"/>
<polygon fill="midnightblue" stroke="midnightblue" points="493.08,-133.2 482.6,-131.65 489.83,-139.4 493.08,-133.2"/>
</g>
<!-- Node20 -->
<g id="node20" class="node">
<title>Node20</title>
<g id="a_node20"><a xlink:title=" ">
<polygon fill="none" stroke="#bfbfbf" points="543.1,-112.5 543.1,-131.5 597.1,-131.5 597.1,-112.5 543.1,-112.5"/>
<text text-anchor="middle" x="570.1" y="-119.5" font-family="Helvetica,sans-Serif" font-size="10.00">random</text>
</a>
</g>
</g>
<!-- Node19&#45;&gt;Node20 -->
<g id="edge27" class="edge">
<title>Node19&#45;&gt;Node20</title>
<path fill="none" stroke="midnightblue" d="M569.26,-168.08C569.39,-161.01 569.58,-150.86 569.74,-141.99"/>
<polygon fill="midnightblue" stroke="midnightblue" points="573.25,-141.81 569.93,-131.75 566.25,-141.68 573.25,-141.81"/>
</g>
<!-- Node21&#45;&gt;Node11 -->
<g id="edge31" class="edge">
<title>Node21&#45;&gt;Node11</title>
<path fill="none" stroke="midnightblue" d="M744.67,-280.27C721.64,-258.19 663.02,-197.2 644.1,-132 641.62,-123.46 640.03,-119.9 644.1,-112 651.27,-98.06 664.99,-87.47 677.8,-80.09"/>
<polygon fill="midnightblue" stroke="midnightblue" points="679.68,-83.05 686.86,-75.27 676.39,-76.87 679.68,-83.05"/>
</g>
<!-- Node21&#45;&gt;Node12 -->
<g id="edge32" class="edge">
<title>Node21&#45;&gt;Node12</title>
<path fill="none" stroke="midnightblue" d="M746.87,-280.31C740.1,-271.66 730.27,-257.74 725.1,-244 712.11,-209.5 708.46,-166.15 707.45,-141.82"/>
<polygon fill="midnightblue" stroke="midnightblue" points="710.94,-141.41 707.14,-131.52 703.94,-141.62 710.94,-141.41"/>
</g>
<!-- Node21&#45;&gt;Node18 -->
<g id="edge33" class="edge">
<title>Node21&#45;&gt;Node18</title>
<path fill="none" stroke="midnightblue" d="M762.19,-280.08C769.25,-272.3 779.68,-260.8 788.24,-251.37"/>
<polygon fill="midnightblue" stroke="midnightblue" points="791.03,-253.51 795.15,-243.75 785.84,-248.8 791.03,-253.51"/>
</g>
<!-- Node22 -->
<g id="node22" class="node">
<title>Node22</title>
<g id="a_node22"><a xlink:href="encoder__context_8hpp.html" target="_top" xlink:title=" ">
<polygon fill="none" stroke="black" points="1303.1,-112.5 1303.1,-131.5 1437.1,-131.5 1437.1,-112.5 1303.1,-112.5"/>
<text text-anchor="middle" x="1370.1" y="-119.5" font-family="Helvetica,sans-Serif" font-size="10.00">ktl/encoder_context.hpp</text>
</a>
</g>
</g>
<!-- Node21&#45;&gt;Node22 -->
<g id="edge34" class="edge">
<title>Node21&#45;&gt;Node22</title>
<path fill="none" stroke="midnightblue" d="M800.26,-280.98C882.3,-266.21 1058.47,-232.14 1203.1,-188 1252.71,-172.86 1308.55,-149.86 1341.45,-135.67"/>
<polygon fill="midnightblue" stroke="midnightblue" points="1343.11,-138.76 1350.89,-131.57 1340.32,-132.34 1343.11,-138.76"/>
</g>
<!-- Node21&#45;&gt;Node24 -->
<g id="edge36" class="edge">
<title>Node21&#45;&gt;Node24</title>
<path fill="none" stroke="midnightblue" d="M800.27,-285.72C927.57,-276.69 1284.44,-251.37 1440.48,-240.29"/>
<polygon fill="midnightblue" stroke="midnightblue" points="1440.73,-243.79 1450.46,-239.59 1440.24,-236.8 1440.73,-243.79"/>
</g>
<!-- Node23 -->
<g id="node23" class="node">
<title>Node23</title>
<g id="a_node23"><a xlink:title=" ">
<polygon fill="none" stroke="#bfbfbf" points="1486.1,-56.5 1486.1,-75.5 1542.1,-75.5 1542.1,-56.5 1486.1,-56.5"/>
<text text-anchor="middle" x="1514.1" y="-63.5" font-family="Helvetica,sans-Serif" font-size="10.00">optional</text>
</a>
</g>
</g>
<!-- Node22&#45;&gt;Node23 -->
<g id="edge35" class="edge">
<title>Node22&#45;&gt;Node23</title>
<path fill="none" stroke="midnightblue" d="M1392.91,-112.44C1416.93,-103.44 1454.92,-89.19 1481.96,-79.05"/>
<polygon fill="midnightblue" stroke="midnightblue" points="1483.25,-82.3 1491.38,-75.52 1480.79,-75.75 1483.25,-82.3"/>
</g>
<!-- Node24&#45;&gt;Node2 -->
<g id="edge37" class="edge">
<title>Node24&#45;&gt;Node2</title>
<path fill="none" stroke="midnightblue" d="M1450.38,-231.68C1240,-227.18 583.61,-211.4 491.1,-188 479.87,-185.16 418.73,-154.46 383.03,-136.29"/>
<polygon fill="midnightblue" stroke="midnightblue" points="384.2,-132.95 373.7,-131.53 381.02,-139.19 384.2,-132.95"/>
</g>
<!-- Node24&#45;&gt;Node6 -->
<g id="edge40" class="edge">
<title>Node24&#45;&gt;Node6</title>
<path fill="none" stroke="midnightblue" d="M1450.34,-232.35C1355.17,-230.22 1172.42,-221.63 1021.1,-188 965.75,-175.7 904.2,-150.91 869.32,-135.75"/>
<polygon fill="midnightblue" stroke="midnightblue" points="870.36,-132.39 859.8,-131.57 867.54,-138.8 870.36,-132.39"/>
</g>
<!-- Node24&#45;&gt;Node13 -->
<g id="edge38" class="edge">
<title>Node24&#45;&gt;Node13</title>
<path fill="none" stroke="midnightblue" d="M1579.71,-231.29C1698.66,-227.46 1942.53,-216.23 1968.1,-188 1981.72,-172.95 1981.96,-133.54 1958.1,-112 1918.32,-76.08 1530.49,-80.67 1477.1,-76 1457.53,-74.29 1435.61,-72.1 1418.3,-70.31"/>
<polygon fill="midnightblue" stroke="midnightblue" points="1418.48,-66.81 1408.18,-69.26 1417.76,-73.78 1418.48,-66.81"/>
</g>
<!-- Node24&#45;&gt;Node14 -->
<g id="edge41" class="edge">
<title>Node24&#45;&gt;Node14</title>
<path fill="none" stroke="midnightblue" d="M1512.93,-224.18C1506.82,-201.36 1487.17,-140.19 1446.1,-112 1404.17,-83.23 1253.81,-72.18 1184.52,-68.55"/>
<polygon fill="midnightblue" stroke="midnightblue" points="1184.68,-65.05 1174.51,-68.04 1184.33,-72.04 1184.68,-65.05"/>
</g>
<!-- Node24&#45;&gt;Node15 -->
<g id="edge42" class="edge">
<title>Node24&#45;&gt;Node15</title>
<path fill="none" stroke="midnightblue" d="M1579.9,-231.79C1706.33,-228.77 1976.05,-218.74 2004.1,-188 2015.6,-175.38 2021.56,-138.55 1998.1,-112 1977.5,-88.69 1889.45,-75.8 1840.05,-70.28"/>
<polygon fill="midnightblue" stroke="midnightblue" points="1840.16,-66.78 1829.84,-69.19 1839.41,-73.74 1840.16,-66.78"/>
</g>
<!-- Node24&#45;&gt;Node16 -->
<g id="edge45" class="edge">
<title>Node24&#45;&gt;Node16</title>
<path fill="none" stroke="midnightblue" d="M1579.88,-231.55C1702.63,-228.12 1959.3,-217.48 1986.1,-188 1998.59,-174.26 2001.51,-136.19 1978.1,-112 1916.26,-48.1 1867.38,-92.83 1774.82,-75.8"/>
<polygon fill="midnightblue" stroke="midnightblue" points="1775.32,-72.33 1764.82,-73.75 1773.92,-79.19 1775.32,-72.33"/>
</g>
<!-- Node25 -->
<g id="node25" class="node">
<title>Node25</title>
<g id="a_node25"><a xlink:title=" ">
<polygon fill="none" stroke="#bfbfbf" points="1493.1,-112.5 1493.1,-131.5 1537.1,-131.5 1537.1,-112.5 1493.1,-112.5"/>
<text text-anchor="middle" x="1515.1" y="-119.5" font-family="Helvetica,sans-Serif" font-size="10.00">bitset</text>
</a>
</g>
</g>
<!-- Node24&#45;&gt;Node25 -->
<g id="edge39" class="edge">
<title>Node24&#45;&gt;Node25</title>
<path fill="none" stroke="midnightblue" d="M1515.1,-224.37C1515.1,-206.62 1515.1,-165.67 1515.1,-141.6"/>
<polygon fill="midnightblue" stroke="midnightblue" points="1518.6,-141.59 1515.1,-131.59 1511.6,-141.59 1518.6,-141.59"/>
</g>
<!-- Node26 -->
<g id="node26" class="node">
<title>Node26</title>
<g id="a_node26"><a xlink:title=" ">
<polygon fill="none" stroke="#bfbfbf" points="1895.1,-112.5 1895.1,-131.5 1933.1,-131.5 1933.1,-112.5 1895.1,-112.5"/>
<text text-anchor="middle" x="1914.1" y="-119.5" font-family="Helvetica,sans-Serif" font-size="10.00">map</text>
</a>
</g>
</g>
<!-- Node24&#45;&gt;Node26 -->
<g id="edge43" class="edge">
<title>Node24&#45;&gt;Node26</title>
<path fill="none" stroke="midnightblue" d="M1575.94,-224.47C1623.6,-217.03 1691.29,-204.79 1749.1,-188 1798.67,-173.6 1854.08,-150.19 1886.42,-135.74"/>
<polygon fill="midnightblue" stroke="midnightblue" points="1888,-138.86 1895.68,-131.56 1885.13,-132.48 1888,-138.86"/>
</g>
<!-- Node27 -->
<g id="node27" class="node">
<title>Node27</title>
<g id="a_node27"><a xlink:title=" ">
<polygon fill="none" stroke="#bfbfbf" points="1821.1,-112.5 1821.1,-131.5 1877.1,-131.5 1877.1,-112.5 1821.1,-112.5"/>
<text text-anchor="middle" x="1849.1" y="-119.5" font-family="Helvetica,sans-Serif" font-size="10.00">sstream</text>
</a>
</g>
</g>
<!-- Node24&#45;&gt;Node27 -->
<g id="edge44" class="edge">
<title>Node24&#45;&gt;Node27</title>
<path fill="none" stroke="midnightblue" d="M1566.56,-224.43C1606.82,-216.97 1663.87,-204.72 1712.1,-188 1753.08,-173.79 1798.06,-150.95 1824.91,-136.47"/>
<polygon fill="midnightblue" stroke="midnightblue" points="1826.84,-139.4 1833.95,-131.54 1823.49,-133.26 1826.84,-139.4"/>
</g>
<!-- Node28 -->
<g id="node28" class="node">
<title>Node28</title>
<g id="a_node28"><a xlink:href="binary__stream_8hpp.html" target="_top" xlink:title=" ">
<polygon fill="none" stroke="black" points="1579.1,-168.5 1579.1,-187.5 1703.1,-187.5 1703.1,-168.5 1579.1,-168.5"/>
<text text-anchor="middle" x="1641.1" y="-175.5" font-family="Helvetica,sans-Serif" font-size="10.00">ktl/binary_stream.hpp</text>
</a>
</g>
</g>
<!-- Node24&#45;&gt;Node28 -->
<g id="edge46" class="edge">
<title>Node24&#45;&gt;Node28</title>
<path fill="none" stroke="midnightblue" d="M1535.06,-224.44C1555.7,-215.6 1588.16,-201.69 1611.73,-191.59"/>
<polygon fill="midnightblue" stroke="midnightblue" points="1613.41,-194.67 1621.22,-187.52 1610.65,-188.24 1613.41,-194.67"/>
</g>
<!-- Node29 -->
<g id="node29" class="node">
<title>Node29</title>
<g id="a_node29"><a xlink:href="i__symbol__stream_8hpp.html" target="_top" xlink:title=" ">
<polygon fill="none" stroke="black" points="1147.6,-112.5 1147.6,-131.5 1284.6,-131.5 1284.6,-112.5 1147.6,-112.5"/>
<text text-anchor="middle" x="1216.1" y="-119.5" font-family="Helvetica,sans-Serif" font-size="10.00">ktl/i_symbol_stream.hpp</text>
</a>
</g>
</g>
<!-- Node24&#45;&gt;Node29 -->
<g id="edge59" class="edge">
<title>Node24&#45;&gt;Node29</title>
<path fill="none" stroke="midnightblue" d="M1491.63,-224.37C1438.69,-204.89 1309.82,-157.48 1248.96,-135.09"/>
<polygon fill="midnightblue" stroke="midnightblue" points="1250.04,-131.76 1239.45,-131.59 1247.63,-138.33 1250.04,-131.76"/>
</g>
<!-- Node24&#45;&gt;Node30 -->
<g id="edge61" class="edge">
<title>Node24&#45;&gt;Node30</title>
<path fill="none" stroke="midnightblue" d="M1451.24,-224.44C1379.02,-214.77 1261.62,-199.04 1185.63,-188.85"/>
<polygon fill="midnightblue" stroke="midnightblue" points="1186.03,-185.38 1175.65,-187.52 1185.1,-192.31 1186.03,-185.38"/>
</g>
<!-- Node32 -->
<g id="node32" class="node">
<title>Node32</title>
<g id="a_node32"><a xlink:href="symbol_8hpp.html" target="_top" xlink:title=" ">
<polygon fill="none" stroke="black" points="1869.6,-168.5 1869.6,-187.5 1958.6,-187.5 1958.6,-168.5 1869.6,-168.5"/>
<text text-anchor="middle" x="1914.1" y="-175.5" font-family="Helvetica,sans-Serif" font-size="10.00">ktl/symbol.hpp</text>
</a>
</g>
</g>
<!-- Node24&#45;&gt;Node32 -->
<g id="edge70" class="edge">
<title>Node24&#45;&gt;Node32</title>
<path fill="none" stroke="midnightblue" d="M1578.32,-224.44C1655.86,-213.95 1786.03,-196.33 1859.44,-186.4"/>
<polygon fill="midnightblue" stroke="midnightblue" points="1859.97,-189.86 1869.41,-185.05 1859.03,-182.92 1859.97,-189.86"/>
</g>
<!-- Node28&#45;&gt;Node3 -->
<g id="edge58" class="edge">
<title>Node28&#45;&gt;Node3</title>
<path fill="none" stroke="midnightblue" d="M1629.42,-168.47C1606.14,-151.55 1555.39,-115.09 1546.1,-112 1365.93,-52.14 886.66,-91.7 679.21,-75.94"/>
<polygon fill="midnightblue" stroke="midnightblue" points="679.19,-72.43 668.94,-75.1 678.62,-79.41 679.19,-72.43"/>
</g>
<!-- Node28&#45;&gt;Node6 -->
<g id="edge49" class="edge">
<title>Node28&#45;&gt;Node6</title>
<path fill="none" stroke="midnightblue" d="M1578.75,-173.28C1457.71,-165.98 1182.46,-149.01 951.1,-132 925.48,-130.12 896.52,-127.74 874.75,-125.9"/>
<polygon fill="midnightblue" stroke="midnightblue" points="874.95,-122.4 864.69,-125.04 874.36,-129.38 874.95,-122.4"/>
</g>
<!-- Node28&#45;&gt;Node10 -->
<g id="edge52" class="edge">
<title>Node28&#45;&gt;Node10</title>
<path fill="none" stroke="midnightblue" d="M1578.83,-171.93C1483.9,-164.09 1297.3,-148.22 1139.1,-132 1126.93,-130.75 1113.71,-129.27 1101.67,-127.88"/>
<polygon fill="midnightblue" stroke="midnightblue" points="1101.79,-124.37 1091.45,-126.68 1100.98,-131.32 1101.79,-124.37"/>
</g>
<!-- Node28&#45;&gt;Node11 -->
<g id="edge55" class="edge">
<title>Node28&#45;&gt;Node11</title>
<path fill="none" stroke="midnightblue" d="M1635.94,-168.27C1626.69,-153.55 1605.74,-124.23 1579.1,-112 1540.07,-94.09 887.03,-72.63 737.45,-67.94"/>
<polygon fill="midnightblue" stroke="midnightblue" points="737.29,-64.43 727.19,-67.62 737.07,-71.43 737.29,-64.43"/>
</g>
<!-- Node28&#45;&gt;Node13 -->
<g id="edge47" class="edge">
<title>Node28&#45;&gt;Node13</title>
<path fill="none" stroke="midnightblue" d="M1647.05,-168.32C1655.58,-154.7 1668.81,-128.21 1655.1,-112 1639.91,-94.05 1485.88,-76.77 1418.44,-70"/>
<polygon fill="midnightblue" stroke="midnightblue" points="1418.69,-66.51 1408.4,-69.01 1418,-73.47 1418.69,-66.51"/>
</g>
<!-- Node28&#45;&gt;Node14 -->
<g id="edge50" class="edge">
<title>Node28&#45;&gt;Node14</title>
<path fill="none" stroke="midnightblue" d="M1640.67,-168.14C1639.46,-153.78 1634.82,-125.66 1617.1,-112 1583.02,-85.75 1287.76,-72.22 1184.54,-68.26"/>
<polygon fill="midnightblue" stroke="midnightblue" points="1184.45,-64.75 1174.32,-67.87 1184.18,-71.75 1184.45,-64.75"/>
</g>
<!-- Node28&#45;&gt;Node15 -->
<g id="edge51" class="edge">
<title>Node28&#45;&gt;Node15</title>
<path fill="none" stroke="midnightblue" d="M1671.38,-168.49C1694.14,-161.17 1725.34,-149.06 1749.1,-132 1767.5,-118.78 1784.01,-98.56 1794.47,-84.18"/>
<polygon fill="midnightblue" stroke="midnightblue" points="1797.54,-85.9 1800.43,-75.71 1791.81,-81.88 1797.54,-85.9"/>
</g>
<!-- Node28&#45;&gt;Node16 -->
<g id="edge57" class="edge">
<title>Node28&#45;&gt;Node16</title>
<path fill="none" stroke="midnightblue" d="M1675.32,-168.36C1694.72,-161.67 1717.72,-150.35 1731.1,-132 1740.76,-118.74 1742.73,-99.87 1742.59,-85.88"/>
<polygon fill="midnightblue" stroke="midnightblue" points="1746.07,-85.33 1742.1,-75.5 1739.08,-85.66 1746.07,-85.33"/>
</g>
<!-- Node28&#45;&gt;Node23 -->
<g id="edge54" class="edge">
<title>Node28&#45;&gt;Node23</title>
<path fill="none" stroke="midnightblue" d="M1656.7,-168.43C1677.24,-156.05 1709,-132.4 1693.1,-112 1676.01,-90.09 1599.96,-77.22 1552.65,-71.19"/>
<polygon fill="midnightblue" stroke="midnightblue" points="1552.8,-67.68 1542.45,-69.94 1551.95,-74.63 1552.8,-67.68"/>
</g>
<!-- Node28&#45;&gt;Node25 -->
<g id="edge48" class="edge">
<title>Node28&#45;&gt;Node25</title>
<path fill="none" stroke="midnightblue" d="M1621.13,-168.44C1600.49,-159.6 1568.03,-145.69 1544.46,-135.59"/>
<polygon fill="midnightblue" stroke="midnightblue" points="1545.54,-132.24 1534.97,-131.52 1542.78,-138.67 1545.54,-132.24"/>
</g>
<!-- Node28&#45;&gt;Node26 -->
<g id="edge53" class="edge">
<title>Node28&#45;&gt;Node26</title>
<path fill="none" stroke="midnightblue" d="M1699.47,-168.46C1747.15,-160.98 1816.41,-149.01 1885.21,-131.97"/>
<polygon fill="midnightblue" stroke="midnightblue" points="1886.06,-135.36 1894.91,-129.53 1884.36,-128.57 1886.06,-135.36"/>
</g>
<!-- Node28&#45;&gt;Node27 -->
<g id="edge56" class="edge">
<title>Node28&#45;&gt;Node27</title>
<path fill="none" stroke="midnightblue" d="M1674.05,-168.44C1711.36,-158.76 1772.02,-143.01 1811.24,-132.83"/>
<polygon fill="midnightblue" stroke="midnightblue" points="1812.16,-136.2 1820.96,-130.3 1810.4,-129.43 1812.16,-136.2"/>
</g>
<!-- Node29&#45;&gt;Node14 -->
<g id="edge60" class="edge">
<title>Node29&#45;&gt;Node14</title>
<path fill="none" stroke="midnightblue" d="M1205.33,-112.32C1195.33,-104.26 1180.21,-92.08 1168.16,-82.37"/>
<polygon fill="midnightblue" stroke="midnightblue" points="1170.04,-79.38 1160.06,-75.83 1165.65,-84.83 1170.04,-79.38"/>
</g>
<!-- Node30&#45;&gt;Node3 -->
<g id="edge66" class="edge">
<title>Node30&#45;&gt;Node3</title>
<path fill="none" stroke="midnightblue" d="M1081.47,-168.46C1021.9,-151.87 894.48,-116.52 874.1,-112 808.06,-97.35 731.77,-84.72 678.6,-76.61"/>
<polygon fill="midnightblue" stroke="midnightblue" points="679.03,-73.13 668.62,-75.1 677.98,-80.05 679.03,-73.13"/>
</g>
<!-- Node30&#45;&gt;Node10 -->
<g id="edge64" class="edge">
<title>Node30&#45;&gt;Node10</title>
<path fill="none" stroke="midnightblue" d="M1103.67,-168.08C1096.25,-160.22 1085.24,-148.57 1076.28,-139.08"/>
<polygon fill="midnightblue" stroke="midnightblue" points="1078.77,-136.62 1069.36,-131.75 1073.68,-141.42 1078.77,-136.62"/>
</g>
<!-- Node30&#45;&gt;Node12 -->
<g id="edge67" class="edge">
<title>Node30&#45;&gt;Node12</title>
<path fill="none" stroke="midnightblue" d="M1047.92,-168.44C972.3,-158.36 847.37,-141.7 771.6,-131.6"/>
<polygon fill="midnightblue" stroke="midnightblue" points="771.62,-128.07 761.25,-130.22 770.7,-135.01 771.62,-128.07"/>
</g>
<!-- Node30&#45;&gt;Node14 -->
<g id="edge63" class="edge">
<title>Node30&#45;&gt;Node14</title>
<path fill="none" stroke="midnightblue" d="M1115,-168.37C1121,-150.54 1134.87,-109.3 1142.95,-85.27"/>
<polygon fill="midnightblue" stroke="midnightblue" points="1146.33,-86.19 1146.21,-75.59 1139.7,-83.95 1146.33,-86.19"/>
</g>
<!-- Node30&#45;&gt;Node22 -->
<g id="edge68" class="edge">
<title>Node30&#45;&gt;Node22</title>
<path fill="none" stroke="midnightblue" d="M1152.98,-168.44C1198.08,-159 1270.71,-143.8 1319.4,-133.61"/>
<polygon fill="midnightblue" stroke="midnightblue" points="1320.33,-136.99 1329.41,-131.52 1318.9,-130.14 1320.33,-136.99"/>
</g>
<!-- Node30&#45;&gt;Node26 -->
<g id="edge65" class="edge">
<title>Node30&#45;&gt;Node26</title>
<path fill="none" stroke="midnightblue" d="M1194.41,-174.85C1361.69,-170.05 1737.28,-157.02 1884.76,-131.69"/>
<polygon fill="midnightblue" stroke="midnightblue" points="1885.76,-135.07 1894.98,-129.85 1884.52,-128.18 1885.76,-135.07"/>
</g>
<!-- Node30&#45;&gt;Node29 -->
<g id="edge69" class="edge">
<title>Node30&#45;&gt;Node29</title>
<path fill="none" stroke="midnightblue" d="M1128.8,-168.32C1145.41,-159.7 1171.1,-146.36 1190.32,-136.39"/>
<polygon fill="midnightblue" stroke="midnightblue" points="1192.17,-139.37 1199.43,-131.65 1188.94,-133.16 1192.17,-139.37"/>
</g>
<!-- Node31 -->
<g id="node31" class="node">
<title>Node31</title>
<g id="a_node31"><a xlink:title=" ">
<polygon fill="none" stroke="#bfbfbf" points="959.6,-112.5 959.6,-131.5 1012.6,-131.5 1012.6,-112.5 959.6,-112.5"/>
<text text-anchor="middle" x="986.1" y="-119.5" font-family="Helvetica,sans-Serif" font-size="10.00">cstddef</text>
</a>
</g>
</g>
<!-- Node30&#45;&gt;Node31 -->
<g id="edge62" class="edge">
<title>Node30&#45;&gt;Node31</title>
<path fill="none" stroke="midnightblue" d="M1092.13,-168.44C1071.49,-159.6 1039.03,-145.69 1015.46,-135.59"/>
<polygon fill="midnightblue" stroke="midnightblue" points="1016.54,-132.24 1005.97,-131.52 1013.78,-138.67 1016.54,-132.24"/>
</g>
<!-- Node32&#45;&gt;Node14 -->
<g id="edge71" class="edge">
<title>Node32&#45;&gt;Node14</title>
<path fill="none" stroke="midnightblue" d="M1923.18,-168.37C1936.36,-154.82 1957.62,-128.43 1942.1,-112 1935.49,-105.01 1337.89,-76.02 1184.6,-68.69"/>
<polygon fill="midnightblue" stroke="midnightblue" points="1184.5,-65.18 1174.35,-68.2 1184.17,-72.17 1184.5,-65.18"/>
</g>
<!-- Node32&#45;&gt;Node26 -->
<g id="edge72" class="edge">
<title>Node32&#45;&gt;Node26</title>
<path fill="none" stroke="midnightblue" d="M1914.1,-168.08C1914.1,-161.01 1914.1,-150.86 1914.1,-141.99"/>
<polygon fill="midnightblue" stroke="midnightblue" points="1917.6,-141.75 1914.1,-131.75 1910.6,-141.75 1917.6,-141.75"/>
</g>
</g>
</svg>
