<?xml version="1.0" encoding="UTF-8" standalone="no"?>
<!DOCTYPE svg PUBLIC "-//W3C//DTD SVG 1.1//EN"
 "http://www.w3.org/Graphics/SVG/1.1/DTD/svg11.dtd">
<!-- Generated by graphviz version 2.43.0 (0)
 -->
<!-- Title: k3_model.hpp Pages: 1 -->
<svg width="512pt" height="140pt"
 viewBox="0.00 0.00 511.50 140.00" xmlns="http://www.w3.org/2000/svg" xmlns:xlink="http://www.w3.org/1999/xlink">
<g id="graph0" class="graph" transform="scale(1 1) rotate(0) translate(4 136)">
<title>k3_model.hpp</title>
<!-- Node1 -->
<g id="node1" class="node">
<title>Node1</title>
<g id="a_node1"><a xlink:title=" ">
<polygon fill="#bfbfbf" stroke="black" points="92.5,-112.5 92.5,-131.5 178.5,-131.5 178.5,-112.5 92.5,-112.5"/>
<text text-anchor="middle" x="135.5" y="-119.5" font-family="Helvetica,sans-Serif" font-size="10.00">k3_model.hpp</text>
</a>
</g>
</g>
<!-- Node2 -->
<g id="node2" class="node">
<title>Node2</title>
<g id="a_node2"><a xlink:href="k3__model_8test_8cpp.html" target="_top" xlink:title=" ">
<polygon fill="none" stroke="black" points="0,-56.5 0,-75.5 107,-75.5 107,-56.5 0,-56.5"/>
<text text-anchor="middle" x="53.5" y="-63.5" font-family="Helvetica,sans-Serif" font-size="10.00">k3_model.test.cpp</text>
</a>
</g>
</g>
<!-- Node1&#45;&gt;Node2 -->
<g id="edge1" class="edge">
<title>Node1&#45;&gt;Node2</title>
<path fill="none" stroke="midnightblue" d="M113.67,-106.62C98.69,-96.76 79.3,-83.99 66.64,-75.65"/>
<polygon fill="midnightblue" stroke="midnightblue" points="112.05,-109.75 122.33,-112.32 115.9,-103.9 112.05,-109.75"/>
</g>
<!-- Node3 -->
<g id="node3" class="node">
<title>Node3</title>
<g id="a_node3"><a xlink:href="translation__layer_8cpp.html" target="_top" xlink:title=" ">
<polygon fill="none" stroke="black" points="66,-0.5 66,-19.5 185,-19.5 185,-0.5 66,-0.5"/>
<text text-anchor="middle" x="125.5" y="-7.5" font-family="Helvetica,sans-Serif" font-size="10.00">translation_layer.cpp</text>
</a>
</g>
</g>
<!-- Node1&#45;&gt;Node3 -->
<g id="edge2" class="edge">
<title>Node1&#45;&gt;Node3</title>
<path fill="none" stroke="midnightblue" d="M133.8,-102.35C131.61,-78.25 127.89,-37.31 126.28,-19.59"/>
<polygon fill="midnightblue" stroke="midnightblue" points="130.32,-102.73 134.72,-112.37 137.3,-102.09 130.32,-102.73"/>
</g>
<!-- Node4 -->
<g id="node4" class="node">
<title>Node4</title>
<g id="a_node4"><a xlink:href="translation__layer_8hpp.html" target="_top" xlink:title=" ">
<polygon fill="none" stroke="black" points="175,-56.5 175,-75.5 294,-75.5 294,-56.5 175,-56.5"/>
<text text-anchor="middle" x="234.5" y="-63.5" font-family="Helvetica,sans-Serif" font-size="10.00">translation_layer.hpp</text>
</a>
</g>
</g>
<!-- Node1&#45;&gt;Node4 -->
<g id="edge3" class="edge">
<title>Node1&#45;&gt;Node4</title>
<path fill="none" stroke="midnightblue" d="M160.34,-107.45C178.61,-97.48 202.92,-84.23 218.63,-75.65"/>
<polygon fill="midnightblue" stroke="midnightblue" points="158.51,-104.46 151.41,-112.32 161.86,-110.61 158.51,-104.46"/>
</g>
<!-- Node4&#45;&gt;Node3 -->
<g id="edge6" class="edge">
<title>Node4&#45;&gt;Node3</title>
<path fill="none" stroke="midnightblue" d="M207.98,-51.86C187.77,-41.85 160.51,-28.35 142.97,-19.65"/>
<polygon fill="midnightblue" stroke="midnightblue" points="206.47,-55.02 216.99,-56.32 209.58,-48.75 206.47,-55.02"/>
</g>
<!-- Node5 -->
<g id="node5" class="node">
<title>Node5</title>
<g id="a_node5"><a xlink:href="src_2kazoo__connect__server_2main_8cpp.html" target="_top" xlink:title=" ">
<polygon fill="none" stroke="black" points="203.5,-0.5 203.5,-19.5 265.5,-19.5 265.5,-0.5 203.5,-0.5"/>
<text text-anchor="middle" x="234.5" y="-7.5" font-family="Helvetica,sans-Serif" font-size="10.00">main.cpp</text>
</a>
</g>
</g>
<!-- Node4&#45;&gt;Node5 -->
<g id="edge4" class="edge">
<title>Node4&#45;&gt;Node5</title>
<path fill="none" stroke="midnightblue" d="M234.5,-45.8C234.5,-36.91 234.5,-26.78 234.5,-19.75"/>
<polygon fill="midnightblue" stroke="midnightblue" points="231,-46.08 234.5,-56.08 238,-46.08 231,-46.08"/>
</g>
<!-- Node6 -->
<g id="node6" class="node">
<title>Node6</title>
<g id="a_node6"><a xlink:href="src_2main_8cpp.html" target="_top" xlink:title=" ">
<polygon fill="none" stroke="black" points="283.5,-0.5 283.5,-19.5 345.5,-19.5 345.5,-0.5 283.5,-0.5"/>
<text text-anchor="middle" x="314.5" y="-7.5" font-family="Helvetica,sans-Serif" font-size="10.00">main.cpp</text>
</a>
</g>
</g>
<!-- Node4&#45;&gt;Node6 -->
<g id="edge5" class="edge">
<title>Node4&#45;&gt;Node6</title>
<path fill="none" stroke="midnightblue" d="M255.8,-50.62C270.42,-40.76 289.33,-27.99 301.68,-19.65"/>
<polygon fill="midnightblue" stroke="midnightblue" points="253.68,-47.83 247.35,-56.32 257.6,-53.63 253.68,-47.83"/>
</g>
<!-- Node7 -->
<g id="node7" class="node">
<title>Node7</title>
<g id="a_node7"><a xlink:href="translation__layer_8test_8cpp.html" target="_top" xlink:title=" ">
<polygon fill="none" stroke="black" points="363.5,-0.5 363.5,-19.5 503.5,-19.5 503.5,-0.5 363.5,-0.5"/>
<text text-anchor="middle" x="433.5" y="-7.5" font-family="Helvetica,sans-Serif" font-size="10.00">translation_layer.test.cpp</text>
</a>
</g>
</g>
<!-- Node4&#45;&gt;Node7 -->
<g id="edge7" class="edge">
<title>Node4&#45;&gt;Node7</title>
<path fill="none" stroke="midnightblue" d="M276.15,-53.7C313.71,-43.51 368.11,-28.74 402.12,-19.52"/>
<polygon fill="midnightblue" stroke="midnightblue" points="274.77,-50.45 266.03,-56.44 276.6,-57.2 274.77,-50.45"/>
</g>
</g>
</svg>
