<?xml version="1.0" encoding="UTF-8" standalone="no"?>
<!DOCTYPE svg PUBLIC "-//W3C//DTD SVG 1.1//EN"
 "http://www.w3.org/Graphics/SVG/1.1/DTD/svg11.dtd">
<!-- Generated by graphviz version 2.43.0 (0)
 -->
<!-- Title: kazoo_pcm.hpp Pages: 1 -->
<svg width="1296pt" height="252pt"
 viewBox="0.00 0.00 1295.91 252.00" xmlns="http://www.w3.org/2000/svg" xmlns:xlink="http://www.w3.org/1999/xlink">
<g id="graph0" class="graph" transform="scale(1 1) rotate(0) translate(4 248)">
<title>kazoo_pcm.hpp</title>
<!-- Node1 -->
<g id="node1" class="node">
<title>Node1</title>
<g id="a_node1"><a xlink:title=" ">
<polygon fill="#bfbfbf" stroke="black" points="432.91,-224.5 432.91,-243.5 524.91,-243.5 524.91,-224.5 432.91,-224.5"/>
<text text-anchor="middle" x="478.91" y="-231.5" font-family="Helvetica,sans-Serif" font-size="10.00">kazoo_pcm.hpp</text>
</a>
</g>
</g>
<!-- Node2 -->
<g id="node2" class="node">
<title>Node2</title>
<g id="a_node2"><a xlink:href="doot1__pcm_8cpp.html" target="_top" xlink:title=" ">
<polygon fill="none" stroke="black" points="69.41,-168.5 69.41,-187.5 160.41,-187.5 160.41,-168.5 69.41,-168.5"/>
<text text-anchor="middle" x="114.91" y="-175.5" font-family="Helvetica,sans-Serif" font-size="10.00">doot1_pcm.cpp</text>
</a>
</g>
</g>
<!-- Node1&#45;&gt;Node2 -->
<g id="edge1" class="edge">
<title>Node1&#45;&gt;Node2</title>
<path fill="none" stroke="midnightblue" d="M422.92,-225.23C360.8,-216.53 257.6,-201.83 168.91,-188 166.18,-187.58 163.38,-187.13 160.56,-186.68"/>
<polygon fill="midnightblue" stroke="midnightblue" points="422.52,-228.71 432.9,-226.63 423.49,-221.78 422.52,-228.71"/>
</g>
<!-- Node3 -->
<g id="node3" class="node">
<title>Node3</title>
<g id="a_node3"><a xlink:href="doot2__pcm_8cpp.html" target="_top" xlink:title=" ">
<polygon fill="none" stroke="black" points="178.41,-168.5 178.41,-187.5 269.41,-187.5 269.41,-168.5 178.41,-168.5"/>
<text text-anchor="middle" x="223.91" y="-175.5" font-family="Helvetica,sans-Serif" font-size="10.00">doot2_pcm.cpp</text>
</a>
</g>
</g>
<!-- Node1&#45;&gt;Node3 -->
<g id="edge2" class="edge">
<title>Node1&#45;&gt;Node3</title>
<path fill="none" stroke="midnightblue" d="M428.59,-222.35C380.4,-212.14 308.62,-196.94 264.12,-187.52"/>
<polygon fill="midnightblue" stroke="midnightblue" points="427.99,-225.8 438.5,-224.44 429.44,-218.95 427.99,-225.8"/>
</g>
<!-- Node4 -->
<g id="node4" class="node">
<title>Node4</title>
<g id="a_node4"><a xlink:href="doot3__pcm_8cpp.html" target="_top" xlink:title=" ">
<polygon fill="none" stroke="black" points="287.41,-168.5 287.41,-187.5 378.41,-187.5 378.41,-168.5 287.41,-168.5"/>
<text text-anchor="middle" x="332.91" y="-175.5" font-family="Helvetica,sans-Serif" font-size="10.00">doot3_pcm.cpp</text>
</a>
</g>
</g>
<!-- Node1&#45;&gt;Node4 -->
<g id="edge3" class="edge">
<title>Node1&#45;&gt;Node4</title>
<path fill="none" stroke="midnightblue" d="M446.21,-220.91C418.76,-210.75 380.24,-196.51 355.93,-187.52"/>
<polygon fill="midnightblue" stroke="midnightblue" points="445.18,-224.26 455.77,-224.44 447.61,-217.69 445.18,-224.26"/>
</g>
<!-- Node5 -->
<g id="node5" class="node">
<title>Node5</title>
<g id="a_node5"><a xlink:href="doot4__pcm_8cpp.html" target="_top" xlink:title=" ">
<polygon fill="none" stroke="black" points="396.41,-168.5 396.41,-187.5 487.41,-187.5 487.41,-168.5 396.41,-168.5"/>
<text text-anchor="middle" x="441.91" y="-175.5" font-family="Helvetica,sans-Serif" font-size="10.00">doot4_pcm.cpp</text>
</a>
</g>
</g>
<!-- Node1&#45;&gt;Node5 -->
<g id="edge4" class="edge">
<title>Node1&#45;&gt;Node5</title>
<path fill="none" stroke="midnightblue" d="M466.96,-215.57C460.6,-206.27 453.04,-195.25 447.9,-187.75"/>
<polygon fill="midnightblue" stroke="midnightblue" points="464.26,-217.81 472.8,-224.08 470.03,-213.86 464.26,-217.81"/>
</g>
<!-- Node6 -->
<g id="node6" class="node">
<title>Node6</title>
<g id="a_node6"><a xlink:href="encoder_8hpp.html" target="_top" xlink:title=" ">
<polygon fill="none" stroke="black" points="543.91,-168.5 543.91,-187.5 619.91,-187.5 619.91,-168.5 543.91,-168.5"/>
<text text-anchor="middle" x="581.91" y="-175.5" font-family="Helvetica,sans-Serif" font-size="10.00">encoder.hpp</text>
</a>
</g>
</g>
<!-- Node1&#45;&gt;Node6 -->
<g id="edge5" class="edge">
<title>Node1&#45;&gt;Node6</title>
<path fill="none" stroke="midnightblue" d="M504.49,-219.59C523.53,-209.61 548.97,-196.27 565.4,-187.65"/>
<polygon fill="midnightblue" stroke="midnightblue" points="502.69,-216.58 495.46,-224.32 505.94,-222.78 502.69,-216.58"/>
</g>
<!-- Node20 -->
<g id="node20" class="node">
<title>Node20</title>
<g id="a_node20"><a xlink:href="k3__model_8hpp.html" target="_top" xlink:title=" ">
<polygon fill="none" stroke="black" points="154.91,-112.5 154.91,-131.5 240.91,-131.5 240.91,-112.5 154.91,-112.5"/>
<text text-anchor="middle" x="197.91" y="-119.5" font-family="Helvetica,sans-Serif" font-size="10.00">k3_model.hpp</text>
</a>
</g>
</g>
<!-- Node1&#45;&gt;Node20 -->
<g id="edge42" class="edge">
<title>Node1&#45;&gt;Node20</title>
<path fill="none" stroke="midnightblue" d="M491.35,-215.91C500.12,-201.58 508.45,-181.39 496.91,-168 461.4,-126.82 308.65,-140.24 254.91,-132 250.45,-131.32 245.8,-130.6 241.16,-129.87"/>
<polygon fill="midnightblue" stroke="midnightblue" points="488.36,-214.08 485.72,-224.34 494.18,-217.97 488.36,-214.08"/>
</g>
<!-- Node26 -->
<g id="node26" class="node">
<title>Node26</title>
<g id="a_node26"><a xlink:href="k3__doot__high_8cpp.html" target="_top" xlink:title=" ">
<polygon fill="none" stroke="black" points="637.91,-168.5 637.91,-187.5 739.91,-187.5 739.91,-168.5 637.91,-168.5"/>
<text text-anchor="middle" x="688.91" y="-175.5" font-family="Helvetica,sans-Serif" font-size="10.00">k3_doot_high.cpp</text>
</a>
</g>
</g>
<!-- Node1&#45;&gt;Node26 -->
<g id="edge40" class="edge">
<title>Node1&#45;&gt;Node26</title>
<path fill="none" stroke="midnightblue" d="M522.1,-221.89C561.75,-211.7 619.68,-196.8 655.79,-187.52"/>
<polygon fill="midnightblue" stroke="midnightblue" points="521,-218.56 512.18,-224.44 522.74,-225.34 521,-218.56"/>
</g>
<!-- Node27 -->
<g id="node27" class="node">
<title>Node27</title>
<g id="a_node27"><a xlink:href="k3__doot__low_8cpp.html" target="_top" xlink:title=" ">
<polygon fill="none" stroke="black" points="757.91,-168.5 757.91,-187.5 855.91,-187.5 855.91,-168.5 757.91,-168.5"/>
<text text-anchor="middle" x="806.91" y="-175.5" font-family="Helvetica,sans-Serif" font-size="10.00">k3_doot_low.cpp</text>
</a>
</g>
</g>
<!-- Node1&#45;&gt;Node27 -->
<g id="edge41" class="edge">
<title>Node1&#45;&gt;Node27</title>
<path fill="none" stroke="midnightblue" d="M535.32,-223.71C598.04,-213.39 698.34,-196.87 757.9,-187.07"/>
<polygon fill="midnightblue" stroke="midnightblue" points="534.5,-220.3 525.21,-225.38 535.64,-227.21 534.5,-220.3"/>
</g>
<!-- Node7 -->
<g id="node7" class="node">
<title>Node7</title>
<g id="a_node7"><a xlink:href="binary__model_8hpp.html" target="_top" xlink:title=" ">
<polygon fill="none" stroke="black" points="296.91,-112.5 296.91,-131.5 400.91,-131.5 400.91,-112.5 296.91,-112.5"/>
<text text-anchor="middle" x="348.91" y="-119.5" font-family="Helvetica,sans-Serif" font-size="10.00">binary_model.hpp</text>
</a>
</g>
</g>
<!-- Node6&#45;&gt;Node7 -->
<g id="edge6" class="edge">
<title>Node6&#45;&gt;Node7</title>
<path fill="none" stroke="midnightblue" d="M535.1,-166.15C491.08,-155.95 426.06,-140.88 385.65,-131.52"/>
<polygon fill="midnightblue" stroke="midnightblue" points="534.46,-169.6 544.99,-168.44 536.04,-162.78 534.46,-169.6"/>
</g>
<!-- Node14 -->
<g id="node14" class="node">
<title>Node14</title>
<g id="a_node14"><a xlink:href="k1__model_8hpp.html" target="_top" xlink:title=" ">
<polygon fill="none" stroke="black" points="702.91,-112.5 702.91,-131.5 788.91,-131.5 788.91,-112.5 702.91,-112.5"/>
<text text-anchor="middle" x="745.91" y="-119.5" font-family="Helvetica,sans-Serif" font-size="10.00">k1_model.hpp</text>
</a>
</g>
</g>
<!-- Node6&#45;&gt;Node14 -->
<g id="edge14" class="edge">
<title>Node6&#45;&gt;Node14</title>
<path fill="none" stroke="midnightblue" d="M617.43,-165.3C648.33,-155.13 692.38,-140.62 720.04,-131.52"/>
<polygon fill="midnightblue" stroke="midnightblue" points="616.3,-161.99 607.89,-168.44 618.49,-168.64 616.3,-161.99"/>
</g>
<!-- Node16 -->
<g id="node16" class="node">
<title>Node16</title>
<g id="a_node16"><a xlink:href="k1__model_8test_8cpp.html" target="_top" xlink:title=" ">
<polygon fill="none" stroke="black" points="996.41,-56.5 996.41,-75.5 1103.41,-75.5 1103.41,-56.5 996.41,-56.5"/>
<text text-anchor="middle" x="1049.91" y="-63.5" font-family="Helvetica,sans-Serif" font-size="10.00">k1_model.test.cpp</text>
</a>
</g>
</g>
<!-- Node6&#45;&gt;Node16 -->
<g id="edge20" class="edge">
<title>Node6&#45;&gt;Node16</title>
<path fill="none" stroke="midnightblue" d="M630.09,-167.64C673.96,-158.95 740.45,-145.39 797.91,-132 877.77,-113.39 971.06,-88.5 1018.59,-75.58"/>
<polygon fill="midnightblue" stroke="midnightblue" points="629.4,-164.21 620.26,-169.58 630.75,-171.07 629.4,-164.21"/>
</g>
<!-- Node18 -->
<g id="node18" class="node">
<title>Node18</title>
<g id="a_node18"><a xlink:href="k2__model_8hpp.html" target="_top" xlink:title=" ">
<polygon fill="none" stroke="black" points="538.91,-112.5 538.91,-131.5 624.91,-131.5 624.91,-112.5 538.91,-112.5"/>
<text text-anchor="middle" x="581.91" y="-119.5" font-family="Helvetica,sans-Serif" font-size="10.00">k2_model.hpp</text>
</a>
</g>
</g>
<!-- Node6&#45;&gt;Node18 -->
<g id="edge21" class="edge">
<title>Node6&#45;&gt;Node18</title>
<path fill="none" stroke="midnightblue" d="M581.91,-157.8C581.91,-148.91 581.91,-138.78 581.91,-131.75"/>
<polygon fill="midnightblue" stroke="midnightblue" points="578.41,-158.08 581.91,-168.08 585.41,-158.08 578.41,-158.08"/>
</g>
<!-- Node19 -->
<g id="node19" class="node">
<title>Node19</title>
<g id="a_node19"><a xlink:href="k2__peak__model_8test_8cpp.html" target="_top" xlink:title=" ">
<polygon fill="none" stroke="black" points="563.91,-56.5 563.91,-75.5 699.91,-75.5 699.91,-56.5 563.91,-56.5"/>
<text text-anchor="middle" x="631.91" y="-63.5" font-family="Helvetica,sans-Serif" font-size="10.00">k2_peak_model.test.cpp</text>
</a>
</g>
</g>
<!-- Node6&#45;&gt;Node19 -->
<g id="edge26" class="edge">
<title>Node6&#45;&gt;Node19</title>
<path fill="none" stroke="midnightblue" d="M606.28,-162.73C616.85,-155.09 628.13,-144.64 633.91,-132 642.36,-113.52 637.93,-88.89 634.57,-75.9"/>
<polygon fill="midnightblue" stroke="midnightblue" points="604.06,-160 597.69,-168.47 607.95,-165.82 604.06,-160"/>
</g>
<!-- Node6&#45;&gt;Node20 -->
<g id="edge27" class="edge">
<title>Node6&#45;&gt;Node20</title>
<path fill="none" stroke="midnightblue" d="M533.77,-168.6C532.47,-168.39 531.18,-168.19 529.91,-168 408.04,-149.49 376.91,-149.61 254.91,-132 250.45,-131.36 245.79,-130.66 241.15,-129.95"/>
<polygon fill="midnightblue" stroke="midnightblue" points="533.45,-172.09 543.88,-170.23 534.57,-165.18 533.45,-172.09"/>
</g>
<!-- Node21 -->
<g id="node21" class="node">
<title>Node21</title>
<g id="a_node21"><a xlink:href="k3__model_8test_8cpp.html" target="_top" xlink:title=" ">
<polygon fill="none" stroke="black" points="19.41,-56.5 19.41,-75.5 126.41,-75.5 126.41,-56.5 19.41,-56.5"/>
<text text-anchor="middle" x="72.91" y="-63.5" font-family="Helvetica,sans-Serif" font-size="10.00">k3_model.test.cpp</text>
</a>
</g>
</g>
<!-- Node6&#45;&gt;Node21 -->
<g id="edge31" class="edge">
<title>Node6&#45;&gt;Node21</title>
<path fill="none" stroke="midnightblue" d="M533.87,-170.54C456.55,-160 310.79,-139.54 287.91,-132 269.78,-126.03 267.72,-118.84 249.91,-112 206.55,-95.34 154.85,-83.02 118.55,-75.51"/>
<polygon fill="midnightblue" stroke="midnightblue" points="533.48,-174.01 543.86,-171.89 534.42,-167.08 533.48,-174.01"/>
</g>
<!-- Node22 -->
<g id="node22" class="node">
<title>Node22</title>
<g id="a_node22"><a xlink:href="model__tester_8hpp.html" target="_top" xlink:title=" ">
<polygon fill="none" stroke="black" points="419.41,-112.5 419.41,-131.5 520.41,-131.5 520.41,-112.5 419.41,-112.5"/>
<text text-anchor="middle" x="469.91" y="-119.5" font-family="Helvetica,sans-Serif" font-size="10.00">model_tester.hpp</text>
</a>
</g>
</g>
<!-- Node6&#45;&gt;Node22 -->
<g id="edge32" class="edge">
<title>Node6&#45;&gt;Node22</title>
<path fill="none" stroke="midnightblue" d="M554.66,-163.86C533.89,-153.85 505.88,-140.35 487.86,-131.65"/>
<polygon fill="midnightblue" stroke="midnightblue" points="553.38,-167.13 563.91,-168.32 556.42,-160.83 553.38,-167.13"/>
</g>
<!-- Node24 -->
<g id="node24" class="node">
<title>Node24</title>
<g id="a_node24"><a xlink:href="testing__model_8hpp.html" target="_top" xlink:title=" ">
<polygon fill="none" stroke="black" points="1033.41,-112.5 1033.41,-131.5 1140.41,-131.5 1140.41,-112.5 1033.41,-112.5"/>
<text text-anchor="middle" x="1086.91" y="-119.5" font-family="Helvetica,sans-Serif" font-size="10.00">testing_model.hpp</text>
</a>
</g>
</g>
<!-- Node6&#45;&gt;Node24 -->
<g id="edge35" class="edge">
<title>Node6&#45;&gt;Node24</title>
<path fill="none" stroke="midnightblue" d="M630.05,-167.96C781.8,-146.37 949.2,-132.79 1033.13,-126.69"/>
<polygon fill="midnightblue" stroke="midnightblue" points="629.48,-164.5 620.08,-169.39 630.47,-171.43 629.48,-164.5"/>
</g>
<!-- Node25 -->
<g id="node25" class="node">
<title>Node25</title>
<g id="a_node25"><a xlink:href="testing__model_8test_8cpp.html" target="_top" xlink:title=" ">
<polygon fill="none" stroke="black" points="1159.91,-56.5 1159.91,-75.5 1287.91,-75.5 1287.91,-56.5 1159.91,-56.5"/>
<text text-anchor="middle" x="1223.91" y="-63.5" font-family="Helvetica,sans-Serif" font-size="10.00">testing_model.test.cpp</text>
</a>
</g>
</g>
<!-- Node6&#45;&gt;Node25 -->
<g id="edge39" class="edge">
<title>Node6&#45;&gt;Node25</title>
<path fill="none" stroke="midnightblue" d="M630.23,-168.09C759.62,-154.26 1045.61,-175.47 1149.91,-132 1179.58,-119.63 1205.58,-90.38 1217.3,-75.7"/>
<polygon fill="midnightblue" stroke="midnightblue" points="629.58,-164.64 620.06,-169.3 630.41,-171.6 629.58,-164.64"/>
</g>
<!-- Node8 -->
<g id="node8" class="node">
<title>Node8</title>
<g id="a_node8"><a xlink:href="binary__model_8test_8cpp.html" target="_top" xlink:title=" ">
<polygon fill="none" stroke="black" points="144.41,-56.5 144.41,-75.5 269.41,-75.5 269.41,-56.5 144.41,-56.5"/>
<text text-anchor="middle" x="206.91" y="-63.5" font-family="Helvetica,sans-Serif" font-size="10.00">binary_model.test.cpp</text>
</a>
</g>
</g>
<!-- Node7&#45;&gt;Node8 -->
<g id="edge7" class="edge">
<title>Node7&#45;&gt;Node8</title>
<path fill="none" stroke="midnightblue" d="M316.75,-108.77C290.08,-98.63 252.84,-84.47 229.3,-75.52"/>
<polygon fill="midnightblue" stroke="midnightblue" points="315.82,-112.16 326.41,-112.44 318.3,-105.62 315.82,-112.16"/>
</g>
<!-- Node9 -->
<g id="node9" class="node">
<title>Node9</title>
<g id="a_node9"><a xlink:href="translation__layer_8cpp.html" target="_top" xlink:title=" ">
<polygon fill="none" stroke="black" points="482.41,-0.5 482.41,-19.5 601.41,-19.5 601.41,-0.5 482.41,-0.5"/>
<text text-anchor="middle" x="541.91" y="-7.5" font-family="Helvetica,sans-Serif" font-size="10.00">translation_layer.cpp</text>
</a>
</g>
</g>
<!-- Node7&#45;&gt;Node9 -->
<g id="edge8" class="edge">
<title>Node7&#45;&gt;Node9</title>
<path fill="none" stroke="midnightblue" d="M331.39,-104.89C318.37,-90.97 304.77,-70.8 316.91,-56 337.46,-30.93 422.82,-19.55 482.28,-14.58"/>
<polygon fill="midnightblue" stroke="midnightblue" points="329.24,-107.7 338.79,-112.28 334.19,-102.74 329.24,-107.7"/>
</g>
<!-- Node10 -->
<g id="node10" class="node">
<title>Node10</title>
<g id="a_node10"><a xlink:href="translation__layer_8hpp.html" target="_top" xlink:title=" ">
<polygon fill="none" stroke="black" points="756.41,-56.5 756.41,-75.5 875.41,-75.5 875.41,-56.5 756.41,-56.5"/>
<text text-anchor="middle" x="815.91" y="-63.5" font-family="Helvetica,sans-Serif" font-size="10.00">translation_layer.hpp</text>
</a>
</g>
</g>
<!-- Node7&#45;&gt;Node10 -->
<g id="edge9" class="edge">
<title>Node7&#45;&gt;Node10</title>
<path fill="none" stroke="midnightblue" d="M411.19,-111.87C540.1,-95.36 679.12,-80.75 756.32,-72.92"/>
<polygon fill="midnightblue" stroke="midnightblue" points="410.6,-108.42 401.13,-113.17 411.5,-115.36 410.6,-108.42"/>
</g>
<!-- Node10&#45;&gt;Node9 -->
<g id="edge12" class="edge">
<title>Node10&#45;&gt;Node9</title>
<path fill="none" stroke="midnightblue" d="M762.49,-54.47C710.71,-44.27 633.14,-28.98 585.12,-19.52"/>
<polygon fill="midnightblue" stroke="midnightblue" points="762,-57.94 772.49,-56.44 763.36,-51.08 762,-57.94"/>
</g>
<!-- Node11 -->
<g id="node11" class="node">
<title>Node11</title>
<g id="a_node11"><a xlink:href="src_2kazoo__connect__server_2main_8cpp.html" target="_top" xlink:title=" ">
<polygon fill="none" stroke="black" points="704.91,-0.5 704.91,-19.5 766.91,-19.5 766.91,-0.5 704.91,-0.5"/>
<text text-anchor="middle" x="735.91" y="-7.5" font-family="Helvetica,sans-Serif" font-size="10.00">main.cpp</text>
</a>
</g>
</g>
<!-- Node10&#45;&gt;Node11 -->
<g id="edge10" class="edge">
<title>Node10&#45;&gt;Node11</title>
<path fill="none" stroke="midnightblue" d="M794.61,-50.62C779.99,-40.76 761.08,-27.99 748.73,-19.65"/>
<polygon fill="midnightblue" stroke="midnightblue" points="792.81,-53.63 803.05,-56.32 796.72,-47.83 792.81,-53.63"/>
</g>
<!-- Node12 -->
<g id="node12" class="node">
<title>Node12</title>
<g id="a_node12"><a xlink:href="src_2main_8cpp.html" target="_top" xlink:title=" ">
<polygon fill="none" stroke="black" points="784.91,-0.5 784.91,-19.5 846.91,-19.5 846.91,-0.5 784.91,-0.5"/>
<text text-anchor="middle" x="815.91" y="-7.5" font-family="Helvetica,sans-Serif" font-size="10.00">main.cpp</text>
</a>
</g>
</g>
<!-- Node10&#45;&gt;Node12 -->
<g id="edge11" class="edge">
<title>Node10&#45;&gt;Node12</title>
<path fill="none" stroke="midnightblue" d="M815.91,-45.8C815.91,-36.91 815.91,-26.78 815.91,-19.75"/>
<polygon fill="midnightblue" stroke="midnightblue" points="812.41,-46.08 815.91,-56.08 819.41,-46.08 812.41,-46.08"/>
</g>
<!-- Node13 -->
<g id="node13" class="node">
<title>Node13</title>
<g id="a_node13"><a xlink:href="translation__layer_8test_8cpp.html" target="_top" xlink:title=" ">
<polygon fill="none" stroke="black" points="864.91,-0.5 864.91,-19.5 1004.91,-19.5 1004.91,-0.5 864.91,-0.5"/>
<text text-anchor="middle" x="934.91" y="-7.5" font-family="Helvetica,sans-Serif" font-size="10.00">translation_layer.test.cpp</text>
</a>
</g>
</g>
<!-- Node10&#45;&gt;Node13 -->
<g id="edge13" class="edge">
<title>Node10&#45;&gt;Node13</title>
<path fill="none" stroke="midnightblue" d="M844.04,-52.23C866.3,-42.13 896.76,-28.31 916.14,-19.52"/>
<polygon fill="midnightblue" stroke="midnightblue" points="842.42,-49.12 834.76,-56.44 845.32,-55.5 842.42,-49.12"/>
</g>
<!-- Node14&#45;&gt;Node9 -->
<g id="edge18" class="edge">
<title>Node14&#45;&gt;Node9</title>
<path fill="none" stroke="midnightblue" d="M740.02,-102.83C734.33,-88.09 724.28,-67.89 708.91,-56 678.27,-32.3 636.1,-21.06 601.81,-15.74"/>
<polygon fill="midnightblue" stroke="midnightblue" points="736.77,-104.14 743.41,-112.39 743.37,-101.8 736.77,-104.14"/>
</g>
<!-- Node14&#45;&gt;Node10 -->
<g id="edge19" class="edge">
<title>Node14&#45;&gt;Node10</title>
<path fill="none" stroke="midnightblue" d="M765.22,-106.1C777.82,-96.38 793.84,-84.03 804.46,-75.83"/>
<polygon fill="midnightblue" stroke="midnightblue" points="762.93,-103.44 757.15,-112.32 767.21,-108.99 762.93,-103.44"/>
</g>
<!-- Node15 -->
<g id="node15" class="node">
<title>Node15</title>
<g id="a_node15"><a xlink:href="k1__model_8cpp.html" target="_top" xlink:title=" ">
<polygon fill="none" stroke="black" points="893.41,-56.5 893.41,-75.5 978.41,-75.5 978.41,-56.5 893.41,-56.5"/>
<text text-anchor="middle" x="935.91" y="-63.5" font-family="Helvetica,sans-Serif" font-size="10.00">k1_model.cpp</text>
</a>
</g>
</g>
<!-- Node14&#45;&gt;Node15 -->
<g id="edge15" class="edge">
<title>Node14&#45;&gt;Node15</title>
<path fill="none" stroke="midnightblue" d="M785.67,-109.7C821.53,-99.51 873.48,-84.74 905.94,-75.52"/>
<polygon fill="midnightblue" stroke="midnightblue" points="784.68,-106.34 776.01,-112.44 786.59,-113.08 784.68,-106.34"/>
</g>
<!-- Node14&#45;&gt;Node16 -->
<g id="edge16" class="edge">
<title>Node14&#45;&gt;Node16</title>
<path fill="none" stroke="midnightblue" d="M799.08,-111.55C856.33,-101.38 946.6,-85.35 1001.81,-75.54"/>
<polygon fill="midnightblue" stroke="midnightblue" points="798.37,-108.13 789.14,-113.32 799.6,-115.02 798.37,-108.13"/>
</g>
<!-- Node17 -->
<g id="node17" class="node">
<title>Node17</title>
<g id="a_node17"><a xlink:href="tests_2ktl__model__scoring_2main_8cpp.html" target="_top" xlink:title=" ">
<polygon fill="none" stroke="black" points="483.91,-56.5 483.91,-75.5 545.91,-75.5 545.91,-56.5 483.91,-56.5"/>
<text text-anchor="middle" x="514.91" y="-63.5" font-family="Helvetica,sans-Serif" font-size="10.00">main.cpp</text>
</a>
</g>
</g>
<!-- Node14&#45;&gt;Node17 -->
<g id="edge17" class="edge">
<title>Node14&#45;&gt;Node17</title>
<path fill="none" stroke="midnightblue" d="M699.37,-110.12C653.79,-99.47 585.6,-83.52 546.15,-74.3"/>
<polygon fill="midnightblue" stroke="midnightblue" points="698.77,-113.58 709.3,-112.44 700.36,-106.76 698.77,-113.58"/>
</g>
<!-- Node18&#45;&gt;Node9 -->
<g id="edge24" class="edge">
<title>Node18&#45;&gt;Node9</title>
<path fill="none" stroke="midnightblue" d="M542.14,-109.36C515.11,-100.55 482.85,-87.96 474.91,-76 459.3,-52.51 495.86,-30.92 520.89,-19.5"/>
<polygon fill="midnightblue" stroke="midnightblue" points="541.22,-112.74 551.82,-112.43 543.34,-106.07 541.22,-112.74"/>
</g>
<!-- Node18&#45;&gt;Node10 -->
<g id="edge25" class="edge">
<title>Node18&#45;&gt;Node10</title>
<path fill="none" stroke="midnightblue" d="M628.91,-110.15C673.12,-99.95 738.42,-84.88 779,-75.52"/>
<polygon fill="midnightblue" stroke="midnightblue" points="627.94,-106.78 618.99,-112.44 629.52,-113.61 627.94,-106.78"/>
</g>
<!-- Node18&#45;&gt;Node17 -->
<g id="edge23" class="edge">
<title>Node18&#45;&gt;Node17</title>
<path fill="none" stroke="midnightblue" d="M563.07,-105.82C551.07,-96.15 535.94,-83.95 525.87,-75.83"/>
<polygon fill="midnightblue" stroke="midnightblue" points="561.16,-108.77 571.14,-112.32 565.55,-103.32 561.16,-108.77"/>
</g>
<!-- Node18&#45;&gt;Node19 -->
<g id="edge22" class="edge">
<title>Node18&#45;&gt;Node19</title>
<path fill="none" stroke="midnightblue" d="M596.98,-104.72C605.8,-95.2 616.57,-83.56 623.8,-75.75"/>
<polygon fill="midnightblue" stroke="midnightblue" points="594.39,-102.37 590.16,-112.08 599.53,-107.12 594.39,-102.37"/>
</g>
<!-- Node20&#45;&gt;Node9 -->
<g id="edge29" class="edge">
<title>Node20&#45;&gt;Node9</title>
<path fill="none" stroke="midnightblue" d="M144.45,-119.17C75.29,-114.99 -31.66,-101.23 9.91,-56 41.35,-21.79 349.87,-13.56 482.17,-11.6"/>
<polygon fill="midnightblue" stroke="midnightblue" points="144.59,-122.68 154.77,-119.74 144.98,-115.69 144.59,-122.68"/>
</g>
<!-- Node20&#45;&gt;Node10 -->
<g id="edge30" class="edge">
<title>Node20&#45;&gt;Node10</title>
<path fill="none" stroke="midnightblue" d="M250.93,-115.57C263.08,-114.36 275.94,-113.11 287.91,-112 333.54,-107.77 627.99,-82.87 756.3,-72.03"/>
<polygon fill="midnightblue" stroke="midnightblue" points="250.53,-112.09 240.93,-116.57 251.23,-119.06 250.53,-112.09"/>
</g>
<!-- Node20&#45;&gt;Node21 -->
<g id="edge28" class="edge">
<title>Node20&#45;&gt;Node21</title>
<path fill="none" stroke="midnightblue" d="M168.67,-108.37C145.26,-98.26 113.07,-84.35 92.62,-75.52"/>
<polygon fill="midnightblue" stroke="midnightblue" points="167.53,-111.69 178.1,-112.44 170.31,-105.26 167.53,-111.69"/>
</g>
<!-- Node22&#45;&gt;Node17 -->
<g id="edge33" class="edge">
<title>Node22&#45;&gt;Node17</title>
<path fill="none" stroke="midnightblue" d="M483.95,-104.14C491.79,-94.74 501.24,-83.4 507.61,-75.75"/>
<polygon fill="midnightblue" stroke="midnightblue" points="481.05,-102.16 477.34,-112.08 486.43,-106.64 481.05,-102.16"/>
</g>
<!-- Node23 -->
<g id="node23" class="node">
<title>Node23</title>
<g id="a_node23"><a xlink:href="model__tester_8cpp.html" target="_top" xlink:title=" ">
<polygon fill="none" stroke="black" points="326.41,-56.5 326.41,-75.5 427.41,-75.5 427.41,-56.5 326.41,-56.5"/>
<text text-anchor="middle" x="376.91" y="-63.5" font-family="Helvetica,sans-Serif" font-size="10.00">model_tester.cpp</text>
</a>
</g>
</g>
<!-- Node22&#45;&gt;Node23 -->
<g id="edge34" class="edge">
<title>Node22&#45;&gt;Node23</title>
<path fill="none" stroke="midnightblue" d="M446.1,-107.18C428.99,-97.24 406.44,-84.15 391.81,-75.65"/>
<polygon fill="midnightblue" stroke="midnightblue" points="444.56,-110.33 454.97,-112.32 448.07,-104.28 444.56,-110.33"/>
</g>
<!-- Node24&#45;&gt;Node9 -->
<g id="edge37" class="edge">
<title>Node24&#45;&gt;Node9</title>
<path fill="none" stroke="midnightblue" d="M1102.09,-104.76C1113.65,-90.42 1125.6,-69.73 1112.91,-56 1104.29,-46.68 745.94,-23.59 601.42,-14.63"/>
<polygon fill="midnightblue" stroke="midnightblue" points="1099.41,-102.51 1095.52,-112.36 1104.71,-107.09 1099.41,-102.51"/>
</g>
<!-- Node24&#45;&gt;Node10 -->
<g id="edge38" class="edge">
<title>Node24&#45;&gt;Node10</title>
<path fill="none" stroke="midnightblue" d="M1034.08,-110.47C982.86,-100.27 906.14,-84.98 858.65,-75.52"/>
<polygon fill="midnightblue" stroke="midnightblue" points="1033.48,-113.92 1043.97,-112.44 1034.84,-107.06 1033.48,-113.92"/>
</g>
<!-- Node24&#45;&gt;Node25 -->
<g id="edge36" class="edge">
<title>Node24&#45;&gt;Node25</title>
<path fill="none" stroke="midnightblue" d="M1117.93,-108.77C1143.66,-98.63 1179.59,-84.47 1202.3,-75.52"/>
<polygon fill="midnightblue" stroke="midnightblue" points="1116.64,-105.52 1108.62,-112.44 1119.2,-112.03 1116.64,-105.52"/>
</g>
</g>
</svg>
