<?xml version="1.0" encoding="UTF-8" standalone="no"?>
<!DOCTYPE svg PUBLIC "-//W3C//DTD SVG 1.1//EN"
 "http://www.w3.org/Graphics/SVG/1.1/DTD/svg11.dtd">
<!-- Generated by graphviz version 2.43.0 (0)
 -->
<!-- Title: ktl_frame.hpp Pages: 1 -->
<svg width="464pt" height="196pt"
 viewBox="0.00 0.00 463.50 196.00" xmlns="http://www.w3.org/2000/svg" xmlns:xlink="http://www.w3.org/1999/xlink">
<g id="graph0" class="graph" transform="scale(1 1) rotate(0) translate(4 192)">
<title>ktl_frame.hpp</title>
<!-- Node1 -->
<g id="node1" class="node">
<title>Node1</title>
<g id="a_node1"><a xlink:title=" ">
<polygon fill="#bfbfbf" stroke="black" points="74,-168.5 74,-187.5 159,-187.5 159,-168.5 74,-168.5"/>
<text text-anchor="middle" x="116.5" y="-175.5" font-family="Helvetica,sans-Serif" font-size="10.00">ktl_frame.hpp</text>
</a>
</g>
</g>
<!-- Node2 -->
<g id="node2" class="node">
<title>Node2</title>
<g id="a_node2"><a xlink:href="deframer_8hpp.html" target="_top" xlink:title=" ">
<polygon fill="none" stroke="black" points="75.5,-112.5 75.5,-131.5 157.5,-131.5 157.5,-112.5 75.5,-112.5"/>
<text text-anchor="middle" x="116.5" y="-119.5" font-family="Helvetica,sans-Serif" font-size="10.00">deframer.hpp</text>
</a>
</g>
</g>
<!-- Node1&#45;&gt;Node2 -->
<g id="edge1" class="edge">
<title>Node1&#45;&gt;Node2</title>
<path fill="none" stroke="midnightblue" d="M116.5,-157.8C116.5,-148.91 116.5,-138.78 116.5,-131.75"/>
<polygon fill="midnightblue" stroke="midnightblue" points="113,-158.08 116.5,-168.08 120,-158.08 113,-158.08"/>
</g>
<!-- Node3 -->
<g id="node3" class="node">
<title>Node3</title>
<g id="a_node3"><a xlink:href="deframer_8test_8cpp.html" target="_top" xlink:title=" ">
<polygon fill="none" stroke="black" points="0,-56.5 0,-75.5 103,-75.5 103,-56.5 0,-56.5"/>
<text text-anchor="middle" x="51.5" y="-63.5" font-family="Helvetica,sans-Serif" font-size="10.00">deframer.test.cpp</text>
</a>
</g>
</g>
<!-- Node1&#45;&gt;Node3 -->
<g id="edge8" class="edge">
<title>Node1&#45;&gt;Node3</title>
<path fill="none" stroke="midnightblue" d="M94.86,-162.37C84.81,-154.5 73.54,-143.95 66.5,-132 55.8,-113.84 52.73,-88.65 51.85,-75.6"/>
<polygon fill="midnightblue" stroke="midnightblue" points="92.79,-165.19 102.91,-168.33 96.96,-159.56 92.79,-165.19"/>
</g>
<!-- Node4 -->
<g id="node4" class="node">
<title>Node4</title>
<g id="a_node4"><a xlink:href="translation__layer_8hpp.html" target="_top" xlink:title=" ">
<polygon fill="none" stroke="black" points="123,-56.5 123,-75.5 242,-75.5 242,-56.5 123,-56.5"/>
<text text-anchor="middle" x="182.5" y="-63.5" font-family="Helvetica,sans-Serif" font-size="10.00">translation_layer.hpp</text>
</a>
</g>
</g>
<!-- Node1&#45;&gt;Node4 -->
<g id="edge9" class="edge">
<title>Node1&#45;&gt;Node4</title>
<path fill="none" stroke="midnightblue" d="M138.06,-162.32C148.1,-154.44 159.37,-143.9 166.5,-132 177.37,-113.85 180.87,-88.66 181.99,-75.61"/>
<polygon fill="midnightblue" stroke="midnightblue" points="135.97,-159.52 130.03,-168.29 140.15,-165.13 135.97,-159.52"/>
</g>
<!-- Node2&#45;&gt;Node3 -->
<g id="edge2" class="edge">
<title>Node2&#45;&gt;Node3</title>
<path fill="none" stroke="midnightblue" d="M98.23,-105.82C86.58,-96.15 71.9,-83.95 62.13,-75.83"/>
<polygon fill="midnightblue" stroke="midnightblue" points="96.13,-108.63 106.06,-112.32 100.6,-103.24 96.13,-108.63"/>
</g>
<!-- Node2&#45;&gt;Node4 -->
<g id="edge3" class="edge">
<title>Node2&#45;&gt;Node4</title>
<path fill="none" stroke="midnightblue" d="M135.05,-105.82C146.88,-96.15 161.79,-83.95 171.7,-75.83"/>
<polygon fill="midnightblue" stroke="midnightblue" points="132.63,-103.28 127.1,-112.32 137.06,-108.7 132.63,-103.28"/>
</g>
<!-- Node5 -->
<g id="node5" class="node">
<title>Node5</title>
<g id="a_node5"><a xlink:href="src_2kazoo__connect__server_2main_8cpp.html" target="_top" xlink:title=" ">
<polygon fill="none" stroke="black" points="17.5,-0.5 17.5,-19.5 79.5,-19.5 79.5,-0.5 17.5,-0.5"/>
<text text-anchor="middle" x="48.5" y="-7.5" font-family="Helvetica,sans-Serif" font-size="10.00">main.cpp</text>
</a>
</g>
</g>
<!-- Node4&#45;&gt;Node5 -->
<g id="edge4" class="edge">
<title>Node4&#45;&gt;Node5</title>
<path fill="none" stroke="midnightblue" d="M151.82,-52.64C126.68,-42.5 91.75,-28.43 69.63,-19.52"/>
<polygon fill="midnightblue" stroke="midnightblue" points="150.68,-55.95 161.27,-56.44 153.3,-49.46 150.68,-55.95"/>
</g>
<!-- Node6 -->
<g id="node6" class="node">
<title>Node6</title>
<g id="a_node6"><a xlink:href="src_2main_8cpp.html" target="_top" xlink:title=" ">
<polygon fill="none" stroke="black" points="97.5,-0.5 97.5,-19.5 159.5,-19.5 159.5,-0.5 97.5,-0.5"/>
<text text-anchor="middle" x="128.5" y="-7.5" font-family="Helvetica,sans-Serif" font-size="10.00">main.cpp</text>
</a>
</g>
</g>
<!-- Node4&#45;&gt;Node6 -->
<g id="edge5" class="edge">
<title>Node4&#45;&gt;Node6</title>
<path fill="none" stroke="midnightblue" d="M166.5,-49C156.93,-39.43 145.14,-27.64 137.25,-19.75"/>
<polygon fill="midnightblue" stroke="midnightblue" points="164.04,-51.49 173.58,-56.08 168.99,-46.54 164.04,-51.49"/>
</g>
<!-- Node7 -->
<g id="node7" class="node">
<title>Node7</title>
<g id="a_node7"><a xlink:href="translation__layer_8cpp.html" target="_top" xlink:title=" ">
<polygon fill="none" stroke="black" points="178,-0.5 178,-19.5 297,-19.5 297,-0.5 178,-0.5"/>
<text text-anchor="middle" x="237.5" y="-7.5" font-family="Helvetica,sans-Serif" font-size="10.00">translation_layer.cpp</text>
</a>
</g>
</g>
<!-- Node4&#45;&gt;Node7 -->
<g id="edge6" class="edge">
<title>Node4&#45;&gt;Node7</title>
<path fill="none" stroke="midnightblue" d="M198.79,-49C208.54,-39.43 220.55,-27.64 228.59,-19.75"/>
<polygon fill="midnightblue" stroke="midnightblue" points="196.27,-46.58 191.58,-56.08 201.17,-51.57 196.27,-46.58"/>
</g>
<!-- Node8 -->
<g id="node8" class="node">
<title>Node8</title>
<g id="a_node8"><a xlink:href="translation__layer_8test_8cpp.html" target="_top" xlink:title=" ">
<polygon fill="none" stroke="black" points="315.5,-0.5 315.5,-19.5 455.5,-19.5 455.5,-0.5 315.5,-0.5"/>
<text text-anchor="middle" x="385.5" y="-7.5" font-family="Helvetica,sans-Serif" font-size="10.00">translation_layer.test.cpp</text>
</a>
</g>
</g>
<!-- Node4&#45;&gt;Node8 -->
<g id="edge7" class="edge">
<title>Node4&#45;&gt;Node8</title>
<path fill="none" stroke="midnightblue" d="M224.49,-53.83C262.82,-43.63 318.65,-28.78 353.48,-19.52"/>
<polygon fill="midnightblue" stroke="midnightblue" points="223.43,-50.49 214.67,-56.44 225.23,-57.26 223.43,-50.49"/>
</g>
</g>
</svg>
