<?xml version="1.0" encoding="UTF-8" standalone="no"?>
<!DOCTYPE svg PUBLIC "-//W3C//DTD SVG 1.1//EN"
 "http://www.w3.org/Graphics/SVG/1.1/DTD/svg11.dtd">
<!-- Generated by graphviz version 2.43.0 (0)
 -->
<!-- Title: model_tester.hpp Pages: 1 -->
<svg width="1542pt" height="364pt"
 viewBox="0.00 0.00 1541.62 364.00" xmlns="http://www.w3.org/2000/svg" xmlns:xlink="http://www.w3.org/1999/xlink">
<g id="graph0" class="graph" transform="scale(1 1) rotate(0) translate(4 360)">
<title>model_tester.hpp</title>
<!-- Node1 -->
<g id="node1" class="node">
<title>Node1</title>
<g id="a_node1"><a xlink:title=" ">
<polygon fill="#bfbfbf" stroke="black" points="232,-336.5 232,-355.5 333,-355.5 333,-336.5 232,-336.5"/>
<text text-anchor="middle" x="282.5" y="-343.5" font-family="Helvetica,sans-Serif" font-size="10.00">model_tester.hpp</text>
</a>
</g>
</g>
<!-- Node2 -->
<g id="node2" class="node">
<title>Node2</title>
<g id="a_node2"><a xlink:href="logger_8hpp.html" target="_top" xlink:title=" ">
<polygon fill="none" stroke="black" points="84,-168.5 84,-187.5 197,-187.5 197,-168.5 84,-168.5"/>
<text text-anchor="middle" x="140.5" y="-175.5" font-family="Helvetica,sans-Serif" font-size="10.00">common/logger.hpp</text>
</a>
</g>
</g>
<!-- Node1&#45;&gt;Node2 -->
<g id="edge1" class="edge">
<title>Node1&#45;&gt;Node2</title>
<path fill="none" stroke="midnightblue" d="M264.19,-336.5C248.76,-328.66 226.81,-315.85 211.5,-300 181.29,-268.74 158.69,-222.24 147.77,-196.96"/>
<polygon fill="midnightblue" stroke="midnightblue" points="150.91,-195.4 143.82,-187.53 144.46,-198.1 150.91,-195.4"/>
</g>
<!-- Node5 -->
<g id="node5" class="node">
<title>Node5</title>
<g id="a_node5"><a xlink:href="encoder_8hpp.html" target="_top" xlink:title=" ">
<polygon fill="none" stroke="black" points="914.5,-280.5 914.5,-299.5 1006.5,-299.5 1006.5,-280.5 914.5,-280.5"/>
<text text-anchor="middle" x="960.5" y="-287.5" font-family="Helvetica,sans-Serif" font-size="10.00">ktl/encoder.hpp</text>
</a>
</g>
</g>
<!-- Node1&#45;&gt;Node5 -->
<g id="edge4" class="edge">
<title>Node1&#45;&gt;Node5</title>
<path fill="none" stroke="midnightblue" d="M333.18,-340.96C457.1,-331.09 774.71,-305.8 904.24,-295.48"/>
<polygon fill="midnightblue" stroke="midnightblue" points="904.65,-298.96 914.34,-294.68 904.09,-291.98 904.65,-298.96"/>
</g>
<!-- Node23 -->
<g id="node23" class="node">
<title>Node23</title>
<g id="a_node23"><a xlink:href="i__symbol__stream_8hpp.html" target="_top" xlink:title=" ">
<polygon fill="none" stroke="black" points="16,-112.5 16,-131.5 153,-131.5 153,-112.5 16,-112.5"/>
<text text-anchor="middle" x="84.5" y="-119.5" font-family="Helvetica,sans-Serif" font-size="10.00">ktl/i_symbol_stream.hpp</text>
</a>
</g>
</g>
<!-- Node1&#45;&gt;Node23 -->
<g id="edge56" class="edge">
<title>Node1&#45;&gt;Node23</title>
<path fill="none" stroke="midnightblue" d="M281.16,-336.25C276.39,-307.87 257.56,-217.31 205.5,-168 188.21,-151.63 164.44,-141.09 142.53,-134.37"/>
<polygon fill="midnightblue" stroke="midnightblue" points="143.21,-130.93 132.63,-131.55 141.29,-137.66 143.21,-130.93"/>
</g>
<!-- Node24 -->
<g id="node24" class="node">
<title>Node24</title>
<g id="a_node24"><a xlink:href="symbol__model_8hpp.html" target="_top" xlink:title=" ">
<polygon fill="none" stroke="black" points="329.5,-168.5 329.5,-187.5 493.5,-187.5 493.5,-168.5 329.5,-168.5"/>
<text text-anchor="middle" x="411.5" y="-175.5" font-family="Helvetica,sans-Serif" font-size="10.00">ktl/models/symbol_model.hpp</text>
</a>
</g>
</g>
<!-- Node1&#45;&gt;Node24 -->
<g id="edge57" class="edge">
<title>Node1&#45;&gt;Node24</title>
<path fill="none" stroke="midnightblue" d="M289.43,-336.08C310.09,-309.49 371.45,-230.54 398.47,-195.76"/>
<polygon fill="midnightblue" stroke="midnightblue" points="401.47,-197.61 404.84,-187.57 395.94,-193.32 401.47,-197.61"/>
</g>
<!-- Node3 -->
<g id="node3" class="node">
<title>Node3</title>
<g id="a_node3"><a xlink:title=" ">
<polygon fill="none" stroke="#bfbfbf" points="361.5,-112.5 361.5,-131.5 421.5,-131.5 421.5,-112.5 361.5,-112.5"/>
<text text-anchor="middle" x="391.5" y="-119.5" font-family="Helvetica,sans-Serif" font-size="10.00">iostream</text>
</a>
</g>
</g>
<!-- Node2&#45;&gt;Node3 -->
<g id="edge2" class="edge">
<title>Node2&#45;&gt;Node3</title>
<path fill="none" stroke="midnightblue" d="M180.27,-168.44C227.15,-158.36 304.59,-141.7 351.55,-131.6"/>
<polygon fill="midnightblue" stroke="midnightblue" points="352.33,-135.01 361.37,-129.48 350.85,-128.16 352.33,-135.01"/>
</g>
<!-- Node4 -->
<g id="node4" class="node">
<title>Node4</title>
<g id="a_node4"><a xlink:title=" ">
<polygon fill="none" stroke="#bfbfbf" points="386.5,-0.5 386.5,-19.5 430.5,-19.5 430.5,-0.5 386.5,-0.5"/>
<text text-anchor="middle" x="408.5" y="-7.5" font-family="Helvetica,sans-Serif" font-size="10.00">string</text>
</a>
</g>
</g>
<!-- Node2&#45;&gt;Node4 -->
<g id="edge3" class="edge">
<title>Node2&#45;&gt;Node4</title>
<path fill="none" stroke="midnightblue" d="M83.78,-169.55C36.88,-160.99 -18.31,-143.81 6.5,-112 52.54,-52.96 289.3,-23.17 376.34,-14.09"/>
<polygon fill="midnightblue" stroke="midnightblue" points="376.84,-17.56 386.43,-13.06 376.12,-10.59 376.84,-17.56"/>
</g>
<!-- Node6 -->
<g id="node6" class="node">
<title>Node6</title>
<g id="a_node6"><a xlink:title=" ">
<polygon fill="none" stroke="#bfbfbf" points="952.5,-56.5 952.5,-75.5 992.5,-75.5 992.5,-56.5 952.5,-56.5"/>
<text text-anchor="middle" x="972.5" y="-63.5" font-family="Helvetica,sans-Serif" font-size="10.00">span</text>
</a>
</g>
</g>
<!-- Node5&#45;&gt;Node6 -->
<g id="edge5" class="edge">
<title>Node5&#45;&gt;Node6</title>
<path fill="none" stroke="midnightblue" d="M1006.77,-288.95C1162.95,-287.36 1652.9,-269.95 1506.5,-112 1470.59,-73.26 1084.98,-81.92 1032.5,-76 1022.84,-74.91 1012.35,-73.44 1002.88,-72"/>
<polygon fill="midnightblue" stroke="midnightblue" points="1003.14,-68.5 992.72,-70.41 1002.06,-75.41 1003.14,-68.5"/>
</g>
<!-- Node7 -->
<g id="node7" class="node">
<title>Node7</title>
<g id="a_node7"><a xlink:href="audio__channel_8hpp.html" target="_top" xlink:title=" ">
<polygon fill="none" stroke="black" points="895.5,-112.5 895.5,-131.5 1049.5,-131.5 1049.5,-112.5 895.5,-112.5"/>
<text text-anchor="middle" x="972.5" y="-119.5" font-family="Helvetica,sans-Serif" font-size="10.00">ktl/audio/audio_channel.hpp</text>
</a>
</g>
</g>
<!-- Node5&#45;&gt;Node7 -->
<g id="edge6" class="edge">
<title>Node5&#45;&gt;Node7</title>
<path fill="none" stroke="midnightblue" d="M961.14,-280.08C963.03,-253.95 968.58,-177.21 971.16,-141.58"/>
<polygon fill="midnightblue" stroke="midnightblue" points="974.65,-141.79 971.88,-131.57 967.67,-141.29 974.65,-141.79"/>
</g>
<!-- Node13 -->
<g id="node13" class="node">
<title>Node13</title>
<g id="a_node13"><a xlink:href="kazoo__pcm_8hpp.html" target="_top" xlink:title=" ">
<polygon fill="none" stroke="black" points="1359.5,-112.5 1359.5,-131.5 1497.5,-131.5 1497.5,-112.5 1359.5,-112.5"/>
<text text-anchor="middle" x="1428.5" y="-119.5" font-family="Helvetica,sans-Serif" font-size="10.00">ktl/audio/kazoo_pcm.hpp</text>
</a>
</g>
</g>
<!-- Node5&#45;&gt;Node13 -->
<g id="edge14" class="edge">
<title>Node5&#45;&gt;Node13</title>
<path fill="none" stroke="midnightblue" d="M984.67,-280.42C1062.26,-252.9 1305.14,-166.76 1394.8,-134.95"/>
<polygon fill="midnightblue" stroke="midnightblue" points="1396.21,-138.17 1404.47,-131.52 1393.87,-131.57 1396.21,-138.17"/>
</g>
<!-- Node14 -->
<g id="node14" class="node">
<title>Node14</title>
<g id="a_node14"><a xlink:href="encoder__context_8hpp.html" target="_top" xlink:title=" ">
<polygon fill="none" stroke="black" points="171.5,-112.5 171.5,-131.5 305.5,-131.5 305.5,-112.5 171.5,-112.5"/>
<text text-anchor="middle" x="238.5" y="-119.5" font-family="Helvetica,sans-Serif" font-size="10.00">ktl/encoder_context.hpp</text>
</a>
</g>
</g>
<!-- Node5&#45;&gt;Node14 -->
<g id="edge17" class="edge">
<title>Node5&#45;&gt;Node14</title>
<path fill="none" stroke="midnightblue" d="M914.46,-289.6C806.07,-289.37 528.32,-279.17 320.5,-188 294.15,-176.44 269.01,-154.3 253.68,-139.1"/>
<polygon fill="midnightblue" stroke="midnightblue" points="256.1,-136.57 246.6,-131.88 251.1,-141.47 256.1,-136.57"/>
</g>
<!-- Node16 -->
<g id="node16" class="node">
<title>Node16</title>
<g id="a_node16"><a xlink:href="symbol__stream_8hpp.html" target="_top" xlink:title=" ">
<polygon fill="none" stroke="black" points="768,-224.5 768,-243.5 897,-243.5 897,-224.5 768,-224.5"/>
<text text-anchor="middle" x="832.5" y="-231.5" font-family="Helvetica,sans-Serif" font-size="10.00">ktl/symbol_stream.hpp</text>
</a>
</g>
</g>
<!-- Node5&#45;&gt;Node16 -->
<g id="edge19" class="edge">
<title>Node5&#45;&gt;Node16</title>
<path fill="none" stroke="midnightblue" d="M940.22,-280.44C919.15,-271.56 885.98,-257.56 862.01,-247.45"/>
<polygon fill="midnightblue" stroke="midnightblue" points="863.26,-244.18 852.69,-243.52 860.54,-250.63 863.26,-244.18"/>
</g>
<!-- Node7&#45;&gt;Node6 -->
<g id="edge10" class="edge">
<title>Node7&#45;&gt;Node6</title>
<path fill="none" stroke="midnightblue" d="M972.5,-112.08C972.5,-105.01 972.5,-94.86 972.5,-85.99"/>
<polygon fill="midnightblue" stroke="midnightblue" points="976,-85.75 972.5,-75.75 969,-85.75 976,-85.75"/>
</g>
<!-- Node8 -->
<g id="node8" class="node">
<title>Node8</title>
<g id="a_node8"><a xlink:title=" ">
<polygon fill="none" stroke="#bfbfbf" points="1106.5,-56.5 1106.5,-75.5 1148.5,-75.5 1148.5,-56.5 1106.5,-56.5"/>
<text text-anchor="middle" x="1127.5" y="-63.5" font-family="Helvetica,sans-Serif" font-size="10.00">array</text>
</a>
</g>
</g>
<!-- Node7&#45;&gt;Node8 -->
<g id="edge7" class="edge">
<title>Node7&#45;&gt;Node8</title>
<path fill="none" stroke="midnightblue" d="M997.06,-112.44C1023.94,-103.08 1067.09,-88.05 1096.33,-77.86"/>
<polygon fill="midnightblue" stroke="midnightblue" points="1097.76,-81.07 1106.05,-74.47 1095.45,-74.46 1097.76,-81.07"/>
</g>
<!-- Node9 -->
<g id="node9" class="node">
<title>Node9</title>
<g id="a_node9"><a xlink:title=" ">
<polygon fill="none" stroke="#bfbfbf" points="534.5,-56.5 534.5,-75.5 584.5,-75.5 584.5,-56.5 534.5,-56.5"/>
<text text-anchor="middle" x="559.5" y="-63.5" font-family="Helvetica,sans-Serif" font-size="10.00">cstdint</text>
</a>
</g>
</g>
<!-- Node7&#45;&gt;Node9 -->
<g id="edge8" class="edge">
<title>Node7&#45;&gt;Node9</title>
<path fill="none" stroke="midnightblue" d="M907.06,-112.44C818.57,-100.87 663.9,-80.65 594.7,-71.6"/>
<polygon fill="midnightblue" stroke="midnightblue" points="595.11,-68.13 584.74,-70.3 594.2,-75.07 595.11,-68.13"/>
</g>
<!-- Node10 -->
<g id="node10" class="node">
<title>Node10</title>
<g id="a_node10"><a xlink:title=" ">
<polygon fill="none" stroke="#bfbfbf" points="1167,-56.5 1167,-75.5 1214,-75.5 1214,-56.5 1167,-56.5"/>
<text text-anchor="middle" x="1190.5" y="-63.5" font-family="Helvetica,sans-Serif" font-size="10.00">deque</text>
</a>
</g>
</g>
<!-- Node7&#45;&gt;Node10 -->
<g id="edge9" class="edge">
<title>Node7&#45;&gt;Node10</title>
<path fill="none" stroke="midnightblue" d="M1008.73,-112.5C1044.04,-104.15 1099.48,-90.85 1156.77,-76.13"/>
<polygon fill="midnightblue" stroke="midnightblue" points="1157.92,-79.45 1166.73,-73.57 1156.17,-72.67 1157.92,-79.45"/>
</g>
<!-- Node11 -->
<g id="node11" class="node">
<title>Node11</title>
<g id="a_node11"><a xlink:title=" ">
<polygon fill="none" stroke="#bfbfbf" points="1041,-56.5 1041,-75.5 1088,-75.5 1088,-56.5 1041,-56.5"/>
<text text-anchor="middle" x="1064.5" y="-63.5" font-family="Helvetica,sans-Serif" font-size="10.00">vector</text>
</a>
</g>
</g>
<!-- Node7&#45;&gt;Node11 -->
<g id="edge11" class="edge">
<title>Node7&#45;&gt;Node11</title>
<path fill="none" stroke="midnightblue" d="M987.28,-112.32C1001.77,-103.82 1024.07,-90.73 1040.99,-80.8"/>
<polygon fill="midnightblue" stroke="midnightblue" points="1042.9,-83.74 1049.75,-75.65 1039.36,-77.7 1042.9,-83.74"/>
</g>
<!-- Node12 -->
<g id="node12" class="node">
<title>Node12</title>
<g id="a_node12"><a xlink:href="assert_8hpp.html" target="_top" xlink:title=" ">
<polygon fill="none" stroke="black" points="688,-56.5 688,-75.5 801,-75.5 801,-56.5 688,-56.5"/>
<text text-anchor="middle" x="744.5" y="-63.5" font-family="Helvetica,sans-Serif" font-size="10.00">common/assert.hpp</text>
</a>
</g>
</g>
<!-- Node7&#45;&gt;Node12 -->
<g id="edge12" class="edge">
<title>Node7&#45;&gt;Node12</title>
<path fill="none" stroke="midnightblue" d="M936.37,-112.44C896.85,-103.08 833.4,-88.06 790.39,-77.87"/>
<polygon fill="midnightblue" stroke="midnightblue" points="790.99,-74.42 780.46,-75.52 789.38,-81.23 790.99,-74.42"/>
</g>
<!-- Node12&#45;&gt;Node4 -->
<g id="edge13" class="edge">
<title>Node12&#45;&gt;Node4</title>
<path fill="none" stroke="midnightblue" d="M691.26,-56.44C620.71,-45.1 498.43,-25.45 440.59,-16.16"/>
<polygon fill="midnightblue" stroke="midnightblue" points="440.99,-12.68 430.57,-14.55 439.88,-19.59 440.99,-12.68"/>
</g>
<!-- Node13&#45;&gt;Node8 -->
<g id="edge15" class="edge">
<title>Node13&#45;&gt;Node8</title>
<path fill="none" stroke="midnightblue" d="M1364.53,-112.5C1309.56,-104.68 1228.35,-91.9 1158.5,-76 1158.4,-75.98 1158.3,-75.95 1158.2,-75.93"/>
<polygon fill="midnightblue" stroke="midnightblue" points="1159.31,-72.6 1148.76,-73.53 1157.59,-79.39 1159.31,-72.6"/>
</g>
<!-- Node13&#45;&gt;Node9 -->
<g id="edge16" class="edge">
<title>Node13&#45;&gt;Node9</title>
<path fill="none" stroke="midnightblue" d="M1359.2,-115.39C1343.83,-114.21 1327.61,-113.02 1312.5,-112 1030.9,-93.08 960.11,-94.64 678.5,-76 650.35,-74.14 618.48,-71.71 594.82,-69.85"/>
<polygon fill="midnightblue" stroke="midnightblue" points="594.81,-66.33 584.56,-69.03 594.25,-73.31 594.81,-66.33"/>
</g>
<!-- Node15 -->
<g id="node15" class="node">
<title>Node15</title>
<g id="a_node15"><a xlink:title=" ">
<polygon fill="none" stroke="#bfbfbf" points="335.5,-56.5 335.5,-75.5 391.5,-75.5 391.5,-56.5 335.5,-56.5"/>
<text text-anchor="middle" x="363.5" y="-63.5" font-family="Helvetica,sans-Serif" font-size="10.00">optional</text>
</a>
</g>
</g>
<!-- Node14&#45;&gt;Node15 -->
<g id="edge18" class="edge">
<title>Node14&#45;&gt;Node15</title>
<path fill="none" stroke="midnightblue" d="M258.3,-112.44C278.78,-103.6 310.98,-89.69 334.36,-79.59"/>
<polygon fill="midnightblue" stroke="midnightblue" points="335.99,-82.7 343.78,-75.52 333.22,-76.27 335.99,-82.7"/>
</g>
<!-- Node16&#45;&gt;Node8 -->
<g id="edge21" class="edge">
<title>Node16&#45;&gt;Node8</title>
<path fill="none" stroke="midnightblue" d="M897.18,-233.79C1050.84,-234.1 1430.68,-225.23 1506.5,-132 1512.11,-125.1 1512.45,-118.6 1506.5,-112 1454.43,-54.27 1234.8,-90.9 1158.5,-76 1158.4,-75.98 1158.3,-75.96 1158.2,-75.94"/>
<polygon fill="midnightblue" stroke="midnightblue" points="1159.26,-72.59 1148.72,-73.71 1157.65,-79.41 1159.26,-72.59"/>
</g>
<!-- Node16&#45;&gt;Node9 -->
<g id="edge24" class="edge">
<title>Node16&#45;&gt;Node9</title>
<path fill="none" stroke="midnightblue" d="M767.75,-232.45C690.8,-230.26 569.17,-221.43 540.5,-188 515.44,-158.79 535.31,-110.41 549.1,-84.56"/>
<polygon fill="midnightblue" stroke="midnightblue" points="552.32,-85.99 554.16,-75.55 546.21,-82.56 552.32,-85.99"/>
</g>
<!-- Node16&#45;&gt;Node10 -->
<g id="edge25" class="edge">
<title>Node16&#45;&gt;Node10</title>
<path fill="none" stroke="midnightblue" d="M897.16,-232.28C1032.03,-230.13 1338.99,-221.57 1437.5,-188 1480.32,-173.41 1501.04,-171.83 1522.5,-132 1526.71,-124.17 1528.35,-118.69 1522.5,-112 1484.03,-67.97 1301.22,-65.34 1224.51,-66.24"/>
<polygon fill="midnightblue" stroke="midnightblue" points="1224.36,-62.74 1214.42,-66.39 1224.47,-69.74 1224.36,-62.74"/>
</g>
<!-- Node16&#45;&gt;Node11 -->
<g id="edge28" class="edge">
<title>Node16&#45;&gt;Node11</title>
<path fill="none" stroke="midnightblue" d="M897.01,-229.27C1015.74,-220.9 1261.4,-196.09 1312.5,-132 1354.46,-79.37 1410.69,-143.66 1098.06,-75.92"/>
<polygon fill="midnightblue" stroke="midnightblue" points="1098.74,-72.49 1088.22,-73.78 1097.24,-79.33 1098.74,-72.49"/>
</g>
<!-- Node17 -->
<g id="node17" class="node">
<title>Node17</title>
<g id="a_node17"><a xlink:title=" ">
<polygon fill="none" stroke="#bfbfbf" points="657.5,-168.5 657.5,-187.5 721.5,-187.5 721.5,-168.5 657.5,-168.5"/>
<text text-anchor="middle" x="689.5" y="-175.5" font-family="Helvetica,sans-Serif" font-size="10.00">algorithm</text>
</a>
</g>
</g>
<!-- Node16&#45;&gt;Node17 -->
<g id="edge20" class="edge">
<title>Node16&#45;&gt;Node17</title>
<path fill="none" stroke="midnightblue" d="M809.84,-224.44C786.1,-215.48 748.59,-201.31 721.76,-191.18"/>
<polygon fill="midnightblue" stroke="midnightblue" points="722.64,-187.77 712.05,-187.52 720.17,-194.32 722.64,-187.77"/>
</g>
<!-- Node18 -->
<g id="node18" class="node">
<title>Node18</title>
<g id="a_node18"><a xlink:title=" ">
<polygon fill="none" stroke="#bfbfbf" points="681.5,-112.5 681.5,-131.5 725.5,-131.5 725.5,-112.5 681.5,-112.5"/>
<text text-anchor="middle" x="703.5" y="-119.5" font-family="Helvetica,sans-Serif" font-size="10.00">bitset</text>
</a>
</g>
</g>
<!-- Node16&#45;&gt;Node18 -->
<g id="edge22" class="edge">
<title>Node16&#45;&gt;Node18</title>
<path fill="none" stroke="midnightblue" d="M823.86,-224.26C811.07,-211.46 786.16,-187.07 763.5,-168 750.8,-157.31 735.86,-146.11 724.07,-137.55"/>
<polygon fill="midnightblue" stroke="midnightblue" points="725.92,-134.57 715.76,-131.58 721.84,-140.26 725.92,-134.57"/>
</g>
<!-- Node19 -->
<g id="node19" class="node">
<title>Node19</title>
<g id="a_node19"><a xlink:title=" ">
<polygon fill="none" stroke="#bfbfbf" points="1182,-112.5 1182,-131.5 1229,-131.5 1229,-112.5 1182,-112.5"/>
<text text-anchor="middle" x="1205.5" y="-119.5" font-family="Helvetica,sans-Serif" font-size="10.00">cmath</text>
</a>
</g>
</g>
<!-- Node16&#45;&gt;Node19 -->
<g id="edge23" class="edge">
<title>Node16&#45;&gt;Node19</title>
<path fill="none" stroke="midnightblue" d="M855.79,-224.48C879.34,-215.74 916.7,-201.55 948.5,-188 967.89,-179.74 971.5,-174.66 991.5,-168 1053.6,-147.33 1129.1,-134.09 1171.8,-127.65"/>
<polygon fill="midnightblue" stroke="midnightblue" points="1172.54,-131.08 1181.92,-126.16 1171.52,-124.15 1172.54,-131.08"/>
</g>
<!-- Node20 -->
<g id="node20" class="node">
<title>Node20</title>
<g id="a_node20"><a xlink:title=" ">
<polygon fill="none" stroke="#bfbfbf" points="625.5,-112.5 625.5,-131.5 663.5,-131.5 663.5,-112.5 625.5,-112.5"/>
<text text-anchor="middle" x="644.5" y="-119.5" font-family="Helvetica,sans-Serif" font-size="10.00">map</text>
</a>
</g>
</g>
<!-- Node16&#45;&gt;Node20 -->
<g id="edge26" class="edge">
<title>Node16&#45;&gt;Node20</title>
<path fill="none" stroke="midnightblue" d="M819.47,-224.5C796.09,-209.28 747.85,-178.05 730.5,-168 710.99,-156.71 688.39,-144.93 671.26,-136.26"/>
<polygon fill="midnightblue" stroke="midnightblue" points="672.37,-132.9 661.86,-131.54 669.23,-139.16 672.37,-132.9"/>
</g>
<!-- Node21 -->
<g id="node21" class="node">
<title>Node21</title>
<g id="a_node21"><a xlink:title=" ">
<polygon fill="none" stroke="#bfbfbf" points="1247.5,-112.5 1247.5,-131.5 1303.5,-131.5 1303.5,-112.5 1247.5,-112.5"/>
<text text-anchor="middle" x="1275.5" y="-119.5" font-family="Helvetica,sans-Serif" font-size="10.00">sstream</text>
</a>
</g>
</g>
<!-- Node16&#45;&gt;Node21 -->
<g id="edge27" class="edge">
<title>Node16&#45;&gt;Node21</title>
<path fill="none" stroke="midnightblue" d="M866.89,-224.46C948.35,-204.23 1152.58,-153.52 1237.52,-132.43"/>
<polygon fill="midnightblue" stroke="midnightblue" points="1238.41,-135.82 1247.27,-130.01 1236.72,-129.02 1238.41,-135.82"/>
</g>
<!-- Node22 -->
<g id="node22" class="node">
<title>Node22</title>
<g id="a_node22"><a xlink:href="binary__stream_8hpp.html" target="_top" xlink:title=" ">
<polygon fill="none" stroke="black" points="815.5,-168.5 815.5,-187.5 939.5,-187.5 939.5,-168.5 815.5,-168.5"/>
<text text-anchor="middle" x="877.5" y="-175.5" font-family="Helvetica,sans-Serif" font-size="10.00">ktl/binary_stream.hpp</text>
</a>
</g>
</g>
<!-- Node16&#45;&gt;Node22 -->
<g id="edge29" class="edge">
<title>Node16&#45;&gt;Node22</title>
<path fill="none" stroke="midnightblue" d="M839.93,-224.08C846.35,-216.38 855.8,-205.03 863.62,-195.65"/>
<polygon fill="midnightblue" stroke="midnightblue" points="866.49,-197.67 870.21,-187.75 861.11,-193.19 866.49,-197.67"/>
</g>
<!-- Node16&#45;&gt;Node23 -->
<g id="edge42" class="edge">
<title>Node16&#45;&gt;Node23</title>
<path fill="none" stroke="midnightblue" d="M767.74,-231.06C670.1,-227.3 479.67,-216.67 320.5,-188 282.42,-181.14 179.13,-151.16 122.65,-134.42"/>
<polygon fill="midnightblue" stroke="midnightblue" points="123.59,-131.04 113.01,-131.55 121.6,-137.75 123.59,-131.04"/>
</g>
<!-- Node16&#45;&gt;Node24 -->
<g id="edge44" class="edge">
<title>Node16&#45;&gt;Node24</title>
<path fill="none" stroke="midnightblue" d="M767.64,-224.68C692.21,-215.01 567.85,-199.06 487.84,-188.79"/>
<polygon fill="midnightblue" stroke="midnightblue" points="488.18,-185.31 477.82,-187.51 487.29,-192.25 488.18,-185.31"/>
</g>
<!-- Node26 -->
<g id="node26" class="node">
<title>Node26</title>
<g id="a_node26"><a xlink:href="symbol_8hpp.html" target="_top" xlink:title=" ">
<polygon fill="none" stroke="black" points="550,-168.5 550,-187.5 639,-187.5 639,-168.5 550,-168.5"/>
<text text-anchor="middle" x="594.5" y="-175.5" font-family="Helvetica,sans-Serif" font-size="10.00">ktl/symbol.hpp</text>
</a>
</g>
</g>
<!-- Node16&#45;&gt;Node26 -->
<g id="edge53" class="edge">
<title>Node16&#45;&gt;Node26</title>
<path fill="none" stroke="midnightblue" d="M794.79,-224.44C753.35,-215.04 686.74,-199.93 641.83,-189.74"/>
<polygon fill="midnightblue" stroke="midnightblue" points="642.56,-186.32 632.03,-187.52 641.01,-193.14 642.56,-186.32"/>
</g>
<!-- Node22&#45;&gt;Node3 -->
<g id="edge35" class="edge">
<title>Node22&#45;&gt;Node3</title>
<path fill="none" stroke="midnightblue" d="M815.35,-173.24C730.74,-167.56 574.44,-155.11 431.9,-132.04"/>
<polygon fill="midnightblue" stroke="midnightblue" points="432.09,-128.52 421.66,-130.36 430.96,-135.43 432.09,-128.52"/>
</g>
<!-- Node22&#45;&gt;Node6 -->
<g id="edge38" class="edge">
<title>Node22&#45;&gt;Node6</title>
<path fill="none" stroke="midnightblue" d="M876.33,-168.1C875.05,-154.66 874.57,-128.96 886.5,-112 899.79,-93.11 923.51,-81.54 942.68,-74.88"/>
<polygon fill="midnightblue" stroke="midnightblue" points="943.75,-78.21 952.21,-71.83 941.62,-71.54 943.75,-78.21"/>
</g>
<!-- Node22&#45;&gt;Node8 -->
<g id="edge30" class="edge">
<title>Node22&#45;&gt;Node8</title>
<path fill="none" stroke="midnightblue" d="M934.66,-168.45C984.8,-160.16 1053.22,-146.72 1076.5,-132 1094.99,-120.3 1109.56,-99.46 1118.31,-84.53"/>
<polygon fill="midnightblue" stroke="midnightblue" points="1121.4,-86.16 1123.2,-75.72 1115.28,-82.76 1121.4,-86.16"/>
</g>
<!-- Node22&#45;&gt;Node9 -->
<g id="edge33" class="edge">
<title>Node22&#45;&gt;Node9</title>
<path fill="none" stroke="midnightblue" d="M864.03,-168.3C839.29,-152.45 787.33,-119.77 767.5,-112 709.15,-89.14 636.8,-76.82 594.63,-71.1"/>
<polygon fill="midnightblue" stroke="midnightblue" points="594.95,-67.62 584.58,-69.79 594.04,-74.56 594.95,-67.62"/>
</g>
<!-- Node22&#45;&gt;Node10 -->
<g id="edge34" class="edge">
<title>Node22&#45;&gt;Node10</title>
<path fill="none" stroke="midnightblue" d="M933.5,-168.48C989.42,-159.48 1071.14,-144.84 1100.5,-132 1128.72,-119.65 1156.79,-97.38 1173.89,-82.4"/>
<polygon fill="midnightblue" stroke="midnightblue" points="1176.25,-84.98 1181.36,-75.7 1171.58,-79.77 1176.25,-84.98"/>
</g>
<!-- Node22&#45;&gt;Node11 -->
<g id="edge40" class="edge">
<title>Node22&#45;&gt;Node11</title>
<path fill="none" stroke="midnightblue" d="M939.56,-169.29C985.61,-162.21 1042.99,-150.06 1058.5,-132 1069.22,-119.52 1069.71,-100.29 1068.12,-85.98"/>
<polygon fill="midnightblue" stroke="midnightblue" points="1071.54,-85.13 1066.56,-75.78 1064.62,-86.19 1071.54,-85.13"/>
</g>
<!-- Node22&#45;&gt;Node12 -->
<g id="edge41" class="edge">
<title>Node22&#45;&gt;Node12</title>
<path fill="none" stroke="midnightblue" d="M868.44,-168.29C855.03,-155.52 828.97,-131.18 805.5,-112 792.5,-101.38 777.32,-90.18 765.35,-81.61"/>
<polygon fill="midnightblue" stroke="midnightblue" points="767.1,-78.55 756.92,-75.62 763.05,-84.26 767.1,-78.55"/>
</g>
<!-- Node22&#45;&gt;Node15 -->
<g id="edge37" class="edge">
<title>Node22&#45;&gt;Node15</title>
<path fill="none" stroke="midnightblue" d="M853.42,-168.39C830.8,-160.02 796.25,-146.48 767.5,-132 752.18,-124.29 750.71,-117.6 734.5,-112 673.55,-90.93 483.55,-75.45 401.67,-69.58"/>
<polygon fill="midnightblue" stroke="midnightblue" points="401.77,-66.08 391.55,-68.87 401.28,-73.06 401.77,-66.08"/>
</g>
<!-- Node22&#45;&gt;Node18 -->
<g id="edge31" class="edge">
<title>Node22&#45;&gt;Node18</title>
<path fill="none" stroke="midnightblue" d="M849.93,-168.44C818.75,-158.77 768.07,-143.04 735.26,-132.86"/>
<polygon fill="midnightblue" stroke="midnightblue" points="736.28,-129.51 725.69,-129.89 734.21,-136.2 736.28,-129.51"/>
</g>
<!-- Node22&#45;&gt;Node19 -->
<g id="edge32" class="edge">
<title>Node22&#45;&gt;Node19</title>
<path fill="none" stroke="midnightblue" d="M939.69,-168.79C998.58,-160.68 1089.37,-147.29 1167.5,-132 1168.95,-131.72 1170.44,-131.41 1171.93,-131.1"/>
<polygon fill="midnightblue" stroke="midnightblue" points="1172.84,-134.48 1181.84,-128.91 1171.32,-127.65 1172.84,-134.48"/>
</g>
<!-- Node22&#45;&gt;Node20 -->
<g id="edge36" class="edge">
<title>Node22&#45;&gt;Node20</title>
<path fill="none" stroke="midnightblue" d="M832.81,-168.46C793.21,-160.61 733.63,-148.11 673.38,-132.05"/>
<polygon fill="midnightblue" stroke="midnightblue" points="674.27,-128.66 663.71,-129.44 672.45,-135.42 674.27,-128.66"/>
</g>
<!-- Node22&#45;&gt;Node21 -->
<g id="edge39" class="edge">
<title>Node22&#45;&gt;Node21</title>
<path fill="none" stroke="midnightblue" d="M939.79,-171.42C1009.89,-164.66 1127.31,-151.85 1237.35,-132.03"/>
<polygon fill="midnightblue" stroke="midnightblue" points="1238.08,-135.45 1247.29,-130.21 1236.82,-128.57 1238.08,-135.45"/>
</g>
<!-- Node23&#45;&gt;Node9 -->
<g id="edge43" class="edge">
<title>Node23&#45;&gt;Node9</title>
<path fill="none" stroke="midnightblue" d="M153.4,-113.04C156.47,-112.69 159.52,-112.34 162.5,-112 295.95,-96.74 454.66,-78.82 524.06,-70.99"/>
<polygon fill="midnightblue" stroke="midnightblue" points="524.87,-74.42 534.41,-69.83 524.08,-67.47 524.87,-74.42"/>
</g>
<!-- Node24&#45;&gt;Node3 -->
<g id="edge47" class="edge">
<title>Node24&#45;&gt;Node3</title>
<path fill="none" stroke="midnightblue" d="M408.2,-168.08C405.52,-160.85 401.65,-150.41 398.31,-141.4"/>
<polygon fill="midnightblue" stroke="midnightblue" points="401.49,-139.91 394.74,-131.75 394.93,-142.34 401.49,-139.91"/>
</g>
<!-- Node24&#45;&gt;Node7 -->
<g id="edge50" class="edge">
<title>Node24&#45;&gt;Node7</title>
<path fill="none" stroke="midnightblue" d="M493.67,-169.09C598.19,-159.03 777.92,-141.73 884.95,-131.43"/>
<polygon fill="midnightblue" stroke="midnightblue" points="885.45,-134.89 895.07,-130.45 884.78,-127.93 885.45,-134.89"/>
</g>
<!-- Node24&#45;&gt;Node9 -->
<g id="edge46" class="edge">
<title>Node24&#45;&gt;Node9</title>
<path fill="none" stroke="midnightblue" d="M393.66,-168.46C370.65,-156.3 335.47,-133.12 352.5,-112 373.7,-85.69 471.11,-73.97 524.41,-69.44"/>
<polygon fill="midnightblue" stroke="midnightblue" points="524.76,-72.93 534.44,-68.63 524.19,-65.95 524.76,-72.93"/>
</g>
<!-- Node24&#45;&gt;Node12 -->
<g id="edge49" class="edge">
<title>Node24&#45;&gt;Node12</title>
<path fill="none" stroke="midnightblue" d="M437.35,-168.46C496.36,-148.97 641.09,-101.16 708.66,-78.84"/>
<polygon fill="midnightblue" stroke="midnightblue" points="710.03,-82.07 718.43,-75.61 707.84,-75.42 710.03,-82.07"/>
</g>
<!-- Node24&#45;&gt;Node14 -->
<g id="edge51" class="edge">
<title>Node24&#45;&gt;Node14</title>
<path fill="none" stroke="midnightblue" d="M384.09,-168.44C354.73,-159.28 307.98,-144.69 275.4,-134.52"/>
<polygon fill="midnightblue" stroke="midnightblue" points="276.37,-131.16 265.78,-131.52 274.28,-137.84 276.37,-131.16"/>
</g>
<!-- Node24&#45;&gt;Node20 -->
<g id="edge48" class="edge">
<title>Node24&#45;&gt;Node20</title>
<path fill="none" stroke="midnightblue" d="M451.85,-168.48C492.33,-159.8 556.41,-145.7 611.5,-132 612.76,-131.69 614.05,-131.36 615.35,-131.02"/>
<polygon fill="midnightblue" stroke="midnightblue" points="616.57,-134.32 625.34,-128.38 614.78,-127.56 616.57,-134.32"/>
</g>
<!-- Node24&#45;&gt;Node23 -->
<g id="edge52" class="edge">
<title>Node24&#45;&gt;Node23</title>
<path fill="none" stroke="midnightblue" d="M359.68,-168.44C301.68,-158.87 207.76,-143.36 146.06,-133.17"/>
<polygon fill="midnightblue" stroke="midnightblue" points="146.51,-129.69 136.07,-131.52 145.37,-136.6 146.51,-129.69"/>
</g>
<!-- Node25 -->
<g id="node25" class="node">
<title>Node25</title>
<g id="a_node25"><a xlink:title=" ">
<polygon fill="none" stroke="#bfbfbf" points="440,-112.5 440,-131.5 493,-131.5 493,-112.5 440,-112.5"/>
<text text-anchor="middle" x="466.5" y="-119.5" font-family="Helvetica,sans-Serif" font-size="10.00">cstddef</text>
</a>
</g>
</g>
<!-- Node24&#45;&gt;Node25 -->
<g id="edge45" class="edge">
<title>Node24&#45;&gt;Node25</title>
<path fill="none" stroke="midnightblue" d="M420.58,-168.08C428.67,-160.14 440.69,-148.34 450.41,-138.8"/>
<polygon fill="midnightblue" stroke="midnightblue" points="452.9,-141.25 457.58,-131.75 448,-136.26 452.9,-141.25"/>
</g>
<!-- Node26&#45;&gt;Node9 -->
<g id="edge54" class="edge">
<title>Node26&#45;&gt;Node9</title>
<path fill="none" stroke="midnightblue" d="M591.75,-168.37C586.08,-150.54 572.96,-109.3 565.31,-85.27"/>
<polygon fill="midnightblue" stroke="midnightblue" points="568.6,-84.06 562.23,-75.59 561.93,-86.18 568.6,-84.06"/>
</g>
<!-- Node26&#45;&gt;Node20 -->
<g id="edge55" class="edge">
<title>Node26&#45;&gt;Node20</title>
<path fill="none" stroke="midnightblue" d="M602.75,-168.08C609.96,-160.3 620.61,-148.8 629.34,-139.37"/>
<polygon fill="midnightblue" stroke="midnightblue" points="632.17,-141.47 636.4,-131.75 627.03,-136.71 632.17,-141.47"/>
</g>
</g>
</svg>
