<?xml version="1.0" encoding="UTF-8" standalone="no"?>
<!DOCTYPE svg PUBLIC "-//W3C//DTD SVG 1.1//EN"
 "http://www.w3.org/Graphics/SVG/1.1/DTD/svg11.dtd">
<!-- Generated by graphviz version 2.43.0 (0)
 -->
<!-- Title: pulse_audio.hpp Pages: 1 -->
<svg width="1022pt" height="196pt"
 viewBox="0.00 0.00 1022.00 196.00" xmlns="http://www.w3.org/2000/svg" xmlns:xlink="http://www.w3.org/1999/xlink">
<g id="graph0" class="graph" transform="scale(1 1) rotate(0) translate(4 192)">
<title>pulse_audio.hpp</title>
<!-- Node1 -->
<g id="node1" class="node">
<title>Node1</title>
<g id="a_node1"><a xlink:title=" ">
<polygon fill="#bfbfbf" stroke="black" points="395.5,-168.5 395.5,-187.5 491.5,-187.5 491.5,-168.5 395.5,-168.5"/>
<text text-anchor="middle" x="443.5" y="-175.5" font-family="Helvetica,sans-Serif" font-size="10.00">pulse_audio.hpp</text>
</a>
</g>
</g>
<!-- Node2 -->
<g id="node2" class="node">
<title>Node2</title>
<g id="a_node2"><a xlink:title=" ">
<polygon fill="none" stroke="#bfbfbf" points="0,-112.5 0,-131.5 47,-131.5 47,-112.5 0,-112.5"/>
<text text-anchor="middle" x="23.5" y="-119.5" font-family="Helvetica,sans-Serif" font-size="10.00">cmath</text>
</a>
</g>
</g>
<!-- Node1&#45;&gt;Node2 -->
<g id="edge1" class="edge">
<title>Node1&#45;&gt;Node2</title>
<path fill="none" stroke="midnightblue" d="M395.48,-173.75C323.84,-168.4 184.66,-156.02 57.13,-131.83"/>
<polygon fill="midnightblue" stroke="midnightblue" points="57.67,-128.37 47.19,-129.92 56.35,-135.25 57.67,-128.37"/>
</g>
<!-- Node3 -->
<g id="node3" class="node">
<title>Node3</title>
<g id="a_node3"><a xlink:title=" ">
<polygon fill="none" stroke="#bfbfbf" points="65.5,-112.5 65.5,-131.5 133.5,-131.5 133.5,-112.5 65.5,-112.5"/>
<text text-anchor="middle" x="99.5" y="-119.5" font-family="Helvetica,sans-Serif" font-size="10.00">filesystem</text>
</a>
</g>
</g>
<!-- Node1&#45;&gt;Node3 -->
<g id="edge2" class="edge">
<title>Node1&#45;&gt;Node3</title>
<path fill="none" stroke="midnightblue" d="M395.4,-170.68C337.89,-162.94 238.52,-148.94 143.77,-132.14"/>
<polygon fill="midnightblue" stroke="midnightblue" points="144.19,-128.66 133.73,-130.35 142.96,-135.56 144.19,-128.66"/>
</g>
<!-- Node4 -->
<g id="node4" class="node">
<title>Node4</title>
<g id="a_node4"><a xlink:title=" ">
<polygon fill="none" stroke="#bfbfbf" points="152,-112.5 152,-131.5 207,-131.5 207,-112.5 152,-112.5"/>
<text text-anchor="middle" x="179.5" y="-119.5" font-family="Helvetica,sans-Serif" font-size="10.00">fstream</text>
</a>
</g>
</g>
<!-- Node1&#45;&gt;Node4 -->
<g id="edge3" class="edge">
<title>Node1&#45;&gt;Node4</title>
<path fill="none" stroke="midnightblue" d="M397.29,-168.44C353.49,-160.19 285.62,-147.07 217.41,-132.13"/>
<polygon fill="midnightblue" stroke="midnightblue" points="217.87,-128.64 207.35,-129.91 216.36,-135.48 217.87,-128.64"/>
</g>
<!-- Node5 -->
<g id="node5" class="node">
<title>Node5</title>
<g id="a_node5"><a xlink:title=" ">
<polygon fill="none" stroke="#bfbfbf" points="225.5,-112.5 225.5,-131.5 285.5,-131.5 285.5,-112.5 225.5,-112.5"/>
<text text-anchor="middle" x="255.5" y="-119.5" font-family="Helvetica,sans-Serif" font-size="10.00">iostream</text>
</a>
</g>
</g>
<!-- Node1&#45;&gt;Node5 -->
<g id="edge4" class="edge">
<title>Node1&#45;&gt;Node5</title>
<path fill="none" stroke="midnightblue" d="M413.71,-168.44C381.67,-159.24 330.57,-144.56 295.15,-134.39"/>
<polygon fill="midnightblue" stroke="midnightblue" points="295.73,-130.91 285.15,-131.52 293.79,-137.64 295.73,-130.91"/>
</g>
<!-- Node6 -->
<g id="node6" class="node">
<title>Node6</title>
<g id="a_node6"><a xlink:title=" ">
<polygon fill="none" stroke="#bfbfbf" points="304,-112.5 304,-131.5 381,-131.5 381,-112.5 304,-112.5"/>
<text text-anchor="middle" x="342.5" y="-119.5" font-family="Helvetica,sans-Serif" font-size="10.00">pulse/error.h</text>
</a>
</g>
</g>
<!-- Node1&#45;&gt;Node6 -->
<g id="edge5" class="edge">
<title>Node1&#45;&gt;Node6</title>
<path fill="none" stroke="midnightblue" d="M427.27,-168.32C411.15,-159.7 386.2,-146.36 367.54,-136.39"/>
<polygon fill="midnightblue" stroke="midnightblue" points="369.16,-133.28 358.69,-131.65 365.86,-139.46 369.16,-133.28"/>
</g>
<!-- Node7 -->
<g id="node7" class="node">
<title>Node7</title>
<g id="a_node7"><a xlink:title=" ">
<polygon fill="none" stroke="#bfbfbf" points="399.5,-112.5 399.5,-131.5 487.5,-131.5 487.5,-112.5 399.5,-112.5"/>
<text text-anchor="middle" x="443.5" y="-119.5" font-family="Helvetica,sans-Serif" font-size="10.00">pulse/simple.h</text>
</a>
</g>
</g>
<!-- Node1&#45;&gt;Node7 -->
<g id="edge6" class="edge">
<title>Node1&#45;&gt;Node7</title>
<path fill="none" stroke="midnightblue" d="M443.5,-168.08C443.5,-161.01 443.5,-150.86 443.5,-141.99"/>
<polygon fill="midnightblue" stroke="midnightblue" points="447,-141.75 443.5,-131.75 440,-141.75 447,-141.75"/>
</g>
<!-- Node8 -->
<g id="node8" class="node">
<title>Node8</title>
<g id="a_node8"><a xlink:title=" ">
<polygon fill="none" stroke="#bfbfbf" points="523.5,-0.5 523.5,-19.5 567.5,-19.5 567.5,-0.5 523.5,-0.5"/>
<text text-anchor="middle" x="545.5" y="-7.5" font-family="Helvetica,sans-Serif" font-size="10.00">string</text>
</a>
</g>
</g>
<!-- Node1&#45;&gt;Node8 -->
<g id="edge7" class="edge">
<title>Node1&#45;&gt;Node8</title>
<path fill="none" stroke="midnightblue" d="M457.52,-168.26C469.42,-160.18 486.17,-147.16 496.5,-132 516.61,-102.5 508.56,-88.87 522.5,-56 526.4,-46.81 531.37,-36.9 535.7,-28.73"/>
<polygon fill="midnightblue" stroke="midnightblue" points="538.86,-30.25 540.53,-19.79 532.7,-26.92 538.86,-30.25"/>
</g>
<!-- Node9 -->
<g id="node9" class="node">
<title>Node9</title>
<g id="a_node9"><a xlink:title=" ">
<polygon fill="none" stroke="#bfbfbf" points="663,-56.5 663,-75.5 710,-75.5 710,-56.5 663,-56.5"/>
<text text-anchor="middle" x="686.5" y="-63.5" font-family="Helvetica,sans-Serif" font-size="10.00">vector</text>
</a>
</g>
</g>
<!-- Node1&#45;&gt;Node9 -->
<g id="edge8" class="edge">
<title>Node1&#45;&gt;Node9</title>
<path fill="none" stroke="midnightblue" d="M466.24,-168.34C488.82,-159.61 524.33,-145.52 554.5,-132 592.08,-115.16 634.67,-93.75 661.06,-80.21"/>
<polygon fill="midnightblue" stroke="midnightblue" points="662.73,-83.29 670.01,-75.6 659.52,-77.07 662.73,-83.29"/>
</g>
<!-- Node10 -->
<g id="node10" class="node">
<title>Node10</title>
<g id="a_node10"><a xlink:href="assert_8hpp.html" target="_top" xlink:title=" ">
<polygon fill="none" stroke="black" points="532,-56.5 532,-75.5 645,-75.5 645,-56.5 532,-56.5"/>
<text text-anchor="middle" x="588.5" y="-63.5" font-family="Helvetica,sans-Serif" font-size="10.00">common/assert.hpp</text>
</a>
</g>
</g>
<!-- Node1&#45;&gt;Node10 -->
<g id="edge9" class="edge">
<title>Node1&#45;&gt;Node10</title>
<path fill="none" stroke="midnightblue" d="M464.87,-168.35C483.06,-160.42 509.37,-147.56 529.5,-132 547.5,-118.09 564.57,-98.29 575.68,-84.21"/>
<polygon fill="midnightblue" stroke="midnightblue" points="578.75,-85.96 582.06,-75.9 573.19,-81.7 578.75,-85.96"/>
</g>
<!-- Node11 -->
<g id="node11" class="node">
<title>Node11</title>
<g id="a_node11"><a xlink:href="audio__channel_8hpp.html" target="_top" xlink:title=" ">
<polygon fill="none" stroke="black" points="672.5,-112.5 672.5,-131.5 826.5,-131.5 826.5,-112.5 672.5,-112.5"/>
<text text-anchor="middle" x="749.5" y="-119.5" font-family="Helvetica,sans-Serif" font-size="10.00">ktl/audio/audio_channel.hpp</text>
</a>
</g>
</g>
<!-- Node1&#45;&gt;Node11 -->
<g id="edge11" class="edge">
<title>Node1&#45;&gt;Node11</title>
<path fill="none" stroke="midnightblue" d="M491.65,-168.5C545.63,-158.98 633.17,-143.53 691.04,-133.32"/>
<polygon fill="midnightblue" stroke="midnightblue" points="691.89,-136.72 701.13,-131.54 690.67,-129.83 691.89,-136.72"/>
</g>
<!-- Node16 -->
<g id="node16" class="node">
<title>Node16</title>
<g id="a_node16"><a xlink:href="audio__constants_8hpp.html" target="_top" xlink:title=" ">
<polygon fill="none" stroke="black" points="851,-112.5 851,-131.5 1014,-131.5 1014,-112.5 851,-112.5"/>
<text text-anchor="middle" x="932.5" y="-119.5" font-family="Helvetica,sans-Serif" font-size="10.00">ktl/audio/audio_constants.hpp</text>
</a>
</g>
</g>
<!-- Node1&#45;&gt;Node16 -->
<g id="edge18" class="edge">
<title>Node1&#45;&gt;Node16</title>
<path fill="none" stroke="midnightblue" d="M491.73,-171.67C573.81,-162.61 741.79,-144.06 845.03,-132.66"/>
<polygon fill="midnightblue" stroke="midnightblue" points="845.56,-136.12 855.12,-131.55 844.79,-129.16 845.56,-136.12"/>
</g>
<!-- Node10&#45;&gt;Node8 -->
<g id="edge10" class="edge">
<title>Node10&#45;&gt;Node8</title>
<path fill="none" stroke="midnightblue" d="M581.4,-56.08C575.26,-48.38 566.23,-37.03 558.76,-27.65"/>
<polygon fill="midnightblue" stroke="midnightblue" points="561.44,-25.39 552.47,-19.75 555.96,-29.75 561.44,-25.39"/>
</g>
<!-- Node11&#45;&gt;Node9 -->
<g id="edge16" class="edge">
<title>Node11&#45;&gt;Node9</title>
<path fill="none" stroke="midnightblue" d="M739.38,-112.32C729.97,-104.26 715.76,-92.08 704.43,-82.37"/>
<polygon fill="midnightblue" stroke="midnightblue" points="706.68,-79.68 696.81,-75.83 702.12,-85 706.68,-79.68"/>
</g>
<!-- Node11&#45;&gt;Node10 -->
<g id="edge17" class="edge">
<title>Node11&#45;&gt;Node10</title>
<path fill="none" stroke="midnightblue" d="M723.99,-112.44C696.9,-103.36 653.91,-88.94 623.63,-78.78"/>
<polygon fill="midnightblue" stroke="midnightblue" points="624.49,-75.38 613.89,-75.52 622.26,-82.01 624.49,-75.38"/>
</g>
<!-- Node12 -->
<g id="node12" class="node">
<title>Node12</title>
<g id="a_node12"><a xlink:title=" ">
<polygon fill="none" stroke="#bfbfbf" points="728.5,-56.5 728.5,-75.5 770.5,-75.5 770.5,-56.5 728.5,-56.5"/>
<text text-anchor="middle" x="749.5" y="-63.5" font-family="Helvetica,sans-Serif" font-size="10.00">array</text>
</a>
</g>
</g>
<!-- Node11&#45;&gt;Node12 -->
<g id="edge12" class="edge">
<title>Node11&#45;&gt;Node12</title>
<path fill="none" stroke="midnightblue" d="M749.5,-112.08C749.5,-105.01 749.5,-94.86 749.5,-85.99"/>
<polygon fill="midnightblue" stroke="midnightblue" points="753,-85.75 749.5,-75.75 746,-85.75 753,-85.75"/>
</g>
<!-- Node13 -->
<g id="node13" class="node">
<title>Node13</title>
<g id="a_node13"><a xlink:title=" ">
<polygon fill="none" stroke="#bfbfbf" points="912.5,-56.5 912.5,-75.5 962.5,-75.5 962.5,-56.5 912.5,-56.5"/>
<text text-anchor="middle" x="937.5" y="-63.5" font-family="Helvetica,sans-Serif" font-size="10.00">cstdint</text>
</a>
</g>
</g>
<!-- Node11&#45;&gt;Node13 -->
<g id="edge13" class="edge">
<title>Node11&#45;&gt;Node13</title>
<path fill="none" stroke="midnightblue" d="M779.29,-112.44C812.74,-102.83 866.98,-87.26 902.45,-77.07"/>
<polygon fill="midnightblue" stroke="midnightblue" points="903.72,-80.35 912.36,-74.22 901.78,-73.62 903.72,-80.35"/>
</g>
<!-- Node14 -->
<g id="node14" class="node">
<title>Node14</title>
<g id="a_node14"><a xlink:title=" ">
<polygon fill="none" stroke="#bfbfbf" points="789,-56.5 789,-75.5 836,-75.5 836,-56.5 789,-56.5"/>
<text text-anchor="middle" x="812.5" y="-63.5" font-family="Helvetica,sans-Serif" font-size="10.00">deque</text>
</a>
</g>
</g>
<!-- Node11&#45;&gt;Node14 -->
<g id="edge14" class="edge">
<title>Node11&#45;&gt;Node14</title>
<path fill="none" stroke="midnightblue" d="M759.62,-112.32C769.03,-104.26 783.24,-92.08 794.57,-82.37"/>
<polygon fill="midnightblue" stroke="midnightblue" points="796.88,-85 802.19,-75.83 792.32,-79.68 796.88,-85"/>
</g>
<!-- Node15 -->
<g id="node15" class="node">
<title>Node15</title>
<g id="a_node15"><a xlink:title=" ">
<polygon fill="none" stroke="#bfbfbf" points="854.5,-56.5 854.5,-75.5 894.5,-75.5 894.5,-56.5 854.5,-56.5"/>
<text text-anchor="middle" x="874.5" y="-63.5" font-family="Helvetica,sans-Serif" font-size="10.00">span</text>
</a>
</g>
</g>
<!-- Node11&#45;&gt;Node15 -->
<g id="edge15" class="edge">
<title>Node11&#45;&gt;Node15</title>
<path fill="none" stroke="midnightblue" d="M769.31,-112.44C789.79,-103.6 821.98,-89.69 845.36,-79.59"/>
<polygon fill="midnightblue" stroke="midnightblue" points="846.99,-82.7 854.79,-75.52 844.22,-76.27 846.99,-82.7"/>
</g>
<!-- Node16&#45;&gt;Node13 -->
<g id="edge19" class="edge">
<title>Node16&#45;&gt;Node13</title>
<path fill="none" stroke="midnightblue" d="M933.33,-112.08C933.98,-105.01 934.92,-94.86 935.74,-85.99"/>
<polygon fill="midnightblue" stroke="midnightblue" points="939.25,-86.03 936.69,-75.75 932.28,-85.39 939.25,-86.03"/>
</g>
</g>
</svg>
