<?xml version="1.0" encoding="UTF-8" standalone="no"?>
<!DOCTYPE svg PUBLIC "-//W3C//DTD SVG 1.1//EN"
 "http://www.w3.org/Graphics/SVG/1.1/DTD/svg11.dtd">
<!-- Generated by graphviz version 2.43.0 (0)
 -->
<!-- Title: main Pages: 1 -->
<svg width="1350pt" height="887pt"
 viewBox="0.00 0.00 1350.00 886.50" xmlns="http://www.w3.org/2000/svg" xmlns:xlink="http://www.w3.org/1999/xlink">
<g id="graph0" class="graph" transform="scale(1 1) rotate(0) translate(4 882.5)">
<title>main</title>
<!-- Node1 -->
<g id="node1" class="node">
<title>Node1</title>
<g id="a_node1"><a xlink:title=" ">
<polygon fill="#bfbfbf" stroke="black" points="0,-618.5 0,-637.5 41,-637.5 41,-618.5 0,-618.5"/>
<text text-anchor="middle" x="20.5" y="-625.5" font-family="Helvetica,sans-Serif" font-size="10.00">main</text>
</a>
</g>
</g>
<!-- Node2 -->
<g id="node2" class="node">
<title>Node2</title>
<g id="a_node2"><a xlink:href="classkazoo_1_1TranslationLayer.html#a3ff80676129acd82d4f78f8181675ee2" target="_top" xlink:title=" ">
<polygon fill="none" stroke="black" points="77,-725 77,-755 208,-755 208,-725 77,-725"/>
<text text-anchor="start" x="85" y="-743" font-family="Helvetica,sans-Serif" font-size="10.00">kazoo::TranslationLayer</text>
<text text-anchor="middle" x="142.5" y="-732" font-family="Helvetica,sans-Serif" font-size="10.00">::getReceivedFrame</text>
</a>
</g>
</g>
<!-- Node1&#45;&gt;Node2 -->
<g id="edge1" class="edge">
<title>Node1&#45;&gt;Node2</title>
<path fill="none" stroke="midnightblue" d="M25.12,-637.65C32.32,-655.57 50.08,-694.14 77,-716 78.57,-717.27 80.2,-718.48 81.9,-719.63"/>
<polygon fill="midnightblue" stroke="midnightblue" points="80.39,-722.8 90.78,-724.87 83.95,-716.77 80.39,-722.8"/>
</g>
<!-- Node3 -->
<g id="node3" class="node">
<title>Node3</title>
<g id="a_node3"><a xlink:href="classkazoo_1_1TranslationLayer.html#aee3bf91ee36c3e091f04db418ece15b9" target="_top" xlink:title=" ">
<polygon fill="none" stroke="black" points="77,-676 77,-706 208,-706 208,-676 77,-676"/>
<text text-anchor="start" x="85" y="-694" font-family="Helvetica,sans-Serif" font-size="10.00">kazoo::TranslationLayer</text>
<text text-anchor="middle" x="142.5" y="-683" font-family="Helvetica,sans-Serif" font-size="10.00">::getStats</text>
</a>
</g>
</g>
<!-- Node1&#45;&gt;Node3 -->
<g id="edge2" class="edge">
<title>Node1&#45;&gt;Node3</title>
<path fill="none" stroke="midnightblue" d="M33.76,-637.62C44.68,-645.88 61.3,-657.72 77,-666 80.93,-668.07 85.07,-670.07 89.28,-671.96"/>
<polygon fill="midnightblue" stroke="midnightblue" points="87.98,-675.22 98.55,-675.95 90.75,-668.79 87.98,-675.22"/>
</g>
<!-- Node4 -->
<g id="node4" class="node">
<title>Node4</title>
<g id="a_node4"><a xlink:href="src_2main_8cpp.html#aae2c22c53916e5e957a5b7392130c3db" target="_top" xlink:title=" ">
<polygon fill="none" stroke="black" points="102.5,-637.5 102.5,-656.5 182.5,-656.5 182.5,-637.5 102.5,-637.5"/>
<text text-anchor="middle" x="142.5" y="-644.5" font-family="Helvetica,sans-Serif" font-size="10.00">getUserInput</text>
</a>
</g>
</g>
<!-- Node1&#45;&gt;Node4 -->
<g id="edge3" class="edge">
<title>Node1&#45;&gt;Node4</title>
<path fill="none" stroke="midnightblue" d="M41.05,-631.09C54.88,-633.29 74.08,-636.33 92,-639.16"/>
<polygon fill="midnightblue" stroke="midnightblue" points="91.63,-642.65 102.06,-640.75 92.73,-635.73 91.63,-642.65"/>
</g>
<!-- Node5 -->
<g id="node5" class="node">
<title>Node5</title>
<g id="a_node5"><a xlink:href="classkazoo_1_1TranslationLayer.html#ad148d559a46fb7f62f6f3ab30353d237" target="_top" xlink:title=" ">
<polygon fill="none" stroke="black" points="262,-647 262,-677 393,-677 393,-647 262,-647"/>
<text text-anchor="start" x="270" y="-665" font-family="Helvetica,sans-Serif" font-size="10.00">kazoo::TranslationLayer</text>
<text text-anchor="middle" x="327.5" y="-654" font-family="Helvetica,sans-Serif" font-size="10.00">::stopListening</text>
</a>
</g>
</g>
<!-- Node1&#45;&gt;Node5 -->
<g id="edge52" class="edge">
<title>Node1&#45;&gt;Node5</title>
<path fill="none" stroke="midnightblue" d="M41.23,-626.21C75.4,-623.5 147.72,-619.52 208,-628 209.62,-628.23 236.85,-636.03 264.79,-644.1"/>
<polygon fill="midnightblue" stroke="midnightblue" points="264.09,-647.54 274.67,-646.96 266.03,-640.82 264.09,-647.54"/>
</g>
<!-- Node6 -->
<g id="node6" class="node">
<title>Node6</title>
<g id="a_node6"><a xlink:href="classkazoo_1_1TranslationLayer.html#a85b59418d9b63eaf80dd1b3623a96b96" target="_top" xlink:title=" ">
<polygon fill="none" stroke="black" points="77,-520 77,-550 208,-550 208,-520 77,-520"/>
<text text-anchor="start" x="85" y="-538" font-family="Helvetica,sans-Serif" font-size="10.00">kazoo::TranslationLayer</text>
<text text-anchor="middle" x="142.5" y="-527" font-family="Helvetica,sans-Serif" font-size="10.00">::sendFrame</text>
</a>
</g>
</g>
<!-- Node1&#45;&gt;Node6 -->
<g id="edge5" class="edge">
<title>Node1&#45;&gt;Node6</title>
<path fill="none" stroke="midnightblue" d="M33.89,-618.4C52.61,-603.89 88.6,-576 113.78,-556.48"/>
<polygon fill="midnightblue" stroke="midnightblue" points="116.1,-559.11 121.86,-550.22 111.82,-553.58 116.1,-559.11"/>
</g>
<!-- Node33 -->
<g id="node33" class="node">
<title>Node33</title>
<g id="a_node33"><a xlink:href="classkazoo_1_1TranslationLayer.html#add62ed51f54492faf5a8ef388f1f0f58" target="_top" xlink:title="Starts listening for audio input on the default audio device.">
<polygon fill="none" stroke="black" points="77,-356 77,-386 208,-386 208,-356 77,-356"/>
<text text-anchor="start" x="85" y="-374" font-family="Helvetica,sans-Serif" font-size="10.00">kazoo::TranslationLayer</text>
<text text-anchor="middle" x="142.5" y="-363" font-family="Helvetica,sans-Serif" font-size="10.00">::startListening</text>
</a>
</g>
</g>
<!-- Node1&#45;&gt;Node33 -->
<g id="edge38" class="edge">
<title>Node1&#45;&gt;Node33</title>
<path fill="none" stroke="midnightblue" d="M26.06,-618.24C43.23,-581.47 104.33,-450.61 130,-395.62"/>
<polygon fill="midnightblue" stroke="midnightblue" points="133.31,-396.82 134.37,-386.28 126.96,-393.86 133.31,-396.82"/>
</g>
<!-- Node4&#45;&gt;Node5 -->
<g id="edge4" class="edge">
<title>Node4&#45;&gt;Node5</title>
<path fill="none" stroke="midnightblue" d="M182.76,-650.22C202.88,-651.87 228.08,-653.93 251.73,-655.87"/>
<polygon fill="midnightblue" stroke="midnightblue" points="251.5,-659.36 261.75,-656.69 252.07,-652.39 251.5,-659.36"/>
</g>
<!-- Node7 -->
<g id="node7" class="node">
<title>Node7</title>
<g id="a_node7"><a xlink:href="classkazoo_1_1TranslationLayer.html#a6b80b010d94b9f1373fea308d1c6d435" target="_top" xlink:title="Takes input data and processes it through the symbol stream.">
<polygon fill="none" stroke="black" points="262,-549 262,-579 393,-579 393,-549 262,-549"/>
<text text-anchor="start" x="270" y="-567" font-family="Helvetica,sans-Serif" font-size="10.00">kazoo::TranslationLayer</text>
<text text-anchor="middle" x="327.5" y="-556" font-family="Helvetica,sans-Serif" font-size="10.00">::addData</text>
</a>
</g>
</g>
<!-- Node6&#45;&gt;Node7 -->
<g id="edge6" class="edge">
<title>Node6&#45;&gt;Node7</title>
<path fill="none" stroke="midnightblue" d="M208.02,-545.22C222.23,-547.48 237.4,-549.88 251.97,-552.19"/>
<polygon fill="midnightblue" stroke="midnightblue" points="251.52,-555.66 261.95,-553.77 252.62,-548.75 251.52,-555.66"/>
</g>
<!-- Node21 -->
<g id="node21" class="node">
<title>Node21</title>
<g id="a_node21"><a xlink:href="classkazoo_1_1AudioChannel.html#a400078d8b30365e3f755e23a02e392e2" target="_top" xlink:title=" ">
<polygon fill="none" stroke="black" points="475.5,-361 475.5,-391 594.5,-391 594.5,-361 475.5,-361"/>
<text text-anchor="start" x="483.5" y="-379" font-family="Helvetica,sans-Serif" font-size="10.00">kazoo::AudioChannel</text>
<text text-anchor="middle" x="535" y="-368" font-family="Helvetica,sans-Serif" font-size="10.00">::clear</text>
</a>
</g>
</g>
<!-- Node6&#45;&gt;Node21 -->
<g id="edge24" class="edge">
<title>Node6&#45;&gt;Node21</title>
<path fill="none" stroke="midnightblue" d="M157.26,-519.7C175.32,-500.56 208.86,-468.11 244,-450 314.62,-413.6 404.34,-394.28 465.14,-384.63"/>
<polygon fill="midnightblue" stroke="midnightblue" points="466.05,-388.03 475.4,-383.05 464.98,-381.11 466.05,-388.03"/>
</g>
<!-- Node22 -->
<g id="node22" class="node">
<title>Node22</title>
<g id="a_node22"><a xlink:href="classkazoo_1_1TranslationLayer.html#ae6af635a406681696216d31a11dd64f9" target="_top" xlink:title=" ">
<polygon fill="none" stroke="black" points="262,-598 262,-628 393,-628 393,-598 262,-598"/>
<text text-anchor="start" x="270" y="-616" font-family="Helvetica,sans-Serif" font-size="10.00">kazoo::TranslationLayer</text>
<text text-anchor="middle" x="327.5" y="-605" font-family="Helvetica,sans-Serif" font-size="10.00">::encode</text>
</a>
</g>
</g>
<!-- Node6&#45;&gt;Node22 -->
<g id="edge25" class="edge">
<title>Node6&#45;&gt;Node22</title>
<path fill="none" stroke="midnightblue" d="M167.99,-550.04C187.91,-561.81 217.05,-577.98 244,-589 248.8,-590.96 253.81,-592.83 258.89,-594.6"/>
<polygon fill="midnightblue" stroke="midnightblue" points="258.12,-598.03 268.72,-597.87 260.33,-591.39 258.12,-598.03"/>
</g>
<!-- Node29 -->
<g id="node29" class="node">
<title>Node29</title>
<g id="a_node29"><a xlink:href="classkazoo_1_1KtlFrame.html#a533f67512a5f1087ca7195eff19fa9c8" target="_top" xlink:title=" ">
<polygon fill="none" stroke="black" points="244,-510.5 244,-529.5 411,-529.5 411,-510.5 244,-510.5"/>
<text text-anchor="middle" x="327.5" y="-517.5" font-family="Helvetica,sans-Serif" font-size="10.00">kazoo::KtlFrame::encodeFrame</text>
</a>
</g>
</g>
<!-- Node6&#45;&gt;Node29 -->
<g id="edge33" class="edge">
<title>Node6&#45;&gt;Node29</title>
<path fill="none" stroke="midnightblue" d="M208.02,-529.71C216.38,-529.03 225.06,-528.31 233.77,-527.6"/>
<polygon fill="midnightblue" stroke="midnightblue" points="234.29,-531.07 243.97,-526.76 233.72,-524.09 234.29,-531.07"/>
</g>
<!-- Node30 -->
<g id="node30" class="node">
<title>Node30</title>
<g id="a_node30"><a xlink:href="classkazoo_1_1TranslationLayer.html#aedda920ecfd94bff66feb03ee0bc93b6" target="_top" xlink:title=" ">
<polygon fill="none" stroke="black" points="262,-459 262,-489 393,-489 393,-459 262,-459"/>
<text text-anchor="start" x="270" y="-477" font-family="Helvetica,sans-Serif" font-size="10.00">kazoo::TranslationLayer</text>
<text text-anchor="middle" x="327.5" y="-466" font-family="Helvetica,sans-Serif" font-size="10.00">::playAudioBlocking</text>
</a>
</g>
</g>
<!-- Node6&#45;&gt;Node30 -->
<g id="edge34" class="edge">
<title>Node6&#45;&gt;Node30</title>
<path fill="none" stroke="midnightblue" d="M187.99,-519.84C205.44,-513.92 225.65,-507.11 244,-501 252.61,-498.13 261.74,-495.12 270.66,-492.19"/>
<polygon fill="midnightblue" stroke="midnightblue" points="271.81,-495.5 280.22,-489.06 269.63,-488.85 271.81,-495.5"/>
</g>
<!-- Node8 -->
<g id="node8" class="node">
<title>Node8</title>
<g id="a_node8"><a xlink:href="classkazoo_1_1BinaryStream.html#a5bcef3247636f3ffd53309244c9e6a10" target="_top" xlink:title="Add bytes to the stream. If the stream is not byte aligned when this function is called,...">
<polygon fill="none" stroke="black" points="1050,-628 1050,-658 1168,-658 1168,-628 1050,-628"/>
<text text-anchor="start" x="1058" y="-646" font-family="Helvetica,sans-Serif" font-size="10.00">kazoo::BinaryStream</text>
<text text-anchor="middle" x="1109" y="-635" font-family="Helvetica,sans-Serif" font-size="10.00">::addBytes</text>
</a>
</g>
</g>
<!-- Node7&#45;&gt;Node8 -->
<g id="edge7" class="edge">
<title>Node7&#45;&gt;Node8</title>
<path fill="none" stroke="midnightblue" d="M379.2,-579.05C389.73,-582.26 400.75,-585.69 411,-589 438.72,-597.95 630.27,-669.21 659,-674 737.04,-687 757.99,-678.02 837,-674 906.34,-670.48 985.15,-660.82 1039.84,-653.21"/>
<polygon fill="midnightblue" stroke="midnightblue" points="1040.35,-656.67 1049.76,-651.82 1039.37,-649.74 1040.35,-656.67"/>
</g>
<!-- Node10 -->
<g id="node10" class="node">
<title>Node10</title>
<g id="a_node10"><a xlink:href="classkazoo_1_1BinaryStream.html#a3a614f83199d9abd627964db2fef5f7b" target="_top" xlink:title="Get the number of bits in the stream.">
<polygon fill="none" stroke="black" points="874.5,-541 874.5,-571 992.5,-571 992.5,-541 874.5,-541"/>
<text text-anchor="start" x="882.5" y="-559" font-family="Helvetica,sans-Serif" font-size="10.00">kazoo::BinaryStream</text>
<text text-anchor="middle" x="933.5" y="-548" font-family="Helvetica,sans-Serif" font-size="10.00">::getNumBits</text>
</a>
</g>
</g>
<!-- Node7&#45;&gt;Node10 -->
<g id="edge9" class="edge">
<title>Node7&#45;&gt;Node10</title>
<path fill="none" stroke="midnightblue" d="M393.14,-563.14C507.91,-561.62 746.22,-558.47 863.82,-556.91"/>
<polygon fill="midnightblue" stroke="midnightblue" points="864.18,-560.41 874.13,-556.77 864.09,-553.41 864.18,-560.41"/>
</g>
<!-- Node13 -->
<g id="node13" class="node">
<title>Node13</title>
<g id="a_node13"><a xlink:href="classkazoo_1_1SymbolStream.html#a5eb190a46e077143f1abcaf2211a0ad0" target="_top" xlink:title=" ">
<polygon fill="none" stroke="black" points="473.5,-673 473.5,-703 596.5,-703 596.5,-673 473.5,-673"/>
<text text-anchor="start" x="481.5" y="-691" font-family="Helvetica,sans-Serif" font-size="10.00">kazoo::SymbolStream</text>
<text text-anchor="middle" x="535" y="-680" font-family="Helvetica,sans-Serif" font-size="10.00">::getNumBytes</text>
</a>
</g>
</g>
<!-- Node7&#45;&gt;Node13 -->
<g id="edge13" class="edge">
<title>Node7&#45;&gt;Node13</title>
<path fill="none" stroke="midnightblue" d="M393.27,-578C399.64,-580.99 405.7,-584.61 411,-589 437.63,-611.07 420.79,-635.43 447,-658 452.12,-662.41 457.93,-666.19 464.06,-669.41"/>
<polygon fill="midnightblue" stroke="midnightblue" points="462.68,-672.63 473.22,-673.76 465.68,-666.31 462.68,-672.63"/>
</g>
<!-- Node16 -->
<g id="node16" class="node">
<title>Node16</title>
<g id="a_node16"><a xlink:href="classkazoo_1_1SymbolStream.html#a483b690f6e07727669434375cbb23586" target="_top" xlink:title="Process a binary stream and convert it to symbols, removing the bits from the binary stream.">
<polygon fill="none" stroke="black" points="471.5,-508 471.5,-538 598.5,-538 598.5,-508 471.5,-508"/>
<text text-anchor="start" x="479.5" y="-526" font-family="Helvetica,sans-Serif" font-size="10.00">kazoo::SymbolStream</text>
<text text-anchor="middle" x="535" y="-515" font-family="Helvetica,sans-Serif" font-size="10.00">::processBinaryStream</text>
</a>
</g>
</g>
<!-- Node7&#45;&gt;Node16 -->
<g id="edge16" class="edge">
<title>Node7&#45;&gt;Node16</title>
<path fill="none" stroke="midnightblue" d="M393.24,-551.08C414.87,-546.77 439.11,-541.93 461.31,-537.5"/>
<polygon fill="midnightblue" stroke="midnightblue" points="462.22,-540.89 471.34,-535.5 460.85,-534.03 462.22,-540.89"/>
</g>
<!-- Node9 -->
<g id="node9" class="node">
<title>Node9</title>
<g id="a_node9"><a xlink:href="classkazoo_1_1BinaryStream.html#a32b6f202b2627b75ace2e6c9c07726aa" target="_top" xlink:title="Get the byte alignment status of the stream.">
<polygon fill="none" stroke="black" points="1224,-415 1224,-445 1342,-445 1342,-415 1224,-415"/>
<text text-anchor="start" x="1232" y="-433" font-family="Helvetica,sans-Serif" font-size="10.00">kazoo::BinaryStream</text>
<text text-anchor="middle" x="1283" y="-422" font-family="Helvetica,sans-Serif" font-size="10.00">::isByteAligned</text>
</a>
</g>
</g>
<!-- Node8&#45;&gt;Node9 -->
<g id="edge8" class="edge">
<title>Node8&#45;&gt;Node9</title>
<path fill="none" stroke="midnightblue" d="M1132.9,-627.97C1149.44,-616.41 1171.66,-599.34 1188,-581 1223.6,-541.06 1254.07,-486.02 1270.04,-454.61"/>
<polygon fill="midnightblue" stroke="midnightblue" points="1273.36,-455.8 1274.71,-445.3 1267.1,-452.67 1273.36,-455.8"/>
</g>
<!-- Node11 -->
<g id="node11" class="node">
<title>Node11</title>
<g id="a_node11"><a xlink:href="classkazoo_1_1BinaryStream.html#aada16bde376a41419737c7177612a521" target="_top" xlink:title="If adding bits, this will return the number of bits that can be added to the stream before the stream...">
<polygon fill="none" stroke="black" points="1041.5,-541 1041.5,-571 1176.5,-571 1176.5,-541 1041.5,-541"/>
<text text-anchor="start" x="1049.5" y="-559" font-family="Helvetica,sans-Serif" font-size="10.00">kazoo::BinaryStream</text>
<text text-anchor="middle" x="1109" y="-548" font-family="Helvetica,sans-Serif" font-size="10.00">::getInputBitBufferSpace</text>
</a>
</g>
</g>
<!-- Node10&#45;&gt;Node11 -->
<g id="edge10" class="edge">
<title>Node10&#45;&gt;Node11</title>
<path fill="none" stroke="midnightblue" d="M992.76,-556C1005.03,-556 1018.16,-556 1031,-556"/>
<polygon fill="midnightblue" stroke="midnightblue" points="1031.21,-559.5 1041.21,-556 1031.21,-552.5 1031.21,-559.5"/>
</g>
<!-- Node12 -->
<g id="node12" class="node">
<title>Node12</title>
<g id="a_node12"><a xlink:href="classkazoo_1_1BinaryStream.html#a12a1666a4c0b0ddfdc512a50f09f5975" target="_top" xlink:title=" ">
<polygon fill="none" stroke="black" points="1030,-470 1030,-500 1188,-500 1188,-470 1030,-470"/>
<text text-anchor="start" x="1038" y="-488" font-family="Helvetica,sans-Serif" font-size="10.00">kazoo::BinaryStream</text>
<text text-anchor="middle" x="1109" y="-477" font-family="Helvetica,sans-Serif" font-size="10.00">::getOutputBitBufferUsedBits</text>
</a>
</g>
</g>
<!-- Node10&#45;&gt;Node12 -->
<g id="edge11" class="edge">
<title>Node10&#45;&gt;Node12</title>
<path fill="none" stroke="midnightblue" d="M971.97,-540.94C979.28,-537.98 986.88,-534.9 994,-532 1016.52,-522.82 1041.5,-512.53 1062.33,-503.92"/>
<polygon fill="midnightblue" stroke="midnightblue" points="1063.67,-507.15 1071.58,-500.1 1061,-500.69 1063.67,-507.15"/>
</g>
<!-- Node12&#45;&gt;Node9 -->
<g id="edge12" class="edge">
<title>Node12&#45;&gt;Node9</title>
<path fill="none" stroke="midnightblue" d="M1157,-469.97C1178.14,-463.21 1203.27,-455.18 1225.43,-448.09"/>
<polygon fill="midnightblue" stroke="midnightblue" points="1226.6,-451.39 1235.06,-445.01 1224.47,-444.72 1226.6,-451.39"/>
</g>
<!-- Node14 -->
<g id="node14" class="node">
<title>Node14</title>
<g id="a_node14"><a xlink:href="classkazoo_1_1SymbolStream.html#a1276660b16a23ea24bd024fd8ba72b57" target="_top" xlink:title=" ">
<polygon fill="none" stroke="black" points="686.5,-634 686.5,-664 809.5,-664 809.5,-634 686.5,-634"/>
<text text-anchor="start" x="694.5" y="-652" font-family="Helvetica,sans-Serif" font-size="10.00">kazoo::SymbolStream</text>
<text text-anchor="middle" x="748" y="-641" font-family="Helvetica,sans-Serif" font-size="10.00">::getNumBits</text>
</a>
</g>
</g>
<!-- Node13&#45;&gt;Node14 -->
<g id="edge14" class="edge">
<title>Node13&#45;&gt;Node14</title>
<path fill="none" stroke="midnightblue" d="M596.75,-676.77C621.57,-672.18 650.46,-666.84 676.23,-662.08"/>
<polygon fill="midnightblue" stroke="midnightblue" points="677.12,-665.48 686.32,-660.22 675.85,-658.59 677.12,-665.48"/>
</g>
<!-- Node15 -->
<g id="node15" class="node">
<title>Node15</title>
<g id="a_node15"><a xlink:href="classkazoo_1_1ISymbolModel.html#a08668909fe1a7f901fe26ad30f9a1e30" target="_top" xlink:title=" ">
<polygon fill="none" stroke="black" points="873,-618 873,-648 994,-648 994,-618 873,-618"/>
<text text-anchor="start" x="881" y="-636" font-family="Helvetica,sans-Serif" font-size="10.00">kazoo::ISymbolModel</text>
<text text-anchor="middle" x="933.5" y="-625" font-family="Helvetica,sans-Serif" font-size="10.00">::getSymbolBitWidth</text>
</a>
</g>
</g>
<!-- Node14&#45;&gt;Node15 -->
<g id="edge15" class="edge">
<title>Node14&#45;&gt;Node15</title>
<path fill="none" stroke="midnightblue" d="M809.59,-643.72C826.61,-642.23 845.25,-640.61 862.75,-639.08"/>
<polygon fill="midnightblue" stroke="midnightblue" points="863.25,-642.55 872.91,-638.2 862.64,-635.58 863.25,-642.55"/>
</g>
<!-- Node16&#45;&gt;Node9 -->
<g id="edge20" class="edge">
<title>Node16&#45;&gt;Node9</title>
<path fill="none" stroke="midnightblue" d="M598.65,-511.22C607.25,-508.07 615.64,-504.07 623,-499 645.26,-483.67 635.09,-462.59 659,-450 753.47,-400.26 1072.41,-415.31 1213.68,-424.83"/>
<polygon fill="midnightblue" stroke="midnightblue" points="1213.73,-428.34 1223.95,-425.53 1214.21,-421.36 1213.73,-428.34"/>
</g>
<!-- Node16&#45;&gt;Node15 -->
<g id="edge18" class="edge">
<title>Node16&#45;&gt;Node15</title>
<path fill="none" stroke="midnightblue" d="M590.3,-538.06C662.76,-558.17 790.9,-593.72 868.13,-615.14"/>
<polygon fill="midnightblue" stroke="midnightblue" points="867.65,-618.64 878.22,-617.94 869.52,-611.9 867.65,-618.64"/>
</g>
<!-- Node17 -->
<g id="node17" class="node">
<title>Node17</title>
<g id="a_node17"><a xlink:href="classkazoo_1_1BinaryStream.html#af26ef358b4ddbd2f0a7f9d94d1b64357" target="_top" xlink:title="Get the number of bytes in the stream. If the stream has spare bits that do not align to a byte,...">
<polygon fill="none" stroke="black" points="689,-371 689,-401 807,-401 807,-371 689,-371"/>
<text text-anchor="start" x="697" y="-389" font-family="Helvetica,sans-Serif" font-size="10.00">kazoo::BinaryStream</text>
<text text-anchor="middle" x="748" y="-378" font-family="Helvetica,sans-Serif" font-size="10.00">::getNumBytes</text>
</a>
</g>
</g>
<!-- Node16&#45;&gt;Node17 -->
<g id="edge17" class="edge">
<title>Node16&#45;&gt;Node17</title>
<path fill="none" stroke="midnightblue" d="M598.87,-513.01C607.64,-509.61 616.02,-505.06 623,-499 653.35,-472.63 629.44,-443.26 659,-416 664.92,-410.54 671.88,-406.06 679.25,-402.4"/>
<polygon fill="midnightblue" stroke="midnightblue" points="681.03,-405.44 688.75,-398.18 678.19,-399.04 681.03,-405.44"/>
</g>
<!-- Node18 -->
<g id="node18" class="node">
<title>Node18</title>
<g id="a_node18"><a xlink:href="classkazoo_1_1ISymbolModel.html#acc7c190376b422d6a6f8a28a2a7445f0" target="_top" xlink:title=" ">
<polygon fill="none" stroke="black" points="687.5,-459 687.5,-489 808.5,-489 808.5,-459 687.5,-459"/>
<text text-anchor="start" x="695.5" y="-477" font-family="Helvetica,sans-Serif" font-size="10.00">kazoo::ISymbolModel</text>
<text text-anchor="middle" x="748" y="-466" font-family="Helvetica,sans-Serif" font-size="10.00">::getSymbolId</text>
</a>
</g>
</g>
<!-- Node16&#45;&gt;Node18 -->
<g id="edge19" class="edge">
<title>Node16&#45;&gt;Node18</title>
<path fill="none" stroke="midnightblue" d="M598.74,-508.43C623.51,-502.68 652.07,-496.05 677.47,-490.15"/>
<polygon fill="midnightblue" stroke="midnightblue" points="678.45,-493.51 687.4,-487.84 676.87,-486.69 678.45,-493.51"/>
</g>
<!-- Node19 -->
<g id="node19" class="node">
<title>Node19</title>
<g id="a_node19"><a xlink:href="classkazoo_1_1BinaryStream.html#a745b2acb522d69e283dd5df14500016b" target="_top" xlink:title="Pop bits off the front, effectively the inverse of addBits.">
<polygon fill="none" stroke="black" points="689,-508 689,-538 807,-538 807,-508 689,-508"/>
<text text-anchor="start" x="697" y="-526" font-family="Helvetica,sans-Serif" font-size="10.00">kazoo::BinaryStream</text>
<text text-anchor="middle" x="748" y="-515" font-family="Helvetica,sans-Serif" font-size="10.00">::popBits</text>
</a>
</g>
</g>
<!-- Node16&#45;&gt;Node19 -->
<g id="edge21" class="edge">
<title>Node16&#45;&gt;Node19</title>
<path fill="none" stroke="midnightblue" d="M598.74,-523C623.94,-523 653.06,-523 678.79,-523"/>
<polygon fill="midnightblue" stroke="midnightblue" points="678.83,-526.5 688.83,-523 678.83,-519.5 678.83,-526.5"/>
</g>
<!-- Node19&#45;&gt;Node10 -->
<g id="edge22" class="edge">
<title>Node19&#45;&gt;Node10</title>
<path fill="none" stroke="midnightblue" d="M807.06,-533.44C825.22,-536.71 845.42,-540.34 864.21,-543.72"/>
<polygon fill="midnightblue" stroke="midnightblue" points="863.73,-547.19 874.19,-545.51 864.96,-540.3 863.73,-547.19"/>
</g>
<!-- Node20 -->
<g id="node20" class="node">
<title>Node20</title>
<g id="a_node20"><a xlink:href="classkazoo_1_1BinaryStream.html#a82de69510e248576ea64a328979a9f48" target="_top" xlink:title=" ">
<polygon fill="none" stroke="black" points="874.5,-492 874.5,-522 992.5,-522 992.5,-492 874.5,-492"/>
<text text-anchor="start" x="882.5" y="-510" font-family="Helvetica,sans-Serif" font-size="10.00">kazoo::BinaryStream</text>
<text text-anchor="middle" x="933.5" y="-499" font-family="Helvetica,sans-Serif" font-size="10.00">::popBit</text>
</a>
</g>
</g>
<!-- Node19&#45;&gt;Node20 -->
<g id="edge23" class="edge">
<title>Node19&#45;&gt;Node20</title>
<path fill="none" stroke="midnightblue" d="M807.06,-517.94C825.22,-516.35 845.42,-514.59 864.21,-512.95"/>
<polygon fill="midnightblue" stroke="midnightblue" points="864.53,-516.44 874.19,-512.08 863.92,-509.47 864.53,-516.44"/>
</g>
<!-- Node22&#45;&gt;Node13 -->
<g id="edge31" class="edge">
<title>Node22&#45;&gt;Node13</title>
<path fill="none" stroke="midnightblue" d="M384.11,-628.08C393.21,-631.05 402.46,-634.38 411,-638 427.85,-645.14 430.28,-650.54 447,-658 456.19,-662.1 466.13,-666 475.89,-669.55"/>
<polygon fill="midnightblue" stroke="midnightblue" points="474.96,-672.93 485.55,-672.97 477.3,-666.33 474.96,-672.93"/>
</g>
<!-- Node23 -->
<g id="node23" class="node">
<title>Node23</title>
<g id="a_node23"><a xlink:href="classkazoo_1_1Encoder.html#a377a241e22091d991edd5376e0d0be10" target="_top" xlink:title="Pops symbols from the front of the symbol stream and encodes them into the audio buffer.">
<polygon fill="none" stroke="black" points="447,-760 447,-790 623,-790 623,-760 447,-760"/>
<text text-anchor="start" x="455" y="-778" font-family="Helvetica,sans-Serif" font-size="10.00">kazoo::Encoder::encodeAvailable</text>
<text text-anchor="middle" x="535" y="-767" font-family="Helvetica,sans-Serif" font-size="10.00">Symbols</text>
</a>
</g>
</g>
<!-- Node22&#45;&gt;Node23 -->
<g id="edge26" class="edge">
<title>Node22&#45;&gt;Node23</title>
<path fill="none" stroke="midnightblue" d="M393,-626.63C399.5,-629.68 405.66,-633.42 411,-638 439.07,-662.07 423.19,-684.71 447,-713 460.93,-729.56 480.23,-743.9 497.12,-754.61"/>
<polygon fill="midnightblue" stroke="midnightblue" points="495.33,-757.62 505.69,-759.87 499,-751.65 495.33,-757.62"/>
</g>
<!-- Node28 -->
<g id="node28" class="node">
<title>Node28</title>
<g id="a_node28"><a xlink:href="classkazoo_1_1AudioChannel.html#a97d2202c18916b93bb72b4c540ba75ed" target="_top" xlink:title=" ">
<polygon fill="none" stroke="black" points="475.5,-410 475.5,-440 594.5,-440 594.5,-410 475.5,-410"/>
<text text-anchor="start" x="483.5" y="-428" font-family="Helvetica,sans-Serif" font-size="10.00">kazoo::AudioChannel</text>
<text text-anchor="middle" x="535" y="-417" font-family="Helvetica,sans-Serif" font-size="10.00">::getNumSamples</text>
</a>
</g>
</g>
<!-- Node22&#45;&gt;Node28 -->
<g id="edge32" class="edge">
<title>Node22&#45;&gt;Node28</title>
<path fill="none" stroke="midnightblue" d="M393.1,-601.59C399.74,-598.36 405.91,-594.24 411,-589 455.45,-543.21 402.47,-495.72 447,-450 452.28,-444.58 458.64,-440.32 465.51,-436.96"/>
<polygon fill="midnightblue" stroke="midnightblue" points="467.25,-440.03 475.11,-432.93 464.54,-433.58 467.25,-440.03"/>
</g>
<!-- Node24 -->
<g id="node24" class="node">
<title>Node24</title>
<g id="a_node24"><a xlink:href="classkazoo_1_1Encoder.html#ab775a959f5c94f1ca28e38cebacaf4c5" target="_top" xlink:title="Adds a preamble to the audio channel to help with synchronization.">
<polygon fill="none" stroke="black" points="659,-721.5 659,-740.5 837,-740.5 837,-721.5 659,-721.5"/>
<text text-anchor="middle" x="748" y="-728.5" font-family="Helvetica,sans-Serif" font-size="10.00">kazoo::Encoder::encodePreamble</text>
</a>
</g>
</g>
<!-- Node23&#45;&gt;Node24 -->
<g id="edge27" class="edge">
<title>Node23&#45;&gt;Node24</title>
<path fill="none" stroke="midnightblue" d="M608.02,-759.98C635.32,-754.29 665.95,-747.9 691.5,-742.57"/>
<polygon fill="midnightblue" stroke="midnightblue" points="692.31,-745.98 701.38,-740.51 690.88,-739.13 692.31,-745.98"/>
</g>
<!-- Node25 -->
<g id="node25" class="node">
<title>Node25</title>
<g id="a_node25"><a xlink:href="classkazoo_1_1ISymbolModel.html#a093bf25697e9c33e5f0fb1373e602594" target="_top" xlink:title=" ">
<polygon fill="none" stroke="black" points="687.5,-848 687.5,-878 808.5,-878 808.5,-848 687.5,-848"/>
<text text-anchor="start" x="695.5" y="-866" font-family="Helvetica,sans-Serif" font-size="10.00">kazoo::ISymbolModel</text>
<text text-anchor="middle" x="748" y="-855" font-family="Helvetica,sans-Serif" font-size="10.00">::encodeSymbol</text>
</a>
</g>
</g>
<!-- Node23&#45;&gt;Node25 -->
<g id="edge28" class="edge">
<title>Node23&#45;&gt;Node25</title>
<path fill="none" stroke="midnightblue" d="M561.7,-790.05C586.12,-803.89 624.17,-824.29 659,-838 665.16,-840.42 671.64,-842.72 678.18,-844.87"/>
<polygon fill="midnightblue" stroke="midnightblue" points="677.18,-848.22 687.77,-847.9 679.29,-841.55 677.18,-848.22"/>
</g>
<!-- Node26 -->
<g id="node26" class="node">
<title>Node26</title>
<g id="a_node26"><a xlink:href="classkazoo_1_1Encoder.html#a365c15beddddcda0de58e96087997e1f" target="_top" xlink:title=" ">
<polygon fill="none" stroke="black" points="674,-809.5 674,-828.5 822,-828.5 822,-809.5 674,-809.5"/>
<text text-anchor="middle" x="748" y="-816.5" font-family="Helvetica,sans-Serif" font-size="10.00">kazoo::Encoder::encodeTail</text>
</a>
</g>
</g>
<!-- Node23&#45;&gt;Node26 -->
<g id="edge29" class="edge">
<title>Node23&#45;&gt;Node26</title>
<path fill="none" stroke="midnightblue" d="M608.02,-790.02C635.32,-795.71 665.95,-802.1 691.5,-807.43"/>
<polygon fill="midnightblue" stroke="midnightblue" points="690.88,-810.87 701.38,-809.49 692.31,-804.02 690.88,-810.87"/>
</g>
<!-- Node27 -->
<g id="node27" class="node">
<title>Node27</title>
<g id="a_node27"><a xlink:href="classkazoo_1_1ISymbolStream.html#a88dbb4b56018e8238e3fe8b1c599c8a4" target="_top" xlink:title=" ">
<polygon fill="none" stroke="black" points="685,-760 685,-790 811,-790 811,-760 685,-760"/>
<text text-anchor="start" x="693" y="-778" font-family="Helvetica,sans-Serif" font-size="10.00">kazoo::ISymbolStream</text>
<text text-anchor="middle" x="748" y="-767" font-family="Helvetica,sans-Serif" font-size="10.00">::popSymbolTokenId</text>
</a>
</g>
</g>
<!-- Node23&#45;&gt;Node27 -->
<g id="edge30" class="edge">
<title>Node23&#45;&gt;Node27</title>
<path fill="none" stroke="midnightblue" d="M623.04,-775C640.24,-775 658.12,-775 674.77,-775"/>
<polygon fill="midnightblue" stroke="midnightblue" points="674.96,-778.5 684.96,-775 674.96,-771.5 674.96,-778.5"/>
</g>
<!-- Node30&#45;&gt;Node21 -->
<g id="edge35" class="edge">
<title>Node30&#45;&gt;Node21</title>
<path fill="none" stroke="midnightblue" d="M348.95,-458.99C371.85,-442.78 410.53,-417.11 447,-401 452.85,-398.42 459.04,-396.02 465.31,-393.82"/>
<polygon fill="midnightblue" stroke="midnightblue" points="466.81,-397.01 475.19,-390.53 464.6,-390.37 466.81,-397.01"/>
</g>
<!-- Node31 -->
<g id="node31" class="node">
<title>Node31</title>
<g id="a_node31"><a xlink:href="classkazoo_1_1PulseAudio_1_1Player.html#abc17fbc9d400e16618a0ae1bab833e4b" target="_top" xlink:title=" ">
<polygon fill="none" stroke="black" points="479.5,-459 479.5,-489 590.5,-489 590.5,-459 479.5,-459"/>
<text text-anchor="start" x="487.5" y="-477" font-family="Helvetica,sans-Serif" font-size="10.00">kazoo::PulseAudio::</text>
<text text-anchor="middle" x="535" y="-466" font-family="Helvetica,sans-Serif" font-size="10.00">Player::play</text>
</a>
</g>
</g>
<!-- Node30&#45;&gt;Node31 -->
<g id="edge36" class="edge">
<title>Node30&#45;&gt;Node31</title>
<path fill="none" stroke="midnightblue" d="M393.24,-474C417.43,-474 444.89,-474 469.1,-474"/>
<polygon fill="midnightblue" stroke="midnightblue" points="469.26,-477.5 479.26,-474 469.26,-470.5 469.26,-477.5"/>
</g>
<!-- Node32 -->
<g id="node32" class="node">
<title>Node32</title>
<g id="a_node32"><a xlink:href="classkazoo_1_1IAudioChannel.html#a4cb9127060966e0e53bd6782b9f3413d" target="_top" xlink:title=" ">
<polygon fill="none" stroke="black" points="687,-322 687,-352 809,-352 809,-322 687,-322"/>
<text text-anchor="start" x="695" y="-340" font-family="Helvetica,sans-Serif" font-size="10.00">kazoo::IAudioChannel</text>
<text text-anchor="middle" x="748" y="-329" font-family="Helvetica,sans-Serif" font-size="10.00">::getSamplesRef</text>
</a>
</g>
</g>
<!-- Node31&#45;&gt;Node32 -->
<g id="edge37" class="edge">
<title>Node31&#45;&gt;Node32</title>
<path fill="none" stroke="midnightblue" d="M590.89,-466.95C602.51,-463.37 613.98,-458.01 623,-450 654.61,-421.95 627.5,-390.17 659,-362 664.45,-357.12 670.79,-353.19 677.52,-350.02"/>
<polygon fill="midnightblue" stroke="midnightblue" points="678.99,-353.21 686.9,-346.16 676.32,-346.74 678.99,-353.21"/>
</g>
<!-- Node34 -->
<g id="node34" class="node">
<title>Node34</title>
<g id="a_node34"><a xlink:href="classkazoo_1_1TranslationLayer.html#aa2783a8a2e4fb8fafa580e3cda27203e" target="_top" xlink:title=" ">
<polygon fill="none" stroke="black" points="262,-224 262,-254 393,-254 393,-224 262,-224"/>
<text text-anchor="start" x="270" y="-242" font-family="Helvetica,sans-Serif" font-size="10.00">kazoo::TranslationLayer</text>
<text text-anchor="middle" x="327.5" y="-231" font-family="Helvetica,sans-Serif" font-size="10.00">::listeningThreadFunc</text>
</a>
</g>
</g>
<!-- Node33&#45;&gt;Node34 -->
<g id="edge39" class="edge">
<title>Node33&#45;&gt;Node34</title>
<path fill="none" stroke="midnightblue" d="M164.49,-355.86C197.09,-332.35 259.96,-286.99 297.07,-260.23"/>
<polygon fill="midnightblue" stroke="midnightblue" points="299.41,-262.86 305.47,-254.17 295.31,-257.18 299.41,-262.86"/>
</g>
<!-- Node34&#45;&gt;Node9 -->
<g id="edge47" class="edge">
<title>Node34&#45;&gt;Node9</title>
<path fill="none" stroke="midnightblue" d="M345.87,-254.07C367.73,-271.95 407.25,-300.74 447,-312 447,-312 837,-312 837,-312 982.66,-330.98 1148.52,-383.52 1230.51,-411.66"/>
<polygon fill="midnightblue" stroke="midnightblue" points="1229.49,-415.01 1240.09,-414.96 1231.78,-408.39 1229.49,-415.01"/>
</g>
<!-- Node34&#45;&gt;Node17 -->
<g id="edge43" class="edge">
<title>Node34&#45;&gt;Node17</title>
<path fill="none" stroke="midnightblue" d="M333.44,-223.82C345.86,-188.46 382.16,-101.07 447,-67 516.25,-30.62 564.42,-15.16 623,-67 721.58,-154.25 573.4,-260.99 659,-361 664.57,-367.5 671.69,-372.38 679.47,-376.02"/>
<polygon fill="midnightblue" stroke="midnightblue" points="678.26,-379.31 688.85,-379.75 680.85,-372.8 678.26,-379.31"/>
</g>
<!-- Node34&#45;&gt;Node21 -->
<g id="edge41" class="edge">
<title>Node34&#45;&gt;Node21</title>
<path fill="none" stroke="midnightblue" d="M341.59,-254.22C361.99,-277.09 403.56,-320.36 447,-346 454.04,-350.16 461.75,-353.85 469.57,-357.1"/>
<polygon fill="midnightblue" stroke="midnightblue" points="468.54,-360.46 479.13,-360.85 471.09,-353.94 468.54,-360.46"/>
</g>
<!-- Node34&#45;&gt;Node28 -->
<g id="edge45" class="edge">
<title>Node34&#45;&gt;Node28</title>
<path fill="none" stroke="midnightblue" d="M335.25,-254.14C350.38,-286.33 390.22,-361.8 447,-401 452.72,-404.95 459.07,-408.25 465.65,-411.01"/>
<polygon fill="midnightblue" stroke="midnightblue" points="464.84,-414.44 475.43,-414.67 467.3,-407.88 464.84,-414.44"/>
</g>
<!-- Node35 -->
<g id="node35" class="node">
<title>Node35</title>
<g id="a_node35"><a xlink:href="classkazoo_1_1AudioChannel.html#aa2791ad2274b523a480f2010df2e71d2" target="_top" xlink:title=" ">
<polygon fill="none" stroke="black" points="475.5,-224 475.5,-254 594.5,-254 594.5,-224 475.5,-224"/>
<text text-anchor="start" x="483.5" y="-242" font-family="Helvetica,sans-Serif" font-size="10.00">kazoo::AudioChannel</text>
<text text-anchor="middle" x="535" y="-231" font-family="Helvetica,sans-Serif" font-size="10.00">::addSamples</text>
</a>
</g>
</g>
<!-- Node34&#45;&gt;Node35 -->
<g id="edge40" class="edge">
<title>Node34&#45;&gt;Node35</title>
<path fill="none" stroke="midnightblue" d="M393.24,-239C416.09,-239 441.87,-239 465.06,-239"/>
<polygon fill="midnightblue" stroke="midnightblue" points="465.16,-242.5 475.16,-239 465.16,-235.5 465.16,-242.5"/>
</g>
<!-- Node36 -->
<g id="node36" class="node">
<title>Node36</title>
<g id="a_node36"><a xlink:href="classkazoo_1_1ISymbolModel.html#a2c41b4fca45a1bb19613435c92fb91d4" target="_top" xlink:title=" ">
<polygon fill="none" stroke="black" points="466,-175 466,-205 604,-205 604,-175 466,-175"/>
<text text-anchor="start" x="474" y="-193" font-family="Helvetica,sans-Serif" font-size="10.00">kazoo::ISymbolModel</text>
<text text-anchor="middle" x="535" y="-182" font-family="Helvetica,sans-Serif" font-size="10.00">::decodeAudioToSymbols</text>
</a>
</g>
</g>
<!-- Node34&#45;&gt;Node36 -->
<g id="edge42" class="edge">
<title>Node34&#45;&gt;Node36</title>
<path fill="none" stroke="midnightblue" d="M391.55,-223.97C413.55,-218.72 438.41,-212.79 461.13,-207.37"/>
<polygon fill="midnightblue" stroke="midnightblue" points="462.15,-210.73 471.07,-205.01 460.53,-203.92 462.15,-210.73"/>
</g>
<!-- Node37 -->
<g id="node37" class="node">
<title>Node37</title>
<g id="a_node37"><a xlink:href="classkazoo_1_1ISymbolStream.html#a9e3b2b62a64109d782aa7746041e7e95" target="_top" xlink:title=" ">
<polygon fill="none" stroke="black" points="472,-126 472,-156 598,-156 598,-126 472,-126"/>
<text text-anchor="start" x="480" y="-144" font-family="Helvetica,sans-Serif" font-size="10.00">kazoo::ISymbolStream</text>
<text text-anchor="middle" x="535" y="-133" font-family="Helvetica,sans-Serif" font-size="10.00">::getNumBytes</text>
</a>
</g>
</g>
<!-- Node34&#45;&gt;Node37 -->
<g id="edge44" class="edge">
<title>Node34&#45;&gt;Node37</title>
<path fill="none" stroke="midnightblue" d="M348.47,-223.99C371.25,-207.5 410.13,-181.19 447,-165 451.93,-162.83 457.11,-160.82 462.37,-158.95"/>
<polygon fill="midnightblue" stroke="midnightblue" points="463.55,-162.25 471.91,-155.75 461.32,-155.61 463.55,-162.25"/>
</g>
<!-- Node38 -->
<g id="node38" class="node">
<title>Node38</title>
<g id="a_node38"><a xlink:href="classkazoo_1_1TranslationLayer.html#aac2f32faef9d2ffa8f3a28bf58844ba6" target="_top" xlink:title=" ">
<polygon fill="none" stroke="black" points="468.5,-77 468.5,-107 601.5,-107 601.5,-77 468.5,-77"/>
<text text-anchor="start" x="476.5" y="-95" font-family="Helvetica,sans-Serif" font-size="10.00">kazoo::TranslationLayer</text>
<text text-anchor="middle" x="535" y="-84" font-family="Helvetica,sans-Serif" font-size="10.00">::getStaticSymbolModel</text>
</a>
</g>
</g>
<!-- Node34&#45;&gt;Node38 -->
<g id="edge46" class="edge">
<title>Node34&#45;&gt;Node38</title>
<path fill="none" stroke="midnightblue" d="M339,-223.61C357.64,-197.47 399.09,-144.5 447,-116 450.81,-113.73 454.85,-111.67 459.01,-109.8"/>
<polygon fill="midnightblue" stroke="midnightblue" points="460.36,-113.03 468.28,-106 457.7,-106.55 460.36,-113.03"/>
</g>
<!-- Node39 -->
<g id="node39" class="node">
<title>Node39</title>
<g id="a_node39"><a xlink:href="classkazoo_1_1BinaryStream.html#a8d303f53784202d1d75b360075093ffb" target="_top" xlink:title="If the last element is being used as a bit buffer, this will fill the remaining bits until the stream...">
<polygon fill="none" stroke="black" points="464,-0.5 464,-19.5 606,-19.5 606,-0.5 464,-0.5"/>
<text text-anchor="middle" x="535" y="-7.5" font-family="Helvetica,sans-Serif" font-size="10.00">kazoo::BinaryStream::pad</text>
</a>
</g>
</g>
<!-- Node34&#45;&gt;Node39 -->
<g id="edge48" class="edge">
<title>Node34&#45;&gt;Node39</title>
<path fill="none" stroke="midnightblue" d="M332.8,-223.97C344.44,-185.99 380.32,-85.53 447,-34 452.5,-29.75 458.7,-26.25 465.2,-23.38"/>
<polygon fill="midnightblue" stroke="midnightblue" points="466.85,-26.49 474.89,-19.59 464.3,-19.97 466.85,-26.49"/>
</g>
<!-- Node41 -->
<g id="node41" class="node">
<title>Node41</title>
<g id="a_node41"><a xlink:href="classkazoo_1_1ISymbolStream.html#a6dd43cbf09e35b93f95b1d3ad2bc7f0a" target="_top" xlink:title=" ">
<polygon fill="none" stroke="black" points="469,-273 469,-303 601,-303 601,-273 469,-273"/>
<text text-anchor="start" x="477" y="-291" font-family="Helvetica,sans-Serif" font-size="10.00">kazoo::ISymbolStream</text>
<text text-anchor="middle" x="535" y="-280" font-family="Helvetica,sans-Serif" font-size="10.00">::populateBinaryStream</text>
</a>
</g>
</g>
<!-- Node34&#45;&gt;Node41 -->
<g id="edge51" class="edge">
<title>Node34&#45;&gt;Node41</title>
<path fill="none" stroke="midnightblue" d="M391.55,-254.03C413.55,-259.28 438.41,-265.21 461.13,-270.63"/>
<polygon fill="midnightblue" stroke="midnightblue" points="460.53,-274.08 471.07,-272.99 462.15,-267.27 460.53,-274.08"/>
</g>
<!-- Node39&#45;&gt;Node9 -->
<g id="edge50" class="edge">
<title>Node39&#45;&gt;Node9</title>
<path fill="none" stroke="midnightblue" d="M606.3,-3.74C668.73,-0.66 761.5,-2.21 837,-29 1017.5,-93.05 1056.84,-139.43 1188,-279 1224.83,-318.19 1255.05,-373.94 1270.61,-405.58"/>
<polygon fill="midnightblue" stroke="midnightblue" points="1267.64,-407.47 1275.14,-414.96 1273.94,-404.43 1267.64,-407.47"/>
</g>
<!-- Node40 -->
<g id="node40" class="node">
<title>Node40</title>
<g id="a_node40"><a xlink:href="classkazoo_1_1BinaryStream.html#ad6187750dbcd6ae38948b5c267740bf6" target="_top" xlink:title=" ">
<polygon fill="none" stroke="black" points="689,-39 689,-69 807,-69 807,-39 689,-39"/>
<text text-anchor="start" x="697" y="-57" font-family="Helvetica,sans-Serif" font-size="10.00">kazoo::BinaryStream</text>
<text text-anchor="middle" x="748" y="-46" font-family="Helvetica,sans-Serif" font-size="10.00">::addBit</text>
</a>
</g>
</g>
<!-- Node39&#45;&gt;Node40 -->
<g id="edge49" class="edge">
<title>Node39&#45;&gt;Node40</title>
<path fill="none" stroke="midnightblue" d="M581.78,-19.55C610.11,-25.45 647,-33.15 678.73,-39.76"/>
<polygon fill="midnightblue" stroke="midnightblue" points="678.34,-43.26 688.84,-41.87 679.76,-36.4 678.34,-43.26"/>
</g>
</g>
</svg>
