<?xml version="1.0" encoding="UTF-8" standalone="no"?>
<!DOCTYPE svg PUBLIC "-//W3C//DTD SVG 1.1//EN"
 "http://www.w3.org/Graphics/SVG/1.1/DTD/svg11.dtd">
<!-- Generated by graphviz version 2.43.0 (0)
 -->
<!-- Title: httpServerThread Pages: 1 -->
<svg width="621pt" height="299pt"
 viewBox="0.00 0.00 621.00 299.00" xmlns="http://www.w3.org/2000/svg" xmlns:xlink="http://www.w3.org/1999/xlink">
<g id="graph0" class="graph" transform="scale(1 1) rotate(0) translate(4 295)">
<title>httpServerThread</title>
<!-- Node1 -->
<g id="node1" class="node">
<title>Node1</title>
<g id="a_node1"><a xlink:title="One of the HTTP servers of all time.">
<polygon fill="#bfbfbf" stroke="black" points="0,-144 0,-163 101,-163 101,-144 0,-144"/>
<text text-anchor="middle" x="50.5" y="-151" font-family="Helvetica,sans-Serif" font-size="10.00">httpServerThread</text>
</a>
</g>
</g>
<!-- Node2 -->
<g id="node2" class="node">
<title>Node2</title>
<g id="a_node2"><a xlink:href="classsock_1_1TcpSocketServer.html#aa91cc33c0c09dda547003646f3e7d327" target="_top" xlink:title=" ">
<polygon fill="none" stroke="black" points="151.5,-242.5 151.5,-272.5 276.5,-272.5 276.5,-242.5 151.5,-242.5"/>
<text text-anchor="start" x="159.5" y="-260.5" font-family="Helvetica,sans-Serif" font-size="10.00">sock::TcpSocketServer</text>
<text text-anchor="middle" x="214" y="-249.5" font-family="Helvetica,sans-Serif" font-size="10.00">::accept</text>
</a>
</g>
</g>
<!-- Node1&#45;&gt;Node2 -->
<g id="edge1" class="edge">
<title>Node1&#45;&gt;Node2</title>
<path fill="none" stroke="midnightblue" d="M59.46,-163.18C73.49,-179.66 104.25,-213.23 137,-232.5 140.64,-234.64 144.48,-236.62 148.43,-238.46"/>
<polygon fill="midnightblue" stroke="midnightblue" points="147.22,-241.75 157.79,-242.47 149.98,-235.32 147.22,-241.75"/>
</g>
<!-- Node3 -->
<g id="node3" class="node">
<title>Node3</title>
<g id="a_node3"><a xlink:href="src_2kazoo__connect__server_2main_8cpp.html#ab8adfe08b9b3b427549c6ee8309e783b" target="_top" xlink:title=" ">
<polygon fill="none" stroke="black" points="190.5,-204 190.5,-223 237.5,-223 237.5,-204 190.5,-204"/>
<text text-anchor="middle" x="214" y="-211" font-family="Helvetica,sans-Serif" font-size="10.00">debug</text>
</a>
</g>
</g>
<!-- Node1&#45;&gt;Node3 -->
<g id="edge3" class="edge">
<title>Node1&#45;&gt;Node3</title>
<path fill="none" stroke="midnightblue" d="M68.74,-163.05C85.7,-172.13 112.53,-185.68 137,-194.5 150.97,-199.54 166.84,-203.73 180.46,-206.89"/>
<polygon fill="midnightblue" stroke="midnightblue" points="179.84,-210.34 190.36,-209.1 181.36,-203.5 179.84,-210.34"/>
</g>
<!-- Node4 -->
<g id="node4" class="node">
<title>Node4</title>
<g id="a_node4"><a xlink:href="structHttpResponse.html#a36a04f0570e38cdb9fb66173ab24a338" target="_top" xlink:title=" ">
<polygon fill="none" stroke="black" points="137,-166 137,-185 291,-185 291,-166 137,-166"/>
<text text-anchor="middle" x="214" y="-173" font-family="Helvetica,sans-Serif" font-size="10.00">HttpResponse::getResponse</text>
</a>
</g>
</g>
<!-- Node1&#45;&gt;Node4 -->
<g id="edge4" class="edge">
<title>Node1&#45;&gt;Node4</title>
<path fill="none" stroke="midnightblue" d="M101.27,-160.28C111.42,-161.66 122.34,-163.15 133.23,-164.63"/>
<polygon fill="midnightblue" stroke="midnightblue" points="132.82,-168.11 143.2,-165.99 133.77,-161.17 132.82,-168.11"/>
</g>
<!-- Node5 -->
<g id="node5" class="node">
<title>Node5</title>
<g id="a_node5"><a xlink:href="classsock_1_1TcpSocketServer.html#ae131e7d5b2827144d018f1482ab316cc" target="_top" xlink:title=" ">
<polygon fill="none" stroke="black" points="151.5,-116.5 151.5,-146.5 276.5,-146.5 276.5,-116.5 151.5,-116.5"/>
<text text-anchor="start" x="159.5" y="-134.5" font-family="Helvetica,sans-Serif" font-size="10.00">sock::TcpSocketServer</text>
<text text-anchor="middle" x="214" y="-123.5" font-family="Helvetica,sans-Serif" font-size="10.00">::init</text>
</a>
</g>
</g>
<!-- Node1&#45;&gt;Node5 -->
<g id="edge5" class="edge">
<title>Node1&#45;&gt;Node5</title>
<path fill="none" stroke="midnightblue" d="M101.27,-146.72C113.9,-145 127.72,-143.12 141.21,-141.28"/>
<polygon fill="midnightblue" stroke="midnightblue" points="141.99,-144.71 151.43,-139.89 141.05,-137.77 141.99,-144.71"/>
</g>
<!-- Node10 -->
<g id="node10" class="node">
<title>Node10</title>
<g id="a_node10"><a xlink:href="classsock_1_1TcpSocketServer.html#a6fc4ac999c586de6a35105dcbf431c51" target="_top" xlink:title=" ">
<polygon fill="none" stroke="black" points="151.5,-67.5 151.5,-97.5 276.5,-97.5 276.5,-67.5 151.5,-67.5"/>
<text text-anchor="start" x="159.5" y="-85.5" font-family="Helvetica,sans-Serif" font-size="10.00">sock::TcpSocketServer</text>
<text text-anchor="middle" x="214" y="-74.5" font-family="Helvetica,sans-Serif" font-size="10.00">::receive</text>
</a>
</g>
</g>
<!-- Node1&#45;&gt;Node10 -->
<g id="edge14" class="edge">
<title>Node1&#45;&gt;Node10</title>
<path fill="none" stroke="midnightblue" d="M66.79,-143.89C83.55,-133.64 111.46,-117.43 137,-106.5 141.46,-104.59 146.12,-102.76 150.84,-101.01"/>
<polygon fill="midnightblue" stroke="midnightblue" points="152.33,-104.2 160.58,-97.56 149.99,-97.6 152.33,-104.2"/>
</g>
<!-- Node11 -->
<g id="node11" class="node">
<title>Node11</title>
<g id="a_node11"><a xlink:href="classsock_1_1TcpSocketServer.html#a2ba563269dbbac1c345bf7363792e5bf" target="_top" xlink:title=" ">
<polygon fill="none" stroke="black" points="151.5,-0.5 151.5,-30.5 276.5,-30.5 276.5,-0.5 151.5,-0.5"/>
<text text-anchor="start" x="159.5" y="-18.5" font-family="Helvetica,sans-Serif" font-size="10.00">sock::TcpSocketServer</text>
<text text-anchor="middle" x="214" y="-7.5" font-family="Helvetica,sans-Serif" font-size="10.00">::send</text>
</a>
</g>
</g>
<!-- Node1&#45;&gt;Node11 -->
<g id="edge15" class="edge">
<title>Node1&#45;&gt;Node11</title>
<path fill="none" stroke="midnightblue" d="M58.37,-143.8C71.84,-125.3 103.35,-84.38 137,-57.5 147.32,-49.26 159.47,-41.74 171,-35.42"/>
<polygon fill="midnightblue" stroke="midnightblue" points="172.86,-38.39 180.06,-30.61 169.58,-32.2 172.86,-38.39"/>
</g>
<!-- Node2&#45;&gt;Node2 -->
<g id="edge2" class="edge">
<title>Node2&#45;&gt;Node2</title>
<path fill="none" stroke="midnightblue" d="M185.77,-272.66C178.96,-282.06 188.37,-291 214,-291 229.62,-291 239.21,-287.68 242.79,-282.96"/>
<polygon fill="midnightblue" stroke="midnightblue" points="246.26,-282.46 242.23,-272.66 239.27,-282.83 246.26,-282.46"/>
</g>
<!-- Node6 -->
<g id="node6" class="node">
<title>Node6</title>
<g id="a_node6"><a xlink:href="classsock_1_1TcpSocketServer.html#a1837852a28a16b70332eca99ecc4dec6" target="_top" xlink:title=" ">
<polygon fill="none" stroke="black" points="327,-165.5 327,-195.5 452,-195.5 452,-165.5 327,-165.5"/>
<text text-anchor="start" x="335" y="-183.5" font-family="Helvetica,sans-Serif" font-size="10.00">sock::TcpSocketServer</text>
<text text-anchor="middle" x="389.5" y="-172.5" font-family="Helvetica,sans-Serif" font-size="10.00">::bind</text>
</a>
</g>
</g>
<!-- Node5&#45;&gt;Node6 -->
<g id="edge6" class="edge">
<title>Node5&#45;&gt;Node6</title>
<path fill="none" stroke="midnightblue" d="M268.47,-146.6C286.53,-151.7 306.86,-157.44 325.58,-162.73"/>
<polygon fill="midnightblue" stroke="midnightblue" points="324.63,-166.1 335.21,-165.45 326.53,-159.36 324.63,-166.1"/>
</g>
<!-- Node8 -->
<g id="node8" class="node">
<title>Node8</title>
<g id="a_node8"><a xlink:href="classsock_1_1TcpSocketServer.html#a5addbd19e4629d878f07eb6fad51ed6d" target="_top" xlink:title=" ">
<polygon fill="none" stroke="black" points="327,-116.5 327,-146.5 452,-146.5 452,-116.5 327,-116.5"/>
<text text-anchor="start" x="335" y="-134.5" font-family="Helvetica,sans-Serif" font-size="10.00">sock::TcpSocketServer</text>
<text text-anchor="middle" x="389.5" y="-123.5" font-family="Helvetica,sans-Serif" font-size="10.00">::create</text>
</a>
</g>
</g>
<!-- Node5&#45;&gt;Node8 -->
<g id="edge9" class="edge">
<title>Node5&#45;&gt;Node8</title>
<path fill="none" stroke="midnightblue" d="M276.66,-131.5C289.62,-131.5 303.4,-131.5 316.7,-131.5"/>
<polygon fill="midnightblue" stroke="midnightblue" points="316.75,-135 326.75,-131.5 316.75,-128 316.75,-135"/>
</g>
<!-- Node9 -->
<g id="node9" class="node">
<title>Node9</title>
<g id="a_node9"><a xlink:href="classsock_1_1TcpSocketServer.html#aeedccb9e66f6b88db487d21d88b39800" target="_top" xlink:title=" ">
<polygon fill="none" stroke="black" points="327,-49.5 327,-79.5 452,-79.5 452,-49.5 327,-49.5"/>
<text text-anchor="start" x="335" y="-67.5" font-family="Helvetica,sans-Serif" font-size="10.00">sock::TcpSocketServer</text>
<text text-anchor="middle" x="389.5" y="-56.5" font-family="Helvetica,sans-Serif" font-size="10.00">::listen</text>
</a>
</g>
</g>
<!-- Node5&#45;&gt;Node9 -->
<g id="edge11" class="edge">
<title>Node5&#45;&gt;Node9</title>
<path fill="none" stroke="midnightblue" d="M263.07,-116.41C272.39,-113.28 282.04,-109.9 291,-106.5 309.15,-99.62 328.87,-91.29 345.8,-83.87"/>
<polygon fill="midnightblue" stroke="midnightblue" points="347.68,-86.87 355.41,-79.63 344.85,-80.47 347.68,-86.87"/>
</g>
<!-- Node6&#45;&gt;Node6 -->
<g id="edge7" class="edge">
<title>Node6&#45;&gt;Node6</title>
<path fill="none" stroke="midnightblue" d="M361.62,-195.66C354.89,-205.06 364.19,-214 389.5,-214 404.92,-214 414.4,-210.68 417.93,-205.96"/>
<polygon fill="midnightblue" stroke="midnightblue" points="421.41,-205.46 417.38,-195.66 414.42,-205.83 421.41,-205.46"/>
</g>
<!-- Node7 -->
<g id="node7" class="node">
<title>Node7</title>
<g id="a_node7"><a xlink:href="classsock_1_1TcpSocketServer.html#a67fd24b7ac134d195a0c0bb112834602" target="_top" xlink:title=" ">
<polygon fill="none" stroke="black" points="488,-116.5 488,-146.5 613,-146.5 613,-116.5 488,-116.5"/>
<text text-anchor="start" x="496" y="-134.5" font-family="Helvetica,sans-Serif" font-size="10.00">sock::TcpSocketServer</text>
<text text-anchor="middle" x="550.5" y="-123.5" font-family="Helvetica,sans-Serif" font-size="10.00">::isValid</text>
</a>
</g>
</g>
<!-- Node6&#45;&gt;Node7 -->
<g id="edge8" class="edge">
<title>Node6&#45;&gt;Node7</title>
<path fill="none" stroke="midnightblue" d="M439.5,-165.4C455.75,-160.39 474,-154.77 490.89,-149.56"/>
<polygon fill="midnightblue" stroke="midnightblue" points="492.13,-152.84 500.66,-146.55 490.07,-146.15 492.13,-152.84"/>
</g>
<!-- Node8&#45;&gt;Node7 -->
<g id="edge10" class="edge">
<title>Node8&#45;&gt;Node7</title>
<path fill="none" stroke="midnightblue" d="M452.43,-131.5C460.67,-131.5 469.18,-131.5 477.58,-131.5"/>
<polygon fill="midnightblue" stroke="midnightblue" points="477.74,-135 487.74,-131.5 477.74,-128 477.74,-135"/>
</g>
<!-- Node9&#45;&gt;Node7 -->
<g id="edge12" class="edge">
<title>Node9&#45;&gt;Node7</title>
<path fill="none" stroke="midnightblue" d="M426.18,-79.54C449.22,-89.24 479.39,-101.96 504.13,-112.38"/>
<polygon fill="midnightblue" stroke="midnightblue" points="503.09,-115.74 513.66,-116.4 505.81,-109.29 503.09,-115.74"/>
</g>
<!-- Node9&#45;&gt;Node9 -->
<g id="edge13" class="edge">
<title>Node9&#45;&gt;Node9</title>
<path fill="none" stroke="midnightblue" d="M361.62,-79.66C354.89,-89.06 364.19,-98 389.5,-98 404.92,-98 414.4,-94.68 417.93,-89.96"/>
<polygon fill="midnightblue" stroke="midnightblue" points="421.41,-89.46 417.38,-79.66 414.42,-89.83 421.41,-89.46"/>
</g>
<!-- Node11&#45;&gt;Node11 -->
<g id="edge16" class="edge">
<title>Node11&#45;&gt;Node11</title>
<path fill="none" stroke="midnightblue" d="M185.77,-30.66C178.96,-40.06 188.37,-49 214,-49 229.62,-49 239.21,-45.68 242.79,-40.96"/>
<polygon fill="midnightblue" stroke="midnightblue" points="246.26,-40.46 242.23,-30.66 239.27,-40.83 246.26,-40.46"/>
</g>
</g>
</svg>
