<?xml version="1.0" encoding="UTF-8" standalone="no"?>
<!DOCTYPE svg PUBLIC "-//W3C//DTD SVG 1.1//EN"
 "http://www.w3.org/Graphics/SVG/1.1/DTD/svg11.dtd">
<!-- Generated by graphviz version 2.43.0 (0)
 -->
<!-- Title: kazoo::EncoderContext Pages: 1 -->
<svg width="261pt" height="171pt"
 viewBox="0.00 0.00 261.00 171.00" xmlns="http://www.w3.org/2000/svg" xmlns:xlink="http://www.w3.org/1999/xlink">
<g id="graph0" class="graph" transform="scale(1 1) rotate(0) translate(4 167)">
<title>kazoo::EncoderContext</title>
<!-- Node1 -->
<g id="node1" class="node">
<title>Node1</title>
<g id="a_node1"><a xlink:title="Encoder context, used to store state information be.">
<polygon fill="#bfbfbf" stroke="black" points="12,-0.5 12,-57.5 140,-57.5 140,-0.5 12,-0.5"/>
<text text-anchor="middle" x="76" y="-45.5" font-family="Helvetica,sans-Serif" font-size="10.00">kazoo::EncoderContext</text>
<polyline fill="none" stroke="black" points="12,-38.5 140,-38.5 "/>
<text text-anchor="middle" x="76" y="-26.5" font-family="Helvetica,sans-Serif" font-size="10.00"> </text>
<polyline fill="none" stroke="black" points="12,-19.5 140,-19.5 "/>
<text text-anchor="middle" x="76" y="-7.5" font-family="Helvetica,sans-Serif" font-size="10.00"> </text>
</a>
</g>
</g>
<!-- Node2 -->
<g id="node2" class="node">
<title>Node2</title>
<g id="a_node2"><a xlink:title=" ">
<polygon fill="none" stroke="black" points="0,-105.5 0,-162.5 50,-162.5 50,-105.5 0,-105.5"/>
<text text-anchor="middle" x="25" y="-150.5" font-family="Helvetica,sans-Serif" font-size="10.00">double</text>
<polyline fill="none" stroke="black" points="0,-143.5 50,-143.5 "/>
<text text-anchor="middle" x="25" y="-131.5" font-family="Helvetica,sans-Serif" font-size="10.00"> </text>
<polyline fill="none" stroke="black" points="0,-124.5 50,-124.5 "/>
<text text-anchor="middle" x="25" y="-112.5" font-family="Helvetica,sans-Serif" font-size="10.00"> </text>
</a>
</g>
</g>
<!-- Node2&#45;&gt;Node1 -->
<g id="edge1" class="edge">
<title>Node2&#45;&gt;Node1</title>
<path fill="none" stroke="#404040" d="M27.36,-105.39C28.94,-95.74 31.59,-85.06 36,-76 37.43,-73.07 39.09,-70.18 40.91,-67.36"/>
<polygon fill="none" stroke="#404040" points="41.01,-67.22 41.3,-60.02 48.07,-57.52 47.77,-64.72 41.01,-67.22"/>
<text text-anchor="middle" x="71" y="-79" font-family="Helvetica,sans-Serif" font-size="10.00"> +wave_angle</text>
</g>
<!-- Node3 -->
<g id="node3" class="node">
<title>Node3</title>
<g id="a_node3"><a xlink:title=" ">
<polygon fill="none" stroke="black" points="68.5,-105.5 68.5,-162.5 187.5,-162.5 187.5,-105.5 68.5,-105.5"/>
<text text-anchor="middle" x="128" y="-150.5" font-family="Helvetica,sans-Serif" font-size="10.00">optional&lt; uint32_t &gt;</text>
<polyline fill="none" stroke="black" points="68.5,-143.5 187.5,-143.5 "/>
<text text-anchor="middle" x="128" y="-131.5" font-family="Helvetica,sans-Serif" font-size="10.00"> </text>
<polyline fill="none" stroke="black" points="68.5,-124.5 187.5,-124.5 "/>
<text text-anchor="middle" x="128" y="-112.5" font-family="Helvetica,sans-Serif" font-size="10.00"> </text>
</a>
</g>
</g>
<!-- Node3&#45;&gt;Node1 -->
<g id="edge2" class="edge">
<title>Node3&#45;&gt;Node1</title>
<path fill="none" stroke="#404040" d="M118.62,-105.24C115.07,-95.78 110.74,-85.25 106,-76 104.68,-73.42 103.25,-70.81 101.76,-68.2"/>
<polygon fill="none" stroke="#404040" points="101.59,-67.92 95.06,-64.86 95.37,-57.66 101.9,-60.72 101.59,-67.92"/>
<text text-anchor="middle" x="182" y="-79" font-family="Helvetica,sans-Serif" font-size="10.00"> +previous_symbol_token_id</text>
</g>
</g>
</svg>
