<?xml version="1.0" encoding="UTF-8" standalone="no"?>
<!DOCTYPE svg PUBLIC "-//W3C//DTD SVG 1.1//EN"
 "http://www.w3.org/Graphics/SVG/1.1/DTD/svg11.dtd">
<!-- Generated by graphviz version 2.43.0 (0)
 -->
<!-- Title: kazoo::TranslationLayer::Stats Pages: 1 -->
<svg width="611pt" height="259pt"
 viewBox="0.00 0.00 610.50 259.00" xmlns="http://www.w3.org/2000/svg" xmlns:xlink="http://www.w3.org/1999/xlink">
<g id="graph0" class="graph" transform="scale(1 1) rotate(0) translate(4 255)">
<title>kazoo::TranslationLayer::Stats</title>
<!-- Node1 -->
<g id="node1" class="node">
<title>Node1</title>
<g id="a_node1"><a xlink:title=" ">
<polygon fill="#bfbfbf" stroke="black" points="184,-0.5 184,-68.5 315,-68.5 315,-0.5 184,-0.5"/>
<text text-anchor="start" x="192" y="-56.5" font-family="Helvetica,sans-Serif" font-size="10.00">kazoo::TranslationLayer</text>
<text text-anchor="middle" x="249.5" y="-45.5" font-family="Helvetica,sans-Serif" font-size="10.00">::Stats</text>
<polyline fill="none" stroke="black" points="184,-38.5 315,-38.5 "/>
<text text-anchor="middle" x="249.5" y="-26.5" font-family="Helvetica,sans-Serif" font-size="10.00"> </text>
<polyline fill="none" stroke="black" points="184,-19.5 315,-19.5 "/>
<text text-anchor="middle" x="249.5" y="-7.5" font-family="Helvetica,sans-Serif" font-size="10.00"> </text>
</a>
</g>
</g>
<!-- Node2 -->
<g id="node2" class="node">
<title>Node2</title>
<g id="a_node2"><a xlink:title=" ">
<polygon fill="none" stroke="black" points="0,-193.5 0,-250.5 45,-250.5 45,-193.5 0,-193.5"/>
<text text-anchor="middle" x="22.5" y="-238.5" font-family="Helvetica,sans-Serif" font-size="10.00">size_t</text>
<polyline fill="none" stroke="black" points="0,-231.5 45,-231.5 "/>
<text text-anchor="middle" x="22.5" y="-219.5" font-family="Helvetica,sans-Serif" font-size="10.00"> </text>
<polyline fill="none" stroke="black" points="0,-212.5 45,-212.5 "/>
<text text-anchor="middle" x="22.5" y="-200.5" font-family="Helvetica,sans-Serif" font-size="10.00"> </text>
</a>
</g>
</g>
<!-- Node2&#45;&gt;Node1 -->
<g id="edge1" class="edge">
<title>Node2&#45;&gt;Node1</title>
<path fill="none" stroke="#404040" d="M15.18,-193.42C9.06,-163.63 4.84,-116.48 29.5,-87 47.76,-65.17 116,-51.54 171.69,-43.83"/>
<polygon fill="none" stroke="#404040" points="171.83,-43.81 177.25,-39.05 183.73,-42.23 178.31,-46.98 171.83,-43.81"/>
<text text-anchor="middle" x="89.5" y="-167" font-family="Helvetica,sans-Serif" font-size="10.00"> +audio_samples</text>
<text text-anchor="middle" x="89.5" y="-156" font-family="Helvetica,sans-Serif" font-size="10.00">+num_bytes</text>
<text text-anchor="middle" x="89.5" y="-145" font-family="Helvetica,sans-Serif" font-size="10.00">+num_bytes_encoded</text>
<text text-anchor="middle" x="89.5" y="-134" font-family="Helvetica,sans-Serif" font-size="10.00">+num_bytes_received</text>
<text text-anchor="middle" x="89.5" y="-123" font-family="Helvetica,sans-Serif" font-size="10.00">+num_frames_received</text>
<text text-anchor="middle" x="89.5" y="-112" font-family="Helvetica,sans-Serif" font-size="10.00">+rx_audio_samples</text>
<text text-anchor="middle" x="89.5" y="-101" font-family="Helvetica,sans-Serif" font-size="10.00">+symbols_last_encoded</text>
<text text-anchor="middle" x="89.5" y="-90" font-family="Helvetica,sans-Serif" font-size="10.00">+tx_audio_samples</text>
</g>
<!-- Node3 -->
<g id="node3" class="node">
<title>Node3</title>
<g id="a_node3"><a xlink:title=" ">
<polygon fill="none" stroke="black" points="146.5,-193.5 146.5,-250.5 184.5,-250.5 184.5,-193.5 146.5,-193.5"/>
<text text-anchor="middle" x="165.5" y="-238.5" font-family="Helvetica,sans-Serif" font-size="10.00">bool</text>
<polyline fill="none" stroke="black" points="146.5,-231.5 184.5,-231.5 "/>
<text text-anchor="middle" x="165.5" y="-219.5" font-family="Helvetica,sans-Serif" font-size="10.00"> </text>
<polyline fill="none" stroke="black" points="146.5,-212.5 184.5,-212.5 "/>
<text text-anchor="middle" x="165.5" y="-200.5" font-family="Helvetica,sans-Serif" font-size="10.00"> </text>
</a>
</g>
</g>
<!-- Node3&#45;&gt;Node1 -->
<g id="edge2" class="edge">
<title>Node3&#45;&gt;Node1</title>
<path fill="none" stroke="#404040" d="M158.34,-193.36C152.55,-164.8 148.05,-119.87 166.5,-87 168.91,-82.71 171.83,-78.74 175.13,-75.06"/>
<polygon fill="none" stroke="#404040" points="175.36,-74.83 176.9,-67.79 184,-66.51 182.45,-73.55 175.36,-74.83"/>
<text text-anchor="middle" x="239.5" y="-134" font-family="Helvetica,sans-Serif" font-size="10.00"> +decoded_was_byte_aligned</text>
<text text-anchor="middle" x="239.5" y="-123" font-family="Helvetica,sans-Serif" font-size="10.00">+is_quiet</text>
</g>
<!-- Node4 -->
<g id="node4" class="node">
<title>Node4</title>
<g id="a_node4"><a xlink:title=" ">
<polygon fill="none" stroke="black" points="306.5,-193.5 306.5,-250.5 362.5,-250.5 362.5,-193.5 306.5,-193.5"/>
<text text-anchor="middle" x="334.5" y="-238.5" font-family="Helvetica,sans-Serif" font-size="10.00">uint32_t</text>
<polyline fill="none" stroke="black" points="306.5,-231.5 362.5,-231.5 "/>
<text text-anchor="middle" x="334.5" y="-219.5" font-family="Helvetica,sans-Serif" font-size="10.00"> </text>
<polyline fill="none" stroke="black" points="306.5,-212.5 362.5,-212.5 "/>
<text text-anchor="middle" x="334.5" y="-200.5" font-family="Helvetica,sans-Serif" font-size="10.00"> </text>
</a>
</g>
</g>
<!-- Node4&#45;&gt;Node1 -->
<g id="edge3" class="edge">
<title>Node4&#45;&gt;Node1</title>
<path fill="none" stroke="#404040" d="M335.51,-193.44C335.35,-164.94 331.61,-120.07 312.5,-87 310.65,-83.8 308.52,-80.72 306.19,-77.76"/>
<polygon fill="none" stroke="#404040" points="306.14,-77.7 299.16,-75.9 298.14,-68.76 305.12,-70.56 306.14,-77.7"/>
<text text-anchor="middle" x="400.5" y="-128.5" font-family="Helvetica,sans-Serif" font-size="10.00"> +pulse_audio_latency_ms</text>
</g>
<!-- Node5 -->
<g id="node5" class="node">
<title>Node5</title>
<g id="a_node5"><a xlink:title=" ">
<polygon fill="none" stroke="black" points="464.5,-193.5 464.5,-250.5 514.5,-250.5 514.5,-193.5 464.5,-193.5"/>
<text text-anchor="middle" x="489.5" y="-238.5" font-family="Helvetica,sans-Serif" font-size="10.00">double</text>
<polyline fill="none" stroke="black" points="464.5,-231.5 514.5,-231.5 "/>
<text text-anchor="middle" x="489.5" y="-219.5" font-family="Helvetica,sans-Serif" font-size="10.00"> </text>
<polyline fill="none" stroke="black" points="464.5,-212.5 514.5,-212.5 "/>
<text text-anchor="middle" x="489.5" y="-200.5" font-family="Helvetica,sans-Serif" font-size="10.00"> </text>
</a>
</g>
</g>
<!-- Node5&#45;&gt;Node1 -->
<g id="edge4" class="edge">
<title>Node5&#45;&gt;Node1</title>
<path fill="none" stroke="#404040" d="M493.18,-193.3C495.51,-163.17 494.12,-115.53 467.5,-87 448.42,-66.55 381.93,-52.82 327.35,-44.71"/>
<polygon fill="none" stroke="#404040" points="327.07,-44.67 320.57,-47.78 315.2,-42.97 321.7,-39.86 327.07,-44.67"/>
<text text-anchor="middle" x="548" y="-134" font-family="Helvetica,sans-Serif" font-size="10.00"> +pulse_audio_rms</text>
<text text-anchor="middle" x="548" y="-123" font-family="Helvetica,sans-Serif" font-size="10.00">+pulse_audio_volume</text>
</g>
</g>
</svg>
