<?xml version="1.0" encoding="UTF-8" standalone="no"?>
<!DOCTYPE svg PUBLIC "-//W3C//DTD SVG 1.1//EN"
 "http://www.w3.org/Graphics/SVG/1.1/DTD/svg11.dtd">
<!-- Generated by graphviz version 2.43.0 (0)
 -->
<!-- Title: kazoo::Fft::FftResults Pages: 1 -->
<svg width="593pt" height="342pt"
 viewBox="0.00 0.00 593.00 342.00" xmlns="http://www.w3.org/2000/svg" xmlns:xlink="http://www.w3.org/1999/xlink">
<g id="graph0" class="graph" transform="scale(1 1) rotate(0) translate(4 338)">
<title>kazoo::Fft::FftResults</title>
<!-- Node1 -->
<g id="node1" class="node">
<title>Node1</title>
<g id="a_node1"><a xlink:title=" ">
<polygon fill="#bfbfbf" stroke="black" points="183,-0.5 183,-79.5 323,-79.5 323,-0.5 183,-0.5"/>
<text text-anchor="middle" x="253" y="-67.5" font-family="Helvetica,sans-Serif" font-size="10.00">kazoo::Fft::FftResults</text>
<polyline fill="none" stroke="black" points="183,-60.5 323,-60.5 "/>
<text text-anchor="middle" x="253" y="-48.5" font-family="Helvetica,sans-Serif" font-size="10.00"> </text>
<polyline fill="none" stroke="black" points="183,-41.5 323,-41.5 "/>
<text text-anchor="start" x="191" y="-29.5" font-family="Helvetica,sans-Serif" font-size="10.00">+ getNormalizedPeaks()</text>
<text text-anchor="start" x="191" y="-18.5" font-family="Helvetica,sans-Serif" font-size="10.00">+ reset()</text>
<text text-anchor="start" x="191" y="-7.5" font-family="Helvetica,sans-Serif" font-size="10.00">+ saveResultsToCsvFile()</text>
</a>
</g>
</g>
<!-- Node2 -->
<g id="node2" class="node">
<title>Node2</title>
<g id="a_node2"><a xlink:title=" ">
<polygon fill="none" stroke="black" points="0,-149.5 0,-217.5 132,-217.5 132,-149.5 0,-149.5"/>
<text text-anchor="start" x="8" y="-205.5" font-family="Helvetica,sans-Serif" font-size="10.00">vector&lt; kazoo::Fft</text>
<text text-anchor="middle" x="66" y="-194.5" font-family="Helvetica,sans-Serif" font-size="10.00">::FftResults::FreqAmp &gt;</text>
<polyline fill="none" stroke="black" points="0,-187.5 132,-187.5 "/>
<text text-anchor="middle" x="66" y="-175.5" font-family="Helvetica,sans-Serif" font-size="10.00"> </text>
<polyline fill="none" stroke="black" points="0,-168.5 132,-168.5 "/>
<text text-anchor="middle" x="66" y="-156.5" font-family="Helvetica,sans-Serif" font-size="10.00"> </text>
</a>
</g>
</g>
<!-- Node2&#45;&gt;Node1 -->
<g id="edge1" class="edge">
<title>Node2&#45;&gt;Node1</title>
<path fill="none" stroke="#404040" d="M57.77,-149.47C55.53,-132.52 56.19,-112.45 67,-98 91.02,-65.92 132.73,-51.33 170.58,-44.91"/>
<polygon fill="none" stroke="#404040" points="170.83,-44.88 176.17,-40.03 182.7,-43.1 177.36,-47.95 170.83,-44.88"/>
<text text-anchor="middle" x="126" y="-123" font-family="Helvetica,sans-Serif" font-size="10.00"> +frequency_amplitude</text>
<text text-anchor="start" x="67" y="-112" font-family="Helvetica,sans-Serif" font-size="10.00">+normalized_frequency</text>
<text text-anchor="middle" x="126" y="-101" font-family="Helvetica,sans-Serif" font-size="10.00">_amplitude</text>
</g>
<!-- Node3 -->
<g id="node3" class="node">
<title>Node3</title>
<g id="a_node3"><a xlink:href="structkazoo_1_1Fft_1_1FftResults.html#structkazoo_1_1Fft_1_1FftResults_1_1FreqAmp" target="_top" xlink:title="Frequency/amplitude pair.">
<polygon fill="none" stroke="black" points="335.5,-149.5 335.5,-217.5 454.5,-217.5 454.5,-149.5 335.5,-149.5"/>
<text text-anchor="start" x="343.5" y="-205.5" font-family="Helvetica,sans-Serif" font-size="10.00">kazoo::Fft::FftResults</text>
<text text-anchor="middle" x="395" y="-194.5" font-family="Helvetica,sans-Serif" font-size="10.00">::FreqAmp</text>
<polyline fill="none" stroke="black" points="335.5,-187.5 454.5,-187.5 "/>
<text text-anchor="middle" x="395" y="-175.5" font-family="Helvetica,sans-Serif" font-size="10.00"> </text>
<polyline fill="none" stroke="black" points="335.5,-168.5 454.5,-168.5 "/>
<text text-anchor="middle" x="395" y="-156.5" font-family="Helvetica,sans-Serif" font-size="10.00"> </text>
</a>
</g>
</g>
<!-- Node3&#45;&gt;Node1 -->
<g id="edge2" class="edge">
<title>Node3&#45;&gt;Node1</title>
<path fill="none" stroke="#404040" d="M361.71,-149.32C343.5,-131.18 320.63,-108.39 300.57,-88.4"/>
<polygon fill="none" stroke="#404040" points="300.37,-88.21 293.3,-86.8 291.87,-79.73 298.95,-81.14 300.37,-88.21"/>
<text text-anchor="middle" x="385" y="-112" font-family="Helvetica,sans-Serif" font-size="10.00"> +max_amplitude</text>
</g>
<!-- Node4 -->
<g id="node4" class="node">
<title>Node4</title>
<g id="a_node4"><a xlink:title=" ">
<polygon fill="none" stroke="black" points="190,-276.5 190,-333.5 240,-333.5 240,-276.5 190,-276.5"/>
<text text-anchor="middle" x="215" y="-321.5" font-family="Helvetica,sans-Serif" font-size="10.00">double</text>
<polyline fill="none" stroke="black" points="190,-314.5 240,-314.5 "/>
<text text-anchor="middle" x="215" y="-302.5" font-family="Helvetica,sans-Serif" font-size="10.00"> </text>
<polyline fill="none" stroke="black" points="190,-295.5 240,-295.5 "/>
<text text-anchor="middle" x="215" y="-283.5" font-family="Helvetica,sans-Serif" font-size="10.00"> </text>
</a>
</g>
</g>
<!-- Node4&#45;&gt;Node1 -->
<g id="edge5" class="edge">
<title>Node4&#45;&gt;Node1</title>
<path fill="none" stroke="#404040" d="M209.76,-276.26C204.78,-245 199.23,-192.85 208,-149 211.94,-129.3 219.55,-108.7 227.41,-90.84"/>
<polygon fill="none" stroke="#404040" points="227.46,-90.74 226.31,-83.62 232.44,-79.82 233.59,-86.94 227.46,-90.74"/>
<text text-anchor="middle" x="267" y="-203" font-family="Helvetica,sans-Serif" font-size="10.00"> +average_amplitude</text>
<text text-anchor="start" x="208" y="-192" font-family="Helvetica,sans-Serif" font-size="10.00">+normalized_amplitude</text>
<text text-anchor="middle" x="267" y="-181" font-family="Helvetica,sans-Serif" font-size="10.00">_std_dev</text>
<text text-anchor="start" x="208" y="-170" font-family="Helvetica,sans-Serif" font-size="10.00">+normalized_amplitude</text>
<text text-anchor="middle" x="267" y="-159" font-family="Helvetica,sans-Serif" font-size="10.00">_variance</text>
</g>
<!-- Node4&#45;&gt;Node3 -->
<g id="edge3" class="edge">
<title>Node4&#45;&gt;Node3</title>
<path fill="none" stroke="#404040" d="M240.03,-287.38C264.43,-271.18 302.49,-245.92 334.78,-224.48"/>
<polygon fill="none" stroke="#404040" points="335.04,-224.31 337.83,-217.65 345.04,-217.67 342.25,-224.32 335.04,-224.31"/>
<text text-anchor="middle" x="346.5" y="-250" font-family="Helvetica,sans-Serif" font-size="10.00"> +amplitude</text>
<text text-anchor="middle" x="346.5" y="-239" font-family="Helvetica,sans-Serif" font-size="10.00">+frequency</text>
</g>
<!-- Node5 -->
<g id="node5" class="node">
<title>Node5</title>
<g id="a_node5"><a xlink:title=" ">
<polygon fill="none" stroke="black" points="472.5,-155 472.5,-212 517.5,-212 517.5,-155 472.5,-155"/>
<text text-anchor="middle" x="495" y="-200" font-family="Helvetica,sans-Serif" font-size="10.00">size_t</text>
<polyline fill="none" stroke="black" points="472.5,-193 517.5,-193 "/>
<text text-anchor="middle" x="495" y="-181" font-family="Helvetica,sans-Serif" font-size="10.00"> </text>
<polyline fill="none" stroke="black" points="472.5,-174 517.5,-174 "/>
<text text-anchor="middle" x="495" y="-162" font-family="Helvetica,sans-Serif" font-size="10.00"> </text>
</a>
</g>
</g>
<!-- Node5&#45;&gt;Node1 -->
<g id="edge4" class="edge">
<title>Node5&#45;&gt;Node1</title>
<path fill="none" stroke="#404040" d="M480.86,-154.92C470.06,-136.39 453.55,-112.74 433,-98 404.18,-77.33 367.56,-63.94 334.89,-55.39"/>
<polygon fill="none" stroke="#404040" points="334.7,-55.34 327.91,-57.77 323.05,-52.45 329.84,-50.01 334.7,-55.34"/>
<text text-anchor="middle" x="524.5" y="-112" font-family="Helvetica,sans-Serif" font-size="10.00"> +max_amplitude_index</text>
</g>
</g>
</svg>
