<?xml version="1.0" encoding="UTF-8" standalone="no"?>
<!DOCTYPE svg PUBLIC "-//W3C//DTD SVG 1.1//EN"
 "http://www.w3.org/Graphics/SVG/1.1/DTD/svg11.dtd">
<!-- Generated by graphviz version 2.43.0 (0)
 -->
<!-- Title: kazoo::WavFile::FormatChunk Pages: 1 -->
<svg width="364pt" height="204pt"
 viewBox="0.00 0.00 364.00 204.00" xmlns="http://www.w3.org/2000/svg" xmlns:xlink="http://www.w3.org/1999/xlink">
<g id="graph0" class="graph" transform="scale(1 1) rotate(0) translate(4 200)">
<title>kazoo::WavFile::FormatChunk</title>
<!-- Node1 -->
<g id="node1" class="node">
<title>Node1</title>
<g id="a_node1"><a xlink:title=" ">
<polygon fill="#bfbfbf" stroke="black" points="63.5,-0.5 63.5,-57.5 224.5,-57.5 224.5,-0.5 63.5,-0.5"/>
<text text-anchor="middle" x="144" y="-45.5" font-family="Helvetica,sans-Serif" font-size="10.00">kazoo::WavFile::FormatChunk</text>
<polyline fill="none" stroke="black" points="63.5,-38.5 224.5,-38.5 "/>
<text text-anchor="middle" x="144" y="-26.5" font-family="Helvetica,sans-Serif" font-size="10.00"> </text>
<polyline fill="none" stroke="black" points="63.5,-19.5 224.5,-19.5 "/>
<text text-anchor="middle" x="144" y="-7.5" font-family="Helvetica,sans-Serif" font-size="10.00"> </text>
</a>
</g>
</g>
<!-- Node2 -->
<g id="node2" class="node">
<title>Node2</title>
<g id="a_node2"><a xlink:title=" ">
<polygon fill="none" stroke="black" points="0,-138.5 0,-195.5 98,-195.5 98,-138.5 0,-138.5"/>
<text text-anchor="middle" x="49" y="-183.5" font-family="Helvetica,sans-Serif" font-size="10.00">array&lt; char, 4 &gt;</text>
<polyline fill="none" stroke="black" points="0,-176.5 98,-176.5 "/>
<text text-anchor="middle" x="49" y="-164.5" font-family="Helvetica,sans-Serif" font-size="10.00"> </text>
<polyline fill="none" stroke="black" points="0,-157.5 98,-157.5 "/>
<text text-anchor="middle" x="49" y="-145.5" font-family="Helvetica,sans-Serif" font-size="10.00"> </text>
</a>
</g>
</g>
<!-- Node2&#45;&gt;Node1 -->
<g id="edge1" class="edge">
<title>Node2&#45;&gt;Node1</title>
<path fill="none" stroke="#404040" d="M65.78,-138.33C76.99,-120.27 92.32,-96.35 107,-76 109.02,-73.19 111.16,-70.33 113.34,-67.47"/>
<polygon fill="none" stroke="#404040" points="113.45,-67.32 113.98,-60.13 120.82,-57.86 120.29,-65.05 113.45,-67.32"/>
<text text-anchor="middle" x="123.5" y="-95.5" font-family="Helvetica,sans-Serif" font-size="10.00"> +FMT</text>
</g>
<!-- Node3 -->
<g id="node3" class="node">
<title>Node3</title>
<g id="a_node3"><a xlink:title=" ">
<polygon fill="none" stroke="black" points="116,-138.5 116,-195.5 172,-195.5 172,-138.5 116,-138.5"/>
<text text-anchor="middle" x="144" y="-183.5" font-family="Helvetica,sans-Serif" font-size="10.00">uint16_t</text>
<polyline fill="none" stroke="black" points="116,-176.5 172,-176.5 "/>
<text text-anchor="middle" x="144" y="-164.5" font-family="Helvetica,sans-Serif" font-size="10.00"> </text>
<polyline fill="none" stroke="black" points="116,-157.5 172,-157.5 "/>
<text text-anchor="middle" x="144" y="-145.5" font-family="Helvetica,sans-Serif" font-size="10.00"> </text>
</a>
</g>
</g>
<!-- Node3&#45;&gt;Node1 -->
<g id="edge2" class="edge">
<title>Node3&#45;&gt;Node1</title>
<path fill="none" stroke="#404040" d="M144,-138.48C144,-118.79 144,-91.99 144,-69.95"/>
<polygon fill="none" stroke="#404040" points="144,-69.95 140,-63.95 144,-57.95 148,-63.95 144,-69.95"/>
<text text-anchor="middle" x="190" y="-112" font-family="Helvetica,sans-Serif" font-size="10.00"> +bits_per_sample</text>
<text text-anchor="middle" x="190" y="-101" font-family="Helvetica,sans-Serif" font-size="10.00">+block_align</text>
<text text-anchor="middle" x="190" y="-90" font-family="Helvetica,sans-Serif" font-size="10.00">+format_code</text>
<text text-anchor="middle" x="190" y="-79" font-family="Helvetica,sans-Serif" font-size="10.00">+num_channels</text>
</g>
<!-- Node4 -->
<g id="node4" class="node">
<title>Node4</title>
<g id="a_node4"><a xlink:title=" ">
<polygon fill="none" stroke="black" points="231,-138.5 231,-195.5 287,-195.5 287,-138.5 231,-138.5"/>
<text text-anchor="middle" x="259" y="-183.5" font-family="Helvetica,sans-Serif" font-size="10.00">uint32_t</text>
<polyline fill="none" stroke="black" points="231,-176.5 287,-176.5 "/>
<text text-anchor="middle" x="259" y="-164.5" font-family="Helvetica,sans-Serif" font-size="10.00"> </text>
<polyline fill="none" stroke="black" points="231,-157.5 287,-157.5 "/>
<text text-anchor="middle" x="259" y="-145.5" font-family="Helvetica,sans-Serif" font-size="10.00"> </text>
</a>
</g>
</g>
<!-- Node4&#45;&gt;Node1 -->
<g id="edge3" class="edge">
<title>Node4&#45;&gt;Node1</title>
<path fill="none" stroke="#404040" d="M258.22,-138.13C256.34,-118.84 251.08,-93.57 237,-76 233.83,-72.05 230.24,-68.41 226.35,-65.06"/>
<polygon fill="none" stroke="#404040" points="226.34,-65.05 219.14,-64.59 216.8,-57.77 224,-58.23 226.34,-65.05"/>
<text text-anchor="middle" x="305.5" y="-106.5" font-family="Helvetica,sans-Serif" font-size="10.00"> +byte_rate</text>
<text text-anchor="middle" x="305.5" y="-95.5" font-family="Helvetica,sans-Serif" font-size="10.00">+format_chunk_size</text>
<text text-anchor="middle" x="305.5" y="-84.5" font-family="Helvetica,sans-Serif" font-size="10.00">+sample_rate</text>
</g>
</g>
</svg>
