<?xml version="1.0" encoding="UTF-8" standalone="no"?>
<!DOCTYPE svg PUBLIC "-//W3C//DTD SVG 1.1//EN"
 "http://www.w3.org/Graphics/SVG/1.1/DTD/svg11.dtd">
<!-- Generated by graphviz version 2.43.0 (0)
 -->
<!-- Title: kazoo::WavFile::WavHeader Pages: 1 -->
<svg width="692pt" height="320pt"
 viewBox="0.00 0.00 692.00 320.00" xmlns="http://www.w3.org/2000/svg" xmlns:xlink="http://www.w3.org/1999/xlink">
<g id="graph0" class="graph" transform="scale(1 1) rotate(0) translate(4 316)">
<title>kazoo::WavFile::WavHeader</title>
<!-- Node1 -->
<g id="node1" class="node">
<title>Node1</title>
<g id="a_node1"><a xlink:title=" ">
<polygon fill="#bfbfbf" stroke="black" points="209,-0.5 209,-68.5 361,-68.5 361,-0.5 209,-0.5"/>
<text text-anchor="middle" x="285" y="-56.5" font-family="Helvetica,sans-Serif" font-size="10.00">kazoo::WavFile::WavHeader</text>
<polyline fill="none" stroke="black" points="209,-49.5 361,-49.5 "/>
<text text-anchor="middle" x="285" y="-37.5" font-family="Helvetica,sans-Serif" font-size="10.00"> </text>
<polyline fill="none" stroke="black" points="209,-30.5 361,-30.5 "/>
<text text-anchor="start" x="217" y="-18.5" font-family="Helvetica,sans-Serif" font-size="10.00">+ print()</text>
<text text-anchor="start" x="217" y="-7.5" font-family="Helvetica,sans-Serif" font-size="10.00">+ resterToDefault()</text>
</a>
</g>
</g>
<!-- Node2 -->
<g id="node2" class="node">
<title>Node2</title>
<g id="a_node2"><a xlink:title=" ">
<polygon fill="none" stroke="black" points="38.5,-116.5 38.5,-173.5 83.5,-173.5 83.5,-116.5 38.5,-116.5"/>
<text text-anchor="middle" x="61" y="-161.5" font-family="Helvetica,sans-Serif" font-size="10.00">size_t</text>
<polyline fill="none" stroke="black" points="38.5,-154.5 83.5,-154.5 "/>
<text text-anchor="middle" x="61" y="-142.5" font-family="Helvetica,sans-Serif" font-size="10.00"> </text>
<polyline fill="none" stroke="black" points="38.5,-135.5 83.5,-135.5 "/>
<text text-anchor="middle" x="61" y="-123.5" font-family="Helvetica,sans-Serif" font-size="10.00"> </text>
</a>
</g>
</g>
<!-- Node2&#45;&gt;Node1 -->
<g id="edge1" class="edge">
<title>Node2&#45;&gt;Node1</title>
<path fill="none" stroke="#404040" d="M54.81,-116.33C54.12,-106.12 55.46,-95.08 62,-87 79.15,-65.83 141.91,-52.56 196.5,-44.81"/>
<polygon fill="none" stroke="#404040" points="196.83,-44.76 202.24,-39.99 208.72,-43.14 203.32,-47.91 196.83,-44.76"/>
<text text-anchor="middle" x="101.5" y="-90" font-family="Helvetica,sans-Serif" font-size="10.00"> +HEADER_SIZE</text>
</g>
<!-- Node3 -->
<g id="node3" class="node">
<title>Node3</title>
<g id="a_node3"><a xlink:title=" ">
<polygon fill="none" stroke="black" points="212,-254.5 212,-311.5 310,-311.5 310,-254.5 212,-254.5"/>
<text text-anchor="middle" x="261" y="-299.5" font-family="Helvetica,sans-Serif" font-size="10.00">array&lt; char, 4 &gt;</text>
<polyline fill="none" stroke="black" points="212,-292.5 310,-292.5 "/>
<text text-anchor="middle" x="261" y="-280.5" font-family="Helvetica,sans-Serif" font-size="10.00"> </text>
<polyline fill="none" stroke="black" points="212,-273.5 310,-273.5 "/>
<text text-anchor="middle" x="261" y="-261.5" font-family="Helvetica,sans-Serif" font-size="10.00"> </text>
</a>
</g>
</g>
<!-- Node3&#45;&gt;Node1 -->
<g id="edge2" class="edge">
<title>Node3&#45;&gt;Node1</title>
<path fill="none" stroke="#404040" d="M225.44,-254.45C187.87,-221.81 137.44,-165.58 164,-116 172.65,-99.85 186.13,-86.39 200.99,-75.39"/>
<polygon fill="none" stroke="#404040" points="201.06,-75.34 203.72,-68.64 210.93,-68.51 208.27,-75.22 201.06,-75.34"/>
<text text-anchor="middle" x="182.5" y="-153.5" font-family="Helvetica,sans-Serif" font-size="10.00"> +DATA</text>
<text text-anchor="middle" x="182.5" y="-142.5" font-family="Helvetica,sans-Serif" font-size="10.00">+RIFF</text>
<text text-anchor="middle" x="182.5" y="-131.5" font-family="Helvetica,sans-Serif" font-size="10.00">+WAVE</text>
</g>
<!-- Node5 -->
<g id="node5" class="node">
<title>Node5</title>
<g id="a_node5"><a xlink:href="structkazoo_1_1WavFile_1_1FormatChunk.html" target="_top" xlink:title=" ">
<polygon fill="none" stroke="black" points="377.5,-116.5 377.5,-173.5 538.5,-173.5 538.5,-116.5 377.5,-116.5"/>
<text text-anchor="middle" x="458" y="-161.5" font-family="Helvetica,sans-Serif" font-size="10.00">kazoo::WavFile::FormatChunk</text>
<polyline fill="none" stroke="black" points="377.5,-154.5 538.5,-154.5 "/>
<text text-anchor="middle" x="458" y="-142.5" font-family="Helvetica,sans-Serif" font-size="10.00"> </text>
<polyline fill="none" stroke="black" points="377.5,-135.5 538.5,-135.5 "/>
<text text-anchor="middle" x="458" y="-123.5" font-family="Helvetica,sans-Serif" font-size="10.00"> </text>
</a>
</g>
</g>
<!-- Node3&#45;&gt;Node5 -->
<g id="edge5" class="edge">
<title>Node3&#45;&gt;Node5</title>
<path fill="none" stroke="#404040" d="M286.04,-254.23C290.66,-248.43 295.22,-242.19 299,-236 310.12,-217.83 302.27,-206.37 318,-192 320.29,-189.9 341,-182.78 365.81,-174.74"/>
<polygon fill="none" stroke="#404040" points="366.03,-174.67 370.52,-169.03 377.45,-171 372.97,-176.64 366.03,-174.67"/>
<text text-anchor="middle" x="334.5" y="-211.5" font-family="Helvetica,sans-Serif" font-size="10.00"> +FMT</text>
</g>
<!-- Node7 -->
<g id="node7" class="node">
<title>Node7</title>
<g id="a_node7"><a xlink:href="structkazoo_1_1WavFile_1_1DataChunk.html" target="_top" xlink:title=" ">
<polygon fill="none" stroke="black" points="210.5,-116.5 210.5,-173.5 359.5,-173.5 359.5,-116.5 210.5,-116.5"/>
<text text-anchor="middle" x="285" y="-161.5" font-family="Helvetica,sans-Serif" font-size="10.00">kazoo::WavFile::DataChunk</text>
<polyline fill="none" stroke="black" points="210.5,-154.5 359.5,-154.5 "/>
<text text-anchor="middle" x="285" y="-142.5" font-family="Helvetica,sans-Serif" font-size="10.00"> </text>
<polyline fill="none" stroke="black" points="210.5,-135.5 359.5,-135.5 "/>
<text text-anchor="middle" x="285" y="-123.5" font-family="Helvetica,sans-Serif" font-size="10.00"> </text>
</a>
</g>
</g>
<!-- Node3&#45;&gt;Node7 -->
<g id="edge9" class="edge">
<title>Node3&#45;&gt;Node7</title>
<path fill="none" stroke="#404040" d="M258.13,-254.43C257.03,-236.41 257.04,-212.5 262,-192 262.55,-189.72 263.23,-187.43 264.01,-185.14"/>
<polygon fill="none" stroke="#404040" points="264.04,-185.06 262.59,-178 268.55,-173.94 270,-181.01 264.04,-185.06"/>
<text text-anchor="middle" x="280.5" y="-211.5" font-family="Helvetica,sans-Serif" font-size="10.00"> +DATA</text>
</g>
<!-- Node4 -->
<g id="node4" class="node">
<title>Node4</title>
<g id="a_node4"><a xlink:title=" ">
<polygon fill="none" stroke="black" points="430,-254.5 430,-311.5 486,-311.5 486,-254.5 430,-254.5"/>
<text text-anchor="middle" x="458" y="-299.5" font-family="Helvetica,sans-Serif" font-size="10.00">uint32_t</text>
<polyline fill="none" stroke="black" points="430,-292.5 486,-292.5 "/>
<text text-anchor="middle" x="458" y="-280.5" font-family="Helvetica,sans-Serif" font-size="10.00"> </text>
<polyline fill="none" stroke="black" points="430,-273.5 486,-273.5 "/>
<text text-anchor="middle" x="458" y="-261.5" font-family="Helvetica,sans-Serif" font-size="10.00"> </text>
</a>
</g>
</g>
<!-- Node4&#45;&gt;Node1 -->
<g id="edge3" class="edge">
<title>Node4&#45;&gt;Node1</title>
<path fill="none" stroke="#404040" d="M486.21,-277.96C510.65,-272.81 544.59,-261.3 561,-236 575.44,-213.74 550.15,-119.69 547,-116 504.32,-65.99 431.38,-46.51 373.29,-39.18"/>
<polygon fill="none" stroke="#404040" points="373.06,-39.15 366.64,-42.45 361.14,-37.79 367.55,-34.5 373.06,-39.15"/>
<text text-anchor="middle" x="588" y="-142.5" font-family="Helvetica,sans-Serif" font-size="10.00"> +file_size</text>
</g>
<!-- Node4&#45;&gt;Node5 -->
<g id="edge7" class="edge">
<title>Node4&#45;&gt;Node5</title>
<path fill="none" stroke="#404040" d="M458,-254.48C458,-234.79 458,-207.99 458,-185.95"/>
<polygon fill="none" stroke="#404040" points="458,-185.95 454,-179.95 458,-173.95 462,-179.95 458,-185.95"/>
<text text-anchor="middle" x="508.5" y="-222.5" font-family="Helvetica,sans-Serif" font-size="10.00"> +byte_rate</text>
<text text-anchor="middle" x="508.5" y="-211.5" font-family="Helvetica,sans-Serif" font-size="10.00">+format_chunk_size</text>
<text text-anchor="middle" x="508.5" y="-200.5" font-family="Helvetica,sans-Serif" font-size="10.00">+sample_rate</text>
</g>
<!-- Node4&#45;&gt;Node7 -->
<g id="edge10" class="edge">
<title>Node4&#45;&gt;Node7</title>
<path fill="none" stroke="#404040" d="M430,-262.88C419.04,-254.98 406.59,-245.47 396,-236 376.07,-218.18 375.43,-209.24 355,-192 350.51,-188.21 345.7,-184.48 340.78,-180.87"/>
<polygon fill="none" stroke="#404040" points="340.38,-180.59 333.17,-180.4 330.58,-173.67 337.79,-173.86 340.38,-180.59"/>
<text text-anchor="middle" x="425" y="-211.5" font-family="Helvetica,sans-Serif" font-size="10.00"> +data_size</text>
</g>
<!-- Node5&#45;&gt;Node1 -->
<g id="edge4" class="edge">
<title>Node5&#45;&gt;Node1</title>
<path fill="none" stroke="#404040" d="M413.9,-116.34C393.85,-103.77 369.76,-88.66 347.86,-74.92"/>
<polygon fill="none" stroke="#404040" points="347.81,-74.89 340.6,-75.1 337.65,-68.52 344.86,-68.32 347.81,-74.89"/>
<text text-anchor="middle" x="421.5" y="-90" font-family="Helvetica,sans-Serif" font-size="10.00"> +format_chunk</text>
</g>
<!-- Node6 -->
<g id="node6" class="node">
<title>Node6</title>
<g id="a_node6"><a xlink:title=" ">
<polygon fill="none" stroke="black" points="580,-254.5 580,-311.5 636,-311.5 636,-254.5 580,-254.5"/>
<text text-anchor="middle" x="608" y="-299.5" font-family="Helvetica,sans-Serif" font-size="10.00">uint16_t</text>
<polyline fill="none" stroke="black" points="580,-292.5 636,-292.5 "/>
<text text-anchor="middle" x="608" y="-280.5" font-family="Helvetica,sans-Serif" font-size="10.00"> </text>
<polyline fill="none" stroke="black" points="580,-273.5 636,-273.5 "/>
<text text-anchor="middle" x="608" y="-261.5" font-family="Helvetica,sans-Serif" font-size="10.00"> </text>
</a>
</g>
</g>
<!-- Node6&#45;&gt;Node5 -->
<g id="edge6" class="edge">
<title>Node6&#45;&gt;Node5</title>
<path fill="none" stroke="#404040" d="M599.72,-254.11C592.69,-234.55 580.85,-208.97 563,-192 558.47,-187.7 553.48,-183.76 548.2,-180.16"/>
<polygon fill="none" stroke="#404040" points="547.93,-179.99 540.72,-180.21 537.74,-173.65 544.95,-173.42 547.93,-179.99"/>
<text text-anchor="middle" x="638" y="-228" font-family="Helvetica,sans-Serif" font-size="10.00"> +bits_per_sample</text>
<text text-anchor="middle" x="638" y="-217" font-family="Helvetica,sans-Serif" font-size="10.00">+block_align</text>
<text text-anchor="middle" x="638" y="-206" font-family="Helvetica,sans-Serif" font-size="10.00">+format_code</text>
<text text-anchor="middle" x="638" y="-195" font-family="Helvetica,sans-Serif" font-size="10.00">+num_channels</text>
</g>
<!-- Node7&#45;&gt;Node1 -->
<g id="edge8" class="edge">
<title>Node7&#45;&gt;Node1</title>
<path fill="none" stroke="#404040" d="M285,-116.34C285,-105.53 285,-92.85 285,-80.77"/>
<polygon fill="none" stroke="#404040" points="285,-80.52 281,-74.52 285,-68.52 289,-74.52 285,-80.52"/>
<text text-anchor="middle" x="319" y="-90" font-family="Helvetica,sans-Serif" font-size="10.00"> +data_chunk</text>
</g>
<!-- Node8 -->
<g id="node8" class="node">
<title>Node8</title>
<g id="a_node8"><a xlink:title=" ">
<polygon fill="none" stroke="black" points="0,-254.5 0,-311.5 68,-311.5 68,-254.5 0,-254.5"/>
<text text-anchor="middle" x="34" y="-299.5" font-family="Helvetica,sans-Serif" font-size="10.00">streampos</text>
<polyline fill="none" stroke="black" points="0,-292.5 68,-292.5 "/>
<text text-anchor="middle" x="34" y="-280.5" font-family="Helvetica,sans-Serif" font-size="10.00"> </text>
<polyline fill="none" stroke="black" points="0,-273.5 68,-273.5 "/>
<text text-anchor="middle" x="34" y="-261.5" font-family="Helvetica,sans-Serif" font-size="10.00"> </text>
</a>
</g>
</g>
<!-- Node8&#45;&gt;Node7 -->
<g id="edge11" class="edge">
<title>Node8&#45;&gt;Node7</title>
<path fill="none" stroke="#404040" d="M62.95,-254.49C84.88,-234.87 116.51,-209.04 148,-192 153.38,-189.09 174.55,-181.72 198.7,-173.7"/>
<polygon fill="none" stroke="#404040" points="198.95,-173.62 203.4,-167.95 210.35,-169.87 205.9,-175.54 198.95,-173.62"/>
<text text-anchor="middle" x="201" y="-211.5" font-family="Helvetica,sans-Serif" font-size="10.00"> +data_start_position</text>
</g>
</g>
</svg>
