<?xml version="1.0" encoding="UTF-8" standalone="no"?>
<!DOCTYPE svg PUBLIC "-//W3C//DTD SVG 1.1//EN"
 "http://www.w3.org/Graphics/SVG/1.1/DTD/svg11.dtd">
<!-- Generated by graphviz version 2.43.0 (0)
 -->
<!-- Title: kazoo::WavFile::DataChunk Pages: 1 -->
<svg width="323pt" height="171pt"
 viewBox="0.00 0.00 323.00 171.00" xmlns="http://www.w3.org/2000/svg" xmlns:xlink="http://www.w3.org/1999/xlink">
<g id="graph0" class="graph" transform="scale(1 1) rotate(0) translate(4 167)">
<title>kazoo::WavFile::DataChunk</title>
<!-- Node1 -->
<g id="node1" class="node">
<title>Node1</title>
<g id="a_node1"><a xlink:title=" ">
<polygon fill="#bfbfbf" stroke="black" points="69.5,-0.5 69.5,-57.5 218.5,-57.5 218.5,-0.5 69.5,-0.5"/>
<text text-anchor="middle" x="144" y="-45.5" font-family="Helvetica,sans-Serif" font-size="10.00">kazoo::WavFile::DataChunk</text>
<polyline fill="none" stroke="black" points="69.5,-38.5 218.5,-38.5 "/>
<text text-anchor="middle" x="144" y="-26.5" font-family="Helvetica,sans-Serif" font-size="10.00"> </text>
<polyline fill="none" stroke="black" points="69.5,-19.5 218.5,-19.5 "/>
<text text-anchor="middle" x="144" y="-7.5" font-family="Helvetica,sans-Serif" font-size="10.00"> </text>
</a>
</g>
</g>
<!-- Node2 -->
<g id="node2" class="node">
<title>Node2</title>
<g id="a_node2"><a xlink:title=" ">
<polygon fill="none" stroke="black" points="0,-105.5 0,-162.5 98,-162.5 98,-105.5 0,-105.5"/>
<text text-anchor="middle" x="49" y="-150.5" font-family="Helvetica,sans-Serif" font-size="10.00">array&lt; char, 4 &gt;</text>
<polyline fill="none" stroke="black" points="0,-143.5 98,-143.5 "/>
<text text-anchor="middle" x="49" y="-131.5" font-family="Helvetica,sans-Serif" font-size="10.00"> </text>
<polyline fill="none" stroke="black" points="0,-124.5 98,-124.5 "/>
<text text-anchor="middle" x="49" y="-112.5" font-family="Helvetica,sans-Serif" font-size="10.00"> </text>
</a>
</g>
</g>
<!-- Node2&#45;&gt;Node1 -->
<g id="edge1" class="edge">
<title>Node2&#45;&gt;Node1</title>
<path fill="none" stroke="#404040" d="M74.46,-105.4C85.43,-93.51 98.41,-79.43 110.17,-66.68"/>
<polygon fill="none" stroke="#404040" points="110.34,-66.5 111.46,-59.38 118.47,-57.68 117.34,-64.8 110.34,-66.5"/>
<text text-anchor="middle" x="117.5" y="-79" font-family="Helvetica,sans-Serif" font-size="10.00"> +DATA</text>
</g>
<!-- Node3 -->
<g id="node3" class="node">
<title>Node3</title>
<g id="a_node3"><a xlink:title=" ">
<polygon fill="none" stroke="black" points="116,-105.5 116,-162.5 172,-162.5 172,-105.5 116,-105.5"/>
<text text-anchor="middle" x="144" y="-150.5" font-family="Helvetica,sans-Serif" font-size="10.00">uint32_t</text>
<polyline fill="none" stroke="black" points="116,-143.5 172,-143.5 "/>
<text text-anchor="middle" x="144" y="-131.5" font-family="Helvetica,sans-Serif" font-size="10.00"> </text>
<polyline fill="none" stroke="black" points="116,-124.5 172,-124.5 "/>
<text text-anchor="middle" x="144" y="-112.5" font-family="Helvetica,sans-Serif" font-size="10.00"> </text>
</a>
</g>
</g>
<!-- Node3&#45;&gt;Node1 -->
<g id="edge2" class="edge">
<title>Node3&#45;&gt;Node1</title>
<path fill="none" stroke="#404040" d="M144,-105.4C144,-94.55 144,-81.87 144,-70.05"/>
<polygon fill="none" stroke="#404040" points="144,-69.68 140,-63.68 144,-57.68 148,-63.68 144,-69.68"/>
<text text-anchor="middle" x="173" y="-79" font-family="Helvetica,sans-Serif" font-size="10.00"> +data_size</text>
</g>
<!-- Node4 -->
<g id="node4" class="node">
<title>Node4</title>
<g id="a_node4"><a xlink:title=" ">
<polygon fill="none" stroke="black" points="191,-105.5 191,-162.5 259,-162.5 259,-105.5 191,-105.5"/>
<text text-anchor="middle" x="225" y="-150.5" font-family="Helvetica,sans-Serif" font-size="10.00">streampos</text>
<polyline fill="none" stroke="black" points="191,-143.5 259,-143.5 "/>
<text text-anchor="middle" x="225" y="-131.5" font-family="Helvetica,sans-Serif" font-size="10.00"> </text>
<polyline fill="none" stroke="black" points="191,-124.5 259,-124.5 "/>
<text text-anchor="middle" x="225" y="-112.5" font-family="Helvetica,sans-Serif" font-size="10.00"> </text>
</a>
</g>
</g>
<!-- Node4&#45;&gt;Node1 -->
<g id="edge3" class="edge">
<title>Node4&#45;&gt;Node1</title>
<path fill="none" stroke="#404040" d="M217.69,-105.37C214.25,-95.5 209.45,-84.69 203,-76 200.37,-72.45 197.39,-69.04 194.22,-65.78"/>
<polygon fill="none" stroke="#404040" points="194.18,-65.75 187.07,-64.57 185.42,-57.55 192.54,-58.73 194.18,-65.75"/>
<text text-anchor="middle" x="262" y="-79" font-family="Helvetica,sans-Serif" font-size="10.00"> +data_start_position</text>
</g>
</g>
</svg>
