<?xml version="1.0" encoding="UTF-8" standalone="no"?>
<!DOCTYPE svg PUBLIC "-//W3C//DTD SVG 1.1//EN"
 "http://www.w3.org/Graphics/SVG/1.1/DTD/svg11.dtd">
<!-- Generated by graphviz version 2.43.0 (0)
 -->
<!-- Title: kazoo::Fft::FftResults::getNormalizedPeaks Pages: 1 -->
<svg width="709pt" height="100pt"
 viewBox="0.00 0.00 709.00 99.50" xmlns="http://www.w3.org/2000/svg" xmlns:xlink="http://www.w3.org/1999/xlink">
<g id="graph0" class="graph" transform="scale(1 1) rotate(0) translate(4 95.5)">
<title>kazoo::Fft::FftResults::getNormalizedPeaks</title>
<!-- Node1 -->
<g id="node1" class="node">
<title>Node1</title>
<g id="a_node1"><a xlink:title=" ">
<polygon fill="#bfbfbf" stroke="black" points="577,-33 577,-63 701,-63 701,-33 577,-33"/>
<text text-anchor="start" x="585" y="-51" font-family="Helvetica,sans-Serif" font-size="10.00">kazoo::Fft::FftResults</text>
<text text-anchor="middle" x="639" y="-40" font-family="Helvetica,sans-Serif" font-size="10.00">::getNormalizedPeaks</text>
</a>
</g>
</g>
<!-- Node2 -->
<g id="node2" class="node">
<title>Node2</title>
<g id="a_node2"><a xlink:href="classkazoo_1_1model_1_1K2PeakModel_1_1Model.html#a0b8dda6cce60188332fe3a35a1c91f7a" target="_top" xlink:title=" ">
<polygon fill="none" stroke="black" points="341,-61 341,-91 541,-91 541,-61 341,-61"/>
<text text-anchor="start" x="349" y="-79" font-family="Helvetica,sans-Serif" font-size="10.00">kazoo::model::K2PeakModel</text>
<text text-anchor="middle" x="441" y="-68" font-family="Helvetica,sans-Serif" font-size="10.00">::Model::detectSymbolFromFftResults</text>
</a>
</g>
</g>
<!-- Node1&#45;&gt;Node2 -->
<g id="edge1" class="edge">
<title>Node1&#45;&gt;Node2</title>
<path fill="none" stroke="midnightblue" d="M566.78,-58.17C558.44,-59.37 549.82,-60.6 541.19,-61.83"/>
<polygon fill="midnightblue" stroke="midnightblue" points="567.39,-61.62 576.79,-56.74 566.4,-54.69 567.39,-61.62"/>
</g>
<!-- Node5 -->
<g id="node5" class="node">
<title>Node5</title>
<g id="a_node5"><a xlink:href="classkazoo_1_1model_1_1K3ReasonableModel_1_1K3Model.html#a5a805349ff160bed87a2552b7d1ed908" target="_top" xlink:title=" ">
<polygon fill="none" stroke="black" points="344,-0.5 344,-41.5 538,-41.5 538,-0.5 344,-0.5"/>
<text text-anchor="start" x="352" y="-29.5" font-family="Helvetica,sans-Serif" font-size="10.00">kazoo::model::K3Reasonable</text>
<text text-anchor="start" x="352" y="-18.5" font-family="Helvetica,sans-Serif" font-size="10.00">Model::K3Model::detectSymbolFrom</text>
<text text-anchor="middle" x="441" y="-7.5" font-family="Helvetica,sans-Serif" font-size="10.00">FftResults</text>
</a>
</g>
</g>
<!-- Node1&#45;&gt;Node5 -->
<g id="edge4" class="edge">
<title>Node1&#45;&gt;Node5</title>
<path fill="none" stroke="midnightblue" d="M566.86,-38.2C557.57,-36.92 547.93,-35.59 538.31,-34.27"/>
<polygon fill="midnightblue" stroke="midnightblue" points="566.41,-41.67 576.79,-39.57 567.36,-34.74 566.41,-41.67"/>
</g>
<!-- Node3 -->
<g id="node3" class="node">
<title>Node3</title>
<g id="a_node3"><a xlink:href="classkazoo_1_1model_1_1K2PeakModel_1_1Model.html#ab9a88aed9b08fb13ca096dc482729308" target="_top" xlink:title=" ">
<polygon fill="none" stroke="black" points="109.5,-61 109.5,-91 283.5,-91 283.5,-61 109.5,-61"/>
<text text-anchor="start" x="117.5" y="-79" font-family="Helvetica,sans-Serif" font-size="10.00">kazoo::model::K2PeakModel</text>
<text text-anchor="middle" x="196.5" y="-68" font-family="Helvetica,sans-Serif" font-size="10.00">::Model::decodeAudioToSymbols</text>
</a>
</g>
</g>
<!-- Node2&#45;&gt;Node3 -->
<g id="edge2" class="edge">
<title>Node2&#45;&gt;Node3</title>
<path fill="none" stroke="midnightblue" d="M330.45,-76C314.84,-76 298.96,-76 283.87,-76"/>
<polygon fill="midnightblue" stroke="midnightblue" points="330.67,-79.5 340.67,-76 330.67,-72.5 330.67,-79.5"/>
</g>
<!-- Node4 -->
<g id="node4" class="node">
<title>Node4</title>
<g id="a_node4"><a xlink:href="k2__peak__model_8test_8cpp.html#a17f63146f1faeef6df7fadccd45457c5" target="_top" xlink:title=" ">
<polygon fill="none" stroke="black" points="0,-66.5 0,-85.5 52,-85.5 52,-66.5 0,-66.5"/>
<text text-anchor="middle" x="26" y="-73.5" font-family="Helvetica,sans-Serif" font-size="10.00">TEST_F</text>
</a>
</g>
</g>
<!-- Node3&#45;&gt;Node4 -->
<g id="edge3" class="edge">
<title>Node3&#45;&gt;Node4</title>
<path fill="none" stroke="midnightblue" d="M99.03,-76C81.73,-76 65.13,-76 52.23,-76"/>
<polygon fill="midnightblue" stroke="midnightblue" points="99.28,-79.5 109.28,-76 99.28,-72.5 99.28,-79.5"/>
</g>
<!-- Node6 -->
<g id="node6" class="node">
<title>Node6</title>
<g id="a_node6"><a xlink:href="classkazoo_1_1model_1_1K3ReasonableModel_1_1K3Model.html#a7bbd29b57bbe7679a0fe5341dcead576" target="_top" xlink:title=" ">
<polygon fill="none" stroke="black" points="88,-6 88,-36 305,-36 305,-6 88,-6"/>
<text text-anchor="start" x="96" y="-24" font-family="Helvetica,sans-Serif" font-size="10.00">kazoo::model::K3Reasonable</text>
<text text-anchor="middle" x="196.5" y="-13" font-family="Helvetica,sans-Serif" font-size="10.00">Model::K3Model::decodeAudioToSymbols</text>
</a>
</g>
</g>
<!-- Node5&#45;&gt;Node6 -->
<g id="edge5" class="edge">
<title>Node5&#45;&gt;Node6</title>
<path fill="none" stroke="midnightblue" d="M333.62,-21C324.18,-21 314.62,-21 305.17,-21"/>
<polygon fill="midnightblue" stroke="midnightblue" points="333.81,-24.5 343.81,-21 333.81,-17.5 333.81,-24.5"/>
</g>
<!-- Node7 -->
<g id="node7" class="node">
<title>Node7</title>
<g id="a_node7"><a xlink:href="k3__model_8test_8cpp.html#ac3bedba18c3a5c5cdf36b38d093ae122" target="_top" xlink:title=" ">
<polygon fill="none" stroke="black" points="0,-11.5 0,-30.5 52,-30.5 52,-11.5 0,-11.5"/>
<text text-anchor="middle" x="26" y="-18.5" font-family="Helvetica,sans-Serif" font-size="10.00">TEST_F</text>
</a>
</g>
</g>
<!-- Node6&#45;&gt;Node7 -->
<g id="edge6" class="edge">
<title>Node6&#45;&gt;Node7</title>
<path fill="none" stroke="midnightblue" d="M77.55,-21C68.28,-21 59.67,-21 52.27,-21"/>
<polygon fill="midnightblue" stroke="midnightblue" points="77.83,-24.5 87.83,-21 77.83,-17.5 77.83,-24.5"/>
</g>
</g>
</svg>
