<?xml version="1.0" encoding="UTF-8" standalone="no"?>
<!DOCTYPE svg PUBLIC "-//W3C//DTD SVG 1.1//EN"
 "http://www.w3.org/Graphics/SVG/1.1/DTD/svg11.dtd">
<!-- Generated by graphviz version 2.43.0 (0)
 -->
<!-- Title: kazoo::Symbol&lt; Token_t, NumBits &gt; Pages: 1 -->
<svg width="166pt" height="182pt"
 viewBox="0.00 0.00 165.50 182.00" xmlns="http://www.w3.org/2000/svg" xmlns:xlink="http://www.w3.org/1999/xlink">
<g id="graph0" class="graph" transform="scale(1 1) rotate(0) translate(4 178)">
<title>kazoo::Symbol&lt; Token_t, NumBits &gt;</title>
<!-- Node1 -->
<g id="node1" class="node">
<title>Node1</title>
<g id="a_node1"><a xlink:title="A basic symbol structure for the project.a.">
<polygon fill="#bfbfbf" stroke="black" points="22,-0.5 22,-68.5 149,-68.5 149,-0.5 22,-0.5"/>
<text text-anchor="start" x="30" y="-56.5" font-family="Helvetica,sans-Serif" font-size="10.00">kazoo::Symbol&lt; Token</text>
<text text-anchor="middle" x="85.5" y="-45.5" font-family="Helvetica,sans-Serif" font-size="10.00">_t, NumBits &gt;</text>
<polyline fill="none" stroke="black" points="22,-38.5 149,-38.5 "/>
<text text-anchor="middle" x="85.5" y="-26.5" font-family="Helvetica,sans-Serif" font-size="10.00"> </text>
<polyline fill="none" stroke="black" points="22,-19.5 149,-19.5 "/>
<text text-anchor="middle" x="85.5" y="-7.5" font-family="Helvetica,sans-Serif" font-size="10.00"> </text>
</a>
</g>
</g>
<!-- Node2 -->
<g id="node2" class="node">
<title>Node2</title>
<g id="a_node2"><a xlink:title=" ">
<polygon fill="none" stroke="black" points="0,-116.5 0,-173.5 83,-173.5 83,-116.5 0,-116.5"/>
<text text-anchor="middle" x="41.5" y="-161.5" font-family="Helvetica,sans-Serif" font-size="10.00">const Token_t</text>
<polyline fill="none" stroke="black" points="0,-154.5 83,-154.5 "/>
<text text-anchor="middle" x="41.5" y="-142.5" font-family="Helvetica,sans-Serif" font-size="10.00"> </text>
<polyline fill="none" stroke="black" points="0,-135.5 83,-135.5 "/>
<text text-anchor="middle" x="41.5" y="-123.5" font-family="Helvetica,sans-Serif" font-size="10.00"> </text>
</a>
</g>
</g>
<!-- Node2&#45;&gt;Node1 -->
<g id="edge1" class="edge">
<title>Node2&#45;&gt;Node1</title>
<path fill="none" stroke="#404040" d="M52.72,-116.34C57.19,-105.3 62.46,-92.31 67.45,-80.01"/>
<polygon fill="none" stroke="#404040" points="67.6,-79.64 66.15,-72.58 72.11,-68.52 73.56,-75.58 67.6,-79.64"/>
<text text-anchor="middle" x="83" y="-90" font-family="Helvetica,sans-Serif" font-size="10.00"> +token</text>
</g>
<!-- Node3 -->
<g id="node3" class="node">
<title>Node3</title>
<g id="a_node3"><a xlink:title=" ">
<polygon fill="none" stroke="black" points="101.5,-116.5 101.5,-173.5 157.5,-173.5 157.5,-116.5 101.5,-116.5"/>
<text text-anchor="middle" x="129.5" y="-161.5" font-family="Helvetica,sans-Serif" font-size="10.00">uint32_t</text>
<polyline fill="none" stroke="black" points="101.5,-154.5 157.5,-154.5 "/>
<text text-anchor="middle" x="129.5" y="-142.5" font-family="Helvetica,sans-Serif" font-size="10.00"> </text>
<polyline fill="none" stroke="black" points="101.5,-135.5 157.5,-135.5 "/>
<text text-anchor="middle" x="129.5" y="-123.5" font-family="Helvetica,sans-Serif" font-size="10.00"> </text>
</a>
</g>
</g>
<!-- Node3&#45;&gt;Node1 -->
<g id="edge2" class="edge">
<title>Node3&#45;&gt;Node1</title>
<path fill="none" stroke="#404040" d="M118.41,-116.45C114.64,-107.1 110.39,-96.59 106.5,-87 105.56,-84.69 104.6,-82.33 103.63,-79.94"/>
<polygon fill="none" stroke="#404040" points="103.6,-79.85 97.63,-75.8 99.07,-68.74 105.04,-72.79 103.6,-79.85"/>
<text text-anchor="middle" x="130" y="-90" font-family="Helvetica,sans-Serif" font-size="10.00"> +value</text>
</g>
</g>
</svg>
