<?xml version="1.0" encoding="UTF-8" standalone="no"?>
<!DOCTYPE svg PUBLIC "-//W3C//DTD SVG 1.1//EN"
 "http://www.w3.org/Graphics/SVG/1.1/DTD/svg11.dtd">
<!-- Generated by graphviz version 2.43.0 (0)
 -->
<!-- Title: symbol_stream.hpp Pages: 1 -->
<svg width="1315pt" height="252pt"
 viewBox="0.00 0.00 1315.00 252.00" xmlns="http://www.w3.org/2000/svg" xmlns:xlink="http://www.w3.org/1999/xlink">
<g id="graph0" class="graph" transform="scale(1 1) rotate(0) translate(4 248)">
<title>symbol_stream.hpp</title>
<!-- Node1 -->
<g id="node1" class="node">
<title>Node1</title>
<g id="a_node1"><a xlink:title=" ">
<polygon fill="#bfbfbf" stroke="black" points="802,-224.5 802,-243.5 915,-243.5 915,-224.5 802,-224.5"/>
<text text-anchor="middle" x="858.5" y="-231.5" font-family="Helvetica,sans-Serif" font-size="10.00">symbol_stream.hpp</text>
</a>
</g>
</g>
<!-- Node2 -->
<g id="node2" class="node">
<title>Node2</title>
<g id="a_node2"><a xlink:href="binary__model_8hpp.html" target="_top" xlink:title=" ">
<polygon fill="none" stroke="black" points="977.5,-112.5 977.5,-131.5 1081.5,-131.5 1081.5,-112.5 977.5,-112.5"/>
<text text-anchor="middle" x="1029.5" y="-119.5" font-family="Helvetica,sans-Serif" font-size="10.00">binary_model.hpp</text>
</a>
</g>
</g>
<!-- Node1&#45;&gt;Node2 -->
<g id="edge1" class="edge">
<title>Node1&#45;&gt;Node2</title>
<path fill="none" stroke="midnightblue" d="M880.71,-218.71C916.74,-195.53 986.86,-150.43 1016.14,-131.59"/>
<polygon fill="midnightblue" stroke="midnightblue" points="878.43,-216.01 871.92,-224.37 882.22,-221.9 878.43,-216.01"/>
</g>
<!-- Node3 -->
<g id="node3" class="node">
<title>Node3</title>
<g id="a_node3"><a xlink:href="binary__model_8test_8cpp.html" target="_top" xlink:title=" ">
<polygon fill="none" stroke="black" points="1182,-56.5 1182,-75.5 1307,-75.5 1307,-56.5 1182,-56.5"/>
<text text-anchor="middle" x="1244.5" y="-63.5" font-family="Helvetica,sans-Serif" font-size="10.00">binary_model.test.cpp</text>
</a>
</g>
</g>
<!-- Node1&#45;&gt;Node3 -->
<g id="edge9" class="edge">
<title>Node1&#45;&gt;Node3</title>
<path fill="none" stroke="midnightblue" d="M887.79,-220.41C962.86,-188.12 1160.76,-103.01 1224.45,-75.62"/>
<polygon fill="midnightblue" stroke="midnightblue" points="886.24,-217.26 878.44,-224.42 889.01,-223.69 886.24,-217.26"/>
</g>
<!-- Node9 -->
<g id="node9" class="node">
<title>Node9</title>
<g id="a_node9"><a xlink:href="encoder_8hpp.html" target="_top" xlink:title=" ">
<polygon fill="none" stroke="black" points="643.5,-168.5 643.5,-187.5 719.5,-187.5 719.5,-168.5 643.5,-168.5"/>
<text text-anchor="middle" x="681.5" y="-175.5" font-family="Helvetica,sans-Serif" font-size="10.00">encoder.hpp</text>
</a>
</g>
</g>
<!-- Node1&#45;&gt;Node9 -->
<g id="edge10" class="edge">
<title>Node1&#45;&gt;Node9</title>
<path fill="none" stroke="midnightblue" d="M820.6,-221.44C787.22,-211.26 739.4,-196.66 709.41,-187.52"/>
<polygon fill="midnightblue" stroke="midnightblue" points="819.87,-224.87 830.45,-224.44 821.91,-218.18 819.87,-224.87"/>
</g>
<!-- Node10 -->
<g id="node10" class="node">
<title>Node10</title>
<g id="a_node10"><a xlink:href="k1__model_8hpp.html" target="_top" xlink:title=" ">
<polygon fill="none" stroke="black" points="245.5,-112.5 245.5,-131.5 331.5,-131.5 331.5,-112.5 245.5,-112.5"/>
<text text-anchor="middle" x="288.5" y="-119.5" font-family="Helvetica,sans-Serif" font-size="10.00">k1_model.hpp</text>
</a>
</g>
</g>
<!-- Node1&#45;&gt;Node10 -->
<g id="edge38" class="edge">
<title>Node1&#45;&gt;Node10</title>
<path fill="none" stroke="midnightblue" d="M797.86,-222.74C746.34,-213.91 670.48,-200.63 604.5,-188 504.93,-168.94 388.19,-144.34 328.34,-131.56"/>
<polygon fill="midnightblue" stroke="midnightblue" points="797.38,-226.21 807.82,-224.44 798.56,-219.31 797.38,-226.21"/>
</g>
<!-- Node14 -->
<g id="node14" class="node">
<title>Node14</title>
<g id="a_node14"><a xlink:href="k2__model_8hpp.html" target="_top" xlink:title=" ">
<polygon fill="none" stroke="black" points="529.5,-112.5 529.5,-131.5 615.5,-131.5 615.5,-112.5 529.5,-112.5"/>
<text text-anchor="middle" x="572.5" y="-119.5" font-family="Helvetica,sans-Serif" font-size="10.00">k2_model.hpp</text>
</a>
</g>
</g>
<!-- Node1&#45;&gt;Node14 -->
<g id="edge39" class="edge">
<title>Node1&#45;&gt;Node14</title>
<path fill="none" stroke="midnightblue" d="M791.91,-230.14C745.34,-225.71 683.05,-214.75 634.5,-188 609.09,-174 587.88,-146.03 578.17,-131.78"/>
<polygon fill="midnightblue" stroke="midnightblue" points="791.63,-233.63 801.89,-231.01 792.24,-226.65 791.63,-233.63"/>
</g>
<!-- Node16 -->
<g id="node16" class="node">
<title>Node16</title>
<g id="a_node16"><a xlink:href="k3__model_8hpp.html" target="_top" xlink:title=" ">
<polygon fill="none" stroke="black" points="873.5,-112.5 873.5,-131.5 959.5,-131.5 959.5,-112.5 873.5,-112.5"/>
<text text-anchor="middle" x="916.5" y="-119.5" font-family="Helvetica,sans-Serif" font-size="10.00">k3_model.hpp</text>
</a>
</g>
</g>
<!-- Node1&#45;&gt;Node16 -->
<g id="edge40" class="edge">
<title>Node1&#45;&gt;Node16</title>
<path fill="none" stroke="midnightblue" d="M867.82,-215.32C880.45,-191.37 902.5,-149.55 911.97,-131.59"/>
<polygon fill="midnightblue" stroke="midnightblue" points="864.62,-213.89 863.05,-224.37 870.81,-217.16 864.62,-213.89"/>
</g>
<!-- Node20 -->
<g id="node20" class="node">
<title>Node20</title>
<g id="a_node20"><a xlink:href="testing__model_8hpp.html" target="_top" xlink:title=" ">
<polygon fill="none" stroke="black" points="710,-112.5 710,-131.5 817,-131.5 817,-112.5 710,-112.5"/>
<text text-anchor="middle" x="763.5" y="-119.5" font-family="Helvetica,sans-Serif" font-size="10.00">testing_model.hpp</text>
</a>
</g>
</g>
<!-- Node1&#45;&gt;Node20 -->
<g id="edge42" class="edge">
<title>Node1&#45;&gt;Node20</title>
<path fill="none" stroke="midnightblue" d="M844.32,-216.59C823.84,-192.87 786.71,-149.87 770.92,-131.59"/>
<polygon fill="midnightblue" stroke="midnightblue" points="841.86,-219.09 851.05,-224.37 847.16,-214.51 841.86,-219.09"/>
</g>
<!-- Node22 -->
<g id="node22" class="node">
<title>Node22</title>
<g id="a_node22"><a xlink:href="symbol__stream_8test_8cpp.html" target="_top" xlink:title=" ">
<polygon fill="none" stroke="black" points="1137.5,-168.5 1137.5,-187.5 1271.5,-187.5 1271.5,-168.5 1137.5,-168.5"/>
<text text-anchor="middle" x="1204.5" y="-175.5" font-family="Helvetica,sans-Serif" font-size="10.00">symbol_stream.test.cpp</text>
</a>
</g>
</g>
<!-- Node1&#45;&gt;Node22 -->
<g id="edge41" class="edge">
<title>Node1&#45;&gt;Node22</title>
<path fill="none" stroke="midnightblue" d="M923.51,-222.85C988.88,-212.65 1088.54,-197.1 1149.93,-187.52"/>
<polygon fill="midnightblue" stroke="midnightblue" points="922.67,-219.44 913.32,-224.44 923.74,-226.36 922.67,-219.44"/>
</g>
<!-- Node2&#45;&gt;Node3 -->
<g id="edge2" class="edge">
<title>Node2&#45;&gt;Node3</title>
<path fill="none" stroke="midnightblue" d="M1073.46,-109.96C1114.07,-99.76 1173.54,-84.82 1210.59,-75.52"/>
<polygon fill="midnightblue" stroke="midnightblue" points="1072.41,-106.61 1063.57,-112.44 1074.12,-113.4 1072.41,-106.61"/>
</g>
<!-- Node4 -->
<g id="node4" class="node">
<title>Node4</title>
<g id="a_node4"><a xlink:href="translation__layer_8cpp.html" target="_top" xlink:title=" ">
<polygon fill="none" stroke="black" points="734,-0.5 734,-19.5 853,-19.5 853,-0.5 734,-0.5"/>
<text text-anchor="middle" x="793.5" y="-7.5" font-family="Helvetica,sans-Serif" font-size="10.00">translation_layer.cpp</text>
</a>
</g>
</g>
<!-- Node2&#45;&gt;Node4 -->
<g id="edge3" class="edge">
<title>Node2&#45;&gt;Node4</title>
<path fill="none" stroke="midnightblue" d="M1066.11,-108.88C1096.26,-97 1131.24,-77.57 1112.5,-56 1110.38,-53.56 944.73,-31.15 853.01,-18.9"/>
<polygon fill="midnightblue" stroke="midnightblue" points="1064.7,-105.68 1056.57,-112.47 1067.16,-112.23 1064.7,-105.68"/>
</g>
<!-- Node5 -->
<g id="node5" class="node">
<title>Node5</title>
<g id="a_node5"><a xlink:href="translation__layer_8hpp.html" target="_top" xlink:title=" ">
<polygon fill="none" stroke="black" points="843,-56.5 843,-75.5 962,-75.5 962,-56.5 843,-56.5"/>
<text text-anchor="middle" x="902.5" y="-63.5" font-family="Helvetica,sans-Serif" font-size="10.00">translation_layer.hpp</text>
</a>
</g>
</g>
<!-- Node2&#45;&gt;Node5 -->
<g id="edge4" class="edge">
<title>Node2&#45;&gt;Node5</title>
<path fill="none" stroke="midnightblue" d="M1000.11,-108.5C976.3,-98.38 943.39,-84.39 922.53,-75.52"/>
<polygon fill="midnightblue" stroke="midnightblue" points="998.8,-111.75 1009.38,-112.44 1001.54,-105.31 998.8,-111.75"/>
</g>
<!-- Node5&#45;&gt;Node4 -->
<g id="edge7" class="edge">
<title>Node5&#45;&gt;Node4</title>
<path fill="none" stroke="midnightblue" d="M875.98,-51.86C855.77,-41.85 828.51,-28.35 810.97,-19.65"/>
<polygon fill="midnightblue" stroke="midnightblue" points="874.47,-55.02 884.99,-56.32 877.58,-48.75 874.47,-55.02"/>
</g>
<!-- Node6 -->
<g id="node6" class="node">
<title>Node6</title>
<g id="a_node6"><a xlink:href="src_2kazoo__connect__server_2main_8cpp.html" target="_top" xlink:title=" ">
<polygon fill="none" stroke="black" points="871.5,-0.5 871.5,-19.5 933.5,-19.5 933.5,-0.5 871.5,-0.5"/>
<text text-anchor="middle" x="902.5" y="-7.5" font-family="Helvetica,sans-Serif" font-size="10.00">main.cpp</text>
</a>
</g>
</g>
<!-- Node5&#45;&gt;Node6 -->
<g id="edge5" class="edge">
<title>Node5&#45;&gt;Node6</title>
<path fill="none" stroke="midnightblue" d="M902.5,-45.8C902.5,-36.91 902.5,-26.78 902.5,-19.75"/>
<polygon fill="midnightblue" stroke="midnightblue" points="899,-46.08 902.5,-56.08 906,-46.08 899,-46.08"/>
</g>
<!-- Node7 -->
<g id="node7" class="node">
<title>Node7</title>
<g id="a_node7"><a xlink:href="src_2main_8cpp.html" target="_top" xlink:title=" ">
<polygon fill="none" stroke="black" points="951.5,-0.5 951.5,-19.5 1013.5,-19.5 1013.5,-0.5 951.5,-0.5"/>
<text text-anchor="middle" x="982.5" y="-7.5" font-family="Helvetica,sans-Serif" font-size="10.00">main.cpp</text>
</a>
</g>
</g>
<!-- Node5&#45;&gt;Node7 -->
<g id="edge6" class="edge">
<title>Node5&#45;&gt;Node7</title>
<path fill="none" stroke="midnightblue" d="M923.8,-50.62C938.42,-40.76 957.33,-27.99 969.68,-19.65"/>
<polygon fill="midnightblue" stroke="midnightblue" points="921.68,-47.83 915.35,-56.32 925.6,-53.63 921.68,-47.83"/>
</g>
<!-- Node8 -->
<g id="node8" class="node">
<title>Node8</title>
<g id="a_node8"><a xlink:href="translation__layer_8test_8cpp.html" target="_top" xlink:title=" ">
<polygon fill="none" stroke="black" points="1031.5,-0.5 1031.5,-19.5 1171.5,-19.5 1171.5,-0.5 1031.5,-0.5"/>
<text text-anchor="middle" x="1101.5" y="-7.5" font-family="Helvetica,sans-Serif" font-size="10.00">translation_layer.test.cpp</text>
</a>
</g>
</g>
<!-- Node5&#45;&gt;Node8 -->
<g id="edge8" class="edge">
<title>Node5&#45;&gt;Node8</title>
<path fill="none" stroke="midnightblue" d="M944.15,-53.7C981.71,-43.51 1036.11,-28.74 1070.12,-19.52"/>
<polygon fill="midnightblue" stroke="midnightblue" points="942.77,-50.45 934.03,-56.44 944.6,-57.2 942.77,-50.45"/>
</g>
<!-- Node9&#45;&gt;Node2 -->
<g id="edge11" class="edge">
<title>Node9&#45;&gt;Node2</title>
<path fill="none" stroke="midnightblue" d="M729.74,-169.52C794.83,-159.41 910.33,-141.49 977.37,-131.09"/>
<polygon fill="midnightblue" stroke="midnightblue" points="729.08,-166.07 719.74,-171.07 730.16,-172.99 729.08,-166.07"/>
</g>
<!-- Node9&#45;&gt;Node10 -->
<g id="edge12" class="edge">
<title>Node9&#45;&gt;Node10</title>
<path fill="none" stroke="midnightblue" d="M633.42,-170.92C568.16,-162.59 447.91,-146.94 345.5,-132 341.04,-131.35 336.38,-130.65 331.74,-129.94"/>
<polygon fill="midnightblue" stroke="midnightblue" points="633.05,-174.4 643.42,-172.2 633.94,-167.46 633.05,-174.4"/>
</g>
<!-- Node12 -->
<g id="node12" class="node">
<title>Node12</title>
<g id="a_node12"><a xlink:href="k1__model_8test_8cpp.html" target="_top" xlink:title=" ">
<polygon fill="none" stroke="black" points="142,-56.5 142,-75.5 249,-75.5 249,-56.5 142,-56.5"/>
<text text-anchor="middle" x="195.5" y="-63.5" font-family="Helvetica,sans-Serif" font-size="10.00">k1_model.test.cpp</text>
</a>
</g>
</g>
<!-- Node9&#45;&gt;Node12 -->
<g id="edge18" class="edge">
<title>Node9&#45;&gt;Node12</title>
<path fill="none" stroke="midnightblue" d="M633.17,-174.83C572.39,-170.97 465.47,-160.43 378.5,-132 360.36,-126.07 358.13,-119.3 340.5,-112 303.36,-96.62 259.02,-83.59 229.23,-75.58"/>
<polygon fill="midnightblue" stroke="midnightblue" points="633.05,-178.33 643.24,-175.43 633.47,-171.34 633.05,-178.33"/>
</g>
<!-- Node9&#45;&gt;Node14 -->
<g id="edge19" class="edge">
<title>Node9&#45;&gt;Node14</title>
<path fill="none" stroke="midnightblue" d="M654.98,-163.86C634.77,-153.85 607.51,-140.35 589.97,-131.65"/>
<polygon fill="midnightblue" stroke="midnightblue" points="653.47,-167.02 663.99,-168.32 656.58,-160.75 653.47,-167.02"/>
</g>
<!-- Node15 -->
<g id="node15" class="node">
<title>Node15</title>
<g id="a_node15"><a xlink:href="k2__peak__model_8test_8cpp.html" target="_top" xlink:title=" ">
<polygon fill="none" stroke="black" points="504.5,-56.5 504.5,-75.5 640.5,-75.5 640.5,-56.5 504.5,-56.5"/>
<text text-anchor="middle" x="572.5" y="-63.5" font-family="Helvetica,sans-Serif" font-size="10.00">k2_peak_model.test.cpp</text>
</a>
</g>
</g>
<!-- Node9&#45;&gt;Node15 -->
<g id="edge24" class="edge">
<title>Node9&#45;&gt;Node15</title>
<path fill="none" stroke="midnightblue" d="M667.96,-160.32C656.77,-146.84 640.22,-127.62 624.5,-112 610.95,-98.54 594.02,-84.32 583.24,-75.56"/>
<polygon fill="midnightblue" stroke="midnightblue" points="665.43,-162.75 674.48,-168.25 670.83,-158.3 665.43,-162.75"/>
</g>
<!-- Node9&#45;&gt;Node16 -->
<g id="edge25" class="edge">
<title>Node9&#45;&gt;Node16</title>
<path fill="none" stroke="midnightblue" d="M728.71,-166.15C773.11,-155.95 838.69,-140.88 879.44,-131.52"/>
<polygon fill="midnightblue" stroke="midnightblue" points="727.7,-162.79 718.74,-168.44 729.27,-169.62 727.7,-162.79"/>
</g>
<!-- Node17 -->
<g id="node17" class="node">
<title>Node17</title>
<g id="a_node17"><a xlink:href="k3__model_8test_8cpp.html" target="_top" xlink:title=" ">
<polygon fill="none" stroke="black" points="980,-56.5 980,-75.5 1087,-75.5 1087,-56.5 980,-56.5"/>
<text text-anchor="middle" x="1033.5" y="-63.5" font-family="Helvetica,sans-Serif" font-size="10.00">k3_model.test.cpp</text>
</a>
</g>
</g>
<!-- Node9&#45;&gt;Node17 -->
<g id="edge29" class="edge">
<title>Node9&#45;&gt;Node17</title>
<path fill="none" stroke="midnightblue" d="M725.11,-165.72C754.29,-157.63 793.28,-145.76 826.5,-132 844.13,-124.7 846.72,-118.94 864.5,-112 906.36,-95.65 956.3,-83.17 990.99,-75.54"/>
<polygon fill="midnightblue" stroke="midnightblue" points="723.95,-162.41 715.23,-168.42 725.8,-169.16 723.95,-162.41"/>
</g>
<!-- Node18 -->
<g id="node18" class="node">
<title>Node18</title>
<g id="a_node18"><a xlink:href="model__tester_8hpp.html" target="_top" xlink:title=" ">
<polygon fill="none" stroke="black" points="388,-112.5 388,-131.5 489,-131.5 489,-112.5 388,-112.5"/>
<text text-anchor="middle" x="438.5" y="-119.5" font-family="Helvetica,sans-Serif" font-size="10.00">model_tester.hpp</text>
</a>
</g>
</g>
<!-- Node9&#45;&gt;Node18 -->
<g id="edge30" class="edge">
<title>Node9&#45;&gt;Node18</title>
<path fill="none" stroke="midnightblue" d="M633.25,-166.28C587.37,-156.08 519.23,-140.94 476.91,-131.54"/>
<polygon fill="midnightblue" stroke="midnightblue" points="632.74,-169.75 643.26,-168.5 634.26,-162.92 632.74,-169.75"/>
</g>
<!-- Node9&#45;&gt;Node20 -->
<g id="edge33" class="edge">
<title>Node9&#45;&gt;Node20</title>
<path fill="none" stroke="midnightblue" d="M703.33,-162.62C718.31,-152.76 737.7,-139.99 750.36,-131.65"/>
<polygon fill="midnightblue" stroke="midnightblue" points="701.1,-159.9 694.67,-168.32 704.95,-165.75 701.1,-159.9"/>
</g>
<!-- Node21 -->
<g id="node21" class="node">
<title>Node21</title>
<g id="a_node21"><a xlink:href="testing__model_8test_8cpp.html" target="_top" xlink:title=" ">
<polygon fill="none" stroke="black" points="658.5,-56.5 658.5,-75.5 786.5,-75.5 786.5,-56.5 658.5,-56.5"/>
<text text-anchor="middle" x="722.5" y="-63.5" font-family="Helvetica,sans-Serif" font-size="10.00">testing_model.test.cpp</text>
</a>
</g>
</g>
<!-- Node9&#45;&gt;Node21 -->
<g id="edge37" class="edge">
<title>Node9&#45;&gt;Node21</title>
<path fill="none" stroke="midnightblue" d="M686.39,-158.73C690.09,-145.58 695.53,-127.49 701.5,-112 706.46,-99.13 713.42,-84.77 717.95,-75.81"/>
<polygon fill="midnightblue" stroke="midnightblue" points="682.99,-157.89 683.72,-168.46 689.74,-159.74 682.99,-157.89"/>
</g>
<!-- Node10&#45;&gt;Node4 -->
<g id="edge16" class="edge">
<title>Node10&#45;&gt;Node4</title>
<path fill="none" stroke="midnightblue" d="M235.31,-116.18C177.79,-109.02 98.58,-92.3 132.5,-56 173.06,-12.58 578.76,-9.94 733.75,-10.53"/>
<polygon fill="midnightblue" stroke="midnightblue" points="235.06,-119.67 245.4,-117.37 235.88,-112.72 235.06,-119.67"/>
</g>
<!-- Node10&#45;&gt;Node5 -->
<g id="edge17" class="edge">
<title>Node10&#45;&gt;Node5</title>
<path fill="none" stroke="midnightblue" d="M341.52,-115.57C353.67,-114.36 366.53,-113.11 378.5,-112 467.26,-103.75 725.44,-81.91 842.97,-72.01"/>
<polygon fill="midnightblue" stroke="midnightblue" points="341.12,-112.1 331.52,-116.57 341.82,-119.06 341.12,-112.1"/>
</g>
<!-- Node11 -->
<g id="node11" class="node">
<title>Node11</title>
<g id="a_node11"><a xlink:href="k1__model_8cpp.html" target="_top" xlink:title=" ">
<polygon fill="none" stroke="black" points="0,-56.5 0,-75.5 85,-75.5 85,-56.5 0,-56.5"/>
<text text-anchor="middle" x="42.5" y="-63.5" font-family="Helvetica,sans-Serif" font-size="10.00">k1_model.cpp</text>
</a>
</g>
</g>
<!-- Node10&#45;&gt;Node11 -->
<g id="edge13" class="edge">
<title>Node10&#45;&gt;Node11</title>
<path fill="none" stroke="midnightblue" d="M239.67,-110.28C193.18,-100.08 124.14,-84.92 81.3,-75.52"/>
<polygon fill="midnightblue" stroke="midnightblue" points="239,-113.72 249.52,-112.44 240.5,-106.88 239,-113.72"/>
</g>
<!-- Node10&#45;&gt;Node12 -->
<g id="edge14" class="edge">
<title>Node10&#45;&gt;Node12</title>
<path fill="none" stroke="midnightblue" d="M264.69,-107.18C247.58,-97.24 225.03,-84.15 210.4,-75.65"/>
<polygon fill="midnightblue" stroke="midnightblue" points="263.15,-110.33 273.56,-112.32 266.67,-104.28 263.15,-110.33"/>
</g>
<!-- Node13 -->
<g id="node13" class="node">
<title>Node13</title>
<g id="a_node13"><a xlink:href="tests_2ktl__model__scoring_2main_8cpp.html" target="_top" xlink:title=" ">
<polygon fill="none" stroke="black" points="386.5,-56.5 386.5,-75.5 448.5,-75.5 448.5,-56.5 386.5,-56.5"/>
<text text-anchor="middle" x="417.5" y="-63.5" font-family="Helvetica,sans-Serif" font-size="10.00">main.cpp</text>
</a>
</g>
</g>
<!-- Node10&#45;&gt;Node13 -->
<g id="edge15" class="edge">
<title>Node10&#45;&gt;Node13</title>
<path fill="none" stroke="midnightblue" d="M318.35,-108.5C342.54,-98.38 375.96,-84.39 397.16,-75.52"/>
<polygon fill="midnightblue" stroke="midnightblue" points="316.81,-105.35 308.94,-112.44 319.52,-111.81 316.81,-105.35"/>
</g>
<!-- Node14&#45;&gt;Node4 -->
<g id="edge22" class="edge">
<title>Node14&#45;&gt;Node4</title>
<path fill="none" stroke="midnightblue" d="M538.7,-108.65C510.51,-96.5 477.61,-76.79 495.5,-56 525.61,-21 655.86,-12.87 733.85,-11.2"/>
<polygon fill="midnightblue" stroke="midnightblue" points="537.42,-111.9 548,-112.47 540.08,-105.43 537.42,-111.9"/>
</g>
<!-- Node14&#45;&gt;Node5 -->
<g id="edge23" class="edge">
<title>Node14&#45;&gt;Node5</title>
<path fill="none" stroke="midnightblue" d="M625.59,-112.31C687.43,-102.19 788.94,-85.58 850.37,-75.53"/>
<polygon fill="midnightblue" stroke="midnightblue" points="624.95,-108.87 615.64,-113.94 626.08,-115.78 624.95,-108.87"/>
</g>
<!-- Node14&#45;&gt;Node13 -->
<g id="edge21" class="edge">
<title>Node14&#45;&gt;Node13</title>
<path fill="none" stroke="midnightblue" d="M538.17,-109.04C509,-98.88 467.86,-84.55 441.95,-75.52"/>
<polygon fill="midnightblue" stroke="midnightblue" points="537.34,-112.46 547.94,-112.44 539.65,-105.85 537.34,-112.46"/>
</g>
<!-- Node14&#45;&gt;Node15 -->
<g id="edge20" class="edge">
<title>Node14&#45;&gt;Node15</title>
<path fill="none" stroke="midnightblue" d="M572.5,-101.8C572.5,-92.91 572.5,-82.78 572.5,-75.75"/>
<polygon fill="midnightblue" stroke="midnightblue" points="569,-102.08 572.5,-112.08 576,-102.08 569,-102.08"/>
</g>
<!-- Node16&#45;&gt;Node4 -->
<g id="edge27" class="edge">
<title>Node16&#45;&gt;Node4</title>
<path fill="none" stroke="midnightblue" d="M969.69,-111.13C1019.86,-101.28 1088.55,-86.18 1096.5,-76 1101.97,-68.99 1102.31,-62.73 1096.5,-56 1092.54,-51.41 940.24,-30.49 853.11,-18.86"/>
<polygon fill="midnightblue" stroke="midnightblue" points="968.76,-107.74 959.61,-113.09 970.09,-114.62 968.76,-107.74"/>
</g>
<!-- Node16&#45;&gt;Node5 -->
<g id="edge28" class="edge">
<title>Node16&#45;&gt;Node5</title>
<path fill="none" stroke="midnightblue" d="M911.68,-102.4C909.33,-93.36 906.63,-82.94 904.77,-75.75"/>
<polygon fill="midnightblue" stroke="midnightblue" points="908.29,-103.28 914.19,-112.08 915.07,-101.52 908.29,-103.28"/>
</g>
<!-- Node16&#45;&gt;Node17 -->
<g id="edge26" class="edge">
<title>Node16&#45;&gt;Node17</title>
<path fill="none" stroke="midnightblue" d="M944.16,-108.23C966.05,-98.13 996,-84.31 1015.05,-75.52"/>
<polygon fill="midnightblue" stroke="midnightblue" points="942.65,-105.08 935.04,-112.44 945.59,-111.43 942.65,-105.08"/>
</g>
<!-- Node18&#45;&gt;Node13 -->
<g id="edge31" class="edge">
<title>Node18&#45;&gt;Node13</title>
<path fill="none" stroke="midnightblue" d="M431.38,-102.69C427.84,-93.59 423.73,-83.01 420.9,-75.75"/>
<polygon fill="midnightblue" stroke="midnightblue" points="428.15,-104.03 435.03,-112.08 434.67,-101.49 428.15,-104.03"/>
</g>
<!-- Node19 -->
<g id="node19" class="node">
<title>Node19</title>
<g id="a_node19"><a xlink:href="model__tester_8cpp.html" target="_top" xlink:title=" ">
<polygon fill="none" stroke="black" points="267,-56.5 267,-75.5 368,-75.5 368,-56.5 267,-56.5"/>
<text text-anchor="middle" x="317.5" y="-63.5" font-family="Helvetica,sans-Serif" font-size="10.00">model_tester.cpp</text>
</a>
</g>
</g>
<!-- Node18&#45;&gt;Node19 -->
<g id="edge32" class="edge">
<title>Node18&#45;&gt;Node19</title>
<path fill="none" stroke="midnightblue" d="M410.19,-108.37C387.53,-98.26 356.37,-84.35 336.58,-75.52"/>
<polygon fill="midnightblue" stroke="midnightblue" points="408.77,-111.56 419.33,-112.44 411.62,-105.17 408.77,-111.56"/>
</g>
<!-- Node20&#45;&gt;Node4 -->
<g id="edge35" class="edge">
<title>Node20&#45;&gt;Node4</title>
<path fill="none" stroke="midnightblue" d="M778.95,-104.55C785.4,-96.57 792.16,-86.46 795.5,-76 801.68,-56.64 798.18,-32.37 795.56,-19.67"/>
<polygon fill="midnightblue" stroke="midnightblue" points="776.15,-102.44 772.25,-112.29 781.44,-107.02 776.15,-102.44"/>
</g>
<!-- Node20&#45;&gt;Node5 -->
<g id="edge36" class="edge">
<title>Node20&#45;&gt;Node5</title>
<path fill="none" stroke="midnightblue" d="M794.98,-108.77C821.09,-98.63 857.54,-84.47 880.58,-75.52"/>
<polygon fill="midnightblue" stroke="midnightblue" points="793.58,-105.56 785.52,-112.44 796.11,-112.08 793.58,-105.56"/>
</g>
<!-- Node20&#45;&gt;Node21 -->
<g id="edge34" class="edge">
<title>Node20&#45;&gt;Node21</title>
<path fill="none" stroke="midnightblue" d="M750.48,-103.86C743.38,-94.5 734.9,-83.33 729.14,-75.75"/>
<polygon fill="midnightblue" stroke="midnightblue" points="747.89,-106.24 756.73,-112.08 753.47,-102 747.89,-106.24"/>
</g>
</g>
</svg>
