<?xml version="1.0" encoding="UTF-8" standalone="no"?>
<!DOCTYPE svg PUBLIC "-//W3C//DTD SVG 1.1//EN"
 "http://www.w3.org/Graphics/SVG/1.1/DTD/svg11.dtd">
<!-- Generated by graphviz version 2.43.0 (0)
 -->
<!-- Title: symbol_stream.hpp Pages: 1 -->
<svg width="1448pt" height="252pt"
 viewBox="0.00 0.00 1447.92 252.00" xmlns="http://www.w3.org/2000/svg" xmlns:xlink="http://www.w3.org/1999/xlink">
<g id="graph0" class="graph" transform="scale(1 1) rotate(0) translate(4 248)">
<title>symbol_stream.hpp</title>
<!-- Node1 -->
<g id="node1" class="node">
<title>Node1</title>
<g id="a_node1"><a xlink:title=" ">
<polygon fill="#bfbfbf" stroke="black" points="295.5,-224.5 295.5,-243.5 408.5,-243.5 408.5,-224.5 295.5,-224.5"/>
<text text-anchor="middle" x="352" y="-231.5" font-family="Helvetica,sans-Serif" font-size="10.00">symbol_stream.hpp</text>
</a>
</g>
</g>
<!-- Node2 -->
<g id="node2" class="node">
<title>Node2</title>
<g id="a_node2"><a xlink:title=" ">
<polygon fill="none" stroke="#bfbfbf" points="0,-168.5 0,-187.5 64,-187.5 64,-168.5 0,-168.5"/>
<text text-anchor="middle" x="32" y="-175.5" font-family="Helvetica,sans-Serif" font-size="10.00">algorithm</text>
</a>
</g>
</g>
<!-- Node1&#45;&gt;Node2 -->
<g id="edge1" class="edge">
<title>Node1&#45;&gt;Node2</title>
<path fill="none" stroke="midnightblue" d="M297.07,-224.48C241.69,-215.78 153.79,-201.64 78,-188 76.74,-187.77 75.46,-187.54 74.17,-187.3"/>
<polygon fill="midnightblue" stroke="midnightblue" points="74.62,-183.83 64.15,-185.42 73.33,-190.71 74.62,-183.83"/>
</g>
<!-- Node3 -->
<g id="node3" class="node">
<title>Node3</title>
<g id="a_node3"><a xlink:title=" ">
<polygon fill="none" stroke="#bfbfbf" points="362,-56.5 362,-75.5 404,-75.5 404,-56.5 362,-56.5"/>
<text text-anchor="middle" x="383" y="-63.5" font-family="Helvetica,sans-Serif" font-size="10.00">array</text>
</a>
</g>
</g>
<!-- Node1&#45;&gt;Node3 -->
<g id="edge2" class="edge">
<title>Node1&#45;&gt;Node3</title>
<path fill="none" stroke="midnightblue" d="M295.43,-230.27C232.99,-225.94 138.33,-215 116,-188 94.47,-161.97 94.19,-137.79 116,-112 145.84,-76.71 287.35,-69.08 351.39,-67.44"/>
<polygon fill="midnightblue" stroke="midnightblue" points="351.77,-70.94 361.69,-67.22 351.61,-63.94 351.77,-70.94"/>
</g>
<!-- Node4 -->
<g id="node4" class="node">
<title>Node4</title>
<g id="a_node4"><a xlink:title=" ">
<polygon fill="none" stroke="#bfbfbf" points="196,-112.5 196,-131.5 240,-131.5 240,-112.5 196,-112.5"/>
<text text-anchor="middle" x="218" y="-119.5" font-family="Helvetica,sans-Serif" font-size="10.00">bitset</text>
</a>
</g>
</g>
<!-- Node1&#45;&gt;Node4 -->
<g id="edge3" class="edge">
<title>Node1&#45;&gt;Node4</title>
<path fill="none" stroke="midnightblue" d="M341.49,-224.37C318.78,-205.73 264.94,-161.53 236.44,-138.13"/>
<polygon fill="midnightblue" stroke="midnightblue" points="238.42,-135.23 228.47,-131.59 233.97,-140.64 238.42,-135.23"/>
</g>
<!-- Node5 -->
<g id="node5" class="node">
<title>Node5</title>
<g id="a_node5"><a xlink:title=" ">
<polygon fill="none" stroke="#bfbfbf" points="258.5,-112.5 258.5,-131.5 305.5,-131.5 305.5,-112.5 258.5,-112.5"/>
<text text-anchor="middle" x="282" y="-119.5" font-family="Helvetica,sans-Serif" font-size="10.00">cmath</text>
</a>
</g>
</g>
<!-- Node1&#45;&gt;Node5 -->
<g id="edge4" class="edge">
<title>Node1&#45;&gt;Node5</title>
<path fill="none" stroke="midnightblue" d="M346.51,-224.37C335.01,-206.3 308.2,-164.18 293.01,-140.31"/>
<polygon fill="midnightblue" stroke="midnightblue" points="295.79,-138.15 287.47,-131.59 289.88,-141.91 295.79,-138.15"/>
</g>
<!-- Node6 -->
<g id="node6" class="node">
<title>Node6</title>
<g id="a_node6"><a xlink:title=" ">
<polygon fill="none" stroke="#bfbfbf" points="1237,-56.5 1237,-75.5 1287,-75.5 1287,-56.5 1237,-56.5"/>
<text text-anchor="middle" x="1262" y="-63.5" font-family="Helvetica,sans-Serif" font-size="10.00">cstdint</text>
</a>
</g>
</g>
<!-- Node1&#45;&gt;Node6 -->
<g id="edge5" class="edge">
<title>Node1&#45;&gt;Node6</title>
<path fill="none" stroke="midnightblue" d="M408.66,-233.2C587.74,-233.37 1139.92,-230.38 1313,-188 1370.56,-173.91 1402.09,-181.93 1434,-132 1466.6,-81 1356.54,-69.89 1297.28,-67.56"/>
<polygon fill="midnightblue" stroke="midnightblue" points="1297.3,-64.06 1287.19,-67.22 1297.07,-71.05 1297.3,-64.06"/>
</g>
<!-- Node7 -->
<g id="node7" class="node">
<title>Node7</title>
<g id="a_node7"><a xlink:title=" ">
<polygon fill="none" stroke="#bfbfbf" points="422.5,-56.5 422.5,-75.5 469.5,-75.5 469.5,-56.5 422.5,-56.5"/>
<text text-anchor="middle" x="446" y="-63.5" font-family="Helvetica,sans-Serif" font-size="10.00">deque</text>
</a>
</g>
</g>
<!-- Node1&#45;&gt;Node7 -->
<g id="edge6" class="edge">
<title>Node1&#45;&gt;Node7</title>
<path fill="none" stroke="midnightblue" d="M295.3,-227.89C243.18,-221.88 171.43,-209.83 154,-188 132.93,-161.6 131.82,-137.48 154,-112 190.37,-70.23 340.98,-85.98 412.36,-75.59"/>
<polygon fill="midnightblue" stroke="midnightblue" points="413.04,-79.02 422.29,-73.86 411.84,-72.13 413.04,-79.02"/>
</g>
<!-- Node8 -->
<g id="node8" class="node">
<title>Node8</title>
<g id="a_node8"><a xlink:title=" ">
<polygon fill="none" stroke="#bfbfbf" points="1214,-112.5 1214,-131.5 1252,-131.5 1252,-112.5 1214,-112.5"/>
<text text-anchor="middle" x="1233" y="-119.5" font-family="Helvetica,sans-Serif" font-size="10.00">map</text>
</a>
</g>
</g>
<!-- Node1&#45;&gt;Node8 -->
<g id="edge7" class="edge">
<title>Node1&#45;&gt;Node8</title>
<path fill="none" stroke="midnightblue" d="M408.58,-232.74C561.09,-231.54 978.12,-224.88 1110,-188 1148.6,-177.2 1188.85,-153.09 1212.39,-137.46"/>
<polygon fill="midnightblue" stroke="midnightblue" points="1214.52,-140.24 1220.83,-131.73 1210.59,-134.45 1214.52,-140.24"/>
</g>
<!-- Node9 -->
<g id="node9" class="node">
<title>Node9</title>
<g id="a_node9"><a xlink:title=" ">
<polygon fill="none" stroke="#bfbfbf" points="324,-112.5 324,-131.5 380,-131.5 380,-112.5 324,-112.5"/>
<text text-anchor="middle" x="352" y="-119.5" font-family="Helvetica,sans-Serif" font-size="10.00">sstream</text>
</a>
</g>
</g>
<!-- Node1&#45;&gt;Node9 -->
<g id="edge8" class="edge">
<title>Node1&#45;&gt;Node9</title>
<path fill="none" stroke="midnightblue" d="M352,-224.37C352,-206.62 352,-165.67 352,-141.6"/>
<polygon fill="midnightblue" stroke="midnightblue" points="355.5,-141.59 352,-131.59 348.5,-141.59 355.5,-141.59"/>
</g>
<!-- Node10 -->
<g id="node10" class="node">
<title>Node10</title>
<g id="a_node10"><a xlink:title=" ">
<polygon fill="none" stroke="#bfbfbf" points="487.5,-56.5 487.5,-75.5 534.5,-75.5 534.5,-56.5 487.5,-56.5"/>
<text text-anchor="middle" x="511" y="-63.5" font-family="Helvetica,sans-Serif" font-size="10.00">vector</text>
</a>
</g>
</g>
<!-- Node1&#45;&gt;Node10 -->
<g id="edge9" class="edge">
<title>Node1&#45;&gt;Node10</title>
<path fill="none" stroke="midnightblue" d="M320.09,-224.37C260.26,-206.72 141.24,-163.77 187,-112 228.3,-65.28 398.53,-86.56 477.27,-75.58"/>
<polygon fill="midnightblue" stroke="midnightblue" points="478.02,-79 487.3,-73.9 476.86,-72.1 478.02,-79"/>
</g>
<!-- Node11 -->
<g id="node11" class="node">
<title>Node11</title>
<g id="a_node11"><a xlink:href="binary__stream_8hpp.html" target="_top" xlink:title=" ">
<polygon fill="none" stroke="black" points="422,-168.5 422,-187.5 546,-187.5 546,-168.5 422,-168.5"/>
<text text-anchor="middle" x="484" y="-175.5" font-family="Helvetica,sans-Serif" font-size="10.00">ktl/binary_stream.hpp</text>
</a>
</g>
</g>
<!-- Node1&#45;&gt;Node11 -->
<g id="edge10" class="edge">
<title>Node1&#45;&gt;Node11</title>
<path fill="none" stroke="midnightblue" d="M372.92,-224.44C394.74,-215.52 429.15,-201.44 453.89,-191.32"/>
<polygon fill="midnightblue" stroke="midnightblue" points="455.25,-194.54 463.18,-187.52 452.6,-188.06 455.25,-194.54"/>
</g>
<!-- Node17 -->
<g id="node17" class="node">
<title>Node17</title>
<g id="a_node17"><a xlink:href="i__symbol__stream_8hpp.html" target="_top" xlink:title=" ">
<polygon fill="none" stroke="black" points="1270.5,-112.5 1270.5,-131.5 1407.5,-131.5 1407.5,-112.5 1270.5,-112.5"/>
<text text-anchor="middle" x="1339" y="-119.5" font-family="Helvetica,sans-Serif" font-size="10.00">ktl/i_symbol_stream.hpp</text>
</a>
</g>
</g>
<!-- Node1&#45;&gt;Node17 -->
<g id="edge24" class="edge">
<title>Node1&#45;&gt;Node17</title>
<path fill="none" stroke="midnightblue" d="M408.61,-232.97C599.06,-232.49 1208.98,-227.84 1287,-188 1306.85,-177.87 1321.65,-156.35 1330.29,-140.85"/>
<polygon fill="midnightblue" stroke="midnightblue" points="1333.54,-142.19 1335.06,-131.71 1327.33,-138.95 1333.54,-142.19"/>
</g>
<!-- Node18 -->
<g id="node18" class="node">
<title>Node18</title>
<g id="a_node18"><a xlink:href="symbol__model_8hpp.html" target="_top" xlink:title=" ">
<polygon fill="none" stroke="black" points="937,-168.5 937,-187.5 1101,-187.5 1101,-168.5 937,-168.5"/>
<text text-anchor="middle" x="1019" y="-175.5" font-family="Helvetica,sans-Serif" font-size="10.00">ktl/models/symbol_model.hpp</text>
</a>
</g>
</g>
<!-- Node1&#45;&gt;Node18 -->
<g id="edge26" class="edge">
<title>Node1&#45;&gt;Node18</title>
<path fill="none" stroke="midnightblue" d="M408.58,-228.42C523.74,-219.1 786.29,-197.84 926.59,-186.48"/>
<polygon fill="midnightblue" stroke="midnightblue" points="927.2,-189.94 936.89,-185.65 926.64,-182.97 927.2,-189.94"/>
</g>
<!-- Node22 -->
<g id="node22" class="node">
<title>Node22</title>
<g id="a_node22"><a xlink:href="symbol_8hpp.html" target="_top" xlink:title=" ">
<polygon fill="none" stroke="black" points="1188.5,-168.5 1188.5,-187.5 1277.5,-187.5 1277.5,-168.5 1188.5,-168.5"/>
<text text-anchor="middle" x="1233" y="-175.5" font-family="Helvetica,sans-Serif" font-size="10.00">ktl/symbol.hpp</text>
</a>
</g>
</g>
<!-- Node1&#45;&gt;Node22 -->
<g id="edge42" class="edge">
<title>Node1&#45;&gt;Node22</title>
<path fill="none" stroke="midnightblue" d="M408.84,-231.11C540.79,-226.44 878.05,-212.89 1159,-188 1165.26,-187.45 1171.81,-186.78 1178.31,-186.06"/>
<polygon fill="midnightblue" stroke="midnightblue" points="1178.9,-189.51 1188.44,-184.9 1178.11,-182.56 1178.9,-189.51"/>
</g>
<!-- Node11&#45;&gt;Node3 -->
<g id="edge11" class="edge">
<title>Node11&#45;&gt;Node3</title>
<path fill="none" stroke="midnightblue" d="M476.07,-168.37C459.19,-149.97 419.43,-106.67 397.74,-83.05"/>
<polygon fill="midnightblue" stroke="midnightblue" points="400.23,-80.59 390.89,-75.59 395.07,-85.32 400.23,-80.59"/>
</g>
<!-- Node11&#45;&gt;Node4 -->
<g id="edge12" class="edge">
<title>Node11&#45;&gt;Node4</title>
<path fill="none" stroke="midnightblue" d="M431.9,-168.46C386.32,-160.67 318.16,-148.23 250.29,-132.14"/>
<polygon fill="midnightblue" stroke="midnightblue" points="250.83,-128.67 240.28,-129.74 249.19,-135.48 250.83,-128.67"/>
</g>
<!-- Node11&#45;&gt;Node5 -->
<g id="edge13" class="edge">
<title>Node11&#45;&gt;Node5</title>
<path fill="none" stroke="midnightblue" d="M451.59,-168.43C419.55,-159.95 368.87,-146.49 315.74,-132.19"/>
<polygon fill="midnightblue" stroke="midnightblue" points="316.35,-128.73 305.79,-129.51 314.53,-135.49 316.35,-128.73"/>
</g>
<!-- Node11&#45;&gt;Node6 -->
<g id="edge14" class="edge">
<title>Node11&#45;&gt;Node6</title>
<path fill="none" stroke="midnightblue" d="M546.1,-171.28C605.57,-164.9 697.44,-152.66 775,-132 798.93,-125.63 802.92,-117.77 827,-112 972.32,-77.19 1151.32,-69.31 1226.31,-67.52"/>
<polygon fill="midnightblue" stroke="midnightblue" points="1226.68,-71.01 1236.6,-67.3 1226.53,-64.02 1226.68,-71.01"/>
</g>
<!-- Node11&#45;&gt;Node7 -->
<g id="edge15" class="edge">
<title>Node11&#45;&gt;Node7</title>
<path fill="none" stroke="midnightblue" d="M481.02,-168.37C474.86,-150.54 460.61,-109.3 452.31,-85.27"/>
<polygon fill="midnightblue" stroke="midnightblue" points="455.54,-83.9 448.97,-75.59 448.93,-86.19 455.54,-83.9"/>
</g>
<!-- Node11&#45;&gt;Node8 -->
<g id="edge17" class="edge">
<title>Node11&#45;&gt;Node8</title>
<path fill="none" stroke="midnightblue" d="M546.27,-174.35C666.49,-168.92 938.81,-155.05 1167,-132 1179.16,-130.77 1192.52,-129.02 1204.03,-127.4"/>
<polygon fill="midnightblue" stroke="midnightblue" points="1204.59,-130.85 1213.98,-125.95 1203.58,-123.92 1204.59,-130.85"/>
</g>
<!-- Node11&#45;&gt;Node9 -->
<g id="edge20" class="edge">
<title>Node11&#45;&gt;Node9</title>
<path fill="none" stroke="midnightblue" d="M463.08,-168.44C441.26,-159.52 406.85,-145.44 382.11,-135.32"/>
<polygon fill="midnightblue" stroke="midnightblue" points="383.4,-132.06 372.82,-131.52 380.75,-138.54 383.4,-132.06"/>
</g>
<!-- Node11&#45;&gt;Node10 -->
<g id="edge21" class="edge">
<title>Node11&#45;&gt;Node10</title>
<path fill="none" stroke="midnightblue" d="M486.12,-168.37C490.48,-150.62 500.53,-109.67 506.44,-85.6"/>
<polygon fill="midnightblue" stroke="midnightblue" points="509.91,-86.14 508.89,-75.59 503.11,-84.47 509.91,-86.14"/>
</g>
<!-- Node12 -->
<g id="node12" class="node">
<title>Node12</title>
<g id="a_node12"><a xlink:title=" ">
<polygon fill="none" stroke="#bfbfbf" points="836,-112.5 836,-131.5 896,-131.5 896,-112.5 836,-112.5"/>
<text text-anchor="middle" x="866" y="-119.5" font-family="Helvetica,sans-Serif" font-size="10.00">iostream</text>
</a>
</g>
</g>
<!-- Node11&#45;&gt;Node12 -->
<g id="edge16" class="edge">
<title>Node11&#45;&gt;Node12</title>
<path fill="none" stroke="midnightblue" d="M546.18,-170.03C614.14,-162.11 726.12,-148.17 822,-132 823.25,-131.79 824.53,-131.57 825.81,-131.34"/>
<polygon fill="midnightblue" stroke="midnightblue" points="826.57,-134.76 835.76,-129.47 825.28,-127.88 826.57,-134.76"/>
</g>
<!-- Node13 -->
<g id="node13" class="node">
<title>Node13</title>
<g id="a_node13"><a xlink:title=" ">
<polygon fill="none" stroke="#bfbfbf" points="899,-56.5 899,-75.5 955,-75.5 955,-56.5 899,-56.5"/>
<text text-anchor="middle" x="927" y="-63.5" font-family="Helvetica,sans-Serif" font-size="10.00">optional</text>
</a>
</g>
</g>
<!-- Node11&#45;&gt;Node13 -->
<g id="edge18" class="edge">
<title>Node11&#45;&gt;Node13</title>
<path fill="none" stroke="midnightblue" d="M545.16,-168.47C595.9,-160.79 669.7,-148.23 733,-132 740.94,-129.96 838.31,-97.06 892,-78.87"/>
<polygon fill="midnightblue" stroke="midnightblue" points="893.45,-82.08 901.8,-75.55 891.21,-75.45 893.45,-82.08"/>
</g>
<!-- Node14 -->
<g id="node14" class="node">
<title>Node14</title>
<g id="a_node14"><a xlink:title=" ">
<polygon fill="none" stroke="#bfbfbf" points="580,-56.5 580,-75.5 620,-75.5 620,-56.5 580,-56.5"/>
<text text-anchor="middle" x="600" y="-63.5" font-family="Helvetica,sans-Serif" font-size="10.00">span</text>
</a>
</g>
</g>
<!-- Node11&#45;&gt;Node14 -->
<g id="edge19" class="edge">
<title>Node11&#45;&gt;Node14</title>
<path fill="none" stroke="midnightblue" d="M490.87,-168.09C501.1,-155.08 521.26,-130.44 541,-112 552.85,-100.93 567.32,-89.86 578.96,-81.48"/>
<polygon fill="midnightblue" stroke="midnightblue" points="581.08,-84.26 587.22,-75.63 577.04,-78.55 581.08,-84.26"/>
</g>
<!-- Node15 -->
<g id="node15" class="node">
<title>Node15</title>
<g id="a_node15"><a xlink:href="assert_8hpp.html" target="_top" xlink:title=" ">
<polygon fill="none" stroke="black" points="675.5,-56.5 675.5,-75.5 788.5,-75.5 788.5,-56.5 675.5,-56.5"/>
<text text-anchor="middle" x="732" y="-63.5" font-family="Helvetica,sans-Serif" font-size="10.00">common/assert.hpp</text>
</a>
</g>
</g>
<!-- Node11&#45;&gt;Node15 -->
<g id="edge22" class="edge">
<title>Node11&#45;&gt;Node15</title>
<path fill="none" stroke="midnightblue" d="M546.08,-172.01C605.34,-166.01 689.03,-153.9 713,-132 725.87,-120.25 730.2,-100.31 731.57,-85.61"/>
<polygon fill="midnightblue" stroke="midnightblue" points="735.07,-85.79 732.14,-75.61 728.08,-85.4 735.07,-85.79"/>
</g>
<!-- Node16 -->
<g id="node16" class="node">
<title>Node16</title>
<g id="a_node16"><a xlink:title=" ">
<polygon fill="none" stroke="#bfbfbf" points="710,-0.5 710,-19.5 754,-19.5 754,-0.5 710,-0.5"/>
<text text-anchor="middle" x="732" y="-7.5" font-family="Helvetica,sans-Serif" font-size="10.00">string</text>
</a>
</g>
</g>
<!-- Node15&#45;&gt;Node16 -->
<g id="edge23" class="edge">
<title>Node15&#45;&gt;Node16</title>
<path fill="none" stroke="midnightblue" d="M732,-56.08C732,-49.01 732,-38.86 732,-29.99"/>
<polygon fill="midnightblue" stroke="midnightblue" points="735.5,-29.75 732,-19.75 728.5,-29.75 735.5,-29.75"/>
</g>
<!-- Node17&#45;&gt;Node6 -->
<g id="edge25" class="edge">
<title>Node17&#45;&gt;Node6</title>
<path fill="none" stroke="midnightblue" d="M1326.63,-112.32C1314.84,-104.06 1296.87,-91.45 1282.86,-81.63"/>
<polygon fill="midnightblue" stroke="midnightblue" points="1284.54,-78.53 1274.34,-75.65 1280.52,-84.26 1284.54,-78.53"/>
</g>
<!-- Node18&#45;&gt;Node6 -->
<g id="edge28" class="edge">
<title>Node18&#45;&gt;Node6</title>
<path fill="none" stroke="midnightblue" d="M1058.55,-168.46C1089.08,-161.05 1131.9,-148.85 1167,-132 1195.64,-118.25 1225.35,-96.51 1243.75,-82.01"/>
<polygon fill="midnightblue" stroke="midnightblue" points="1246.21,-84.52 1251.82,-75.53 1241.83,-79.06 1246.21,-84.52"/>
</g>
<!-- Node18&#45;&gt;Node8 -->
<g id="edge30" class="edge">
<title>Node18&#45;&gt;Node8</title>
<path fill="none" stroke="midnightblue" d="M1054.44,-168.44C1090.97,-159.56 1149.55,-145.15 1200,-132 1201.26,-131.67 1202.55,-131.33 1203.85,-130.99"/>
<polygon fill="midnightblue" stroke="midnightblue" points="1205.08,-134.28 1213.82,-128.31 1203.26,-127.52 1205.08,-134.28"/>
</g>
<!-- Node18&#45;&gt;Node12 -->
<g id="edge29" class="edge">
<title>Node18&#45;&gt;Node12</title>
<path fill="none" stroke="midnightblue" d="M994.76,-168.44C969.13,-159.4 928.51,-145.06 899.76,-134.92"/>
<polygon fill="midnightblue" stroke="midnightblue" points="900.72,-131.54 890.13,-131.52 898.39,-138.15 900.72,-131.54"/>
</g>
<!-- Node18&#45;&gt;Node15 -->
<g id="edge31" class="edge">
<title>Node18&#45;&gt;Node15</title>
<path fill="none" stroke="midnightblue" d="M1004.42,-168.4C976.05,-151.71 915.29,-116.18 905,-112 867.19,-96.62 822.57,-85.17 788.12,-77.66"/>
<polygon fill="midnightblue" stroke="midnightblue" points="788.74,-74.22 778.23,-75.56 787.28,-81.06 788.74,-74.22"/>
</g>
<!-- Node18&#45;&gt;Node17 -->
<g id="edge41" class="edge">
<title>Node18&#45;&gt;Node17</title>
<path fill="none" stroke="midnightblue" d="M1069.7,-168.44C1126.35,-158.89 1218,-143.42 1278.38,-133.23"/>
<polygon fill="midnightblue" stroke="midnightblue" points="1279.25,-136.63 1288.53,-131.52 1278.09,-129.73 1279.25,-136.63"/>
</g>
<!-- Node19 -->
<g id="node19" class="node">
<title>Node19</title>
<g id="a_node19"><a xlink:title=" ">
<polygon fill="none" stroke="#bfbfbf" points="1104.5,-112.5 1104.5,-131.5 1157.5,-131.5 1157.5,-112.5 1104.5,-112.5"/>
<text text-anchor="middle" x="1131" y="-119.5" font-family="Helvetica,sans-Serif" font-size="10.00">cstddef</text>
</a>
</g>
</g>
<!-- Node18&#45;&gt;Node19 -->
<g id="edge27" class="edge">
<title>Node18&#45;&gt;Node19</title>
<path fill="none" stroke="midnightblue" d="M1036.99,-168.32C1055.04,-159.62 1083.05,-146.12 1103.8,-136.11"/>
<polygon fill="midnightblue" stroke="midnightblue" points="1105.56,-139.15 1113.05,-131.65 1102.52,-132.84 1105.56,-139.15"/>
</g>
<!-- Node20 -->
<g id="node20" class="node">
<title>Node20</title>
<g id="a_node20"><a xlink:href="audio__channel_8hpp.html" target="_top" xlink:title=" ">
<polygon fill="none" stroke="black" points="550,-112.5 550,-131.5 704,-131.5 704,-112.5 550,-112.5"/>
<text text-anchor="middle" x="627" y="-119.5" font-family="Helvetica,sans-Serif" font-size="10.00">ktl/audio/audio_channel.hpp</text>
</a>
</g>
</g>
<!-- Node18&#45;&gt;Node20 -->
<g id="edge32" class="edge">
<title>Node18&#45;&gt;Node20</title>
<path fill="none" stroke="midnightblue" d="M956.89,-168.44C886.78,-158.79 772.91,-143.1 698.98,-132.92"/>
<polygon fill="midnightblue" stroke="midnightblue" points="699.21,-129.41 688.82,-131.52 698.25,-136.35 699.21,-129.41"/>
</g>
<!-- Node21 -->
<g id="node21" class="node">
<title>Node21</title>
<g id="a_node21"><a xlink:href="encoder__context_8hpp.html" target="_top" xlink:title=" ">
<polygon fill="none" stroke="black" points="952,-112.5 952,-131.5 1086,-131.5 1086,-112.5 952,-112.5"/>
<text text-anchor="middle" x="1019" y="-119.5" font-family="Helvetica,sans-Serif" font-size="10.00">ktl/encoder_context.hpp</text>
</a>
</g>
</g>
<!-- Node18&#45;&gt;Node21 -->
<g id="edge39" class="edge">
<title>Node18&#45;&gt;Node21</title>
<path fill="none" stroke="midnightblue" d="M1019,-168.08C1019,-161.01 1019,-150.86 1019,-141.99"/>
<polygon fill="midnightblue" stroke="midnightblue" points="1022.5,-141.75 1019,-131.75 1015.5,-141.75 1022.5,-141.75"/>
</g>
<!-- Node20&#45;&gt;Node3 -->
<g id="edge33" class="edge">
<title>Node20&#45;&gt;Node3</title>
<path fill="none" stroke="midnightblue" d="M580.82,-112.46C539.43,-104.54 476.87,-91.92 413.94,-76.08"/>
<polygon fill="midnightblue" stroke="midnightblue" points="414.8,-72.69 404.24,-73.61 413.07,-79.47 414.8,-72.69"/>
</g>
<!-- Node20&#45;&gt;Node6 -->
<g id="edge34" class="edge">
<title>Node20&#45;&gt;Node6</title>
<path fill="none" stroke="midnightblue" d="M704.23,-114.43C842.47,-102.68 1127.08,-78.47 1226.66,-70.01"/>
<polygon fill="midnightblue" stroke="midnightblue" points="1227.12,-73.48 1236.79,-69.14 1226.53,-66.5 1227.12,-73.48"/>
</g>
<!-- Node20&#45;&gt;Node7 -->
<g id="edge35" class="edge">
<title>Node20&#45;&gt;Node7</title>
<path fill="none" stroke="midnightblue" d="M598.32,-112.44C566.07,-102.82 513.76,-87.21 479.61,-77.03"/>
<polygon fill="midnightblue" stroke="midnightblue" points="480.23,-73.56 469.64,-74.05 478.22,-80.27 480.23,-73.56"/>
</g>
<!-- Node20&#45;&gt;Node10 -->
<g id="edge37" class="edge">
<title>Node20&#45;&gt;Node10</title>
<path fill="none" stroke="midnightblue" d="M608.62,-112.44C589.78,-103.68 560.27,-89.94 538.62,-79.86"/>
<polygon fill="midnightblue" stroke="midnightblue" points="539.84,-76.56 529.29,-75.52 536.88,-82.91 539.84,-76.56"/>
</g>
<!-- Node20&#45;&gt;Node14 -->
<g id="edge36" class="edge">
<title>Node20&#45;&gt;Node14</title>
<path fill="none" stroke="midnightblue" d="M622.54,-112.08C618.85,-104.69 613.48,-93.95 608.91,-84.81"/>
<polygon fill="midnightblue" stroke="midnightblue" points="611.98,-83.13 604.38,-75.75 605.72,-86.26 611.98,-83.13"/>
</g>
<!-- Node20&#45;&gt;Node15 -->
<g id="edge38" class="edge">
<title>Node20&#45;&gt;Node15</title>
<path fill="none" stroke="midnightblue" d="M643.87,-112.32C660.71,-103.66 686.81,-90.24 706.24,-80.25"/>
<polygon fill="midnightblue" stroke="midnightblue" points="707.88,-83.34 715.17,-75.65 704.68,-77.12 707.88,-83.34"/>
</g>
<!-- Node21&#45;&gt;Node13 -->
<g id="edge40" class="edge">
<title>Node21&#45;&gt;Node13</title>
<path fill="none" stroke="midnightblue" d="M1004.22,-112.32C989.73,-103.82 967.43,-90.73 950.51,-80.8"/>
<polygon fill="midnightblue" stroke="midnightblue" points="952.14,-77.7 941.74,-75.65 948.6,-83.74 952.14,-77.7"/>
</g>
<!-- Node22&#45;&gt;Node6 -->
<g id="edge43" class="edge">
<title>Node22&#45;&gt;Node6</title>
<path fill="none" stroke="midnightblue" d="M1277.67,-172.35C1326.47,-166.24 1399.99,-153.67 1417,-132 1450.6,-89.2 1353,-74.26 1297.52,-69.31"/>
<polygon fill="midnightblue" stroke="midnightblue" points="1297.61,-65.8 1287.36,-68.47 1297.04,-72.78 1297.61,-65.8"/>
</g>
<!-- Node22&#45;&gt;Node8 -->
<g id="edge44" class="edge">
<title>Node22&#45;&gt;Node8</title>
<path fill="none" stroke="midnightblue" d="M1233,-168.08C1233,-161.01 1233,-150.86 1233,-141.99"/>
<polygon fill="midnightblue" stroke="midnightblue" points="1236.5,-141.75 1233,-131.75 1229.5,-141.75 1236.5,-141.75"/>
</g>
</g>
</svg>
