<?xml version="1.0" encoding="UTF-8" standalone="no"?>
<!DOCTYPE svg PUBLIC "-//W3C//DTD SVG 1.1//EN"
 "http://www.w3.org/Graphics/SVG/1.1/DTD/svg11.dtd">
<!-- Generated by graphviz version 2.43.0 (0)
 -->
<!-- Title: symbol_model.hpp Pages: 1 -->
<svg width="1327pt" height="308pt"
 viewBox="0.00 0.00 1326.50 308.00" xmlns="http://www.w3.org/2000/svg" xmlns:xlink="http://www.w3.org/1999/xlink">
<g id="graph0" class="graph" transform="scale(1 1) rotate(0) translate(4 304)">
<title>symbol_model.hpp</title>
<!-- Node1 -->
<g id="node1" class="node">
<title>Node1</title>
<g id="a_node1"><a xlink:title=" ">
<polygon fill="#bfbfbf" stroke="black" points="774.5,-280.5 774.5,-299.5 884.5,-299.5 884.5,-280.5 774.5,-280.5"/>
<text text-anchor="middle" x="829.5" y="-287.5" font-family="Helvetica,sans-Serif" font-size="10.00">symbol_model.hpp</text>
</a>
</g>
</g>
<!-- Node2 -->
<g id="node2" class="node">
<title>Node2</title>
<g id="a_node2"><a xlink:href="binary__model_8hpp.html" target="_top" xlink:title=" ">
<polygon fill="none" stroke="black" points="1014.5,-112.5 1014.5,-131.5 1118.5,-131.5 1118.5,-112.5 1014.5,-112.5"/>
<text text-anchor="middle" x="1066.5" y="-119.5" font-family="Helvetica,sans-Serif" font-size="10.00">binary_model.hpp</text>
</a>
</g>
</g>
<!-- Node1&#45;&gt;Node2 -->
<g id="edge1" class="edge">
<title>Node1&#45;&gt;Node2</title>
<path fill="none" stroke="midnightblue" d="M894.92,-289.31C949.18,-286.91 1026.68,-277.13 1085.5,-244 1120.52,-224.28 1153.52,-203.4 1134.5,-168 1125.12,-150.54 1105.66,-138.72 1089.95,-131.59"/>
<polygon fill="midnightblue" stroke="midnightblue" points="894.59,-285.82 884.73,-289.69 894.85,-292.82 894.59,-285.82"/>
</g>
<!-- Node9 -->
<g id="node9" class="node">
<title>Node9</title>
<g id="a_node9"><a xlink:href="k1__model_8hpp.html" target="_top" xlink:title=" ">
<polygon fill="none" stroke="black" points="399.5,-112.5 399.5,-131.5 485.5,-131.5 485.5,-112.5 399.5,-112.5"/>
<text text-anchor="middle" x="442.5" y="-119.5" font-family="Helvetica,sans-Serif" font-size="10.00">k1_model.hpp</text>
</a>
</g>
</g>
<!-- Node1&#45;&gt;Node9 -->
<g id="edge9" class="edge">
<title>Node1&#45;&gt;Node9</title>
<path fill="none" stroke="midnightblue" d="M788.39,-277.7C759.31,-269.34 719.6,-257.15 685.5,-244 630.21,-222.67 617.56,-214.39 564.5,-188 525.82,-168.76 481.22,-144.44 458.15,-131.7"/>
<polygon fill="midnightblue" stroke="midnightblue" points="787.62,-281.12 798.2,-280.5 789.54,-274.39 787.62,-281.12"/>
</g>
<!-- Node13 -->
<g id="node13" class="node">
<title>Node13</title>
<g id="a_node13"><a xlink:href="k2__model_8hpp.html" target="_top" xlink:title=" ">
<polygon fill="none" stroke="black" points="528.5,-112.5 528.5,-131.5 614.5,-131.5 614.5,-112.5 528.5,-112.5"/>
<text text-anchor="middle" x="571.5" y="-119.5" font-family="Helvetica,sans-Serif" font-size="10.00">k2_model.hpp</text>
</a>
</g>
</g>
<!-- Node1&#45;&gt;Node13 -->
<g id="edge15" class="edge">
<title>Node1&#45;&gt;Node13</title>
<path fill="none" stroke="midnightblue" d="M796.61,-276.65C755.35,-260.23 683.57,-228.49 630.5,-188 608.45,-171.18 587.93,-145.42 577.91,-131.94"/>
<polygon fill="midnightblue" stroke="midnightblue" points="795.58,-280.01 806.17,-280.4 798.13,-273.49 795.58,-280.01"/>
</g>
<!-- Node15 -->
<g id="node15" class="node">
<title>Node15</title>
<g id="a_node15"><a xlink:href="k3__model_8hpp.html" target="_top" xlink:title=" ">
<polygon fill="none" stroke="black" points="910.5,-112.5 910.5,-131.5 996.5,-131.5 996.5,-112.5 910.5,-112.5"/>
<text text-anchor="middle" x="953.5" y="-119.5" font-family="Helvetica,sans-Serif" font-size="10.00">k3_model.hpp</text>
</a>
</g>
</g>
<!-- Node1&#45;&gt;Node15 -->
<g id="edge20" class="edge">
<title>Node1&#45;&gt;Node15</title>
<path fill="none" stroke="midnightblue" d="M894.93,-287.13C963.94,-281.22 1069.48,-260.07 1119.5,-188 1124.57,-180.7 1124.9,-175.06 1119.5,-168 1111.83,-157.98 1041.95,-141.58 995.33,-131.59"/>
<polygon fill="midnightblue" stroke="midnightblue" points="894.3,-283.67 884.6,-287.93 894.84,-290.65 894.3,-283.67"/>
</g>
<!-- Node17 -->
<g id="node17" class="node">
<title>Node17</title>
<g id="a_node17"><a xlink:href="model__tester_8hpp.html" target="_top" xlink:title=" ">
<polygon fill="none" stroke="black" points="266,-112.5 266,-131.5 367,-131.5 367,-112.5 266,-112.5"/>
<text text-anchor="middle" x="316.5" y="-119.5" font-family="Helvetica,sans-Serif" font-size="10.00">model_tester.hpp</text>
</a>
</g>
</g>
<!-- Node1&#45;&gt;Node17 -->
<g id="edge24" class="edge">
<title>Node1&#45;&gt;Node17</title>
<path fill="none" stroke="midnightblue" d="M774.29,-278.46C734.72,-270.39 680.36,-258.25 633.5,-244 518.53,-209.04 385.49,-152.96 336.19,-131.62"/>
<polygon fill="midnightblue" stroke="midnightblue" points="773.78,-281.93 784.27,-280.48 775.16,-275.07 773.78,-281.93"/>
</g>
<!-- Node19 -->
<g id="node19" class="node">
<title>Node19</title>
<g id="a_node19"><a xlink:href="symbol__stream_8hpp.html" target="_top" xlink:title=" ">
<polygon fill="none" stroke="black" points="816,-224.5 816,-243.5 929,-243.5 929,-224.5 816,-224.5"/>
<text text-anchor="middle" x="872.5" y="-231.5" font-family="Helvetica,sans-Serif" font-size="10.00">symbol_stream.hpp</text>
</a>
</g>
</g>
<!-- Node1&#45;&gt;Node19 -->
<g id="edge27" class="edge">
<title>Node1&#45;&gt;Node19</title>
<path fill="none" stroke="midnightblue" d="M842.92,-272.14C850.41,-262.74 859.44,-251.4 865.53,-243.75"/>
<polygon fill="midnightblue" stroke="midnightblue" points="840.09,-270.08 836.6,-280.08 845.57,-274.44 840.09,-270.08"/>
</g>
<!-- Node21 -->
<g id="node21" class="node">
<title>Node21</title>
<g id="a_node21"><a xlink:href="testing__model_8hpp.html" target="_top" xlink:title=" ">
<polygon fill="none" stroke="black" points="785,-112.5 785,-131.5 892,-131.5 892,-112.5 785,-112.5"/>
<text text-anchor="middle" x="838.5" y="-119.5" font-family="Helvetica,sans-Serif" font-size="10.00">testing_model.hpp</text>
</a>
</g>
</g>
<!-- Node1&#45;&gt;Node21 -->
<g id="edge50" class="edge">
<title>Node1&#45;&gt;Node21</title>
<path fill="none" stroke="midnightblue" d="M818.74,-271.69C814.32,-263.59 809.73,-253.64 807.5,-244 797.72,-201.75 822.14,-151.66 833.3,-131.77"/>
<polygon fill="midnightblue" stroke="midnightblue" points="815.8,-273.6 823.86,-280.48 821.85,-270.08 815.8,-273.6"/>
</g>
<!-- Node23 -->
<g id="node23" class="node">
<title>Node23</title>
<g id="a_node23"><a xlink:href="symbol__stream_8test_8cpp.html" target="_top" xlink:title=" ">
<polygon fill="none" stroke="black" points="976.5,-168.5 976.5,-187.5 1110.5,-187.5 1110.5,-168.5 976.5,-168.5"/>
<text text-anchor="middle" x="1043.5" y="-175.5" font-family="Helvetica,sans-Serif" font-size="10.00">symbol_stream.test.cpp</text>
</a>
</g>
</g>
<!-- Node1&#45;&gt;Node23 -->
<g id="edge49" class="edge">
<title>Node1&#45;&gt;Node23</title>
<path fill="none" stroke="midnightblue" d="M862.91,-276.83C884.81,-268.46 913.84,-256.62 938.5,-244 973.24,-226.23 1011.65,-200.87 1030.96,-187.7"/>
<polygon fill="midnightblue" stroke="midnightblue" points="861.51,-273.62 853.39,-280.42 863.98,-280.17 861.51,-273.62"/>
</g>
<!-- Node3 -->
<g id="node3" class="node">
<title>Node3</title>
<g id="a_node3"><a xlink:href="binary__model_8test_8cpp.html" target="_top" xlink:title=" ">
<polygon fill="none" stroke="black" points="1183,-56.5 1183,-75.5 1308,-75.5 1308,-56.5 1183,-56.5"/>
<text text-anchor="middle" x="1245.5" y="-63.5" font-family="Helvetica,sans-Serif" font-size="10.00">binary_model.test.cpp</text>
</a>
</g>
</g>
<!-- Node2&#45;&gt;Node3 -->
<g id="edge2" class="edge">
<title>Node2&#45;&gt;Node3</title>
<path fill="none" stroke="midnightblue" d="M1104.83,-109.44C1138.58,-99.26 1186.95,-84.66 1217.27,-75.52"/>
<polygon fill="midnightblue" stroke="midnightblue" points="1103.43,-106.2 1094.86,-112.44 1105.45,-112.91 1103.43,-106.2"/>
</g>
<!-- Node4 -->
<g id="node4" class="node">
<title>Node4</title>
<g id="a_node4"><a xlink:href="translation__layer_8cpp.html" target="_top" xlink:title=" ">
<polygon fill="none" stroke="black" points="881,-0.5 881,-19.5 1000,-19.5 1000,-0.5 881,-0.5"/>
<text text-anchor="middle" x="940.5" y="-7.5" font-family="Helvetica,sans-Serif" font-size="10.00">translation_layer.cpp</text>
</a>
</g>
</g>
<!-- Node2&#45;&gt;Node4 -->
<g id="edge3" class="edge">
<title>Node2&#45;&gt;Node4</title>
<path fill="none" stroke="midnightblue" d="M1097.58,-107.99C1122.67,-95.62 1151.4,-75.99 1135.5,-56 1126.5,-44.68 1046.72,-29.05 992.04,-19.5"/>
<polygon fill="midnightblue" stroke="midnightblue" points="1095.81,-104.96 1088.24,-112.37 1098.78,-111.3 1095.81,-104.96"/>
</g>
<!-- Node5 -->
<g id="node5" class="node">
<title>Node5</title>
<g id="a_node5"><a xlink:href="translation__layer_8hpp.html" target="_top" xlink:title=" ">
<polygon fill="none" stroke="black" points="1007,-56.5 1007,-75.5 1126,-75.5 1126,-56.5 1007,-56.5"/>
<text text-anchor="middle" x="1066.5" y="-63.5" font-family="Helvetica,sans-Serif" font-size="10.00">translation_layer.hpp</text>
</a>
</g>
</g>
<!-- Node2&#45;&gt;Node5 -->
<g id="edge4" class="edge">
<title>Node2&#45;&gt;Node5</title>
<path fill="none" stroke="midnightblue" d="M1066.5,-101.8C1066.5,-92.91 1066.5,-82.78 1066.5,-75.75"/>
<polygon fill="midnightblue" stroke="midnightblue" points="1063,-102.08 1066.5,-112.08 1070,-102.08 1063,-102.08"/>
</g>
<!-- Node5&#45;&gt;Node4 -->
<g id="edge7" class="edge">
<title>Node5&#45;&gt;Node4</title>
<path fill="none" stroke="midnightblue" d="M1037.34,-52.5C1013.72,-42.38 981.07,-28.39 960.37,-19.52"/>
<polygon fill="midnightblue" stroke="midnightblue" points="1035.96,-55.72 1046.53,-56.44 1038.72,-49.29 1035.96,-55.72"/>
</g>
<!-- Node6 -->
<g id="node6" class="node">
<title>Node6</title>
<g id="a_node6"><a xlink:href="src_2kazoo__connect__server_2main_8cpp.html" target="_top" xlink:title=" ">
<polygon fill="none" stroke="black" points="1018.5,-0.5 1018.5,-19.5 1080.5,-19.5 1080.5,-0.5 1018.5,-0.5"/>
<text text-anchor="middle" x="1049.5" y="-7.5" font-family="Helvetica,sans-Serif" font-size="10.00">main.cpp</text>
</a>
</g>
</g>
<!-- Node5&#45;&gt;Node6 -->
<g id="edge5" class="edge">
<title>Node5&#45;&gt;Node6</title>
<path fill="none" stroke="midnightblue" d="M1060.64,-46.4C1057.8,-37.36 1054.52,-26.94 1052.25,-19.75"/>
<polygon fill="midnightblue" stroke="midnightblue" points="1057.35,-47.6 1063.69,-56.08 1064.03,-45.49 1057.35,-47.6"/>
</g>
<!-- Node7 -->
<g id="node7" class="node">
<title>Node7</title>
<g id="a_node7"><a xlink:href="src_2main_8cpp.html" target="_top" xlink:title=" ">
<polygon fill="none" stroke="black" points="1098.5,-0.5 1098.5,-19.5 1160.5,-19.5 1160.5,-0.5 1098.5,-0.5"/>
<text text-anchor="middle" x="1129.5" y="-7.5" font-family="Helvetica,sans-Serif" font-size="10.00">main.cpp</text>
</a>
</g>
</g>
<!-- Node5&#45;&gt;Node7 -->
<g id="edge6" class="edge">
<title>Node5&#45;&gt;Node7</title>
<path fill="none" stroke="midnightblue" d="M1084.54,-49.54C1095.77,-39.91 1109.82,-27.87 1119.19,-19.83"/>
<polygon fill="midnightblue" stroke="midnightblue" points="1081.94,-47.16 1076.62,-56.32 1086.49,-52.47 1081.94,-47.16"/>
</g>
<!-- Node8 -->
<g id="node8" class="node">
<title>Node8</title>
<g id="a_node8"><a xlink:href="translation__layer_8test_8cpp.html" target="_top" xlink:title=" ">
<polygon fill="none" stroke="black" points="1178.5,-0.5 1178.5,-19.5 1318.5,-19.5 1318.5,-0.5 1178.5,-0.5"/>
<text text-anchor="middle" x="1248.5" y="-7.5" font-family="Helvetica,sans-Serif" font-size="10.00">translation_layer.test.cpp</text>
</a>
</g>
</g>
<!-- Node5&#45;&gt;Node8 -->
<g id="edge8" class="edge">
<title>Node5&#45;&gt;Node8</title>
<path fill="none" stroke="midnightblue" d="M1105.03,-53.57C1139.36,-43.38 1188.83,-28.7 1219.8,-19.52"/>
<polygon fill="midnightblue" stroke="midnightblue" points="1103.93,-50.24 1095.34,-56.44 1105.92,-56.95 1103.93,-50.24"/>
</g>
<!-- Node9&#45;&gt;Node4 -->
<g id="edge13" class="edge">
<title>Node9&#45;&gt;Node4</title>
<path fill="none" stroke="midnightblue" d="M389.06,-111.89C335.62,-102.24 260.14,-86.92 251.5,-76 245.98,-69.03 245.42,-62.49 251.5,-56 294.07,-10.56 721.3,-9.24 880.84,-10.35"/>
<polygon fill="midnightblue" stroke="midnightblue" points="388.64,-115.37 399.1,-113.68 389.87,-108.48 388.64,-115.37"/>
</g>
<!-- Node9&#45;&gt;Node5 -->
<g id="edge14" class="edge">
<title>Node9&#45;&gt;Node5</title>
<path fill="none" stroke="midnightblue" d="M495.64,-114.55C503.63,-113.65 511.78,-112.77 519.5,-112 696.57,-94.37 906.39,-78.52 1006.95,-71.23"/>
<polygon fill="midnightblue" stroke="midnightblue" points="495.18,-111.08 485.64,-115.69 495.97,-118.03 495.18,-111.08"/>
</g>
<!-- Node10 -->
<g id="node10" class="node">
<title>Node10</title>
<g id="a_node10"><a xlink:href="k1__model_8cpp.html" target="_top" xlink:title=" ">
<polygon fill="none" stroke="black" points="119,-56.5 119,-75.5 204,-75.5 204,-56.5 119,-56.5"/>
<text text-anchor="middle" x="161.5" y="-63.5" font-family="Helvetica,sans-Serif" font-size="10.00">k1_model.cpp</text>
</a>
</g>
</g>
<!-- Node9&#45;&gt;Node10 -->
<g id="edge10" class="edge">
<title>Node9&#45;&gt;Node10</title>
<path fill="none" stroke="midnightblue" d="M389.21,-110.76C335.59,-100.46 253.95,-84.77 204.38,-75.24"/>
<polygon fill="midnightblue" stroke="midnightblue" points="388.73,-114.23 399.21,-112.68 390.05,-107.36 388.73,-114.23"/>
</g>
<!-- Node11 -->
<g id="node11" class="node">
<title>Node11</title>
<g id="a_node11"><a xlink:href="k1__model_8test_8cpp.html" target="_top" xlink:title=" ">
<polygon fill="none" stroke="black" points="379,-56.5 379,-75.5 486,-75.5 486,-56.5 379,-56.5"/>
<text text-anchor="middle" x="432.5" y="-63.5" font-family="Helvetica,sans-Serif" font-size="10.00">k1_model.test.cpp</text>
</a>
</g>
</g>
<!-- Node9&#45;&gt;Node11 -->
<g id="edge11" class="edge">
<title>Node9&#45;&gt;Node11</title>
<path fill="none" stroke="midnightblue" d="M439,-102.1C437.34,-93.14 435.44,-82.86 434.12,-75.75"/>
<polygon fill="midnightblue" stroke="midnightblue" points="435.59,-102.89 440.85,-112.08 442.47,-101.61 435.59,-102.89"/>
</g>
<!-- Node12 -->
<g id="node12" class="node">
<title>Node12</title>
<g id="a_node12"><a xlink:href="tests_2ktl__model__scoring_2main_8cpp.html" target="_top" xlink:title=" ">
<polygon fill="none" stroke="black" points="260.5,-56.5 260.5,-75.5 322.5,-75.5 322.5,-56.5 260.5,-56.5"/>
<text text-anchor="middle" x="291.5" y="-63.5" font-family="Helvetica,sans-Serif" font-size="10.00">main.cpp</text>
</a>
</g>
</g>
<!-- Node9&#45;&gt;Node12 -->
<g id="edge12" class="edge">
<title>Node9&#45;&gt;Node12</title>
<path fill="none" stroke="midnightblue" d="M409.05,-109.04C380.64,-98.88 340.56,-84.55 315.31,-75.52"/>
<polygon fill="midnightblue" stroke="midnightblue" points="407.98,-112.37 418.57,-112.44 410.34,-105.78 407.98,-112.37"/>
</g>
<!-- Node13&#45;&gt;Node4 -->
<g id="edge18" class="edge">
<title>Node13&#45;&gt;Node4</title>
<path fill="none" stroke="midnightblue" d="M518.13,-112.62C461.49,-103.19 378.86,-87.67 369.5,-76 363.94,-69.06 363.47,-62.53 369.5,-56 403.69,-19.01 741.48,-12.38 880.84,-11.23"/>
<polygon fill="midnightblue" stroke="midnightblue" points="517.59,-116.08 528.03,-114.25 518.73,-109.18 517.59,-116.08"/>
</g>
<!-- Node13&#45;&gt;Node5 -->
<g id="edge19" class="edge">
<title>Node13&#45;&gt;Node5</title>
<path fill="none" stroke="midnightblue" d="M624.6,-115.21C717.64,-105.06 909.47,-84.13 1006.9,-73.5"/>
<polygon fill="midnightblue" stroke="midnightblue" points="624.12,-111.74 614.56,-116.3 624.88,-118.7 624.12,-111.74"/>
</g>
<!-- Node13&#45;&gt;Node12 -->
<g id="edge17" class="edge">
<title>Node13&#45;&gt;Node12</title>
<path fill="none" stroke="midnightblue" d="M518.08,-110.9C470.43,-101.86 398.79,-88.19 336.5,-76 332.12,-75.14 327.51,-74.23 322.96,-73.33"/>
<polygon fill="midnightblue" stroke="midnightblue" points="517.69,-114.39 528.17,-112.81 518.99,-107.51 517.69,-114.39"/>
</g>
<!-- Node14 -->
<g id="node14" class="node">
<title>Node14</title>
<g id="a_node14"><a xlink:href="k2__peak__model_8test_8cpp.html" target="_top" xlink:title=" ">
<polygon fill="none" stroke="black" points="504.5,-56.5 504.5,-75.5 640.5,-75.5 640.5,-56.5 504.5,-56.5"/>
<text text-anchor="middle" x="572.5" y="-63.5" font-family="Helvetica,sans-Serif" font-size="10.00">k2_peak_model.test.cpp</text>
</a>
</g>
</g>
<!-- Node13&#45;&gt;Node14 -->
<g id="edge16" class="edge">
<title>Node13&#45;&gt;Node14</title>
<path fill="none" stroke="midnightblue" d="M571.86,-101.8C572.02,-92.91 572.21,-82.78 572.34,-75.75"/>
<polygon fill="midnightblue" stroke="midnightblue" points="568.35,-102.02 571.67,-112.08 575.35,-102.15 568.35,-102.02"/>
</g>
<!-- Node15&#45;&gt;Node4 -->
<g id="edge22" class="edge">
<title>Node15&#45;&gt;Node4</title>
<path fill="none" stroke="midnightblue" d="M955.44,-102.02C956.37,-89 956.83,-71.36 954.5,-56 952.53,-43.06 947.56,-28.72 944.1,-19.78"/>
<polygon fill="midnightblue" stroke="midnightblue" points="951.94,-101.84 954.56,-112.11 958.92,-102.45 951.94,-101.84"/>
</g>
<!-- Node15&#45;&gt;Node5 -->
<g id="edge23" class="edge">
<title>Node15&#45;&gt;Node5</title>
<path fill="none" stroke="midnightblue" d="M980.5,-108.1C1001.61,-98.01 1030.36,-84.27 1048.68,-75.52"/>
<polygon fill="midnightblue" stroke="midnightblue" points="978.92,-104.97 971.41,-112.44 981.94,-111.29 978.92,-104.97"/>
</g>
<!-- Node16 -->
<g id="node16" class="node">
<title>Node16</title>
<g id="a_node16"><a xlink:href="k3__model_8test_8cpp.html" target="_top" xlink:title=" ">
<polygon fill="none" stroke="black" points="805,-56.5 805,-75.5 912,-75.5 912,-56.5 805,-56.5"/>
<text text-anchor="middle" x="858.5" y="-63.5" font-family="Helvetica,sans-Serif" font-size="10.00">k3_model.test.cpp</text>
</a>
</g>
</g>
<!-- Node15&#45;&gt;Node16 -->
<g id="edge21" class="edge">
<title>Node15&#45;&gt;Node16</title>
<path fill="none" stroke="midnightblue" d="M929.18,-107.18C911.7,-97.24 888.67,-84.15 873.73,-75.65"/>
<polygon fill="midnightblue" stroke="midnightblue" points="927.81,-110.43 938.24,-112.32 931.27,-104.34 927.81,-110.43"/>
</g>
<!-- Node17&#45;&gt;Node12 -->
<g id="edge25" class="edge">
<title>Node17&#45;&gt;Node12</title>
<path fill="none" stroke="midnightblue" d="M308.16,-102.98C303.92,-93.82 298.95,-83.09 295.55,-75.75"/>
<polygon fill="midnightblue" stroke="midnightblue" points="304.99,-104.48 312.37,-112.08 311.35,-101.54 304.99,-104.48"/>
</g>
<!-- Node18 -->
<g id="node18" class="node">
<title>Node18</title>
<g id="a_node18"><a xlink:href="model__tester_8cpp.html" target="_top" xlink:title=" ">
<polygon fill="none" stroke="black" points="0,-56.5 0,-75.5 101,-75.5 101,-56.5 0,-56.5"/>
<text text-anchor="middle" x="50.5" y="-63.5" font-family="Helvetica,sans-Serif" font-size="10.00">model_tester.cpp</text>
</a>
</g>
</g>
<!-- Node17&#45;&gt;Node18 -->
<g id="edge26" class="edge">
<title>Node17&#45;&gt;Node18</title>
<path fill="none" stroke="midnightblue" d="M264.33,-110.41C214.06,-100.2 138.97,-84.96 92.45,-75.52"/>
<polygon fill="midnightblue" stroke="midnightblue" points="263.86,-113.88 274.35,-112.44 265.25,-107.02 263.86,-113.88"/>
</g>
<!-- Node19&#45;&gt;Node2 -->
<g id="edge28" class="edge">
<title>Node19&#45;&gt;Node2</title>
<path fill="none" stroke="midnightblue" d="M884.91,-215.96C896.33,-201.39 914.48,-180.8 934.5,-168 962.45,-150.13 998.29,-138.5 1025.57,-131.55"/>
<polygon fill="midnightblue" stroke="midnightblue" points="881.97,-214.05 878.72,-224.13 887.55,-218.28 881.97,-214.05"/>
</g>
<!-- Node19&#45;&gt;Node3 -->
<g id="edge29" class="edge">
<title>Node19&#45;&gt;Node3</title>
<path fill="none" stroke="midnightblue" d="M892.09,-218.29C915.03,-201.3 951.9,-174.79 967.5,-168 1034.33,-138.9 1059.35,-157.84 1127.5,-132 1167.96,-116.66 1211.57,-89.55 1232.64,-75.69"/>
<polygon fill="midnightblue" stroke="midnightblue" points="889.98,-215.5 884.05,-224.28 894.16,-221.11 889.98,-215.5"/>
</g>
<!-- Node19&#45;&gt;Node9 -->
<g id="edge44" class="edge">
<title>Node19&#45;&gt;Node9</title>
<path fill="none" stroke="midnightblue" d="M805.59,-223.31C756.67,-215.56 688.94,-203.44 630.5,-188 568.9,-171.72 498.44,-145.14 463.89,-131.57"/>
<polygon fill="midnightblue" stroke="midnightblue" points="805.32,-226.81 815.74,-224.9 806.4,-219.89 805.32,-226.81"/>
</g>
<!-- Node19&#45;&gt;Node13 -->
<g id="edge45" class="edge">
<title>Node19&#45;&gt;Node13</title>
<path fill="none" stroke="midnightblue" d="M805.91,-224.2C765.86,-217.43 714.5,-206.09 671.5,-188 636,-173.06 599.3,-145.52 581.88,-131.57"/>
<polygon fill="midnightblue" stroke="midnightblue" points="805.4,-227.66 815.83,-225.82 806.53,-220.76 805.4,-227.66"/>
</g>
<!-- Node19&#45;&gt;Node15 -->
<g id="edge46" class="edge">
<title>Node19&#45;&gt;Node15</title>
<path fill="none" stroke="midnightblue" d="M876.45,-214.5C880.03,-200.73 886.35,-181.98 896.5,-168 907.76,-152.49 925.74,-139.54 938.5,-131.57"/>
<polygon fill="midnightblue" stroke="midnightblue" points="873.03,-213.75 874.13,-224.29 879.84,-215.36 873.03,-213.75"/>
</g>
<!-- Node20 -->
<g id="node20" class="node">
<title>Node20</title>
<g id="a_node20"><a xlink:href="encoder_8hpp.html" target="_top" xlink:title=" ">
<polygon fill="none" stroke="black" points="680.5,-168.5 680.5,-187.5 756.5,-187.5 756.5,-168.5 680.5,-168.5"/>
<text text-anchor="middle" x="718.5" y="-175.5" font-family="Helvetica,sans-Serif" font-size="10.00">encoder.hpp</text>
</a>
</g>
</g>
<!-- Node19&#45;&gt;Node20 -->
<g id="edge30" class="edge">
<title>Node19&#45;&gt;Node20</title>
<path fill="none" stroke="midnightblue" d="M838.39,-221.04C809.41,-210.88 768.54,-196.55 742.79,-187.52"/>
<polygon fill="midnightblue" stroke="midnightblue" points="837.5,-224.44 848.1,-224.44 839.82,-217.83 837.5,-224.44"/>
</g>
<!-- Node19&#45;&gt;Node21 -->
<g id="edge48" class="edge">
<title>Node19&#45;&gt;Node21</title>
<path fill="none" stroke="midnightblue" d="M866.81,-214.75C864.26,-206.57 861.22,-196.8 858.5,-188 852.29,-167.92 845.05,-144.34 841.21,-131.83"/>
<polygon fill="midnightblue" stroke="midnightblue" points="863.49,-215.87 869.81,-224.38 870.17,-213.79 863.49,-215.87"/>
</g>
<!-- Node19&#45;&gt;Node23 -->
<g id="edge47" class="edge">
<title>Node19&#45;&gt;Node23</title>
<path fill="none" stroke="midnightblue" d="M909.54,-221.3C941.76,-211.13 987.69,-196.62 1016.53,-187.52"/>
<polygon fill="midnightblue" stroke="midnightblue" points="908.08,-218.09 899.6,-224.44 910.19,-224.77 908.08,-218.09"/>
</g>
<!-- Node20&#45;&gt;Node2 -->
<g id="edge31" class="edge">
<title>Node20&#45;&gt;Node2</title>
<path fill="none" stroke="midnightblue" d="M766.74,-169.52C831.83,-159.41 947.33,-141.49 1014.37,-131.09"/>
<polygon fill="midnightblue" stroke="midnightblue" points="766.08,-166.07 756.74,-171.07 767.16,-172.99 766.08,-166.07"/>
</g>
<!-- Node20&#45;&gt;Node9 -->
<g id="edge32" class="edge">
<title>Node20&#45;&gt;Node9</title>
<path fill="none" stroke="midnightblue" d="M670.41,-167.59C618.25,-157.39 535.77,-141.25 485.64,-131.44"/>
<polygon fill="midnightblue" stroke="midnightblue" points="669.93,-171.06 680.41,-169.55 671.27,-164.19 669.93,-171.06"/>
</g>
<!-- Node20&#45;&gt;Node11 -->
<g id="edge33" class="edge">
<title>Node20&#45;&gt;Node11</title>
<path fill="none" stroke="midnightblue" d="M698.9,-162.32C675.94,-145.35 639.06,-118.87 623.5,-112 597.63,-100.58 525,-85.05 477.13,-75.54"/>
<polygon fill="midnightblue" stroke="midnightblue" points="696.83,-165.14 706.95,-168.3 701.01,-159.52 696.83,-165.14"/>
</g>
<!-- Node20&#45;&gt;Node13 -->
<g id="edge34" class="edge">
<title>Node20&#45;&gt;Node13</title>
<path fill="none" stroke="midnightblue" d="M685.58,-164.91C657.94,-154.75 619.16,-140.51 594.68,-131.52"/>
<polygon fill="midnightblue" stroke="midnightblue" points="684.61,-168.28 695.21,-168.44 687.03,-161.71 684.61,-168.28"/>
</g>
<!-- Node20&#45;&gt;Node14 -->
<g id="edge35" class="edge">
<title>Node20&#45;&gt;Node14</title>
<path fill="none" stroke="midnightblue" d="M705.16,-160.28C693.38,-146.24 675.21,-126.23 656.5,-112 636.36,-96.67 610.29,-83.59 592.57,-75.55"/>
<polygon fill="midnightblue" stroke="midnightblue" points="702.57,-162.64 711.62,-168.15 707.98,-158.2 702.57,-162.64"/>
</g>
<!-- Node20&#45;&gt;Node15 -->
<g id="edge36" class="edge">
<title>Node20&#45;&gt;Node15</title>
<path fill="none" stroke="midnightblue" d="M765.71,-166.15C810.11,-155.95 875.69,-140.88 916.44,-131.52"/>
<polygon fill="midnightblue" stroke="midnightblue" points="764.7,-162.79 755.74,-168.44 766.27,-169.62 764.7,-162.79"/>
</g>
<!-- Node20&#45;&gt;Node16 -->
<g id="edge37" class="edge">
<title>Node20&#45;&gt;Node16</title>
<path fill="none" stroke="midnightblue" d="M731.12,-159.86C742.04,-145.83 758.83,-126.06 776.5,-112 795.82,-96.63 821.1,-83.65 838.46,-75.64"/>
<polygon fill="midnightblue" stroke="midnightblue" points="728.09,-158.06 724.84,-168.14 733.67,-162.29 728.09,-158.06"/>
</g>
<!-- Node20&#45;&gt;Node17 -->
<g id="edge38" class="edge">
<title>Node20&#45;&gt;Node17</title>
<path fill="none" stroke="midnightblue" d="M670,-170.49C593.41,-160.2 445.15,-140.28 367.21,-129.81"/>
<polygon fill="midnightblue" stroke="midnightblue" points="669.94,-174.01 680.32,-171.87 670.87,-167.07 669.94,-174.01"/>
</g>
<!-- Node20&#45;&gt;Node21 -->
<g id="edge39" class="edge">
<title>Node20&#45;&gt;Node21</title>
<path fill="none" stroke="midnightblue" d="M746.87,-164.23C769.32,-154.13 800.04,-140.31 819.57,-131.52"/>
<polygon fill="midnightblue" stroke="midnightblue" points="745.2,-161.15 737.51,-168.44 748.07,-167.53 745.2,-161.15"/>
</g>
<!-- Node22 -->
<g id="node22" class="node">
<title>Node22</title>
<g id="a_node22"><a xlink:href="testing__model_8test_8cpp.html" target="_top" xlink:title=" ">
<polygon fill="none" stroke="black" points="658.5,-56.5 658.5,-75.5 786.5,-75.5 786.5,-56.5 658.5,-56.5"/>
<text text-anchor="middle" x="722.5" y="-63.5" font-family="Helvetica,sans-Serif" font-size="10.00">testing_model.test.cpp</text>
</a>
</g>
</g>
<!-- Node20&#45;&gt;Node22 -->
<g id="edge43" class="edge">
<title>Node20&#45;&gt;Node22</title>
<path fill="none" stroke="midnightblue" d="M719.18,-158.35C720.05,-134.25 721.54,-93.31 722.19,-75.59"/>
<polygon fill="midnightblue" stroke="midnightblue" points="715.68,-158.25 718.81,-168.37 722.68,-158.5 715.68,-158.25"/>
</g>
<!-- Node21&#45;&gt;Node4 -->
<g id="edge41" class="edge">
<title>Node21&#45;&gt;Node4</title>
<path fill="none" stroke="midnightblue" d="M875.37,-108.5C891.6,-101.3 909.62,-90.71 921.5,-76 935.09,-59.17 938.96,-32.95 940.06,-19.54"/>
<polygon fill="midnightblue" stroke="midnightblue" points="873.99,-105.29 866.09,-112.35 876.67,-111.75 873.99,-105.29"/>
</g>
<!-- Node21&#45;&gt;Node5 -->
<g id="edge42" class="edge">
<title>Node21&#45;&gt;Node5</title>
<path fill="none" stroke="midnightblue" d="M884.57,-110.09C927.65,-99.89 991.09,-84.86 1030.54,-75.52"/>
<polygon fill="midnightblue" stroke="midnightblue" points="883.55,-106.73 874.63,-112.44 885.16,-113.54 883.55,-106.73"/>
</g>
<!-- Node21&#45;&gt;Node22 -->
<g id="edge40" class="edge">
<title>Node21&#45;&gt;Node22</title>
<path fill="none" stroke="midnightblue" d="M810.78,-108.1C789.11,-98.01 759.6,-84.27 740.79,-75.52"/>
<polygon fill="midnightblue" stroke="midnightblue" points="809.58,-111.4 820.12,-112.44 812.53,-105.05 809.58,-111.4"/>
</g>
</g>
</svg>
