<?xml version="1.0" encoding="UTF-8" standalone="no"?>
<!DOCTYPE svg PUBLIC "-//W3C//DTD SVG 1.1//EN"
 "http://www.w3.org/Graphics/SVG/1.1/DTD/svg11.dtd">
<!-- Generated by graphviz version 2.43.0 (0)
 -->
<!-- Title: symbol_model.hpp Pages: 1 -->
<svg width="752pt" height="196pt"
 viewBox="0.00 0.00 751.50 196.00" xmlns="http://www.w3.org/2000/svg" xmlns:xlink="http://www.w3.org/1999/xlink">
<g id="graph0" class="graph" transform="scale(1 1) rotate(0) translate(4 192)">
<title>symbol_model.hpp</title>
<!-- Node1 -->
<g id="node1" class="node">
<title>Node1</title>
<g id="a_node1"><a xlink:title=" ">
<polygon fill="#bfbfbf" stroke="black" points="272.5,-168.5 272.5,-187.5 382.5,-187.5 382.5,-168.5 272.5,-168.5"/>
<text text-anchor="middle" x="327.5" y="-175.5" font-family="Helvetica,sans-Serif" font-size="10.00">symbol_model.hpp</text>
</a>
</g>
</g>
<!-- Node2 -->
<g id="node2" class="node">
<title>Node2</title>
<g id="a_node2"><a xlink:title=" ">
<polygon fill="none" stroke="#bfbfbf" points="0,-112.5 0,-131.5 53,-131.5 53,-112.5 0,-112.5"/>
<text text-anchor="middle" x="26.5" y="-119.5" font-family="Helvetica,sans-Serif" font-size="10.00">cstddef</text>
</a>
</g>
</g>
<!-- Node1&#45;&gt;Node2 -->
<g id="edge1" class="edge">
<title>Node1&#45;&gt;Node2</title>
<path fill="none" stroke="midnightblue" d="M274.09,-168.47C221.44,-159.9 138.75,-145.98 67.5,-132 66.21,-131.75 64.9,-131.49 63.58,-131.22"/>
<polygon fill="midnightblue" stroke="midnightblue" points="63.88,-127.7 53.37,-129.08 62.44,-134.55 63.88,-127.7"/>
</g>
<!-- Node3 -->
<g id="node3" class="node">
<title>Node3</title>
<g id="a_node3"><a xlink:title=" ">
<polygon fill="none" stroke="#bfbfbf" points="150.5,-56.5 150.5,-75.5 200.5,-75.5 200.5,-56.5 150.5,-56.5"/>
<text text-anchor="middle" x="175.5" y="-63.5" font-family="Helvetica,sans-Serif" font-size="10.00">cstdint</text>
</a>
</g>
</g>
<!-- Node1&#45;&gt;Node3 -->
<g id="edge2" class="edge">
<title>Node1&#45;&gt;Node3</title>
<path fill="none" stroke="midnightblue" d="M272.26,-173.89C212.17,-169.21 121.82,-157.96 100.5,-132 83.48,-111.27 114.88,-91.72 142.12,-79.58"/>
<polygon fill="midnightblue" stroke="midnightblue" points="143.65,-82.73 151.49,-75.6 140.92,-76.29 143.65,-82.73"/>
</g>
<!-- Node4 -->
<g id="node4" class="node">
<title>Node4</title>
<g id="a_node4"><a xlink:title=" ">
<polygon fill="none" stroke="#bfbfbf" points="475.5,-112.5 475.5,-131.5 535.5,-131.5 535.5,-112.5 475.5,-112.5"/>
<text text-anchor="middle" x="505.5" y="-119.5" font-family="Helvetica,sans-Serif" font-size="10.00">iostream</text>
</a>
</g>
</g>
<!-- Node1&#45;&gt;Node4 -->
<g id="edge3" class="edge">
<title>Node1&#45;&gt;Node4</title>
<path fill="none" stroke="midnightblue" d="M355.7,-168.44C385.91,-159.28 434.01,-144.69 467.53,-134.52"/>
<polygon fill="midnightblue" stroke="midnightblue" points="468.87,-137.77 477.43,-131.52 466.84,-131.07 468.87,-137.77"/>
</g>
<!-- Node5 -->
<g id="node5" class="node">
<title>Node5</title>
<g id="a_node5"><a xlink:title=" ">
<polygon fill="none" stroke="#bfbfbf" points="553.5,-112.5 553.5,-131.5 591.5,-131.5 591.5,-112.5 553.5,-112.5"/>
<text text-anchor="middle" x="572.5" y="-119.5" font-family="Helvetica,sans-Serif" font-size="10.00">map</text>
</a>
</g>
</g>
<!-- Node1&#45;&gt;Node5 -->
<g id="edge4" class="edge">
<title>Node1&#45;&gt;Node5</title>
<path fill="none" stroke="midnightblue" d="M376.11,-168.45C418.16,-160.72 480.73,-148.38 543.61,-132.02"/>
<polygon fill="midnightblue" stroke="midnightblue" points="544.52,-135.4 553.3,-129.47 542.74,-128.63 544.52,-135.4"/>
</g>
<!-- Node6 -->
<g id="node6" class="node">
<title>Node6</title>
<g id="a_node6"><a xlink:href="assert_8hpp.html" target="_top" xlink:title=" ">
<polygon fill="none" stroke="black" points="219,-56.5 219,-75.5 332,-75.5 332,-56.5 219,-56.5"/>
<text text-anchor="middle" x="275.5" y="-63.5" font-family="Helvetica,sans-Serif" font-size="10.00">common/assert.hpp</text>
</a>
</g>
</g>
<!-- Node1&#45;&gt;Node6 -->
<g id="edge5" class="edge">
<title>Node1&#45;&gt;Node6</title>
<path fill="none" stroke="midnightblue" d="M319.67,-168.3C312.26,-159.65 301.28,-145.73 294.5,-132 287.18,-117.17 282.17,-99.02 279.14,-85.67"/>
<polygon fill="midnightblue" stroke="midnightblue" points="282.54,-84.83 277.05,-75.77 275.69,-86.27 282.54,-84.83"/>
</g>
<!-- Node8 -->
<g id="node8" class="node">
<title>Node8</title>
<g id="a_node8"><a xlink:href="audio__channel_8hpp.html" target="_top" xlink:title=" ">
<polygon fill="none" stroke="black" points="303.5,-112.5 303.5,-131.5 457.5,-131.5 457.5,-112.5 303.5,-112.5"/>
<text text-anchor="middle" x="380.5" y="-119.5" font-family="Helvetica,sans-Serif" font-size="10.00">ktl/audio/audio_channel.hpp</text>
</a>
</g>
</g>
<!-- Node1&#45;&gt;Node8 -->
<g id="edge7" class="edge">
<title>Node1&#45;&gt;Node8</title>
<path fill="none" stroke="midnightblue" d="M336.25,-168.08C343.97,-160.22 355.4,-148.57 364.72,-139.08"/>
<polygon fill="midnightblue" stroke="midnightblue" points="367.4,-141.34 371.91,-131.75 362.41,-136.44 367.4,-141.34"/>
</g>
<!-- Node13 -->
<g id="node13" class="node">
<title>Node13</title>
<g id="a_node13"><a xlink:href="encoder__context_8hpp.html" target="_top" xlink:title=" ">
<polygon fill="none" stroke="black" points="609.5,-112.5 609.5,-131.5 743.5,-131.5 743.5,-112.5 609.5,-112.5"/>
<text text-anchor="middle" x="676.5" y="-119.5" font-family="Helvetica,sans-Serif" font-size="10.00">ktl/encoder_context.hpp</text>
</a>
</g>
</g>
<!-- Node1&#45;&gt;Node13 -->
<g id="edge14" class="edge">
<title>Node1&#45;&gt;Node13</title>
<path fill="none" stroke="midnightblue" d="M382.8,-168.44C444.83,-158.85 545.36,-143.29 611.2,-133.1"/>
<polygon fill="midnightblue" stroke="midnightblue" points="612.11,-136.5 621.46,-131.52 611.04,-129.59 612.11,-136.5"/>
</g>
<!-- Node15 -->
<g id="node15" class="node">
<title>Node15</title>
<g id="a_node15"><a xlink:href="i__symbol__stream_8hpp.html" target="_top" xlink:title=" ">
<polygon fill="none" stroke="black" points="110,-112.5 110,-131.5 247,-131.5 247,-112.5 110,-112.5"/>
<text text-anchor="middle" x="178.5" y="-119.5" font-family="Helvetica,sans-Serif" font-size="10.00">ktl/i_symbol_stream.hpp</text>
</a>
</g>
</g>
<!-- Node1&#45;&gt;Node15 -->
<g id="edge16" class="edge">
<title>Node1&#45;&gt;Node15</title>
<path fill="none" stroke="midnightblue" d="M303.89,-168.44C279.04,-159.44 239.73,-145.19 211.75,-135.05"/>
<polygon fill="midnightblue" stroke="midnightblue" points="212.59,-131.63 202,-131.52 210.21,-138.21 212.59,-131.63"/>
</g>
<!-- Node7 -->
<g id="node7" class="node">
<title>Node7</title>
<g id="a_node7"><a xlink:title=" ">
<polygon fill="none" stroke="#bfbfbf" points="253.5,-0.5 253.5,-19.5 297.5,-19.5 297.5,-0.5 253.5,-0.5"/>
<text text-anchor="middle" x="275.5" y="-7.5" font-family="Helvetica,sans-Serif" font-size="10.00">string</text>
</a>
</g>
</g>
<!-- Node6&#45;&gt;Node7 -->
<g id="edge6" class="edge">
<title>Node6&#45;&gt;Node7</title>
<path fill="none" stroke="midnightblue" d="M275.5,-56.08C275.5,-49.01 275.5,-38.86 275.5,-29.99"/>
<polygon fill="midnightblue" stroke="midnightblue" points="279,-29.75 275.5,-19.75 272,-29.75 279,-29.75"/>
</g>
<!-- Node8&#45;&gt;Node3 -->
<g id="edge9" class="edge">
<title>Node8&#45;&gt;Node3</title>
<path fill="none" stroke="midnightblue" d="M348.03,-112.47C315.65,-103.96 264.21,-90.43 210.75,-76.33"/>
<polygon fill="midnightblue" stroke="midnightblue" points="211.31,-72.86 200.75,-73.69 209.53,-79.62 211.31,-72.86"/>
</g>
<!-- Node8&#45;&gt;Node6 -->
<g id="edge13" class="edge">
<title>Node8&#45;&gt;Node6</title>
<path fill="none" stroke="midnightblue" d="M363.63,-112.32C346.79,-103.66 320.69,-90.24 301.26,-80.25"/>
<polygon fill="midnightblue" stroke="midnightblue" points="302.82,-77.12 292.33,-75.65 299.62,-83.34 302.82,-77.12"/>
</g>
<!-- Node9 -->
<g id="node9" class="node">
<title>Node9</title>
<g id="a_node9"><a xlink:title=" ">
<polygon fill="none" stroke="#bfbfbf" points="539.5,-56.5 539.5,-75.5 581.5,-75.5 581.5,-56.5 539.5,-56.5"/>
<text text-anchor="middle" x="560.5" y="-63.5" font-family="Helvetica,sans-Serif" font-size="10.00">array</text>
</a>
</g>
</g>
<!-- Node8&#45;&gt;Node9 -->
<g id="edge8" class="edge">
<title>Node8&#45;&gt;Node9</title>
<path fill="none" stroke="midnightblue" d="M409.02,-112.44C441.9,-102.58 495.75,-86.42 529.61,-76.27"/>
<polygon fill="midnightblue" stroke="midnightblue" points="530.85,-79.55 539.42,-73.32 528.84,-72.84 530.85,-79.55"/>
</g>
<!-- Node10 -->
<g id="node10" class="node">
<title>Node10</title>
<g id="a_node10"><a xlink:title=" ">
<polygon fill="none" stroke="#bfbfbf" points="350,-56.5 350,-75.5 397,-75.5 397,-56.5 350,-56.5"/>
<text text-anchor="middle" x="373.5" y="-63.5" font-family="Helvetica,sans-Serif" font-size="10.00">deque</text>
</a>
</g>
</g>
<!-- Node8&#45;&gt;Node10 -->
<g id="edge10" class="edge">
<title>Node8&#45;&gt;Node10</title>
<path fill="none" stroke="midnightblue" d="M379.34,-112.08C378.42,-104.93 377.08,-94.64 375.92,-85.69"/>
<polygon fill="midnightblue" stroke="midnightblue" points="379.39,-85.22 374.63,-75.75 372.45,-86.12 379.39,-85.22"/>
</g>
<!-- Node11 -->
<g id="node11" class="node">
<title>Node11</title>
<g id="a_node11"><a xlink:title=" ">
<polygon fill="none" stroke="#bfbfbf" points="415.5,-56.5 415.5,-75.5 455.5,-75.5 455.5,-56.5 415.5,-56.5"/>
<text text-anchor="middle" x="435.5" y="-63.5" font-family="Helvetica,sans-Serif" font-size="10.00">span</text>
</a>
</g>
</g>
<!-- Node8&#45;&gt;Node11 -->
<g id="edge11" class="edge">
<title>Node8&#45;&gt;Node11</title>
<path fill="none" stroke="midnightblue" d="M389.58,-112.08C397.67,-104.14 409.7,-92.34 419.41,-82.8"/>
<polygon fill="midnightblue" stroke="midnightblue" points="421.9,-85.25 426.59,-75.75 417,-80.26 421.9,-85.25"/>
</g>
<!-- Node12 -->
<g id="node12" class="node">
<title>Node12</title>
<g id="a_node12"><a xlink:title=" ">
<polygon fill="none" stroke="#bfbfbf" points="474,-56.5 474,-75.5 521,-75.5 521,-56.5 474,-56.5"/>
<text text-anchor="middle" x="497.5" y="-63.5" font-family="Helvetica,sans-Serif" font-size="10.00">vector</text>
</a>
</g>
</g>
<!-- Node8&#45;&gt;Node12 -->
<g id="edge12" class="edge">
<title>Node8&#45;&gt;Node12</title>
<path fill="none" stroke="midnightblue" d="M399.04,-112.44C418.12,-103.64 448.07,-89.81 469.94,-79.72"/>
<polygon fill="midnightblue" stroke="midnightblue" points="471.43,-82.88 479.05,-75.52 468.5,-76.53 471.43,-82.88"/>
</g>
<!-- Node14 -->
<g id="node14" class="node">
<title>Node14</title>
<g id="a_node14"><a xlink:title=" ">
<polygon fill="none" stroke="#bfbfbf" points="648.5,-56.5 648.5,-75.5 704.5,-75.5 704.5,-56.5 648.5,-56.5"/>
<text text-anchor="middle" x="676.5" y="-63.5" font-family="Helvetica,sans-Serif" font-size="10.00">optional</text>
</a>
</g>
</g>
<!-- Node13&#45;&gt;Node14 -->
<g id="edge15" class="edge">
<title>Node13&#45;&gt;Node14</title>
<path fill="none" stroke="midnightblue" d="M676.5,-112.08C676.5,-105.01 676.5,-94.86 676.5,-85.99"/>
<polygon fill="midnightblue" stroke="midnightblue" points="680,-85.75 676.5,-75.75 673,-85.75 680,-85.75"/>
</g>
<!-- Node15&#45;&gt;Node3 -->
<g id="edge17" class="edge">
<title>Node15&#45;&gt;Node3</title>
<path fill="none" stroke="midnightblue" d="M178,-112.08C177.61,-105.01 177.05,-94.86 176.55,-85.99"/>
<polygon fill="midnightblue" stroke="midnightblue" points="180.04,-85.54 175.99,-75.75 173.05,-85.93 180.04,-85.54"/>
</g>
</g>
</svg>
