<?xml version="1.0" encoding="UTF-8" standalone="no"?>
<!DOCTYPE svg PUBLIC "-//W3C//DTD SVG 1.1//EN"
 "http://www.w3.org/Graphics/SVG/1.1/DTD/svg11.dtd">
<!-- Generated by graphviz version 2.43.0 (0)
 -->
<!-- Title: wav_file.hpp Pages: 1 -->
<svg width="820pt" height="196pt"
 viewBox="0.00 0.00 820.00 196.00" xmlns="http://www.w3.org/2000/svg" xmlns:xlink="http://www.w3.org/1999/xlink">
<g id="graph0" class="graph" transform="scale(1 1) rotate(0) translate(4 192)">
<title>wav_file.hpp</title>
<!-- Node1 -->
<g id="node1" class="node">
<title>Node1</title>
<g id="a_node1"><a xlink:title=" ">
<polygon fill="#bfbfbf" stroke="black" points="274.5,-168.5 274.5,-187.5 352.5,-187.5 352.5,-168.5 274.5,-168.5"/>
<text text-anchor="middle" x="313.5" y="-175.5" font-family="Helvetica,sans-Serif" font-size="10.00">wav_file.hpp</text>
</a>
</g>
</g>
<!-- Node2 -->
<g id="node2" class="node">
<title>Node2</title>
<g id="a_node2"><a xlink:title=" ">
<polygon fill="none" stroke="#bfbfbf" points="0,-112.5 0,-131.5 47,-131.5 47,-112.5 0,-112.5"/>
<text text-anchor="middle" x="23.5" y="-119.5" font-family="Helvetica,sans-Serif" font-size="10.00">cmath</text>
</a>
</g>
</g>
<!-- Node1&#45;&gt;Node2 -->
<g id="edge1" class="edge">
<title>Node1&#45;&gt;Node2</title>
<path fill="none" stroke="midnightblue" d="M274.09,-171.26C225.39,-163.92 139.81,-150.18 57.04,-131.94"/>
<polygon fill="midnightblue" stroke="midnightblue" points="57.75,-128.51 47.23,-129.75 56.23,-135.35 57.75,-128.51"/>
</g>
<!-- Node3 -->
<g id="node3" class="node">
<title>Node3</title>
<g id="a_node3"><a xlink:title=" ">
<polygon fill="none" stroke="#bfbfbf" points="65.5,-112.5 65.5,-131.5 133.5,-131.5 133.5,-112.5 65.5,-112.5"/>
<text text-anchor="middle" x="99.5" y="-119.5" font-family="Helvetica,sans-Serif" font-size="10.00">filesystem</text>
</a>
</g>
</g>
<!-- Node1&#45;&gt;Node3 -->
<g id="edge2" class="edge">
<title>Node1&#45;&gt;Node3</title>
<path fill="none" stroke="midnightblue" d="M279.59,-168.44C242.65,-159.12 183.45,-144.18 143.08,-134"/>
<polygon fill="midnightblue" stroke="midnightblue" points="143.8,-130.57 133.25,-131.52 142.09,-137.36 143.8,-130.57"/>
</g>
<!-- Node4 -->
<g id="node4" class="node">
<title>Node4</title>
<g id="a_node4"><a xlink:title=" ">
<polygon fill="none" stroke="#bfbfbf" points="152,-112.5 152,-131.5 207,-131.5 207,-112.5 152,-112.5"/>
<text text-anchor="middle" x="179.5" y="-119.5" font-family="Helvetica,sans-Serif" font-size="10.00">fstream</text>
</a>
</g>
</g>
<!-- Node1&#45;&gt;Node4 -->
<g id="edge3" class="edge">
<title>Node1&#45;&gt;Node4</title>
<path fill="none" stroke="midnightblue" d="M292.27,-168.44C270.12,-159.52 235.18,-145.44 210.06,-135.32"/>
<polygon fill="midnightblue" stroke="midnightblue" points="211.22,-132.01 200.63,-131.52 208.6,-138.5 211.22,-132.01"/>
</g>
<!-- Node5 -->
<g id="node5" class="node">
<title>Node5</title>
<g id="a_node5"><a xlink:title=" ">
<polygon fill="none" stroke="#bfbfbf" points="225.5,-112.5 225.5,-131.5 285.5,-131.5 285.5,-112.5 225.5,-112.5"/>
<text text-anchor="middle" x="255.5" y="-119.5" font-family="Helvetica,sans-Serif" font-size="10.00">iostream</text>
</a>
</g>
</g>
<!-- Node1&#45;&gt;Node5 -->
<g id="edge4" class="edge">
<title>Node1&#45;&gt;Node5</title>
<path fill="none" stroke="midnightblue" d="M304.18,-168.32C295.61,-160.34 282.69,-148.31 272.31,-138.65"/>
<polygon fill="midnightblue" stroke="midnightblue" points="274.69,-136.09 264.99,-131.83 269.92,-141.21 274.69,-136.09"/>
</g>
<!-- Node6 -->
<g id="node6" class="node">
<title>Node6</title>
<g id="a_node6"><a xlink:title=" ">
<polygon fill="none" stroke="#bfbfbf" points="321.5,-0.5 321.5,-19.5 365.5,-19.5 365.5,-0.5 321.5,-0.5"/>
<text text-anchor="middle" x="343.5" y="-7.5" font-family="Helvetica,sans-Serif" font-size="10.00">string</text>
</a>
</g>
</g>
<!-- Node1&#45;&gt;Node6 -->
<g id="edge5" class="edge">
<title>Node1&#45;&gt;Node6</title>
<path fill="none" stroke="midnightblue" d="M312.8,-168.3C311.42,-148.13 309.42,-96.82 320.5,-56 323.12,-46.37 327.95,-36.41 332.51,-28.32"/>
<polygon fill="midnightblue" stroke="midnightblue" points="335.64,-29.9 337.77,-19.52 329.64,-26.31 335.64,-29.9"/>
</g>
<!-- Node7 -->
<g id="node7" class="node">
<title>Node7</title>
<g id="a_node7"><a xlink:title=" ">
<polygon fill="none" stroke="#bfbfbf" points="461,-56.5 461,-75.5 508,-75.5 508,-56.5 461,-56.5"/>
<text text-anchor="middle" x="484.5" y="-63.5" font-family="Helvetica,sans-Serif" font-size="10.00">vector</text>
</a>
</g>
</g>
<!-- Node1&#45;&gt;Node7 -->
<g id="edge6" class="edge">
<title>Node1&#45;&gt;Node7</title>
<path fill="none" stroke="midnightblue" d="M326.92,-168.37C356.26,-149.49 426.38,-104.38 462.37,-81.24"/>
<polygon fill="midnightblue" stroke="midnightblue" points="464.63,-83.95 471.14,-75.59 460.84,-78.06 464.63,-83.95"/>
</g>
<!-- Node8 -->
<g id="node8" class="node">
<title>Node8</title>
<g id="a_node8"><a xlink:href="assert_8hpp.html" target="_top" xlink:title=" ">
<polygon fill="none" stroke="black" points="330,-56.5 330,-75.5 443,-75.5 443,-56.5 330,-56.5"/>
<text text-anchor="middle" x="386.5" y="-63.5" font-family="Helvetica,sans-Serif" font-size="10.00">common/assert.hpp</text>
</a>
</g>
</g>
<!-- Node1&#45;&gt;Node8 -->
<g id="edge7" class="edge">
<title>Node1&#45;&gt;Node8</title>
<path fill="none" stroke="midnightblue" d="M319.23,-168.37C331.28,-150.22 359.42,-107.8 375.22,-83.99"/>
<polygon fill="midnightblue" stroke="midnightblue" points="378.19,-85.86 380.8,-75.59 372.35,-81.99 378.19,-85.86"/>
</g>
<!-- Node9 -->
<g id="node9" class="node">
<title>Node9</title>
<g id="a_node9"><a xlink:href="audio__channel_8hpp.html" target="_top" xlink:title=" ">
<polygon fill="none" stroke="black" points="470.5,-112.5 470.5,-131.5 624.5,-131.5 624.5,-112.5 470.5,-112.5"/>
<text text-anchor="middle" x="547.5" y="-119.5" font-family="Helvetica,sans-Serif" font-size="10.00">ktl/audio/audio_channel.hpp</text>
</a>
</g>
</g>
<!-- Node1&#45;&gt;Node9 -->
<g id="edge9" class="edge">
<title>Node1&#45;&gt;Node9</title>
<path fill="none" stroke="midnightblue" d="M350.58,-168.44C391.23,-159.06 456.53,-143.99 500.68,-133.8"/>
<polygon fill="midnightblue" stroke="midnightblue" points="501.64,-137.18 510.6,-131.52 500.06,-130.35 501.64,-137.18"/>
</g>
<!-- Node14 -->
<g id="node14" class="node">
<title>Node14</title>
<g id="a_node14"><a xlink:href="audio__constants_8hpp.html" target="_top" xlink:title=" ">
<polygon fill="none" stroke="black" points="649,-112.5 649,-131.5 812,-131.5 812,-112.5 649,-112.5"/>
<text text-anchor="middle" x="730.5" y="-119.5" font-family="Helvetica,sans-Serif" font-size="10.00">ktl/audio/audio_constants.hpp</text>
</a>
</g>
</g>
<!-- Node1&#45;&gt;Node14 -->
<g id="edge16" class="edge">
<title>Node1&#45;&gt;Node14</title>
<path fill="none" stroke="midnightblue" d="M352.73,-171.92C421.64,-163 565.55,-144.36 654.51,-132.84"/>
<polygon fill="midnightblue" stroke="midnightblue" points="655.07,-136.3 664.54,-131.54 654.17,-129.36 655.07,-136.3"/>
</g>
<!-- Node8&#45;&gt;Node6 -->
<g id="edge8" class="edge">
<title>Node8&#45;&gt;Node6</title>
<path fill="none" stroke="midnightblue" d="M379.4,-56.08C373.26,-48.38 364.23,-37.03 356.76,-27.65"/>
<polygon fill="midnightblue" stroke="midnightblue" points="359.44,-25.39 350.47,-19.75 353.96,-29.75 359.44,-25.39"/>
</g>
<!-- Node9&#45;&gt;Node7 -->
<g id="edge14" class="edge">
<title>Node9&#45;&gt;Node7</title>
<path fill="none" stroke="midnightblue" d="M537.38,-112.32C527.97,-104.26 513.76,-92.08 502.43,-82.37"/>
<polygon fill="midnightblue" stroke="midnightblue" points="504.68,-79.68 494.81,-75.83 500.12,-85 504.68,-79.68"/>
</g>
<!-- Node9&#45;&gt;Node8 -->
<g id="edge15" class="edge">
<title>Node9&#45;&gt;Node8</title>
<path fill="none" stroke="midnightblue" d="M521.99,-112.44C494.9,-103.36 451.91,-88.94 421.63,-78.78"/>
<polygon fill="midnightblue" stroke="midnightblue" points="422.49,-75.38 411.89,-75.52 420.26,-82.01 422.49,-75.38"/>
</g>
<!-- Node10 -->
<g id="node10" class="node">
<title>Node10</title>
<g id="a_node10"><a xlink:title=" ">
<polygon fill="none" stroke="#bfbfbf" points="526.5,-56.5 526.5,-75.5 568.5,-75.5 568.5,-56.5 526.5,-56.5"/>
<text text-anchor="middle" x="547.5" y="-63.5" font-family="Helvetica,sans-Serif" font-size="10.00">array</text>
</a>
</g>
</g>
<!-- Node9&#45;&gt;Node10 -->
<g id="edge10" class="edge">
<title>Node9&#45;&gt;Node10</title>
<path fill="none" stroke="midnightblue" d="M547.5,-112.08C547.5,-105.01 547.5,-94.86 547.5,-85.99"/>
<polygon fill="midnightblue" stroke="midnightblue" points="551,-85.75 547.5,-75.75 544,-85.75 551,-85.75"/>
</g>
<!-- Node11 -->
<g id="node11" class="node">
<title>Node11</title>
<g id="a_node11"><a xlink:title=" ">
<polygon fill="none" stroke="#bfbfbf" points="710.5,-56.5 710.5,-75.5 760.5,-75.5 760.5,-56.5 710.5,-56.5"/>
<text text-anchor="middle" x="735.5" y="-63.5" font-family="Helvetica,sans-Serif" font-size="10.00">cstdint</text>
</a>
</g>
</g>
<!-- Node9&#45;&gt;Node11 -->
<g id="edge11" class="edge">
<title>Node9&#45;&gt;Node11</title>
<path fill="none" stroke="midnightblue" d="M577.29,-112.44C610.74,-102.83 664.98,-87.26 700.45,-77.07"/>
<polygon fill="midnightblue" stroke="midnightblue" points="701.72,-80.35 710.36,-74.22 699.78,-73.62 701.72,-80.35"/>
</g>
<!-- Node12 -->
<g id="node12" class="node">
<title>Node12</title>
<g id="a_node12"><a xlink:title=" ">
<polygon fill="none" stroke="#bfbfbf" points="587,-56.5 587,-75.5 634,-75.5 634,-56.5 587,-56.5"/>
<text text-anchor="middle" x="610.5" y="-63.5" font-family="Helvetica,sans-Serif" font-size="10.00">deque</text>
</a>
</g>
</g>
<!-- Node9&#45;&gt;Node12 -->
<g id="edge12" class="edge">
<title>Node9&#45;&gt;Node12</title>
<path fill="none" stroke="midnightblue" d="M557.62,-112.32C567.03,-104.26 581.24,-92.08 592.57,-82.37"/>
<polygon fill="midnightblue" stroke="midnightblue" points="594.88,-85 600.19,-75.83 590.32,-79.68 594.88,-85"/>
</g>
<!-- Node13 -->
<g id="node13" class="node">
<title>Node13</title>
<g id="a_node13"><a xlink:title=" ">
<polygon fill="none" stroke="#bfbfbf" points="652.5,-56.5 652.5,-75.5 692.5,-75.5 692.5,-56.5 652.5,-56.5"/>
<text text-anchor="middle" x="672.5" y="-63.5" font-family="Helvetica,sans-Serif" font-size="10.00">span</text>
</a>
</g>
</g>
<!-- Node9&#45;&gt;Node13 -->
<g id="edge13" class="edge">
<title>Node9&#45;&gt;Node13</title>
<path fill="none" stroke="midnightblue" d="M567.31,-112.44C587.79,-103.6 619.98,-89.69 643.36,-79.59"/>
<polygon fill="midnightblue" stroke="midnightblue" points="644.99,-82.7 652.79,-75.52 642.22,-76.27 644.99,-82.7"/>
</g>
<!-- Node14&#45;&gt;Node11 -->
<g id="edge17" class="edge">
<title>Node14&#45;&gt;Node11</title>
<path fill="none" stroke="midnightblue" d="M731.33,-112.08C731.98,-105.01 732.92,-94.86 733.74,-85.99"/>
<polygon fill="midnightblue" stroke="midnightblue" points="737.25,-86.03 734.69,-75.75 730.28,-85.39 737.25,-86.03"/>
</g>
</g>
</svg>
