<?xml version="1.0" encoding="UTF-8" standalone="no"?>
<!DOCTYPE svg PUBLIC "-//W3C//DTD SVG 1.1//EN"
 "http://www.w3.org/Graphics/SVG/1.1/DTD/svg11.dtd">
<!-- Generated by graphviz version 2.43.0 (0)
 -->
<!-- Title: wav_file.hpp Pages: 1 -->
<svg width="979pt" height="140pt"
 viewBox="0.00 0.00 978.50 140.00" xmlns="http://www.w3.org/2000/svg" xmlns:xlink="http://www.w3.org/1999/xlink">
<g id="graph0" class="graph" transform="scale(1 1) rotate(0) translate(4 136)">
<title>wav_file.hpp</title>
<!-- Node1 -->
<g id="node1" class="node">
<title>Node1</title>
<g id="a_node1"><a xlink:title=" ">
<polygon fill="#bfbfbf" stroke="black" points="381.5,-112.5 381.5,-131.5 459.5,-131.5 459.5,-112.5 381.5,-112.5"/>
<text text-anchor="middle" x="420.5" y="-119.5" font-family="Helvetica,sans-Serif" font-size="10.00">wav_file.hpp</text>
</a>
</g>
</g>
<!-- Node2 -->
<g id="node2" class="node">
<title>Node2</title>
<g id="a_node2"><a xlink:href="fft_8test_8cpp.html" target="_top" xlink:title=" ">
<polygon fill="none" stroke="black" points="0,-56.5 0,-75.5 69,-75.5 69,-56.5 0,-56.5"/>
<text text-anchor="middle" x="34.5" y="-63.5" font-family="Helvetica,sans-Serif" font-size="10.00">fft.test.cpp</text>
</a>
</g>
</g>
<!-- Node1&#45;&gt;Node2 -->
<g id="edge1" class="edge">
<title>Node1&#45;&gt;Node2</title>
<path fill="none" stroke="midnightblue" d="M371.03,-115.7C304.2,-108.28 181.48,-93.68 77.5,-76 74.79,-75.54 72,-75.03 69.19,-74.5"/>
<polygon fill="midnightblue" stroke="midnightblue" points="370.94,-119.21 381.26,-116.83 371.71,-112.26 370.94,-119.21"/>
</g>
<!-- Node3 -->
<g id="node3" class="node">
<title>Node3</title>
<g id="a_node3"><a xlink:href="k1__model_8test_8cpp.html" target="_top" xlink:title=" ">
<polygon fill="none" stroke="black" points="87,-56.5 87,-75.5 194,-75.5 194,-56.5 87,-56.5"/>
<text text-anchor="middle" x="140.5" y="-63.5" font-family="Helvetica,sans-Serif" font-size="10.00">k1_model.test.cpp</text>
</a>
</g>
</g>
<!-- Node1&#45;&gt;Node3 -->
<g id="edge2" class="edge">
<title>Node1&#45;&gt;Node3</title>
<path fill="none" stroke="midnightblue" d="M371.16,-111.48C318.48,-101.32 235.75,-85.37 185.01,-75.58"/>
<polygon fill="midnightblue" stroke="midnightblue" points="370.79,-114.98 381.27,-113.43 372.12,-108.1 370.79,-114.98"/>
</g>
<!-- Node4 -->
<g id="node4" class="node">
<title>Node4</title>
<g id="a_node4"><a xlink:href="k2__peak__model_8test_8cpp.html" target="_top" xlink:title=" ">
<polygon fill="none" stroke="black" points="212.5,-56.5 212.5,-75.5 348.5,-75.5 348.5,-56.5 212.5,-56.5"/>
<text text-anchor="middle" x="280.5" y="-63.5" font-family="Helvetica,sans-Serif" font-size="10.00">k2_peak_model.test.cpp</text>
</a>
</g>
</g>
<!-- Node1&#45;&gt;Node4 -->
<g id="edge3" class="edge">
<title>Node1&#45;&gt;Node4</title>
<path fill="none" stroke="midnightblue" d="M388.8,-108.77C362.5,-98.63 325.78,-84.47 302.58,-75.52"/>
<polygon fill="midnightblue" stroke="midnightblue" points="387.73,-112.11 398.32,-112.44 390.25,-105.58 387.73,-112.11"/>
</g>
<!-- Node5 -->
<g id="node5" class="node">
<title>Node5</title>
<g id="a_node5"><a xlink:href="k3__model_8test_8cpp.html" target="_top" xlink:title=" ">
<polygon fill="none" stroke="black" points="367,-56.5 367,-75.5 474,-75.5 474,-56.5 367,-56.5"/>
<text text-anchor="middle" x="420.5" y="-63.5" font-family="Helvetica,sans-Serif" font-size="10.00">k3_model.test.cpp</text>
</a>
</g>
</g>
<!-- Node1&#45;&gt;Node5 -->
<g id="edge4" class="edge">
<title>Node1&#45;&gt;Node5</title>
<path fill="none" stroke="midnightblue" d="M420.5,-101.8C420.5,-92.91 420.5,-82.78 420.5,-75.75"/>
<polygon fill="midnightblue" stroke="midnightblue" points="417,-102.08 420.5,-112.08 424,-102.08 417,-102.08"/>
</g>
<!-- Node6 -->
<g id="node6" class="node">
<title>Node6</title>
<g id="a_node6"><a xlink:href="testing__model_8test_8cpp.html" target="_top" xlink:title=" ">
<polygon fill="none" stroke="black" points="492.5,-56.5 492.5,-75.5 620.5,-75.5 620.5,-56.5 492.5,-56.5"/>
<text text-anchor="middle" x="556.5" y="-63.5" font-family="Helvetica,sans-Serif" font-size="10.00">testing_model.test.cpp</text>
</a>
</g>
</g>
<!-- Node1&#45;&gt;Node6 -->
<g id="edge5" class="edge">
<title>Node1&#45;&gt;Node6</title>
<path fill="none" stroke="midnightblue" d="M451.63,-108.64C477.16,-98.5 512.61,-84.43 535.05,-75.52"/>
<polygon fill="midnightblue" stroke="midnightblue" points="450.05,-105.5 442.05,-112.44 452.64,-112.01 450.05,-105.5"/>
</g>
<!-- Node7 -->
<g id="node7" class="node">
<title>Node7</title>
<g id="a_node7"><a xlink:href="translation__layer_8hpp.html" target="_top" xlink:title=" ">
<polygon fill="none" stroke="black" points="639,-56.5 639,-75.5 758,-75.5 758,-56.5 639,-56.5"/>
<text text-anchor="middle" x="698.5" y="-63.5" font-family="Helvetica,sans-Serif" font-size="10.00">translation_layer.hpp</text>
</a>
</g>
</g>
<!-- Node1&#45;&gt;Node7 -->
<g id="edge6" class="edge">
<title>Node1&#45;&gt;Node7</title>
<path fill="none" stroke="midnightblue" d="M469.8,-111.42C522.15,-101.25 604.14,-85.33 654.41,-75.56"/>
<polygon fill="midnightblue" stroke="midnightblue" points="468.89,-108.03 459.74,-113.38 470.22,-114.91 468.89,-108.03"/>
</g>
<!-- Node12 -->
<g id="node12" class="node">
<title>Node12</title>
<g id="a_node12"><a xlink:href="wav__file_8test_8cpp.html" target="_top" xlink:title=" ">
<polygon fill="none" stroke="black" points="776,-56.5 776,-75.5 875,-75.5 875,-56.5 776,-56.5"/>
<text text-anchor="middle" x="825.5" y="-63.5" font-family="Helvetica,sans-Serif" font-size="10.00">wav_file.test.cpp</text>
</a>
</g>
</g>
<!-- Node1&#45;&gt;Node12 -->
<g id="edge11" class="edge">
<title>Node1&#45;&gt;Node12</title>
<path fill="none" stroke="midnightblue" d="M469.88,-114.99C537.22,-106.7 661.6,-91.08 767.5,-76 770.22,-75.61 773.02,-75.21 775.84,-74.79"/>
<polygon fill="midnightblue" stroke="midnightblue" points="469.07,-111.56 459.57,-116.26 469.92,-118.51 469.07,-111.56"/>
</g>
<!-- Node8 -->
<g id="node8" class="node">
<title>Node8</title>
<g id="a_node8"><a xlink:href="src_2kazoo__connect__server_2main_8cpp.html" target="_top" xlink:title=" ">
<polygon fill="none" stroke="black" points="532.5,-0.5 532.5,-19.5 594.5,-19.5 594.5,-0.5 532.5,-0.5"/>
<text text-anchor="middle" x="563.5" y="-7.5" font-family="Helvetica,sans-Serif" font-size="10.00">main.cpp</text>
</a>
</g>
</g>
<!-- Node7&#45;&gt;Node8 -->
<g id="edge7" class="edge">
<title>Node7&#45;&gt;Node8</title>
<path fill="none" stroke="midnightblue" d="M667.59,-52.64C642.26,-42.5 607.07,-28.43 584.79,-19.52"/>
<polygon fill="midnightblue" stroke="midnightblue" points="666.52,-55.98 677.11,-56.44 669.12,-49.48 666.52,-55.98"/>
</g>
<!-- Node9 -->
<g id="node9" class="node">
<title>Node9</title>
<g id="a_node9"><a xlink:href="src_2main_8cpp.html" target="_top" xlink:title=" ">
<polygon fill="none" stroke="black" points="612.5,-0.5 612.5,-19.5 674.5,-19.5 674.5,-0.5 612.5,-0.5"/>
<text text-anchor="middle" x="643.5" y="-7.5" font-family="Helvetica,sans-Serif" font-size="10.00">main.cpp</text>
</a>
</g>
</g>
<!-- Node7&#45;&gt;Node9 -->
<g id="edge8" class="edge">
<title>Node7&#45;&gt;Node9</title>
<path fill="none" stroke="midnightblue" d="M682.21,-49C672.46,-39.43 660.45,-27.64 652.41,-19.75"/>
<polygon fill="midnightblue" stroke="midnightblue" points="679.83,-51.57 689.42,-56.08 684.73,-46.58 679.83,-51.57"/>
</g>
<!-- Node10 -->
<g id="node10" class="node">
<title>Node10</title>
<g id="a_node10"><a xlink:href="translation__layer_8cpp.html" target="_top" xlink:title=" ">
<polygon fill="none" stroke="black" points="693,-0.5 693,-19.5 812,-19.5 812,-0.5 693,-0.5"/>
<text text-anchor="middle" x="752.5" y="-7.5" font-family="Helvetica,sans-Serif" font-size="10.00">translation_layer.cpp</text>
</a>
</g>
</g>
<!-- Node7&#45;&gt;Node10 -->
<g id="edge9" class="edge">
<title>Node7&#45;&gt;Node10</title>
<path fill="none" stroke="midnightblue" d="M714.5,-49C724.07,-39.43 735.86,-27.64 743.75,-19.75"/>
<polygon fill="midnightblue" stroke="midnightblue" points="712.01,-46.54 707.42,-56.08 716.96,-51.49 712.01,-46.54"/>
</g>
<!-- Node11 -->
<g id="node11" class="node">
<title>Node11</title>
<g id="a_node11"><a xlink:href="translation__layer_8test_8cpp.html" target="_top" xlink:title=" ">
<polygon fill="none" stroke="black" points="830.5,-0.5 830.5,-19.5 970.5,-19.5 970.5,-0.5 830.5,-0.5"/>
<text text-anchor="middle" x="900.5" y="-7.5" font-family="Helvetica,sans-Serif" font-size="10.00">translation_layer.test.cpp</text>
</a>
</g>
</g>
<!-- Node7&#45;&gt;Node11 -->
<g id="edge10" class="edge">
<title>Node7&#45;&gt;Node11</title>
<path fill="none" stroke="midnightblue" d="M740.29,-53.83C778.43,-43.63 833.98,-28.78 868.64,-19.52"/>
<polygon fill="midnightblue" stroke="midnightblue" points="739.26,-50.48 730.51,-56.44 741.07,-57.24 739.26,-50.48"/>
</g>
</g>
</svg>
