<?xml version="1.0" encoding="UTF-8" standalone="no"?>
<!DOCTYPE svg PUBLIC "-//W3C//DTD SVG 1.1//EN"
 "http://www.w3.org/Graphics/SVG/1.1/DTD/svg11.dtd">
<!-- Generated by graphviz version 2.43.0 (0)
 -->
<!-- Title: wave_tools.hpp Pages: 1 -->
<svg width="1014pt" height="196pt"
 viewBox="0.00 0.00 1014.00 196.00" xmlns="http://www.w3.org/2000/svg" xmlns:xlink="http://www.w3.org/1999/xlink">
<g id="graph0" class="graph" transform="scale(1 1) rotate(0) translate(4 192)">
<title>wave_tools.hpp</title>
<!-- Node1 -->
<g id="node1" class="node">
<title>Node1</title>
<g id="a_node1"><a xlink:title=" ">
<polygon fill="#bfbfbf" stroke="black" points="439,-168.5 439,-187.5 532,-187.5 532,-168.5 439,-168.5"/>
<text text-anchor="middle" x="485.5" y="-175.5" font-family="Helvetica,sans-Serif" font-size="10.00">wave_tools.hpp</text>
</a>
</g>
</g>
<!-- Node2 -->
<g id="node2" class="node">
<title>Node2</title>
<g id="a_node2"><a xlink:href="fft_8test_8cpp.html" target="_top" xlink:title=" ">
<polygon fill="none" stroke="black" points="129,-112.5 129,-131.5 198,-131.5 198,-112.5 129,-112.5"/>
<text text-anchor="middle" x="163.5" y="-119.5" font-family="Helvetica,sans-Serif" font-size="10.00">fft.test.cpp</text>
</a>
</g>
</g>
<!-- Node1&#45;&gt;Node2 -->
<g id="edge1" class="edge">
<title>Node1&#45;&gt;Node2</title>
<path fill="none" stroke="midnightblue" d="M428.65,-167.94C373.39,-159.06 287.12,-145 212.5,-132 207.81,-131.18 202.88,-130.3 198.02,-129.42"/>
<polygon fill="midnightblue" stroke="midnightblue" points="428.17,-171.41 438.6,-169.54 429.28,-164.5 428.17,-171.41"/>
</g>
<!-- Node3 -->
<g id="node3" class="node">
<title>Node3</title>
<g id="a_node3"><a xlink:href="k1__model_8hpp.html" target="_top" xlink:title=" ">
<polygon fill="none" stroke="black" points="254.5,-112.5 254.5,-131.5 340.5,-131.5 340.5,-112.5 254.5,-112.5"/>
<text text-anchor="middle" x="297.5" y="-119.5" font-family="Helvetica,sans-Serif" font-size="10.00">k1_model.hpp</text>
</a>
</g>
</g>
<!-- Node1&#45;&gt;Node3 -->
<g id="edge2" class="edge">
<title>Node1&#45;&gt;Node3</title>
<path fill="none" stroke="midnightblue" d="M445.7,-165.57C410.23,-155.38 359.13,-140.7 327.15,-131.52"/>
<polygon fill="midnightblue" stroke="midnightblue" points="445.13,-169.05 455.71,-168.44 447.07,-162.32 445.13,-169.05"/>
</g>
<!-- Node5 -->
<g id="node5" class="node">
<title>Node5</title>
<g id="a_node5"><a xlink:href="k1__model_8test_8cpp.html" target="_top" xlink:title=" ">
<polygon fill="none" stroke="black" points="0,-56.5 0,-75.5 107,-75.5 107,-56.5 0,-56.5"/>
<text text-anchor="middle" x="53.5" y="-63.5" font-family="Helvetica,sans-Serif" font-size="10.00">k1_model.test.cpp</text>
</a>
</g>
</g>
<!-- Node1&#45;&gt;Node5 -->
<g id="edge12" class="edge">
<title>Node1&#45;&gt;Node5</title>
<path fill="none" stroke="midnightblue" d="M428.76,-171.04C379.37,-164.76 306.35,-152.82 245.5,-132 227.07,-125.7 224.59,-119.22 206.5,-112 167.42,-96.39 120.81,-83.45 89.39,-75.52"/>
<polygon fill="midnightblue" stroke="midnightblue" points="428.57,-174.55 438.93,-172.3 429.43,-167.6 428.57,-174.55"/>
</g>
<!-- Node12 -->
<g id="node12" class="node">
<title>Node12</title>
<g id="a_node12"><a xlink:href="k2__model_8hpp.html" target="_top" xlink:title=" ">
<polygon fill="none" stroke="black" points="442.5,-112.5 442.5,-131.5 528.5,-131.5 528.5,-112.5 442.5,-112.5"/>
<text text-anchor="middle" x="485.5" y="-119.5" font-family="Helvetica,sans-Serif" font-size="10.00">k2_model.hpp</text>
</a>
</g>
</g>
<!-- Node1&#45;&gt;Node12 -->
<g id="edge13" class="edge">
<title>Node1&#45;&gt;Node12</title>
<path fill="none" stroke="midnightblue" d="M485.5,-157.8C485.5,-148.91 485.5,-138.78 485.5,-131.75"/>
<polygon fill="midnightblue" stroke="midnightblue" points="482,-158.08 485.5,-168.08 489,-158.08 482,-158.08"/>
</g>
<!-- Node13 -->
<g id="node13" class="node">
<title>Node13</title>
<g id="a_node13"><a xlink:href="k2__peak__model_8test_8cpp.html" target="_top" xlink:title=" ">
<polygon fill="none" stroke="black" points="346.5,-56.5 346.5,-75.5 482.5,-75.5 482.5,-56.5 346.5,-56.5"/>
<text text-anchor="middle" x="414.5" y="-63.5" font-family="Helvetica,sans-Serif" font-size="10.00">k2_peak_model.test.cpp</text>
</a>
</g>
</g>
<!-- Node1&#45;&gt;Node13 -->
<g id="edge18" class="edge">
<title>Node1&#45;&gt;Node13</title>
<path fill="none" stroke="midnightblue" d="M463.29,-162.35C452.9,-154.47 441.16,-143.93 433.5,-132 421.94,-114 417.21,-88.74 415.45,-75.64"/>
<polygon fill="midnightblue" stroke="midnightblue" points="461.42,-165.32 471.58,-168.31 465.51,-159.63 461.42,-165.32"/>
</g>
<!-- Node14 -->
<g id="node14" class="node">
<title>Node14</title>
<g id="a_node14"><a xlink:href="k3__model_8hpp.html" target="_top" xlink:title=" ">
<polygon fill="none" stroke="black" points="672.5,-112.5 672.5,-131.5 758.5,-131.5 758.5,-112.5 672.5,-112.5"/>
<text text-anchor="middle" x="715.5" y="-119.5" font-family="Helvetica,sans-Serif" font-size="10.00">k3_model.hpp</text>
</a>
</g>
</g>
<!-- Node1&#45;&gt;Node14 -->
<g id="edge19" class="edge">
<title>Node1&#45;&gt;Node14</title>
<path fill="none" stroke="midnightblue" d="M531.7,-166.15C575.16,-155.95 639.34,-140.88 679.23,-131.52"/>
<polygon fill="midnightblue" stroke="midnightblue" points="530.88,-162.75 521.94,-168.44 532.48,-169.57 530.88,-162.75"/>
</g>
<!-- Node15 -->
<g id="node15" class="node">
<title>Node15</title>
<g id="a_node15"><a xlink:href="k3__model_8test_8cpp.html" target="_top" xlink:title=" ">
<polygon fill="none" stroke="black" points="899,-56.5 899,-75.5 1006,-75.5 1006,-56.5 899,-56.5"/>
<text text-anchor="middle" x="952.5" y="-63.5" font-family="Helvetica,sans-Serif" font-size="10.00">k3_model.test.cpp</text>
</a>
</g>
</g>
<!-- Node1&#45;&gt;Node15 -->
<g id="edge23" class="edge">
<title>Node1&#45;&gt;Node15</title>
<path fill="none" stroke="midnightblue" d="M542.52,-173.2C600.37,-168.12 691.93,-156.71 767.5,-132 786.01,-125.95 788.46,-119.34 806.5,-112 844.09,-96.71 888.9,-83.62 918.87,-75.56"/>
<polygon fill="midnightblue" stroke="midnightblue" points="542.14,-169.72 532.47,-174.05 542.73,-176.69 542.14,-169.72"/>
</g>
<!-- Node16 -->
<g id="node16" class="node">
<title>Node16</title>
<g id="a_node16"><a xlink:href="testing__model_8hpp.html" target="_top" xlink:title=" ">
<polygon fill="none" stroke="black" points="547,-112.5 547,-131.5 654,-131.5 654,-112.5 547,-112.5"/>
<text text-anchor="middle" x="600.5" y="-119.5" font-family="Helvetica,sans-Serif" font-size="10.00">testing_model.hpp</text>
</a>
</g>
</g>
<!-- Node1&#45;&gt;Node16 -->
<g id="edge24" class="edge">
<title>Node1&#45;&gt;Node16</title>
<path fill="none" stroke="midnightblue" d="M512.98,-164.1C534.47,-154.01 563.72,-140.27 582.36,-131.52"/>
<polygon fill="midnightblue" stroke="midnightblue" points="511.29,-161.02 503.72,-168.44 514.26,-167.36 511.29,-161.02"/>
</g>
<!-- Node18 -->
<g id="node18" class="node">
<title>Node18</title>
<g id="a_node18"><a xlink:href="wav__file_8test_8cpp.html" target="_top" xlink:title=" ">
<polygon fill="none" stroke="black" points="815,-112.5 815,-131.5 914,-131.5 914,-112.5 815,-112.5"/>
<text text-anchor="middle" x="864.5" y="-119.5" font-family="Helvetica,sans-Serif" font-size="10.00">wav_file.test.cpp</text>
</a>
</g>
</g>
<!-- Node1&#45;&gt;Node18 -->
<g id="edge28" class="edge">
<title>Node1&#45;&gt;Node18</title>
<path fill="none" stroke="midnightblue" d="M542.42,-168.89C616.42,-158.35 744.46,-140.1 814.75,-130.09"/>
<polygon fill="midnightblue" stroke="midnightblue" points="541.76,-165.45 532.35,-170.32 542.75,-172.38 541.76,-165.45"/>
</g>
<!-- Node4 -->
<g id="node4" class="node">
<title>Node4</title>
<g id="a_node4"><a xlink:href="k1__model_8cpp.html" target="_top" xlink:title=" ">
<polygon fill="none" stroke="black" points="125,-56.5 125,-75.5 210,-75.5 210,-56.5 125,-56.5"/>
<text text-anchor="middle" x="167.5" y="-63.5" font-family="Helvetica,sans-Serif" font-size="10.00">k1_model.cpp</text>
</a>
</g>
</g>
<!-- Node3&#45;&gt;Node4 -->
<g id="edge3" class="edge">
<title>Node3&#45;&gt;Node4</title>
<path fill="none" stroke="midnightblue" d="M267.41,-108.5C243.04,-98.38 209.36,-84.39 188,-75.52"/>
<polygon fill="midnightblue" stroke="midnightblue" points="266.32,-111.84 276.9,-112.44 269.01,-105.38 266.32,-111.84"/>
</g>
<!-- Node3&#45;&gt;Node5 -->
<g id="edge4" class="edge">
<title>Node3&#45;&gt;Node5</title>
<path fill="none" stroke="midnightblue" d="M249.07,-110.28C202.96,-100.08 134.47,-84.92 91.98,-75.52"/>
<polygon fill="midnightblue" stroke="midnightblue" points="248.32,-113.7 258.84,-112.44 249.83,-106.87 248.32,-113.7"/>
</g>
<!-- Node6 -->
<g id="node6" class="node">
<title>Node6</title>
<g id="a_node6"><a xlink:href="tests_2ktl__model__scoring_2main_8cpp.html" target="_top" xlink:title=" ">
<polygon fill="none" stroke="black" points="266.5,-56.5 266.5,-75.5 328.5,-75.5 328.5,-56.5 266.5,-56.5"/>
<text text-anchor="middle" x="297.5" y="-63.5" font-family="Helvetica,sans-Serif" font-size="10.00">main.cpp</text>
</a>
</g>
</g>
<!-- Node3&#45;&gt;Node6 -->
<g id="edge5" class="edge">
<title>Node3&#45;&gt;Node6</title>
<path fill="none" stroke="midnightblue" d="M297.5,-101.8C297.5,-92.91 297.5,-82.78 297.5,-75.75"/>
<polygon fill="midnightblue" stroke="midnightblue" points="294,-102.08 297.5,-112.08 301,-102.08 294,-102.08"/>
</g>
<!-- Node7 -->
<g id="node7" class="node">
<title>Node7</title>
<g id="a_node7"><a xlink:href="translation__layer_8cpp.html" target="_top" xlink:title=" ">
<polygon fill="none" stroke="black" points="459,-0.5 459,-19.5 578,-19.5 578,-0.5 459,-0.5"/>
<text text-anchor="middle" x="518.5" y="-7.5" font-family="Helvetica,sans-Serif" font-size="10.00">translation_layer.cpp</text>
</a>
</g>
</g>
<!-- Node3&#45;&gt;Node7 -->
<g id="edge6" class="edge">
<title>Node3&#45;&gt;Node7</title>
<path fill="none" stroke="midnightblue" d="M277.55,-105.96C261.72,-92.22 244.27,-71.71 257.5,-56 282.72,-26.06 389.83,-16.04 458.75,-12.69"/>
<polygon fill="midnightblue" stroke="midnightblue" points="275.55,-108.85 285.51,-112.47 279.98,-103.43 275.55,-108.85"/>
</g>
<!-- Node8 -->
<g id="node8" class="node">
<title>Node8</title>
<g id="a_node8"><a xlink:href="translation__layer_8hpp.html" target="_top" xlink:title=" ">
<polygon fill="none" stroke="black" points="577,-56.5 577,-75.5 696,-75.5 696,-56.5 577,-56.5"/>
<text text-anchor="middle" x="636.5" y="-63.5" font-family="Helvetica,sans-Serif" font-size="10.00">translation_layer.hpp</text>
</a>
</g>
</g>
<!-- Node3&#45;&gt;Node8 -->
<g id="edge7" class="edge">
<title>Node3&#45;&gt;Node8</title>
<path fill="none" stroke="midnightblue" d="M350.97,-112.48C414.36,-102.38 519.41,-85.65 582.88,-75.54"/>
<polygon fill="midnightblue" stroke="midnightblue" points="350.1,-109.08 340.78,-114.11 351.21,-115.99 350.1,-109.08"/>
</g>
<!-- Node8&#45;&gt;Node7 -->
<g id="edge10" class="edge">
<title>Node8&#45;&gt;Node7</title>
<path fill="none" stroke="midnightblue" d="M608.6,-52.23C586.53,-42.13 556.32,-28.31 537.11,-19.52"/>
<polygon fill="midnightblue" stroke="midnightblue" points="607.25,-55.46 617.8,-56.44 610.17,-49.1 607.25,-55.46"/>
</g>
<!-- Node9 -->
<g id="node9" class="node">
<title>Node9</title>
<g id="a_node9"><a xlink:href="src_2kazoo__connect__server_2main_8cpp.html" target="_top" xlink:title=" ">
<polygon fill="none" stroke="black" points="596.5,-0.5 596.5,-19.5 658.5,-19.5 658.5,-0.5 596.5,-0.5"/>
<text text-anchor="middle" x="627.5" y="-7.5" font-family="Helvetica,sans-Serif" font-size="10.00">main.cpp</text>
</a>
</g>
</g>
<!-- Node8&#45;&gt;Node9 -->
<g id="edge8" class="edge">
<title>Node8&#45;&gt;Node9</title>
<path fill="none" stroke="midnightblue" d="M633.35,-46.1C631.86,-37.14 630.14,-26.86 628.96,-19.75"/>
<polygon fill="midnightblue" stroke="midnightblue" points="629.92,-46.79 635.01,-56.08 636.82,-45.64 629.92,-46.79"/>
</g>
<!-- Node10 -->
<g id="node10" class="node">
<title>Node10</title>
<g id="a_node10"><a xlink:href="src_2main_8cpp.html" target="_top" xlink:title=" ">
<polygon fill="none" stroke="black" points="676.5,-0.5 676.5,-19.5 738.5,-19.5 738.5,-0.5 676.5,-0.5"/>
<text text-anchor="middle" x="707.5" y="-7.5" font-family="Helvetica,sans-Serif" font-size="10.00">main.cpp</text>
</a>
</g>
</g>
<!-- Node8&#45;&gt;Node10 -->
<g id="edge9" class="edge">
<title>Node8&#45;&gt;Node10</title>
<path fill="none" stroke="midnightblue" d="M656.09,-50.1C668.87,-40.38 685.11,-28.03 695.89,-19.83"/>
<polygon fill="midnightblue" stroke="midnightblue" points="653.75,-47.48 647.91,-56.32 657.99,-53.06 653.75,-47.48"/>
</g>
<!-- Node11 -->
<g id="node11" class="node">
<title>Node11</title>
<g id="a_node11"><a xlink:href="translation__layer_8test_8cpp.html" target="_top" xlink:title=" ">
<polygon fill="none" stroke="black" points="756.5,-0.5 756.5,-19.5 896.5,-19.5 896.5,-0.5 756.5,-0.5"/>
<text text-anchor="middle" x="826.5" y="-7.5" font-family="Helvetica,sans-Serif" font-size="10.00">translation_layer.test.cpp</text>
</a>
</g>
</g>
<!-- Node8&#45;&gt;Node11 -->
<g id="edge11" class="edge">
<title>Node8&#45;&gt;Node11</title>
<path fill="none" stroke="midnightblue" d="M676.26,-53.7C712.12,-43.51 764.07,-28.74 796.53,-19.52"/>
<polygon fill="midnightblue" stroke="midnightblue" points="675.27,-50.34 666.61,-56.44 677.18,-57.08 675.27,-50.34"/>
</g>
<!-- Node12&#45;&gt;Node6 -->
<g id="edge15" class="edge">
<title>Node12&#45;&gt;Node6</title>
<path fill="none" stroke="midnightblue" d="M445.7,-109.57C410.23,-99.38 359.13,-84.7 327.15,-75.52"/>
<polygon fill="midnightblue" stroke="midnightblue" points="445.13,-113.05 455.71,-112.44 447.07,-106.32 445.13,-113.05"/>
</g>
<!-- Node12&#45;&gt;Node7 -->
<g id="edge16" class="edge">
<title>Node12&#45;&gt;Node7</title>
<path fill="none" stroke="midnightblue" d="M491,-102.67C498.21,-78.62 510.58,-37.39 515.92,-19.59"/>
<polygon fill="midnightblue" stroke="midnightblue" points="487.61,-101.78 488.09,-112.37 494.32,-103.8 487.61,-101.78"/>
</g>
<!-- Node12&#45;&gt;Node8 -->
<g id="edge17" class="edge">
<title>Node12&#45;&gt;Node8</title>
<path fill="none" stroke="midnightblue" d="M518.95,-109.04C547.36,-98.88 587.44,-84.55 612.69,-75.52"/>
<polygon fill="midnightblue" stroke="midnightblue" points="517.66,-105.78 509.43,-112.44 520.02,-112.37 517.66,-105.78"/>
</g>
<!-- Node12&#45;&gt;Node13 -->
<g id="edge14" class="edge">
<title>Node12&#45;&gt;Node13</title>
<path fill="none" stroke="midnightblue" d="M465.91,-106.1C453.13,-96.38 436.89,-84.03 426.11,-75.83"/>
<polygon fill="midnightblue" stroke="midnightblue" points="464.01,-109.06 474.09,-112.32 468.25,-103.48 464.01,-109.06"/>
</g>
<!-- Node14&#45;&gt;Node7 -->
<g id="edge21" class="edge">
<title>Node14&#45;&gt;Node7</title>
<path fill="none" stroke="midnightblue" d="M768.23,-110.22C802.01,-102.12 841.36,-90.04 851.5,-76 856.71,-68.79 857.35,-62.69 851.5,-56 850.38,-54.72 673.69,-31.36 578.17,-18.82"/>
<polygon fill="midnightblue" stroke="midnightblue" points="767.37,-106.82 758.42,-112.5 768.95,-113.64 767.37,-106.82"/>
</g>
<!-- Node14&#45;&gt;Node8 -->
<g id="edge22" class="edge">
<title>Node14&#45;&gt;Node8</title>
<path fill="none" stroke="midnightblue" d="M694.47,-106.62C680.03,-96.76 661.36,-83.99 649.16,-75.65"/>
<polygon fill="midnightblue" stroke="midnightblue" points="692.58,-109.57 702.81,-112.32 696.53,-103.79 692.58,-109.57"/>
</g>
<!-- Node14&#45;&gt;Node15 -->
<g id="edge20" class="edge">
<title>Node14&#45;&gt;Node15</title>
<path fill="none" stroke="midnightblue" d="M762.82,-110.22C807.61,-100.01 873.94,-84.9 915.12,-75.52"/>
<polygon fill="midnightblue" stroke="midnightblue" points="762.03,-106.81 753.05,-112.44 763.58,-113.63 762.03,-106.81"/>
</g>
<!-- Node16&#45;&gt;Node7 -->
<g id="edge26" class="edge">
<title>Node16&#45;&gt;Node7</title>
<path fill="none" stroke="midnightblue" d="M588.03,-104.27C570.3,-80.49 538.47,-37.79 524.9,-19.59"/>
<polygon fill="midnightblue" stroke="midnightblue" points="585.28,-106.44 594.07,-112.37 590.9,-102.26 585.28,-106.44"/>
</g>
<!-- Node16&#45;&gt;Node8 -->
<g id="edge27" class="edge">
<title>Node16&#45;&gt;Node8</title>
<path fill="none" stroke="midnightblue" d="M612.12,-103.57C618.32,-94.27 625.67,-83.25 630.67,-75.75"/>
<polygon fill="midnightblue" stroke="midnightblue" points="609.08,-101.82 606.44,-112.08 614.9,-105.7 609.08,-101.82"/>
</g>
<!-- Node17 -->
<g id="node17" class="node">
<title>Node17</title>
<g id="a_node17"><a xlink:href="testing__model_8test_8cpp.html" target="_top" xlink:title=" ">
<polygon fill="none" stroke="black" points="714.5,-56.5 714.5,-75.5 842.5,-75.5 842.5,-56.5 714.5,-56.5"/>
<text text-anchor="middle" x="778.5" y="-63.5" font-family="Helvetica,sans-Serif" font-size="10.00">testing_model.test.cpp</text>
</a>
</g>
</g>
<!-- Node16&#45;&gt;Node17 -->
<g id="edge25" class="edge">
<title>Node16&#45;&gt;Node17</title>
<path fill="none" stroke="midnightblue" d="M638.62,-109.44C672.18,-99.26 720.27,-84.66 750.43,-75.52"/>
<polygon fill="midnightblue" stroke="midnightblue" points="637.26,-106.19 628.7,-112.44 639.29,-112.89 637.26,-106.19"/>
</g>
</g>
</svg>
